File: fairy-mountain.mid
Format: 1
Tracks: 17
Ticks per quarter note: 120

Track chunk of 138 bytes
000000t:  Meta-event type $03 (Track name) of length 8
	  untitled
000000t:  Meta-event type $01 (Text event) of length 97
	  Template that configures 16 trac
	  ks for 16 separate MIDI channels
	  , full Volume, and centered Pan.
	  _
000000t:  Meta-event type $58 (Time signature) of length 4
	  ____
000000t:  Meta-event type $59 (Key signature) of length 2
	  __
000000t:  Meta-event type $51 (Set tempo) of length 3
	  _q°
000000t:  Meta-event type $2f (End-track event) of length 0
Sigma t = 0

Track chunk of 27 bytes
000000t:  Meta-event type $21 (?) of length 1
	  _
000000t:  Meta-event type $03 (Track name) of length 7
	  Track 1
000000t:  Control change ::  Channel 0.  Controller 7.  Value: 127
000000t:  Control change ::  Channel 0.  Controller 10.  Value: 63
000000t:  Meta-event type $2f (End-track event) of length 0
Sigma t = 0

Track chunk of 3496 bytes
000000t:  Meta-event type $21 (?) of length 1
	  _
000000t:  Meta-event type $03 (Track name) of length 7
	  Track 2
000000t:  Program (patch) change ::  Channel 1.  Patch 46 (Orchestral Strings)
000000t:  Control change ::  Channel 1.  Controller 7.  Value: 120
000000t:  Control change ::  Channel 1.  Controller 10.  Value: 127
000000t:  Control change ::  Channel 1.  Controller 91.  Value: 119
000002t:  Control change ::  Channel 1.  Controller 1.  Value: 48
000028t:  Note on ::  Channel 1.  Note 58.  Velocity 108
000030t:  Note on ::  Channel 1.  Note 58.  Velocity 0
000000t:  Note on ::  Channel 1.  Note 62.  Velocity 108
000030t:  Note on ::  Channel 1.  Note 62.  Velocity 0
000000t:  Note on ::  Channel 1.  Note 69.  Velocity 108
000030t:  Note on ::  Channel 1.  Note 69.  Velocity 0
000150t:  Note on ::  Channel 1.  Note 62.  Velocity 108
000030t:  Note on ::  Channel 1.  Note 62.  Velocity 0
000000t:  Note on ::  Channel 1.  Note 69.  Velocity 108
000030t:  Note on ::  Channel 1.  Note 69.  Velocity 0
000000t:  Note on ::  Channel 1.  Note 67.  Velocity 108
000030t:  Note on ::  Channel 1.  Note 67.  Velocity 0
000000t:  Note on ::  Channel 1.  Note 72.  Velocity 108
000030t:  Note on ::  Channel 1.  Note 72.  Velocity 0
000000t:  Note on ::  Channel 1.  Note 69.  Velocity 108
000030t:  Note on ::  Channel 1.  Note 69.  Velocity 0
000000t:  Note on ::  Channel 1.  Note 67.  Velocity 108
000030t:  Note on ::  Channel 1.  Note 67.  Velocity 0
000000t:  Note on ::  Channel 1.  Note 62.  Velocity 108
000030t:  Note on ::  Channel 1.  Note 62.  Velocity 0
000030t:  Note on ::  Channel 1.  Note 57.  Velocity 108
000030t:  Note on ::  Channel 1.  Note 57.  Velocity 0
000000t:  Note on ::  Channel 1.  Note 60.  Velocity 108
000030t:  Note on ::  Channel 1.  Note 60.  Velocity 0
000000t:  Note on ::  Channel 1.  Note 67.  Velocity 108
000030t:  Note on ::  Channel 1.  Note 67.  Velocity 0
000150t:  Note on ::  Channel 1.  Note 60.  Velocity 108
000030t:  Note on ::  Channel 1.  Note 60.  Velocity 0
000000t:  Note on ::  Channel 1.  Note 67.  Velocity 108
000030t:  Note on ::  Channel 1.  Note 67.  Velocity 0
000000t:  Note on ::  Channel 1.  Note 65.  Velocity 108
000030t:  Note on ::  Channel 1.  Note 65.  Velocity 0
000000t:  Note on ::  Channel 1.  Note 72.  Velocity 108
000030t:  Note on ::  Channel 1.  Note 72.  Velocity 0
000000t:  Note on ::  Channel 1.  Note 67.  Velocity 108
000030t:  Note on ::  Channel 1.  Note 67.  Velocity 0
000000t:  Note on ::  Channel 1.  Note 65.  Velocity 108
000030t:  Note on ::  Channel 1.  Note 65.  Velocity 0
000000t:  Note on ::  Channel 1.  Note 60.  Velocity 108
000030t:  Note on ::  Channel 1.  Note 60.  Velocity 0
000030t:  Note on ::  Channel 1.  Note 55.  Velocity 108
000030t:  Note on ::  Channel 1.  Note 55.  Velocity 0
000000t:  Note on ::  Channel 1.  Note 58.  Velocity 108
000030t:  Note on ::  Channel 1.  Note 58.  Velocity 0
000000t:  Note on ::  Channel 1.  Note 65.  Velocity 108
000030t:  Note on ::  Channel 1.  Note 65.  Velocity 0
000150t:  Note on ::  Channel 1.  Note 55.  Velocity 108
000030t:  Note on ::  Channel 1.  Note 55.  Velocity 0
000000t:  Note on ::  Channel 1.  Note 65.  Velocity 108
000030t:  Note on ::  Channel 1.  Note 65.  Velocity 0
000000t:  Note on ::  Channel 1.  Note 64.  Velocity 108
000030t:  Note on ::  Channel 1.  Note 64.  Velocity 0
000000t:  Note on ::  Channel 1.  Note 67.  Velocity 108
000030t:  Note on ::  Channel 1.  Note 67.  Velocity 0
000000t:  Note on ::  Channel 1.  Note 64.  Velocity 108
000030t:  Note on ::  Channel 1.  Note 64.  Velocity 0
000000t:  Note on ::  Channel 1.  Note 62.  Velocity 108
000030t:  Note on ::  Channel 1.  Note 62.  Velocity 0
000000t:  Note on ::  Channel 1.  Note 58.  Velocity 108
000030t:  Note on ::  Channel 1.  Note 58.  Velocity 0
000030t:  Note on ::  Channel 1.  Note 53.  Velocity 108
000030t:  Note on ::  Channel 1.  Note 53.  Velocity 0
000000t:  Note on ::  Channel 1.  Note 57.  Velocity 108
000030t:  Note on ::  Channel 1.  Note 57.  Velocity 0
000000t:  Note on ::  Channel 1.  Note 64.  Velocity 108
000030t:  Note on ::  Channel 1.  Note 64.  Velocity 0
000150t:  Note on ::  Channel 1.  Note 53.  Velocity 108
000030t:  Note on ::  Channel 1.  Note 53.  Velocity 0
000000t:  Note on ::  Channel 1.  Note 64.  Velocity 108
000030t:  Note on ::  Channel 1.  Note 64.  Velocity 0
000000t:  Note on ::  Channel 1.  Note 62.  Velocity 108
000030t:  Note on ::  Channel 1.  Note 62.  Velocity 0
000000t:  Note on ::  Channel 1.  Note 67.  Velocity 108
000030t:  Note on ::  Channel 1.  Note 67.  Velocity 0
000000t:  Note on ::  Channel 1.  Note 65.  Velocity 108
000030t:  Note on ::  Channel 1.  Note 65.  Velocity 0
000000t:  Note on ::  Channel 1.  Note 72.  Velocity 108
000030t:  Note on ::  Channel 1.  Note 72.  Velocity 0
000000t:  Note on ::  Channel 1.  Note 70.  Velocity 108
000030t:  Note on ::  Channel 1.  Note 70.  Velocity 0
000030t:  Note on ::  Channel 1.  Note 58.  Velocity 108
000030t:  Note on ::  Channel 1.  Note 58.  Velocity 0
000000t:  Note on ::  Channel 1.  Note 62.  Velocity 108
000030t:  Note on ::  Channel 1.  Note 62.  Velocity 0
000000t:  Note on ::  Channel 1.  Note 69.  Velocity 108
000030t:  Note on ::  Channel 1.  Note 69.  Velocity 0
000150t:  Note on ::  Channel 1.  Note 62.  Velocity 108
000030t:  Note on ::  Channel 1.  Note 62.  Velocity 0
000000t:  Note on ::  Channel 1.  Note 69.  Velocity 108
000030t:  Note on ::  Channel 1.  Note 69.  Velocity 0
000000t:  Note on ::  Channel 1.  Note 67.  Velocity 108
000030t:  Note on ::  Channel 1.  Note 67.  Velocity 0
000000t:  Note on ::  Channel 1.  Note 74.  Velocity 108
000030t:  Note on ::  Channel 1.  Note 74.  Velocity 0
000000t:  Note on ::  Channel 1.  Note 69.  Velocity 108
000030t:  Note on ::  Channel 1.  Note 69.  Velocity 0
000000t:  Note on ::  Channel 1.  Note 67.  Velocity 108
000030t:  Note on ::  Channel 1.  Note 67.  Velocity 0
000000t:  Note on ::  Channel 1.  Note 62.  Velocity 108
000030t:  Note on ::  Channel 1.  Note 62.  Velocity 0
000030t:  Note on ::  Channel 1.  Note 57.  Velocity 108
000030t:  Note on ::  Channel 1.  Note 57.  Velocity 0
000000t:  Note on ::  Channel 1.  Note 60.  Velocity 108
000030t:  Note on ::  Channel 1.  Note 60.  Velocity 0
000000t:  Note on ::  Channel 1.  Note 72.  Velocity 108
000030t:  Note on ::  Channel 1.  Note 72.  Velocity 0
000150t:  Note on ::  Channel 1.  Note 57.  Velocity 108
000030t:  Note on ::  Channel 1.  Note 57.  Velocity 0
000000t:  Note on ::  Channel 1.  Note 72.  Velocity 108
000030t:  Note on ::  Channel 1.  Note 72.  Velocity 0
000000t:  Note on ::  Channel 1.  Note 69.  Velocity 108
000030t:  Note on ::  Channel 1.  Note 69.  Velocity 0
000000t:  Note on ::  Channel 1.  Note 75.  Velocity 108
000030t:  Note on ::  Channel 1.  Note 75.  Velocity 0
000000t:  Note on ::  Channel 1.  Note 74.  Velocity 108
000030t:  Note on ::  Channel 1.  Note 74.  Velocity 0
000000t:  Note on ::  Channel 1.  Note 72.  Velocity 108
000030t:  Note on ::  Channel 1.  Note 72.  Velocity 0
000000t:  Note on ::  Channel 1.  Note 69.  Velocity 108
000030t:  Note on ::  Channel 1.  Note 69.  Velocity 0
000030t:  Note on ::  Channel 1.  Note 58.  Velocity 108
000030t:  Note on ::  Channel 1.  Note 58.  Velocity 0
000000t:  Note on ::  Channel 1.  Note 62.  Velocity 108
000030t:  Note on ::  Channel 1.  Note 62.  Velocity 0
000000t:  Note on ::  Channel 1.  Note 70.  Velocity 108
000030t:  Note on ::  Channel 1.  Note 70.  Velocity 0
000150t:  Note on ::  Channel 1.  Note 58.  Velocity 108
000030t:  Note on ::  Channel 1.  Note 58.  Velocity 0
000000t:  Note on ::  Channel 1.  Note 70.  Velocity 108
000030t:  Note on ::  Channel 1.  Note 70.  Velocity 0
000000t:  Note on ::  Channel 1.  Note 69.  Velocity 108
000030t:  Note on ::  Channel 1.  Note 69.  Velocity 0
000000t:  Note on ::  Channel 1.  Note 72.  Velocity 108
000030t:  Note on ::  Channel 1.  Note 72.  Velocity 0
000000t:  Note on ::  Channel 1.  Note 70.  Velocity 108
000030t:  Note on ::  Channel 1.  Note 70.  Velocity 0
000000t:  Note on ::  Channel 1.  Note 67.  Velocity 108
000030t:  Note on ::  Channel 1.  Note 67.  Velocity 0
000000t:  Note on ::  Channel 1.  Note 62.  Velocity 108
000030t:  Note on ::  Channel 1.  Note 62.  Velocity 0
000030t:  Note on ::  Channel 1.  Note 60.  Velocity 108
000030t:  Note on ::  Channel 1.  Note 60.  Velocity 0
000000t:  Note on ::  Channel 1.  Note 67.  Velocity 108
000030t:  Note on ::  Channel 1.  Note 67.  Velocity 0
000000t:  Note on ::  Channel 1.  Note 70.  Velocity 108
000030t:  Note on ::  Channel 1.  Note 70.  Velocity 0
000150t:  Note on ::  Channel 1.  Note 60.  Velocity 108
000030t:  Note on ::  Channel 1.  Note 60.  Velocity 0
000000t:  Note on ::  Channel 1.  Note 70.  Velocity 108
000030t:  Note on ::  Channel 1.  Note 70.  Velocity 0
000000t:  Note on ::  Channel 1.  Note 67.  Velocity 108
000030t:  Note on ::  Channel 1.  Note 67.  Velocity 0
000000t:  Note on ::  Channel 1.  Note 76.  Velocity 108
000030t:  Note on ::  Channel 1.  Note 76.  Velocity 0
000000t:  Note on ::  Channel 1.  Note 74.  Velocity 108
000030t:  Note on ::  Channel 1.  Note 74.  Velocity 0
000000t:  Note on ::  Channel 1.  Note 79.  Velocity 108
000030t:  Note on ::  Channel 1.  Note 79.  Velocity 0
000000t:  Note on ::  Channel 1.  Note 76.  Velocity 108
000030t:  Note on ::  Channel 1.  Note 76.  Velocity 0
000030t:  Note on ::  Channel 1.  Note 58.  Velocity 108
000030t:  Note on ::  Channel 1.  Note 58.  Velocity 0
000000t:  Note on ::  Channel 1.  Note 62.  Velocity 108
000030t:  Note on ::  Channel 1.  Note 62.  Velocity 0
000000t:  Note on ::  Channel 1.  Note 69.  Velocity 108
000030t:  Note on ::  Channel 1.  Note 69.  Velocity 0
000150t:  Note on ::  Channel 1.  Note 62.  Velocity 108
000030t:  Note on ::  Channel 1.  Note 62.  Velocity 0
000000t:  Note on ::  Channel 1.  Note 69.  Velocity 108
000030t:  Note on ::  Channel 1.  Note 69.  Velocity 0
000000t:  Note on ::  Channel 1.  Note 67.  Velocity 108
000030t:  Note on ::  Channel 1.  Note 67.  Velocity 0
000000t:  Note on ::  Channel 1.  Note 72.  Velocity 108
000030t:  Note on ::  Channel 1.  Note 72.  Velocity 0
000000t:  Note on ::  Channel 1.  Note 69.  Velocity 108
000030t:  Note on ::  Channel 1.  Note 69.  Velocity 0
000000t:  Note on ::  Channel 1.  Note 67.  Velocity 108
000030t:  Note on ::  Channel 1.  Note 67.  Velocity 0
000000t:  Note on ::  Channel 1.  Note 62.  Velocity 108
000030t:  Note on ::  Channel 1.  Note 62.  Velocity 0
000030t:  Note on ::  Channel 1.  Note 57.  Velocity 108
000030t:  Note on ::  Channel 1.  Note 57.  Velocity 0
000000t:  Note on ::  Channel 1.  Note 60.  Velocity 108
000030t:  Note on ::  Channel 1.  Note 60.  Velocity 0
000000t:  Note on ::  Channel 1.  Note 67.  Velocity 108
000030t:  Note on ::  Channel 1.  Note 67.  Velocity 0
000150t:  Note on ::  Channel 1.  Note 60.  Velocity 108
000030t:  Note on ::  Channel 1.  Note 60.  Velocity 0
000000t:  Note on ::  Channel 1.  Note 67.  Velocity 108
000030t:  Note on ::  Channel 1.  Note 67.  Velocity 0
000000t:  Note on ::  Channel 1.  Note 65.  Velocity 108
000030t:  Note on ::  Channel 1.  Note 65.  Velocity 0
000000t:  Note on ::  Channel 1.  Note 72.  Velocity 108
000030t:  Note on ::  Channel 1.  Note 72.  Velocity 0
000000t:  Note on ::  Channel 1.  Note 67.  Velocity 108
000030t:  Note on ::  Channel 1.  Note 67.  Velocity 0
000000t:  Note on ::  Channel 1.  Note 65.  Velocity 108
000030t:  Note on ::  Channel 1.  Note 65.  Velocity 0
000000t:  Note on ::  Channel 1.  Note 60.  Velocity 108
000030t:  Note on ::  Channel 1.  Note 60.  Velocity 0
000030t:  Note on ::  Channel 1.  Note 55.  Velocity 108
000030t:  Note on ::  Channel 1.  Note 55.  Velocity 0
000000t:  Note on ::  Channel 1.  Note 58.  Velocity 108
000030t:  Note on ::  Channel 1.  Note 58.  Velocity 0
000000t:  Note on ::  Channel 1.  Note 65.  Velocity 108
000030t:  Note on ::  Channel 1.  Note 65.  Velocity 0
000150t:  Note on ::  Channel 1.  Note 55.  Velocity 108
000030t:  Note on ::  Channel 1.  Note 55.  Velocity 0
000000t:  Note on ::  Channel 1.  Note 65.  Velocity 108
000030t:  Note on ::  Channel 1.  Note 65.  Velocity 0
000000t:  Note on ::  Channel 1.  Note 64.  Velocity 108
000030t:  Note on ::  Channel 1.  Note 64.  Velocity 0
000000t:  Note on ::  Channel 1.  Note 67.  Velocity 108
000030t:  Note on ::  Channel 1.  Note 67.  Velocity 0
000000t:  Note on ::  Channel 1.  Note 64.  Velocity 108
000030t:  Note on ::  Channel 1.  Note 64.  Velocity 0
000000t:  Note on ::  Channel 1.  Note 62.  Velocity 108
000030t:  Note on ::  Channel 1.  Note 62.  Velocity 0
000000t:  Note on ::  Channel 1.  Note 58.  Velocity 108
000030t:  Note on ::  Channel 1.  Note 58.  Velocity 0
000030t:  Note on ::  Channel 1.  Note 53.  Velocity 108
000030t:  Note on ::  Channel 1.  Note 53.  Velocity 0
000000t:  Note on ::  Channel 1.  Note 57.  Velocity 108
000030t:  Note on ::  Channel 1.  Note 57.  Velocity 0
000000t:  Note on ::  Channel 1.  Note 64.  Velocity 108
000030t:  Note on ::  Channel 1.  Note 64.  Velocity 0
000150t:  Note on ::  Channel 1.  Note 53.  Velocity 108
000030t:  Note on ::  Channel 1.  Note 53.  Velocity 0
000000t:  Note on ::  Channel 1.  Note 64.  Velocity 108
000030t:  Note on ::  Channel 1.  Note 64.  Velocity 0
000000t:  Note on ::  Channel 1.  Note 62.  Velocity 108
000030t:  Note on ::  Channel 1.  Note 62.  Velocity 0
000000t:  Note on ::  Channel 1.  Note 67.  Velocity 108
000030t:  Note on ::  Channel 1.  Note 67.  Velocity 0
000000t:  Note on ::  Channel 1.  Note 65.  Velocity 108
000030t:  Note on ::  Channel 1.  Note 65.  Velocity 0
000000t:  Note on ::  Channel 1.  Note 72.  Velocity 108
000030t:  Note on ::  Channel 1.  Note 72.  Velocity 0
000000t:  Note on ::  Channel 1.  Note 70.  Velocity 108
000030t:  Note on ::  Channel 1.  Note 70.  Velocity 0
000030t:  Note on ::  Channel 1.  Note 58.  Velocity 108
000030t:  Note on ::  Channel 1.  Note 58.  Velocity 0
000000t:  Note on ::  Channel 1.  Note 62.  Velocity 108
000030t:  Note on ::  Channel 1.  Note 62.  Velocity 0
000000t:  Note on ::  Channel 1.  Note 69.  Velocity 108
000030t:  Note on ::  Channel 1.  Note 69.  Velocity 0
000150t:  Note on ::  Channel 1.  Note 62.  Velocity 108
000030t:  Note on ::  Channel 1.  Note 62.  Velocity 0
000000t:  Note on ::  Channel 1.  Note 69.  Velocity 108
000030t:  Note on ::  Channel 1.  Note 69.  Velocity 0
000000t:  Note on ::  Channel 1.  Note 67.  Velocity 108
000030t:  Note on ::  Channel 1.  Note 67.  Velocity 0
000000t:  Note on ::  Channel 1.  Note 74.  Velocity 108
000030t:  Note on ::  Channel 1.  Note 74.  Velocity 0
000000t:  Note on ::  Channel 1.  Note 69.  Velocity 108
000030t:  Note on ::  Channel 1.  Note 69.  Velocity 0
000000t:  Note on ::  Channel 1.  Note 67.  Velocity 108
000030t:  Note on ::  Channel 1.  Note 67.  Velocity 0
000000t:  Note on ::  Channel 1.  Note 62.  Velocity 108
000030t:  Note on ::  Channel 1.  Note 62.  Velocity 0
000030t:  Note on ::  Channel 1.  Note 57.  Velocity 108
000030t:  Note on ::  Channel 1.  Note 57.  Velocity 0
000000t:  Note on ::  Channel 1.  Note 60.  Velocity 108
000030t:  Note on ::  Channel 1.  Note 60.  Velocity 0
000000t:  Note on ::  Channel 1.  Note 72.  Velocity 108
000030t:  Note on ::  Channel 1.  Note 72.  Velocity 0
000150t:  Note on ::  Channel 1.  Note 57.  Velocity 108
000030t:  Note on ::  Channel 1.  Note 57.  Velocity 0
000000t:  Note on ::  Channel 1.  Note 72.  Velocity 108
000030t:  Note on ::  Channel 1.  Note 72.  Velocity 0
000000t:  Note on ::  Channel 1.  Note 69.  Velocity 108
000030t:  Note on ::  Channel 1.  Note 69.  Velocity 0
000000t:  Note on ::  Channel 1.  Note 75.  Velocity 108
000030t:  Note on ::  Channel 1.  Note 75.  Velocity 0
000000t:  Note on ::  Channel 1.  Note 74.  Velocity 108
000030t:  Note on ::  Channel 1.  Note 74.  Velocity 0
000000t:  Note on ::  Channel 1.  Note 72.  Velocity 108
000030t:  Note on ::  Channel 1.  Note 72.  Velocity 0
000000t:  Note on ::  Channel 1.  Note 69.  Velocity 108
000030t:  Note on ::  Channel 1.  Note 69.  Velocity 0
000030t:  Note on ::  Channel 1.  Note 58.  Velocity 108
000030t:  Note on ::  Channel 1.  Note 58.  Velocity 0
000000t:  Note on ::  Channel 1.  Note 62.  Velocity 108
000030t:  Note on ::  Channel 1.  Note 62.  Velocity 0
000000t:  Note on ::  Channel 1.  Note 70.  Velocity 108
000030t:  Note on ::  Channel 1.  Note 70.  Velocity 0
000150t:  Note on ::  Channel 1.  Note 58.  Velocity 108
000030t:  Note on ::  Channel 1.  Note 58.  Velocity 0
000000t:  Note on ::  Channel 1.  Note 70.  Velocity 108
000030t:  Note on ::  Channel 1.  Note 70.  Velocity 0
000000t:  Note on ::  Channel 1.  Note 69.  Velocity 108
000030t:  Note on ::  Channel 1.  Note 69.  Velocity 0
000000t:  Note on ::  Channel 1.  Note 72.  Velocity 108
000030t:  Note on ::  Channel 1.  Note 72.  Velocity 0
000000t:  Note on ::  Channel 1.  Note 70.  Velocity 108
000030t:  Note on ::  Channel 1.  Note 70.  Velocity 0
000000t:  Note on ::  Channel 1.  Note 67.  Velocity 108
000030t:  Note on ::  Channel 1.  Note 67.  Velocity 0
000000t:  Note on ::  Channel 1.  Note 62.  Velocity 108
000030t:  Note on ::  Channel 1.  Note 62.  Velocity 0
000030t:  Note on ::  Channel 1.  Note 60.  Velocity 108
000030t:  Note on ::  Channel 1.  Note 60.  Velocity 0
000000t:  Note on ::  Channel 1.  Note 67.  Velocity 108
000030t:  Note on ::  Channel 1.  Note 67.  Velocity 0
000000t:  Note on ::  Channel 1.  Note 70.  Velocity 108
000030t:  Note on ::  Channel 1.  Note 70.  Velocity 0
000150t:  Note on ::  Channel 1.  Note 60.  Velocity 108
000030t:  Note on ::  Channel 1.  Note 60.  Velocity 0
000000t:  Note on ::  Channel 1.  Note 70.  Velocity 108
000030t:  Note on ::  Channel 1.  Note 70.  Velocity 0
000000t:  Note on ::  Channel 1.  Note 67.  Velocity 108
000030t:  Note on ::  Channel 1.  Note 67.  Velocity 0
000000t:  Note on ::  Channel 1.  Note 76.  Velocity 108
000030t:  Note on ::  Channel 1.  Note 76.  Velocity 0
000000t:  Note on ::  Channel 1.  Note 74.  Velocity 108
000030t:  Note on ::  Channel 1.  Note 74.  Velocity 0
000000t:  Note on ::  Channel 1.  Note 79.  Velocity 108
000030t:  Note on ::  Channel 1.  Note 79.  Velocity 0
000000t:  Note on ::  Channel 1.  Note 76.  Velocity 108
000030t:  Note on ::  Channel 1.  Note 76.  Velocity 0
000030t:  Note on ::  Channel 1.  Note 58.  Velocity 108
000030t:  Note on ::  Channel 1.  Note 58.  Velocity 0
000000t:  Note on ::  Channel 1.  Note 62.  Velocity 108
000030t:  Note on ::  Channel 1.  Note 62.  Velocity 0
000000t:  Note on ::  Channel 1.  Note 69.  Velocity 108
000030t:  Note on ::  Channel 1.  Note 69.  Velocity 0
000150t:  Note on ::  Channel 1.  Note 62.  Velocity 108
000030t:  Note on ::  Channel 1.  Note 62.  Velocity 0
000000t:  Note on ::  Channel 1.  Note 69.  Velocity 108
000030t:  Note on ::  Channel 1.  Note 69.  Velocity 0
000000t:  Note on ::  Channel 1.  Note 67.  Velocity 108
000030t:  Note on ::  Channel 1.  Note 67.  Velocity 0
000000t:  Note on ::  Channel 1.  Note 72.  Velocity 108
000030t:  Note on ::  Channel 1.  Note 72.  Velocity 0
000000t:  Note on ::  Channel 1.  Note 69.  Velocity 108
000030t:  Note on ::  Channel 1.  Note 69.  Velocity 0
000000t:  Note on ::  Channel 1.  Note 67.  Velocity 108
000030t:  Note on ::  Channel 1.  Note 67.  Velocity 0
000000t:  Note on ::  Channel 1.  Note 62.  Velocity 108
000030t:  Note on ::  Channel 1.  Note 62.  Velocity 0
000030t:  Note on ::  Channel 1.  Note 57.  Velocity 108
000030t:  Note on ::  Channel 1.  Note 57.  Velocity 0
000000t:  Note on ::  Channel 1.  Note 60.  Velocity 108
000030t:  Note on ::  Channel 1.  Note 60.  Velocity 0
000000t:  Note on ::  Channel 1.  Note 67.  Velocity 108
000030t:  Note on ::  Channel 1.  Note 67.  Velocity 0
000150t:  Note on ::  Channel 1.  Note 60.  Velocity 108
000030t:  Note on ::  Channel 1.  Note 60.  Velocity 0
000000t:  Note on ::  Channel 1.  Note 67.  Velocity 108
000030t:  Note on ::  Channel 1.  Note 67.  Velocity 0
000000t:  Note on ::  Channel 1.  Note 65.  Velocity 108
000030t:  Note on ::  Channel 1.  Note 65.  Velocity 0
000000t:  Note on ::  Channel 1.  Note 72.  Velocity 108
000030t:  Note on ::  Channel 1.  Note 72.  Velocity 0
000000t:  Note on ::  Channel 1.  Note 67.  Velocity 108
000030t:  Note on ::  Channel 1.  Note 67.  Velocity 0
000000t:  Note on ::  Channel 1.  Note 65.  Velocity 108
000030t:  Note on ::  Channel 1.  Note 65.  Velocity 0
000000t:  Note on ::  Channel 1.  Note 60.  Velocity 108
000030t:  Note on ::  Channel 1.  Note 60.  Velocity 0
000030t:  Note on ::  Channel 1.  Note 55.  Velocity 108
000030t:  Note on ::  Channel 1.  Note 55.  Velocity 0
000000t:  Note on ::  Channel 1.  Note 58.  Velocity 108
000030t:  Note on ::  Channel 1.  Note 58.  Velocity 0
000000t:  Note on ::  Channel 1.  Note 65.  Velocity 108
000030t:  Note on ::  Channel 1.  Note 65.  Velocity 0
000150t:  Note on ::  Channel 1.  Note 55.  Velocity 108
000030t:  Note on ::  Channel 1.  Note 55.  Velocity 0
000000t:  Note on ::  Channel 1.  Note 65.  Velocity 108
000030t:  Note on ::  Channel 1.  Note 65.  Velocity 0
000000t:  Note on ::  Channel 1.  Note 64.  Velocity 108
000030t:  Note on ::  Channel 1.  Note 64.  Velocity 0
000000t:  Note on ::  Channel 1.  Note 67.  Velocity 108
000030t:  Note on ::  Channel 1.  Note 67.  Velocity 0
000000t:  Note on ::  Channel 1.  Note 64.  Velocity 108
000030t:  Note on ::  Channel 1.  Note 64.  Velocity 0
000000t:  Note on ::  Channel 1.  Note 62.  Velocity 108
000030t:  Note on ::  Channel 1.  Note 62.  Velocity 0
000000t:  Note on ::  Channel 1.  Note 58.  Velocity 108
000030t:  Note on ::  Channel 1.  Note 58.  Velocity 0
000030t:  Note on ::  Channel 1.  Note 53.  Velocity 108
000030t:  Note on ::  Channel 1.  Note 53.  Velocity 0
000000t:  Note on ::  Channel 1.  Note 57.  Velocity 108
000030t:  Note on ::  Channel 1.  Note 57.  Velocity 0
000000t:  Note on ::  Channel 1.  Note 64.  Velocity 108
000030t:  Note on ::  Channel 1.  Note 64.  Velocity 0
000150t:  Note on ::  Channel 1.  Note 53.  Velocity 108
000030t:  Note on ::  Channel 1.  Note 53.  Velocity 0
000000t:  Note on ::  Channel 1.  Note 64.  Velocity 108
000030t:  Note on ::  Channel 1.  Note 64.  Velocity 0
000000t:  Note on ::  Channel 1.  Note 62.  Velocity 108
000030t:  Note on ::  Channel 1.  Note 62.  Velocity 0
000000t:  Note on ::  Channel 1.  Note 67.  Velocity 108
000030t:  Note on ::  Channel 1.  Note 67.  Velocity 0
000000t:  Note on ::  Channel 1.  Note 65.  Velocity 108
000030t:  Note on ::  Channel 1.  Note 65.  Velocity 0
000000t:  Note on ::  Channel 1.  Note 72.  Velocity 108
000030t:  Note on ::  Channel 1.  Note 72.  Velocity 0
000000t:  Note on ::  Channel 1.  Note 70.  Velocity 108
000030t:  Note on ::  Channel 1.  Note 70.  Velocity 0
000030t:  Note on ::  Channel 1.  Note 58.  Velocity 108
000030t:  Note on ::  Channel 1.  Note 58.  Velocity 0
000000t:  Note on ::  Channel 1.  Note 62.  Velocity 108
000030t:  Note on ::  Channel 1.  Note 62.  Velocity 0
000000t:  Note on ::  Channel 1.  Note 69.  Velocity 108
000030t:  Note on ::  Channel 1.  Note 69.  Velocity 0
000150t:  Note on ::  Channel 1.  Note 62.  Velocity 108
000030t:  Note on ::  Channel 1.  Note 62.  Velocity 0
000000t:  Note on ::  Channel 1.  Note 69.  Velocity 108
000030t:  Note on ::  Channel 1.  Note 69.  Velocity 0
000000t:  Note on ::  Channel 1.  Note 67.  Velocity 108
000030t:  Note on ::  Channel 1.  Note 67.  Velocity 0
000000t:  Note on ::  Channel 1.  Note 74.  Velocity 108
000030t:  Note on ::  Channel 1.  Note 74.  Velocity 0
000000t:  Note on ::  Channel 1.  Note 69.  Velocity 108
000030t:  Note on ::  Channel 1.  Note 69.  Velocity 0
000000t:  Note on ::  Channel 1.  Note 67.  Velocity 108
000030t:  Note on ::  Channel 1.  Note 67.  Velocity 0
000000t:  Note on ::  Channel 1.  Note 62.  Velocity 108
000030t:  Note on ::  Channel 1.  Note 62.  Velocity 0
000030t:  Note on ::  Channel 1.  Note 57.  Velocity 108
000030t:  Note on ::  Channel 1.  Note 57.  Velocity 0
000000t:  Note on ::  Channel 1.  Note 60.  Velocity 108
000030t:  Note on ::  Channel 1.  Note 60.  Velocity 0
000000t:  Note on ::  Channel 1.  Note 72.  Velocity 108
000030t:  Note on ::  Channel 1.  Note 72.  Velocity 0
000150t:  Note on ::  Channel 1.  Note 57.  Velocity 108
000030t:  Note on ::  Channel 1.  Note 57.  Velocity 0
000000t:  Note on ::  Channel 1.  Note 72.  Velocity 108
000030t:  Note on ::  Channel 1.  Note 72.  Velocity 0
000000t:  Note on ::  Channel 1.  Note 69.  Velocity 108
000030t:  Note on ::  Channel 1.  Note 69.  Velocity 0
000000t:  Note on ::  Channel 1.  Note 75.  Velocity 108
000030t:  Note on ::  Channel 1.  Note 75.  Velocity 0
000000t:  Note on ::  Channel 1.  Note 74.  Velocity 108
000030t:  Note on ::  Channel 1.  Note 74.  Velocity 0
000000t:  Note on ::  Channel 1.  Note 72.  Velocity 108
000030t:  Note on ::  Channel 1.  Note 72.  Velocity 0
000000t:  Note on ::  Channel 1.  Note 69.  Velocity 108
000030t:  Note on ::  Channel 1.  Note 69.  Velocity 0
000030t:  Note on ::  Channel 1.  Note 58.  Velocity 108
000030t:  Note on ::  Channel 1.  Note 58.  Velocity 0
000000t:  Note on ::  Channel 1.  Note 62.  Velocity 108
000030t:  Note on ::  Channel 1.  Note 62.  Velocity 0
000000t:  Note on ::  Channel 1.  Note 70.  Velocity 108
000030t:  Note on ::  Channel 1.  Note 70.  Velocity 0
000150t:  Note on ::  Channel 1.  Note 58.  Velocity 108
000030t:  Note on ::  Channel 1.  Note 58.  Velocity 0
000000t:  Note on ::  Channel 1.  Note 70.  Velocity 108
000030t:  Note on ::  Channel 1.  Note 70.  Velocity 0
000000t:  Note on ::  Channel 1.  Note 69.  Velocity 108
000030t:  Note on ::  Channel 1.  Note 69.  Velocity 0
000000t:  Note on ::  Channel 1.  Note 72.  Velocity 108
000030t:  Note on ::  Channel 1.  Note 72.  Velocity 0
000000t:  Note on ::  Channel 1.  Note 70.  Velocity 108
000030t:  Note on ::  Channel 1.  Note 70.  Velocity 0
000000t:  Note on ::  Channel 1.  Note 67.  Velocity 108
000030t:  Note on ::  Channel 1.  Note 67.  Velocity 0
000000t:  Note on ::  Channel 1.  Note 62.  Velocity 108
000030t:  Note on ::  Channel 1.  Note 62.  Velocity 0
000030t:  Note on ::  Channel 1.  Note 60.  Velocity 108
000030t:  Note on ::  Channel 1.  Note 60.  Velocity 0
000000t:  Note on ::  Channel 1.  Note 67.  Velocity 108
000030t:  Note on ::  Channel 1.  Note 67.  Velocity 0
000000t:  Note on ::  Channel 1.  Note 70.  Velocity 108
000030t:  Note on ::  Channel 1.  Note 70.  Velocity 0
000150t:  Note on ::  Channel 1.  Note 60.  Velocity 108
000030t:  Note on ::  Channel 1.  Note 60.  Velocity 0
000000t:  Note on ::  Channel 1.  Note 70.  Velocity 108
000030t:  Note on ::  Channel 1.  Note 70.  Velocity 0
000000t:  Note on ::  Channel 1.  Note 67.  Velocity 108
000030t:  Note on ::  Channel 1.  Note 67.  Velocity 0
000000t:  Note on ::  Channel 1.  Note 76.  Velocity 108
000030t:  Note on ::  Channel 1.  Note 76.  Velocity 0
000000t:  Note on ::  Channel 1.  Note 74.  Velocity 108
000030t:  Note on ::  Channel 1.  Note 74.  Velocity 0
000000t:  Note on ::  Channel 1.  Note 79.  Velocity 108
000030t:  Note on ::  Channel 1.  Note 79.  Velocity 0
000000t:  Note on ::  Channel 1.  Note 76.  Velocity 108
000030t:  Note on ::  Channel 1.  Note 76.  Velocity 0
000030t:  Note on ::  Channel 1.  Note 58.  Velocity 108
000030t:  Note on ::  Channel 1.  Note 58.  Velocity 0
000000t:  Note on ::  Channel 1.  Note 62.  Velocity 108
000030t:  Note on ::  Channel 1.  Note 62.  Velocity 0
000000t:  Note on ::  Channel 1.  Note 69.  Velocity 108
000030t:  Note on ::  Channel 1.  Note 69.  Velocity 0
000150t:  Note on ::  Channel 1.  Note 62.  Velocity 108
000030t:  Note on ::  Channel 1.  Note 62.  Velocity 0
000000t:  Note on ::  Channel 1.  Note 69.  Velocity 108
000030t:  Note on ::  Channel 1.  Note 69.  Velocity 0
000000t:  Note on ::  Channel 1.  Note 67.  Velocity 108
000030t:  Note on ::  Channel 1.  Note 67.  Velocity 0
000000t:  Note on ::  Channel 1.  Note 72.  Velocity 108
000030t:  Note on ::  Channel 1.  Note 72.  Velocity 0
000000t:  Note on ::  Channel 1.  Note 69.  Velocity 108
000030t:  Note on ::  Channel 1.  Note 69.  Velocity 0
000000t:  Note on ::  Channel 1.  Note 67.  Velocity 108
000030t:  Note on ::  Channel 1.  Note 67.  Velocity 0
000000t:  Note on ::  Channel 1.  Note 62.  Velocity 108
000030t:  Note on ::  Channel 1.  Note 62.  Velocity 0
000030t:  Note on ::  Channel 1.  Note 57.  Velocity 108
000030t:  Note on ::  Channel 1.  Note 57.  Velocity 0
000000t:  Note on ::  Channel 1.  Note 60.  Velocity 108
000030t:  Note on ::  Channel 1.  Note 60.  Velocity 0
000000t:  Note on ::  Channel 1.  Note 67.  Velocity 108
000030t:  Note on ::  Channel 1.  Note 67.  Velocity 0
000150t:  Note on ::  Channel 1.  Note 60.  Velocity 108
000030t:  Note on ::  Channel 1.  Note 60.  Velocity 0
000000t:  Note on ::  Channel 1.  Note 67.  Velocity 108
000030t:  Note on ::  Channel 1.  Note 67.  Velocity 0
000000t:  Note on ::  Channel 1.  Note 65.  Velocity 108
000030t:  Note on ::  Channel 1.  Note 65.  Velocity 0
000000t:  Note on ::  Channel 1.  Note 72.  Velocity 108
000030t:  Note on ::  Channel 1.  Note 72.  Velocity 0
000000t:  Note on ::  Channel 1.  Note 67.  Velocity 108
000030t:  Note on ::  Channel 1.  Note 67.  Velocity 0
000000t:  Note on ::  Channel 1.  Note 65.  Velocity 108
000030t:  Note on ::  Channel 1.  Note 65.  Velocity 0
000000t:  Note on ::  Channel 1.  Note 60.  Velocity 108
000030t:  Note on ::  Channel 1.  Note 60.  Velocity 0
000030t:  Note on ::  Channel 1.  Note 55.  Velocity 108
000030t:  Note on ::  Channel 1.  Note 55.  Velocity 0
000000t:  Note on ::  Channel 1.  Note 58.  Velocity 108
000030t:  Note on ::  Channel 1.  Note 58.  Velocity 0
000000t:  Note on ::  Channel 1.  Note 65.  Velocity 108
000030t:  Note on ::  Channel 1.  Note 65.  Velocity 0
000150t:  Note on ::  Channel 1.  Note 55.  Velocity 108
000030t:  Note on ::  Channel 1.  Note 55.  Velocity 0
000000t:  Note on ::  Channel 1.  Note 65.  Velocity 108
000030t:  Note on ::  Channel 1.  Note 65.  Velocity 0
000000t:  Note on ::  Channel 1.  Note 64.  Velocity 108
000030t:  Note on ::  Channel 1.  Note 64.  Velocity 0
000000t:  Note on ::  Channel 1.  Note 67.  Velocity 108
000030t:  Note on ::  Channel 1.  Note 67.  Velocity 0
000000t:  Note on ::  Channel 1.  Note 64.  Velocity 108
000030t:  Note on ::  Channel 1.  Note 64.  Velocity 0
000000t:  Note on ::  Channel 1.  Note 62.  Velocity 108
000030t:  Note on ::  Channel 1.  Note 62.  Velocity 0
000000t:  Note on ::  Channel 1.  Note 58.  Velocity 108
000030t:  Note on ::  Channel 1.  Note 58.  Velocity 0
000030t:  Note on ::  Channel 1.  Note 53.  Velocity 108
000030t:  Note on ::  Channel 1.  Note 53.  Velocity 0
000000t:  Note on ::  Channel 1.  Note 57.  Velocity 108
000030t:  Note on ::  Channel 1.  Note 57.  Velocity 0
000000t:  Note on ::  Channel 1.  Note 64.  Velocity 108
000030t:  Note on ::  Channel 1.  Note 64.  Velocity 0
000150t:  Note on ::  Channel 1.  Note 53.  Velocity 108
000030t:  Note on ::  Channel 1.  Note 53.  Velocity 0
000000t:  Note on ::  Channel 1.  Note 64.  Velocity 108
000030t:  Note on ::  Channel 1.  Note 64.  Velocity 0
000000t:  Note on ::  Channel 1.  Note 62.  Velocity 108
000030t:  Note on ::  Channel 1.  Note 62.  Velocity 0
000000t:  Note on ::  Channel 1.  Note 67.  Velocity 108
000030t:  Note on ::  Channel 1.  Note 67.  Velocity 0
000000t:  Note on ::  Channel 1.  Note 65.  Velocity 108
000030t:  Note on ::  Channel 1.  Note 65.  Velocity 0
000000t:  Note on ::  Channel 1.  Note 72.  Velocity 108
000030t:  Note on ::  Channel 1.  Note 72.  Velocity 0
000000t:  Note on ::  Channel 1.  Note 70.  Velocity 108
000030t:  Note on ::  Channel 1.  Note 70.  Velocity 0
000030t:  Note on ::  Channel 1.  Note 58.  Velocity 108
000030t:  Note on ::  Channel 1.  Note 58.  Velocity 0
000000t:  Note on ::  Channel 1.  Note 62.  Velocity 108
000030t:  Note on ::  Channel 1.  Note 62.  Velocity 0
000000t:  Note on ::  Channel 1.  Note 69.  Velocity 108
000030t:  Note on ::  Channel 1.  Note 69.  Velocity 0
000150t:  Note on ::  Channel 1.  Note 62.  Velocity 108
000030t:  Note on ::  Channel 1.  Note 62.  Velocity 0
000000t:  Note on ::  Channel 1.  Note 69.  Velocity 108
000030t:  Note on ::  Channel 1.  Note 69.  Velocity 0
000000t:  Note on ::  Channel 1.  Note 67.  Velocity 108
000030t:  Note on ::  Channel 1.  Note 67.  Velocity 0
000000t:  Note on ::  Channel 1.  Note 74.  Velocity 108
000030t:  Note on ::  Channel 1.  Note 74.  Velocity 0
000000t:  Note on ::  Channel 1.  Note 69.  Velocity 108
000030t:  Note on ::  Channel 1.  Note 69.  Velocity 0
000000t:  Note on ::  Channel 1.  Note 67.  Velocity 108
000030t:  Note on ::  Channel 1.  Note 67.  Velocity 0
000000t:  Note on ::  Channel 1.  Note 62.  Velocity 108
000030t:  Note on ::  Channel 1.  Note 62.  Velocity 0
000030t:  Note on ::  Channel 1.  Note 57.  Velocity 108
000030t:  Note on ::  Channel 1.  Note 57.  Velocity 0
000000t:  Note on ::  Channel 1.  Note 60.  Velocity 108
000030t:  Note on ::  Channel 1.  Note 60.  Velocity 0
000000t:  Note on ::  Channel 1.  Note 72.  Velocity 108
000030t:  Note on ::  Channel 1.  Note 72.  Velocity 0
000150t:  Note on ::  Channel 1.  Note 57.  Velocity 108
000030t:  Note on ::  Channel 1.  Note 57.  Velocity 0
000000t:  Note on ::  Channel 1.  Note 72.  Velocity 108
000030t:  Note on ::  Channel 1.  Note 72.  Velocity 0
000000t:  Note on ::  Channel 1.  Note 69.  Velocity 108
000030t:  Note on ::  Channel 1.  Note 69.  Velocity 0
000000t:  Note on ::  Channel 1.  Note 75.  Velocity 108
000030t:  Note on ::  Channel 1.  Note 75.  Velocity 0
000000t:  Note on ::  Channel 1.  Note 74.  Velocity 108
000030t:  Note on ::  Channel 1.  Note 74.  Velocity 0
000000t:  Note on ::  Channel 1.  Note 72.  Velocity 108
000030t:  Note on ::  Channel 1.  Note 72.  Velocity 0
000000t:  Note on ::  Channel 1.  Note 69.  Velocity 108
000030t:  Note on ::  Channel 1.  Note 69.  Velocity 0
000030t:  Note on ::  Channel 1.  Note 58.  Velocity 108
000030t:  Note on ::  Channel 1.  Note 58.  Velocity 0
000000t:  Note on ::  Channel 1.  Note 62.  Velocity 108
000030t:  Note on ::  Channel 1.  Note 62.  Velocity 0
000000t:  Note on ::  Channel 1.  Note 70.  Velocity 108
000030t:  Note on ::  Channel 1.  Note 70.  Velocity 0
000150t:  Note on ::  Channel 1.  Note 58.  Velocity 108
000030t:  Note on ::  Channel 1.  Note 58.  Velocity 0
000000t:  Note on ::  Channel 1.  Note 70.  Velocity 108
000030t:  Note on ::  Channel 1.  Note 70.  Velocity 0
000000t:  Note on ::  Channel 1.  Note 69.  Velocity 108
000030t:  Note on ::  Channel 1.  Note 69.  Velocity 0
000000t:  Note on ::  Channel 1.  Note 72.  Velocity 108
000030t:  Note on ::  Channel 1.  Note 72.  Velocity 0
000000t:  Note on ::  Channel 1.  Note 70.  Velocity 108
000030t:  Note on ::  Channel 1.  Note 70.  Velocity 0
000000t:  Note on ::  Channel 1.  Note 67.  Velocity 108
000030t:  Note on ::  Channel 1.  Note 67.  Velocity 0
000000t:  Note on ::  Channel 1.  Note 62.  Velocity 108
000030t:  Note on ::  Channel 1.  Note 62.  Velocity 0
000030t:  Note on ::  Channel 1.  Note 60.  Velocity 108
000030t:  Note on ::  Channel 1.  Note 60.  Velocity 0
000000t:  Note on ::  Channel 1.  Note 67.  Velocity 108
000030t:  Note on ::  Channel 1.  Note 67.  Velocity 0
000000t:  Note on ::  Channel 1.  Note 70.  Velocity 108
000030t:  Note on ::  Channel 1.  Note 70.  Velocity 0
000150t:  Note on ::  Channel 1.  Note 60.  Velocity 108
000030t:  Note on ::  Channel 1.  Note 60.  Velocity 0
000000t:  Note on ::  Channel 1.  Note 70.  Velocity 108
000030t:  Note on ::  Channel 1.  Note 70.  Velocity 0
000000t:  Note on ::  Channel 1.  Note 67.  Velocity 108
000030t:  Note on ::  Channel 1.  Note 67.  Velocity 0
000000t:  Note on ::  Channel 1.  Note 76.  Velocity 108
000030t:  Note on ::  Channel 1.  Note 76.  Velocity 0
000000t:  Note on ::  Channel 1.  Note 74.  Velocity 108
000030t:  Note on ::  Channel 1.  Note 74.  Velocity 0
000000t:  Note on ::  Channel 1.  Note 79.  Velocity 108
000030t:  Note on ::  Channel 1.  Note 79.  Velocity 0
000000t:  Note on ::  Channel 1.  Note 76.  Velocity 108
000030t:  Note on ::  Channel 1.  Note 76.  Velocity 0
000030t:  Note on ::  Channel 1.  Note 58.  Velocity 108
000030t:  Note on ::  Channel 1.  Note 58.  Velocity 0
000000t:  Note on ::  Channel 1.  Note 62.  Velocity 108
000030t:  Note on ::  Channel 1.  Note 62.  Velocity 0
000000t:  Note on ::  Channel 1.  Note 69.  Velocity 108
000030t:  Note on ::  Channel 1.  Note 69.  Velocity 0
000150t:  Note on ::  Channel 1.  Note 62.  Velocity 108
000030t:  Note on ::  Channel 1.  Note 62.  Velocity 0
000000t:  Note on ::  Channel 1.  Note 69.  Velocity 108
000030t:  Note on ::  Channel 1.  Note 69.  Velocity 0
000000t:  Note on ::  Channel 1.  Note 67.  Velocity 108
000030t:  Note on ::  Channel 1.  Note 67.  Velocity 0
000000t:  Note on ::  Channel 1.  Note 72.  Velocity 108
000030t:  Note on ::  Channel 1.  Note 72.  Velocity 0
000000t:  Note on ::  Channel 1.  Note 69.  Velocity 108
000030t:  Note on ::  Channel 1.  Note 69.  Velocity 0
000000t:  Note on ::  Channel 1.  Note 67.  Velocity 108
000030t:  Note on ::  Channel 1.  Note 67.  Velocity 0
000000t:  Note on ::  Channel 1.  Note 62.  Velocity 108
000030t:  Note on ::  Channel 1.  Note 62.  Velocity 0
000030t:  Note on ::  Channel 1.  Note 57.  Velocity 108
000030t:  Note on ::  Channel 1.  Note 57.  Velocity 0
000000t:  Note on ::  Channel 1.  Note 60.  Velocity 108
000030t:  Note on ::  Channel 1.  Note 60.  Velocity 0
000000t:  Note on ::  Channel 1.  Note 67.  Velocity 108
000030t:  Note on ::  Channel 1.  Note 67.  Velocity 0
000150t:  Note on ::  Channel 1.  Note 60.  Velocity 108
000030t:  Note on ::  Channel 1.  Note 60.  Velocity 0
000000t:  Note on ::  Channel 1.  Note 67.  Velocity 108
000030t:  Note on ::  Channel 1.  Note 67.  Velocity 0
000000t:  Note on ::  Channel 1.  Note 65.  Velocity 108
000030t:  Note on ::  Channel 1.  Note 65.  Velocity 0
000000t:  Note on ::  Channel 1.  Note 72.  Velocity 108
000030t:  Note on ::  Channel 1.  Note 72.  Velocity 0
000000t:  Note on ::  Channel 1.  Note 67.  Velocity 108
000030t:  Note on ::  Channel 1.  Note 67.  Velocity 0
000000t:  Note on ::  Channel 1.  Note 65.  Velocity 108
000030t:  Note on ::  Channel 1.  Note 65.  Velocity 0
000000t:  Note on ::  Channel 1.  Note 60.  Velocity 108
000030t:  Note on ::  Channel 1.  Note 60.  Velocity 0
000030t:  Note on ::  Channel 1.  Note 55.  Velocity 108
000030t:  Note on ::  Channel 1.  Note 55.  Velocity 0
000000t:  Note on ::  Channel 1.  Note 58.  Velocity 108
000030t:  Note on ::  Channel 1.  Note 58.  Velocity 0
000000t:  Note on ::  Channel 1.  Note 65.  Velocity 108
000030t:  Note on ::  Channel 1.  Note 65.  Velocity 0
000150t:  Note on ::  Channel 1.  Note 55.  Velocity 108
000030t:  Note on ::  Channel 1.  Note 55.  Velocity 0
000000t:  Note on ::  Channel 1.  Note 65.  Velocity 108
000030t:  Note on ::  Channel 1.  Note 65.  Velocity 0
000000t:  Note on ::  Channel 1.  Note 64.  Velocity 108
000030t:  Note on ::  Channel 1.  Note 64.  Velocity 0
000000t:  Note on ::  Channel 1.  Note 67.  Velocity 108
000030t:  Note on ::  Channel 1.  Note 67.  Velocity 0
000000t:  Note on ::  Channel 1.  Note 64.  Velocity 108
000030t:  Note on ::  Channel 1.  Note 64.  Velocity 0
000000t:  Note on ::  Channel 1.  Note 62.  Velocity 108
000030t:  Note on ::  Channel 1.  Note 62.  Velocity 0
000000t:  Note on ::  Channel 1.  Note 58.  Velocity 108
000030t:  Note on ::  Channel 1.  Note 58.  Velocity 0
000030t:  Note on ::  Channel 1.  Note 53.  Velocity 108
000030t:  Note on ::  Channel 1.  Note 53.  Velocity 0
000000t:  Note on ::  Channel 1.  Note 57.  Velocity 108
000030t:  Note on ::  Channel 1.  Note 57.  Velocity 0
000000t:  Note on ::  Channel 1.  Note 64.  Velocity 108
000030t:  Note on ::  Channel 1.  Note 64.  Velocity 0
000150t:  Note on ::  Channel 1.  Note 53.  Velocity 108
000030t:  Note on ::  Channel 1.  Note 53.  Velocity 0
000000t:  Note on ::  Channel 1.  Note 64.  Velocity 108
000030t:  Note on ::  Channel 1.  Note 64.  Velocity 0
000000t:  Note on ::  Channel 1.  Note 62.  Velocity 108
000030t:  Note on ::  Channel 1.  Note 62.  Velocity 0
000000t:  Note on ::  Channel 1.  Note 67.  Velocity 108
000030t:  Note on ::  Channel 1.  Note 67.  Velocity 0
000000t:  Note on ::  Channel 1.  Note 65.  Velocity 108
000030t:  Note on ::  Channel 1.  Note 65.  Velocity 0
000000t:  Note on ::  Channel 1.  Note 72.  Velocity 108
000030t:  Note on ::  Channel 1.  Note 72.  Velocity 0
000000t:  Note on ::  Channel 1.  Note 70.  Velocity 108
000030t:  Note on ::  Channel 1.  Note 70.  Velocity 0
000030t:  Note on ::  Channel 1.  Note 58.  Velocity 108
000030t:  Note on ::  Channel 1.  Note 58.  Velocity 0
000000t:  Note on ::  Channel 1.  Note 62.  Velocity 108
000030t:  Note on ::  Channel 1.  Note 62.  Velocity 0
000000t:  Note on ::  Channel 1.  Note 69.  Velocity 108
000030t:  Note on ::  Channel 1.  Note 69.  Velocity 0
000150t:  Note on ::  Channel 1.  Note 62.  Velocity 108
000030t:  Note on ::  Channel 1.  Note 62.  Velocity 0
000000t:  Note on ::  Channel 1.  Note 69.  Velocity 108
000030t:  Note on ::  Channel 1.  Note 69.  Velocity 0
000000t:  Note on ::  Channel 1.  Note 67.  Velocity 108
000030t:  Note on ::  Channel 1.  Note 67.  Velocity 0
000000t:  Note on ::  Channel 1.  Note 74.  Velocity 108
000030t:  Note on ::  Channel 1.  Note 74.  Velocity 0
000000t:  Note on ::  Channel 1.  Note 69.  Velocity 108
000030t:  Note on ::  Channel 1.  Note 69.  Velocity 0
000000t:  Note on ::  Channel 1.  Note 67.  Velocity 108
000030t:  Note on ::  Channel 1.  Note 67.  Velocity 0
000000t:  Note on ::  Channel 1.  Note 62.  Velocity 108
000030t:  Note on ::  Channel 1.  Note 62.  Velocity 0
000030t:  Note on ::  Channel 1.  Note 57.  Velocity 108
000030t:  Note on ::  Channel 1.  Note 57.  Velocity 0
000000t:  Note on ::  Channel 1.  Note 60.  Velocity 108
000030t:  Note on ::  Channel 1.  Note 60.  Velocity 0
000000t:  Note on ::  Channel 1.  Note 72.  Velocity 108
000030t:  Note on ::  Channel 1.  Note 72.  Velocity 0
000150t:  Note on ::  Channel 1.  Note 57.  Velocity 108
000030t:  Note on ::  Channel 1.  Note 57.  Velocity 0
000000t:  Note on ::  Channel 1.  Note 72.  Velocity 108
000030t:  Note on ::  Channel 1.  Note 72.  Velocity 0
000000t:  Note on ::  Channel 1.  Note 69.  Velocity 108
000030t:  Note on ::  Channel 1.  Note 69.  Velocity 0
000000t:  Note on ::  Channel 1.  Note 75.  Velocity 108
000030t:  Note on ::  Channel 1.  Note 75.  Velocity 0
000000t:  Note on ::  Channel 1.  Note 74.  Velocity 108
000030t:  Note on ::  Channel 1.  Note 74.  Velocity 0
000000t:  Note on ::  Channel 1.  Note 72.  Velocity 108
000030t:  Note on ::  Channel 1.  Note 72.  Velocity 0
000000t:  Note on ::  Channel 1.  Note 69.  Velocity 108
000030t:  Note on ::  Channel 1.  Note 69.  Velocity 0
000030t:  Note on ::  Channel 1.  Note 58.  Velocity 108
000030t:  Note on ::  Channel 1.  Note 58.  Velocity 0
000000t:  Note on ::  Channel 1.  Note 62.  Velocity 108
000030t:  Note on ::  Channel 1.  Note 62.  Velocity 0
000000t:  Note on ::  Channel 1.  Note 70.  Velocity 108
000030t:  Note on ::  Channel 1.  Note 70.  Velocity 0
000150t:  Note on ::  Channel 1.  Note 58.  Velocity 108
000030t:  Note on ::  Channel 1.  Note 58.  Velocity 0
000000t:  Note on ::  Channel 1.  Note 70.  Velocity 108
000030t:  Note on ::  Channel 1.  Note 70.  Velocity 0
000000t:  Note on ::  Channel 1.  Note 69.  Velocity 108
000030t:  Note on ::  Channel 1.  Note 69.  Velocity 0
000000t:  Note on ::  Channel 1.  Note 72.  Velocity 108
000030t:  Note on ::  Channel 1.  Note 72.  Velocity 0
000000t:  Note on ::  Channel 1.  Note 70.  Velocity 108
000030t:  Note on ::  Channel 1.  Note 70.  Velocity 0
000000t:  Note on ::  Channel 1.  Note 67.  Velocity 108
000030t:  Note on ::  Channel 1.  Note 67.  Velocity 0
000000t:  Note on ::  Channel 1.  Note 62.  Velocity 108
000030t:  Note on ::  Channel 1.  Note 62.  Velocity 0
000030t:  Note on ::  Channel 1.  Note 60.  Velocity 108
000030t:  Note on ::  Channel 1.  Note 60.  Velocity 0
000000t:  Note on ::  Channel 1.  Note 67.  Velocity 108
000030t:  Note on ::  Channel 1.  Note 67.  Velocity 0
000000t:  Note on ::  Channel 1.  Note 70.  Velocity 108
000030t:  Note on ::  Channel 1.  Note 70.  Velocity 0
000150t:  Note on ::  Channel 1.  Note 60.  Velocity 108
000030t:  Note on ::  Channel 1.  Note 60.  Velocity 0
000000t:  Note on ::  Channel 1.  Note 70.  Velocity 108
000030t:  Note on ::  Channel 1.  Note 70.  Velocity 0
000000t:  Note on ::  Channel 1.  Note 67.  Velocity 108
000030t:  Note on ::  Channel 1.  Note 67.  Velocity 0
000000t:  Note on ::  Channel 1.  Note 76.  Velocity 108
000030t:  Note on ::  Channel 1.  Note 76.  Velocity 0
000000t:  Note on ::  Channel 1.  Note 74.  Velocity 108
000030t:  Note on ::  Channel 1.  Note 74.  Velocity 0
000000t:  Note on ::  Channel 1.  Note 79.  Velocity 108
000030t:  Note on ::  Channel 1.  Note 79.  Velocity 0
000000t:  Note on ::  Channel 1.  Note 76.  Velocity 108
000030t:  Note on ::  Channel 1.  Note 76.  Velocity 0
000006t:  Control change ::  Channel 1.  Controller 7.  Value: 119
000024t:  Note on ::  Channel 1.  Note 58.  Velocity 108
000010t:  Control change ::  Channel 1.  Controller 7.  Value: 118
000020t:  Note on ::  Channel 1.  Note 58.  Velocity 0
000000t:  Note on ::  Channel 1.  Note 62.  Velocity 108
000013t:  Control change ::  Channel 1.  Controller 7.  Value: 117
000017t:  Note on ::  Channel 1.  Note 62.  Velocity 0
000000t:  Note on ::  Channel 1.  Note 69.  Velocity 108
000016t:  Control change ::  Channel 1.  Controller 7.  Value: 116
000014t:  Note on ::  Channel 1.  Note 69.  Velocity 0
000020t:  Control change ::  Channel 1.  Controller 7.  Value: 115
000033t:  Control change ::  Channel 1.  Controller 7.  Value: 114
000027t:  Control change ::  Channel 1.  Controller 7.  Value: 113
000033t:  Control change ::  Channel 1.  Controller 7.  Value: 112
000033t:  Control change ::  Channel 1.  Controller 7.  Value: 111
000004t:  Note on ::  Channel 1.  Note 62.  Velocity 108
000030t:  Note on ::  Channel 1.  Note 62.  Velocity 0
000000t:  Control change ::  Channel 1.  Controller 7.  Value: 110
000000t:  Note on ::  Channel 1.  Note 69.  Velocity 108
000030t:  Note on ::  Channel 1.  Note 69.  Velocity 0
000000t:  Note on ::  Channel 1.  Note 67.  Velocity 108
000003t:  Control change ::  Channel 1.  Controller 7.  Value: 109
000027t:  Note on ::  Channel 1.  Note 67.  Velocity 0
000000t:  Note on ::  Channel 1.  Note 72.  Velocity 108
000006t:  Control change ::  Channel 1.  Controller 7.  Value: 108
000024t:  Note on ::  Channel 1.  Note 72.  Velocity 0
000000t:  Note on ::  Channel 1.  Note 69.  Velocity 108
000003t:  Control change ::  Channel 1.  Controller 7.  Value: 107
000027t:  Note on ::  Channel 1.  Note 69.  Velocity 0
000000t:  Note on ::  Channel 1.  Note 67.  Velocity 108
000006t:  Control change ::  Channel 1.  Controller 7.  Value: 106
000024t:  Note on ::  Channel 1.  Note 67.  Velocity 0
000000t:  Note on ::  Channel 1.  Note 62.  Velocity 108
000010t:  Control change ::  Channel 1.  Controller 7.  Value: 105
000020t:  Note on ::  Channel 1.  Note 62.  Velocity 0
000013t:  Control change ::  Channel 1.  Controller 7.  Value: 104
000017t:  Note on ::  Channel 1.  Note 57.  Velocity 108
000016t:  Control change ::  Channel 1.  Controller 7.  Value: 103
000014t:  Note on ::  Channel 1.  Note 57.  Velocity 0
000000t:  Note on ::  Channel 1.  Note 60.  Velocity 108
000020t:  Control change ::  Channel 1.  Controller 7.  Value: 102
000010t:  Note on ::  Channel 1.  Note 60.  Velocity 0
000000t:  Note on ::  Channel 1.  Note 67.  Velocity 108
000016t:  Control change ::  Channel 1.  Controller 7.  Value: 101
000014t:  Note on ::  Channel 1.  Note 67.  Velocity 0
000020t:  Control change ::  Channel 1.  Controller 7.  Value: 100
000033t:  Control change ::  Channel 1.  Controller 7.  Value: 99
000033t:  Control change ::  Channel 1.  Controller 7.  Value: 98
000034t:  Control change ::  Channel 1.  Controller 7.  Value: 97
000030t:  Note on ::  Channel 1.  Note 60.  Velocity 108
000003t:  Control change ::  Channel 1.  Controller 7.  Value: 96
000027t:  Note on ::  Channel 1.  Note 60.  Velocity 0
000000t:  Control change ::  Channel 1.  Controller 7.  Value: 95
000000t:  Note on ::  Channel 1.  Note 67.  Velocity 108
000030t:  Note on ::  Channel 1.  Note 67.  Velocity 0
000000t:  Note on ::  Channel 1.  Note 65.  Velocity 108
000003t:  Control change ::  Channel 1.  Controller 7.  Value: 94
000027t:  Note on ::  Channel 1.  Note 65.  Velocity 0
000000t:  Note on ::  Channel 1.  Note 72.  Velocity 108
000006t:  Control change ::  Channel 1.  Controller 7.  Value: 93
000024t:  Note on ::  Channel 1.  Note 72.  Velocity 0
000000t:  Note on ::  Channel 1.  Note 67.  Velocity 108
000010t:  Control change ::  Channel 1.  Controller 7.  Value: 92
000020t:  Note on ::  Channel 1.  Note 67.  Velocity 0
000000t:  Note on ::  Channel 1.  Note 65.  Velocity 108
000013t:  Control change ::  Channel 1.  Controller 7.  Value: 91
000017t:  Note on ::  Channel 1.  Note 65.  Velocity 0
000000t:  Note on ::  Channel 1.  Note 60.  Velocity 108
000016t:  Control change ::  Channel 1.  Controller 7.  Value: 90
000014t:  Note on ::  Channel 1.  Note 60.  Velocity 0
000013t:  Control change ::  Channel 1.  Controller 7.  Value: 89
000017t:  Note on ::  Channel 1.  Note 55.  Velocity 108
000016t:  Control change ::  Channel 1.  Controller 7.  Value: 88
000014t:  Note on ::  Channel 1.  Note 55.  Velocity 0
000000t:  Note on ::  Channel 1.  Note 58.  Velocity 108
000020t:  Control change ::  Channel 1.  Controller 7.  Value: 87
000010t:  Note on ::  Channel 1.  Note 58.  Velocity 0
000000t:  Note on ::  Channel 1.  Note 65.  Velocity 108
000023t:  Control change ::  Channel 1.  Controller 7.  Value: 86
000007t:  Note on ::  Channel 1.  Note 65.  Velocity 0
000026t:  Control change ::  Channel 1.  Controller 7.  Value: 85
000034t:  Control change ::  Channel 1.  Controller 7.  Value: 84
000026t:  Control change ::  Channel 1.  Controller 7.  Value: 83
000034t:  Control change ::  Channel 1.  Controller 7.  Value: 82
000030t:  Note on ::  Channel 1.  Note 55.  Velocity 108
000003t:  Control change ::  Channel 1.  Controller 7.  Value: 81
000027t:  Note on ::  Channel 1.  Note 55.  Velocity 0
000000t:  Note on ::  Channel 1.  Note 65.  Velocity 108
000006t:  Control change ::  Channel 1.  Controller 7.  Value: 80
000024t:  Note on ::  Channel 1.  Note 65.  Velocity 0
000000t:  Note on ::  Channel 1.  Note 64.  Velocity 108
000010t:  Control change ::  Channel 1.  Controller 7.  Value: 79
000020t:  Note on ::  Channel 1.  Note 64.  Velocity 0
000000t:  Note on ::  Channel 1.  Note 67.  Velocity 108
000013t:  Control change ::  Channel 1.  Controller 7.  Value: 78
000017t:  Note on ::  Channel 1.  Note 67.  Velocity 0
000000t:  Note on ::  Channel 1.  Note 64.  Velocity 108
000010t:  Control change ::  Channel 1.  Controller 7.  Value: 77
000020t:  Note on ::  Channel 1.  Note 64.  Velocity 0
000000t:  Note on ::  Channel 1.  Note 62.  Velocity 108
000013t:  Control change ::  Channel 1.  Controller 7.  Value: 76
000017t:  Note on ::  Channel 1.  Note 62.  Velocity 0
000000t:  Note on ::  Channel 1.  Note 58.  Velocity 108
000016t:  Control change ::  Channel 1.  Controller 7.  Value: 75
000014t:  Note on ::  Channel 1.  Note 58.  Velocity 0
000020t:  Control change ::  Channel 1.  Controller 7.  Value: 74
000010t:  Note on ::  Channel 1.  Note 53.  Velocity 108
000023t:  Control change ::  Channel 1.  Controller 7.  Value: 73
000007t:  Note on ::  Channel 1.  Note 53.  Velocity 0
000000t:  Note on ::  Channel 1.  Note 57.  Velocity 108
000026t:  Control change ::  Channel 1.  Controller 7.  Value: 72
000004t:  Note on ::  Channel 1.  Note 57.  Velocity 0
000000t:  Note on ::  Channel 1.  Note 64.  Velocity 108
000023t:  Control change ::  Channel 1.  Controller 7.  Value: 71
000007t:  Note on ::  Channel 1.  Note 64.  Velocity 0
000026t:  Control change ::  Channel 1.  Controller 7.  Value: 70
000034t:  Control change ::  Channel 1.  Controller 7.  Value: 69
000033t:  Control change ::  Channel 1.  Controller 7.  Value: 68
000033t:  Control change ::  Channel 1.  Controller 7.  Value: 67
000024t:  Note on ::  Channel 1.  Note 53.  Velocity 108
000010t:  Control change ::  Channel 1.  Controller 7.  Value: 66
000020t:  Note on ::  Channel 1.  Note 53.  Velocity 0
000000t:  Note on ::  Channel 1.  Note 64.  Velocity 108
000006t:  Control change ::  Channel 1.  Controller 7.  Value: 65
000024t:  Note on ::  Channel 1.  Note 64.  Velocity 0
000000t:  Note on ::  Channel 1.  Note 62.  Velocity 108
000010t:  Control change ::  Channel 1.  Controller 7.  Value: 64
000020t:  Note on ::  Channel 1.  Note 62.  Velocity 0
000000t:  Note on ::  Channel 1.  Note 67.  Velocity 108
000013t:  Control change ::  Channel 1.  Controller 7.  Value: 63
000017t:  Note on ::  Channel 1.  Note 67.  Velocity 0
000000t:  Note on ::  Channel 1.  Note 65.  Velocity 108
000016t:  Control change ::  Channel 1.  Controller 7.  Value: 62
000014t:  Note on ::  Channel 1.  Note 65.  Velocity 0
000000t:  Note on ::  Channel 1.  Note 72.  Velocity 108
000020t:  Control change ::  Channel 1.  Controller 7.  Value: 61
000010t:  Note on ::  Channel 1.  Note 72.  Velocity 0
000000t:  Note on ::  Channel 1.  Note 70.  Velocity 108
000023t:  Control change ::  Channel 1.  Controller 7.  Value: 60
000007t:  Note on ::  Channel 1.  Note 70.  Velocity 0
000020t:  Control change ::  Channel 1.  Controller 7.  Value: 59
000010t:  Note on ::  Channel 1.  Note 58.  Velocity 108
000023t:  Control change ::  Channel 1.  Controller 7.  Value: 58
000007t:  Note on ::  Channel 1.  Note 58.  Velocity 0
000000t:  Note on ::  Channel 1.  Note 62.  Velocity 108
000026t:  Control change ::  Channel 1.  Controller 7.  Value: 57
000004t:  Note on ::  Channel 1.  Note 62.  Velocity 0
000000t:  Note on ::  Channel 1.  Note 69.  Velocity 108
000030t:  Note on ::  Channel 1.  Note 69.  Velocity 0
000000t:  Control change ::  Channel 1.  Controller 7.  Value: 56
000033t:  Control change ::  Channel 1.  Controller 7.  Value: 55
000033t:  Control change ::  Channel 1.  Controller 7.  Value: 54
000027t:  Control change ::  Channel 1.  Controller 7.  Value: 53
000033t:  Control change ::  Channel 1.  Controller 7.  Value: 52
000024t:  Note on ::  Channel 1.  Note 62.  Velocity 108
000010t:  Control change ::  Channel 1.  Controller 7.  Value: 51
000020t:  Note on ::  Channel 1.  Note 62.  Velocity 0
000000t:  Note on ::  Channel 1.  Note 69.  Velocity 108
000013t:  Control change ::  Channel 1.  Controller 7.  Value: 50
000017t:  Note on ::  Channel 1.  Note 69.  Velocity 0
000000t:  Note on ::  Channel 1.  Note 67.  Velocity 108
000016t:  Control change ::  Channel 1.  Controller 7.  Value: 49
000014t:  Note on ::  Channel 1.  Note 67.  Velocity 0
000000t:  Note on ::  Channel 1.  Note 74.  Velocity 108
000020t:  Control change ::  Channel 1.  Controller 7.  Value: 48
000010t:  Note on ::  Channel 1.  Note 74.  Velocity 0
000000t:  Note on ::  Channel 1.  Note 69.  Velocity 108
000016t:  Control change ::  Channel 1.  Controller 7.  Value: 47
000014t:  Note on ::  Channel 1.  Note 69.  Velocity 0
000000t:  Note on ::  Channel 1.  Note 67.  Velocity 108
000020t:  Control change ::  Channel 1.  Controller 7.  Value: 46
000010t:  Note on ::  Channel 1.  Note 67.  Velocity 0
000000t:  Note on ::  Channel 1.  Note 62.  Velocity 108
000023t:  Control change ::  Channel 1.  Controller 7.  Value: 45
000007t:  Note on ::  Channel 1.  Note 62.  Velocity 0
000026t:  Control change ::  Channel 1.  Controller 7.  Value: 44
000004t:  Note on ::  Channel 1.  Note 57.  Velocity 108
000030t:  Note on ::  Channel 1.  Note 57.  Velocity 0
000000t:  Control change ::  Channel 1.  Controller 7.  Value: 43
000000t:  Note on ::  Channel 1.  Note 60.  Velocity 108
000030t:  Note on ::  Channel 1.  Note 60.  Velocity 0
000000t:  Note on ::  Channel 1.  Note 72.  Velocity 108
000003t:  Control change ::  Channel 1.  Controller 7.  Value: 42
000027t:  Note on ::  Channel 1.  Note 72.  Velocity 0
000000t:  Control change ::  Channel 1.  Controller 7.  Value: 41
000033t:  Control change ::  Channel 1.  Controller 7.  Value: 40
000033t:  Control change ::  Channel 1.  Controller 7.  Value: 39
000034t:  Control change ::  Channel 1.  Controller 7.  Value: 38
000033t:  Control change ::  Channel 1.  Controller 7.  Value: 37
000017t:  Note on ::  Channel 1.  Note 57.  Velocity 108
000016t:  Control change ::  Channel 1.  Controller 7.  Value: 36
000014t:  Note on ::  Channel 1.  Note 57.  Velocity 0
000000t:  Note on ::  Channel 1.  Note 72.  Velocity 108
000013t:  Control change ::  Channel 1.  Controller 7.  Value: 35
000017t:  Note on ::  Channel 1.  Note 72.  Velocity 0
000000t:  Note on ::  Channel 1.  Note 69.  Velocity 108
000016t:  Control change ::  Channel 1.  Controller 7.  Value: 34
000014t:  Note on ::  Channel 1.  Note 69.  Velocity 0
000000t:  Note on ::  Channel 1.  Note 75.  Velocity 108
000020t:  Control change ::  Channel 1.  Controller 7.  Value: 33
000010t:  Note on ::  Channel 1.  Note 75.  Velocity 0
000000t:  Note on ::  Channel 1.  Note 74.  Velocity 108
000023t:  Control change ::  Channel 1.  Controller 7.  Value: 32
000007t:  Note on ::  Channel 1.  Note 74.  Velocity 0
000000t:  Note on ::  Channel 1.  Note 72.  Velocity 108
000026t:  Control change ::  Channel 1.  Controller 7.  Value: 31
000004t:  Note on ::  Channel 1.  Note 72.  Velocity 0
000000t:  Note on ::  Channel 1.  Note 69.  Velocity 108
000030t:  Note on ::  Channel 1.  Note 69.  Velocity 0
000000t:  Control change ::  Channel 1.  Controller 7.  Value: 30
000026t:  Control change ::  Channel 1.  Controller 7.  Value: 29
000004t:  Note on ::  Channel 1.  Note 58.  Velocity 108
000030t:  Note on ::  Channel 1.  Note 58.  Velocity 0
000000t:  Control change ::  Channel 1.  Controller 7.  Value: 28
000000t:  Note on ::  Channel 1.  Note 62.  Velocity 108
000030t:  Note on ::  Channel 1.  Note 62.  Velocity 0
000000t:  Note on ::  Channel 1.  Note 70.  Velocity 108
000003t:  Control change ::  Channel 1.  Controller 7.  Value: 27
000027t:  Note on ::  Channel 1.  Note 70.  Velocity 0
000006t:  Control change ::  Channel 1.  Controller 7.  Value: 26
000034t:  Control change ::  Channel 1.  Controller 7.  Value: 25
000033t:  Control change ::  Channel 1.  Controller 7.  Value: 24
000027t:  Control change ::  Channel 1.  Controller 7.  Value: 23
000033t:  Control change ::  Channel 1.  Controller 7.  Value: 22
000017t:  Note on ::  Channel 1.  Note 58.  Velocity 108
000016t:  Control change ::  Channel 1.  Controller 7.  Value: 21
000014t:  Note on ::  Channel 1.  Note 58.  Velocity 0
000000t:  Note on ::  Channel 1.  Note 70.  Velocity 108
000020t:  Control change ::  Channel 1.  Controller 7.  Value: 20
000010t:  Note on ::  Channel 1.  Note 70.  Velocity 0
000000t:  Note on ::  Channel 1.  Note 69.  Velocity 108
000023t:  Control change ::  Channel 1.  Controller 7.  Value: 19
000007t:  Note on ::  Channel 1.  Note 69.  Velocity 0
000000t:  Note on ::  Channel 1.  Note 72.  Velocity 108
000026t:  Control change ::  Channel 1.  Controller 7.  Value: 18
000004t:  Note on ::  Channel 1.  Note 72.  Velocity 0
000000t:  Note on ::  Channel 1.  Note 70.  Velocity 108
000023t:  Control change ::  Channel 1.  Controller 7.  Value: 17
000007t:  Note on ::  Channel 1.  Note 70.  Velocity 0
000000t:  Note on ::  Channel 1.  Note 67.  Velocity 108
000026t:  Control change ::  Channel 1.  Controller 7.  Value: 16
000004t:  Note on ::  Channel 1.  Note 67.  Velocity 0
000000t:  Note on ::  Channel 1.  Note 62.  Velocity 108
000030t:  Note on ::  Channel 1.  Note 62.  Velocity 0
000000t:  Control change ::  Channel 1.  Controller 7.  Value: 15
000030t:  Note on ::  Channel 1.  Note 60.  Velocity 108
000003t:  Control change ::  Channel 1.  Controller 7.  Value: 14
000027t:  Note on ::  Channel 1.  Note 60.  Velocity 0
000000t:  Note on ::  Channel 1.  Note 67.  Velocity 108
000006t:  Control change ::  Channel 1.  Controller 7.  Value: 13
000024t:  Note on ::  Channel 1.  Note 67.  Velocity 0
000000t:  Note on ::  Channel 1.  Note 70.  Velocity 108
000010t:  Control change ::  Channel 1.  Controller 7.  Value: 12
000020t:  Note on ::  Channel 1.  Note 70.  Velocity 0
000006t:  Control change ::  Channel 1.  Controller 7.  Value: 11
000034t:  Control change ::  Channel 1.  Controller 7.  Value: 10
000033t:  Control change ::  Channel 1.  Controller 7.  Value: 9
000033t:  Control change ::  Channel 1.  Controller 7.  Value: 8
000034t:  Control change ::  Channel 1.  Controller 7.  Value: 7
000010t:  Note on ::  Channel 1.  Note 60.  Velocity 108
000023t:  Control change ::  Channel 1.  Controller 7.  Value: 6
000007t:  Note on ::  Channel 1.  Note 60.  Velocity 0
000000t:  Note on ::  Channel 1.  Note 70.  Velocity 108
000020t:  Control change ::  Channel 1.  Controller 7.  Value: 5
000010t:  Note on ::  Channel 1.  Note 70.  Velocity 0
000000t:  Note on ::  Channel 1.  Note 67.  Velocity 108
000023t:  Control change ::  Channel 1.  Controller 7.  Value: 4
000007t:  Note on ::  Channel 1.  Note 67.  Velocity 0
000000t:  Note on ::  Channel 1.  Note 76.  Velocity 108
000026t:  Control change ::  Channel 1.  Controller 7.  Value: 3
000004t:  Note on ::  Channel 1.  Note 76.  Velocity 0
000000t:  Note on ::  Channel 1.  Note 74.  Velocity 108
000030t:  Note on ::  Channel 1.  Note 74.  Velocity 0
000000t:  Control change ::  Channel 1.  Controller 7.  Value: 2
000000t:  Note on ::  Channel 1.  Note 79.  Velocity 108
000030t:  Note on ::  Channel 1.  Note 79.  Velocity 0
000000t:  Note on ::  Channel 1.  Note 76.  Velocity 108
000003t:  Control change ::  Channel 1.  Controller 7.  Value: 1
000027t:  Note on ::  Channel 1.  Note 76.  Velocity 0
000000t:  Control change ::  Channel 1.  Controller 7.  Value: 0
000000t:  Meta-event type $2f (End-track event) of length 0
Sigma t = 23040

Track chunk of 5276 bytes
000000t:  Meta-event type $21 (?) of length 1
	  _
000000t:  Meta-event type $03 (Track name) of length 7
	  Track 3
000000t:  Program (patch) change ::  Channel 2.  Patch 2 (Electric Grand)
000000t:  Control change ::  Channel 2.  Controller 7.  Value: 127
000000t:  Control change ::  Channel 2.  Controller 10.  Value: 0
000000t:  Control change ::  Channel 2.  Controller 91.  Value: 115
000000t:  Note on ::  Channel 2.  Note 93.  Velocity 127
000030t:  Note on ::  Channel 2.  Note 86.  Velocity 58
000030t:  Note on ::  Channel 2.  Note 93.  Velocity 0
000000t:  Note on ::  Channel 2.  Note 82.  Velocity 58
000030t:  Note on ::  Channel 2.  Note 86.  Velocity 0
000000t:  Note on ::  Channel 2.  Note 79.  Velocity 58
000030t:  Note on ::  Channel 2.  Note 82.  Velocity 0
000000t:  Note on ::  Channel 2.  Note 91.  Velocity 127
000030t:  Note on ::  Channel 2.  Note 79.  Velocity 0
000000t:  Note on ::  Channel 2.  Note 86.  Velocity 58
000030t:  Note on ::  Channel 2.  Note 91.  Velocity 0
000000t:  Note on ::  Channel 2.  Note 82.  Velocity 58
000030t:  Note on ::  Channel 2.  Note 86.  Velocity 0
000000t:  Note on ::  Channel 2.  Note 79.  Velocity 58
000030t:  Note on ::  Channel 2.  Note 82.  Velocity 0
000000t:  Note on ::  Channel 2.  Note 90.  Velocity 127
000030t:  Note on ::  Channel 2.  Note 79.  Velocity 0
000000t:  Note on ::  Channel 2.  Note 86.  Velocity 58
000030t:  Note on ::  Channel 2.  Note 90.  Velocity 0
000000t:  Note on ::  Channel 2.  Note 82.  Velocity 58
000030t:  Note on ::  Channel 2.  Note 86.  Velocity 0
000000t:  Note on ::  Channel 2.  Note 79.  Velocity 58
000030t:  Note on ::  Channel 2.  Note 82.  Velocity 0
000000t:  Note on ::  Channel 2.  Note 91.  Velocity 127
000030t:  Note on ::  Channel 2.  Note 79.  Velocity 0
000000t:  Note on ::  Channel 2.  Note 86.  Velocity 58
000030t:  Note on ::  Channel 2.  Note 91.  Velocity 0
000000t:  Note on ::  Channel 2.  Note 82.  Velocity 58
000030t:  Note on ::  Channel 2.  Note 86.  Velocity 0
000000t:  Note on ::  Channel 2.  Note 79.  Velocity 58
000030t:  Note on ::  Channel 2.  Note 79.  Velocity 0
000000t:  Note on ::  Channel 2.  Note 82.  Velocity 0
000000t:  Note on ::  Channel 2.  Note 91.  Velocity 127
000030t:  Note on ::  Channel 2.  Note 84.  Velocity 58
000030t:  Note on ::  Channel 2.  Note 91.  Velocity 0
000000t:  Note on ::  Channel 2.  Note 81.  Velocity 58
000030t:  Note on ::  Channel 2.  Note 84.  Velocity 0
000000t:  Note on ::  Channel 2.  Note 77.  Velocity 58
000030t:  Note on ::  Channel 2.  Note 81.  Velocity 0
000000t:  Note on ::  Channel 2.  Note 89.  Velocity 127
000030t:  Note on ::  Channel 2.  Note 77.  Velocity 0
000000t:  Note on ::  Channel 2.  Note 84.  Velocity 58
000030t:  Note on ::  Channel 2.  Note 89.  Velocity 0
000000t:  Note on ::  Channel 2.  Note 81.  Velocity 58
000030t:  Note on ::  Channel 2.  Note 84.  Velocity 0
000000t:  Note on ::  Channel 2.  Note 77.  Velocity 58
000030t:  Note on ::  Channel 2.  Note 81.  Velocity 0
000000t:  Note on ::  Channel 2.  Note 88.  Velocity 127
000030t:  Note on ::  Channel 2.  Note 77.  Velocity 0
000000t:  Note on ::  Channel 2.  Note 84.  Velocity 58
000030t:  Note on ::  Channel 2.  Note 88.  Velocity 0
000000t:  Note on ::  Channel 2.  Note 81.  Velocity 58
000030t:  Note on ::  Channel 2.  Note 84.  Velocity 0
000000t:  Note on ::  Channel 2.  Note 77.  Velocity 58
000030t:  Note on ::  Channel 2.  Note 81.  Velocity 0
000000t:  Note on ::  Channel 2.  Note 89.  Velocity 127
000030t:  Note on ::  Channel 2.  Note 77.  Velocity 0
000000t:  Note on ::  Channel 2.  Note 84.  Velocity 58
000030t:  Note on ::  Channel 2.  Note 89.  Velocity 0
000000t:  Note on ::  Channel 2.  Note 81.  Velocity 58
000030t:  Note on ::  Channel 2.  Note 84.  Velocity 0
000000t:  Note on ::  Channel 2.  Note 77.  Velocity 58
000030t:  Note on ::  Channel 2.  Note 77.  Velocity 0
000000t:  Note on ::  Channel 2.  Note 81.  Velocity 0
000000t:  Note on ::  Channel 2.  Note 89.  Velocity 127
000030t:  Note on ::  Channel 2.  Note 82.  Velocity 58
000030t:  Note on ::  Channel 2.  Note 89.  Velocity 0
000000t:  Note on ::  Channel 2.  Note 79.  Velocity 58
000030t:  Note on ::  Channel 2.  Note 82.  Velocity 0
000000t:  Note on ::  Channel 2.  Note 76.  Velocity 58
000030t:  Note on ::  Channel 2.  Note 79.  Velocity 0
000000t:  Note on ::  Channel 2.  Note 88.  Velocity 127
000030t:  Note on ::  Channel 2.  Note 76.  Velocity 0
000000t:  Note on ::  Channel 2.  Note 82.  Velocity 58
000030t:  Note on ::  Channel 2.  Note 88.  Velocity 0
000000t:  Note on ::  Channel 2.  Note 79.  Velocity 58
000030t:  Note on ::  Channel 2.  Note 82.  Velocity 0
000000t:  Note on ::  Channel 2.  Note 76.  Velocity 58
000030t:  Note on ::  Channel 2.  Note 79.  Velocity 0
000000t:  Note on ::  Channel 2.  Note 87.  Velocity 127
000030t:  Note on ::  Channel 2.  Note 76.  Velocity 0
000000t:  Note on ::  Channel 2.  Note 82.  Velocity 58
000030t:  Note on ::  Channel 2.  Note 87.  Velocity 0
000000t:  Note on ::  Channel 2.  Note 79.  Velocity 58
000030t:  Note on ::  Channel 2.  Note 82.  Velocity 0
000000t:  Note on ::  Channel 2.  Note 76.  Velocity 58
000030t:  Note on ::  Channel 2.  Note 79.  Velocity 0
000000t:  Note on ::  Channel 2.  Note 88.  Velocity 127
000030t:  Note on ::  Channel 2.  Note 76.  Velocity 0
000000t:  Note on ::  Channel 2.  Note 82.  Velocity 58
000030t:  Note on ::  Channel 2.  Note 88.  Velocity 0
000000t:  Note on ::  Channel 2.  Note 79.  Velocity 58
000030t:  Note on ::  Channel 2.  Note 82.  Velocity 0
000000t:  Note on ::  Channel 2.  Note 76.  Velocity 58
000030t:  Note on ::  Channel 2.  Note 76.  Velocity 0
000000t:  Note on ::  Channel 2.  Note 79.  Velocity 0
000000t:  Note on ::  Channel 2.  Note 88.  Velocity 127
000030t:  Note on ::  Channel 2.  Note 81.  Velocity 58
000030t:  Note on ::  Channel 2.  Note 88.  Velocity 0
000000t:  Note on ::  Channel 2.  Note 77.  Velocity 58
000030t:  Note on ::  Channel 2.  Note 81.  Velocity 0
000000t:  Note on ::  Channel 2.  Note 74.  Velocity 58
000030t:  Note on ::  Channel 2.  Note 77.  Velocity 0
000000t:  Note on ::  Channel 2.  Note 86.  Velocity 127
000030t:  Note on ::  Channel 2.  Note 74.  Velocity 0
000000t:  Note on ::  Channel 2.  Note 81.  Velocity 58
000030t:  Note on ::  Channel 2.  Note 86.  Velocity 0
000000t:  Note on ::  Channel 2.  Note 77.  Velocity 58
000030t:  Note on ::  Channel 2.  Note 81.  Velocity 0
000000t:  Note on ::  Channel 2.  Note 74.  Velocity 58
000030t:  Note on ::  Channel 2.  Note 77.  Velocity 0
000000t:  Note on ::  Channel 2.  Note 85.  Velocity 127
000030t:  Note on ::  Channel 2.  Note 74.  Velocity 0
000000t:  Note on ::  Channel 2.  Note 81.  Velocity 58
000030t:  Note on ::  Channel 2.  Note 85.  Velocity 0
000000t:  Note on ::  Channel 2.  Note 77.  Velocity 58
000030t:  Note on ::  Channel 2.  Note 81.  Velocity 0
000000t:  Note on ::  Channel 2.  Note 74.  Velocity 58
000030t:  Note on ::  Channel 2.  Note 77.  Velocity 0
000000t:  Note on ::  Channel 2.  Note 86.  Velocity 127
000030t:  Note on ::  Channel 2.  Note 74.  Velocity 0
000000t:  Note on ::  Channel 2.  Note 81.  Velocity 58
000030t:  Note on ::  Channel 2.  Note 86.  Velocity 0
000000t:  Note on ::  Channel 2.  Note 77.  Velocity 58
000030t:  Note on ::  Channel 2.  Note 81.  Velocity 0
000000t:  Note on ::  Channel 2.  Note 74.  Velocity 58
000030t:  Note on ::  Channel 2.  Note 74.  Velocity 0
000000t:  Note on ::  Channel 2.  Note 77.  Velocity 0
000000t:  Note on ::  Channel 2.  Note 93.  Velocity 127
000030t:  Note on ::  Channel 2.  Note 86.  Velocity 58
000030t:  Note on ::  Channel 2.  Note 93.  Velocity 0
000000t:  Note on ::  Channel 2.  Note 82.  Velocity 58
000030t:  Note on ::  Channel 2.  Note 86.  Velocity 0
000000t:  Note on ::  Channel 2.  Note 79.  Velocity 58
000030t:  Note on ::  Channel 2.  Note 82.  Velocity 0
000000t:  Note on ::  Channel 2.  Note 91.  Velocity 127
000030t:  Note on ::  Channel 2.  Note 79.  Velocity 0
000000t:  Note on ::  Channel 2.  Note 86.  Velocity 58
000030t:  Note on ::  Channel 2.  Note 91.  Velocity 0
000000t:  Note on ::  Channel 2.  Note 82.  Velocity 58
000030t:  Note on ::  Channel 2.  Note 86.  Velocity 0
000000t:  Note on ::  Channel 2.  Note 79.  Velocity 58
000030t:  Note on ::  Channel 2.  Note 82.  Velocity 0
000000t:  Note on ::  Channel 2.  Note 90.  Velocity 127
000030t:  Note on ::  Channel 2.  Note 79.  Velocity 0
000000t:  Note on ::  Channel 2.  Note 86.  Velocity 58
000030t:  Note on ::  Channel 2.  Note 90.  Velocity 0
000000t:  Note on ::  Channel 2.  Note 82.  Velocity 58
000030t:  Note on ::  Channel 2.  Note 86.  Velocity 0
000000t:  Note on ::  Channel 2.  Note 79.  Velocity 58
000030t:  Note on ::  Channel 2.  Note 82.  Velocity 0
000000t:  Note on ::  Channel 2.  Note 91.  Velocity 127
000030t:  Note on ::  Channel 2.  Note 79.  Velocity 0
000000t:  Note on ::  Channel 2.  Note 86.  Velocity 58
000030t:  Note on ::  Channel 2.  Note 91.  Velocity 0
000000t:  Note on ::  Channel 2.  Note 82.  Velocity 58
000030t:  Note on ::  Channel 2.  Note 86.  Velocity 0
000000t:  Note on ::  Channel 2.  Note 79.  Velocity 58
000030t:  Note on ::  Channel 2.  Note 79.  Velocity 0
000000t:  Note on ::  Channel 2.  Note 82.  Velocity 0
000000t:  Note on ::  Channel 2.  Note 94.  Velocity 127
000030t:  Note on ::  Channel 2.  Note 87.  Velocity 58
000030t:  Note on ::  Channel 2.  Note 94.  Velocity 0
000000t:  Note on ::  Channel 2.  Note 84.  Velocity 58
000030t:  Note on ::  Channel 2.  Note 87.  Velocity 0
000000t:  Note on ::  Channel 2.  Note 78.  Velocity 58
000030t:  Note on ::  Channel 2.  Note 84.  Velocity 0
000000t:  Note on ::  Channel 2.  Note 93.  Velocity 127
000030t:  Note on ::  Channel 2.  Note 78.  Velocity 0
000000t:  Note on ::  Channel 2.  Note 87.  Velocity 58
000030t:  Note on ::  Channel 2.  Note 93.  Velocity 0
000000t:  Note on ::  Channel 2.  Note 84.  Velocity 58
000030t:  Note on ::  Channel 2.  Note 87.  Velocity 0
000000t:  Note on ::  Channel 2.  Note 78.  Velocity 58
000030t:  Note on ::  Channel 2.  Note 84.  Velocity 0
000000t:  Note on ::  Channel 2.  Note 92.  Velocity 127
000030t:  Note on ::  Channel 2.  Note 78.  Velocity 0
000000t:  Note on ::  Channel 2.  Note 87.  Velocity 58
000030t:  Note on ::  Channel 2.  Note 92.  Velocity 0
000000t:  Note on ::  Channel 2.  Note 84.  Velocity 58
000030t:  Note on ::  Channel 2.  Note 87.  Velocity 0
000000t:  Note on ::  Channel 2.  Note 78.  Velocity 58
000030t:  Note on ::  Channel 2.  Note 84.  Velocity 0
000000t:  Note on ::  Channel 2.  Note 93.  Velocity 127
000030t:  Note on ::  Channel 2.  Note 78.  Velocity 0
000000t:  Note on ::  Channel 2.  Note 87.  Velocity 58
000030t:  Note on ::  Channel 2.  Note 93.  Velocity 0
000000t:  Note on ::  Channel 2.  Note 84.  Velocity 58
000030t:  Note on ::  Channel 2.  Note 87.  Velocity 0
000000t:  Note on ::  Channel 2.  Note 78.  Velocity 58
000030t:  Note on ::  Channel 2.  Note 78.  Velocity 0
000000t:  Note on ::  Channel 2.  Note 84.  Velocity 0
000000t:  Note on ::  Channel 2.  Note 96.  Velocity 127
000030t:  Note on ::  Channel 2.  Note 86.  Velocity 58
000030t:  Note on ::  Channel 2.  Note 96.  Velocity 0
000000t:  Note on ::  Channel 2.  Note 82.  Velocity 58
000030t:  Note on ::  Channel 2.  Note 86.  Velocity 0
000000t:  Note on ::  Channel 2.  Note 79.  Velocity 58
000030t:  Note on ::  Channel 2.  Note 82.  Velocity 0
000000t:  Note on ::  Channel 2.  Note 94.  Velocity 127
000030t:  Note on ::  Channel 2.  Note 79.  Velocity 0
000000t:  Note on ::  Channel 2.  Note 86.  Velocity 58
000030t:  Note on ::  Channel 2.  Note 94.  Velocity 0
000000t:  Note on ::  Channel 2.  Note 82.  Velocity 58
000030t:  Note on ::  Channel 2.  Note 86.  Velocity 0
000000t:  Note on ::  Channel 2.  Note 79.  Velocity 58
000030t:  Note on ::  Channel 2.  Note 82.  Velocity 0
000000t:  Note on ::  Channel 2.  Note 93.  Velocity 127
000030t:  Note on ::  Channel 2.  Note 79.  Velocity 0
000000t:  Note on ::  Channel 2.  Note 86.  Velocity 58
000030t:  Note on ::  Channel 2.  Note 93.  Velocity 0
000000t:  Note on ::  Channel 2.  Note 82.  Velocity 58
000030t:  Note on ::  Channel 2.  Note 86.  Velocity 0
000000t:  Note on ::  Channel 2.  Note 79.  Velocity 58
000030t:  Note on ::  Channel 2.  Note 82.  Velocity 0
000000t:  Note on ::  Channel 2.  Note 94.  Velocity 127
000030t:  Note on ::  Channel 2.  Note 79.  Velocity 0
000000t:  Note on ::  Channel 2.  Note 86.  Velocity 58
000030t:  Note on ::  Channel 2.  Note 94.  Velocity 0
000000t:  Note on ::  Channel 2.  Note 82.  Velocity 58
000030t:  Note on ::  Channel 2.  Note 86.  Velocity 0
000000t:  Note on ::  Channel 2.  Note 79.  Velocity 58
000030t:  Note on ::  Channel 2.  Note 79.  Velocity 0
000000t:  Note on ::  Channel 2.  Note 82.  Velocity 0
000000t:  Note on ::  Channel 2.  Note 93.  Velocity 127
000030t:  Note on ::  Channel 2.  Note 82.  Velocity 58
000030t:  Note on ::  Channel 2.  Note 93.  Velocity 0
000000t:  Note on ::  Channel 2.  Note 79.  Velocity 58
000030t:  Note on ::  Channel 2.  Note 82.  Velocity 0
000000t:  Note on ::  Channel 2.  Note 76.  Velocity 58
000030t:  Note on ::  Channel 2.  Note 79.  Velocity 0
000000t:  Note on ::  Channel 2.  Note 91.  Velocity 127
000030t:  Note on ::  Channel 2.  Note 76.  Velocity 0
000000t:  Note on ::  Channel 2.  Note 82.  Velocity 58
000030t:  Note on ::  Channel 2.  Note 91.  Velocity 0
000000t:  Note on ::  Channel 2.  Note 79.  Velocity 58
000030t:  Note on ::  Channel 2.  Note 82.  Velocity 0
000000t:  Note on ::  Channel 2.  Note 76.  Velocity 58
000030t:  Note on ::  Channel 2.  Note 79.  Velocity 0
000000t:  Note on ::  Channel 2.  Note 89.  Velocity 127
000030t:  Note on ::  Channel 2.  Note 76.  Velocity 0
000000t:  Note on ::  Channel 2.  Note 82.  Velocity 58
000030t:  Note on ::  Channel 2.  Note 89.  Velocity 0
000000t:  Note on ::  Channel 2.  Note 79.  Velocity 58
000030t:  Note on ::  Channel 2.  Note 82.  Velocity 0
000000t:  Note on ::  Channel 2.  Note 76.  Velocity 58
000030t:  Note on ::  Channel 2.  Note 79.  Velocity 0
000000t:  Note on ::  Channel 2.  Note 88.  Velocity 127
000030t:  Note on ::  Channel 2.  Note 76.  Velocity 0
000000t:  Note on ::  Channel 2.  Note 82.  Velocity 58
000030t:  Note on ::  Channel 2.  Note 88.  Velocity 0
000000t:  Note on ::  Channel 2.  Note 79.  Velocity 58
000030t:  Note on ::  Channel 2.  Note 82.  Velocity 0
000000t:  Note on ::  Channel 2.  Note 76.  Velocity 58
000030t:  Note on ::  Channel 2.  Note 76.  Velocity 0
000000t:  Note on ::  Channel 2.  Note 79.  Velocity 0
000000t:  Note on ::  Channel 2.  Note 93.  Velocity 127
000030t:  Note on ::  Channel 2.  Note 86.  Velocity 58
000030t:  Note on ::  Channel 2.  Note 93.  Velocity 0
000000t:  Note on ::  Channel 2.  Note 82.  Velocity 58
000030t:  Note on ::  Channel 2.  Note 86.  Velocity 0
000000t:  Note on ::  Channel 2.  Note 79.  Velocity 58
000030t:  Note on ::  Channel 2.  Note 82.  Velocity 0
000000t:  Note on ::  Channel 2.  Note 91.  Velocity 127
000030t:  Note on ::  Channel 2.  Note 79.  Velocity 0
000000t:  Note on ::  Channel 2.  Note 86.  Velocity 58
000030t:  Note on ::  Channel 2.  Note 91.  Velocity 0
000000t:  Note on ::  Channel 2.  Note 82.  Velocity 58
000030t:  Note on ::  Channel 2.  Note 86.  Velocity 0
000000t:  Note on ::  Channel 2.  Note 79.  Velocity 58
000030t:  Note on ::  Channel 2.  Note 82.  Velocity 0
000000t:  Note on ::  Channel 2.  Note 90.  Velocity 127
000030t:  Note on ::  Channel 2.  Note 79.  Velocity 0
000000t:  Note on ::  Channel 2.  Note 86.  Velocity 58
000030t:  Note on ::  Channel 2.  Note 90.  Velocity 0
000000t:  Note on ::  Channel 2.  Note 82.  Velocity 58
000030t:  Note on ::  Channel 2.  Note 86.  Velocity 0
000000t:  Note on ::  Channel 2.  Note 79.  Velocity 58
000030t:  Note on ::  Channel 2.  Note 82.  Velocity 0
000000t:  Note on ::  Channel 2.  Note 91.  Velocity 127
000030t:  Note on ::  Channel 2.  Note 79.  Velocity 0
000000t:  Note on ::  Channel 2.  Note 86.  Velocity 58
000030t:  Note on ::  Channel 2.  Note 91.  Velocity 0
000000t:  Note on ::  Channel 2.  Note 82.  Velocity 58
000030t:  Note on ::  Channel 2.  Note 86.  Velocity 0
000000t:  Note on ::  Channel 2.  Note 79.  Velocity 58
000030t:  Note on ::  Channel 2.  Note 79.  Velocity 0
000000t:  Note on ::  Channel 2.  Note 82.  Velocity 0
000000t:  Note on ::  Channel 2.  Note 91.  Velocity 127
000030t:  Note on ::  Channel 2.  Note 84.  Velocity 58
000030t:  Note on ::  Channel 2.  Note 91.  Velocity 0
000000t:  Note on ::  Channel 2.  Note 81.  Velocity 58
000030t:  Note on ::  Channel 2.  Note 84.  Velocity 0
000000t:  Note on ::  Channel 2.  Note 77.  Velocity 58
000030t:  Note on ::  Channel 2.  Note 81.  Velocity 0
000000t:  Note on ::  Channel 2.  Note 89.  Velocity 127
000030t:  Note on ::  Channel 2.  Note 77.  Velocity 0
000000t:  Note on ::  Channel 2.  Note 84.  Velocity 58
000030t:  Note on ::  Channel 2.  Note 89.  Velocity 0
000000t:  Note on ::  Channel 2.  Note 81.  Velocity 58
000030t:  Note on ::  Channel 2.  Note 84.  Velocity 0
000000t:  Note on ::  Channel 2.  Note 77.  Velocity 58
000030t:  Note on ::  Channel 2.  Note 81.  Velocity 0
000000t:  Note on ::  Channel 2.  Note 88.  Velocity 127
000030t:  Note on ::  Channel 2.  Note 77.  Velocity 0
000000t:  Note on ::  Channel 2.  Note 84.  Velocity 58
000030t:  Note on ::  Channel 2.  Note 88.  Velocity 0
000000t:  Note on ::  Channel 2.  Note 81.  Velocity 58
000030t:  Note on ::  Channel 2.  Note 84.  Velocity 0
000000t:  Note on ::  Channel 2.  Note 77.  Velocity 58
000030t:  Note on ::  Channel 2.  Note 81.  Velocity 0
000000t:  Note on ::  Channel 2.  Note 89.  Velocity 127
000030t:  Note on ::  Channel 2.  Note 77.  Velocity 0
000000t:  Note on ::  Channel 2.  Note 84.  Velocity 58
000030t:  Note on ::  Channel 2.  Note 89.  Velocity 0
000000t:  Note on ::  Channel 2.  Note 81.  Velocity 58
000030t:  Note on ::  Channel 2.  Note 84.  Velocity 0
000000t:  Note on ::  Channel 2.  Note 77.  Velocity 58
000030t:  Note on ::  Channel 2.  Note 77.  Velocity 0
000000t:  Note on ::  Channel 2.  Note 81.  Velocity 0
000000t:  Note on ::  Channel 2.  Note 89.  Velocity 127
000030t:  Note on ::  Channel 2.  Note 82.  Velocity 58
000030t:  Note on ::  Channel 2.  Note 89.  Velocity 0
000000t:  Note on ::  Channel 2.  Note 79.  Velocity 58
000030t:  Note on ::  Channel 2.  Note 82.  Velocity 0
000000t:  Note on ::  Channel 2.  Note 76.  Velocity 58
000030t:  Note on ::  Channel 2.  Note 79.  Velocity 0
000000t:  Note on ::  Channel 2.  Note 88.  Velocity 127
000030t:  Note on ::  Channel 2.  Note 76.  Velocity 0
000000t:  Note on ::  Channel 2.  Note 82.  Velocity 58
000030t:  Note on ::  Channel 2.  Note 88.  Velocity 0
000000t:  Note on ::  Channel 2.  Note 79.  Velocity 58
000030t:  Note on ::  Channel 2.  Note 82.  Velocity 0
000000t:  Note on ::  Channel 2.  Note 76.  Velocity 58
000030t:  Note on ::  Channel 2.  Note 79.  Velocity 0
000000t:  Note on ::  Channel 2.  Note 87.  Velocity 127
000030t:  Note on ::  Channel 2.  Note 76.  Velocity 0
000000t:  Note on ::  Channel 2.  Note 82.  Velocity 58
000030t:  Note on ::  Channel 2.  Note 87.  Velocity 0
000000t:  Note on ::  Channel 2.  Note 79.  Velocity 58
000030t:  Note on ::  Channel 2.  Note 82.  Velocity 0
000000t:  Note on ::  Channel 2.  Note 76.  Velocity 58
000030t:  Note on ::  Channel 2.  Note 79.  Velocity 0
000000t:  Note on ::  Channel 2.  Note 88.  Velocity 127
000030t:  Note on ::  Channel 2.  Note 76.  Velocity 0
000000t:  Note on ::  Channel 2.  Note 82.  Velocity 58
000030t:  Note on ::  Channel 2.  Note 88.  Velocity 0
000000t:  Note on ::  Channel 2.  Note 79.  Velocity 58
000030t:  Note on ::  Channel 2.  Note 82.  Velocity 0
000000t:  Note on ::  Channel 2.  Note 76.  Velocity 58
000030t:  Note on ::  Channel 2.  Note 76.  Velocity 0
000000t:  Note on ::  Channel 2.  Note 79.  Velocity 0
000000t:  Note on ::  Channel 2.  Note 88.  Velocity 127
000030t:  Note on ::  Channel 2.  Note 81.  Velocity 58
000030t:  Note on ::  Channel 2.  Note 88.  Velocity 0
000000t:  Note on ::  Channel 2.  Note 77.  Velocity 58
000030t:  Note on ::  Channel 2.  Note 81.  Velocity 0
000000t:  Note on ::  Channel 2.  Note 74.  Velocity 58
000030t:  Note on ::  Channel 2.  Note 77.  Velocity 0
000000t:  Note on ::  Channel 2.  Note 86.  Velocity 127
000030t:  Note on ::  Channel 2.  Note 74.  Velocity 0
000000t:  Note on ::  Channel 2.  Note 81.  Velocity 58
000030t:  Note on ::  Channel 2.  Note 86.  Velocity 0
000000t:  Note on ::  Channel 2.  Note 77.  Velocity 58
000030t:  Note on ::  Channel 2.  Note 81.  Velocity 0
000000t:  Note on ::  Channel 2.  Note 74.  Velocity 58
000030t:  Note on ::  Channel 2.  Note 77.  Velocity 0
000000t:  Note on ::  Channel 2.  Note 85.  Velocity 127
000030t:  Note on ::  Channel 2.  Note 74.  Velocity 0
000000t:  Note on ::  Channel 2.  Note 81.  Velocity 58
000030t:  Note on ::  Channel 2.  Note 85.  Velocity 0
000000t:  Note on ::  Channel 2.  Note 77.  Velocity 58
000030t:  Note on ::  Channel 2.  Note 81.  Velocity 0
000000t:  Note on ::  Channel 2.  Note 74.  Velocity 58
000030t:  Note on ::  Channel 2.  Note 77.  Velocity 0
000000t:  Note on ::  Channel 2.  Note 86.  Velocity 127
000030t:  Note on ::  Channel 2.  Note 74.  Velocity 0
000000t:  Note on ::  Channel 2.  Note 81.  Velocity 58
000030t:  Note on ::  Channel 2.  Note 86.  Velocity 0
000000t:  Note on ::  Channel 2.  Note 77.  Velocity 58
000030t:  Note on ::  Channel 2.  Note 81.  Velocity 0
000000t:  Note on ::  Channel 2.  Note 74.  Velocity 58
000030t:  Note on ::  Channel 2.  Note 74.  Velocity 0
000000t:  Note on ::  Channel 2.  Note 77.  Velocity 0
000000t:  Note on ::  Channel 2.  Note 93.  Velocity 127
000030t:  Note on ::  Channel 2.  Note 86.  Velocity 58
000030t:  Note on ::  Channel 2.  Note 93.  Velocity 0
000000t:  Note on ::  Channel 2.  Note 82.  Velocity 58
000030t:  Note on ::  Channel 2.  Note 86.  Velocity 0
000000t:  Note on ::  Channel 2.  Note 79.  Velocity 58
000030t:  Note on ::  Channel 2.  Note 82.  Velocity 0
000000t:  Note on ::  Channel 2.  Note 91.  Velocity 127
000030t:  Note on ::  Channel 2.  Note 79.  Velocity 0
000000t:  Note on ::  Channel 2.  Note 86.  Velocity 58
000030t:  Note on ::  Channel 2.  Note 91.  Velocity 0
000000t:  Note on ::  Channel 2.  Note 82.  Velocity 58
000030t:  Note on ::  Channel 2.  Note 86.  Velocity 0
000000t:  Note on ::  Channel 2.  Note 79.  Velocity 58
000030t:  Note on ::  Channel 2.  Note 82.  Velocity 0
000000t:  Note on ::  Channel 2.  Note 90.  Velocity 127
000030t:  Note on ::  Channel 2.  Note 79.  Velocity 0
000000t:  Note on ::  Channel 2.  Note 86.  Velocity 58
000030t:  Note on ::  Channel 2.  Note 90.  Velocity 0
000000t:  Note on ::  Channel 2.  Note 82.  Velocity 58
000030t:  Note on ::  Channel 2.  Note 86.  Velocity 0
000000t:  Note on ::  Channel 2.  Note 79.  Velocity 58
000030t:  Note on ::  Channel 2.  Note 82.  Velocity 0
000000t:  Note on ::  Channel 2.  Note 91.  Velocity 127
000030t:  Note on ::  Channel 2.  Note 79.  Velocity 0
000000t:  Note on ::  Channel 2.  Note 86.  Velocity 58
000030t:  Note on ::  Channel 2.  Note 91.  Velocity 0
000000t:  Note on ::  Channel 2.  Note 82.  Velocity 58
000030t:  Note on ::  Channel 2.  Note 86.  Velocity 0
000000t:  Note on ::  Channel 2.  Note 79.  Velocity 58
000030t:  Note on ::  Channel 2.  Note 79.  Velocity 0
000000t:  Note on ::  Channel 2.  Note 82.  Velocity 0
000000t:  Note on ::  Channel 2.  Note 94.  Velocity 127
000030t:  Note on ::  Channel 2.  Note 87.  Velocity 58
000030t:  Note on ::  Channel 2.  Note 94.  Velocity 0
000000t:  Note on ::  Channel 2.  Note 84.  Velocity 58
000030t:  Note on ::  Channel 2.  Note 87.  Velocity 0
000000t:  Note on ::  Channel 2.  Note 78.  Velocity 58
000030t:  Note on ::  Channel 2.  Note 84.  Velocity 0
000000t:  Note on ::  Channel 2.  Note 93.  Velocity 127
000030t:  Note on ::  Channel 2.  Note 78.  Velocity 0
000000t:  Note on ::  Channel 2.  Note 87.  Velocity 58
000030t:  Note on ::  Channel 2.  Note 93.  Velocity 0
000000t:  Note on ::  Channel 2.  Note 84.  Velocity 58
000030t:  Note on ::  Channel 2.  Note 87.  Velocity 0
000000t:  Note on ::  Channel 2.  Note 78.  Velocity 58
000030t:  Note on ::  Channel 2.  Note 84.  Velocity 0
000000t:  Note on ::  Channel 2.  Note 92.  Velocity 127
000030t:  Note on ::  Channel 2.  Note 78.  Velocity 0
000000t:  Note on ::  Channel 2.  Note 87.  Velocity 58
000030t:  Note on ::  Channel 2.  Note 92.  Velocity 0
000000t:  Note on ::  Channel 2.  Note 84.  Velocity 58
000030t:  Note on ::  Channel 2.  Note 87.  Velocity 0
000000t:  Note on ::  Channel 2.  Note 78.  Velocity 58
000030t:  Note on ::  Channel 2.  Note 84.  Velocity 0
000000t:  Note on ::  Channel 2.  Note 93.  Velocity 127
000030t:  Note on ::  Channel 2.  Note 78.  Velocity 0
000000t:  Note on ::  Channel 2.  Note 87.  Velocity 58
000030t:  Note on ::  Channel 2.  Note 93.  Velocity 0
000000t:  Note on ::  Channel 2.  Note 84.  Velocity 58
000030t:  Note on ::  Channel 2.  Note 87.  Velocity 0
000000t:  Note on ::  Channel 2.  Note 78.  Velocity 58
000030t:  Note on ::  Channel 2.  Note 78.  Velocity 0
000000t:  Note on ::  Channel 2.  Note 84.  Velocity 0
000000t:  Note on ::  Channel 2.  Note 96.  Velocity 127
000030t:  Note on ::  Channel 2.  Note 86.  Velocity 58
000030t:  Note on ::  Channel 2.  Note 96.  Velocity 0
000000t:  Note on ::  Channel 2.  Note 82.  Velocity 58
000030t:  Note on ::  Channel 2.  Note 86.  Velocity 0
000000t:  Note on ::  Channel 2.  Note 79.  Velocity 58
000030t:  Note on ::  Channel 2.  Note 82.  Velocity 0
000000t:  Note on ::  Channel 2.  Note 94.  Velocity 127
000030t:  Note on ::  Channel 2.  Note 79.  Velocity 0
000000t:  Note on ::  Channel 2.  Note 86.  Velocity 58
000030t:  Note on ::  Channel 2.  Note 94.  Velocity 0
000000t:  Note on ::  Channel 2.  Note 82.  Velocity 58
000030t:  Note on ::  Channel 2.  Note 86.  Velocity 0
000000t:  Note on ::  Channel 2.  Note 79.  Velocity 58
000030t:  Note on ::  Channel 2.  Note 82.  Velocity 0
000000t:  Note on ::  Channel 2.  Note 93.  Velocity 127
000030t:  Note on ::  Channel 2.  Note 79.  Velocity 0
000000t:  Note on ::  Channel 2.  Note 86.  Velocity 58
000030t:  Note on ::  Channel 2.  Note 93.  Velocity 0
000000t:  Note on ::  Channel 2.  Note 82.  Velocity 58
000030t:  Note on ::  Channel 2.  Note 86.  Velocity 0
000000t:  Note on ::  Channel 2.  Note 79.  Velocity 58
000030t:  Note on ::  Channel 2.  Note 82.  Velocity 0
000000t:  Note on ::  Channel 2.  Note 94.  Velocity 127
000030t:  Note on ::  Channel 2.  Note 79.  Velocity 0
000000t:  Note on ::  Channel 2.  Note 86.  Velocity 58
000030t:  Note on ::  Channel 2.  Note 94.  Velocity 0
000000t:  Note on ::  Channel 2.  Note 82.  Velocity 58
000030t:  Note on ::  Channel 2.  Note 86.  Velocity 0
000000t:  Note on ::  Channel 2.  Note 79.  Velocity 58
000030t:  Note on ::  Channel 2.  Note 79.  Velocity 0
000000t:  Note on ::  Channel 2.  Note 82.  Velocity 0
000000t:  Note on ::  Channel 2.  Note 93.  Velocity 127
000030t:  Note on ::  Channel 2.  Note 82.  Velocity 58
000030t:  Note on ::  Channel 2.  Note 93.  Velocity 0
000000t:  Note on ::  Channel 2.  Note 79.  Velocity 58
000030t:  Note on ::  Channel 2.  Note 82.  Velocity 0
000000t:  Note on ::  Channel 2.  Note 76.  Velocity 58
000030t:  Note on ::  Channel 2.  Note 79.  Velocity 0
000000t:  Note on ::  Channel 2.  Note 91.  Velocity 127
000030t:  Note on ::  Channel 2.  Note 76.  Velocity 0
000000t:  Note on ::  Channel 2.  Note 82.  Velocity 58
000030t:  Note on ::  Channel 2.  Note 91.  Velocity 0
000000t:  Note on ::  Channel 2.  Note 79.  Velocity 58
000030t:  Note on ::  Channel 2.  Note 82.  Velocity 0
000000t:  Note on ::  Channel 2.  Note 76.  Velocity 58
000030t:  Note on ::  Channel 2.  Note 79.  Velocity 0
000000t:  Note on ::  Channel 2.  Note 89.  Velocity 127
000030t:  Note on ::  Channel 2.  Note 76.  Velocity 0
000000t:  Note on ::  Channel 2.  Note 82.  Velocity 58
000030t:  Note on ::  Channel 2.  Note 89.  Velocity 0
000000t:  Note on ::  Channel 2.  Note 79.  Velocity 58
000030t:  Note on ::  Channel 2.  Note 82.  Velocity 0
000000t:  Note on ::  Channel 2.  Note 76.  Velocity 58
000030t:  Note on ::  Channel 2.  Note 79.  Velocity 0
000000t:  Note on ::  Channel 2.  Note 88.  Velocity 127
000030t:  Note on ::  Channel 2.  Note 76.  Velocity 0
000000t:  Note on ::  Channel 2.  Note 82.  Velocity 58
000030t:  Note on ::  Channel 2.  Note 88.  Velocity 0
000000t:  Note on ::  Channel 2.  Note 79.  Velocity 58
000030t:  Note on ::  Channel 2.  Note 82.  Velocity 0
000000t:  Note on ::  Channel 2.  Note 76.  Velocity 58
000030t:  Note on ::  Channel 2.  Note 76.  Velocity 0
000000t:  Note on ::  Channel 2.  Note 79.  Velocity 0
000000t:  Note on ::  Channel 2.  Note 93.  Velocity 127
000030t:  Note on ::  Channel 2.  Note 86.  Velocity 58
000030t:  Note on ::  Channel 2.  Note 93.  Velocity 0
000000t:  Note on ::  Channel 2.  Note 82.  Velocity 58
000030t:  Note on ::  Channel 2.  Note 86.  Velocity 0
000000t:  Note on ::  Channel 2.  Note 79.  Velocity 58
000030t:  Note on ::  Channel 2.  Note 82.  Velocity 0
000000t:  Note on ::  Channel 2.  Note 91.  Velocity 127
000030t:  Note on ::  Channel 2.  Note 79.  Velocity 0
000000t:  Note on ::  Channel 2.  Note 86.  Velocity 58
000030t:  Note on ::  Channel 2.  Note 91.  Velocity 0
000000t:  Note on ::  Channel 2.  Note 82.  Velocity 58
000030t:  Note on ::  Channel 2.  Note 86.  Velocity 0
000000t:  Note on ::  Channel 2.  Note 79.  Velocity 58
000030t:  Note on ::  Channel 2.  Note 82.  Velocity 0
000000t:  Note on ::  Channel 2.  Note 90.  Velocity 127
000030t:  Note on ::  Channel 2.  Note 79.  Velocity 0
000000t:  Note on ::  Channel 2.  Note 86.  Velocity 58
000030t:  Note on ::  Channel 2.  Note 90.  Velocity 0
000000t:  Note on ::  Channel 2.  Note 82.  Velocity 58
000030t:  Note on ::  Channel 2.  Note 86.  Velocity 0
000000t:  Note on ::  Channel 2.  Note 79.  Velocity 58
000030t:  Note on ::  Channel 2.  Note 82.  Velocity 0
000000t:  Note on ::  Channel 2.  Note 91.  Velocity 127
000030t:  Note on ::  Channel 2.  Note 79.  Velocity 0
000000t:  Note on ::  Channel 2.  Note 86.  Velocity 58
000030t:  Note on ::  Channel 2.  Note 91.  Velocity 0
000000t:  Note on ::  Channel 2.  Note 82.  Velocity 58
000030t:  Note on ::  Channel 2.  Note 86.  Velocity 0
000000t:  Note on ::  Channel 2.  Note 79.  Velocity 58
000030t:  Note on ::  Channel 2.  Note 79.  Velocity 0
000000t:  Note on ::  Channel 2.  Note 82.  Velocity 0
000000t:  Note on ::  Channel 2.  Note 91.  Velocity 127
000030t:  Note on ::  Channel 2.  Note 84.  Velocity 58
000030t:  Note on ::  Channel 2.  Note 91.  Velocity 0
000000t:  Note on ::  Channel 2.  Note 81.  Velocity 58
000030t:  Note on ::  Channel 2.  Note 84.  Velocity 0
000000t:  Note on ::  Channel 2.  Note 77.  Velocity 58
000030t:  Note on ::  Channel 2.  Note 81.  Velocity 0
000000t:  Note on ::  Channel 2.  Note 89.  Velocity 127
000030t:  Note on ::  Channel 2.  Note 77.  Velocity 0
000000t:  Note on ::  Channel 2.  Note 84.  Velocity 58
000030t:  Note on ::  Channel 2.  Note 89.  Velocity 0
000000t:  Note on ::  Channel 2.  Note 81.  Velocity 58
000030t:  Note on ::  Channel 2.  Note 84.  Velocity 0
000000t:  Note on ::  Channel 2.  Note 77.  Velocity 58
000030t:  Note on ::  Channel 2.  Note 81.  Velocity 0
000000t:  Note on ::  Channel 2.  Note 88.  Velocity 127
000030t:  Note on ::  Channel 2.  Note 77.  Velocity 0
000000t:  Note on ::  Channel 2.  Note 84.  Velocity 58
000030t:  Note on ::  Channel 2.  Note 88.  Velocity 0
000000t:  Note on ::  Channel 2.  Note 81.  Velocity 58
000030t:  Note on ::  Channel 2.  Note 84.  Velocity 0
000000t:  Note on ::  Channel 2.  Note 77.  Velocity 58
000030t:  Note on ::  Channel 2.  Note 81.  Velocity 0
000000t:  Note on ::  Channel 2.  Note 89.  Velocity 127
000030t:  Note on ::  Channel 2.  Note 77.  Velocity 0
000000t:  Note on ::  Channel 2.  Note 84.  Velocity 58
000030t:  Note on ::  Channel 2.  Note 89.  Velocity 0
000000t:  Note on ::  Channel 2.  Note 81.  Velocity 58
000030t:  Note on ::  Channel 2.  Note 84.  Velocity 0
000000t:  Note on ::  Channel 2.  Note 77.  Velocity 58
000030t:  Note on ::  Channel 2.  Note 77.  Velocity 0
000000t:  Note on ::  Channel 2.  Note 81.  Velocity 0
000000t:  Note on ::  Channel 2.  Note 89.  Velocity 127
000030t:  Note on ::  Channel 2.  Note 82.  Velocity 58
000030t:  Note on ::  Channel 2.  Note 89.  Velocity 0
000000t:  Note on ::  Channel 2.  Note 79.  Velocity 58
000030t:  Note on ::  Channel 2.  Note 82.  Velocity 0
000000t:  Note on ::  Channel 2.  Note 76.  Velocity 58
000030t:  Note on ::  Channel 2.  Note 79.  Velocity 0
000000t:  Note on ::  Channel 2.  Note 88.  Velocity 127
000030t:  Note on ::  Channel 2.  Note 76.  Velocity 0
000000t:  Note on ::  Channel 2.  Note 82.  Velocity 58
000030t:  Note on ::  Channel 2.  Note 88.  Velocity 0
000000t:  Note on ::  Channel 2.  Note 79.  Velocity 58
000030t:  Note on ::  Channel 2.  Note 82.  Velocity 0
000000t:  Note on ::  Channel 2.  Note 76.  Velocity 58
000030t:  Note on ::  Channel 2.  Note 79.  Velocity 0
000000t:  Note on ::  Channel 2.  Note 87.  Velocity 127
000030t:  Note on ::  Channel 2.  Note 76.  Velocity 0
000000t:  Note on ::  Channel 2.  Note 82.  Velocity 58
000030t:  Note on ::  Channel 2.  Note 87.  Velocity 0
000000t:  Note on ::  Channel 2.  Note 79.  Velocity 58
000030t:  Note on ::  Channel 2.  Note 82.  Velocity 0
000000t:  Note on ::  Channel 2.  Note 76.  Velocity 58
000030t:  Note on ::  Channel 2.  Note 79.  Velocity 0
000000t:  Note on ::  Channel 2.  Note 88.  Velocity 127
000030t:  Note on ::  Channel 2.  Note 76.  Velocity 0
000000t:  Note on ::  Channel 2.  Note 82.  Velocity 58
000030t:  Note on ::  Channel 2.  Note 88.  Velocity 0
000000t:  Note on ::  Channel 2.  Note 79.  Velocity 58
000030t:  Note on ::  Channel 2.  Note 82.  Velocity 0
000000t:  Note on ::  Channel 2.  Note 76.  Velocity 58
000030t:  Note on ::  Channel 2.  Note 76.  Velocity 0
000000t:  Note on ::  Channel 2.  Note 79.  Velocity 0
000000t:  Note on ::  Channel 2.  Note 88.  Velocity 127
000030t:  Note on ::  Channel 2.  Note 81.  Velocity 58
000030t:  Note on ::  Channel 2.  Note 88.  Velocity 0
000000t:  Note on ::  Channel 2.  Note 77.  Velocity 58
000030t:  Note on ::  Channel 2.  Note 81.  Velocity 0
000000t:  Note on ::  Channel 2.  Note 74.  Velocity 58
000030t:  Note on ::  Channel 2.  Note 77.  Velocity 0
000000t:  Note on ::  Channel 2.  Note 86.  Velocity 127
000030t:  Note on ::  Channel 2.  Note 74.  Velocity 0
000000t:  Note on ::  Channel 2.  Note 81.  Velocity 58
000030t:  Note on ::  Channel 2.  Note 86.  Velocity 0
000000t:  Note on ::  Channel 2.  Note 77.  Velocity 58
000030t:  Note on ::  Channel 2.  Note 81.  Velocity 0
000000t:  Note on ::  Channel 2.  Note 74.  Velocity 58
000030t:  Note on ::  Channel 2.  Note 77.  Velocity 0
000000t:  Note on ::  Channel 2.  Note 85.  Velocity 127
000030t:  Note on ::  Channel 2.  Note 74.  Velocity 0
000000t:  Note on ::  Channel 2.  Note 81.  Velocity 58
000030t:  Note on ::  Channel 2.  Note 85.  Velocity 0
000000t:  Note on ::  Channel 2.  Note 77.  Velocity 58
000030t:  Note on ::  Channel 2.  Note 81.  Velocity 0
000000t:  Note on ::  Channel 2.  Note 74.  Velocity 58
000030t:  Note on ::  Channel 2.  Note 77.  Velocity 0
000000t:  Note on ::  Channel 2.  Note 86.  Velocity 127
000030t:  Note on ::  Channel 2.  Note 74.  Velocity 0
000000t:  Note on ::  Channel 2.  Note 81.  Velocity 58
000030t:  Note on ::  Channel 2.  Note 86.  Velocity 0
000000t:  Note on ::  Channel 2.  Note 77.  Velocity 58
000030t:  Note on ::  Channel 2.  Note 81.  Velocity 0
000000t:  Note on ::  Channel 2.  Note 74.  Velocity 58
000030t:  Note on ::  Channel 2.  Note 74.  Velocity 0
000000t:  Note on ::  Channel 2.  Note 77.  Velocity 0
000000t:  Note on ::  Channel 2.  Note 93.  Velocity 127
000030t:  Note on ::  Channel 2.  Note 86.  Velocity 58
000030t:  Note on ::  Channel 2.  Note 93.  Velocity 0
000000t:  Note on ::  Channel 2.  Note 82.  Velocity 58
000030t:  Note on ::  Channel 2.  Note 86.  Velocity 0
000000t:  Note on ::  Channel 2.  Note 79.  Velocity 58
000030t:  Note on ::  Channel 2.  Note 82.  Velocity 0
000000t:  Note on ::  Channel 2.  Note 91.  Velocity 127
000030t:  Note on ::  Channel 2.  Note 79.  Velocity 0
000000t:  Note on ::  Channel 2.  Note 86.  Velocity 58
000030t:  Note on ::  Channel 2.  Note 91.  Velocity 0
000000t:  Note on ::  Channel 2.  Note 82.  Velocity 58
000030t:  Note on ::  Channel 2.  Note 86.  Velocity 0
000000t:  Note on ::  Channel 2.  Note 79.  Velocity 58
000030t:  Note on ::  Channel 2.  Note 82.  Velocity 0
000000t:  Note on ::  Channel 2.  Note 90.  Velocity 127
000030t:  Note on ::  Channel 2.  Note 79.  Velocity 0
000000t:  Note on ::  Channel 2.  Note 86.  Velocity 58
000030t:  Note on ::  Channel 2.  Note 90.  Velocity 0
000000t:  Note on ::  Channel 2.  Note 82.  Velocity 58
000030t:  Note on ::  Channel 2.  Note 86.  Velocity 0
000000t:  Note on ::  Channel 2.  Note 79.  Velocity 58
000030t:  Note on ::  Channel 2.  Note 82.  Velocity 0
000000t:  Note on ::  Channel 2.  Note 91.  Velocity 127
000030t:  Note on ::  Channel 2.  Note 79.  Velocity 0
000000t:  Note on ::  Channel 2.  Note 86.  Velocity 58
000030t:  Note on ::  Channel 2.  Note 91.  Velocity 0
000000t:  Note on ::  Channel 2.  Note 82.  Velocity 58
000030t:  Note on ::  Channel 2.  Note 86.  Velocity 0
000000t:  Note on ::  Channel 2.  Note 79.  Velocity 58
000030t:  Note on ::  Channel 2.  Note 79.  Velocity 0
000000t:  Note on ::  Channel 2.  Note 82.  Velocity 0
000000t:  Note on ::  Channel 2.  Note 94.  Velocity 127
000030t:  Note on ::  Channel 2.  Note 87.  Velocity 58
000030t:  Note on ::  Channel 2.  Note 94.  Velocity 0
000000t:  Note on ::  Channel 2.  Note 84.  Velocity 58
000030t:  Note on ::  Channel 2.  Note 87.  Velocity 0
000000t:  Note on ::  Channel 2.  Note 78.  Velocity 58
000030t:  Note on ::  Channel 2.  Note 84.  Velocity 0
000000t:  Note on ::  Channel 2.  Note 93.  Velocity 127
000030t:  Note on ::  Channel 2.  Note 78.  Velocity 0
000000t:  Note on ::  Channel 2.  Note 87.  Velocity 58
000030t:  Note on ::  Channel 2.  Note 93.  Velocity 0
000000t:  Note on ::  Channel 2.  Note 84.  Velocity 58
000030t:  Note on ::  Channel 2.  Note 87.  Velocity 0
000000t:  Note on ::  Channel 2.  Note 78.  Velocity 58
000030t:  Note on ::  Channel 2.  Note 84.  Velocity 0
000000t:  Note on ::  Channel 2.  Note 92.  Velocity 127
000030t:  Note on ::  Channel 2.  Note 78.  Velocity 0
000000t:  Note on ::  Channel 2.  Note 87.  Velocity 58
000030t:  Note on ::  Channel 2.  Note 92.  Velocity 0
000000t:  Note on ::  Channel 2.  Note 84.  Velocity 58
000030t:  Note on ::  Channel 2.  Note 87.  Velocity 0
000000t:  Note on ::  Channel 2.  Note 78.  Velocity 58
000030t:  Note on ::  Channel 2.  Note 84.  Velocity 0
000000t:  Note on ::  Channel 2.  Note 93.  Velocity 127
000030t:  Note on ::  Channel 2.  Note 78.  Velocity 0
000000t:  Note on ::  Channel 2.  Note 87.  Velocity 58
000030t:  Note on ::  Channel 2.  Note 93.  Velocity 0
000000t:  Note on ::  Channel 2.  Note 84.  Velocity 58
000030t:  Note on ::  Channel 2.  Note 87.  Velocity 0
000000t:  Note on ::  Channel 2.  Note 78.  Velocity 58
000030t:  Note on ::  Channel 2.  Note 78.  Velocity 0
000000t:  Note on ::  Channel 2.  Note 84.  Velocity 0
000000t:  Note on ::  Channel 2.  Note 96.  Velocity 127
000030t:  Note on ::  Channel 2.  Note 86.  Velocity 58
000030t:  Note on ::  Channel 2.  Note 96.  Velocity 0
000000t:  Note on ::  Channel 2.  Note 82.  Velocity 58
000030t:  Note on ::  Channel 2.  Note 86.  Velocity 0
000000t:  Note on ::  Channel 2.  Note 79.  Velocity 58
000030t:  Note on ::  Channel 2.  Note 82.  Velocity 0
000000t:  Note on ::  Channel 2.  Note 94.  Velocity 127
000030t:  Note on ::  Channel 2.  Note 79.  Velocity 0
000000t:  Note on ::  Channel 2.  Note 86.  Velocity 58
000030t:  Note on ::  Channel 2.  Note 94.  Velocity 0
000000t:  Note on ::  Channel 2.  Note 82.  Velocity 58
000030t:  Note on ::  Channel 2.  Note 86.  Velocity 0
000000t:  Note on ::  Channel 2.  Note 79.  Velocity 58
000030t:  Note on ::  Channel 2.  Note 82.  Velocity 0
000000t:  Note on ::  Channel 2.  Note 93.  Velocity 127
000030t:  Note on ::  Channel 2.  Note 79.  Velocity 0
000000t:  Note on ::  Channel 2.  Note 86.  Velocity 58
000030t:  Note on ::  Channel 2.  Note 93.  Velocity 0
000000t:  Note on ::  Channel 2.  Note 82.  Velocity 58
000030t:  Note on ::  Channel 2.  Note 86.  Velocity 0
000000t:  Note on ::  Channel 2.  Note 79.  Velocity 58
000030t:  Note on ::  Channel 2.  Note 82.  Velocity 0
000000t:  Note on ::  Channel 2.  Note 94.  Velocity 127
000030t:  Note on ::  Channel 2.  Note 79.  Velocity 0
000000t:  Note on ::  Channel 2.  Note 86.  Velocity 58
000030t:  Note on ::  Channel 2.  Note 94.  Velocity 0
000000t:  Note on ::  Channel 2.  Note 82.  Velocity 58
000030t:  Note on ::  Channel 2.  Note 86.  Velocity 0
000000t:  Note on ::  Channel 2.  Note 79.  Velocity 58
000030t:  Note on ::  Channel 2.  Note 79.  Velocity 0
000000t:  Note on ::  Channel 2.  Note 82.  Velocity 0
000000t:  Note on ::  Channel 2.  Note 93.  Velocity 127
000030t:  Note on ::  Channel 2.  Note 82.  Velocity 58
000030t:  Note on ::  Channel 2.  Note 93.  Velocity 0
000000t:  Note on ::  Channel 2.  Note 79.  Velocity 58
000030t:  Note on ::  Channel 2.  Note 82.  Velocity 0
000000t:  Note on ::  Channel 2.  Note 76.  Velocity 58
000030t:  Note on ::  Channel 2.  Note 79.  Velocity 0
000000t:  Note on ::  Channel 2.  Note 91.  Velocity 127
000030t:  Note on ::  Channel 2.  Note 76.  Velocity 0
000000t:  Note on ::  Channel 2.  Note 82.  Velocity 58
000030t:  Note on ::  Channel 2.  Note 91.  Velocity 0
000000t:  Note on ::  Channel 2.  Note 79.  Velocity 58
000030t:  Note on ::  Channel 2.  Note 82.  Velocity 0
000000t:  Note on ::  Channel 2.  Note 76.  Velocity 58
000030t:  Note on ::  Channel 2.  Note 79.  Velocity 0
000000t:  Note on ::  Channel 2.  Note 89.  Velocity 127
000030t:  Note on ::  Channel 2.  Note 76.  Velocity 0
000000t:  Note on ::  Channel 2.  Note 82.  Velocity 58
000030t:  Note on ::  Channel 2.  Note 89.  Velocity 0
000000t:  Note on ::  Channel 2.  Note 79.  Velocity 58
000030t:  Note on ::  Channel 2.  Note 82.  Velocity 0
000000t:  Note on ::  Channel 2.  Note 76.  Velocity 58
000030t:  Note on ::  Channel 2.  Note 79.  Velocity 0
000000t:  Note on ::  Channel 2.  Note 88.  Velocity 127
000030t:  Note on ::  Channel 2.  Note 76.  Velocity 0
000000t:  Note on ::  Channel 2.  Note 82.  Velocity 58
000030t:  Note on ::  Channel 2.  Note 88.  Velocity 0
000000t:  Note on ::  Channel 2.  Note 79.  Velocity 58
000030t:  Note on ::  Channel 2.  Note 82.  Velocity 0
000000t:  Note on ::  Channel 2.  Note 76.  Velocity 58
000030t:  Note on ::  Channel 2.  Note 76.  Velocity 0
000000t:  Note on ::  Channel 2.  Note 79.  Velocity 0
000000t:  Note on ::  Channel 2.  Note 93.  Velocity 127
000030t:  Note on ::  Channel 2.  Note 86.  Velocity 58
000030t:  Note on ::  Channel 2.  Note 93.  Velocity 0
000000t:  Note on ::  Channel 2.  Note 82.  Velocity 58
000030t:  Note on ::  Channel 2.  Note 86.  Velocity 0
000000t:  Note on ::  Channel 2.  Note 79.  Velocity 58
000030t:  Note on ::  Channel 2.  Note 82.  Velocity 0
000000t:  Note on ::  Channel 2.  Note 91.  Velocity 127
000030t:  Note on ::  Channel 2.  Note 79.  Velocity 0
000000t:  Note on ::  Channel 2.  Note 86.  Velocity 58
000030t:  Note on ::  Channel 2.  Note 91.  Velocity 0
000000t:  Note on ::  Channel 2.  Note 82.  Velocity 58
000030t:  Note on ::  Channel 2.  Note 86.  Velocity 0
000000t:  Note on ::  Channel 2.  Note 79.  Velocity 58
000030t:  Note on ::  Channel 2.  Note 82.  Velocity 0
000000t:  Note on ::  Channel 2.  Note 90.  Velocity 127
000030t:  Note on ::  Channel 2.  Note 79.  Velocity 0
000000t:  Note on ::  Channel 2.  Note 86.  Velocity 58
000030t:  Note on ::  Channel 2.  Note 90.  Velocity 0
000000t:  Note on ::  Channel 2.  Note 82.  Velocity 58
000030t:  Note on ::  Channel 2.  Note 86.  Velocity 0
000000t:  Note on ::  Channel 2.  Note 79.  Velocity 58
000030t:  Note on ::  Channel 2.  Note 82.  Velocity 0
000000t:  Note on ::  Channel 2.  Note 91.  Velocity 127
000030t:  Note on ::  Channel 2.  Note 79.  Velocity 0
000000t:  Note on ::  Channel 2.  Note 86.  Velocity 58
000030t:  Note on ::  Channel 2.  Note 91.  Velocity 0
000000t:  Note on ::  Channel 2.  Note 82.  Velocity 58
000030t:  Note on ::  Channel 2.  Note 86.  Velocity 0
000000t:  Note on ::  Channel 2.  Note 79.  Velocity 58
000030t:  Note on ::  Channel 2.  Note 79.  Velocity 0
000000t:  Note on ::  Channel 2.  Note 82.  Velocity 0
000000t:  Note on ::  Channel 2.  Note 91.  Velocity 127
000030t:  Note on ::  Channel 2.  Note 84.  Velocity 58
000030t:  Note on ::  Channel 2.  Note 91.  Velocity 0
000000t:  Note on ::  Channel 2.  Note 81.  Velocity 58
000030t:  Note on ::  Channel 2.  Note 84.  Velocity 0
000000t:  Note on ::  Channel 2.  Note 77.  Velocity 58
000030t:  Note on ::  Channel 2.  Note 81.  Velocity 0
000000t:  Note on ::  Channel 2.  Note 89.  Velocity 127
000030t:  Note on ::  Channel 2.  Note 77.  Velocity 0
000000t:  Note on ::  Channel 2.  Note 84.  Velocity 58
000030t:  Note on ::  Channel 2.  Note 89.  Velocity 0
000000t:  Note on ::  Channel 2.  Note 81.  Velocity 58
000030t:  Note on ::  Channel 2.  Note 84.  Velocity 0
000000t:  Note on ::  Channel 2.  Note 77.  Velocity 58
000030t:  Note on ::  Channel 2.  Note 81.  Velocity 0
000000t:  Note on ::  Channel 2.  Note 88.  Velocity 127
000030t:  Note on ::  Channel 2.  Note 77.  Velocity 0
000000t:  Note on ::  Channel 2.  Note 84.  Velocity 58
000030t:  Note on ::  Channel 2.  Note 88.  Velocity 0
000000t:  Note on ::  Channel 2.  Note 81.  Velocity 58
000030t:  Note on ::  Channel 2.  Note 84.  Velocity 0
000000t:  Note on ::  Channel 2.  Note 77.  Velocity 58
000030t:  Note on ::  Channel 2.  Note 81.  Velocity 0
000000t:  Note on ::  Channel 2.  Note 89.  Velocity 127
000030t:  Note on ::  Channel 2.  Note 77.  Velocity 0
000000t:  Note on ::  Channel 2.  Note 84.  Velocity 58
000030t:  Note on ::  Channel 2.  Note 89.  Velocity 0
000000t:  Note on ::  Channel 2.  Note 81.  Velocity 58
000030t:  Note on ::  Channel 2.  Note 84.  Velocity 0
000000t:  Note on ::  Channel 2.  Note 77.  Velocity 58
000030t:  Note on ::  Channel 2.  Note 77.  Velocity 0
000000t:  Note on ::  Channel 2.  Note 81.  Velocity 0
000000t:  Note on ::  Channel 2.  Note 89.  Velocity 127
000030t:  Note on ::  Channel 2.  Note 82.  Velocity 58
000030t:  Note on ::  Channel 2.  Note 89.  Velocity 0
000000t:  Note on ::  Channel 2.  Note 79.  Velocity 58
000030t:  Note on ::  Channel 2.  Note 82.  Velocity 0
000000t:  Note on ::  Channel 2.  Note 76.  Velocity 58
000030t:  Note on ::  Channel 2.  Note 79.  Velocity 0
000000t:  Note on ::  Channel 2.  Note 88.  Velocity 127
000030t:  Note on ::  Channel 2.  Note 76.  Velocity 0
000000t:  Note on ::  Channel 2.  Note 82.  Velocity 58
000030t:  Note on ::  Channel 2.  Note 88.  Velocity 0
000000t:  Note on ::  Channel 2.  Note 79.  Velocity 58
000030t:  Note on ::  Channel 2.  Note 82.  Velocity 0
000000t:  Note on ::  Channel 2.  Note 76.  Velocity 58
000030t:  Note on ::  Channel 2.  Note 79.  Velocity 0
000000t:  Note on ::  Channel 2.  Note 87.  Velocity 127
000030t:  Note on ::  Channel 2.  Note 76.  Velocity 0
000000t:  Note on ::  Channel 2.  Note 82.  Velocity 58
000030t:  Note on ::  Channel 2.  Note 87.  Velocity 0
000000t:  Note on ::  Channel 2.  Note 79.  Velocity 58
000030t:  Note on ::  Channel 2.  Note 82.  Velocity 0
000000t:  Note on ::  Channel 2.  Note 76.  Velocity 58
000030t:  Note on ::  Channel 2.  Note 79.  Velocity 0
000000t:  Note on ::  Channel 2.  Note 88.  Velocity 127
000030t:  Note on ::  Channel 2.  Note 76.  Velocity 0
000000t:  Note on ::  Channel 2.  Note 82.  Velocity 58
000030t:  Note on ::  Channel 2.  Note 88.  Velocity 0
000000t:  Note on ::  Channel 2.  Note 79.  Velocity 58
000030t:  Note on ::  Channel 2.  Note 82.  Velocity 0
000000t:  Note on ::  Channel 2.  Note 76.  Velocity 58
000030t:  Note on ::  Channel 2.  Note 76.  Velocity 0
000000t:  Note on ::  Channel 2.  Note 79.  Velocity 0
000000t:  Note on ::  Channel 2.  Note 88.  Velocity 127
000030t:  Note on ::  Channel 2.  Note 81.  Velocity 58
000030t:  Note on ::  Channel 2.  Note 88.  Velocity 0
000000t:  Note on ::  Channel 2.  Note 77.  Velocity 58
000030t:  Note on ::  Channel 2.  Note 81.  Velocity 0
000000t:  Note on ::  Channel 2.  Note 74.  Velocity 58
000030t:  Note on ::  Channel 2.  Note 77.  Velocity 0
000000t:  Note on ::  Channel 2.  Note 86.  Velocity 127
000030t:  Note on ::  Channel 2.  Note 74.  Velocity 0
000000t:  Note on ::  Channel 2.  Note 81.  Velocity 58
000030t:  Note on ::  Channel 2.  Note 86.  Velocity 0
000000t:  Note on ::  Channel 2.  Note 77.  Velocity 58
000030t:  Note on ::  Channel 2.  Note 81.  Velocity 0
000000t:  Note on ::  Channel 2.  Note 74.  Velocity 58
000030t:  Note on ::  Channel 2.  Note 77.  Velocity 0
000000t:  Note on ::  Channel 2.  Note 85.  Velocity 127
000030t:  Note on ::  Channel 2.  Note 74.  Velocity 0
000000t:  Note on ::  Channel 2.  Note 81.  Velocity 58
000030t:  Note on ::  Channel 2.  Note 85.  Velocity 0
000000t:  Note on ::  Channel 2.  Note 77.  Velocity 58
000030t:  Note on ::  Channel 2.  Note 81.  Velocity 0
000000t:  Note on ::  Channel 2.  Note 74.  Velocity 58
000030t:  Note on ::  Channel 2.  Note 77.  Velocity 0
000000t:  Note on ::  Channel 2.  Note 86.  Velocity 127
000030t:  Note on ::  Channel 2.  Note 74.  Velocity 0
000000t:  Note on ::  Channel 2.  Note 81.  Velocity 58
000030t:  Note on ::  Channel 2.  Note 86.  Velocity 0
000000t:  Note on ::  Channel 2.  Note 77.  Velocity 58
000030t:  Note on ::  Channel 2.  Note 81.  Velocity 0
000000t:  Note on ::  Channel 2.  Note 74.  Velocity 58
000030t:  Note on ::  Channel 2.  Note 74.  Velocity 0
000000t:  Note on ::  Channel 2.  Note 77.  Velocity 0
000000t:  Note on ::  Channel 2.  Note 93.  Velocity 127
000030t:  Note on ::  Channel 2.  Note 86.  Velocity 58
000030t:  Note on ::  Channel 2.  Note 93.  Velocity 0
000000t:  Note on ::  Channel 2.  Note 82.  Velocity 58
000030t:  Note on ::  Channel 2.  Note 86.  Velocity 0
000000t:  Note on ::  Channel 2.  Note 79.  Velocity 58
000030t:  Note on ::  Channel 2.  Note 82.  Velocity 0
000000t:  Note on ::  Channel 2.  Note 91.  Velocity 127
000030t:  Note on ::  Channel 2.  Note 79.  Velocity 0
000000t:  Note on ::  Channel 2.  Note 86.  Velocity 58
000030t:  Note on ::  Channel 2.  Note 91.  Velocity 0
000000t:  Note on ::  Channel 2.  Note 82.  Velocity 58
000030t:  Note on ::  Channel 2.  Note 86.  Velocity 0
000000t:  Note on ::  Channel 2.  Note 79.  Velocity 58
000030t:  Note on ::  Channel 2.  Note 82.  Velocity 0
000000t:  Note on ::  Channel 2.  Note 90.  Velocity 127
000030t:  Note on ::  Channel 2.  Note 79.  Velocity 0
000000t:  Note on ::  Channel 2.  Note 86.  Velocity 58
000030t:  Note on ::  Channel 2.  Note 90.  Velocity 0
000000t:  Note on ::  Channel 2.  Note 82.  Velocity 58
000030t:  Note on ::  Channel 2.  Note 86.  Velocity 0
000000t:  Note on ::  Channel 2.  Note 79.  Velocity 58
000030t:  Note on ::  Channel 2.  Note 82.  Velocity 0
000000t:  Note on ::  Channel 2.  Note 91.  Velocity 127
000030t:  Note on ::  Channel 2.  Note 79.  Velocity 0
000000t:  Note on ::  Channel 2.  Note 86.  Velocity 58
000030t:  Note on ::  Channel 2.  Note 91.  Velocity 0
000000t:  Note on ::  Channel 2.  Note 82.  Velocity 58
000030t:  Note on ::  Channel 2.  Note 86.  Velocity 0
000000t:  Note on ::  Channel 2.  Note 79.  Velocity 58
000030t:  Note on ::  Channel 2.  Note 79.  Velocity 0
000000t:  Note on ::  Channel 2.  Note 82.  Velocity 0
000000t:  Note on ::  Channel 2.  Note 94.  Velocity 127
000030t:  Note on ::  Channel 2.  Note 87.  Velocity 58
000030t:  Note on ::  Channel 2.  Note 94.  Velocity 0
000000t:  Note on ::  Channel 2.  Note 84.  Velocity 58
000030t:  Note on ::  Channel 2.  Note 87.  Velocity 0
000000t:  Note on ::  Channel 2.  Note 78.  Velocity 58
000030t:  Note on ::  Channel 2.  Note 84.  Velocity 0
000000t:  Note on ::  Channel 2.  Note 93.  Velocity 127
000030t:  Note on ::  Channel 2.  Note 78.  Velocity 0
000000t:  Note on ::  Channel 2.  Note 87.  Velocity 58
000030t:  Note on ::  Channel 2.  Note 93.  Velocity 0
000000t:  Note on ::  Channel 2.  Note 84.  Velocity 58
000030t:  Note on ::  Channel 2.  Note 87.  Velocity 0
000000t:  Note on ::  Channel 2.  Note 78.  Velocity 58
000030t:  Note on ::  Channel 2.  Note 84.  Velocity 0
000000t:  Note on ::  Channel 2.  Note 92.  Velocity 127
000030t:  Note on ::  Channel 2.  Note 78.  Velocity 0
000000t:  Note on ::  Channel 2.  Note 87.  Velocity 58
000030t:  Note on ::  Channel 2.  Note 92.  Velocity 0
000000t:  Note on ::  Channel 2.  Note 84.  Velocity 58
000030t:  Note on ::  Channel 2.  Note 87.  Velocity 0
000000t:  Note on ::  Channel 2.  Note 78.  Velocity 58
000030t:  Note on ::  Channel 2.  Note 84.  Velocity 0
000000t:  Note on ::  Channel 2.  Note 93.  Velocity 127
000030t:  Note on ::  Channel 2.  Note 78.  Velocity 0
000000t:  Note on ::  Channel 2.  Note 87.  Velocity 58
000030t:  Note on ::  Channel 2.  Note 93.  Velocity 0
000000t:  Note on ::  Channel 2.  Note 84.  Velocity 58
000030t:  Note on ::  Channel 2.  Note 87.  Velocity 0
000000t:  Note on ::  Channel 2.  Note 78.  Velocity 58
000030t:  Note on ::  Channel 2.  Note 78.  Velocity 0
000000t:  Note on ::  Channel 2.  Note 84.  Velocity 0
000000t:  Note on ::  Channel 2.  Note 96.  Velocity 127
000030t:  Note on ::  Channel 2.  Note 86.  Velocity 58
000030t:  Note on ::  Channel 2.  Note 96.  Velocity 0
000000t:  Note on ::  Channel 2.  Note 82.  Velocity 58
000030t:  Note on ::  Channel 2.  Note 86.  Velocity 0
000000t:  Note on ::  Channel 2.  Note 79.  Velocity 58
000030t:  Note on ::  Channel 2.  Note 82.  Velocity 0
000000t:  Note on ::  Channel 2.  Note 94.  Velocity 127
000030t:  Note on ::  Channel 2.  Note 79.  Velocity 0
000000t:  Note on ::  Channel 2.  Note 86.  Velocity 58
000030t:  Note on ::  Channel 2.  Note 94.  Velocity 0
000000t:  Note on ::  Channel 2.  Note 82.  Velocity 58
000030t:  Note on ::  Channel 2.  Note 86.  Velocity 0
000000t:  Note on ::  Channel 2.  Note 79.  Velocity 58
000030t:  Note on ::  Channel 2.  Note 82.  Velocity 0
000000t:  Note on ::  Channel 2.  Note 93.  Velocity 127
000030t:  Note on ::  Channel 2.  Note 79.  Velocity 0
000000t:  Note on ::  Channel 2.  Note 86.  Velocity 58
000030t:  Note on ::  Channel 2.  Note 93.  Velocity 0
000000t:  Note on ::  Channel 2.  Note 82.  Velocity 58
000030t:  Note on ::  Channel 2.  Note 86.  Velocity 0
000000t:  Note on ::  Channel 2.  Note 79.  Velocity 58
000030t:  Note on ::  Channel 2.  Note 82.  Velocity 0
000000t:  Note on ::  Channel 2.  Note 94.  Velocity 127
000030t:  Note on ::  Channel 2.  Note 79.  Velocity 0
000000t:  Note on ::  Channel 2.  Note 86.  Velocity 58
000030t:  Note on ::  Channel 2.  Note 94.  Velocity 0
000000t:  Note on ::  Channel 2.  Note 82.  Velocity 58
000030t:  Note on ::  Channel 2.  Note 86.  Velocity 0
000000t:  Note on ::  Channel 2.  Note 79.  Velocity 58
000030t:  Note on ::  Channel 2.  Note 79.  Velocity 0
000000t:  Note on ::  Channel 2.  Note 82.  Velocity 0
000000t:  Note on ::  Channel 2.  Note 93.  Velocity 127
000030t:  Note on ::  Channel 2.  Note 82.  Velocity 58
000030t:  Note on ::  Channel 2.  Note 93.  Velocity 0
000000t:  Note on ::  Channel 2.  Note 79.  Velocity 58
000030t:  Note on ::  Channel 2.  Note 82.  Velocity 0
000000t:  Note on ::  Channel 2.  Note 76.  Velocity 58
000030t:  Note on ::  Channel 2.  Note 79.  Velocity 0
000000t:  Note on ::  Channel 2.  Note 91.  Velocity 127
000030t:  Note on ::  Channel 2.  Note 76.  Velocity 0
000000t:  Note on ::  Channel 2.  Note 82.  Velocity 58
000030t:  Note on ::  Channel 2.  Note 91.  Velocity 0
000000t:  Note on ::  Channel 2.  Note 79.  Velocity 58
000030t:  Note on ::  Channel 2.  Note 82.  Velocity 0
000000t:  Note on ::  Channel 2.  Note 76.  Velocity 58
000030t:  Note on ::  Channel 2.  Note 79.  Velocity 0
000000t:  Note on ::  Channel 2.  Note 89.  Velocity 127
000030t:  Note on ::  Channel 2.  Note 76.  Velocity 0
000000t:  Note on ::  Channel 2.  Note 82.  Velocity 58
000030t:  Note on ::  Channel 2.  Note 89.  Velocity 0
000000t:  Note on ::  Channel 2.  Note 79.  Velocity 58
000030t:  Note on ::  Channel 2.  Note 82.  Velocity 0
000000t:  Note on ::  Channel 2.  Note 76.  Velocity 58
000030t:  Note on ::  Channel 2.  Note 79.  Velocity 0
000000t:  Note on ::  Channel 2.  Note 88.  Velocity 127
000030t:  Note on ::  Channel 2.  Note 76.  Velocity 0
000000t:  Note on ::  Channel 2.  Note 82.  Velocity 58
000030t:  Note on ::  Channel 2.  Note 88.  Velocity 0
000000t:  Note on ::  Channel 2.  Note 79.  Velocity 58
000030t:  Note on ::  Channel 2.  Note 82.  Velocity 0
000000t:  Note on ::  Channel 2.  Note 76.  Velocity 58
000030t:  Note on ::  Channel 2.  Note 76.  Velocity 0
000000t:  Note on ::  Channel 2.  Note 79.  Velocity 0
000000t:  Note on ::  Channel 2.  Note 93.  Velocity 127
000030t:  Note on ::  Channel 2.  Note 86.  Velocity 58
000030t:  Note on ::  Channel 2.  Note 93.  Velocity 0
000000t:  Note on ::  Channel 2.  Note 82.  Velocity 58
000030t:  Note on ::  Channel 2.  Note 86.  Velocity 0
000000t:  Note on ::  Channel 2.  Note 79.  Velocity 58
000030t:  Note on ::  Channel 2.  Note 82.  Velocity 0
000000t:  Note on ::  Channel 2.  Note 91.  Velocity 127
000030t:  Note on ::  Channel 2.  Note 79.  Velocity 0
000000t:  Note on ::  Channel 2.  Note 86.  Velocity 58
000030t:  Note on ::  Channel 2.  Note 91.  Velocity 0
000000t:  Note on ::  Channel 2.  Note 82.  Velocity 58
000030t:  Note on ::  Channel 2.  Note 86.  Velocity 0
000000t:  Note on ::  Channel 2.  Note 79.  Velocity 58
000030t:  Note on ::  Channel 2.  Note 82.  Velocity 0
000000t:  Note on ::  Channel 2.  Note 90.  Velocity 127
000030t:  Note on ::  Channel 2.  Note 79.  Velocity 0
000000t:  Note on ::  Channel 2.  Note 86.  Velocity 58
000030t:  Note on ::  Channel 2.  Note 90.  Velocity 0
000000t:  Note on ::  Channel 2.  Note 82.  Velocity 58
000030t:  Note on ::  Channel 2.  Note 86.  Velocity 0
000000t:  Note on ::  Channel 2.  Note 79.  Velocity 58
000030t:  Note on ::  Channel 2.  Note 82.  Velocity 0
000000t:  Note on ::  Channel 2.  Note 91.  Velocity 127
000030t:  Note on ::  Channel 2.  Note 79.  Velocity 0
000000t:  Note on ::  Channel 2.  Note 86.  Velocity 58
000030t:  Note on ::  Channel 2.  Note 91.  Velocity 0
000000t:  Note on ::  Channel 2.  Note 82.  Velocity 58
000030t:  Note on ::  Channel 2.  Note 86.  Velocity 0
000000t:  Note on ::  Channel 2.  Note 79.  Velocity 58
000030t:  Note on ::  Channel 2.  Note 79.  Velocity 0
000000t:  Note on ::  Channel 2.  Note 82.  Velocity 0
000000t:  Note on ::  Channel 2.  Note 91.  Velocity 127
000030t:  Note on ::  Channel 2.  Note 84.  Velocity 58
000030t:  Note on ::  Channel 2.  Note 91.  Velocity 0
000000t:  Note on ::  Channel 2.  Note 81.  Velocity 58
000030t:  Note on ::  Channel 2.  Note 84.  Velocity 0
000000t:  Note on ::  Channel 2.  Note 77.  Velocity 58
000030t:  Note on ::  Channel 2.  Note 81.  Velocity 0
000000t:  Note on ::  Channel 2.  Note 89.  Velocity 127
000030t:  Note on ::  Channel 2.  Note 77.  Velocity 0
000000t:  Note on ::  Channel 2.  Note 84.  Velocity 58
000030t:  Note on ::  Channel 2.  Note 89.  Velocity 0
000000t:  Note on ::  Channel 2.  Note 81.  Velocity 58
000030t:  Note on ::  Channel 2.  Note 84.  Velocity 0
000000t:  Note on ::  Channel 2.  Note 77.  Velocity 58
000030t:  Note on ::  Channel 2.  Note 81.  Velocity 0
000000t:  Note on ::  Channel 2.  Note 88.  Velocity 127
000030t:  Note on ::  Channel 2.  Note 77.  Velocity 0
000000t:  Note on ::  Channel 2.  Note 84.  Velocity 58
000030t:  Note on ::  Channel 2.  Note 88.  Velocity 0
000000t:  Note on ::  Channel 2.  Note 81.  Velocity 58
000030t:  Note on ::  Channel 2.  Note 84.  Velocity 0
000000t:  Note on ::  Channel 2.  Note 77.  Velocity 58
000030t:  Note on ::  Channel 2.  Note 81.  Velocity 0
000000t:  Note on ::  Channel 2.  Note 89.  Velocity 127
000030t:  Note on ::  Channel 2.  Note 77.  Velocity 0
000000t:  Note on ::  Channel 2.  Note 84.  Velocity 58
000030t:  Note on ::  Channel 2.  Note 89.  Velocity 0
000000t:  Note on ::  Channel 2.  Note 81.  Velocity 58
000030t:  Note on ::  Channel 2.  Note 84.  Velocity 0
000000t:  Note on ::  Channel 2.  Note 77.  Velocity 58
000030t:  Note on ::  Channel 2.  Note 77.  Velocity 0
000000t:  Note on ::  Channel 2.  Note 81.  Velocity 0
000000t:  Note on ::  Channel 2.  Note 89.  Velocity 127
000030t:  Note on ::  Channel 2.  Note 82.  Velocity 58
000030t:  Note on ::  Channel 2.  Note 89.  Velocity 0
000000t:  Note on ::  Channel 2.  Note 79.  Velocity 58
000030t:  Note on ::  Channel 2.  Note 82.  Velocity 0
000000t:  Note on ::  Channel 2.  Note 76.  Velocity 58
000030t:  Note on ::  Channel 2.  Note 79.  Velocity 0
000000t:  Note on ::  Channel 2.  Note 88.  Velocity 127
000030t:  Note on ::  Channel 2.  Note 76.  Velocity 0
000000t:  Note on ::  Channel 2.  Note 82.  Velocity 58
000030t:  Note on ::  Channel 2.  Note 88.  Velocity 0
000000t:  Note on ::  Channel 2.  Note 79.  Velocity 58
000030t:  Note on ::  Channel 2.  Note 82.  Velocity 0
000000t:  Note on ::  Channel 2.  Note 76.  Velocity 58
000030t:  Note on ::  Channel 2.  Note 79.  Velocity 0
000000t:  Note on ::  Channel 2.  Note 87.  Velocity 127
000030t:  Note on ::  Channel 2.  Note 76.  Velocity 0
000000t:  Note on ::  Channel 2.  Note 82.  Velocity 58
000030t:  Note on ::  Channel 2.  Note 87.  Velocity 0
000000t:  Note on ::  Channel 2.  Note 79.  Velocity 58
000030t:  Note on ::  Channel 2.  Note 82.  Velocity 0
000000t:  Note on ::  Channel 2.  Note 76.  Velocity 58
000030t:  Note on ::  Channel 2.  Note 79.  Velocity 0
000000t:  Note on ::  Channel 2.  Note 88.  Velocity 127
000030t:  Note on ::  Channel 2.  Note 76.  Velocity 0
000000t:  Note on ::  Channel 2.  Note 82.  Velocity 58
000030t:  Note on ::  Channel 2.  Note 88.  Velocity 0
000000t:  Note on ::  Channel 2.  Note 79.  Velocity 58
000030t:  Note on ::  Channel 2.  Note 82.  Velocity 0
000000t:  Note on ::  Channel 2.  Note 76.  Velocity 58
000030t:  Note on ::  Channel 2.  Note 76.  Velocity 0
000000t:  Note on ::  Channel 2.  Note 79.  Velocity 0
000000t:  Note on ::  Channel 2.  Note 88.  Velocity 127
000030t:  Note on ::  Channel 2.  Note 81.  Velocity 58
000030t:  Note on ::  Channel 2.  Note 88.  Velocity 0
000000t:  Note on ::  Channel 2.  Note 77.  Velocity 58
000030t:  Note on ::  Channel 2.  Note 81.  Velocity 0
000000t:  Note on ::  Channel 2.  Note 74.  Velocity 58
000030t:  Note on ::  Channel 2.  Note 77.  Velocity 0
000000t:  Note on ::  Channel 2.  Note 86.  Velocity 127
000030t:  Note on ::  Channel 2.  Note 74.  Velocity 0
000000t:  Note on ::  Channel 2.  Note 81.  Velocity 58
000030t:  Note on ::  Channel 2.  Note 86.  Velocity 0
000000t:  Note on ::  Channel 2.  Note 77.  Velocity 58
000030t:  Note on ::  Channel 2.  Note 81.  Velocity 0
000000t:  Note on ::  Channel 2.  Note 74.  Velocity 58
000030t:  Note on ::  Channel 2.  Note 77.  Velocity 0
000000t:  Note on ::  Channel 2.  Note 85.  Velocity 127
000030t:  Note on ::  Channel 2.  Note 74.  Velocity 0
000000t:  Note on ::  Channel 2.  Note 81.  Velocity 58
000030t:  Note on ::  Channel 2.  Note 85.  Velocity 0
000000t:  Note on ::  Channel 2.  Note 77.  Velocity 58
000030t:  Note on ::  Channel 2.  Note 81.  Velocity 0
000000t:  Note on ::  Channel 2.  Note 74.  Velocity 58
000030t:  Note on ::  Channel 2.  Note 77.  Velocity 0
000000t:  Note on ::  Channel 2.  Note 86.  Velocity 127
000030t:  Note on ::  Channel 2.  Note 74.  Velocity 0
000000t:  Note on ::  Channel 2.  Note 81.  Velocity 58
000030t:  Note on ::  Channel 2.  Note 86.  Velocity 0
000000t:  Note on ::  Channel 2.  Note 77.  Velocity 58
000030t:  Note on ::  Channel 2.  Note 81.  Velocity 0
000000t:  Note on ::  Channel 2.  Note 74.  Velocity 58
000030t:  Note on ::  Channel 2.  Note 74.  Velocity 0
000000t:  Note on ::  Channel 2.  Note 77.  Velocity 0
000000t:  Note on ::  Channel 2.  Note 93.  Velocity 127
000030t:  Note on ::  Channel 2.  Note 86.  Velocity 58
000030t:  Note on ::  Channel 2.  Note 93.  Velocity 0
000000t:  Note on ::  Channel 2.  Note 82.  Velocity 58
000030t:  Note on ::  Channel 2.  Note 86.  Velocity 0
000000t:  Note on ::  Channel 2.  Note 79.  Velocity 58
000030t:  Note on ::  Channel 2.  Note 82.  Velocity 0
000000t:  Note on ::  Channel 2.  Note 91.  Velocity 127
000030t:  Note on ::  Channel 2.  Note 79.  Velocity 0
000000t:  Note on ::  Channel 2.  Note 86.  Velocity 58
000030t:  Note on ::  Channel 2.  Note 91.  Velocity 0
000000t:  Note on ::  Channel 2.  Note 82.  Velocity 58
000030t:  Note on ::  Channel 2.  Note 86.  Velocity 0
000000t:  Note on ::  Channel 2.  Note 79.  Velocity 58
000030t:  Note on ::  Channel 2.  Note 82.  Velocity 0
000000t:  Note on ::  Channel 2.  Note 90.  Velocity 127
000030t:  Note on ::  Channel 2.  Note 79.  Velocity 0
000000t:  Note on ::  Channel 2.  Note 86.  Velocity 58
000030t:  Note on ::  Channel 2.  Note 90.  Velocity 0
000000t:  Note on ::  Channel 2.  Note 82.  Velocity 58
000030t:  Note on ::  Channel 2.  Note 86.  Velocity 0
000000t:  Note on ::  Channel 2.  Note 79.  Velocity 58
000030t:  Note on ::  Channel 2.  Note 82.  Velocity 0
000000t:  Note on ::  Channel 2.  Note 91.  Velocity 127
000030t:  Note on ::  Channel 2.  Note 79.  Velocity 0
000000t:  Note on ::  Channel 2.  Note 86.  Velocity 58
000030t:  Note on ::  Channel 2.  Note 91.  Velocity 0
000000t:  Note on ::  Channel 2.  Note 82.  Velocity 58
000030t:  Note on ::  Channel 2.  Note 86.  Velocity 0
000000t:  Note on ::  Channel 2.  Note 79.  Velocity 58
000030t:  Note on ::  Channel 2.  Note 79.  Velocity 0
000000t:  Note on ::  Channel 2.  Note 82.  Velocity 0
000000t:  Note on ::  Channel 2.  Note 94.  Velocity 127
000030t:  Note on ::  Channel 2.  Note 87.  Velocity 58
000030t:  Note on ::  Channel 2.  Note 94.  Velocity 0
000000t:  Note on ::  Channel 2.  Note 84.  Velocity 58
000030t:  Note on ::  Channel 2.  Note 87.  Velocity 0
000000t:  Note on ::  Channel 2.  Note 78.  Velocity 58
000030t:  Note on ::  Channel 2.  Note 84.  Velocity 0
000000t:  Note on ::  Channel 2.  Note 93.  Velocity 127
000030t:  Note on ::  Channel 2.  Note 78.  Velocity 0
000000t:  Note on ::  Channel 2.  Note 87.  Velocity 58
000030t:  Note on ::  Channel 2.  Note 93.  Velocity 0
000000t:  Note on ::  Channel 2.  Note 84.  Velocity 58
000030t:  Note on ::  Channel 2.  Note 87.  Velocity 0
000000t:  Note on ::  Channel 2.  Note 78.  Velocity 58
000030t:  Note on ::  Channel 2.  Note 84.  Velocity 0
000000t:  Note on ::  Channel 2.  Note 92.  Velocity 127
000030t:  Note on ::  Channel 2.  Note 78.  Velocity 0
000000t:  Note on ::  Channel 2.  Note 87.  Velocity 58
000030t:  Note on ::  Channel 2.  Note 92.  Velocity 0
000000t:  Note on ::  Channel 2.  Note 84.  Velocity 58
000030t:  Note on ::  Channel 2.  Note 87.  Velocity 0
000000t:  Note on ::  Channel 2.  Note 78.  Velocity 58
000030t:  Note on ::  Channel 2.  Note 84.  Velocity 0
000000t:  Note on ::  Channel 2.  Note 93.  Velocity 127
000030t:  Note on ::  Channel 2.  Note 78.  Velocity 0
000000t:  Note on ::  Channel 2.  Note 87.  Velocity 58
000030t:  Note on ::  Channel 2.  Note 93.  Velocity 0
000000t:  Note on ::  Channel 2.  Note 84.  Velocity 58
000030t:  Note on ::  Channel 2.  Note 87.  Velocity 0
000000t:  Note on ::  Channel 2.  Note 78.  Velocity 58
000030t:  Note on ::  Channel 2.  Note 78.  Velocity 0
000000t:  Note on ::  Channel 2.  Note 84.  Velocity 0
000000t:  Note on ::  Channel 2.  Note 96.  Velocity 127
000030t:  Note on ::  Channel 2.  Note 86.  Velocity 58
000030t:  Note on ::  Channel 2.  Note 96.  Velocity 0
000000t:  Note on ::  Channel 2.  Note 82.  Velocity 58
000030t:  Note on ::  Channel 2.  Note 86.  Velocity 0
000000t:  Note on ::  Channel 2.  Note 79.  Velocity 58
000030t:  Note on ::  Channel 2.  Note 82.  Velocity 0
000000t:  Note on ::  Channel 2.  Note 94.  Velocity 127
000030t:  Note on ::  Channel 2.  Note 79.  Velocity 0
000000t:  Note on ::  Channel 2.  Note 86.  Velocity 58
000030t:  Note on ::  Channel 2.  Note 94.  Velocity 0
000000t:  Note on ::  Channel 2.  Note 82.  Velocity 58
000030t:  Note on ::  Channel 2.  Note 86.  Velocity 0
000000t:  Note on ::  Channel 2.  Note 79.  Velocity 58
000030t:  Note on ::  Channel 2.  Note 82.  Velocity 0
000000t:  Note on ::  Channel 2.  Note 93.  Velocity 127
000030t:  Note on ::  Channel 2.  Note 79.  Velocity 0
000000t:  Note on ::  Channel 2.  Note 86.  Velocity 58
000030t:  Note on ::  Channel 2.  Note 93.  Velocity 0
000000t:  Note on ::  Channel 2.  Note 82.  Velocity 58
000030t:  Note on ::  Channel 2.  Note 86.  Velocity 0
000000t:  Note on ::  Channel 2.  Note 79.  Velocity 58
000030t:  Note on ::  Channel 2.  Note 82.  Velocity 0
000000t:  Note on ::  Channel 2.  Note 94.  Velocity 127
000030t:  Note on ::  Channel 2.  Note 79.  Velocity 0
000000t:  Note on ::  Channel 2.  Note 86.  Velocity 58
000030t:  Note on ::  Channel 2.  Note 94.  Velocity 0
000000t:  Note on ::  Channel 2.  Note 82.  Velocity 58
000030t:  Note on ::  Channel 2.  Note 86.  Velocity 0
000000t:  Note on ::  Channel 2.  Note 79.  Velocity 58
000030t:  Note on ::  Channel 2.  Note 79.  Velocity 0
000000t:  Note on ::  Channel 2.  Note 82.  Velocity 0
000000t:  Note on ::  Channel 2.  Note 93.  Velocity 127
000030t:  Note on ::  Channel 2.  Note 82.  Velocity 58
000030t:  Note on ::  Channel 2.  Note 93.  Velocity 0
000000t:  Note on ::  Channel 2.  Note 79.  Velocity 58
000030t:  Note on ::  Channel 2.  Note 82.  Velocity 0
000000t:  Note on ::  Channel 2.  Note 76.  Velocity 58
000030t:  Note on ::  Channel 2.  Note 79.  Velocity 0
000000t:  Note on ::  Channel 2.  Note 91.  Velocity 127
000030t:  Note on ::  Channel 2.  Note 76.  Velocity 0
000000t:  Note on ::  Channel 2.  Note 82.  Velocity 58
000030t:  Note on ::  Channel 2.  Note 91.  Velocity 0
000000t:  Note on ::  Channel 2.  Note 79.  Velocity 58
000030t:  Note on ::  Channel 2.  Note 82.  Velocity 0
000000t:  Note on ::  Channel 2.  Note 76.  Velocity 58
000030t:  Note on ::  Channel 2.  Note 79.  Velocity 0
000000t:  Note on ::  Channel 2.  Note 89.  Velocity 127
000030t:  Note on ::  Channel 2.  Note 76.  Velocity 0
000000t:  Note on ::  Channel 2.  Note 82.  Velocity 58
000030t:  Note on ::  Channel 2.  Note 89.  Velocity 0
000000t:  Note on ::  Channel 2.  Note 79.  Velocity 58
000030t:  Note on ::  Channel 2.  Note 82.  Velocity 0
000000t:  Note on ::  Channel 2.  Note 76.  Velocity 58
000030t:  Note on ::  Channel 2.  Note 79.  Velocity 0
000000t:  Note on ::  Channel 2.  Note 88.  Velocity 127
000030t:  Note on ::  Channel 2.  Note 76.  Velocity 0
000000t:  Note on ::  Channel 2.  Note 82.  Velocity 58
000030t:  Note on ::  Channel 2.  Note 88.  Velocity 0
000000t:  Note on ::  Channel 2.  Note 79.  Velocity 58
000030t:  Note on ::  Channel 2.  Note 82.  Velocity 0
000000t:  Note on ::  Channel 2.  Note 76.  Velocity 58
000030t:  Note on ::  Channel 2.  Note 76.  Velocity 0
000000t:  Note on ::  Channel 2.  Note 79.  Velocity 0
000000t:  Note on ::  Channel 2.  Note 93.  Velocity 127
000006t:  Control change ::  Channel 2.  Controller 7.  Value: 126
000024t:  Note on ::  Channel 2.  Note 86.  Velocity 58
000010t:  Control change ::  Channel 2.  Controller 7.  Value: 125
000020t:  Note on ::  Channel 2.  Note 93.  Velocity 0
000000t:  Note on ::  Channel 2.  Note 82.  Velocity 58
000013t:  Control change ::  Channel 2.  Controller 7.  Value: 124
000017t:  Note on ::  Channel 2.  Note 86.  Velocity 0
000000t:  Note on ::  Channel 2.  Note 79.  Velocity 58
000010t:  Control change ::  Channel 2.  Controller 7.  Value: 123
000020t:  Note on ::  Channel 2.  Note 82.  Velocity 0
000000t:  Note on ::  Channel 2.  Note 91.  Velocity 127
000013t:  Control change ::  Channel 2.  Controller 7.  Value: 122
000017t:  Note on ::  Channel 2.  Note 79.  Velocity 0
000000t:  Note on ::  Channel 2.  Note 86.  Velocity 58
000010t:  Control change ::  Channel 2.  Controller 7.  Value: 121
000020t:  Note on ::  Channel 2.  Note 91.  Velocity 0
000000t:  Note on ::  Channel 2.  Note 82.  Velocity 58
000013t:  Control change ::  Channel 2.  Controller 7.  Value: 120
000017t:  Note on ::  Channel 2.  Note 86.  Velocity 0
000000t:  Note on ::  Channel 2.  Note 79.  Velocity 58
000010t:  Control change ::  Channel 2.  Controller 7.  Value: 119
000020t:  Note on ::  Channel 2.  Note 82.  Velocity 0
000000t:  Note on ::  Channel 2.  Note 90.  Velocity 127
000013t:  Control change ::  Channel 2.  Controller 7.  Value: 118
000017t:  Note on ::  Channel 2.  Note 79.  Velocity 0
000000t:  Note on ::  Channel 2.  Note 86.  Velocity 58
000016t:  Control change ::  Channel 2.  Controller 7.  Value: 117
000014t:  Note on ::  Channel 2.  Note 90.  Velocity 0
000000t:  Note on ::  Channel 2.  Note 82.  Velocity 58
000013t:  Control change ::  Channel 2.  Controller 7.  Value: 116
000017t:  Note on ::  Channel 2.  Note 86.  Velocity 0
000000t:  Note on ::  Channel 2.  Note 79.  Velocity 58
000016t:  Control change ::  Channel 2.  Controller 7.  Value: 115
000014t:  Note on ::  Channel 2.  Note 82.  Velocity 0
000000t:  Note on ::  Channel 2.  Note 91.  Velocity 127
000013t:  Control change ::  Channel 2.  Controller 7.  Value: 114
000017t:  Note on ::  Channel 2.  Note 79.  Velocity 0
000000t:  Note on ::  Channel 2.  Note 86.  Velocity 58
000016t:  Control change ::  Channel 2.  Controller 7.  Value: 113
000014t:  Note on ::  Channel 2.  Note 91.  Velocity 0
000000t:  Note on ::  Channel 2.  Note 82.  Velocity 58
000013t:  Control change ::  Channel 2.  Controller 7.  Value: 112
000017t:  Note on ::  Channel 2.  Note 86.  Velocity 0
000000t:  Note on ::  Channel 2.  Note 79.  Velocity 58
000016t:  Control change ::  Channel 2.  Controller 7.  Value: 111
000014t:  Note on ::  Channel 2.  Note 79.  Velocity 0
000000t:  Note on ::  Channel 2.  Note 82.  Velocity 0
000000t:  Note on ::  Channel 2.  Note 91.  Velocity 127
000020t:  Control change ::  Channel 2.  Controller 7.  Value: 110
000010t:  Note on ::  Channel 2.  Note 84.  Velocity 58
000016t:  Control change ::  Channel 2.  Controller 7.  Value: 109
000014t:  Note on ::  Channel 2.  Note 91.  Velocity 0
000000t:  Note on ::  Channel 2.  Note 81.  Velocity 58
000020t:  Control change ::  Channel 2.  Controller 7.  Value: 108
000010t:  Note on ::  Channel 2.  Note 84.  Velocity 0
000000t:  Note on ::  Channel 2.  Note 77.  Velocity 58
000016t:  Control change ::  Channel 2.  Controller 7.  Value: 107
000014t:  Note on ::  Channel 2.  Note 81.  Velocity 0
000000t:  Note on ::  Channel 2.  Note 89.  Velocity 127
000020t:  Control change ::  Channel 2.  Controller 7.  Value: 106
000010t:  Note on ::  Channel 2.  Note 77.  Velocity 0
000000t:  Note on ::  Channel 2.  Note 84.  Velocity 58
000016t:  Control change ::  Channel 2.  Controller 7.  Value: 105
000014t:  Note on ::  Channel 2.  Note 89.  Velocity 0
000000t:  Note on ::  Channel 2.  Note 81.  Velocity 58
000020t:  Control change ::  Channel 2.  Controller 7.  Value: 104
000010t:  Note on ::  Channel 2.  Note 84.  Velocity 0
000000t:  Note on ::  Channel 2.  Note 77.  Velocity 58
000016t:  Control change ::  Channel 2.  Controller 7.  Value: 103
000014t:  Note on ::  Channel 2.  Note 81.  Velocity 0
000000t:  Note on ::  Channel 2.  Note 88.  Velocity 127
000020t:  Control change ::  Channel 2.  Controller 7.  Value: 102
000010t:  Note on ::  Channel 2.  Note 77.  Velocity 0
000000t:  Note on ::  Channel 2.  Note 84.  Velocity 58
000023t:  Control change ::  Channel 2.  Controller 7.  Value: 101
000007t:  Note on ::  Channel 2.  Note 88.  Velocity 0
000000t:  Note on ::  Channel 2.  Note 81.  Velocity 58
000020t:  Control change ::  Channel 2.  Controller 7.  Value: 100
000010t:  Note on ::  Channel 2.  Note 84.  Velocity 0
000000t:  Note on ::  Channel 2.  Note 77.  Velocity 58
000023t:  Control change ::  Channel 2.  Controller 7.  Value: 99
000007t:  Note on ::  Channel 2.  Note 81.  Velocity 0
000000t:  Note on ::  Channel 2.  Note 89.  Velocity 127
000020t:  Control change ::  Channel 2.  Controller 7.  Value: 98
000010t:  Note on ::  Channel 2.  Note 77.  Velocity 0
000000t:  Note on ::  Channel 2.  Note 84.  Velocity 58
000023t:  Control change ::  Channel 2.  Controller 7.  Value: 97
000007t:  Note on ::  Channel 2.  Note 89.  Velocity 0
000000t:  Note on ::  Channel 2.  Note 81.  Velocity 58
000020t:  Control change ::  Channel 2.  Controller 7.  Value: 96
000010t:  Note on ::  Channel 2.  Note 84.  Velocity 0
000000t:  Note on ::  Channel 2.  Note 77.  Velocity 58
000023t:  Control change ::  Channel 2.  Controller 7.  Value: 95
000007t:  Note on ::  Channel 2.  Note 77.  Velocity 0
000000t:  Note on ::  Channel 2.  Note 81.  Velocity 0
000000t:  Note on ::  Channel 2.  Note 89.  Velocity 127
000026t:  Control change ::  Channel 2.  Controller 7.  Value: 94
000004t:  Note on ::  Channel 2.  Note 82.  Velocity 58
000023t:  Control change ::  Channel 2.  Controller 7.  Value: 93
000007t:  Note on ::  Channel 2.  Note 89.  Velocity 0
000000t:  Note on ::  Channel 2.  Note 79.  Velocity 58
000026t:  Control change ::  Channel 2.  Controller 7.  Value: 92
000004t:  Note on ::  Channel 2.  Note 82.  Velocity 0
000000t:  Note on ::  Channel 2.  Note 76.  Velocity 58
000023t:  Control change ::  Channel 2.  Controller 7.  Value: 91
000007t:  Note on ::  Channel 2.  Note 79.  Velocity 0
000000t:  Note on ::  Channel 2.  Note 88.  Velocity 127
000026t:  Control change ::  Channel 2.  Controller 7.  Value: 90
000004t:  Note on ::  Channel 2.  Note 76.  Velocity 0
000000t:  Note on ::  Channel 2.  Note 82.  Velocity 58
000023t:  Control change ::  Channel 2.  Controller 7.  Value: 89
000007t:  Note on ::  Channel 2.  Note 88.  Velocity 0
000000t:  Note on ::  Channel 2.  Note 79.  Velocity 58
000026t:  Control change ::  Channel 2.  Controller 7.  Value: 88
000004t:  Note on ::  Channel 2.  Note 82.  Velocity 0
000000t:  Note on ::  Channel 2.  Note 76.  Velocity 58
000023t:  Control change ::  Channel 2.  Controller 7.  Value: 87
000007t:  Note on ::  Channel 2.  Note 79.  Velocity 0
000000t:  Note on ::  Channel 2.  Note 87.  Velocity 127
000026t:  Control change ::  Channel 2.  Controller 7.  Value: 86
000004t:  Note on ::  Channel 2.  Note 76.  Velocity 0
000000t:  Note on ::  Channel 2.  Note 82.  Velocity 58
000030t:  Note on ::  Channel 2.  Note 87.  Velocity 0
000000t:  Control change ::  Channel 2.  Controller 7.  Value: 85
000000t:  Note on ::  Channel 2.  Note 79.  Velocity 58
000026t:  Control change ::  Channel 2.  Controller 7.  Value: 84
000004t:  Note on ::  Channel 2.  Note 82.  Velocity 0
000000t:  Note on ::  Channel 2.  Note 76.  Velocity 58
000030t:  Note on ::  Channel 2.  Note 79.  Velocity 0
000000t:  Control change ::  Channel 2.  Controller 7.  Value: 83
000000t:  Note on ::  Channel 2.  Note 88.  Velocity 127
000026t:  Control change ::  Channel 2.  Controller 7.  Value: 82
000004t:  Note on ::  Channel 2.  Note 76.  Velocity 0
000000t:  Note on ::  Channel 2.  Note 82.  Velocity 58
000030t:  Note on ::  Channel 2.  Note 88.  Velocity 0
000000t:  Control change ::  Channel 2.  Controller 7.  Value: 81
000000t:  Note on ::  Channel 2.  Note 79.  Velocity 58
000026t:  Control change ::  Channel 2.  Controller 7.  Value: 80
000004t:  Note on ::  Channel 2.  Note 82.  Velocity 0
000000t:  Note on ::  Channel 2.  Note 76.  Velocity 58
000030t:  Note on ::  Channel 2.  Note 76.  Velocity 0
000000t:  Note on ::  Channel 2.  Note 79.  Velocity 0
000000t:  Control change ::  Channel 2.  Controller 7.  Value: 79
000000t:  Note on ::  Channel 2.  Note 88.  Velocity 127
000030t:  Note on ::  Channel 2.  Note 81.  Velocity 58
000003t:  Control change ::  Channel 2.  Controller 7.  Value: 78
000027t:  Note on ::  Channel 2.  Note 88.  Velocity 0
000000t:  Control change ::  Channel 2.  Controller 7.  Value: 77
000000t:  Note on ::  Channel 2.  Note 77.  Velocity 58
000030t:  Note on ::  Channel 2.  Note 81.  Velocity 0
000000t:  Note on ::  Channel 2.  Note 74.  Velocity 58
000003t:  Control change ::  Channel 2.  Controller 7.  Value: 76
000027t:  Note on ::  Channel 2.  Note 77.  Velocity 0
000000t:  Control change ::  Channel 2.  Controller 7.  Value: 75
000000t:  Note on ::  Channel 2.  Note 86.  Velocity 127
000030t:  Note on ::  Channel 2.  Note 74.  Velocity 0
000000t:  Note on ::  Channel 2.  Note 81.  Velocity 58
000003t:  Control change ::  Channel 2.  Controller 7.  Value: 74
000027t:  Note on ::  Channel 2.  Note 86.  Velocity 0
000000t:  Control change ::  Channel 2.  Controller 7.  Value: 73
000000t:  Note on ::  Channel 2.  Note 77.  Velocity 58
000030t:  Note on ::  Channel 2.  Note 81.  Velocity 0
000000t:  Note on ::  Channel 2.  Note 74.  Velocity 58
000003t:  Control change ::  Channel 2.  Controller 7.  Value: 72
000027t:  Note on ::  Channel 2.  Note 77.  Velocity 0
000000t:  Control change ::  Channel 2.  Controller 7.  Value: 71
000000t:  Note on ::  Channel 2.  Note 85.  Velocity 127
000030t:  Note on ::  Channel 2.  Note 74.  Velocity 0
000000t:  Note on ::  Channel 2.  Note 81.  Velocity 58
000003t:  Control change ::  Channel 2.  Controller 7.  Value: 70
000027t:  Note on ::  Channel 2.  Note 85.  Velocity 0
000000t:  Note on ::  Channel 2.  Note 77.  Velocity 58
000006t:  Control change ::  Channel 2.  Controller 7.  Value: 69
000024t:  Note on ::  Channel 2.  Note 81.  Velocity 0
000000t:  Note on ::  Channel 2.  Note 74.  Velocity 58
000003t:  Control change ::  Channel 2.  Controller 7.  Value: 68
000027t:  Note on ::  Channel 2.  Note 77.  Velocity 0
000000t:  Note on ::  Channel 2.  Note 86.  Velocity 127
000006t:  Control change ::  Channel 2.  Controller 7.  Value: 67
000024t:  Note on ::  Channel 2.  Note 74.  Velocity 0
000000t:  Note on ::  Channel 2.  Note 81.  Velocity 58
000003t:  Control change ::  Channel 2.  Controller 7.  Value: 66
000027t:  Note on ::  Channel 2.  Note 86.  Velocity 0
000000t:  Note on ::  Channel 2.  Note 77.  Velocity 58
000006t:  Control change ::  Channel 2.  Controller 7.  Value: 65
000024t:  Note on ::  Channel 2.  Note 81.  Velocity 0
000000t:  Note on ::  Channel 2.  Note 74.  Velocity 58
000003t:  Control change ::  Channel 2.  Controller 7.  Value: 64
000027t:  Note on ::  Channel 2.  Note 74.  Velocity 0
000000t:  Note on ::  Channel 2.  Note 77.  Velocity 0
000000t:  Note on ::  Channel 2.  Note 93.  Velocity 127
000006t:  Control change ::  Channel 2.  Controller 7.  Value: 63
000024t:  Note on ::  Channel 2.  Note 86.  Velocity 58
000010t:  Control change ::  Channel 2.  Controller 7.  Value: 62
000020t:  Note on ::  Channel 2.  Note 93.  Velocity 0
000000t:  Note on ::  Channel 2.  Note 82.  Velocity 58
000006t:  Control change ::  Channel 2.  Controller 7.  Value: 61
000024t:  Note on ::  Channel 2.  Note 86.  Velocity 0
000000t:  Note on ::  Channel 2.  Note 79.  Velocity 58
000010t:  Control change ::  Channel 2.  Controller 7.  Value: 60
000020t:  Note on ::  Channel 2.  Note 82.  Velocity 0
000000t:  Note on ::  Channel 2.  Note 91.  Velocity 127
000006t:  Control change ::  Channel 2.  Controller 7.  Value: 59
000024t:  Note on ::  Channel 2.  Note 79.  Velocity 0
000000t:  Note on ::  Channel 2.  Note 86.  Velocity 58
000010t:  Control change ::  Channel 2.  Controller 7.  Value: 58
000020t:  Note on ::  Channel 2.  Note 91.  Velocity 0
000000t:  Note on ::  Channel 2.  Note 82.  Velocity 58
000006t:  Control change ::  Channel 2.  Controller 7.  Value: 57
000024t:  Note on ::  Channel 2.  Note 86.  Velocity 0
000000t:  Note on ::  Channel 2.  Note 79.  Velocity 58
000010t:  Control change ::  Channel 2.  Controller 7.  Value: 56
000020t:  Note on ::  Channel 2.  Note 82.  Velocity 0
000000t:  Note on ::  Channel 2.  Note 90.  Velocity 127
000013t:  Control change ::  Channel 2.  Controller 7.  Value: 55
000017t:  Note on ::  Channel 2.  Note 79.  Velocity 0
000000t:  Note on ::  Channel 2.  Note 86.  Velocity 58
000010t:  Control change ::  Channel 2.  Controller 7.  Value: 54
000020t:  Note on ::  Channel 2.  Note 90.  Velocity 0
000000t:  Note on ::  Channel 2.  Note 82.  Velocity 58
000013t:  Control change ::  Channel 2.  Controller 7.  Value: 53
000017t:  Note on ::  Channel 2.  Note 86.  Velocity 0
000000t:  Note on ::  Channel 2.  Note 79.  Velocity 58
000010t:  Control change ::  Channel 2.  Controller 7.  Value: 52
000020t:  Note on ::  Channel 2.  Note 82.  Velocity 0
000000t:  Note on ::  Channel 2.  Note 91.  Velocity 127
000013t:  Control change ::  Channel 2.  Controller 7.  Value: 51
000017t:  Note on ::  Channel 2.  Note 79.  Velocity 0
000000t:  Note on ::  Channel 2.  Note 86.  Velocity 58
000010t:  Control change ::  Channel 2.  Controller 7.  Value: 50
000020t:  Note on ::  Channel 2.  Note 91.  Velocity 0
000000t:  Note on ::  Channel 2.  Note 82.  Velocity 58
000013t:  Control change ::  Channel 2.  Controller 7.  Value: 49
000017t:  Note on ::  Channel 2.  Note 86.  Velocity 0
000000t:  Note on ::  Channel 2.  Note 79.  Velocity 58
000010t:  Control change ::  Channel 2.  Controller 7.  Value: 48
000020t:  Note on ::  Channel 2.  Note 79.  Velocity 0
000000t:  Note on ::  Channel 2.  Note 82.  Velocity 0
000000t:  Note on ::  Channel 2.  Note 94.  Velocity 127
000013t:  Control change ::  Channel 2.  Controller 7.  Value: 47
000017t:  Note on ::  Channel 2.  Note 87.  Velocity 58
000016t:  Control change ::  Channel 2.  Controller 7.  Value: 46
000014t:  Note on ::  Channel 2.  Note 94.  Velocity 0
000000t:  Note on ::  Channel 2.  Note 84.  Velocity 58
000013t:  Control change ::  Channel 2.  Controller 7.  Value: 45
000017t:  Note on ::  Channel 2.  Note 87.  Velocity 0
000000t:  Note on ::  Channel 2.  Note 78.  Velocity 58
000016t:  Control change ::  Channel 2.  Controller 7.  Value: 44
000014t:  Note on ::  Channel 2.  Note 84.  Velocity 0
000000t:  Note on ::  Channel 2.  Note 93.  Velocity 127
000013t:  Control change ::  Channel 2.  Controller 7.  Value: 43
000017t:  Note on ::  Channel 2.  Note 78.  Velocity 0
000000t:  Note on ::  Channel 2.  Note 87.  Velocity 58
000016t:  Control change ::  Channel 2.  Controller 7.  Value: 42
000014t:  Note on ::  Channel 2.  Note 93.  Velocity 0
000000t:  Note on ::  Channel 2.  Note 84.  Velocity 58
000013t:  Control change ::  Channel 2.  Controller 7.  Value: 41
000017t:  Note on ::  Channel 2.  Note 87.  Velocity 0
000000t:  Note on ::  Channel 2.  Note 78.  Velocity 58
000016t:  Control change ::  Channel 2.  Controller 7.  Value: 40
000014t:  Note on ::  Channel 2.  Note 84.  Velocity 0
000000t:  Note on ::  Channel 2.  Note 92.  Velocity 127
000020t:  Control change ::  Channel 2.  Controller 7.  Value: 39
000010t:  Note on ::  Channel 2.  Note 78.  Velocity 0
000000t:  Note on ::  Channel 2.  Note 87.  Velocity 58
000016t:  Control change ::  Channel 2.  Controller 7.  Value: 38
000014t:  Note on ::  Channel 2.  Note 92.  Velocity 0
000000t:  Note on ::  Channel 2.  Note 84.  Velocity 58
000020t:  Control change ::  Channel 2.  Controller 7.  Value: 37
000010t:  Note on ::  Channel 2.  Note 87.  Velocity 0
000000t:  Note on ::  Channel 2.  Note 78.  Velocity 58
000016t:  Control change ::  Channel 2.  Controller 7.  Value: 36
000014t:  Note on ::  Channel 2.  Note 84.  Velocity 0
000000t:  Note on ::  Channel 2.  Note 93.  Velocity 127
000020t:  Control change ::  Channel 2.  Controller 7.  Value: 35
000010t:  Note on ::  Channel 2.  Note 78.  Velocity 0
000000t:  Note on ::  Channel 2.  Note 87.  Velocity 58
000016t:  Control change ::  Channel 2.  Controller 7.  Value: 34
000014t:  Note on ::  Channel 2.  Note 93.  Velocity 0
000000t:  Note on ::  Channel 2.  Note 84.  Velocity 58
000020t:  Control change ::  Channel 2.  Controller 7.  Value: 33
000010t:  Note on ::  Channel 2.  Note 87.  Velocity 0
000000t:  Note on ::  Channel 2.  Note 78.  Velocity 58
000016t:  Control change ::  Channel 2.  Controller 7.  Value: 32
000014t:  Note on ::  Channel 2.  Note 78.  Velocity 0
000000t:  Note on ::  Channel 2.  Note 84.  Velocity 0
000000t:  Note on ::  Channel 2.  Note 96.  Velocity 127
000020t:  Control change ::  Channel 2.  Controller 7.  Value: 31
000010t:  Note on ::  Channel 2.  Note 86.  Velocity 58
000023t:  Control change ::  Channel 2.  Controller 7.  Value: 30
000007t:  Note on ::  Channel 2.  Note 96.  Velocity 0
000000t:  Note on ::  Channel 2.  Note 82.  Velocity 58
000020t:  Control change ::  Channel 2.  Controller 7.  Value: 29
000010t:  Note on ::  Channel 2.  Note 86.  Velocity 0
000000t:  Note on ::  Channel 2.  Note 79.  Velocity 58
000023t:  Control change ::  Channel 2.  Controller 7.  Value: 28
000007t:  Note on ::  Channel 2.  Note 82.  Velocity 0
000000t:  Note on ::  Channel 2.  Note 94.  Velocity 127
000020t:  Control change ::  Channel 2.  Controller 7.  Value: 27
000010t:  Note on ::  Channel 2.  Note 79.  Velocity 0
000000t:  Note on ::  Channel 2.  Note 86.  Velocity 58
000023t:  Control change ::  Channel 2.  Controller 7.  Value: 26
000007t:  Note on ::  Channel 2.  Note 94.  Velocity 0
000000t:  Note on ::  Channel 2.  Note 82.  Velocity 58
000020t:  Control change ::  Channel 2.  Controller 7.  Value: 25
000010t:  Note on ::  Channel 2.  Note 86.  Velocity 0
000000t:  Note on ::  Channel 2.  Note 79.  Velocity 58
000023t:  Control change ::  Channel 2.  Controller 7.  Value: 24
000007t:  Note on ::  Channel 2.  Note 82.  Velocity 0
000000t:  Note on ::  Channel 2.  Note 93.  Velocity 127
000026t:  Control change ::  Channel 2.  Controller 7.  Value: 23
000004t:  Note on ::  Channel 2.  Note 79.  Velocity 0
000000t:  Note on ::  Channel 2.  Note 86.  Velocity 58
000023t:  Control change ::  Channel 2.  Controller 7.  Value: 22
000007t:  Note on ::  Channel 2.  Note 93.  Velocity 0
000000t:  Note on ::  Channel 2.  Note 82.  Velocity 58
000026t:  Control change ::  Channel 2.  Controller 7.  Value: 21
000004t:  Note on ::  Channel 2.  Note 86.  Velocity 0
000000t:  Note on ::  Channel 2.  Note 79.  Velocity 58
000023t:  Control change ::  Channel 2.  Controller 7.  Value: 20
000007t:  Note on ::  Channel 2.  Note 82.  Velocity 0
000000t:  Note on ::  Channel 2.  Note 94.  Velocity 127
000026t:  Control change ::  Channel 2.  Controller 7.  Value: 19
000004t:  Note on ::  Channel 2.  Note 79.  Velocity 0
000000t:  Note on ::  Channel 2.  Note 86.  Velocity 58
000023t:  Control change ::  Channel 2.  Controller 7.  Value: 18
000007t:  Note on ::  Channel 2.  Note 94.  Velocity 0
000000t:  Note on ::  Channel 2.  Note 82.  Velocity 58
000026t:  Control change ::  Channel 2.  Controller 7.  Value: 17
000004t:  Note on ::  Channel 2.  Note 86.  Velocity 0
000000t:  Note on ::  Channel 2.  Note 79.  Velocity 58
000023t:  Control change ::  Channel 2.  Controller 7.  Value: 16
000007t:  Note on ::  Channel 2.  Note 79.  Velocity 0
000000t:  Note on ::  Channel 2.  Note 82.  Velocity 0
000000t:  Note on ::  Channel 2.  Note 93.  Velocity 127
000026t:  Control change ::  Channel 2.  Controller 7.  Value: 15
000004t:  Note on ::  Channel 2.  Note 82.  Velocity 58
000030t:  Note on ::  Channel 2.  Note 93.  Velocity 0
000000t:  Control change ::  Channel 2.  Controller 7.  Value: 14
000000t:  Note on ::  Channel 2.  Note 79.  Velocity 58
000026t:  Control change ::  Channel 2.  Controller 7.  Value: 13
000004t:  Note on ::  Channel 2.  Note 82.  Velocity 0
000000t:  Note on ::  Channel 2.  Note 76.  Velocity 58
000030t:  Note on ::  Channel 2.  Note 79.  Velocity 0
000000t:  Control change ::  Channel 2.  Controller 7.  Value: 12
000000t:  Note on ::  Channel 2.  Note 91.  Velocity 127
000026t:  Control change ::  Channel 2.  Controller 7.  Value: 11
000004t:  Note on ::  Channel 2.  Note 76.  Velocity 0
000000t:  Note on ::  Channel 2.  Note 82.  Velocity 58
000030t:  Note on ::  Channel 2.  Note 91.  Velocity 0
000000t:  Control change ::  Channel 2.  Controller 7.  Value: 10
000000t:  Note on ::  Channel 2.  Note 79.  Velocity 58
000026t:  Control change ::  Channel 2.  Controller 7.  Value: 9
000004t:  Note on ::  Channel 2.  Note 82.  Velocity 0
000000t:  Note on ::  Channel 2.  Note 76.  Velocity 58
000030t:  Note on ::  Channel 2.  Note 79.  Velocity 0
000000t:  Control change ::  Channel 2.  Controller 7.  Value: 8
000000t:  Note on ::  Channel 2.  Note 89.  Velocity 127
000030t:  Note on ::  Channel 2.  Note 76.  Velocity 0
000000t:  Note on ::  Channel 2.  Note 82.  Velocity 58
000003t:  Control change ::  Channel 2.  Controller 7.  Value: 7
000027t:  Note on ::  Channel 2.  Note 89.  Velocity 0
000000t:  Control change ::  Channel 2.  Controller 7.  Value: 6
000000t:  Note on ::  Channel 2.  Note 79.  Velocity 58
000030t:  Note on ::  Channel 2.  Note 82.  Velocity 0
000000t:  Note on ::  Channel 2.  Note 76.  Velocity 58
000003t:  Control change ::  Channel 2.  Controller 7.  Value: 5
000027t:  Note on ::  Channel 2.  Note 79.  Velocity 0
000000t:  Control change ::  Channel 2.  Controller 7.  Value: 4
000000t:  Note on ::  Channel 2.  Note 88.  Velocity 127
000030t:  Note on ::  Channel 2.  Note 76.  Velocity 0
000000t:  Note on ::  Channel 2.  Note 82.  Velocity 58
000003t:  Control change ::  Channel 2.  Controller 7.  Value: 3
000027t:  Note on ::  Channel 2.  Note 88.  Velocity 0
000000t:  Control change ::  Channel 2.  Controller 7.  Value: 2
000000t:  Note on ::  Channel 2.  Note 79.  Velocity 58
000030t:  Note on ::  Channel 2.  Note 82.  Velocity 0
000000t:  Note on ::  Channel 2.  Note 76.  Velocity 58
000003t:  Control change ::  Channel 2.  Controller 7.  Value: 1
000027t:  Note on ::  Channel 2.  Note 76.  Velocity 0
000000t:  Note on ::  Channel 2.  Note 79.  Velocity 0
000000t:  Control change ::  Channel 2.  Controller 7.  Value: 0
000000t:  Meta-event type $2f (End-track event) of length 0
Sigma t = 23040

Track chunk of 1072 bytes
000000t:  Meta-event type $21 (?) of length 1
	  _
000000t:  Meta-event type $03 (Track name) of length 7
	  Track 4
000000t:  Program (patch) change ::  Channel 3.  Patch 24 (Acoustic Guitar(nylon))
000000t:  Control change ::  Channel 3.  Controller 7.  Value: 127
000000t:  Control change ::  Channel 3.  Controller 10.  Value: 0
000000t:  Control change ::  Channel 3.  Controller 93.  Value: 123
000000t:  Control change ::  Channel 3.  Controller 91.  Value: 126
000000t:  Note on ::  Channel 3.  Note 46.  Velocity 127
000480t:  Note on ::  Channel 3.  Note 46.  Velocity 0
000000t:  Note on ::  Channel 3.  Note 45.  Velocity 127
000240t:  Note on ::  Channel 3.  Note 45.  Velocity 0
000000t:  Note on ::  Channel 3.  Note 45.  Velocity 127
000240t:  Note on ::  Channel 3.  Note 45.  Velocity 0
000000t:  Note on ::  Channel 3.  Note 43.  Velocity 127
000240t:  Note on ::  Channel 3.  Note 43.  Velocity 0
000000t:  Note on ::  Channel 3.  Note 43.  Velocity 127
000240t:  Note on ::  Channel 3.  Note 43.  Velocity 0
000000t:  Note on ::  Channel 3.  Note 41.  Velocity 127
000240t:  Note on ::  Channel 3.  Note 41.  Velocity 0
000000t:  Note on ::  Channel 3.  Note 41.  Velocity 127
000240t:  Note on ::  Channel 3.  Note 41.  Velocity 0
000000t:  Note on ::  Channel 3.  Note 46.  Velocity 127
000240t:  Note on ::  Channel 3.  Note 46.  Velocity 0
000000t:  Note on ::  Channel 3.  Note 46.  Velocity 127
000240t:  Note on ::  Channel 3.  Note 46.  Velocity 0
000000t:  Note on ::  Channel 3.  Note 45.  Velocity 127
000240t:  Note on ::  Channel 3.  Note 45.  Velocity 0
000000t:  Note on ::  Channel 3.  Note 50.  Velocity 127
000240t:  Note on ::  Channel 3.  Note 50.  Velocity 0
000000t:  Note on ::  Channel 3.  Note 43.  Velocity 127
000240t:  Note on ::  Channel 3.  Note 43.  Velocity 0
000000t:  Note on ::  Channel 3.  Note 43.  Velocity 127
000240t:  Note on ::  Channel 3.  Note 43.  Velocity 0
000000t:  Note on ::  Channel 3.  Note 48.  Velocity 127
000240t:  Note on ::  Channel 3.  Note 48.  Velocity 0
000000t:  Note on ::  Channel 3.  Note 48.  Velocity 127
000240t:  Note on ::  Channel 3.  Note 48.  Velocity 0
000000t:  Note on ::  Channel 3.  Note 46.  Velocity 127
000480t:  Note on ::  Channel 3.  Note 46.  Velocity 0
000000t:  Note on ::  Channel 3.  Note 45.  Velocity 127
000240t:  Note on ::  Channel 3.  Note 45.  Velocity 0
000000t:  Note on ::  Channel 3.  Note 45.  Velocity 127
000240t:  Note on ::  Channel 3.  Note 45.  Velocity 0
000000t:  Note on ::  Channel 3.  Note 43.  Velocity 127
000240t:  Note on ::  Channel 3.  Note 43.  Velocity 0
000000t:  Note on ::  Channel 3.  Note 43.  Velocity 127
000240t:  Note on ::  Channel 3.  Note 43.  Velocity 0
000000t:  Note on ::  Channel 3.  Note 41.  Velocity 127
000240t:  Note on ::  Channel 3.  Note 41.  Velocity 0
000000t:  Note on ::  Channel 3.  Note 41.  Velocity 127
000240t:  Note on ::  Channel 3.  Note 41.  Velocity 0
000000t:  Note on ::  Channel 3.  Note 46.  Velocity 127
000240t:  Note on ::  Channel 3.  Note 46.  Velocity 0
000000t:  Note on ::  Channel 3.  Note 46.  Velocity 127
000240t:  Note on ::  Channel 3.  Note 46.  Velocity 0
000000t:  Note on ::  Channel 3.  Note 45.  Velocity 127
000240t:  Note on ::  Channel 3.  Note 45.  Velocity 0
000000t:  Note on ::  Channel 3.  Note 50.  Velocity 127
000240t:  Note on ::  Channel 3.  Note 50.  Velocity 0
000000t:  Note on ::  Channel 3.  Note 43.  Velocity 127
000240t:  Note on ::  Channel 3.  Note 43.  Velocity 0
000000t:  Note on ::  Channel 3.  Note 43.  Velocity 127
000240t:  Note on ::  Channel 3.  Note 43.  Velocity 0
000000t:  Note on ::  Channel 3.  Note 48.  Velocity 127
000240t:  Note on ::  Channel 3.  Note 48.  Velocity 0
000000t:  Note on ::  Channel 3.  Note 48.  Velocity 127
000240t:  Note on ::  Channel 3.  Note 48.  Velocity 0
000000t:  Note on ::  Channel 3.  Note 46.  Velocity 127
000480t:  Note on ::  Channel 3.  Note 46.  Velocity 0
000000t:  Note on ::  Channel 3.  Note 45.  Velocity 127
000240t:  Note on ::  Channel 3.  Note 45.  Velocity 0
000000t:  Note on ::  Channel 3.  Note 45.  Velocity 127
000240t:  Note on ::  Channel 3.  Note 45.  Velocity 0
000000t:  Note on ::  Channel 3.  Note 43.  Velocity 127
000240t:  Note on ::  Channel 3.  Note 43.  Velocity 0
000000t:  Note on ::  Channel 3.  Note 43.  Velocity 127
000240t:  Note on ::  Channel 3.  Note 43.  Velocity 0
000000t:  Note on ::  Channel 3.  Note 41.  Velocity 127
000240t:  Note on ::  Channel 3.  Note 41.  Velocity 0
000000t:  Note on ::  Channel 3.  Note 41.  Velocity 127
000240t:  Note on ::  Channel 3.  Note 41.  Velocity 0
000000t:  Note on ::  Channel 3.  Note 46.  Velocity 127
000240t:  Note on ::  Channel 3.  Note 46.  Velocity 0
000000t:  Note on ::  Channel 3.  Note 46.  Velocity 127
000240t:  Note on ::  Channel 3.  Note 46.  Velocity 0
000000t:  Note on ::  Channel 3.  Note 45.  Velocity 127
000240t:  Note on ::  Channel 3.  Note 45.  Velocity 0
000000t:  Note on ::  Channel 3.  Note 50.  Velocity 127
000240t:  Note on ::  Channel 3.  Note 50.  Velocity 0
000000t:  Note on ::  Channel 3.  Note 43.  Velocity 127
000240t:  Note on ::  Channel 3.  Note 43.  Velocity 0
000000t:  Note on ::  Channel 3.  Note 43.  Velocity 127
000240t:  Note on ::  Channel 3.  Note 43.  Velocity 0
000000t:  Note on ::  Channel 3.  Note 48.  Velocity 127
000240t:  Note on ::  Channel 3.  Note 48.  Velocity 0
000000t:  Note on ::  Channel 3.  Note 48.  Velocity 127
000240t:  Note on ::  Channel 3.  Note 48.  Velocity 0
000000t:  Note on ::  Channel 3.  Note 46.  Velocity 127
000480t:  Note on ::  Channel 3.  Note 46.  Velocity 0
000000t:  Note on ::  Channel 3.  Note 45.  Velocity 127
000240t:  Note on ::  Channel 3.  Note 45.  Velocity 0
000000t:  Note on ::  Channel 3.  Note 45.  Velocity 127
000240t:  Note on ::  Channel 3.  Note 45.  Velocity 0
000000t:  Note on ::  Channel 3.  Note 43.  Velocity 127
000240t:  Note on ::  Channel 3.  Note 43.  Velocity 0
000000t:  Note on ::  Channel 3.  Note 43.  Velocity 127
000240t:  Note on ::  Channel 3.  Note 43.  Velocity 0
000000t:  Note on ::  Channel 3.  Note 41.  Velocity 127
000240t:  Note on ::  Channel 3.  Note 41.  Velocity 0
000000t:  Note on ::  Channel 3.  Note 41.  Velocity 127
000240t:  Note on ::  Channel 3.  Note 41.  Velocity 0
000000t:  Note on ::  Channel 3.  Note 46.  Velocity 127
000240t:  Note on ::  Channel 3.  Note 46.  Velocity 0
000000t:  Note on ::  Channel 3.  Note 46.  Velocity 127
000240t:  Note on ::  Channel 3.  Note 46.  Velocity 0
000000t:  Note on ::  Channel 3.  Note 45.  Velocity 127
000240t:  Note on ::  Channel 3.  Note 45.  Velocity 0
000000t:  Note on ::  Channel 3.  Note 50.  Velocity 127
000240t:  Note on ::  Channel 3.  Note 50.  Velocity 0
000000t:  Note on ::  Channel 3.  Note 43.  Velocity 127
000240t:  Note on ::  Channel 3.  Note 43.  Velocity 0
000000t:  Note on ::  Channel 3.  Note 43.  Velocity 127
000240t:  Note on ::  Channel 3.  Note 43.  Velocity 0
000000t:  Note on ::  Channel 3.  Note 48.  Velocity 127
000240t:  Note on ::  Channel 3.  Note 48.  Velocity 0
000000t:  Note on ::  Channel 3.  Note 48.  Velocity 127
000240t:  Note on ::  Channel 3.  Note 48.  Velocity 0
000000t:  Note on ::  Channel 3.  Note 46.  Velocity 127
000480t:  Note on ::  Channel 3.  Note 46.  Velocity 0
000000t:  Note on ::  Channel 3.  Note 45.  Velocity 127
000240t:  Note on ::  Channel 3.  Note 45.  Velocity 0
000000t:  Note on ::  Channel 3.  Note 45.  Velocity 127
000240t:  Note on ::  Channel 3.  Note 45.  Velocity 0
000000t:  Note on ::  Channel 3.  Note 43.  Velocity 127
000240t:  Note on ::  Channel 3.  Note 43.  Velocity 0
000000t:  Note on ::  Channel 3.  Note 43.  Velocity 127
000240t:  Note on ::  Channel 3.  Note 43.  Velocity 0
000000t:  Note on ::  Channel 3.  Note 41.  Velocity 127
000240t:  Note on ::  Channel 3.  Note 41.  Velocity 0
000000t:  Note on ::  Channel 3.  Note 41.  Velocity 127
000240t:  Note on ::  Channel 3.  Note 41.  Velocity 0
000000t:  Note on ::  Channel 3.  Note 46.  Velocity 127
000240t:  Note on ::  Channel 3.  Note 46.  Velocity 0
000000t:  Note on ::  Channel 3.  Note 46.  Velocity 127
000240t:  Note on ::  Channel 3.  Note 46.  Velocity 0
000000t:  Note on ::  Channel 3.  Note 45.  Velocity 127
000240t:  Note on ::  Channel 3.  Note 45.  Velocity 0
000000t:  Note on ::  Channel 3.  Note 50.  Velocity 127
000240t:  Note on ::  Channel 3.  Note 50.  Velocity 0
000000t:  Note on ::  Channel 3.  Note 43.  Velocity 127
000240t:  Note on ::  Channel 3.  Note 43.  Velocity 0
000000t:  Note on ::  Channel 3.  Note 43.  Velocity 127
000240t:  Note on ::  Channel 3.  Note 43.  Velocity 0
000000t:  Note on ::  Channel 3.  Note 48.  Velocity 127
000240t:  Note on ::  Channel 3.  Note 48.  Velocity 0
000000t:  Note on ::  Channel 3.  Note 48.  Velocity 127
000240t:  Note on ::  Channel 3.  Note 48.  Velocity 0
000000t:  Control change ::  Channel 3.  Controller 7.  Value: 126
000000t:  Note on ::  Channel 3.  Note 46.  Velocity 127
000033t:  Control change ::  Channel 3.  Controller 7.  Value: 125
000033t:  Control change ::  Channel 3.  Controller 7.  Value: 124
000027t:  Control change ::  Channel 3.  Controller 7.  Value: 123
000033t:  Control change ::  Channel 3.  Controller 7.  Value: 122
000027t:  Control change ::  Channel 3.  Controller 7.  Value: 121
000033t:  Control change ::  Channel 3.  Controller 7.  Value: 120
000027t:  Control change ::  Channel 3.  Controller 7.  Value: 119
000033t:  Control change ::  Channel 3.  Controller 7.  Value: 118
000034t:  Control change ::  Channel 3.  Controller 7.  Value: 117
000026t:  Control change ::  Channel 3.  Controller 7.  Value: 116
000034t:  Control change ::  Channel 3.  Controller 7.  Value: 115
000026t:  Control change ::  Channel 3.  Controller 7.  Value: 114
000034t:  Control change ::  Channel 3.  Controller 7.  Value: 113
000026t:  Control change ::  Channel 3.  Controller 7.  Value: 112
000034t:  Control change ::  Channel 3.  Controller 7.  Value: 111
000020t:  Note on ::  Channel 3.  Note 46.  Velocity 0
000000t:  Note on ::  Channel 3.  Note 45.  Velocity 127
000013t:  Control change ::  Channel 3.  Controller 7.  Value: 110
000027t:  Control change ::  Channel 3.  Controller 7.  Value: 109
000033t:  Control change ::  Channel 3.  Controller 7.  Value: 108
000027t:  Control change ::  Channel 3.  Controller 7.  Value: 107
000033t:  Control change ::  Channel 3.  Controller 7.  Value: 106
000027t:  Control change ::  Channel 3.  Controller 7.  Value: 105
000033t:  Control change ::  Channel 3.  Controller 7.  Value: 104
000033t:  Control change ::  Channel 3.  Controller 7.  Value: 103
000014t:  Note on ::  Channel 3.  Note 45.  Velocity 0
000000t:  Note on ::  Channel 3.  Note 45.  Velocity 127
000013t:  Control change ::  Channel 3.  Controller 7.  Value: 102
000033t:  Control change ::  Channel 3.  Controller 7.  Value: 101
000027t:  Control change ::  Channel 3.  Controller 7.  Value: 100
000033t:  Control change ::  Channel 3.  Controller 7.  Value: 99
000027t:  Control change ::  Channel 3.  Controller 7.  Value: 98
000033t:  Control change ::  Channel 3.  Controller 7.  Value: 97
000034t:  Control change ::  Channel 3.  Controller 7.  Value: 96
000026t:  Control change ::  Channel 3.  Controller 7.  Value: 95
000014t:  Note on ::  Channel 3.  Note 45.  Velocity 0
000000t:  Note on ::  Channel 3.  Note 43.  Velocity 127
000020t:  Control change ::  Channel 3.  Controller 7.  Value: 94
000026t:  Control change ::  Channel 3.  Controller 7.  Value: 93
000034t:  Control change ::  Channel 3.  Controller 7.  Value: 92
000026t:  Control change ::  Channel 3.  Controller 7.  Value: 91
000034t:  Control change ::  Channel 3.  Controller 7.  Value: 90
000033t:  Control change ::  Channel 3.  Controller 7.  Value: 89
000027t:  Control change ::  Channel 3.  Controller 7.  Value: 88
000033t:  Control change ::  Channel 3.  Controller 7.  Value: 87
000007t:  Note on ::  Channel 3.  Note 43.  Velocity 0
000000t:  Note on ::  Channel 3.  Note 43.  Velocity 127
000020t:  Control change ::  Channel 3.  Controller 7.  Value: 86
000033t:  Control change ::  Channel 3.  Controller 7.  Value: 85
000027t:  Control change ::  Channel 3.  Controller 7.  Value: 84
000033t:  Control change ::  Channel 3.  Controller 7.  Value: 83
000033t:  Control change ::  Channel 3.  Controller 7.  Value: 82
000027t:  Control change ::  Channel 3.  Controller 7.  Value: 81
000033t:  Control change ::  Channel 3.  Controller 7.  Value: 80
000027t:  Control change ::  Channel 3.  Controller 7.  Value: 79
000007t:  Note on ::  Channel 3.  Note 43.  Velocity 0
000000t:  Note on ::  Channel 3.  Note 41.  Velocity 127
000026t:  Control change ::  Channel 3.  Controller 7.  Value: 78
000027t:  Control change ::  Channel 3.  Controller 7.  Value: 77
000033t:  Control change ::  Channel 3.  Controller 7.  Value: 76
000034t:  Control change ::  Channel 3.  Controller 7.  Value: 75
000026t:  Control change ::  Channel 3.  Controller 7.  Value: 74
000034t:  Control change ::  Channel 3.  Controller 7.  Value: 73
000026t:  Control change ::  Channel 3.  Controller 7.  Value: 72
000034t:  Note on ::  Channel 3.  Note 41.  Velocity 0
000000t:  Control change ::  Channel 3.  Controller 7.  Value: 71
000000t:  Note on ::  Channel 3.  Note 41.  Velocity 127
000026t:  Control change ::  Channel 3.  Controller 7.  Value: 70
000034t:  Control change ::  Channel 3.  Controller 7.  Value: 69
000033t:  Control change ::  Channel 3.  Controller 7.  Value: 68
000027t:  Control change ::  Channel 3.  Controller 7.  Value: 67
000033t:  Control change ::  Channel 3.  Controller 7.  Value: 66
000027t:  Control change ::  Channel 3.  Controller 7.  Value: 65
000033t:  Control change ::  Channel 3.  Controller 7.  Value: 64
000027t:  Note on ::  Channel 3.  Note 41.  Velocity 0
000000t:  Control change ::  Channel 3.  Controller 7.  Value: 63
000000t:  Note on ::  Channel 3.  Note 46.  Velocity 127
000033t:  Control change ::  Channel 3.  Controller 7.  Value: 62
000033t:  Control change ::  Channel 3.  Controller 7.  Value: 61
000027t:  Control change ::  Channel 3.  Controller 7.  Value: 60
000033t:  Control change ::  Channel 3.  Controller 7.  Value: 59
000027t:  Control change ::  Channel 3.  Controller 7.  Value: 58
000033t:  Control change ::  Channel 3.  Controller 7.  Value: 57
000027t:  Control change ::  Channel 3.  Controller 7.  Value: 56
000027t:  Note on ::  Channel 3.  Note 46.  Velocity 0
000000t:  Note on ::  Channel 3.  Note 46.  Velocity 127
000006t:  Control change ::  Channel 3.  Controller 7.  Value: 55
000034t:  Control change ::  Channel 3.  Controller 7.  Value: 54
000026t:  Control change ::  Channel 3.  Controller 7.  Value: 53
000034t:  Control change ::  Channel 3.  Controller 7.  Value: 52
000026t:  Control change ::  Channel 3.  Controller 7.  Value: 51
000034t:  Control change ::  Channel 3.  Controller 7.  Value: 50
000026t:  Control change ::  Channel 3.  Controller 7.  Value: 49
000034t:  Control change ::  Channel 3.  Controller 7.  Value: 48
000020t:  Note on ::  Channel 3.  Note 46.  Velocity 0
000000t:  Note on ::  Channel 3.  Note 45.  Velocity 127
000013t:  Control change ::  Channel 3.  Controller 7.  Value: 47
000027t:  Control change ::  Channel 3.  Controller 7.  Value: 46
000033t:  Control change ::  Channel 3.  Controller 7.  Value: 45
000027t:  Control change ::  Channel 3.  Controller 7.  Value: 44
000033t:  Control change ::  Channel 3.  Controller 7.  Value: 43
000027t:  Control change ::  Channel 3.  Controller 7.  Value: 42
000033t:  Control change ::  Channel 3.  Controller 7.  Value: 41
000033t:  Control change ::  Channel 3.  Controller 7.  Value: 40
000014t:  Note on ::  Channel 3.  Note 45.  Velocity 0
000000t:  Note on ::  Channel 3.  Note 50.  Velocity 127
000013t:  Control change ::  Channel 3.  Controller 7.  Value: 39
000033t:  Control change ::  Channel 3.  Controller 7.  Value: 38
000027t:  Control change ::  Channel 3.  Controller 7.  Value: 37
000033t:  Control change ::  Channel 3.  Controller 7.  Value: 36
000027t:  Control change ::  Channel 3.  Controller 7.  Value: 35
000033t:  Control change ::  Channel 3.  Controller 7.  Value: 34
000034t:  Control change ::  Channel 3.  Controller 7.  Value: 33
000026t:  Control change ::  Channel 3.  Controller 7.  Value: 32
000014t:  Note on ::  Channel 3.  Note 50.  Velocity 0
000000t:  Note on ::  Channel 3.  Note 43.  Velocity 127
000020t:  Control change ::  Channel 3.  Controller 7.  Value: 31
000026t:  Control change ::  Channel 3.  Controller 7.  Value: 30
000034t:  Control change ::  Channel 3.  Controller 7.  Value: 29
000026t:  Control change ::  Channel 3.  Controller 7.  Value: 28
000034t:  Control change ::  Channel 3.  Controller 7.  Value: 27
000033t:  Control change ::  Channel 3.  Controller 7.  Value: 26
000027t:  Control change ::  Channel 3.  Controller 7.  Value: 25
000033t:  Control change ::  Channel 3.  Controller 7.  Value: 24
000007t:  Note on ::  Channel 3.  Note 43.  Velocity 0
000000t:  Note on ::  Channel 3.  Note 43.  Velocity 127
000020t:  Control change ::  Channel 3.  Controller 7.  Value: 23
000033t:  Control change ::  Channel 3.  Controller 7.  Value: 22
000027t:  Control change ::  Channel 3.  Controller 7.  Value: 21
000033t:  Control change ::  Channel 3.  Controller 7.  Value: 20
000033t:  Control change ::  Channel 3.  Controller 7.  Value: 19
000027t:  Control change ::  Channel 3.  Controller 7.  Value: 18
000033t:  Control change ::  Channel 3.  Controller 7.  Value: 17
000027t:  Control change ::  Channel 3.  Controller 7.  Value: 16
000007t:  Note on ::  Channel 3.  Note 43.  Velocity 0
000000t:  Note on ::  Channel 3.  Note 48.  Velocity 127
000026t:  Control change ::  Channel 3.  Controller 7.  Value: 15
000027t:  Control change ::  Channel 3.  Controller 7.  Value: 14
000033t:  Control change ::  Channel 3.  Controller 7.  Value: 13
000034t:  Control change ::  Channel 3.  Controller 7.  Value: 12
000026t:  Control change ::  Channel 3.  Controller 7.  Value: 11
000034t:  Control change ::  Channel 3.  Controller 7.  Value: 10
000026t:  Control change ::  Channel 3.  Controller 7.  Value: 9
000034t:  Note on ::  Channel 3.  Note 48.  Velocity 0
000000t:  Control change ::  Channel 3.  Controller 7.  Value: 8
000000t:  Note on ::  Channel 3.  Note 48.  Velocity 127
000026t:  Control change ::  Channel 3.  Controller 7.  Value: 7
000034t:  Control change ::  Channel 3.  Controller 7.  Value: 6
000033t:  Control change ::  Channel 3.  Controller 7.  Value: 5
000027t:  Control change ::  Channel 3.  Controller 7.  Value: 4
000033t:  Control change ::  Channel 3.  Controller 7.  Value: 3
000027t:  Control change ::  Channel 3.  Controller 7.  Value: 2
000033t:  Control change ::  Channel 3.  Controller 7.  Value: 1
000027t:  Note on ::  Channel 3.  Note 48.  Velocity 0
000000t:  Control change ::  Channel 3.  Controller 7.  Value: 0
000000t:  Meta-event type $2f (End-track event) of length 0
Sigma t = 23040

Track chunk of 927 bytes
000000t:  Meta-event type $21 (?) of length 1
	  _
000000t:  Meta-event type $03 (Track name) of length 7
	  Track 5
000000t:  Program (patch) change ::  Channel 4.  Patch 50 (SynthStrings 1)
000000t:  Control change ::  Channel 4.  Controller 7.  Value: 90
000000t:  Control change ::  Channel 4.  Controller 10.  Value: 63
000000t:  Control change ::  Channel 4.  Controller 93.  Value: 86
001920t:  Note on ::  Channel 4.  Note 93.  Velocity 105
000120t:  Note on ::  Channel 4.  Note 93.  Velocity 0
000000t:  Note on ::  Channel 4.  Note 91.  Velocity 105
000120t:  Note on ::  Channel 4.  Note 91.  Velocity 0
000000t:  Note on ::  Channel 4.  Note 90.  Velocity 105
000120t:  Note on ::  Channel 4.  Note 90.  Velocity 0
000000t:  Note on ::  Channel 4.  Note 91.  Velocity 105
000120t:  Note on ::  Channel 4.  Note 91.  Velocity 0
000000t:  Note on ::  Channel 4.  Note 94.  Velocity 105
000120t:  Note on ::  Channel 4.  Note 94.  Velocity 0
000000t:  Note on ::  Channel 4.  Note 93.  Velocity 105
000120t:  Note on ::  Channel 4.  Note 93.  Velocity 0
000000t:  Note on ::  Channel 4.  Note 92.  Velocity 105
000120t:  Note on ::  Channel 4.  Note 92.  Velocity 0
000000t:  Note on ::  Channel 4.  Note 93.  Velocity 105
000120t:  Note on ::  Channel 4.  Note 93.  Velocity 0
000000t:  Note on ::  Channel 4.  Note 96.  Velocity 105
000120t:  Note on ::  Channel 4.  Note 96.  Velocity 0
000000t:  Note on ::  Channel 4.  Note 94.  Velocity 105
000120t:  Note on ::  Channel 4.  Note 94.  Velocity 0
000000t:  Note on ::  Channel 4.  Note 93.  Velocity 105
000120t:  Note on ::  Channel 4.  Note 93.  Velocity 0
000000t:  Note on ::  Channel 4.  Note 94.  Velocity 105
000120t:  Note on ::  Channel 4.  Note 94.  Velocity 0
000000t:  Note on ::  Channel 4.  Note 93.  Velocity 105
000120t:  Note on ::  Channel 4.  Note 93.  Velocity 0
000000t:  Note on ::  Channel 4.  Note 91.  Velocity 105
000120t:  Note on ::  Channel 4.  Note 91.  Velocity 0
000000t:  Note on ::  Channel 4.  Note 89.  Velocity 105
000120t:  Note on ::  Channel 4.  Note 89.  Velocity 0
000000t:  Note on ::  Channel 4.  Note 88.  Velocity 105
000120t:  Note on ::  Channel 4.  Note 88.  Velocity 0
001920t:  Note on ::  Channel 4.  Note 93.  Velocity 105
000120t:  Note on ::  Channel 4.  Note 93.  Velocity 0
000000t:  Note on ::  Channel 4.  Note 91.  Velocity 105
000120t:  Note on ::  Channel 4.  Note 91.  Velocity 0
000000t:  Note on ::  Channel 4.  Note 90.  Velocity 105
000120t:  Note on ::  Channel 4.  Note 90.  Velocity 0
000000t:  Note on ::  Channel 4.  Note 91.  Velocity 105
000120t:  Note on ::  Channel 4.  Note 91.  Velocity 0
000000t:  Note on ::  Channel 4.  Note 94.  Velocity 105
000120t:  Note on ::  Channel 4.  Note 94.  Velocity 0
000000t:  Note on ::  Channel 4.  Note 93.  Velocity 105
000120t:  Note on ::  Channel 4.  Note 93.  Velocity 0
000000t:  Note on ::  Channel 4.  Note 92.  Velocity 105
000120t:  Note on ::  Channel 4.  Note 92.  Velocity 0
000000t:  Note on ::  Channel 4.  Note 93.  Velocity 105
000120t:  Note on ::  Channel 4.  Note 93.  Velocity 0
000000t:  Note on ::  Channel 4.  Note 96.  Velocity 105
000120t:  Note on ::  Channel 4.  Note 96.  Velocity 0
000000t:  Note on ::  Channel 4.  Note 94.  Velocity 105
000120t:  Note on ::  Channel 4.  Note 94.  Velocity 0
000000t:  Note on ::  Channel 4.  Note 93.  Velocity 105
000120t:  Note on ::  Channel 4.  Note 93.  Velocity 0
000000t:  Note on ::  Channel 4.  Note 94.  Velocity 105
000120t:  Note on ::  Channel 4.  Note 94.  Velocity 0
000000t:  Note on ::  Channel 4.  Note 93.  Velocity 105
000120t:  Note on ::  Channel 4.  Note 93.  Velocity 0
000000t:  Note on ::  Channel 4.  Note 91.  Velocity 105
000120t:  Note on ::  Channel 4.  Note 91.  Velocity 0
000000t:  Note on ::  Channel 4.  Note 89.  Velocity 105
000120t:  Note on ::  Channel 4.  Note 89.  Velocity 0
000000t:  Note on ::  Channel 4.  Note 88.  Velocity 105
000120t:  Note on ::  Channel 4.  Note 88.  Velocity 0
001920t:  Note on ::  Channel 4.  Note 93.  Velocity 105
000120t:  Note on ::  Channel 4.  Note 93.  Velocity 0
000000t:  Note on ::  Channel 4.  Note 91.  Velocity 105
000120t:  Note on ::  Channel 4.  Note 91.  Velocity 0
000000t:  Note on ::  Channel 4.  Note 90.  Velocity 105
000120t:  Note on ::  Channel 4.  Note 90.  Velocity 0
000000t:  Note on ::  Channel 4.  Note 91.  Velocity 105
000120t:  Note on ::  Channel 4.  Note 91.  Velocity 0
000000t:  Note on ::  Channel 4.  Note 94.  Velocity 105
000120t:  Note on ::  Channel 4.  Note 94.  Velocity 0
000000t:  Note on ::  Channel 4.  Note 93.  Velocity 105
000120t:  Note on ::  Channel 4.  Note 93.  Velocity 0
000000t:  Note on ::  Channel 4.  Note 92.  Velocity 105
000120t:  Note on ::  Channel 4.  Note 92.  Velocity 0
000000t:  Note on ::  Channel 4.  Note 93.  Velocity 105
000120t:  Note on ::  Channel 4.  Note 93.  Velocity 0
000000t:  Note on ::  Channel 4.  Note 96.  Velocity 105
000120t:  Note on ::  Channel 4.  Note 96.  Velocity 0
000000t:  Note on ::  Channel 4.  Note 94.  Velocity 105
000120t:  Note on ::  Channel 4.  Note 94.  Velocity 0
000000t:  Note on ::  Channel 4.  Note 93.  Velocity 105
000120t:  Note on ::  Channel 4.  Note 93.  Velocity 0
000000t:  Note on ::  Channel 4.  Note 94.  Velocity 105
000120t:  Note on ::  Channel 4.  Note 94.  Velocity 0
000000t:  Note on ::  Channel 4.  Note 93.  Velocity 105
000120t:  Note on ::  Channel 4.  Note 93.  Velocity 0
000000t:  Note on ::  Channel 4.  Note 91.  Velocity 105
000120t:  Note on ::  Channel 4.  Note 91.  Velocity 0
000000t:  Note on ::  Channel 4.  Note 89.  Velocity 105
000120t:  Note on ::  Channel 4.  Note 89.  Velocity 0
000000t:  Note on ::  Channel 4.  Note 88.  Velocity 105
000120t:  Note on ::  Channel 4.  Note 88.  Velocity 0
001920t:  Note on ::  Channel 4.  Note 93.  Velocity 105
000120t:  Note on ::  Channel 4.  Note 93.  Velocity 0
000000t:  Note on ::  Channel 4.  Note 91.  Velocity 105
000120t:  Note on ::  Channel 4.  Note 91.  Velocity 0
000000t:  Note on ::  Channel 4.  Note 90.  Velocity 105
000120t:  Note on ::  Channel 4.  Note 90.  Velocity 0
000000t:  Note on ::  Channel 4.  Note 91.  Velocity 105
000120t:  Note on ::  Channel 4.  Note 91.  Velocity 0
000000t:  Note on ::  Channel 4.  Note 94.  Velocity 105
000120t:  Note on ::  Channel 4.  Note 94.  Velocity 0
000000t:  Note on ::  Channel 4.  Note 93.  Velocity 105
000120t:  Note on ::  Channel 4.  Note 93.  Velocity 0
000000t:  Note on ::  Channel 4.  Note 92.  Velocity 105
000120t:  Note on ::  Channel 4.  Note 92.  Velocity 0
000000t:  Note on ::  Channel 4.  Note 93.  Velocity 105
000120t:  Note on ::  Channel 4.  Note 93.  Velocity 0
000000t:  Note on ::  Channel 4.  Note 96.  Velocity 105
000120t:  Note on ::  Channel 4.  Note 96.  Velocity 0
000000t:  Note on ::  Channel 4.  Note 94.  Velocity 105
000120t:  Note on ::  Channel 4.  Note 94.  Velocity 0
000000t:  Note on ::  Channel 4.  Note 93.  Velocity 105
000120t:  Note on ::  Channel 4.  Note 93.  Velocity 0
000000t:  Note on ::  Channel 4.  Note 94.  Velocity 105
000120t:  Note on ::  Channel 4.  Note 94.  Velocity 0
000000t:  Note on ::  Channel 4.  Note 93.  Velocity 105
000120t:  Note on ::  Channel 4.  Note 93.  Velocity 0
000000t:  Note on ::  Channel 4.  Note 91.  Velocity 105
000120t:  Note on ::  Channel 4.  Note 91.  Velocity 0
000000t:  Note on ::  Channel 4.  Note 89.  Velocity 105
000120t:  Note on ::  Channel 4.  Note 89.  Velocity 0
000000t:  Note on ::  Channel 4.  Note 88.  Velocity 105
000120t:  Note on ::  Channel 4.  Note 88.  Velocity 0
001920t:  Note on ::  Channel 4.  Note 93.  Velocity 105
000120t:  Note on ::  Channel 4.  Note 93.  Velocity 0
000000t:  Note on ::  Channel 4.  Note 91.  Velocity 105
000120t:  Note on ::  Channel 4.  Note 91.  Velocity 0
000000t:  Note on ::  Channel 4.  Note 90.  Velocity 105
000120t:  Note on ::  Channel 4.  Note 90.  Velocity 0
000000t:  Note on ::  Channel 4.  Note 91.  Velocity 105
000120t:  Note on ::  Channel 4.  Note 91.  Velocity 0
000000t:  Note on ::  Channel 4.  Note 94.  Velocity 105
000120t:  Note on ::  Channel 4.  Note 94.  Velocity 0
000000t:  Note on ::  Channel 4.  Note 93.  Velocity 105
000120t:  Note on ::  Channel 4.  Note 93.  Velocity 0
000000t:  Note on ::  Channel 4.  Note 92.  Velocity 105
000120t:  Note on ::  Channel 4.  Note 92.  Velocity 0
000000t:  Note on ::  Channel 4.  Note 93.  Velocity 105
000120t:  Note on ::  Channel 4.  Note 93.  Velocity 0
000000t:  Note on ::  Channel 4.  Note 96.  Velocity 105
000120t:  Note on ::  Channel 4.  Note 96.  Velocity 0
000000t:  Note on ::  Channel 4.  Note 94.  Velocity 105
000120t:  Note on ::  Channel 4.  Note 94.  Velocity 0
000000t:  Note on ::  Channel 4.  Note 93.  Velocity 105
000120t:  Note on ::  Channel 4.  Note 93.  Velocity 0
000000t:  Note on ::  Channel 4.  Note 94.  Velocity 105
000120t:  Note on ::  Channel 4.  Note 94.  Velocity 0
000000t:  Note on ::  Channel 4.  Note 93.  Velocity 105
000120t:  Note on ::  Channel 4.  Note 93.  Velocity 0
000000t:  Note on ::  Channel 4.  Note 91.  Velocity 105
000120t:  Note on ::  Channel 4.  Note 91.  Velocity 0
000000t:  Note on ::  Channel 4.  Note 89.  Velocity 105
000120t:  Note on ::  Channel 4.  Note 89.  Velocity 0
000000t:  Note on ::  Channel 4.  Note 88.  Velocity 105
000120t:  Note on ::  Channel 4.  Note 88.  Velocity 0
000006t:  Control change ::  Channel 4.  Controller 7.  Value: 90
000047t:  Control change ::  Channel 4.  Controller 7.  Value: 89
000040t:  Control change ::  Channel 4.  Controller 7.  Value: 88
000047t:  Control change ::  Channel 4.  Controller 7.  Value: 87
000040t:  Control change ::  Channel 4.  Controller 7.  Value: 86
000040t:  Control change ::  Channel 4.  Controller 7.  Value: 85
000046t:  Control change ::  Channel 4.  Controller 7.  Value: 84
000040t:  Control change ::  Channel 4.  Controller 7.  Value: 83
000047t:  Control change ::  Channel 4.  Controller 7.  Value: 82
000040t:  Control change ::  Channel 4.  Controller 7.  Value: 81
000040t:  Control change ::  Channel 4.  Controller 7.  Value: 80
000047t:  Control change ::  Channel 4.  Controller 7.  Value: 79
000040t:  Control change ::  Channel 4.  Controller 7.  Value: 78
000046t:  Control change ::  Channel 4.  Controller 7.  Value: 77
000040t:  Control change ::  Channel 4.  Controller 7.  Value: 76
000040t:  Control change ::  Channel 4.  Controller 7.  Value: 75
000047t:  Control change ::  Channel 4.  Controller 7.  Value: 74
000040t:  Control change ::  Channel 4.  Controller 7.  Value: 73
000040t:  Control change ::  Channel 4.  Controller 7.  Value: 72
000047t:  Control change ::  Channel 4.  Controller 7.  Value: 71
000040t:  Control change ::  Channel 4.  Controller 7.  Value: 70
000046t:  Control change ::  Channel 4.  Controller 7.  Value: 69
000040t:  Control change ::  Channel 4.  Controller 7.  Value: 68
000040t:  Control change ::  Channel 4.  Controller 7.  Value: 67
000047t:  Control change ::  Channel 4.  Controller 7.  Value: 66
000040t:  Control change ::  Channel 4.  Controller 7.  Value: 65
000047t:  Control change ::  Channel 4.  Controller 7.  Value: 64
000040t:  Control change ::  Channel 4.  Controller 7.  Value: 63
000040t:  Control change ::  Channel 4.  Controller 7.  Value: 62
000046t:  Control change ::  Channel 4.  Controller 7.  Value: 61
000040t:  Control change ::  Channel 4.  Controller 7.  Value: 60
000047t:  Control change ::  Channel 4.  Controller 7.  Value: 59
000040t:  Control change ::  Channel 4.  Controller 7.  Value: 58
000040t:  Control change ::  Channel 4.  Controller 7.  Value: 57
000047t:  Control change ::  Channel 4.  Controller 7.  Value: 56
000040t:  Control change ::  Channel 4.  Controller 7.  Value: 55
000040t:  Control change ::  Channel 4.  Controller 7.  Value: 54
000046t:  Control change ::  Channel 4.  Controller 7.  Value: 53
000040t:  Control change ::  Channel 4.  Controller 7.  Value: 52
000047t:  Control change ::  Channel 4.  Controller 7.  Value: 51
000040t:  Control change ::  Channel 4.  Controller 7.  Value: 50
000040t:  Control change ::  Channel 4.  Controller 7.  Value: 49
000047t:  Control change ::  Channel 4.  Controller 7.  Value: 48
000040t:  Control change ::  Channel 4.  Controller 7.  Value: 47
000046t:  Control change ::  Channel 4.  Controller 7.  Value: 46
000034t:  Note on ::  Channel 4.  Note 93.  Velocity 105
000006t:  Control change ::  Channel 4.  Controller 7.  Value: 45
000040t:  Control change ::  Channel 4.  Controller 7.  Value: 44
000047t:  Control change ::  Channel 4.  Controller 7.  Value: 43
000027t:  Note on ::  Channel 4.  Note 93.  Velocity 0
000000t:  Note on ::  Channel 4.  Note 91.  Velocity 105
000013t:  Control change ::  Channel 4.  Controller 7.  Value: 42
000047t:  Control change ::  Channel 4.  Controller 7.  Value: 41
000040t:  Control change ::  Channel 4.  Controller 7.  Value: 40
000020t:  Note on ::  Channel 4.  Note 91.  Velocity 0
000000t:  Note on ::  Channel 4.  Note 90.  Velocity 105
000020t:  Control change ::  Channel 4.  Controller 7.  Value: 39
000046t:  Control change ::  Channel 4.  Controller 7.  Value: 38
000040t:  Control change ::  Channel 4.  Controller 7.  Value: 37
000014t:  Note on ::  Channel 4.  Note 90.  Velocity 0
000000t:  Note on ::  Channel 4.  Note 91.  Velocity 105
000026t:  Control change ::  Channel 4.  Controller 7.  Value: 36
000047t:  Control change ::  Channel 4.  Controller 7.  Value: 35
000040t:  Control change ::  Channel 4.  Controller 7.  Value: 34
000007t:  Note on ::  Channel 4.  Note 91.  Velocity 0
000000t:  Note on ::  Channel 4.  Note 94.  Velocity 105
000040t:  Control change ::  Channel 4.  Controller 7.  Value: 33
000040t:  Control change ::  Channel 4.  Controller 7.  Value: 32
000040t:  Note on ::  Channel 4.  Note 94.  Velocity 0
000000t:  Control change ::  Channel 4.  Controller 7.  Value: 31
000000t:  Note on ::  Channel 4.  Note 93.  Velocity 105
000046t:  Control change ::  Channel 4.  Controller 7.  Value: 30
000040t:  Control change ::  Channel 4.  Controller 7.  Value: 29
000034t:  Note on ::  Channel 4.  Note 93.  Velocity 0
000000t:  Note on ::  Channel 4.  Note 92.  Velocity 105
000013t:  Control change ::  Channel 4.  Controller 7.  Value: 28
000040t:  Control change ::  Channel 4.  Controller 7.  Value: 27
000040t:  Control change ::  Channel 4.  Controller 7.  Value: 26
000027t:  Note on ::  Channel 4.  Note 92.  Velocity 0
000000t:  Note on ::  Channel 4.  Note 93.  Velocity 105
000020t:  Control change ::  Channel 4.  Controller 7.  Value: 25
000040t:  Control change ::  Channel 4.  Controller 7.  Value: 24
000046t:  Control change ::  Channel 4.  Controller 7.  Value: 23
000014t:  Note on ::  Channel 4.  Note 93.  Velocity 0
000000t:  Note on ::  Channel 4.  Note 96.  Velocity 105
000026t:  Control change ::  Channel 4.  Controller 7.  Value: 22
000040t:  Control change ::  Channel 4.  Controller 7.  Value: 21
000047t:  Control change ::  Channel 4.  Controller 7.  Value: 20
000007t:  Note on ::  Channel 4.  Note 96.  Velocity 0
000000t:  Note on ::  Channel 4.  Note 94.  Velocity 105
000033t:  Control change ::  Channel 4.  Controller 7.  Value: 19
000040t:  Control change ::  Channel 4.  Controller 7.  Value: 18
000047t:  Note on ::  Channel 4.  Note 94.  Velocity 0
000000t:  Control change ::  Channel 4.  Controller 7.  Value: 17
000000t:  Note on ::  Channel 4.  Note 93.  Velocity 105
000040t:  Control change ::  Channel 4.  Controller 7.  Value: 16
000046t:  Control change ::  Channel 4.  Controller 7.  Value: 15
000034t:  Note on ::  Channel 4.  Note 93.  Velocity 0
000000t:  Note on ::  Channel 4.  Note 94.  Velocity 105
000006t:  Control change ::  Channel 4.  Controller 7.  Value: 14
000040t:  Control change ::  Channel 4.  Controller 7.  Value: 13
000047t:  Control change ::  Channel 4.  Controller 7.  Value: 12
000027t:  Note on ::  Channel 4.  Note 94.  Velocity 0
000000t:  Note on ::  Channel 4.  Note 93.  Velocity 105
000013t:  Control change ::  Channel 4.  Controller 7.  Value: 11
000047t:  Control change ::  Channel 4.  Controller 7.  Value: 10
000040t:  Control change ::  Channel 4.  Controller 7.  Value: 9
000020t:  Note on ::  Channel 4.  Note 93.  Velocity 0
000000t:  Note on ::  Channel 4.  Note 91.  Velocity 105
000020t:  Control change ::  Channel 4.  Controller 7.  Value: 8
000046t:  Control change ::  Channel 4.  Controller 7.  Value: 7
000040t:  Control change ::  Channel 4.  Controller 7.  Value: 6
000014t:  Note on ::  Channel 4.  Note 91.  Velocity 0
000000t:  Note on ::  Channel 4.  Note 89.  Velocity 105
000033t:  Control change ::  Channel 4.  Controller 7.  Value: 5
000040t:  Control change ::  Channel 4.  Controller 7.  Value: 4
000040t:  Control change ::  Channel 4.  Controller 7.  Value: 3
000007t:  Note on ::  Channel 4.  Note 89.  Velocity 0
000000t:  Note on ::  Channel 4.  Note 88.  Velocity 105
000040t:  Control change ::  Channel 4.  Controller 7.  Value: 2
000040t:  Control change ::  Channel 4.  Controller 7.  Value: 1
000040t:  Note on ::  Channel 4.  Note 88.  Velocity 0
000000t:  Control change ::  Channel 4.  Controller 7.  Value: 0
000000t:  Meta-event type $2f (End-track event) of length 0
Sigma t = 23040

Track chunk of 1120 bytes
000000t:  Meta-event type $21 (?) of length 1
	  _
000000t:  Meta-event type $03 (Track name) of length 7
	  Track 6
000000t:  Program (patch) change ::  Channel 5.  Patch 89 (Pad 2 (warm))
000000t:  Control change ::  Channel 5.  Controller 7.  Value: 75
000000t:  Control change ::  Channel 5.  Controller 10.  Value: 63
000000t:  Control change ::  Channel 5.  Controller 93.  Value: 82
000000t:  Note on ::  Channel 5.  Note 70.  Velocity 127
000000t:  Note on ::  Channel 5.  Note 74.  Velocity 127
000480t:  Note on ::  Channel 5.  Note 74.  Velocity 0
000000t:  Note on ::  Channel 5.  Note 70.  Velocity 0
000000t:  Note on ::  Channel 5.  Note 69.  Velocity 127
000000t:  Note on ::  Channel 5.  Note 72.  Velocity 127
000480t:  Note on ::  Channel 5.  Note 72.  Velocity 0
000000t:  Note on ::  Channel 5.  Note 69.  Velocity 0
000000t:  Note on ::  Channel 5.  Note 67.  Velocity 127
000000t:  Note on ::  Channel 5.  Note 70.  Velocity 127
000480t:  Note on ::  Channel 5.  Note 70.  Velocity 0
000000t:  Note on ::  Channel 5.  Note 67.  Velocity 0
000000t:  Note on ::  Channel 5.  Note 65.  Velocity 127
000000t:  Note on ::  Channel 5.  Note 69.  Velocity 127
000480t:  Note on ::  Channel 5.  Note 69.  Velocity 0
000000t:  Note on ::  Channel 5.  Note 65.  Velocity 0
000000t:  Note on ::  Channel 5.  Note 65.  Velocity 100
000000t:  Note on ::  Channel 5.  Note 70.  Velocity 127
000000t:  Note on ::  Channel 5.  Note 74.  Velocity 127
000480t:  Note on ::  Channel 5.  Note 74.  Velocity 0
000000t:  Note on ::  Channel 5.  Note 70.  Velocity 0
000000t:  Note on ::  Channel 5.  Note 65.  Velocity 0
000000t:  Note on ::  Channel 5.  Note 69.  Velocity 127
000000t:  Note on ::  Channel 5.  Note 72.  Velocity 127
000000t:  Note on ::  Channel 5.  Note 75.  Velocity 127
000240t:  Note on ::  Channel 5.  Note 75.  Velocity 0
000000t:  Note on ::  Channel 5.  Note 74.  Velocity 127
000240t:  Note on ::  Channel 5.  Note 74.  Velocity 0
000000t:  Note on ::  Channel 5.  Note 72.  Velocity 0
000000t:  Note on ::  Channel 5.  Note 69.  Velocity 0
000000t:  Note on ::  Channel 5.  Note 67.  Velocity 127
000000t:  Note on ::  Channel 5.  Note 70.  Velocity 127
000000t:  Note on ::  Channel 5.  Note 74.  Velocity 127
000480t:  Note on ::  Channel 5.  Note 74.  Velocity 0
000000t:  Note on ::  Channel 5.  Note 70.  Velocity 0
000000t:  Note on ::  Channel 5.  Note 67.  Velocity 0
000000t:  Note on ::  Channel 5.  Note 67.  Velocity 127
000000t:  Note on ::  Channel 5.  Note 70.  Velocity 127
000000t:  Note on ::  Channel 5.  Note 72.  Velocity 127
000000t:  Note on ::  Channel 5.  Note 76.  Velocity 127
000480t:  Note on ::  Channel 5.  Note 76.  Velocity 0
000000t:  Note on ::  Channel 5.  Note 67.  Velocity 0
000000t:  Note on ::  Channel 5.  Note 70.  Velocity 0
000000t:  Note on ::  Channel 5.  Note 72.  Velocity 0
000000t:  Note on ::  Channel 5.  Note 70.  Velocity 127
000000t:  Note on ::  Channel 5.  Note 74.  Velocity 127
000480t:  Note on ::  Channel 5.  Note 74.  Velocity 0
000000t:  Note on ::  Channel 5.  Note 70.  Velocity 0
000000t:  Note on ::  Channel 5.  Note 69.  Velocity 127
000000t:  Note on ::  Channel 5.  Note 72.  Velocity 127
000480t:  Note on ::  Channel 5.  Note 72.  Velocity 0
000000t:  Note on ::  Channel 5.  Note 69.  Velocity 0
000000t:  Note on ::  Channel 5.  Note 67.  Velocity 127
000000t:  Note on ::  Channel 5.  Note 70.  Velocity 127
000480t:  Note on ::  Channel 5.  Note 70.  Velocity 0
000000t:  Note on ::  Channel 5.  Note 67.  Velocity 0
000000t:  Note on ::  Channel 5.  Note 65.  Velocity 127
000000t:  Note on ::  Channel 5.  Note 69.  Velocity 127
000480t:  Note on ::  Channel 5.  Note 69.  Velocity 0
000000t:  Note on ::  Channel 5.  Note 65.  Velocity 0
000000t:  Note on ::  Channel 5.  Note 65.  Velocity 100
000000t:  Note on ::  Channel 5.  Note 70.  Velocity 127
000000t:  Note on ::  Channel 5.  Note 74.  Velocity 127
000480t:  Note on ::  Channel 5.  Note 74.  Velocity 0
000000t:  Note on ::  Channel 5.  Note 70.  Velocity 0
000000t:  Note on ::  Channel 5.  Note 65.  Velocity 0
000000t:  Note on ::  Channel 5.  Note 69.  Velocity 127
000000t:  Note on ::  Channel 5.  Note 72.  Velocity 127
000000t:  Note on ::  Channel 5.  Note 75.  Velocity 127
000240t:  Note on ::  Channel 5.  Note 75.  Velocity 0
000000t:  Note on ::  Channel 5.  Note 74.  Velocity 127
000240t:  Note on ::  Channel 5.  Note 74.  Velocity 0
000000t:  Note on ::  Channel 5.  Note 72.  Velocity 0
000000t:  Note on ::  Channel 5.  Note 69.  Velocity 0
000000t:  Note on ::  Channel 5.  Note 67.  Velocity 127
000000t:  Note on ::  Channel 5.  Note 70.  Velocity 127
000000t:  Note on ::  Channel 5.  Note 74.  Velocity 127
000480t:  Note on ::  Channel 5.  Note 74.  Velocity 0
000000t:  Note on ::  Channel 5.  Note 70.  Velocity 0
000000t:  Note on ::  Channel 5.  Note 67.  Velocity 0
000000t:  Note on ::  Channel 5.  Note 67.  Velocity 127
000000t:  Note on ::  Channel 5.  Note 70.  Velocity 127
000000t:  Note on ::  Channel 5.  Note 72.  Velocity 127
000000t:  Note on ::  Channel 5.  Note 76.  Velocity 127
000480t:  Note on ::  Channel 5.  Note 76.  Velocity 0
000000t:  Note on ::  Channel 5.  Note 67.  Velocity 0
000000t:  Note on ::  Channel 5.  Note 70.  Velocity 0
000000t:  Note on ::  Channel 5.  Note 72.  Velocity 0
000000t:  Note on ::  Channel 5.  Note 70.  Velocity 127
000000t:  Note on ::  Channel 5.  Note 74.  Velocity 127
000480t:  Note on ::  Channel 5.  Note 74.  Velocity 0
000000t:  Note on ::  Channel 5.  Note 70.  Velocity 0
000000t:  Note on ::  Channel 5.  Note 69.  Velocity 127
000000t:  Note on ::  Channel 5.  Note 72.  Velocity 127
000480t:  Note on ::  Channel 5.  Note 72.  Velocity 0
000000t:  Note on ::  Channel 5.  Note 69.  Velocity 0
000000t:  Note on ::  Channel 5.  Note 67.  Velocity 127
000000t:  Note on ::  Channel 5.  Note 70.  Velocity 127
000480t:  Note on ::  Channel 5.  Note 70.  Velocity 0
000000t:  Note on ::  Channel 5.  Note 67.  Velocity 0
000000t:  Note on ::  Channel 5.  Note 65.  Velocity 127
000000t:  Note on ::  Channel 5.  Note 69.  Velocity 127
000480t:  Note on ::  Channel 5.  Note 69.  Velocity 0
000000t:  Note on ::  Channel 5.  Note 65.  Velocity 0
000000t:  Note on ::  Channel 5.  Note 65.  Velocity 100
000000t:  Note on ::  Channel 5.  Note 70.  Velocity 127
000000t:  Note on ::  Channel 5.  Note 74.  Velocity 127
000480t:  Note on ::  Channel 5.  Note 74.  Velocity 0
000000t:  Note on ::  Channel 5.  Note 70.  Velocity 0
000000t:  Note on ::  Channel 5.  Note 65.  Velocity 0
000000t:  Note on ::  Channel 5.  Note 69.  Velocity 127
000000t:  Note on ::  Channel 5.  Note 72.  Velocity 127
000000t:  Note on ::  Channel 5.  Note 75.  Velocity 127
000240t:  Note on ::  Channel 5.  Note 75.  Velocity 0
000000t:  Note on ::  Channel 5.  Note 74.  Velocity 127
000240t:  Note on ::  Channel 5.  Note 74.  Velocity 0
000000t:  Note on ::  Channel 5.  Note 72.  Velocity 0
000000t:  Note on ::  Channel 5.  Note 69.  Velocity 0
000000t:  Note on ::  Channel 5.  Note 67.  Velocity 127
000000t:  Note on ::  Channel 5.  Note 70.  Velocity 127
000000t:  Note on ::  Channel 5.  Note 74.  Velocity 127
000480t:  Note on ::  Channel 5.  Note 74.  Velocity 0
000000t:  Note on ::  Channel 5.  Note 70.  Velocity 0
000000t:  Note on ::  Channel 5.  Note 67.  Velocity 0
000000t:  Note on ::  Channel 5.  Note 67.  Velocity 127
000000t:  Note on ::  Channel 5.  Note 70.  Velocity 127
000000t:  Note on ::  Channel 5.  Note 72.  Velocity 127
000000t:  Note on ::  Channel 5.  Note 76.  Velocity 127
000480t:  Note on ::  Channel 5.  Note 76.  Velocity 0
000000t:  Note on ::  Channel 5.  Note 67.  Velocity 0
000000t:  Note on ::  Channel 5.  Note 70.  Velocity 0
000000t:  Note on ::  Channel 5.  Note 72.  Velocity 0
000000t:  Note on ::  Channel 5.  Note 70.  Velocity 127
000000t:  Note on ::  Channel 5.  Note 74.  Velocity 127
000480t:  Note on ::  Channel 5.  Note 74.  Velocity 0
000000t:  Note on ::  Channel 5.  Note 70.  Velocity 0
000000t:  Note on ::  Channel 5.  Note 69.  Velocity 127
000000t:  Note on ::  Channel 5.  Note 72.  Velocity 127
000480t:  Note on ::  Channel 5.  Note 72.  Velocity 0
000000t:  Note on ::  Channel 5.  Note 69.  Velocity 0
000000t:  Note on ::  Channel 5.  Note 67.  Velocity 127
000000t:  Note on ::  Channel 5.  Note 70.  Velocity 127
000480t:  Note on ::  Channel 5.  Note 70.  Velocity 0
000000t:  Note on ::  Channel 5.  Note 67.  Velocity 0
000000t:  Note on ::  Channel 5.  Note 65.  Velocity 127
000000t:  Note on ::  Channel 5.  Note 69.  Velocity 127
000480t:  Note on ::  Channel 5.  Note 69.  Velocity 0
000000t:  Note on ::  Channel 5.  Note 65.  Velocity 0
000000t:  Note on ::  Channel 5.  Note 65.  Velocity 100
000000t:  Note on ::  Channel 5.  Note 70.  Velocity 127
000000t:  Note on ::  Channel 5.  Note 74.  Velocity 127
000480t:  Note on ::  Channel 5.  Note 74.  Velocity 0
000000t:  Note on ::  Channel 5.  Note 70.  Velocity 0
000000t:  Note on ::  Channel 5.  Note 65.  Velocity 0
000000t:  Note on ::  Channel 5.  Note 69.  Velocity 127
000000t:  Note on ::  Channel 5.  Note 72.  Velocity 127
000000t:  Note on ::  Channel 5.  Note 75.  Velocity 127
000240t:  Note on ::  Channel 5.  Note 75.  Velocity 0
000000t:  Note on ::  Channel 5.  Note 74.  Velocity 127
000240t:  Note on ::  Channel 5.  Note 74.  Velocity 0
000000t:  Note on ::  Channel 5.  Note 72.  Velocity 0
000000t:  Note on ::  Channel 5.  Note 69.  Velocity 0
000000t:  Note on ::  Channel 5.  Note 67.  Velocity 127
000000t:  Note on ::  Channel 5.  Note 70.  Velocity 127
000000t:  Note on ::  Channel 5.  Note 74.  Velocity 127
000480t:  Note on ::  Channel 5.  Note 74.  Velocity 0
000000t:  Note on ::  Channel 5.  Note 70.  Velocity 0
000000t:  Note on ::  Channel 5.  Note 67.  Velocity 0
000000t:  Note on ::  Channel 5.  Note 67.  Velocity 127
000000t:  Note on ::  Channel 5.  Note 70.  Velocity 127
000000t:  Note on ::  Channel 5.  Note 72.  Velocity 127
000000t:  Note on ::  Channel 5.  Note 76.  Velocity 127
000480t:  Note on ::  Channel 5.  Note 76.  Velocity 0
000000t:  Note on ::  Channel 5.  Note 67.  Velocity 0
000000t:  Note on ::  Channel 5.  Note 70.  Velocity 0
000000t:  Note on ::  Channel 5.  Note 72.  Velocity 0
000000t:  Note on ::  Channel 5.  Note 70.  Velocity 127
000000t:  Note on ::  Channel 5.  Note 74.  Velocity 127
000480t:  Note on ::  Channel 5.  Note 74.  Velocity 0
000000t:  Note on ::  Channel 5.  Note 70.  Velocity 0
000000t:  Note on ::  Channel 5.  Note 69.  Velocity 127
000000t:  Note on ::  Channel 5.  Note 72.  Velocity 127
000480t:  Note on ::  Channel 5.  Note 72.  Velocity 0
000000t:  Note on ::  Channel 5.  Note 69.  Velocity 0
000000t:  Note on ::  Channel 5.  Note 67.  Velocity 127
000000t:  Note on ::  Channel 5.  Note 70.  Velocity 127
000480t:  Note on ::  Channel 5.  Note 70.  Velocity 0
000000t:  Note on ::  Channel 5.  Note 67.  Velocity 0
000000t:  Note on ::  Channel 5.  Note 65.  Velocity 127
000000t:  Note on ::  Channel 5.  Note 69.  Velocity 127
000480t:  Note on ::  Channel 5.  Note 69.  Velocity 0
000000t:  Note on ::  Channel 5.  Note 65.  Velocity 0
000000t:  Note on ::  Channel 5.  Note 65.  Velocity 100
000000t:  Note on ::  Channel 5.  Note 70.  Velocity 127
000000t:  Note on ::  Channel 5.  Note 74.  Velocity 127
000480t:  Note on ::  Channel 5.  Note 74.  Velocity 0
000000t:  Note on ::  Channel 5.  Note 70.  Velocity 0
000000t:  Note on ::  Channel 5.  Note 65.  Velocity 0
000000t:  Note on ::  Channel 5.  Note 69.  Velocity 127
000000t:  Note on ::  Channel 5.  Note 72.  Velocity 127
000000t:  Note on ::  Channel 5.  Note 75.  Velocity 127
000240t:  Note on ::  Channel 5.  Note 75.  Velocity 0
000000t:  Note on ::  Channel 5.  Note 74.  Velocity 127
000240t:  Note on ::  Channel 5.  Note 74.  Velocity 0
000000t:  Note on ::  Channel 5.  Note 72.  Velocity 0
000000t:  Note on ::  Channel 5.  Note 69.  Velocity 0
000000t:  Note on ::  Channel 5.  Note 67.  Velocity 127
000000t:  Note on ::  Channel 5.  Note 70.  Velocity 127
000000t:  Note on ::  Channel 5.  Note 74.  Velocity 127
000480t:  Note on ::  Channel 5.  Note 74.  Velocity 0
000000t:  Note on ::  Channel 5.  Note 70.  Velocity 0
000000t:  Note on ::  Channel 5.  Note 67.  Velocity 0
000000t:  Note on ::  Channel 5.  Note 67.  Velocity 127
000000t:  Note on ::  Channel 5.  Note 70.  Velocity 127
000000t:  Note on ::  Channel 5.  Note 72.  Velocity 127
000000t:  Note on ::  Channel 5.  Note 76.  Velocity 127
000480t:  Note on ::  Channel 5.  Note 76.  Velocity 0
000000t:  Note on ::  Channel 5.  Note 67.  Velocity 0
000000t:  Note on ::  Channel 5.  Note 70.  Velocity 0
000000t:  Note on ::  Channel 5.  Note 72.  Velocity 0
000000t:  Note on ::  Channel 5.  Note 70.  Velocity 127
000000t:  Note on ::  Channel 5.  Note 74.  Velocity 127
000006t:  Control change ::  Channel 5.  Controller 7.  Value: 75
000054t:  Control change ::  Channel 5.  Controller 7.  Value: 74
000053t:  Control change ::  Channel 5.  Controller 7.  Value: 73
000047t:  Control change ::  Channel 5.  Controller 7.  Value: 72
000053t:  Control change ::  Channel 5.  Controller 7.  Value: 71
000053t:  Control change ::  Channel 5.  Controller 7.  Value: 70
000047t:  Control change ::  Channel 5.  Controller 7.  Value: 69
000053t:  Control change ::  Channel 5.  Controller 7.  Value: 68
000054t:  Control change ::  Channel 5.  Controller 7.  Value: 67
000046t:  Control change ::  Channel 5.  Controller 7.  Value: 66
000014t:  Note on ::  Channel 5.  Note 74.  Velocity 0
000000t:  Note on ::  Channel 5.  Note 70.  Velocity 0
000000t:  Note on ::  Channel 5.  Note 69.  Velocity 127
000000t:  Note on ::  Channel 5.  Note 72.  Velocity 127
000040t:  Control change ::  Channel 5.  Controller 7.  Value: 65
000053t:  Control change ::  Channel 5.  Controller 7.  Value: 64
000047t:  Control change ::  Channel 5.  Controller 7.  Value: 63
000053t:  Control change ::  Channel 5.  Controller 7.  Value: 62
000053t:  Control change ::  Channel 5.  Controller 7.  Value: 61
000047t:  Control change ::  Channel 5.  Controller 7.  Value: 60
000053t:  Control change ::  Channel 5.  Controller 7.  Value: 59
000054t:  Control change ::  Channel 5.  Controller 7.  Value: 58
000046t:  Control change ::  Channel 5.  Controller 7.  Value: 57
000034t:  Note on ::  Channel 5.  Note 72.  Velocity 0
000000t:  Note on ::  Channel 5.  Note 69.  Velocity 0
000000t:  Note on ::  Channel 5.  Note 67.  Velocity 127
000000t:  Note on ::  Channel 5.  Note 70.  Velocity 127
000020t:  Control change ::  Channel 5.  Controller 7.  Value: 56
000053t:  Control change ::  Channel 5.  Controller 7.  Value: 55
000047t:  Control change ::  Channel 5.  Controller 7.  Value: 54
000053t:  Control change ::  Channel 5.  Controller 7.  Value: 53
000053t:  Control change ::  Channel 5.  Controller 7.  Value: 52
000047t:  Control change ::  Channel 5.  Controller 7.  Value: 51
000053t:  Control change ::  Channel 5.  Controller 7.  Value: 50
000054t:  Control change ::  Channel 5.  Controller 7.  Value: 49
000046t:  Control change ::  Channel 5.  Controller 7.  Value: 48
000054t:  Note on ::  Channel 5.  Note 70.  Velocity 0
000000t:  Note on ::  Channel 5.  Note 67.  Velocity 0
000000t:  Control change ::  Channel 5.  Controller 7.  Value: 47
000000t:  Note on ::  Channel 5.  Note 65.  Velocity 127
000000t:  Note on ::  Channel 5.  Note 69.  Velocity 127
000053t:  Control change ::  Channel 5.  Controller 7.  Value: 46
000047t:  Control change ::  Channel 5.  Controller 7.  Value: 45
000053t:  Control change ::  Channel 5.  Controller 7.  Value: 44
000053t:  Control change ::  Channel 5.  Controller 7.  Value: 43
000047t:  Control change ::  Channel 5.  Controller 7.  Value: 42
000053t:  Control change ::  Channel 5.  Controller 7.  Value: 41
000054t:  Control change ::  Channel 5.  Controller 7.  Value: 40
000046t:  Control change ::  Channel 5.  Controller 7.  Value: 39
000054t:  Control change ::  Channel 5.  Controller 7.  Value: 38
000020t:  Note on ::  Channel 5.  Note 69.  Velocity 0
000000t:  Note on ::  Channel 5.  Note 65.  Velocity 0
000000t:  Note on ::  Channel 5.  Note 65.  Velocity 100
000000t:  Note on ::  Channel 5.  Note 70.  Velocity 127
000000t:  Note on ::  Channel 5.  Note 74.  Velocity 127
000033t:  Control change ::  Channel 5.  Controller 7.  Value: 37
000047t:  Control change ::  Channel 5.  Controller 7.  Value: 36
000053t:  Control change ::  Channel 5.  Controller 7.  Value: 35
000053t:  Control change ::  Channel 5.  Controller 7.  Value: 34
000047t:  Control change ::  Channel 5.  Controller 7.  Value: 33
000053t:  Control change ::  Channel 5.  Controller 7.  Value: 32
000054t:  Control change ::  Channel 5.  Controller 7.  Value: 31
000046t:  Control change ::  Channel 5.  Controller 7.  Value: 30
000054t:  Control change ::  Channel 5.  Controller 7.  Value: 29
000040t:  Note on ::  Channel 5.  Note 74.  Velocity 0
000000t:  Note on ::  Channel 5.  Note 70.  Velocity 0
000000t:  Note on ::  Channel 5.  Note 65.  Velocity 0
000000t:  Note on ::  Channel 5.  Note 69.  Velocity 127
000000t:  Note on ::  Channel 5.  Note 72.  Velocity 127
000000t:  Note on ::  Channel 5.  Note 75.  Velocity 127
000013t:  Control change ::  Channel 5.  Controller 7.  Value: 28
000047t:  Control change ::  Channel 5.  Controller 7.  Value: 27
000053t:  Control change ::  Channel 5.  Controller 7.  Value: 26
000053t:  Control change ::  Channel 5.  Controller 7.  Value: 25
000047t:  Control change ::  Channel 5.  Controller 7.  Value: 24
000027t:  Note on ::  Channel 5.  Note 75.  Velocity 0
000000t:  Note on ::  Channel 5.  Note 74.  Velocity 127
000026t:  Control change ::  Channel 5.  Controller 7.  Value: 23
000054t:  Control change ::  Channel 5.  Controller 7.  Value: 22
000046t:  Control change ::  Channel 5.  Controller 7.  Value: 21
000054t:  Control change ::  Channel 5.  Controller 7.  Value: 20
000053t:  Control change ::  Channel 5.  Controller 7.  Value: 19
000007t:  Note on ::  Channel 5.  Note 74.  Velocity 0
000000t:  Note on ::  Channel 5.  Note 72.  Velocity 0
000000t:  Note on ::  Channel 5.  Note 69.  Velocity 0
000000t:  Note on ::  Channel 5.  Note 67.  Velocity 127
000000t:  Note on ::  Channel 5.  Note 70.  Velocity 127
000000t:  Note on ::  Channel 5.  Note 74.  Velocity 127
000040t:  Control change ::  Channel 5.  Controller 7.  Value: 18
000053t:  Control change ::  Channel 5.  Controller 7.  Value: 17
000053t:  Control change ::  Channel 5.  Controller 7.  Value: 16
000047t:  Control change ::  Channel 5.  Controller 7.  Value: 15
000053t:  Control change ::  Channel 5.  Controller 7.  Value: 14
000054t:  Control change ::  Channel 5.  Controller 7.  Value: 13
000046t:  Control change ::  Channel 5.  Controller 7.  Value: 12
000054t:  Control change ::  Channel 5.  Controller 7.  Value: 11
000053t:  Control change ::  Channel 5.  Controller 7.  Value: 10
000027t:  Note on ::  Channel 5.  Note 74.  Velocity 0
000000t:  Note on ::  Channel 5.  Note 70.  Velocity 0
000000t:  Note on ::  Channel 5.  Note 67.  Velocity 0
000000t:  Note on ::  Channel 5.  Note 67.  Velocity 127
000000t:  Note on ::  Channel 5.  Note 70.  Velocity 127
000000t:  Note on ::  Channel 5.  Note 72.  Velocity 127
000000t:  Note on ::  Channel 5.  Note 76.  Velocity 127
000020t:  Control change ::  Channel 5.  Controller 7.  Value: 9
000053t:  Control change ::  Channel 5.  Controller 7.  Value: 8
000053t:  Control change ::  Channel 5.  Controller 7.  Value: 7
000047t:  Control change ::  Channel 5.  Controller 7.  Value: 6
000053t:  Control change ::  Channel 5.  Controller 7.  Value: 5
000054t:  Control change ::  Channel 5.  Controller 7.  Value: 4
000046t:  Control change ::  Channel 5.  Controller 7.  Value: 3
000054t:  Control change ::  Channel 5.  Controller 7.  Value: 2
000053t:  Control change ::  Channel 5.  Controller 7.  Value: 1
000047t:  Note on ::  Channel 5.  Note 76.  Velocity 0
000000t:  Note on ::  Channel 5.  Note 67.  Velocity 0
000000t:  Note on ::  Channel 5.  Note 70.  Velocity 0
000000t:  Note on ::  Channel 5.  Note 72.  Velocity 0
000000t:  Control change ::  Channel 5.  Controller 7.  Value: 0
000000t:  Meta-event type $2f (End-track event) of length 0
Sigma t = 23040

Track chunk of 1072 bytes
000000t:  Meta-event type $21 (?) of length 1
	  _
000000t:  Meta-event type $03 (Track name) of length 7
	  Track 7
000000t:  Program (patch) change ::  Channel 6.  Patch 24 (Acoustic Guitar(nylon))
000000t:  Control change ::  Channel 6.  Controller 7.  Value: 127
000000t:  Control change ::  Channel 6.  Controller 10.  Value: 127
000000t:  Control change ::  Channel 6.  Controller 93.  Value: 123
000000t:  Control change ::  Channel 6.  Controller 91.  Value: 126
000000t:  Note on ::  Channel 6.  Note 46.  Velocity 127
000480t:  Note on ::  Channel 6.  Note 46.  Velocity 0
000000t:  Note on ::  Channel 6.  Note 45.  Velocity 127
000240t:  Note on ::  Channel 6.  Note 45.  Velocity 0
000000t:  Note on ::  Channel 6.  Note 45.  Velocity 127
000240t:  Note on ::  Channel 6.  Note 45.  Velocity 0
000000t:  Note on ::  Channel 6.  Note 43.  Velocity 127
000240t:  Note on ::  Channel 6.  Note 43.  Velocity 0
000000t:  Note on ::  Channel 6.  Note 43.  Velocity 127
000240t:  Note on ::  Channel 6.  Note 43.  Velocity 0
000000t:  Note on ::  Channel 6.  Note 41.  Velocity 127
000240t:  Note on ::  Channel 6.  Note 41.  Velocity 0
000000t:  Note on ::  Channel 6.  Note 41.  Velocity 127
000240t:  Note on ::  Channel 6.  Note 41.  Velocity 0
000000t:  Note on ::  Channel 6.  Note 46.  Velocity 127
000240t:  Note on ::  Channel 6.  Note 46.  Velocity 0
000000t:  Note on ::  Channel 6.  Note 46.  Velocity 127
000240t:  Note on ::  Channel 6.  Note 46.  Velocity 0
000000t:  Note on ::  Channel 6.  Note 45.  Velocity 127
000240t:  Note on ::  Channel 6.  Note 45.  Velocity 0
000000t:  Note on ::  Channel 6.  Note 50.  Velocity 127
000240t:  Note on ::  Channel 6.  Note 50.  Velocity 0
000000t:  Note on ::  Channel 6.  Note 43.  Velocity 127
000240t:  Note on ::  Channel 6.  Note 43.  Velocity 0
000000t:  Note on ::  Channel 6.  Note 43.  Velocity 127
000240t:  Note on ::  Channel 6.  Note 43.  Velocity 0
000000t:  Note on ::  Channel 6.  Note 48.  Velocity 127
000240t:  Note on ::  Channel 6.  Note 48.  Velocity 0
000000t:  Note on ::  Channel 6.  Note 48.  Velocity 127
000240t:  Note on ::  Channel 6.  Note 48.  Velocity 0
000000t:  Note on ::  Channel 6.  Note 46.  Velocity 127
000480t:  Note on ::  Channel 6.  Note 46.  Velocity 0
000000t:  Note on ::  Channel 6.  Note 45.  Velocity 127
000240t:  Note on ::  Channel 6.  Note 45.  Velocity 0
000000t:  Note on ::  Channel 6.  Note 45.  Velocity 127
000240t:  Note on ::  Channel 6.  Note 45.  Velocity 0
000000t:  Note on ::  Channel 6.  Note 43.  Velocity 127
000240t:  Note on ::  Channel 6.  Note 43.  Velocity 0
000000t:  Note on ::  Channel 6.  Note 43.  Velocity 127
000240t:  Note on ::  Channel 6.  Note 43.  Velocity 0
000000t:  Note on ::  Channel 6.  Note 41.  Velocity 127
000240t:  Note on ::  Channel 6.  Note 41.  Velocity 0
000000t:  Note on ::  Channel 6.  Note 41.  Velocity 127
000240t:  Note on ::  Channel 6.  Note 41.  Velocity 0
000000t:  Note on ::  Channel 6.  Note 46.  Velocity 127
000240t:  Note on ::  Channel 6.  Note 46.  Velocity 0
000000t:  Note on ::  Channel 6.  Note 46.  Velocity 127
000240t:  Note on ::  Channel 6.  Note 46.  Velocity 0
000000t:  Note on ::  Channel 6.  Note 45.  Velocity 127
000240t:  Note on ::  Channel 6.  Note 45.  Velocity 0
000000t:  Note on ::  Channel 6.  Note 50.  Velocity 127
000240t:  Note on ::  Channel 6.  Note 50.  Velocity 0
000000t:  Note on ::  Channel 6.  Note 43.  Velocity 127
000240t:  Note on ::  Channel 6.  Note 43.  Velocity 0
000000t:  Note on ::  Channel 6.  Note 43.  Velocity 127
000240t:  Note on ::  Channel 6.  Note 43.  Velocity 0
000000t:  Note on ::  Channel 6.  Note 48.  Velocity 127
000240t:  Note on ::  Channel 6.  Note 48.  Velocity 0
000000t:  Note on ::  Channel 6.  Note 48.  Velocity 127
000240t:  Note on ::  Channel 6.  Note 48.  Velocity 0
000000t:  Note on ::  Channel 6.  Note 46.  Velocity 127
000480t:  Note on ::  Channel 6.  Note 46.  Velocity 0
000000t:  Note on ::  Channel 6.  Note 45.  Velocity 127
000240t:  Note on ::  Channel 6.  Note 45.  Velocity 0
000000t:  Note on ::  Channel 6.  Note 45.  Velocity 127
000240t:  Note on ::  Channel 6.  Note 45.  Velocity 0
000000t:  Note on ::  Channel 6.  Note 43.  Velocity 127
000240t:  Note on ::  Channel 6.  Note 43.  Velocity 0
000000t:  Note on ::  Channel 6.  Note 43.  Velocity 127
000240t:  Note on ::  Channel 6.  Note 43.  Velocity 0
000000t:  Note on ::  Channel 6.  Note 41.  Velocity 127
000240t:  Note on ::  Channel 6.  Note 41.  Velocity 0
000000t:  Note on ::  Channel 6.  Note 41.  Velocity 127
000240t:  Note on ::  Channel 6.  Note 41.  Velocity 0
000000t:  Note on ::  Channel 6.  Note 46.  Velocity 127
000240t:  Note on ::  Channel 6.  Note 46.  Velocity 0
000000t:  Note on ::  Channel 6.  Note 46.  Velocity 127
000240t:  Note on ::  Channel 6.  Note 46.  Velocity 0
000000t:  Note on ::  Channel 6.  Note 45.  Velocity 127
000240t:  Note on ::  Channel 6.  Note 45.  Velocity 0
000000t:  Note on ::  Channel 6.  Note 50.  Velocity 127
000240t:  Note on ::  Channel 6.  Note 50.  Velocity 0
000000t:  Note on ::  Channel 6.  Note 43.  Velocity 127
000240t:  Note on ::  Channel 6.  Note 43.  Velocity 0
000000t:  Note on ::  Channel 6.  Note 43.  Velocity 127
000240t:  Note on ::  Channel 6.  Note 43.  Velocity 0
000000t:  Note on ::  Channel 6.  Note 48.  Velocity 127
000240t:  Note on ::  Channel 6.  Note 48.  Velocity 0
000000t:  Note on ::  Channel 6.  Note 48.  Velocity 127
000240t:  Note on ::  Channel 6.  Note 48.  Velocity 0
000000t:  Note on ::  Channel 6.  Note 46.  Velocity 127
000480t:  Note on ::  Channel 6.  Note 46.  Velocity 0
000000t:  Note on ::  Channel 6.  Note 45.  Velocity 127
000240t:  Note on ::  Channel 6.  Note 45.  Velocity 0
000000t:  Note on ::  Channel 6.  Note 45.  Velocity 127
000240t:  Note on ::  Channel 6.  Note 45.  Velocity 0
000000t:  Note on ::  Channel 6.  Note 43.  Velocity 127
000240t:  Note on ::  Channel 6.  Note 43.  Velocity 0
000000t:  Note on ::  Channel 6.  Note 43.  Velocity 127
000240t:  Note on ::  Channel 6.  Note 43.  Velocity 0
000000t:  Note on ::  Channel 6.  Note 41.  Velocity 127
000240t:  Note on ::  Channel 6.  Note 41.  Velocity 0
000000t:  Note on ::  Channel 6.  Note 41.  Velocity 127
000240t:  Note on ::  Channel 6.  Note 41.  Velocity 0
000000t:  Note on ::  Channel 6.  Note 46.  Velocity 127
000240t:  Note on ::  Channel 6.  Note 46.  Velocity 0
000000t:  Note on ::  Channel 6.  Note 46.  Velocity 127
000240t:  Note on ::  Channel 6.  Note 46.  Velocity 0
000000t:  Note on ::  Channel 6.  Note 45.  Velocity 127
000240t:  Note on ::  Channel 6.  Note 45.  Velocity 0
000000t:  Note on ::  Channel 6.  Note 50.  Velocity 127
000240t:  Note on ::  Channel 6.  Note 50.  Velocity 0
000000t:  Note on ::  Channel 6.  Note 43.  Velocity 127
000240t:  Note on ::  Channel 6.  Note 43.  Velocity 0
000000t:  Note on ::  Channel 6.  Note 43.  Velocity 127
000240t:  Note on ::  Channel 6.  Note 43.  Velocity 0
000000t:  Note on ::  Channel 6.  Note 48.  Velocity 127
000240t:  Note on ::  Channel 6.  Note 48.  Velocity 0
000000t:  Note on ::  Channel 6.  Note 48.  Velocity 127
000240t:  Note on ::  Channel 6.  Note 48.  Velocity 0
000000t:  Note on ::  Channel 6.  Note 46.  Velocity 127
000480t:  Note on ::  Channel 6.  Note 46.  Velocity 0
000000t:  Note on ::  Channel 6.  Note 45.  Velocity 127
000240t:  Note on ::  Channel 6.  Note 45.  Velocity 0
000000t:  Note on ::  Channel 6.  Note 45.  Velocity 127
000240t:  Note on ::  Channel 6.  Note 45.  Velocity 0
000000t:  Note on ::  Channel 6.  Note 43.  Velocity 127
000240t:  Note on ::  Channel 6.  Note 43.  Velocity 0
000000t:  Note on ::  Channel 6.  Note 43.  Velocity 127
000240t:  Note on ::  Channel 6.  Note 43.  Velocity 0
000000t:  Note on ::  Channel 6.  Note 41.  Velocity 127
000240t:  Note on ::  Channel 6.  Note 41.  Velocity 0
000000t:  Note on ::  Channel 6.  Note 41.  Velocity 127
000240t:  Note on ::  Channel 6.  Note 41.  Velocity 0
000000t:  Note on ::  Channel 6.  Note 46.  Velocity 127
000240t:  Note on ::  Channel 6.  Note 46.  Velocity 0
000000t:  Note on ::  Channel 6.  Note 46.  Velocity 127
000240t:  Note on ::  Channel 6.  Note 46.  Velocity 0
000000t:  Note on ::  Channel 6.  Note 45.  Velocity 127
000240t:  Note on ::  Channel 6.  Note 45.  Velocity 0
000000t:  Note on ::  Channel 6.  Note 50.  Velocity 127
000240t:  Note on ::  Channel 6.  Note 50.  Velocity 0
000000t:  Note on ::  Channel 6.  Note 43.  Velocity 127
000240t:  Note on ::  Channel 6.  Note 43.  Velocity 0
000000t:  Note on ::  Channel 6.  Note 43.  Velocity 127
000240t:  Note on ::  Channel 6.  Note 43.  Velocity 0
000000t:  Note on ::  Channel 6.  Note 48.  Velocity 127
000240t:  Note on ::  Channel 6.  Note 48.  Velocity 0
000000t:  Note on ::  Channel 6.  Note 48.  Velocity 127
000240t:  Note on ::  Channel 6.  Note 48.  Velocity 0
000000t:  Control change ::  Channel 6.  Controller 7.  Value: 126
000000t:  Note on ::  Channel 6.  Note 46.  Velocity 127
000033t:  Control change ::  Channel 6.  Controller 7.  Value: 125
000033t:  Control change ::  Channel 6.  Controller 7.  Value: 124
000027t:  Control change ::  Channel 6.  Controller 7.  Value: 123
000033t:  Control change ::  Channel 6.  Controller 7.  Value: 122
000027t:  Control change ::  Channel 6.  Controller 7.  Value: 121
000033t:  Control change ::  Channel 6.  Controller 7.  Value: 120
000027t:  Control change ::  Channel 6.  Controller 7.  Value: 119
000033t:  Control change ::  Channel 6.  Controller 7.  Value: 118
000034t:  Control change ::  Channel 6.  Controller 7.  Value: 117
000026t:  Control change ::  Channel 6.  Controller 7.  Value: 116
000034t:  Control change ::  Channel 6.  Controller 7.  Value: 115
000026t:  Control change ::  Channel 6.  Controller 7.  Value: 114
000034t:  Control change ::  Channel 6.  Controller 7.  Value: 113
000026t:  Control change ::  Channel 6.  Controller 7.  Value: 112
000034t:  Control change ::  Channel 6.  Controller 7.  Value: 111
000020t:  Note on ::  Channel 6.  Note 46.  Velocity 0
000000t:  Note on ::  Channel 6.  Note 45.  Velocity 127
000013t:  Control change ::  Channel 6.  Controller 7.  Value: 110
000027t:  Control change ::  Channel 6.  Controller 7.  Value: 109
000033t:  Control change ::  Channel 6.  Controller 7.  Value: 108
000027t:  Control change ::  Channel 6.  Controller 7.  Value: 107
000033t:  Control change ::  Channel 6.  Controller 7.  Value: 106
000027t:  Control change ::  Channel 6.  Controller 7.  Value: 105
000033t:  Control change ::  Channel 6.  Controller 7.  Value: 104
000033t:  Control change ::  Channel 6.  Controller 7.  Value: 103
000014t:  Note on ::  Channel 6.  Note 45.  Velocity 0
000000t:  Note on ::  Channel 6.  Note 45.  Velocity 127
000013t:  Control change ::  Channel 6.  Controller 7.  Value: 102
000033t:  Control change ::  Channel 6.  Controller 7.  Value: 101
000027t:  Control change ::  Channel 6.  Controller 7.  Value: 100
000033t:  Control change ::  Channel 6.  Controller 7.  Value: 99
000027t:  Control change ::  Channel 6.  Controller 7.  Value: 98
000033t:  Control change ::  Channel 6.  Controller 7.  Value: 97
000034t:  Control change ::  Channel 6.  Controller 7.  Value: 96
000026t:  Control change ::  Channel 6.  Controller 7.  Value: 95
000014t:  Note on ::  Channel 6.  Note 45.  Velocity 0
000000t:  Note on ::  Channel 6.  Note 43.  Velocity 127
000020t:  Control change ::  Channel 6.  Controller 7.  Value: 94
000026t:  Control change ::  Channel 6.  Controller 7.  Value: 93
000034t:  Control change ::  Channel 6.  Controller 7.  Value: 92
000026t:  Control change ::  Channel 6.  Controller 7.  Value: 91
000034t:  Control change ::  Channel 6.  Controller 7.  Value: 90
000033t:  Control change ::  Channel 6.  Controller 7.  Value: 89
000027t:  Control change ::  Channel 6.  Controller 7.  Value: 88
000033t:  Control change ::  Channel 6.  Controller 7.  Value: 87
000007t:  Note on ::  Channel 6.  Note 43.  Velocity 0
000000t:  Note on ::  Channel 6.  Note 43.  Velocity 127
000020t:  Control change ::  Channel 6.  Controller 7.  Value: 86
000033t:  Control change ::  Channel 6.  Controller 7.  Value: 85
000027t:  Control change ::  Channel 6.  Controller 7.  Value: 84
000033t:  Control change ::  Channel 6.  Controller 7.  Value: 83
000033t:  Control change ::  Channel 6.  Controller 7.  Value: 82
000027t:  Control change ::  Channel 6.  Controller 7.  Value: 81
000033t:  Control change ::  Channel 6.  Controller 7.  Value: 80
000027t:  Control change ::  Channel 6.  Controller 7.  Value: 79
000007t:  Note on ::  Channel 6.  Note 43.  Velocity 0
000000t:  Note on ::  Channel 6.  Note 41.  Velocity 127
000026t:  Control change ::  Channel 6.  Controller 7.  Value: 78
000027t:  Control change ::  Channel 6.  Controller 7.  Value: 77
000033t:  Control change ::  Channel 6.  Controller 7.  Value: 76
000034t:  Control change ::  Channel 6.  Controller 7.  Value: 75
000026t:  Control change ::  Channel 6.  Controller 7.  Value: 74
000034t:  Control change ::  Channel 6.  Controller 7.  Value: 73
000026t:  Control change ::  Channel 6.  Controller 7.  Value: 72
000034t:  Note on ::  Channel 6.  Note 41.  Velocity 0
000000t:  Control change ::  Channel 6.  Controller 7.  Value: 71
000000t:  Note on ::  Channel 6.  Note 41.  Velocity 127
000026t:  Control change ::  Channel 6.  Controller 7.  Value: 70
000034t:  Control change ::  Channel 6.  Controller 7.  Value: 69
000033t:  Control change ::  Channel 6.  Controller 7.  Value: 68
000027t:  Control change ::  Channel 6.  Controller 7.  Value: 67
000033t:  Control change ::  Channel 6.  Controller 7.  Value: 66
000027t:  Control change ::  Channel 6.  Controller 7.  Value: 65
000033t:  Control change ::  Channel 6.  Controller 7.  Value: 64
000027t:  Note on ::  Channel 6.  Note 41.  Velocity 0
000000t:  Control change ::  Channel 6.  Controller 7.  Value: 63
000000t:  Note on ::  Channel 6.  Note 46.  Velocity 127
000033t:  Control change ::  Channel 6.  Controller 7.  Value: 62
000033t:  Control change ::  Channel 6.  Controller 7.  Value: 61
000027t:  Control change ::  Channel 6.  Controller 7.  Value: 60
000033t:  Control change ::  Channel 6.  Controller 7.  Value: 59
000027t:  Control change ::  Channel 6.  Controller 7.  Value: 58
000033t:  Control change ::  Channel 6.  Controller 7.  Value: 57
000027t:  Control change ::  Channel 6.  Controller 7.  Value: 56
000027t:  Note on ::  Channel 6.  Note 46.  Velocity 0
000000t:  Note on ::  Channel 6.  Note 46.  Velocity 127
000006t:  Control change ::  Channel 6.  Controller 7.  Value: 55
000034t:  Control change ::  Channel 6.  Controller 7.  Value: 54
000026t:  Control change ::  Channel 6.  Controller 7.  Value: 53
000034t:  Control change ::  Channel 6.  Controller 7.  Value: 52
000026t:  Control change ::  Channel 6.  Controller 7.  Value: 51
000034t:  Control change ::  Channel 6.  Controller 7.  Value: 50
000026t:  Control change ::  Channel 6.  Controller 7.  Value: 49
000034t:  Control change ::  Channel 6.  Controller 7.  Value: 48
000020t:  Note on ::  Channel 6.  Note 46.  Velocity 0
000000t:  Note on ::  Channel 6.  Note 45.  Velocity 127
000013t:  Control change ::  Channel 6.  Controller 7.  Value: 47
000027t:  Control change ::  Channel 6.  Controller 7.  Value: 46
000033t:  Control change ::  Channel 6.  Controller 7.  Value: 45
000027t:  Control change ::  Channel 6.  Controller 7.  Value: 44
000033t:  Control change ::  Channel 6.  Controller 7.  Value: 43
000027t:  Control change ::  Channel 6.  Controller 7.  Value: 42
000033t:  Control change ::  Channel 6.  Controller 7.  Value: 41
000033t:  Control change ::  Channel 6.  Controller 7.  Value: 40
000014t:  Note on ::  Channel 6.  Note 45.  Velocity 0
000000t:  Note on ::  Channel 6.  Note 50.  Velocity 127
000013t:  Control change ::  Channel 6.  Controller 7.  Value: 39
000033t:  Control change ::  Channel 6.  Controller 7.  Value: 38
000027t:  Control change ::  Channel 6.  Controller 7.  Value: 37
000033t:  Control change ::  Channel 6.  Controller 7.  Value: 36
000027t:  Control change ::  Channel 6.  Controller 7.  Value: 35
000033t:  Control change ::  Channel 6.  Controller 7.  Value: 34
000034t:  Control change ::  Channel 6.  Controller 7.  Value: 33
000026t:  Control change ::  Channel 6.  Controller 7.  Value: 32
000014t:  Note on ::  Channel 6.  Note 50.  Velocity 0
000000t:  Note on ::  Channel 6.  Note 43.  Velocity 127
000020t:  Control change ::  Channel 6.  Controller 7.  Value: 31
000026t:  Control change ::  Channel 6.  Controller 7.  Value: 30
000034t:  Control change ::  Channel 6.  Controller 7.  Value: 29
000026t:  Control change ::  Channel 6.  Controller 7.  Value: 28
000034t:  Control change ::  Channel 6.  Controller 7.  Value: 27
000033t:  Control change ::  Channel 6.  Controller 7.  Value: 26
000027t:  Control change ::  Channel 6.  Controller 7.  Value: 25
000033t:  Control change ::  Channel 6.  Controller 7.  Value: 24
000007t:  Note on ::  Channel 6.  Note 43.  Velocity 0
000000t:  Note on ::  Channel 6.  Note 43.  Velocity 127
000020t:  Control change ::  Channel 6.  Controller 7.  Value: 23
000033t:  Control change ::  Channel 6.  Controller 7.  Value: 22
000027t:  Control change ::  Channel 6.  Controller 7.  Value: 21
000033t:  Control change ::  Channel 6.  Controller 7.  Value: 20
000033t:  Control change ::  Channel 6.  Controller 7.  Value: 19
000027t:  Control change ::  Channel 6.  Controller 7.  Value: 18
000033t:  Control change ::  Channel 6.  Controller 7.  Value: 17
000027t:  Control change ::  Channel 6.  Controller 7.  Value: 16
000007t:  Note on ::  Channel 6.  Note 43.  Velocity 0
000000t:  Note on ::  Channel 6.  Note 48.  Velocity 127
000026t:  Control change ::  Channel 6.  Controller 7.  Value: 15
000027t:  Control change ::  Channel 6.  Controller 7.  Value: 14
000033t:  Control change ::  Channel 6.  Controller 7.  Value: 13
000034t:  Control change ::  Channel 6.  Controller 7.  Value: 12
000026t:  Control change ::  Channel 6.  Controller 7.  Value: 11
000034t:  Control change ::  Channel 6.  Controller 7.  Value: 10
000026t:  Control change ::  Channel 6.  Controller 7.  Value: 9
000034t:  Note on ::  Channel 6.  Note 48.  Velocity 0
000000t:  Control change ::  Channel 6.  Controller 7.  Value: 8
000000t:  Note on ::  Channel 6.  Note 48.  Velocity 127
000026t:  Control change ::  Channel 6.  Controller 7.  Value: 7
000034t:  Control change ::  Channel 6.  Controller 7.  Value: 6
000033t:  Control change ::  Channel 6.  Controller 7.  Value: 5
000027t:  Control change ::  Channel 6.  Controller 7.  Value: 4
000033t:  Control change ::  Channel 6.  Controller 7.  Value: 3
000027t:  Control change ::  Channel 6.  Controller 7.  Value: 2
000033t:  Control change ::  Channel 6.  Controller 7.  Value: 1
000027t:  Note on ::  Channel 6.  Note 48.  Velocity 0
000000t:  Control change ::  Channel 6.  Controller 7.  Value: 0
000000t:  Meta-event type $2f (End-track event) of length 0
Sigma t = 23040

Track chunk of 27 bytes
000000t:  Meta-event type $21 (?) of length 1
	  _
000000t:  Meta-event type $03 (Track name) of length 7
	  Track 8
000000t:  Control change ::  Channel 7.  Controller 7.  Value: 127
000000t:  Control change ::  Channel 7.  Controller 10.  Value: 63
000000t:  Meta-event type $2f (End-track event) of length 0
Sigma t = 0

Track chunk of 27 bytes
000000t:  Meta-event type $21 (?) of length 1
	  _
000000t:  Meta-event type $03 (Track name) of length 7
	  Track 9
000000t:  Control change ::  Channel 8.  Controller 7.  Value: 127
000000t:  Control change ::  Channel 8.  Controller 10.  Value: 63
000000t:  Meta-event type $2f (End-track event) of length 0
Sigma t = 0

Track chunk of 28 bytes
000000t:  Meta-event type $21 (?) of length 1
	  _
000000t:  Meta-event type $03 (Track name) of length 8
	  Track 10
000000t:  Control change ::  Channel 9.  Controller 7.  Value: 127
000000t:  Control change ::  Channel 9.  Controller 10.  Value: 63
000000t:  Meta-event type $2f (End-track event) of length 0
Sigma t = 0

Track chunk of 28 bytes
000000t:  Meta-event type $21 (?) of length 1
	  _
000000t:  Meta-event type $03 (Track name) of length 8
	  Track 11
000000t:  Control change ::  Channel 10.  Controller 7.  Value: 127
000000t:  Control change ::  Channel 10.  Controller 10.  Value: 63
000000t:  Meta-event type $2f (End-track event) of length 0
Sigma t = 0

Track chunk of 28 bytes
000000t:  Meta-event type $21 (?) of length 1
	  _
000000t:  Meta-event type $03 (Track name) of length 8
	  Track 12
000000t:  Control change ::  Channel 11.  Controller 7.  Value: 127
000000t:  Control change ::  Channel 11.  Controller 10.  Value: 63
000000t:  Meta-event type $2f (End-track event) of length 0
Sigma t = 0

Track chunk of 28 bytes
000000t:  Meta-event type $21 (?) of length 1
	  _
000000t:  Meta-event type $03 (Track name) of length 8
	  Track 13
000000t:  Control change ::  Channel 12.  Controller 7.  Value: 127
000000t:  Control change ::  Channel 12.  Controller 10.  Value: 63
000000t:  Meta-event type $2f (End-track event) of length 0
Sigma t = 0

Track chunk of 28 bytes
000000t:  Meta-event type $21 (?) of length 1
	  _
000000t:  Meta-event type $03 (Track name) of length 8
	  Track 14
000000t:  Control change ::  Channel 13.  Controller 7.  Value: 127
000000t:  Control change ::  Channel 13.  Controller 10.  Value: 63
000000t:  Meta-event type $2f (End-track event) of length 0
Sigma t = 0

Track chunk of 28 bytes
000000t:  Meta-event type $21 (?) of length 1
	  _
000000t:  Meta-event type $03 (Track name) of length 8
	  Track 15
000000t:  Control change ::  Channel 14.  Controller 7.  Value: 127
000000t:  Control change ::  Channel 14.  Controller 10.  Value: 63
000000t:  Meta-event type $2f (End-track event) of length 0
Sigma t = 0

Track chunk of 28 bytes
000000t:  Meta-event type $21 (?) of length 1
	  _
000000t:  Meta-event type $03 (Track name) of length 8
	  Track 16
000000t:  Control change ::  Channel 15.  Controller 7.  Value: 127
000000t:  Control change ::  Channel 15.  Controller 10.  Value: 63
000000t:  Meta-event type $2f (End-track event) of length 0
Sigma t = 0
End.
