File: sky-chase-zone.mid
Format: 1
Tracks: 16
Ticks per quarter note: 480

Track chunk of 25 bytes
000000t:  Meta-event type $51 (Set tempo) of length 3
	  __Æ
000000t:  Meta-event type $58 (Time signature) of length 4
	  ____
000000t:  Meta-event type $59 (Key signature) of length 2
	  __
000000t:  Meta-event type $2f (End-track event) of length 0
Sigma t = 0

Track chunk of 4132 bytes
000000t:  Meta-event type $03 (Track name) of length 13
	          Drums
000000t:  Meta-event type $21 (?) of length 1
	  _
000000t:  Meta-event type $20 (?) of length 1
	  _
000000t:  Control change ::  Channel 9.  Controller 7.  Value: 99
000000t:  Control change ::  Channel 9.  Controller 10.  Value: 64
000000t:  Control change ::  Channel 9.  Controller 91.  Value: 19
001920t:  Note on ::  Channel 9.  Note 42.  Velocity 50
000000t:  Note on ::  Channel 9.  Note 35.  Velocity 100
000240t:  Note off ::  Channel 9.  Note 42.  Velocity 0
000240t:  Note off ::  Channel 9.  Note 35.  Velocity 0
000000t:  Note on ::  Channel 9.  Note 42.  Velocity 50
000240t:  Note off ::  Channel 9.  Note 42.  Velocity 0
000240t:  Note on ::  Channel 9.  Note 42.  Velocity 50
000000t:  Note on ::  Channel 9.  Note 40.  Velocity 100
000240t:  Note off ::  Channel 9.  Note 42.  Velocity 0
000240t:  Note off ::  Channel 9.  Note 40.  Velocity 0
000000t:  Note on ::  Channel 9.  Note 42.  Velocity 50
000000t:  Note on ::  Channel 9.  Note 75.  Velocity 50
000120t:  Note off ::  Channel 9.  Note 75.  Velocity 0
000113t:  Note on ::  Channel 9.  Note 75.  Velocity 50
000007t:  Note off ::  Channel 9.  Note 42.  Velocity 0
000113t:  Note off ::  Channel 9.  Note 75.  Velocity 0
000127t:  Note on ::  Channel 9.  Note 42.  Velocity 50
000000t:  Note on ::  Channel 9.  Note 35.  Velocity 100
000240t:  Note off ::  Channel 9.  Note 42.  Velocity 0
000240t:  Note off ::  Channel 9.  Note 35.  Velocity 0
000000t:  Note on ::  Channel 9.  Note 42.  Velocity 50
000240t:  Note off ::  Channel 9.  Note 42.  Velocity 0
000240t:  Note on ::  Channel 9.  Note 40.  Velocity 100
000000t:  Note on ::  Channel 9.  Note 42.  Velocity 50
000240t:  Note off ::  Channel 9.  Note 42.  Velocity 0
000240t:  Note off ::  Channel 9.  Note 40.  Velocity 0
000000t:  Note on ::  Channel 9.  Note 42.  Velocity 50
000240t:  Note off ::  Channel 9.  Note 42.  Velocity 0
000240t:  Note on ::  Channel 9.  Note 42.  Velocity 50
000000t:  Note on ::  Channel 9.  Note 35.  Velocity 100
000240t:  Note off ::  Channel 9.  Note 42.  Velocity 0
000240t:  Note off ::  Channel 9.  Note 35.  Velocity 0
000000t:  Note on ::  Channel 9.  Note 42.  Velocity 50
000240t:  Note off ::  Channel 9.  Note 42.  Velocity 0
000240t:  Note on ::  Channel 9.  Note 40.  Velocity 100
000000t:  Note on ::  Channel 9.  Note 42.  Velocity 50
000240t:  Note off ::  Channel 9.  Note 42.  Velocity 0
000240t:  Note off ::  Channel 9.  Note 40.  Velocity 0
000000t:  Note on ::  Channel 9.  Note 42.  Velocity 50
000000t:  Note on ::  Channel 9.  Note 75.  Velocity 50
000120t:  Note off ::  Channel 9.  Note 75.  Velocity 0
000113t:  Note on ::  Channel 9.  Note 75.  Velocity 50
000007t:  Note off ::  Channel 9.  Note 42.  Velocity 0
000113t:  Note off ::  Channel 9.  Note 75.  Velocity 0
000127t:  Note on ::  Channel 9.  Note 42.  Velocity 50
000000t:  Note on ::  Channel 9.  Note 35.  Velocity 100
000240t:  Note off ::  Channel 9.  Note 42.  Velocity 0
000240t:  Note off ::  Channel 9.  Note 35.  Velocity 0
000000t:  Note on ::  Channel 9.  Note 42.  Velocity 50
000240t:  Note off ::  Channel 9.  Note 42.  Velocity 0
000240t:  Note on ::  Channel 9.  Note 40.  Velocity 100
000000t:  Note on ::  Channel 9.  Note 42.  Velocity 50
000240t:  Note off ::  Channel 9.  Note 42.  Velocity 0
000240t:  Note off ::  Channel 9.  Note 40.  Velocity 0
000000t:  Note on ::  Channel 9.  Note 42.  Velocity 50
000240t:  Note off ::  Channel 9.  Note 42.  Velocity 0
000240t:  Note on ::  Channel 9.  Note 42.  Velocity 50
000000t:  Note on ::  Channel 9.  Note 35.  Velocity 100
000240t:  Note off ::  Channel 9.  Note 42.  Velocity 0
000240t:  Note off ::  Channel 9.  Note 35.  Velocity 0
000000t:  Note on ::  Channel 9.  Note 42.  Velocity 50
000240t:  Note off ::  Channel 9.  Note 42.  Velocity 0
000240t:  Note on ::  Channel 9.  Note 40.  Velocity 100
000000t:  Note on ::  Channel 9.  Note 42.  Velocity 50
000240t:  Note off ::  Channel 9.  Note 42.  Velocity 0
000240t:  Note off ::  Channel 9.  Note 40.  Velocity 0
000000t:  Note on ::  Channel 9.  Note 42.  Velocity 50
000000t:  Note on ::  Channel 9.  Note 75.  Velocity 50
000120t:  Note off ::  Channel 9.  Note 75.  Velocity 0
000113t:  Note on ::  Channel 9.  Note 75.  Velocity 50
000007t:  Note off ::  Channel 9.  Note 42.  Velocity 0
000113t:  Note off ::  Channel 9.  Note 75.  Velocity 0
000127t:  Note on ::  Channel 9.  Note 42.  Velocity 50
000000t:  Note on ::  Channel 9.  Note 35.  Velocity 100
000240t:  Note off ::  Channel 9.  Note 42.  Velocity 0
000240t:  Note off ::  Channel 9.  Note 35.  Velocity 0
000000t:  Note on ::  Channel 9.  Note 42.  Velocity 50
000240t:  Note off ::  Channel 9.  Note 42.  Velocity 0
000240t:  Note on ::  Channel 9.  Note 40.  Velocity 100
000000t:  Note on ::  Channel 9.  Note 42.  Velocity 50
000240t:  Note off ::  Channel 9.  Note 42.  Velocity 0
000240t:  Note off ::  Channel 9.  Note 40.  Velocity 0
000000t:  Note on ::  Channel 9.  Note 42.  Velocity 50
000240t:  Note off ::  Channel 9.  Note 42.  Velocity 0
000240t:  Note on ::  Channel 9.  Note 42.  Velocity 50
000000t:  Note on ::  Channel 9.  Note 35.  Velocity 100
000240t:  Note off ::  Channel 9.  Note 42.  Velocity 0
000240t:  Note off ::  Channel 9.  Note 35.  Velocity 0
000000t:  Note on ::  Channel 9.  Note 42.  Velocity 50
000240t:  Note off ::  Channel 9.  Note 42.  Velocity 0
000240t:  Note on ::  Channel 9.  Note 40.  Velocity 100
000000t:  Note on ::  Channel 9.  Note 42.  Velocity 50
000240t:  Note off ::  Channel 9.  Note 42.  Velocity 0
000240t:  Note off ::  Channel 9.  Note 40.  Velocity 0
000000t:  Note on ::  Channel 9.  Note 42.  Velocity 50
000000t:  Note on ::  Channel 9.  Note 75.  Velocity 50
000120t:  Note off ::  Channel 9.  Note 75.  Velocity 0
000113t:  Note on ::  Channel 9.  Note 75.  Velocity 50
000007t:  Note off ::  Channel 9.  Note 42.  Velocity 0
000113t:  Note off ::  Channel 9.  Note 75.  Velocity 0
000127t:  Note on ::  Channel 9.  Note 42.  Velocity 50
000000t:  Note on ::  Channel 9.  Note 35.  Velocity 100
000240t:  Note off ::  Channel 9.  Note 42.  Velocity 0
000240t:  Note off ::  Channel 9.  Note 35.  Velocity 0
000000t:  Note on ::  Channel 9.  Note 42.  Velocity 50
000240t:  Note off ::  Channel 9.  Note 42.  Velocity 0
000240t:  Note on ::  Channel 9.  Note 40.  Velocity 100
000000t:  Note on ::  Channel 9.  Note 42.  Velocity 50
000240t:  Note off ::  Channel 9.  Note 42.  Velocity 0
000240t:  Note off ::  Channel 9.  Note 40.  Velocity 0
000000t:  Note on ::  Channel 9.  Note 42.  Velocity 50
000240t:  Note off ::  Channel 9.  Note 42.  Velocity 0
000240t:  Note on ::  Channel 9.  Note 42.  Velocity 50
000000t:  Note on ::  Channel 9.  Note 35.  Velocity 100
000240t:  Note off ::  Channel 9.  Note 42.  Velocity 0
000240t:  Note off ::  Channel 9.  Note 35.  Velocity 0
000000t:  Note on ::  Channel 9.  Note 42.  Velocity 50
000240t:  Note off ::  Channel 9.  Note 42.  Velocity 0
000240t:  Note on ::  Channel 9.  Note 42.  Velocity 50
000000t:  Note on ::  Channel 9.  Note 40.  Velocity 100
000240t:  Note off ::  Channel 9.  Note 42.  Velocity 0
000240t:  Note off ::  Channel 9.  Note 40.  Velocity 0
000000t:  Note on ::  Channel 9.  Note 42.  Velocity 50
000000t:  Note on ::  Channel 9.  Note 75.  Velocity 50
000120t:  Note off ::  Channel 9.  Note 75.  Velocity 0
000113t:  Note on ::  Channel 9.  Note 75.  Velocity 50
000007t:  Note off ::  Channel 9.  Note 42.  Velocity 0
000113t:  Note off ::  Channel 9.  Note 75.  Velocity 0
000127t:  Note on ::  Channel 9.  Note 42.  Velocity 50
000000t:  Note on ::  Channel 9.  Note 35.  Velocity 100
000240t:  Note off ::  Channel 9.  Note 42.  Velocity 0
000240t:  Note off ::  Channel 9.  Note 35.  Velocity 0
000000t:  Note on ::  Channel 9.  Note 42.  Velocity 50
000240t:  Note off ::  Channel 9.  Note 42.  Velocity 0
000240t:  Note on ::  Channel 9.  Note 40.  Velocity 100
000000t:  Note on ::  Channel 9.  Note 42.  Velocity 50
000240t:  Note off ::  Channel 9.  Note 42.  Velocity 0
000240t:  Note off ::  Channel 9.  Note 40.  Velocity 0
000000t:  Note on ::  Channel 9.  Note 42.  Velocity 50
000240t:  Note off ::  Channel 9.  Note 42.  Velocity 0
000240t:  Note on ::  Channel 9.  Note 42.  Velocity 50
000000t:  Note on ::  Channel 9.  Note 35.  Velocity 100
000240t:  Note off ::  Channel 9.  Note 42.  Velocity 0
000240t:  Note off ::  Channel 9.  Note 35.  Velocity 0
000000t:  Note on ::  Channel 9.  Note 42.  Velocity 50
000240t:  Note off ::  Channel 9.  Note 42.  Velocity 0
000240t:  Note on ::  Channel 9.  Note 40.  Velocity 100
000000t:  Note on ::  Channel 9.  Note 42.  Velocity 50
000240t:  Note off ::  Channel 9.  Note 42.  Velocity 0
000240t:  Note off ::  Channel 9.  Note 40.  Velocity 0
000000t:  Note on ::  Channel 9.  Note 42.  Velocity 50
000000t:  Note on ::  Channel 9.  Note 75.  Velocity 50
000120t:  Note off ::  Channel 9.  Note 75.  Velocity 0
000113t:  Note on ::  Channel 9.  Note 75.  Velocity 50
000007t:  Note off ::  Channel 9.  Note 42.  Velocity 0
000113t:  Note off ::  Channel 9.  Note 75.  Velocity 0
000127t:  Note on ::  Channel 9.  Note 42.  Velocity 50
000000t:  Note on ::  Channel 9.  Note 35.  Velocity 100
000240t:  Note off ::  Channel 9.  Note 42.  Velocity 0
000240t:  Note off ::  Channel 9.  Note 35.  Velocity 0
000000t:  Note on ::  Channel 9.  Note 42.  Velocity 50
000240t:  Note off ::  Channel 9.  Note 42.  Velocity 0
000240t:  Note on ::  Channel 9.  Note 40.  Velocity 100
000000t:  Note on ::  Channel 9.  Note 42.  Velocity 50
000240t:  Note off ::  Channel 9.  Note 42.  Velocity 0
000240t:  Note off ::  Channel 9.  Note 40.  Velocity 0
000000t:  Note on ::  Channel 9.  Note 42.  Velocity 50
000240t:  Note off ::  Channel 9.  Note 42.  Velocity 0
000240t:  Note on ::  Channel 9.  Note 42.  Velocity 50
000000t:  Note on ::  Channel 9.  Note 35.  Velocity 100
000240t:  Note off ::  Channel 9.  Note 42.  Velocity 0
000240t:  Note off ::  Channel 9.  Note 35.  Velocity 0
000000t:  Note on ::  Channel 9.  Note 42.  Velocity 50
000240t:  Note off ::  Channel 9.  Note 42.  Velocity 0
000240t:  Note on ::  Channel 9.  Note 40.  Velocity 100
000000t:  Note on ::  Channel 9.  Note 42.  Velocity 50
000240t:  Note off ::  Channel 9.  Note 42.  Velocity 0
000240t:  Note off ::  Channel 9.  Note 40.  Velocity 0
000000t:  Note on ::  Channel 9.  Note 42.  Velocity 50
000000t:  Note on ::  Channel 9.  Note 75.  Velocity 50
000120t:  Note off ::  Channel 9.  Note 75.  Velocity 0
000113t:  Note on ::  Channel 9.  Note 75.  Velocity 50
000007t:  Note off ::  Channel 9.  Note 42.  Velocity 0
000113t:  Note off ::  Channel 9.  Note 75.  Velocity 0
000127t:  Note on ::  Channel 9.  Note 42.  Velocity 50
000000t:  Note on ::  Channel 9.  Note 35.  Velocity 100
000240t:  Note off ::  Channel 9.  Note 42.  Velocity 0
000240t:  Note off ::  Channel 9.  Note 35.  Velocity 0
000000t:  Note on ::  Channel 9.  Note 42.  Velocity 50
000240t:  Note off ::  Channel 9.  Note 42.  Velocity 0
000240t:  Note on ::  Channel 9.  Note 40.  Velocity 100
000000t:  Note on ::  Channel 9.  Note 42.  Velocity 50
000240t:  Note off ::  Channel 9.  Note 42.  Velocity 0
000240t:  Note off ::  Channel 9.  Note 40.  Velocity 0
000000t:  Note on ::  Channel 9.  Note 42.  Velocity 50
000240t:  Note off ::  Channel 9.  Note 42.  Velocity 0
000240t:  Note on ::  Channel 9.  Note 42.  Velocity 50
000000t:  Note on ::  Channel 9.  Note 35.  Velocity 100
000240t:  Note off ::  Channel 9.  Note 42.  Velocity 0
000240t:  Note off ::  Channel 9.  Note 35.  Velocity 0
000000t:  Note on ::  Channel 9.  Note 42.  Velocity 50
000240t:  Note off ::  Channel 9.  Note 42.  Velocity 0
000240t:  Note on ::  Channel 9.  Note 40.  Velocity 100
000000t:  Note on ::  Channel 9.  Note 42.  Velocity 50
000240t:  Note off ::  Channel 9.  Note 42.  Velocity 0
000240t:  Note off ::  Channel 9.  Note 40.  Velocity 0
000000t:  Note on ::  Channel 9.  Note 42.  Velocity 50
000000t:  Note on ::  Channel 9.  Note 75.  Velocity 50
000120t:  Note off ::  Channel 9.  Note 75.  Velocity 0
000113t:  Note on ::  Channel 9.  Note 75.  Velocity 50
000007t:  Note off ::  Channel 9.  Note 42.  Velocity 0
000113t:  Note off ::  Channel 9.  Note 75.  Velocity 0
000127t:  Note on ::  Channel 9.  Note 42.  Velocity 50
000000t:  Note on ::  Channel 9.  Note 35.  Velocity 100
000240t:  Note off ::  Channel 9.  Note 42.  Velocity 0
000240t:  Note off ::  Channel 9.  Note 35.  Velocity 0
000000t:  Note on ::  Channel 9.  Note 42.  Velocity 50
000240t:  Note off ::  Channel 9.  Note 42.  Velocity 0
000240t:  Note on ::  Channel 9.  Note 40.  Velocity 100
000000t:  Note on ::  Channel 9.  Note 42.  Velocity 50
000240t:  Note off ::  Channel 9.  Note 42.  Velocity 0
000240t:  Note off ::  Channel 9.  Note 40.  Velocity 0
000000t:  Note on ::  Channel 9.  Note 42.  Velocity 50
000240t:  Note off ::  Channel 9.  Note 42.  Velocity 0
000240t:  Note on ::  Channel 9.  Note 42.  Velocity 50
000000t:  Note on ::  Channel 9.  Note 35.  Velocity 100
000240t:  Note off ::  Channel 9.  Note 42.  Velocity 0
000240t:  Note off ::  Channel 9.  Note 35.  Velocity 0
000000t:  Note on ::  Channel 9.  Note 42.  Velocity 50
000240t:  Note off ::  Channel 9.  Note 42.  Velocity 0
000240t:  Note on ::  Channel 9.  Note 42.  Velocity 50
000000t:  Note on ::  Channel 9.  Note 40.  Velocity 100
000240t:  Note off ::  Channel 9.  Note 42.  Velocity 0
000240t:  Note off ::  Channel 9.  Note 40.  Velocity 0
000000t:  Note on ::  Channel 9.  Note 42.  Velocity 50
000000t:  Note on ::  Channel 9.  Note 75.  Velocity 50
000120t:  Note off ::  Channel 9.  Note 75.  Velocity 0
000113t:  Note on ::  Channel 9.  Note 75.  Velocity 50
000007t:  Note off ::  Channel 9.  Note 42.  Velocity 0
000113t:  Note off ::  Channel 9.  Note 75.  Velocity 0
000127t:  Note on ::  Channel 9.  Note 42.  Velocity 50
000000t:  Note on ::  Channel 9.  Note 35.  Velocity 100
000240t:  Note off ::  Channel 9.  Note 42.  Velocity 0
000240t:  Note off ::  Channel 9.  Note 35.  Velocity 0
000000t:  Note on ::  Channel 9.  Note 42.  Velocity 50
000240t:  Note off ::  Channel 9.  Note 42.  Velocity 0
000240t:  Note on ::  Channel 9.  Note 40.  Velocity 100
000000t:  Note on ::  Channel 9.  Note 42.  Velocity 50
000240t:  Note off ::  Channel 9.  Note 42.  Velocity 0
000240t:  Note off ::  Channel 9.  Note 40.  Velocity 0
000000t:  Note on ::  Channel 9.  Note 42.  Velocity 50
000240t:  Note off ::  Channel 9.  Note 42.  Velocity 0
000240t:  Note on ::  Channel 9.  Note 42.  Velocity 50
000000t:  Note on ::  Channel 9.  Note 35.  Velocity 100
000240t:  Note off ::  Channel 9.  Note 42.  Velocity 0
000240t:  Note off ::  Channel 9.  Note 35.  Velocity 0
000000t:  Note on ::  Channel 9.  Note 42.  Velocity 50
000240t:  Note off ::  Channel 9.  Note 42.  Velocity 0
000240t:  Note on ::  Channel 9.  Note 40.  Velocity 100
000000t:  Note on ::  Channel 9.  Note 42.  Velocity 50
000240t:  Note off ::  Channel 9.  Note 42.  Velocity 0
000240t:  Note off ::  Channel 9.  Note 40.  Velocity 0
000000t:  Note on ::  Channel 9.  Note 42.  Velocity 50
000000t:  Note on ::  Channel 9.  Note 75.  Velocity 50
000120t:  Note off ::  Channel 9.  Note 75.  Velocity 0
000113t:  Note on ::  Channel 9.  Note 75.  Velocity 50
000007t:  Note off ::  Channel 9.  Note 42.  Velocity 0
000113t:  Note off ::  Channel 9.  Note 75.  Velocity 0
000127t:  Note on ::  Channel 9.  Note 42.  Velocity 50
000000t:  Note on ::  Channel 9.  Note 35.  Velocity 100
000240t:  Note off ::  Channel 9.  Note 42.  Velocity 0
000240t:  Note off ::  Channel 9.  Note 35.  Velocity 0
000000t:  Note on ::  Channel 9.  Note 42.  Velocity 50
000240t:  Note off ::  Channel 9.  Note 42.  Velocity 0
000240t:  Note on ::  Channel 9.  Note 40.  Velocity 100
000000t:  Note on ::  Channel 9.  Note 42.  Velocity 50
000240t:  Note off ::  Channel 9.  Note 42.  Velocity 0
000240t:  Note off ::  Channel 9.  Note 40.  Velocity 0
000000t:  Note on ::  Channel 9.  Note 42.  Velocity 50
000240t:  Note off ::  Channel 9.  Note 42.  Velocity 0
000240t:  Note on ::  Channel 9.  Note 42.  Velocity 50
000000t:  Note on ::  Channel 9.  Note 35.  Velocity 100
000240t:  Note off ::  Channel 9.  Note 42.  Velocity 0
000240t:  Note off ::  Channel 9.  Note 35.  Velocity 0
000000t:  Note on ::  Channel 9.  Note 42.  Velocity 50
000240t:  Note off ::  Channel 9.  Note 42.  Velocity 0
000240t:  Note on ::  Channel 9.  Note 40.  Velocity 100
000000t:  Note on ::  Channel 9.  Note 42.  Velocity 50
000240t:  Note off ::  Channel 9.  Note 42.  Velocity 0
000240t:  Note off ::  Channel 9.  Note 40.  Velocity 0
000000t:  Note on ::  Channel 9.  Note 42.  Velocity 50
000000t:  Note on ::  Channel 9.  Note 75.  Velocity 50
000120t:  Note off ::  Channel 9.  Note 75.  Velocity 0
000113t:  Note on ::  Channel 9.  Note 75.  Velocity 50
000007t:  Note off ::  Channel 9.  Note 42.  Velocity 0
000113t:  Note off ::  Channel 9.  Note 75.  Velocity 0
000127t:  Note on ::  Channel 9.  Note 42.  Velocity 50
000000t:  Note on ::  Channel 9.  Note 35.  Velocity 100
000240t:  Note off ::  Channel 9.  Note 42.  Velocity 0
000240t:  Note off ::  Channel 9.  Note 35.  Velocity 0
000000t:  Note on ::  Channel 9.  Note 42.  Velocity 50
000240t:  Note off ::  Channel 9.  Note 42.  Velocity 0
000240t:  Note on ::  Channel 9.  Note 40.  Velocity 100
000000t:  Note on ::  Channel 9.  Note 42.  Velocity 50
000240t:  Note off ::  Channel 9.  Note 42.  Velocity 0
000240t:  Note off ::  Channel 9.  Note 40.  Velocity 0
000000t:  Note on ::  Channel 9.  Note 42.  Velocity 50
000240t:  Note off ::  Channel 9.  Note 42.  Velocity 0
000240t:  Note on ::  Channel 9.  Note 42.  Velocity 50
000000t:  Note on ::  Channel 9.  Note 35.  Velocity 100
000240t:  Note off ::  Channel 9.  Note 42.  Velocity 0
000240t:  Note off ::  Channel 9.  Note 35.  Velocity 0
000000t:  Note on ::  Channel 9.  Note 42.  Velocity 50
000240t:  Note off ::  Channel 9.  Note 42.  Velocity 0
000240t:  Note on ::  Channel 9.  Note 40.  Velocity 100
000000t:  Note on ::  Channel 9.  Note 42.  Velocity 50
000240t:  Note off ::  Channel 9.  Note 42.  Velocity 0
000240t:  Note off ::  Channel 9.  Note 40.  Velocity 0
000000t:  Note on ::  Channel 9.  Note 42.  Velocity 50
000000t:  Note on ::  Channel 9.  Note 75.  Velocity 50
000120t:  Note off ::  Channel 9.  Note 75.  Velocity 0
000113t:  Note on ::  Channel 9.  Note 75.  Velocity 50
000007t:  Note off ::  Channel 9.  Note 42.  Velocity 0
000113t:  Note off ::  Channel 9.  Note 75.  Velocity 0
000127t:  Note on ::  Channel 9.  Note 42.  Velocity 50
000000t:  Note on ::  Channel 9.  Note 35.  Velocity 100
000240t:  Note off ::  Channel 9.  Note 42.  Velocity 0
000240t:  Note off ::  Channel 9.  Note 35.  Velocity 0
000000t:  Note on ::  Channel 9.  Note 42.  Velocity 50
000240t:  Note off ::  Channel 9.  Note 42.  Velocity 0
000240t:  Note on ::  Channel 9.  Note 40.  Velocity 100
000000t:  Note on ::  Channel 9.  Note 42.  Velocity 50
000240t:  Note off ::  Channel 9.  Note 42.  Velocity 0
000240t:  Note off ::  Channel 9.  Note 40.  Velocity 0
000000t:  Note on ::  Channel 9.  Note 42.  Velocity 50
000240t:  Note off ::  Channel 9.  Note 42.  Velocity 0
000240t:  Note on ::  Channel 9.  Note 42.  Velocity 50
000000t:  Note on ::  Channel 9.  Note 35.  Velocity 100
000240t:  Note off ::  Channel 9.  Note 42.  Velocity 0
000240t:  Note off ::  Channel 9.  Note 35.  Velocity 0
000000t:  Note on ::  Channel 9.  Note 42.  Velocity 50
000240t:  Note off ::  Channel 9.  Note 42.  Velocity 0
000240t:  Note on ::  Channel 9.  Note 42.  Velocity 50
000000t:  Note on ::  Channel 9.  Note 40.  Velocity 100
000240t:  Note off ::  Channel 9.  Note 42.  Velocity 0
000240t:  Note off ::  Channel 9.  Note 40.  Velocity 0
000000t:  Note on ::  Channel 9.  Note 42.  Velocity 50
000000t:  Note on ::  Channel 9.  Note 75.  Velocity 50
000120t:  Note off ::  Channel 9.  Note 75.  Velocity 0
000113t:  Note on ::  Channel 9.  Note 75.  Velocity 50
000007t:  Note off ::  Channel 9.  Note 42.  Velocity 0
000113t:  Note off ::  Channel 9.  Note 75.  Velocity 0
000127t:  Note on ::  Channel 9.  Note 42.  Velocity 50
000000t:  Note on ::  Channel 9.  Note 35.  Velocity 100
000240t:  Note off ::  Channel 9.  Note 42.  Velocity 0
000240t:  Note off ::  Channel 9.  Note 35.  Velocity 0
000000t:  Note on ::  Channel 9.  Note 42.  Velocity 50
000240t:  Note off ::  Channel 9.  Note 42.  Velocity 0
000240t:  Note on ::  Channel 9.  Note 40.  Velocity 100
000000t:  Note on ::  Channel 9.  Note 42.  Velocity 50
000240t:  Note off ::  Channel 9.  Note 42.  Velocity 0
000240t:  Note off ::  Channel 9.  Note 40.  Velocity 0
000000t:  Note on ::  Channel 9.  Note 42.  Velocity 50
000240t:  Note off ::  Channel 9.  Note 42.  Velocity 0
000240t:  Note on ::  Channel 9.  Note 42.  Velocity 50
000000t:  Note on ::  Channel 9.  Note 35.  Velocity 100
000240t:  Note off ::  Channel 9.  Note 42.  Velocity 0
000240t:  Note off ::  Channel 9.  Note 35.  Velocity 0
000000t:  Note on ::  Channel 9.  Note 42.  Velocity 50
000240t:  Note off ::  Channel 9.  Note 42.  Velocity 0
000240t:  Note on ::  Channel 9.  Note 40.  Velocity 100
000000t:  Note on ::  Channel 9.  Note 42.  Velocity 50
000240t:  Note off ::  Channel 9.  Note 42.  Velocity 0
000240t:  Note off ::  Channel 9.  Note 40.  Velocity 0
000000t:  Note on ::  Channel 9.  Note 42.  Velocity 50
000000t:  Note on ::  Channel 9.  Note 75.  Velocity 50
000120t:  Note off ::  Channel 9.  Note 75.  Velocity 0
000113t:  Note on ::  Channel 9.  Note 75.  Velocity 50
000007t:  Note off ::  Channel 9.  Note 42.  Velocity 0
000113t:  Note off ::  Channel 9.  Note 75.  Velocity 0
000127t:  Note on ::  Channel 9.  Note 42.  Velocity 50
000000t:  Note on ::  Channel 9.  Note 35.  Velocity 100
000240t:  Note off ::  Channel 9.  Note 42.  Velocity 0
000240t:  Note off ::  Channel 9.  Note 35.  Velocity 0
000000t:  Note on ::  Channel 9.  Note 42.  Velocity 50
000240t:  Note off ::  Channel 9.  Note 42.  Velocity 0
000240t:  Note on ::  Channel 9.  Note 40.  Velocity 100
000000t:  Note on ::  Channel 9.  Note 42.  Velocity 50
000240t:  Note off ::  Channel 9.  Note 42.  Velocity 0
000240t:  Note off ::  Channel 9.  Note 40.  Velocity 0
000000t:  Note on ::  Channel 9.  Note 42.  Velocity 50
000240t:  Note off ::  Channel 9.  Note 42.  Velocity 0
000240t:  Note on ::  Channel 9.  Note 42.  Velocity 50
000000t:  Note on ::  Channel 9.  Note 35.  Velocity 100
000240t:  Note off ::  Channel 9.  Note 42.  Velocity 0
000240t:  Note off ::  Channel 9.  Note 35.  Velocity 0
000000t:  Note on ::  Channel 9.  Note 42.  Velocity 50
000240t:  Note off ::  Channel 9.  Note 42.  Velocity 0
000240t:  Note on ::  Channel 9.  Note 40.  Velocity 100
000000t:  Note on ::  Channel 9.  Note 42.  Velocity 50
000240t:  Note off ::  Channel 9.  Note 42.  Velocity 0
000240t:  Note off ::  Channel 9.  Note 40.  Velocity 0
000000t:  Note on ::  Channel 9.  Note 42.  Velocity 50
000000t:  Note on ::  Channel 9.  Note 75.  Velocity 50
000120t:  Note off ::  Channel 9.  Note 75.  Velocity 0
000113t:  Note on ::  Channel 9.  Note 75.  Velocity 50
000007t:  Note off ::  Channel 9.  Note 42.  Velocity 0
000113t:  Note off ::  Channel 9.  Note 75.  Velocity 0
000127t:  Note on ::  Channel 9.  Note 42.  Velocity 50
000000t:  Note on ::  Channel 9.  Note 35.  Velocity 100
000240t:  Note off ::  Channel 9.  Note 42.  Velocity 0
000240t:  Note off ::  Channel 9.  Note 35.  Velocity 0
000000t:  Note on ::  Channel 9.  Note 42.  Velocity 50
000240t:  Note off ::  Channel 9.  Note 42.  Velocity 0
000240t:  Note on ::  Channel 9.  Note 40.  Velocity 100
000000t:  Note on ::  Channel 9.  Note 42.  Velocity 50
000240t:  Note off ::  Channel 9.  Note 42.  Velocity 0
000240t:  Note off ::  Channel 9.  Note 40.  Velocity 0
000000t:  Note on ::  Channel 9.  Note 42.  Velocity 50
000240t:  Note off ::  Channel 9.  Note 42.  Velocity 0
000240t:  Note on ::  Channel 9.  Note 42.  Velocity 50
000000t:  Note on ::  Channel 9.  Note 35.  Velocity 100
000240t:  Note off ::  Channel 9.  Note 42.  Velocity 0
000240t:  Note off ::  Channel 9.  Note 35.  Velocity 0
000000t:  Note on ::  Channel 9.  Note 42.  Velocity 50
000240t:  Note off ::  Channel 9.  Note 42.  Velocity 0
000240t:  Note on ::  Channel 9.  Note 42.  Velocity 50
000000t:  Note on ::  Channel 9.  Note 40.  Velocity 100
000240t:  Note off ::  Channel 9.  Note 42.  Velocity 0
000240t:  Note off ::  Channel 9.  Note 40.  Velocity 0
000000t:  Note on ::  Channel 9.  Note 42.  Velocity 50
000000t:  Note on ::  Channel 9.  Note 75.  Velocity 50
000120t:  Note off ::  Channel 9.  Note 75.  Velocity 0
000113t:  Note on ::  Channel 9.  Note 75.  Velocity 50
000007t:  Note off ::  Channel 9.  Note 42.  Velocity 0
000113t:  Note off ::  Channel 9.  Note 75.  Velocity 0
000127t:  Note on ::  Channel 9.  Note 42.  Velocity 50
000000t:  Note on ::  Channel 9.  Note 51.  Velocity 60
000240t:  Note off ::  Channel 9.  Note 42.  Velocity 0
000240t:  Note on ::  Channel 9.  Note 42.  Velocity 50
000240t:  Note off ::  Channel 9.  Note 42.  Velocity 0
000149t:  Note off ::  Channel 9.  Note 51.  Velocity 0
000091t:  Note on ::  Channel 9.  Note 40.  Velocity 100
000000t:  Note on ::  Channel 9.  Note 64.  Velocity 70
000000t:  Note on ::  Channel 9.  Note 42.  Velocity 50
000120t:  Note off ::  Channel 9.  Note 64.  Velocity 0
000113t:  Note off ::  Channel 9.  Note 42.  Velocity 0
000000t:  Note on ::  Channel 9.  Note 63.  Velocity 70
000120t:  Note off ::  Channel 9.  Note 63.  Velocity 0
000075t:  Note off ::  Channel 9.  Note 40.  Velocity 0
000052t:  Note on ::  Channel 9.  Note 64.  Velocity 70
000000t:  Note on ::  Channel 9.  Note 42.  Velocity 50
000120t:  Note off ::  Channel 9.  Note 64.  Velocity 0
000113t:  Note on ::  Channel 9.  Note 64.  Velocity 70
000026t:  Note off ::  Channel 9.  Note 42.  Velocity 0
000094t:  Note off ::  Channel 9.  Note 64.  Velocity 0
000127t:  Note on ::  Channel 9.  Note 42.  Velocity 50
000000t:  Note on ::  Channel 9.  Note 35.  Velocity 100
000240t:  Note off ::  Channel 9.  Note 42.  Velocity 0
000240t:  Note off ::  Channel 9.  Note 35.  Velocity 0
000000t:  Note on ::  Channel 9.  Note 42.  Velocity 50
000240t:  Note off ::  Channel 9.  Note 42.  Velocity 0
000240t:  Note on ::  Channel 9.  Note 42.  Velocity 50
000000t:  Note on ::  Channel 9.  Note 40.  Velocity 100
000240t:  Note off ::  Channel 9.  Note 42.  Velocity 0
000240t:  Note off ::  Channel 9.  Note 40.  Velocity 0
000000t:  Note on ::  Channel 9.  Note 42.  Velocity 50
000000t:  Note on ::  Channel 9.  Note 75.  Velocity 50
000120t:  Note off ::  Channel 9.  Note 75.  Velocity 0
000113t:  Note on ::  Channel 9.  Note 75.  Velocity 50
000007t:  Note off ::  Channel 9.  Note 42.  Velocity 0
000113t:  Note off ::  Channel 9.  Note 75.  Velocity 0
000127t:  Note on ::  Channel 9.  Note 42.  Velocity 50
000000t:  Note on ::  Channel 9.  Note 35.  Velocity 100
000240t:  Note off ::  Channel 9.  Note 42.  Velocity 0
000240t:  Note off ::  Channel 9.  Note 35.  Velocity 0
000000t:  Note on ::  Channel 9.  Note 42.  Velocity 50
000240t:  Note off ::  Channel 9.  Note 42.  Velocity 0
000240t:  Note on ::  Channel 9.  Note 40.  Velocity 100
000000t:  Note on ::  Channel 9.  Note 42.  Velocity 50
000240t:  Note off ::  Channel 9.  Note 42.  Velocity 0
000240t:  Note off ::  Channel 9.  Note 40.  Velocity 0
000000t:  Note on ::  Channel 9.  Note 42.  Velocity 50
000240t:  Note off ::  Channel 9.  Note 42.  Velocity 0
000240t:  Note on ::  Channel 9.  Note 42.  Velocity 50
000000t:  Note on ::  Channel 9.  Note 35.  Velocity 100
000240t:  Note off ::  Channel 9.  Note 42.  Velocity 0
000240t:  Note off ::  Channel 9.  Note 35.  Velocity 0
000000t:  Note on ::  Channel 9.  Note 42.  Velocity 50
000240t:  Note off ::  Channel 9.  Note 42.  Velocity 0
000240t:  Note on ::  Channel 9.  Note 40.  Velocity 100
000000t:  Note on ::  Channel 9.  Note 42.  Velocity 50
000240t:  Note off ::  Channel 9.  Note 42.  Velocity 0
000240t:  Note off ::  Channel 9.  Note 40.  Velocity 0
000000t:  Note on ::  Channel 9.  Note 42.  Velocity 50
000000t:  Note on ::  Channel 9.  Note 75.  Velocity 50
000120t:  Note off ::  Channel 9.  Note 75.  Velocity 0
000113t:  Note on ::  Channel 9.  Note 75.  Velocity 50
000007t:  Note off ::  Channel 9.  Note 42.  Velocity 0
000113t:  Note off ::  Channel 9.  Note 75.  Velocity 0
000127t:  Note on ::  Channel 9.  Note 42.  Velocity 50
000000t:  Note on ::  Channel 9.  Note 35.  Velocity 100
000240t:  Note off ::  Channel 9.  Note 42.  Velocity 0
000240t:  Note off ::  Channel 9.  Note 35.  Velocity 0
000000t:  Note on ::  Channel 9.  Note 42.  Velocity 50
000240t:  Note off ::  Channel 9.  Note 42.  Velocity 0
000240t:  Note on ::  Channel 9.  Note 40.  Velocity 100
000000t:  Note on ::  Channel 9.  Note 42.  Velocity 50
000240t:  Note off ::  Channel 9.  Note 42.  Velocity 0
000240t:  Note off ::  Channel 9.  Note 40.  Velocity 0
000000t:  Note on ::  Channel 9.  Note 42.  Velocity 50
000240t:  Note off ::  Channel 9.  Note 42.  Velocity 0
000240t:  Note on ::  Channel 9.  Note 42.  Velocity 50
000000t:  Note on ::  Channel 9.  Note 35.  Velocity 100
000240t:  Note off ::  Channel 9.  Note 42.  Velocity 0
000240t:  Note off ::  Channel 9.  Note 35.  Velocity 0
000000t:  Note on ::  Channel 9.  Note 42.  Velocity 50
000240t:  Note off ::  Channel 9.  Note 42.  Velocity 0
000240t:  Note on ::  Channel 9.  Note 40.  Velocity 100
000000t:  Note on ::  Channel 9.  Note 42.  Velocity 50
000240t:  Note off ::  Channel 9.  Note 42.  Velocity 0
000240t:  Note off ::  Channel 9.  Note 40.  Velocity 0
000000t:  Note on ::  Channel 9.  Note 42.  Velocity 50
000000t:  Note on ::  Channel 9.  Note 75.  Velocity 50
000120t:  Note off ::  Channel 9.  Note 75.  Velocity 0
000113t:  Note on ::  Channel 9.  Note 75.  Velocity 50
000007t:  Note off ::  Channel 9.  Note 42.  Velocity 0
000113t:  Note off ::  Channel 9.  Note 75.  Velocity 0
000127t:  Note on ::  Channel 9.  Note 42.  Velocity 50
000000t:  Note on ::  Channel 9.  Note 35.  Velocity 100
000240t:  Note off ::  Channel 9.  Note 42.  Velocity 0
000240t:  Note off ::  Channel 9.  Note 35.  Velocity 0
000000t:  Note on ::  Channel 9.  Note 42.  Velocity 50
000240t:  Note off ::  Channel 9.  Note 42.  Velocity 0
000240t:  Note on ::  Channel 9.  Note 40.  Velocity 100
000000t:  Note on ::  Channel 9.  Note 42.  Velocity 50
000240t:  Note off ::  Channel 9.  Note 42.  Velocity 0
000240t:  Note off ::  Channel 9.  Note 40.  Velocity 0
000000t:  Note on ::  Channel 9.  Note 42.  Velocity 50
000240t:  Note off ::  Channel 9.  Note 42.  Velocity 0
000240t:  Note on ::  Channel 9.  Note 42.  Velocity 50
000000t:  Note on ::  Channel 9.  Note 35.  Velocity 100
000240t:  Note off ::  Channel 9.  Note 42.  Velocity 0
000240t:  Note off ::  Channel 9.  Note 35.  Velocity 0
000000t:  Note on ::  Channel 9.  Note 42.  Velocity 50
000240t:  Note off ::  Channel 9.  Note 42.  Velocity 0
000240t:  Note on ::  Channel 9.  Note 40.  Velocity 100
000000t:  Note on ::  Channel 9.  Note 42.  Velocity 50
000240t:  Note off ::  Channel 9.  Note 42.  Velocity 0
000240t:  Note off ::  Channel 9.  Note 40.  Velocity 0
000000t:  Note on ::  Channel 9.  Note 42.  Velocity 50
000000t:  Note on ::  Channel 9.  Note 75.  Velocity 50
000120t:  Note off ::  Channel 9.  Note 75.  Velocity 0
000113t:  Note on ::  Channel 9.  Note 75.  Velocity 50
000007t:  Note off ::  Channel 9.  Note 42.  Velocity 0
000113t:  Note off ::  Channel 9.  Note 75.  Velocity 0
000127t:  Note on ::  Channel 9.  Note 42.  Velocity 50
000000t:  Note on ::  Channel 9.  Note 35.  Velocity 100
000240t:  Note off ::  Channel 9.  Note 42.  Velocity 0
000240t:  Note off ::  Channel 9.  Note 35.  Velocity 0
000000t:  Note on ::  Channel 9.  Note 42.  Velocity 50
000240t:  Note off ::  Channel 9.  Note 42.  Velocity 0
000240t:  Note on ::  Channel 9.  Note 40.  Velocity 100
000000t:  Note on ::  Channel 9.  Note 42.  Velocity 50
000240t:  Note off ::  Channel 9.  Note 42.  Velocity 0
000240t:  Note off ::  Channel 9.  Note 40.  Velocity 0
000000t:  Note on ::  Channel 9.  Note 42.  Velocity 50
000240t:  Note off ::  Channel 9.  Note 42.  Velocity 0
000240t:  Note on ::  Channel 9.  Note 42.  Velocity 50
000000t:  Note on ::  Channel 9.  Note 35.  Velocity 100
000240t:  Note off ::  Channel 9.  Note 42.  Velocity 0
000240t:  Note off ::  Channel 9.  Note 35.  Velocity 0
000000t:  Note on ::  Channel 9.  Note 42.  Velocity 50
000240t:  Note off ::  Channel 9.  Note 42.  Velocity 0
000240t:  Note on ::  Channel 9.  Note 42.  Velocity 50
000000t:  Note on ::  Channel 9.  Note 40.  Velocity 100
000240t:  Note off ::  Channel 9.  Note 42.  Velocity 0
000240t:  Note off ::  Channel 9.  Note 40.  Velocity 0
000000t:  Note on ::  Channel 9.  Note 42.  Velocity 50
000000t:  Note on ::  Channel 9.  Note 75.  Velocity 50
000120t:  Note off ::  Channel 9.  Note 75.  Velocity 0
000113t:  Note on ::  Channel 9.  Note 75.  Velocity 50
000007t:  Note off ::  Channel 9.  Note 42.  Velocity 0
000113t:  Note off ::  Channel 9.  Note 75.  Velocity 0
000127t:  Note on ::  Channel 9.  Note 42.  Velocity 50
000000t:  Note on ::  Channel 9.  Note 35.  Velocity 100
000240t:  Note off ::  Channel 9.  Note 42.  Velocity 0
000240t:  Note off ::  Channel 9.  Note 35.  Velocity 0
000000t:  Note on ::  Channel 9.  Note 42.  Velocity 50
000240t:  Note off ::  Channel 9.  Note 42.  Velocity 0
000240t:  Note on ::  Channel 9.  Note 40.  Velocity 100
000000t:  Note on ::  Channel 9.  Note 42.  Velocity 50
000240t:  Note off ::  Channel 9.  Note 42.  Velocity 0
000240t:  Note off ::  Channel 9.  Note 40.  Velocity 0
000000t:  Note on ::  Channel 9.  Note 42.  Velocity 50
000240t:  Note off ::  Channel 9.  Note 42.  Velocity 0
000240t:  Note on ::  Channel 9.  Note 42.  Velocity 50
000000t:  Note on ::  Channel 9.  Note 35.  Velocity 100
000240t:  Note off ::  Channel 9.  Note 42.  Velocity 0
000240t:  Note off ::  Channel 9.  Note 35.  Velocity 0
000000t:  Note on ::  Channel 9.  Note 42.  Velocity 50
000240t:  Note off ::  Channel 9.  Note 42.  Velocity 0
000240t:  Note on ::  Channel 9.  Note 40.  Velocity 100
000000t:  Note on ::  Channel 9.  Note 42.  Velocity 50
000240t:  Note off ::  Channel 9.  Note 42.  Velocity 0
000240t:  Note off ::  Channel 9.  Note 40.  Velocity 0
000000t:  Note on ::  Channel 9.  Note 42.  Velocity 50
000000t:  Note on ::  Channel 9.  Note 75.  Velocity 50
000120t:  Note off ::  Channel 9.  Note 75.  Velocity 0
000113t:  Note on ::  Channel 9.  Note 75.  Velocity 50
000007t:  Note off ::  Channel 9.  Note 42.  Velocity 0
000113t:  Note off ::  Channel 9.  Note 75.  Velocity 0
000127t:  Note on ::  Channel 9.  Note 42.  Velocity 50
000000t:  Note on ::  Channel 9.  Note 35.  Velocity 100
000240t:  Note off ::  Channel 9.  Note 42.  Velocity 0
000240t:  Note off ::  Channel 9.  Note 35.  Velocity 0
000000t:  Note on ::  Channel 9.  Note 42.  Velocity 50
000240t:  Note off ::  Channel 9.  Note 42.  Velocity 0
000240t:  Note on ::  Channel 9.  Note 40.  Velocity 100
000000t:  Note on ::  Channel 9.  Note 42.  Velocity 50
000240t:  Note off ::  Channel 9.  Note 42.  Velocity 0
000240t:  Note off ::  Channel 9.  Note 40.  Velocity 0
000000t:  Note on ::  Channel 9.  Note 42.  Velocity 50
000240t:  Note off ::  Channel 9.  Note 42.  Velocity 0
000240t:  Note on ::  Channel 9.  Note 42.  Velocity 50
000000t:  Note on ::  Channel 9.  Note 35.  Velocity 100
000240t:  Note off ::  Channel 9.  Note 42.  Velocity 0
000240t:  Note off ::  Channel 9.  Note 35.  Velocity 0
000000t:  Note on ::  Channel 9.  Note 42.  Velocity 50
000240t:  Note off ::  Channel 9.  Note 42.  Velocity 0
000240t:  Note on ::  Channel 9.  Note 40.  Velocity 100
000000t:  Note on ::  Channel 9.  Note 42.  Velocity 50
000240t:  Note off ::  Channel 9.  Note 42.  Velocity 0
000240t:  Note off ::  Channel 9.  Note 40.  Velocity 0
000000t:  Note on ::  Channel 9.  Note 42.  Velocity 50
000000t:  Note on ::  Channel 9.  Note 75.  Velocity 50
000120t:  Note off ::  Channel 9.  Note 75.  Velocity 0
000113t:  Note on ::  Channel 9.  Note 75.  Velocity 50
000007t:  Note off ::  Channel 9.  Note 42.  Velocity 0
000113t:  Note off ::  Channel 9.  Note 75.  Velocity 0
000127t:  Note on ::  Channel 9.  Note 42.  Velocity 50
000000t:  Note on ::  Channel 9.  Note 35.  Velocity 100
000240t:  Note off ::  Channel 9.  Note 42.  Velocity 0
000240t:  Note off ::  Channel 9.  Note 35.  Velocity 0
000000t:  Note on ::  Channel 9.  Note 42.  Velocity 50
000240t:  Note off ::  Channel 9.  Note 42.  Velocity 0
000240t:  Note on ::  Channel 9.  Note 40.  Velocity 100
000000t:  Note on ::  Channel 9.  Note 42.  Velocity 50
000240t:  Note off ::  Channel 9.  Note 42.  Velocity 0
000240t:  Note off ::  Channel 9.  Note 40.  Velocity 0
000000t:  Note on ::  Channel 9.  Note 42.  Velocity 50
000240t:  Note off ::  Channel 9.  Note 42.  Velocity 0
000240t:  Note on ::  Channel 9.  Note 42.  Velocity 50
000000t:  Note on ::  Channel 9.  Note 35.  Velocity 100
000240t:  Note off ::  Channel 9.  Note 42.  Velocity 0
000240t:  Note off ::  Channel 9.  Note 35.  Velocity 0
000000t:  Note on ::  Channel 9.  Note 42.  Velocity 50
000240t:  Note off ::  Channel 9.  Note 42.  Velocity 0
000240t:  Note on ::  Channel 9.  Note 40.  Velocity 100
000000t:  Note on ::  Channel 9.  Note 42.  Velocity 50
000240t:  Note off ::  Channel 9.  Note 42.  Velocity 0
000240t:  Note off ::  Channel 9.  Note 40.  Velocity 0
000000t:  Note on ::  Channel 9.  Note 42.  Velocity 50
000000t:  Note on ::  Channel 9.  Note 75.  Velocity 50
000120t:  Note off ::  Channel 9.  Note 75.  Velocity 0
000113t:  Note on ::  Channel 9.  Note 75.  Velocity 50
000007t:  Note off ::  Channel 9.  Note 42.  Velocity 0
000113t:  Note off ::  Channel 9.  Note 75.  Velocity 0
000127t:  Note on ::  Channel 9.  Note 42.  Velocity 50
000000t:  Note on ::  Channel 9.  Note 35.  Velocity 100
000240t:  Note off ::  Channel 9.  Note 42.  Velocity 0
000240t:  Note off ::  Channel 9.  Note 35.  Velocity 0
000000t:  Note on ::  Channel 9.  Note 42.  Velocity 50
000240t:  Note off ::  Channel 9.  Note 42.  Velocity 0
000240t:  Note on ::  Channel 9.  Note 40.  Velocity 100
000000t:  Note on ::  Channel 9.  Note 42.  Velocity 50
000240t:  Note off ::  Channel 9.  Note 42.  Velocity 0
000240t:  Note off ::  Channel 9.  Note 40.  Velocity 0
000000t:  Note on ::  Channel 9.  Note 42.  Velocity 50
000240t:  Note off ::  Channel 9.  Note 42.  Velocity 0
000240t:  Note on ::  Channel 9.  Note 42.  Velocity 50
000000t:  Note on ::  Channel 9.  Note 35.  Velocity 100
000240t:  Note off ::  Channel 9.  Note 42.  Velocity 0
000240t:  Note off ::  Channel 9.  Note 35.  Velocity 0
000000t:  Note on ::  Channel 9.  Note 42.  Velocity 50
000240t:  Note off ::  Channel 9.  Note 42.  Velocity 0
000240t:  Note on ::  Channel 9.  Note 42.  Velocity 50
000000t:  Note on ::  Channel 9.  Note 40.  Velocity 100
000240t:  Note off ::  Channel 9.  Note 42.  Velocity 0
000240t:  Note off ::  Channel 9.  Note 40.  Velocity 0
000000t:  Note on ::  Channel 9.  Note 42.  Velocity 50
000000t:  Note on ::  Channel 9.  Note 75.  Velocity 50
000120t:  Note off ::  Channel 9.  Note 75.  Velocity 0
000113t:  Note on ::  Channel 9.  Note 75.  Velocity 50
000007t:  Note off ::  Channel 9.  Note 42.  Velocity 0
000113t:  Note off ::  Channel 9.  Note 75.  Velocity 0
000127t:  Note on ::  Channel 9.  Note 42.  Velocity 50
000000t:  Note on ::  Channel 9.  Note 35.  Velocity 100
000240t:  Note off ::  Channel 9.  Note 42.  Velocity 0
000240t:  Note off ::  Channel 9.  Note 35.  Velocity 0
000000t:  Note on ::  Channel 9.  Note 42.  Velocity 50
000240t:  Note off ::  Channel 9.  Note 42.  Velocity 0
000240t:  Note on ::  Channel 9.  Note 40.  Velocity 100
000000t:  Note on ::  Channel 9.  Note 42.  Velocity 50
000240t:  Note off ::  Channel 9.  Note 42.  Velocity 0
000240t:  Note off ::  Channel 9.  Note 40.  Velocity 0
000000t:  Note on ::  Channel 9.  Note 42.  Velocity 50
000240t:  Note off ::  Channel 9.  Note 42.  Velocity 0
000240t:  Note on ::  Channel 9.  Note 42.  Velocity 50
000000t:  Note on ::  Channel 9.  Note 35.  Velocity 100
000240t:  Note off ::  Channel 9.  Note 42.  Velocity 0
000240t:  Note off ::  Channel 9.  Note 35.  Velocity 0
000000t:  Note on ::  Channel 9.  Note 42.  Velocity 50
000240t:  Note off ::  Channel 9.  Note 42.  Velocity 0
000240t:  Note on ::  Channel 9.  Note 40.  Velocity 100
000000t:  Note on ::  Channel 9.  Note 42.  Velocity 50
000240t:  Note off ::  Channel 9.  Note 42.  Velocity 0
000240t:  Note off ::  Channel 9.  Note 40.  Velocity 0
000000t:  Note on ::  Channel 9.  Note 42.  Velocity 50
000000t:  Note on ::  Channel 9.  Note 75.  Velocity 50
000120t:  Note off ::  Channel 9.  Note 75.  Velocity 0
000113t:  Note on ::  Channel 9.  Note 75.  Velocity 50
000007t:  Note off ::  Channel 9.  Note 42.  Velocity 0
000113t:  Note off ::  Channel 9.  Note 75.  Velocity 0
000127t:  Note on ::  Channel 9.  Note 42.  Velocity 50
000000t:  Note on ::  Channel 9.  Note 35.  Velocity 100
000240t:  Note off ::  Channel 9.  Note 42.  Velocity 0
000240t:  Note off ::  Channel 9.  Note 35.  Velocity 0
000000t:  Note on ::  Channel 9.  Note 42.  Velocity 50
000240t:  Note off ::  Channel 9.  Note 42.  Velocity 0
000240t:  Note on ::  Channel 9.  Note 40.  Velocity 100
000000t:  Note on ::  Channel 9.  Note 42.  Velocity 50
000240t:  Note off ::  Channel 9.  Note 42.  Velocity 0
000240t:  Note off ::  Channel 9.  Note 40.  Velocity 0
000000t:  Note on ::  Channel 9.  Note 42.  Velocity 50
000240t:  Note off ::  Channel 9.  Note 42.  Velocity 0
000240t:  Note on ::  Channel 9.  Note 42.  Velocity 50
000000t:  Note on ::  Channel 9.  Note 35.  Velocity 100
000240t:  Note off ::  Channel 9.  Note 42.  Velocity 0
000240t:  Note off ::  Channel 9.  Note 35.  Velocity 0
000000t:  Note on ::  Channel 9.  Note 42.  Velocity 50
000240t:  Note off ::  Channel 9.  Note 42.  Velocity 0
000240t:  Note on ::  Channel 9.  Note 40.  Velocity 100
000000t:  Note on ::  Channel 9.  Note 42.  Velocity 50
000240t:  Note off ::  Channel 9.  Note 42.  Velocity 0
000240t:  Note off ::  Channel 9.  Note 40.  Velocity 0
000000t:  Note on ::  Channel 9.  Note 42.  Velocity 50
000000t:  Note on ::  Channel 9.  Note 75.  Velocity 50
000120t:  Note off ::  Channel 9.  Note 75.  Velocity 0
000113t:  Note on ::  Channel 9.  Note 75.  Velocity 50
000007t:  Note off ::  Channel 9.  Note 42.  Velocity 0
000113t:  Note off ::  Channel 9.  Note 75.  Velocity 0
000127t:  Note on ::  Channel 9.  Note 42.  Velocity 50
000000t:  Note on ::  Channel 9.  Note 35.  Velocity 100
000240t:  Note off ::  Channel 9.  Note 42.  Velocity 0
000240t:  Note off ::  Channel 9.  Note 35.  Velocity 0
000000t:  Note on ::  Channel 9.  Note 42.  Velocity 50
000240t:  Note off ::  Channel 9.  Note 42.  Velocity 0
000240t:  Note on ::  Channel 9.  Note 40.  Velocity 100
000000t:  Note on ::  Channel 9.  Note 42.  Velocity 50
000240t:  Note off ::  Channel 9.  Note 42.  Velocity 0
000240t:  Note off ::  Channel 9.  Note 40.  Velocity 0
000000t:  Note on ::  Channel 9.  Note 42.  Velocity 50
000240t:  Note off ::  Channel 9.  Note 42.  Velocity 0
000240t:  Note on ::  Channel 9.  Note 42.  Velocity 50
000000t:  Note on ::  Channel 9.  Note 35.  Velocity 100
000240t:  Note off ::  Channel 9.  Note 42.  Velocity 0
000240t:  Note off ::  Channel 9.  Note 35.  Velocity 0
000000t:  Note on ::  Channel 9.  Note 42.  Velocity 50
000240t:  Note off ::  Channel 9.  Note 42.  Velocity 0
000240t:  Note on ::  Channel 9.  Note 40.  Velocity 100
000000t:  Note on ::  Channel 9.  Note 42.  Velocity 50
000240t:  Note off ::  Channel 9.  Note 42.  Velocity 0
000240t:  Note off ::  Channel 9.  Note 40.  Velocity 0
000000t:  Note on ::  Channel 9.  Note 42.  Velocity 50
000000t:  Note on ::  Channel 9.  Note 75.  Velocity 50
000120t:  Note off ::  Channel 9.  Note 75.  Velocity 0
000113t:  Note on ::  Channel 9.  Note 75.  Velocity 50
000007t:  Note off ::  Channel 9.  Note 42.  Velocity 0
000113t:  Note off ::  Channel 9.  Note 75.  Velocity 0
000127t:  Note on ::  Channel 9.  Note 42.  Velocity 50
000000t:  Note on ::  Channel 9.  Note 35.  Velocity 100
000240t:  Note off ::  Channel 9.  Note 42.  Velocity 0
000240t:  Note off ::  Channel 9.  Note 35.  Velocity 0
000000t:  Note on ::  Channel 9.  Note 42.  Velocity 50
000240t:  Note off ::  Channel 9.  Note 42.  Velocity 0
000240t:  Note on ::  Channel 9.  Note 40.  Velocity 100
000000t:  Note on ::  Channel 9.  Note 42.  Velocity 50
000240t:  Note off ::  Channel 9.  Note 42.  Velocity 0
000240t:  Note off ::  Channel 9.  Note 40.  Velocity 0
000000t:  Note on ::  Channel 9.  Note 42.  Velocity 50
000240t:  Note off ::  Channel 9.  Note 42.  Velocity 0
000240t:  Note on ::  Channel 9.  Note 42.  Velocity 50
000000t:  Note on ::  Channel 9.  Note 35.  Velocity 100
000240t:  Note off ::  Channel 9.  Note 42.  Velocity 0
000240t:  Note off ::  Channel 9.  Note 35.  Velocity 0
000000t:  Note on ::  Channel 9.  Note 42.  Velocity 50
000240t:  Note off ::  Channel 9.  Note 42.  Velocity 0
000240t:  Note on ::  Channel 9.  Note 42.  Velocity 50
000000t:  Note on ::  Channel 9.  Note 40.  Velocity 100
000240t:  Note off ::  Channel 9.  Note 42.  Velocity 0
000240t:  Note off ::  Channel 9.  Note 40.  Velocity 0
000000t:  Note on ::  Channel 9.  Note 42.  Velocity 50
000000t:  Note on ::  Channel 9.  Note 75.  Velocity 50
000120t:  Note off ::  Channel 9.  Note 75.  Velocity 0
000113t:  Note on ::  Channel 9.  Note 75.  Velocity 50
000007t:  Note off ::  Channel 9.  Note 42.  Velocity 0
000113t:  Note off ::  Channel 9.  Note 75.  Velocity 0
000127t:  Note on ::  Channel 9.  Note 42.  Velocity 50
000000t:  Note on ::  Channel 9.  Note 35.  Velocity 100
000240t:  Note off ::  Channel 9.  Note 42.  Velocity 0
000240t:  Note off ::  Channel 9.  Note 35.  Velocity 0
000000t:  Note on ::  Channel 9.  Note 42.  Velocity 50
000240t:  Note off ::  Channel 9.  Note 42.  Velocity 0
000240t:  Note on ::  Channel 9.  Note 40.  Velocity 100
000000t:  Note on ::  Channel 9.  Note 42.  Velocity 50
000240t:  Note off ::  Channel 9.  Note 42.  Velocity 0
000240t:  Note off ::  Channel 9.  Note 40.  Velocity 0
000000t:  Note on ::  Channel 9.  Note 42.  Velocity 50
000240t:  Note off ::  Channel 9.  Note 42.  Velocity 0
000240t:  Note on ::  Channel 9.  Note 42.  Velocity 50
000000t:  Note on ::  Channel 9.  Note 35.  Velocity 100
000240t:  Note off ::  Channel 9.  Note 42.  Velocity 0
000240t:  Note off ::  Channel 9.  Note 35.  Velocity 0
000000t:  Note on ::  Channel 9.  Note 42.  Velocity 50
000240t:  Note off ::  Channel 9.  Note 42.  Velocity 0
000240t:  Note on ::  Channel 9.  Note 40.  Velocity 100
000000t:  Note on ::  Channel 9.  Note 42.  Velocity 50
000240t:  Note off ::  Channel 9.  Note 42.  Velocity 0
000240t:  Note off ::  Channel 9.  Note 40.  Velocity 0
000000t:  Note on ::  Channel 9.  Note 42.  Velocity 50
000000t:  Note on ::  Channel 9.  Note 75.  Velocity 50
000120t:  Note off ::  Channel 9.  Note 75.  Velocity 0
000113t:  Note on ::  Channel 9.  Note 75.  Velocity 50
000007t:  Note off ::  Channel 9.  Note 42.  Velocity 0
000113t:  Note off ::  Channel 9.  Note 75.  Velocity 0
000127t:  Note on ::  Channel 9.  Note 42.  Velocity 50
000000t:  Note on ::  Channel 9.  Note 35.  Velocity 100
000240t:  Note off ::  Channel 9.  Note 42.  Velocity 0
000240t:  Note off ::  Channel 9.  Note 35.  Velocity 0
000000t:  Note on ::  Channel 9.  Note 42.  Velocity 50
000240t:  Note off ::  Channel 9.  Note 42.  Velocity 0
000240t:  Note on ::  Channel 9.  Note 40.  Velocity 100
000000t:  Note on ::  Channel 9.  Note 42.  Velocity 50
000240t:  Note off ::  Channel 9.  Note 42.  Velocity 0
000240t:  Note off ::  Channel 9.  Note 40.  Velocity 0
000000t:  Note on ::  Channel 9.  Note 42.  Velocity 50
000240t:  Note off ::  Channel 9.  Note 42.  Velocity 0
000240t:  Note on ::  Channel 9.  Note 42.  Velocity 50
000000t:  Note on ::  Channel 9.  Note 35.  Velocity 100
000240t:  Note off ::  Channel 9.  Note 42.  Velocity 0
000240t:  Note off ::  Channel 9.  Note 35.  Velocity 0
000000t:  Note on ::  Channel 9.  Note 42.  Velocity 50
000240t:  Note off ::  Channel 9.  Note 42.  Velocity 0
000240t:  Note on ::  Channel 9.  Note 40.  Velocity 100
000000t:  Note on ::  Channel 9.  Note 42.  Velocity 50
000240t:  Note off ::  Channel 9.  Note 42.  Velocity 0
000240t:  Note off ::  Channel 9.  Note 40.  Velocity 0
000000t:  Note on ::  Channel 9.  Note 42.  Velocity 50
000000t:  Note on ::  Channel 9.  Note 75.  Velocity 50
000120t:  Note off ::  Channel 9.  Note 75.  Velocity 0
000113t:  Note on ::  Channel 9.  Note 75.  Velocity 50
000007t:  Note off ::  Channel 9.  Note 42.  Velocity 0
000113t:  Note off ::  Channel 9.  Note 75.  Velocity 0
000127t:  Note on ::  Channel 9.  Note 42.  Velocity 50
000000t:  Note on ::  Channel 9.  Note 35.  Velocity 100
000240t:  Note off ::  Channel 9.  Note 42.  Velocity 0
000240t:  Note off ::  Channel 9.  Note 35.  Velocity 0
000000t:  Note on ::  Channel 9.  Note 42.  Velocity 50
000240t:  Note off ::  Channel 9.  Note 42.  Velocity 0
000240t:  Note on ::  Channel 9.  Note 40.  Velocity 100
000000t:  Note on ::  Channel 9.  Note 42.  Velocity 50
000240t:  Note off ::  Channel 9.  Note 42.  Velocity 0
000240t:  Note off ::  Channel 9.  Note 40.  Velocity 0
000000t:  Note on ::  Channel 9.  Note 42.  Velocity 50
000240t:  Note off ::  Channel 9.  Note 42.  Velocity 0
000240t:  Note on ::  Channel 9.  Note 42.  Velocity 50
000000t:  Note on ::  Channel 9.  Note 35.  Velocity 100
000240t:  Note off ::  Channel 9.  Note 42.  Velocity 0
000240t:  Note off ::  Channel 9.  Note 35.  Velocity 0
000000t:  Note on ::  Channel 9.  Note 42.  Velocity 50
000240t:  Note off ::  Channel 9.  Note 42.  Velocity 0
000240t:  Note on ::  Channel 9.  Note 42.  Velocity 50
000000t:  Note on ::  Channel 9.  Note 40.  Velocity 100
000240t:  Note off ::  Channel 9.  Note 42.  Velocity 0
000240t:  Note off ::  Channel 9.  Note 40.  Velocity 0
000000t:  Note on ::  Channel 9.  Note 42.  Velocity 50
000000t:  Note on ::  Channel 9.  Note 75.  Velocity 50
000120t:  Note off ::  Channel 9.  Note 75.  Velocity 0
000113t:  Note on ::  Channel 9.  Note 75.  Velocity 50
000007t:  Note off ::  Channel 9.  Note 42.  Velocity 0
000113t:  Note off ::  Channel 9.  Note 75.  Velocity 0
000127t:  Note on ::  Channel 9.  Note 42.  Velocity 50
000000t:  Note on ::  Channel 9.  Note 51.  Velocity 60
000240t:  Note off ::  Channel 9.  Note 42.  Velocity 0
000240t:  Note on ::  Channel 9.  Note 42.  Velocity 50
000240t:  Note off ::  Channel 9.  Note 42.  Velocity 0
000149t:  Note off ::  Channel 9.  Note 51.  Velocity 0
000091t:  Note on ::  Channel 9.  Note 40.  Velocity 100
000000t:  Note on ::  Channel 9.  Note 64.  Velocity 70
000000t:  Note on ::  Channel 9.  Note 42.  Velocity 50
000120t:  Note off ::  Channel 9.  Note 64.  Velocity 0
000113t:  Note off ::  Channel 9.  Note 42.  Velocity 0
000000t:  Note on ::  Channel 9.  Note 63.  Velocity 70
000120t:  Note off ::  Channel 9.  Note 63.  Velocity 0
000075t:  Note off ::  Channel 9.  Note 40.  Velocity 0
000052t:  Note on ::  Channel 9.  Note 64.  Velocity 70
000000t:  Note on ::  Channel 9.  Note 42.  Velocity 50
000120t:  Note off ::  Channel 9.  Note 64.  Velocity 0
000113t:  Note on ::  Channel 9.  Note 64.  Velocity 70
000026t:  Note off ::  Channel 9.  Note 42.  Velocity 0
000094t:  Note off ::  Channel 9.  Note 64.  Velocity 0
000000t:  Meta-event type $2f (End-track event) of length 0
Sigma t = 124673

Track chunk of 2157 bytes
000000t:  Meta-event type $03 (Track name) of length 12
	          Bass
000000t:  Meta-event type $21 (?) of length 1
	  _
000000t:  Meta-event type $20 (?) of length 1
	  _
000000t:  Control change ::  Channel 0.  Controller 7.  Value: 104
000000t:  Control change ::  Channel 0.  Controller 10.  Value: 64
000000t:  Control change ::  Channel 0.  Controller 91.  Value: 29
000000t:  Program (patch) change ::  Channel 0.  Patch 33 (Electric Bass(finger))
001920t:  Note on ::  Channel 0.  Note 38.  Velocity 100
000194t:  Note off ::  Channel 0.  Note 38.  Velocity 0
000039t:  Note on ::  Channel 0.  Note 38.  Velocity 100
000337t:  Note off ::  Channel 0.  Note 38.  Velocity 0
000870t:  Note on ::  Channel 0.  Note 38.  Velocity 100
000181t:  Note off ::  Channel 0.  Note 38.  Velocity 0
000052t:  Note on ::  Channel 0.  Note 38.  Velocity 100
000454t:  Note off ::  Channel 0.  Note 38.  Velocity 0
000506t:  Note on ::  Channel 0.  Note 33.  Velocity 100
000247t:  Note on ::  Channel 0.  Note 35.  Velocity 100
000051t:  Note off ::  Channel 0.  Note 33.  Velocity 0
000403t:  Note off ::  Channel 0.  Note 35.  Velocity 0
000026t:  Note on ::  Channel 0.  Note 38.  Velocity 100
000350t:  Note off ::  Channel 0.  Note 38.  Velocity 0
000130t:  Note on ::  Channel 0.  Note 33.  Velocity 100
000194t:  Note off ::  Channel 0.  Note 33.  Velocity 0
000039t:  Note on ::  Channel 0.  Note 33.  Velocity 100
000337t:  Note off ::  Channel 0.  Note 33.  Velocity 0
000870t:  Note on ::  Channel 0.  Note 33.  Velocity 100
000181t:  Note off ::  Channel 0.  Note 33.  Velocity 0
000052t:  Note on ::  Channel 0.  Note 33.  Velocity 100
000454t:  Note off ::  Channel 0.  Note 33.  Velocity 0
000506t:  Note on ::  Channel 0.  Note 28.  Velocity 100
000247t:  Note on ::  Channel 0.  Note 30.  Velocity 100
000051t:  Note off ::  Channel 0.  Note 28.  Velocity 0
000403t:  Note off ::  Channel 0.  Note 30.  Velocity 0
000026t:  Note on ::  Channel 0.  Note 33.  Velocity 100
000350t:  Note off ::  Channel 0.  Note 33.  Velocity 0
000130t:  Note on ::  Channel 0.  Note 38.  Velocity 100
000194t:  Note off ::  Channel 0.  Note 38.  Velocity 0
000039t:  Note on ::  Channel 0.  Note 38.  Velocity 100
000337t:  Note off ::  Channel 0.  Note 38.  Velocity 0
000870t:  Note on ::  Channel 0.  Note 38.  Velocity 100
000181t:  Note off ::  Channel 0.  Note 38.  Velocity 0
000052t:  Note on ::  Channel 0.  Note 38.  Velocity 100
000454t:  Note off ::  Channel 0.  Note 38.  Velocity 0
000506t:  Note on ::  Channel 0.  Note 33.  Velocity 100
000247t:  Note on ::  Channel 0.  Note 35.  Velocity 100
000051t:  Note off ::  Channel 0.  Note 33.  Velocity 0
000403t:  Note off ::  Channel 0.  Note 35.  Velocity 0
000026t:  Note on ::  Channel 0.  Note 38.  Velocity 100
000350t:  Note off ::  Channel 0.  Note 38.  Velocity 0
000130t:  Note on ::  Channel 0.  Note 33.  Velocity 100
000194t:  Note off ::  Channel 0.  Note 33.  Velocity 0
000039t:  Note on ::  Channel 0.  Note 33.  Velocity 100
000337t:  Note off ::  Channel 0.  Note 33.  Velocity 0
000870t:  Note on ::  Channel 0.  Note 33.  Velocity 100
000181t:  Note off ::  Channel 0.  Note 33.  Velocity 0
000052t:  Note on ::  Channel 0.  Note 33.  Velocity 100
000454t:  Note off ::  Channel 0.  Note 33.  Velocity 0
000506t:  Note on ::  Channel 0.  Note 28.  Velocity 100
000247t:  Note on ::  Channel 0.  Note 30.  Velocity 100
000051t:  Note off ::  Channel 0.  Note 28.  Velocity 0
000403t:  Note off ::  Channel 0.  Note 30.  Velocity 0
000026t:  Note on ::  Channel 0.  Note 33.  Velocity 100
000350t:  Note off ::  Channel 0.  Note 33.  Velocity 0
000130t:  Note on ::  Channel 0.  Note 38.  Velocity 100
000194t:  Note off ::  Channel 0.  Note 38.  Velocity 0
000039t:  Note on ::  Channel 0.  Note 38.  Velocity 100
000337t:  Note off ::  Channel 0.  Note 38.  Velocity 0
000870t:  Note on ::  Channel 0.  Note 38.  Velocity 100
000181t:  Note off ::  Channel 0.  Note 38.  Velocity 0
000052t:  Note on ::  Channel 0.  Note 38.  Velocity 100
000454t:  Note off ::  Channel 0.  Note 38.  Velocity 0
000506t:  Note on ::  Channel 0.  Note 33.  Velocity 100
000247t:  Note on ::  Channel 0.  Note 35.  Velocity 100
000051t:  Note off ::  Channel 0.  Note 33.  Velocity 0
000403t:  Note off ::  Channel 0.  Note 35.  Velocity 0
000026t:  Note on ::  Channel 0.  Note 38.  Velocity 100
000350t:  Note off ::  Channel 0.  Note 38.  Velocity 0
000130t:  Note on ::  Channel 0.  Note 33.  Velocity 100
000194t:  Note off ::  Channel 0.  Note 33.  Velocity 0
000039t:  Note on ::  Channel 0.  Note 33.  Velocity 100
000337t:  Note off ::  Channel 0.  Note 33.  Velocity 0
000870t:  Note on ::  Channel 0.  Note 33.  Velocity 100
000181t:  Note off ::  Channel 0.  Note 33.  Velocity 0
000052t:  Note on ::  Channel 0.  Note 33.  Velocity 100
000454t:  Note off ::  Channel 0.  Note 33.  Velocity 0
000506t:  Note on ::  Channel 0.  Note 28.  Velocity 100
000247t:  Note on ::  Channel 0.  Note 30.  Velocity 100
000051t:  Note off ::  Channel 0.  Note 28.  Velocity 0
000403t:  Note off ::  Channel 0.  Note 30.  Velocity 0
000026t:  Note on ::  Channel 0.  Note 33.  Velocity 100
000350t:  Note off ::  Channel 0.  Note 33.  Velocity 0
000130t:  Note on ::  Channel 0.  Note 38.  Velocity 100
000194t:  Note off ::  Channel 0.  Note 38.  Velocity 0
000039t:  Note on ::  Channel 0.  Note 38.  Velocity 100
000337t:  Note off ::  Channel 0.  Note 38.  Velocity 0
000870t:  Note on ::  Channel 0.  Note 38.  Velocity 100
000181t:  Note off ::  Channel 0.  Note 38.  Velocity 0
000052t:  Note on ::  Channel 0.  Note 38.  Velocity 100
000454t:  Note off ::  Channel 0.  Note 38.  Velocity 0
000506t:  Note on ::  Channel 0.  Note 33.  Velocity 100
000247t:  Note on ::  Channel 0.  Note 35.  Velocity 100
000051t:  Note off ::  Channel 0.  Note 33.  Velocity 0
000403t:  Note off ::  Channel 0.  Note 35.  Velocity 0
000026t:  Note on ::  Channel 0.  Note 38.  Velocity 100
000350t:  Note off ::  Channel 0.  Note 38.  Velocity 0
000130t:  Note on ::  Channel 0.  Note 33.  Velocity 100
000194t:  Note off ::  Channel 0.  Note 33.  Velocity 0
000039t:  Note on ::  Channel 0.  Note 33.  Velocity 100
000337t:  Note off ::  Channel 0.  Note 33.  Velocity 0
000870t:  Note on ::  Channel 0.  Note 33.  Velocity 100
000181t:  Note off ::  Channel 0.  Note 33.  Velocity 0
000052t:  Note on ::  Channel 0.  Note 33.  Velocity 100
000454t:  Note off ::  Channel 0.  Note 33.  Velocity 0
000506t:  Note on ::  Channel 0.  Note 28.  Velocity 100
000247t:  Note on ::  Channel 0.  Note 30.  Velocity 100
000051t:  Note off ::  Channel 0.  Note 28.  Velocity 0
000403t:  Note off ::  Channel 0.  Note 30.  Velocity 0
000026t:  Note on ::  Channel 0.  Note 33.  Velocity 100
000350t:  Note off ::  Channel 0.  Note 33.  Velocity 0
000130t:  Note on ::  Channel 0.  Note 38.  Velocity 100
000194t:  Note off ::  Channel 0.  Note 38.  Velocity 0
000039t:  Note on ::  Channel 0.  Note 38.  Velocity 100
000337t:  Note off ::  Channel 0.  Note 38.  Velocity 0
000870t:  Note on ::  Channel 0.  Note 38.  Velocity 100
000181t:  Note off ::  Channel 0.  Note 38.  Velocity 0
000052t:  Note on ::  Channel 0.  Note 38.  Velocity 100
000454t:  Note off ::  Channel 0.  Note 38.  Velocity 0
000506t:  Note on ::  Channel 0.  Note 33.  Velocity 100
000247t:  Note on ::  Channel 0.  Note 35.  Velocity 100
000051t:  Note off ::  Channel 0.  Note 33.  Velocity 0
000403t:  Note off ::  Channel 0.  Note 35.  Velocity 0
000026t:  Note on ::  Channel 0.  Note 38.  Velocity 100
000350t:  Note off ::  Channel 0.  Note 38.  Velocity 0
000130t:  Note on ::  Channel 0.  Note 37.  Velocity 100
000194t:  Note off ::  Channel 0.  Note 37.  Velocity 0
000039t:  Note on ::  Channel 0.  Note 37.  Velocity 100
000337t:  Note off ::  Channel 0.  Note 37.  Velocity 0
000870t:  Note on ::  Channel 0.  Note 37.  Velocity 100
000181t:  Note off ::  Channel 0.  Note 37.  Velocity 0
000052t:  Note on ::  Channel 0.  Note 37.  Velocity 100
000454t:  Note off ::  Channel 0.  Note 37.  Velocity 0
000506t:  Note on ::  Channel 0.  Note 32.  Velocity 100
000247t:  Note on ::  Channel 0.  Note 37.  Velocity 100
000051t:  Note off ::  Channel 0.  Note 32.  Velocity 0
000403t:  Note off ::  Channel 0.  Note 37.  Velocity 0
000026t:  Note on ::  Channel 0.  Note 36.  Velocity 100
000350t:  Note off ::  Channel 0.  Note 36.  Velocity 0
000130t:  Note on ::  Channel 0.  Note 35.  Velocity 100
000194t:  Note off ::  Channel 0.  Note 35.  Velocity 0
000039t:  Note on ::  Channel 0.  Note 35.  Velocity 100
000337t:  Note off ::  Channel 0.  Note 35.  Velocity 0
000870t:  Note on ::  Channel 0.  Note 28.  Velocity 100
000181t:  Note off ::  Channel 0.  Note 28.  Velocity 0
000052t:  Note on ::  Channel 0.  Note 28.  Velocity 100
000454t:  Note off ::  Channel 0.  Note 28.  Velocity 0
000506t:  Note on ::  Channel 0.  Note 28.  Velocity 100
000247t:  Note on ::  Channel 0.  Note 30.  Velocity 100
000051t:  Note off ::  Channel 0.  Note 28.  Velocity 0
000403t:  Note off ::  Channel 0.  Note 30.  Velocity 0
000026t:  Note on ::  Channel 0.  Note 33.  Velocity 100
000350t:  Note off ::  Channel 0.  Note 33.  Velocity 0
000130t:  Note on ::  Channel 0.  Note 33.  Velocity 100
000194t:  Note off ::  Channel 0.  Note 33.  Velocity 0
000039t:  Note on ::  Channel 0.  Note 33.  Velocity 100
000337t:  Note off ::  Channel 0.  Note 33.  Velocity 0
000870t:  Note on ::  Channel 0.  Note 33.  Velocity 100
000181t:  Note off ::  Channel 0.  Note 33.  Velocity 0
000052t:  Note on ::  Channel 0.  Note 33.  Velocity 100
000454t:  Note off ::  Channel 0.  Note 33.  Velocity 0
000506t:  Note on ::  Channel 0.  Note 28.  Velocity 100
000247t:  Note on ::  Channel 0.  Note 30.  Velocity 100
000051t:  Note off ::  Channel 0.  Note 28.  Velocity 0
000403t:  Note off ::  Channel 0.  Note 30.  Velocity 0
000026t:  Note on ::  Channel 0.  Note 33.  Velocity 100
000350t:  Note off ::  Channel 0.  Note 33.  Velocity 0
000130t:  Note on ::  Channel 0.  Note 38.  Velocity 100
000194t:  Note off ::  Channel 0.  Note 38.  Velocity 0
000039t:  Note on ::  Channel 0.  Note 38.  Velocity 100
000337t:  Note off ::  Channel 0.  Note 38.  Velocity 0
000870t:  Note on ::  Channel 0.  Note 38.  Velocity 100
000181t:  Note off ::  Channel 0.  Note 38.  Velocity 0
000052t:  Note on ::  Channel 0.  Note 38.  Velocity 100
000454t:  Note off ::  Channel 0.  Note 38.  Velocity 0
000506t:  Note on ::  Channel 0.  Note 33.  Velocity 100
000247t:  Note on ::  Channel 0.  Note 35.  Velocity 100
000051t:  Note off ::  Channel 0.  Note 33.  Velocity 0
000403t:  Note off ::  Channel 0.  Note 35.  Velocity 0
000026t:  Note on ::  Channel 0.  Note 38.  Velocity 100
000350t:  Note off ::  Channel 0.  Note 38.  Velocity 0
000130t:  Note on ::  Channel 0.  Note 37.  Velocity 100
000194t:  Note off ::  Channel 0.  Note 37.  Velocity 0
000039t:  Note on ::  Channel 0.  Note 37.  Velocity 100
000337t:  Note off ::  Channel 0.  Note 37.  Velocity 0
000870t:  Note on ::  Channel 0.  Note 37.  Velocity 100
000181t:  Note off ::  Channel 0.  Note 37.  Velocity 0
000052t:  Note on ::  Channel 0.  Note 37.  Velocity 100
000454t:  Note off ::  Channel 0.  Note 37.  Velocity 0
000506t:  Note on ::  Channel 0.  Note 32.  Velocity 100
000247t:  Note on ::  Channel 0.  Note 37.  Velocity 100
000051t:  Note off ::  Channel 0.  Note 32.  Velocity 0
000403t:  Note off ::  Channel 0.  Note 37.  Velocity 0
000026t:  Note on ::  Channel 0.  Note 36.  Velocity 100
000350t:  Note off ::  Channel 0.  Note 36.  Velocity 0
000130t:  Note on ::  Channel 0.  Note 35.  Velocity 100
000194t:  Note off ::  Channel 0.  Note 35.  Velocity 0
000039t:  Note on ::  Channel 0.  Note 35.  Velocity 100
000337t:  Note off ::  Channel 0.  Note 35.  Velocity 0
000870t:  Note on ::  Channel 0.  Note 28.  Velocity 100
000181t:  Note off ::  Channel 0.  Note 28.  Velocity 0
000052t:  Note on ::  Channel 0.  Note 28.  Velocity 100
000454t:  Note off ::  Channel 0.  Note 28.  Velocity 0
000506t:  Note on ::  Channel 0.  Note 28.  Velocity 100
000247t:  Note on ::  Channel 0.  Note 30.  Velocity 100
000051t:  Note off ::  Channel 0.  Note 28.  Velocity 0
000403t:  Note off ::  Channel 0.  Note 30.  Velocity 0
000026t:  Note on ::  Channel 0.  Note 33.  Velocity 100
000350t:  Note off ::  Channel 0.  Note 33.  Velocity 0
000130t:  Note on ::  Channel 0.  Note 33.  Velocity 100
000194t:  Note off ::  Channel 0.  Note 33.  Velocity 0
000039t:  Note on ::  Channel 0.  Note 33.  Velocity 100
000337t:  Note off ::  Channel 0.  Note 33.  Velocity 0
000870t:  Note on ::  Channel 0.  Note 33.  Velocity 100
000181t:  Note off ::  Channel 0.  Note 33.  Velocity 0
000052t:  Note on ::  Channel 0.  Note 33.  Velocity 100
000454t:  Note off ::  Channel 0.  Note 33.  Velocity 0
000506t:  Note on ::  Channel 0.  Note 28.  Velocity 100
000247t:  Note on ::  Channel 0.  Note 30.  Velocity 100
000051t:  Note off ::  Channel 0.  Note 28.  Velocity 0
000403t:  Note off ::  Channel 0.  Note 30.  Velocity 0
000026t:  Note on ::  Channel 0.  Note 33.  Velocity 100
000350t:  Note off ::  Channel 0.  Note 33.  Velocity 0
000130t:  Note on ::  Channel 0.  Note 38.  Velocity 100
000194t:  Note off ::  Channel 0.  Note 38.  Velocity 0
000039t:  Note on ::  Channel 0.  Note 38.  Velocity 100
000337t:  Note off ::  Channel 0.  Note 38.  Velocity 0
000870t:  Note on ::  Channel 0.  Note 38.  Velocity 100
000181t:  Note off ::  Channel 0.  Note 38.  Velocity 0
000052t:  Note on ::  Channel 0.  Note 38.  Velocity 100
000454t:  Note off ::  Channel 0.  Note 38.  Velocity 0
000506t:  Note on ::  Channel 0.  Note 33.  Velocity 100
000247t:  Note on ::  Channel 0.  Note 35.  Velocity 100
000051t:  Note off ::  Channel 0.  Note 33.  Velocity 0
000403t:  Note off ::  Channel 0.  Note 35.  Velocity 0
000026t:  Note on ::  Channel 0.  Note 38.  Velocity 100
000350t:  Note off ::  Channel 0.  Note 38.  Velocity 0
000130t:  Note on ::  Channel 0.  Note 33.  Velocity 100
000194t:  Note off ::  Channel 0.  Note 33.  Velocity 0
000039t:  Note on ::  Channel 0.  Note 33.  Velocity 100
000337t:  Note off ::  Channel 0.  Note 33.  Velocity 0
000870t:  Note on ::  Channel 0.  Note 33.  Velocity 100
000181t:  Note off ::  Channel 0.  Note 33.  Velocity 0
000052t:  Note on ::  Channel 0.  Note 33.  Velocity 100
000454t:  Note off ::  Channel 0.  Note 33.  Velocity 0
000506t:  Note on ::  Channel 0.  Note 28.  Velocity 100
000247t:  Note on ::  Channel 0.  Note 30.  Velocity 100
000051t:  Note off ::  Channel 0.  Note 28.  Velocity 0
000403t:  Note off ::  Channel 0.  Note 30.  Velocity 0
000026t:  Note on ::  Channel 0.  Note 33.  Velocity 100
000350t:  Note off ::  Channel 0.  Note 33.  Velocity 0
000130t:  Note on ::  Channel 0.  Note 38.  Velocity 100
000194t:  Note off ::  Channel 0.  Note 38.  Velocity 0
000039t:  Note on ::  Channel 0.  Note 38.  Velocity 100
000337t:  Note off ::  Channel 0.  Note 38.  Velocity 0
000870t:  Note on ::  Channel 0.  Note 38.  Velocity 100
000181t:  Note off ::  Channel 0.  Note 38.  Velocity 0
000052t:  Note on ::  Channel 0.  Note 38.  Velocity 100
000454t:  Note off ::  Channel 0.  Note 38.  Velocity 0
000506t:  Note on ::  Channel 0.  Note 33.  Velocity 100
000247t:  Note on ::  Channel 0.  Note 35.  Velocity 100
000051t:  Note off ::  Channel 0.  Note 33.  Velocity 0
000403t:  Note off ::  Channel 0.  Note 35.  Velocity 0
000026t:  Note on ::  Channel 0.  Note 38.  Velocity 100
000350t:  Note off ::  Channel 0.  Note 38.  Velocity 0
000130t:  Note on ::  Channel 0.  Note 33.  Velocity 100
000194t:  Note off ::  Channel 0.  Note 33.  Velocity 0
000039t:  Note on ::  Channel 0.  Note 33.  Velocity 100
000337t:  Note off ::  Channel 0.  Note 33.  Velocity 0
000870t:  Note on ::  Channel 0.  Note 33.  Velocity 100
000181t:  Note off ::  Channel 0.  Note 33.  Velocity 0
000052t:  Note on ::  Channel 0.  Note 33.  Velocity 100
000454t:  Note off ::  Channel 0.  Note 33.  Velocity 0
000506t:  Note on ::  Channel 0.  Note 28.  Velocity 100
000247t:  Note on ::  Channel 0.  Note 30.  Velocity 100
000051t:  Note off ::  Channel 0.  Note 28.  Velocity 0
000403t:  Note off ::  Channel 0.  Note 30.  Velocity 0
000026t:  Note on ::  Channel 0.  Note 33.  Velocity 100
000350t:  Note off ::  Channel 0.  Note 33.  Velocity 0
000130t:  Note on ::  Channel 0.  Note 38.  Velocity 100
000194t:  Note off ::  Channel 0.  Note 38.  Velocity 0
000039t:  Note on ::  Channel 0.  Note 38.  Velocity 100
000337t:  Note off ::  Channel 0.  Note 38.  Velocity 0
000870t:  Note on ::  Channel 0.  Note 38.  Velocity 100
000181t:  Note off ::  Channel 0.  Note 38.  Velocity 0
000052t:  Note on ::  Channel 0.  Note 38.  Velocity 100
000454t:  Note off ::  Channel 0.  Note 38.  Velocity 0
000506t:  Note on ::  Channel 0.  Note 33.  Velocity 100
000247t:  Note on ::  Channel 0.  Note 35.  Velocity 100
000051t:  Note off ::  Channel 0.  Note 33.  Velocity 0
000403t:  Note off ::  Channel 0.  Note 35.  Velocity 0
000026t:  Note on ::  Channel 0.  Note 38.  Velocity 100
000350t:  Note off ::  Channel 0.  Note 38.  Velocity 0
000130t:  Note on ::  Channel 0.  Note 33.  Velocity 100
000194t:  Note off ::  Channel 0.  Note 33.  Velocity 0
000039t:  Note on ::  Channel 0.  Note 33.  Velocity 100
000337t:  Note off ::  Channel 0.  Note 33.  Velocity 0
000870t:  Note on ::  Channel 0.  Note 33.  Velocity 100
000181t:  Note off ::  Channel 0.  Note 33.  Velocity 0
000052t:  Note on ::  Channel 0.  Note 33.  Velocity 100
000454t:  Note off ::  Channel 0.  Note 33.  Velocity 0
000506t:  Note on ::  Channel 0.  Note 28.  Velocity 100
000247t:  Note on ::  Channel 0.  Note 30.  Velocity 100
000051t:  Note off ::  Channel 0.  Note 28.  Velocity 0
000403t:  Note off ::  Channel 0.  Note 30.  Velocity 0
000026t:  Note on ::  Channel 0.  Note 33.  Velocity 100
000350t:  Note off ::  Channel 0.  Note 33.  Velocity 0
000130t:  Note on ::  Channel 0.  Note 38.  Velocity 100
000194t:  Note off ::  Channel 0.  Note 38.  Velocity 0
000039t:  Note on ::  Channel 0.  Note 38.  Velocity 100
000337t:  Note off ::  Channel 0.  Note 38.  Velocity 0
000870t:  Note on ::  Channel 0.  Note 38.  Velocity 100
000181t:  Note off ::  Channel 0.  Note 38.  Velocity 0
000052t:  Note on ::  Channel 0.  Note 38.  Velocity 100
000454t:  Note off ::  Channel 0.  Note 38.  Velocity 0
000506t:  Note on ::  Channel 0.  Note 33.  Velocity 100
000247t:  Note on ::  Channel 0.  Note 35.  Velocity 100
000051t:  Note off ::  Channel 0.  Note 33.  Velocity 0
000403t:  Note off ::  Channel 0.  Note 35.  Velocity 0
000026t:  Note on ::  Channel 0.  Note 38.  Velocity 100
000350t:  Note off ::  Channel 0.  Note 38.  Velocity 0
000130t:  Note on ::  Channel 0.  Note 33.  Velocity 100
000194t:  Note off ::  Channel 0.  Note 33.  Velocity 0
000039t:  Note on ::  Channel 0.  Note 33.  Velocity 100
000337t:  Note off ::  Channel 0.  Note 33.  Velocity 0
000870t:  Note on ::  Channel 0.  Note 33.  Velocity 100
000181t:  Note off ::  Channel 0.  Note 33.  Velocity 0
000052t:  Note on ::  Channel 0.  Note 33.  Velocity 100
000454t:  Note off ::  Channel 0.  Note 33.  Velocity 0
000506t:  Note on ::  Channel 0.  Note 28.  Velocity 100
000247t:  Note on ::  Channel 0.  Note 30.  Velocity 100
000051t:  Note off ::  Channel 0.  Note 28.  Velocity 0
000403t:  Note off ::  Channel 0.  Note 30.  Velocity 0
000026t:  Note on ::  Channel 0.  Note 33.  Velocity 100
000350t:  Note off ::  Channel 0.  Note 33.  Velocity 0
000130t:  Note on ::  Channel 0.  Note 38.  Velocity 100
000194t:  Note off ::  Channel 0.  Note 38.  Velocity 0
000039t:  Note on ::  Channel 0.  Note 38.  Velocity 100
000337t:  Note off ::  Channel 0.  Note 38.  Velocity 0
000870t:  Note on ::  Channel 0.  Note 38.  Velocity 100
000181t:  Note off ::  Channel 0.  Note 38.  Velocity 0
000052t:  Note on ::  Channel 0.  Note 38.  Velocity 100
000454t:  Note off ::  Channel 0.  Note 38.  Velocity 0
000506t:  Note on ::  Channel 0.  Note 33.  Velocity 100
000247t:  Note on ::  Channel 0.  Note 35.  Velocity 100
000051t:  Note off ::  Channel 0.  Note 33.  Velocity 0
000403t:  Note off ::  Channel 0.  Note 35.  Velocity 0
000026t:  Note on ::  Channel 0.  Note 38.  Velocity 100
000350t:  Note off ::  Channel 0.  Note 38.  Velocity 0
000130t:  Note on ::  Channel 0.  Note 37.  Velocity 100
000194t:  Note off ::  Channel 0.  Note 37.  Velocity 0
000039t:  Note on ::  Channel 0.  Note 37.  Velocity 100
000337t:  Note off ::  Channel 0.  Note 37.  Velocity 0
000870t:  Note on ::  Channel 0.  Note 37.  Velocity 100
000181t:  Note off ::  Channel 0.  Note 37.  Velocity 0
000052t:  Note on ::  Channel 0.  Note 37.  Velocity 100
000454t:  Note off ::  Channel 0.  Note 37.  Velocity 0
000506t:  Note on ::  Channel 0.  Note 32.  Velocity 100
000247t:  Note on ::  Channel 0.  Note 37.  Velocity 100
000051t:  Note off ::  Channel 0.  Note 32.  Velocity 0
000403t:  Note off ::  Channel 0.  Note 37.  Velocity 0
000026t:  Note on ::  Channel 0.  Note 36.  Velocity 100
000350t:  Note off ::  Channel 0.  Note 36.  Velocity 0
000130t:  Note on ::  Channel 0.  Note 35.  Velocity 100
000194t:  Note off ::  Channel 0.  Note 35.  Velocity 0
000039t:  Note on ::  Channel 0.  Note 35.  Velocity 100
000337t:  Note off ::  Channel 0.  Note 35.  Velocity 0
000870t:  Note on ::  Channel 0.  Note 28.  Velocity 100
000181t:  Note off ::  Channel 0.  Note 28.  Velocity 0
000052t:  Note on ::  Channel 0.  Note 28.  Velocity 100
000454t:  Note off ::  Channel 0.  Note 28.  Velocity 0
000506t:  Note on ::  Channel 0.  Note 28.  Velocity 100
000247t:  Note on ::  Channel 0.  Note 30.  Velocity 100
000051t:  Note off ::  Channel 0.  Note 28.  Velocity 0
000403t:  Note off ::  Channel 0.  Note 30.  Velocity 0
000026t:  Note on ::  Channel 0.  Note 33.  Velocity 100
000350t:  Note off ::  Channel 0.  Note 33.  Velocity 0
000130t:  Note on ::  Channel 0.  Note 33.  Velocity 100
000194t:  Note off ::  Channel 0.  Note 33.  Velocity 0
000039t:  Note on ::  Channel 0.  Note 33.  Velocity 100
000337t:  Note off ::  Channel 0.  Note 33.  Velocity 0
000870t:  Note on ::  Channel 0.  Note 33.  Velocity 100
000181t:  Note off ::  Channel 0.  Note 33.  Velocity 0
000052t:  Note on ::  Channel 0.  Note 33.  Velocity 100
000454t:  Note off ::  Channel 0.  Note 33.  Velocity 0
000506t:  Note on ::  Channel 0.  Note 28.  Velocity 100
000247t:  Note on ::  Channel 0.  Note 30.  Velocity 100
000051t:  Note off ::  Channel 0.  Note 28.  Velocity 0
000403t:  Note off ::  Channel 0.  Note 30.  Velocity 0
000026t:  Note on ::  Channel 0.  Note 33.  Velocity 100
000350t:  Note off ::  Channel 0.  Note 33.  Velocity 0
000130t:  Note on ::  Channel 0.  Note 38.  Velocity 100
000194t:  Note off ::  Channel 0.  Note 38.  Velocity 0
000039t:  Note on ::  Channel 0.  Note 38.  Velocity 100
000337t:  Note off ::  Channel 0.  Note 38.  Velocity 0
000870t:  Note on ::  Channel 0.  Note 38.  Velocity 100
000181t:  Note off ::  Channel 0.  Note 38.  Velocity 0
000052t:  Note on ::  Channel 0.  Note 38.  Velocity 100
000454t:  Note off ::  Channel 0.  Note 38.  Velocity 0
000506t:  Note on ::  Channel 0.  Note 33.  Velocity 100
000247t:  Note on ::  Channel 0.  Note 35.  Velocity 100
000051t:  Note off ::  Channel 0.  Note 33.  Velocity 0
000403t:  Note off ::  Channel 0.  Note 35.  Velocity 0
000026t:  Note on ::  Channel 0.  Note 38.  Velocity 100
000350t:  Note off ::  Channel 0.  Note 38.  Velocity 0
000130t:  Note on ::  Channel 0.  Note 37.  Velocity 100
000194t:  Note off ::  Channel 0.  Note 37.  Velocity 0
000039t:  Note on ::  Channel 0.  Note 37.  Velocity 100
000337t:  Note off ::  Channel 0.  Note 37.  Velocity 0
000870t:  Note on ::  Channel 0.  Note 37.  Velocity 100
000181t:  Note off ::  Channel 0.  Note 37.  Velocity 0
000052t:  Note on ::  Channel 0.  Note 37.  Velocity 100
000454t:  Note off ::  Channel 0.  Note 37.  Velocity 0
000506t:  Note on ::  Channel 0.  Note 32.  Velocity 100
000247t:  Note on ::  Channel 0.  Note 37.  Velocity 100
000051t:  Note off ::  Channel 0.  Note 32.  Velocity 0
000403t:  Note off ::  Channel 0.  Note 37.  Velocity 0
000026t:  Note on ::  Channel 0.  Note 36.  Velocity 100
000350t:  Note off ::  Channel 0.  Note 36.  Velocity 0
000130t:  Note on ::  Channel 0.  Note 35.  Velocity 100
000194t:  Note off ::  Channel 0.  Note 35.  Velocity 0
000039t:  Note on ::  Channel 0.  Note 35.  Velocity 100
000337t:  Note off ::  Channel 0.  Note 35.  Velocity 0
000870t:  Note on ::  Channel 0.  Note 28.  Velocity 100
000181t:  Note off ::  Channel 0.  Note 28.  Velocity 0
000052t:  Note on ::  Channel 0.  Note 28.  Velocity 100
000454t:  Note off ::  Channel 0.  Note 28.  Velocity 0
000506t:  Note on ::  Channel 0.  Note 28.  Velocity 100
000247t:  Note on ::  Channel 0.  Note 30.  Velocity 100
000051t:  Note off ::  Channel 0.  Note 28.  Velocity 0
000403t:  Note off ::  Channel 0.  Note 30.  Velocity 0
000026t:  Note on ::  Channel 0.  Note 33.  Velocity 100
000350t:  Note off ::  Channel 0.  Note 33.  Velocity 0
000130t:  Note on ::  Channel 0.  Note 33.  Velocity 100
000194t:  Note off ::  Channel 0.  Note 33.  Velocity 0
000039t:  Note on ::  Channel 0.  Note 33.  Velocity 100
000337t:  Note off ::  Channel 0.  Note 33.  Velocity 0
000870t:  Note on ::  Channel 0.  Note 33.  Velocity 100
000181t:  Note off ::  Channel 0.  Note 33.  Velocity 0
000052t:  Note on ::  Channel 0.  Note 33.  Velocity 100
000454t:  Note off ::  Channel 0.  Note 33.  Velocity 0
000506t:  Note on ::  Channel 0.  Note 28.  Velocity 100
000247t:  Note on ::  Channel 0.  Note 30.  Velocity 100
000051t:  Note off ::  Channel 0.  Note 28.  Velocity 0
000403t:  Note off ::  Channel 0.  Note 30.  Velocity 0
000026t:  Note on ::  Channel 0.  Note 33.  Velocity 100
000350t:  Note off ::  Channel 0.  Note 33.  Velocity 0
000000t:  Meta-event type $2f (End-track event) of length 0
Sigma t = 124670

Track chunk of 1033 bytes
000000t:  Meta-event type $03 (Track name) of length 16
	        Background
000000t:  Meta-event type $21 (?) of length 1
	  _
000000t:  Meta-event type $20 (?) of length 1
	  _
000000t:  Control change ::  Channel 1.  Controller 7.  Value: 79
000000t:  Control change ::  Channel 1.  Controller 10.  Value: 74
000000t:  Control change ::  Channel 1.  Controller 91.  Value: 126
000000t:  Program (patch) change ::  Channel 1.  Patch 18 (Rock Organ)
001816t:  Channel after-touch ::  Channel 1.  Channel 50.
000000t:  Key after-touch ::  Channel 1.  Note 60.  Velocity 50
000104t:  Note on ::  Channel 1.  Note 90.  Velocity 50
000012t:  Note on ::  Channel 1.  Note 74.  Velocity 30
000000t:  Note on ::  Channel 1.  Note 86.  Velocity 30
003827t:  Note off ::  Channel 1.  Note 86.  Velocity 0
000001t:  Note on ::  Channel 1.  Note 85.  Velocity 30
000012t:  Note on ::  Channel 1.  Note 88.  Velocity 50
000000t:  Note on ::  Channel 1.  Note 73.  Velocity 30
000001t:  Note off ::  Channel 1.  Note 90.  Velocity 0
000129t:  Note off ::  Channel 1.  Note 74.  Velocity 0
003697t:  Note off ::  Channel 1.  Note 88.  Velocity 0
000001t:  Note on ::  Channel 1.  Note 86.  Velocity 30
000012t:  Note on ::  Channel 1.  Note 74.  Velocity 30
000000t:  Note on ::  Channel 1.  Note 90.  Velocity 50
000001t:  Note off ::  Channel 1.  Note 85.  Velocity 0
000025t:  Note off ::  Channel 1.  Note 73.  Velocity 0
003619t:  Note off ::  Channel 1.  Note 74.  Velocity 0
000091t:  Note off ::  Channel 1.  Note 90.  Velocity 0
000066t:  Note off ::  Channel 1.  Note 86.  Velocity 0
000026t:  Note on ::  Channel 1.  Note 73.  Velocity 30
000000t:  Note on ::  Channel 1.  Note 85.  Velocity 30
000012t:  Note on ::  Channel 1.  Note 88.  Velocity 50
003815t:  Note off ::  Channel 1.  Note 85.  Velocity 0
000013t:  Note on ::  Channel 1.  Note 74.  Velocity 30
000000t:  Note on ::  Channel 1.  Note 86.  Velocity 30
000012t:  Note on ::  Channel 1.  Note 90.  Velocity 50
000013t:  Note off ::  Channel 1.  Note 88.  Velocity 0
000001t:  Note off ::  Channel 1.  Note 73.  Velocity 0
003787t:  Note off ::  Channel 1.  Note 90.  Velocity 0
000027t:  Note on ::  Channel 1.  Note 88.  Velocity 50
000012t:  Note on ::  Channel 1.  Note 85.  Velocity 30
000000t:  Note on ::  Channel 1.  Note 73.  Velocity 30
000014t:  Note off ::  Channel 1.  Note 86.  Velocity 0
000078t:  Note off ::  Channel 1.  Note 74.  Velocity 0
003736t:  Note on ::  Channel 1.  Note 90.  Velocity 50
000012t:  Note on ::  Channel 1.  Note 74.  Velocity 30
000013t:  Note on ::  Channel 1.  Note 86.  Velocity 30
000001t:  Note off ::  Channel 1.  Note 88.  Velocity 0
000025t:  Note off ::  Channel 1.  Note 85.  Velocity 0
000078t:  Note off ::  Channel 1.  Note 73.  Velocity 0
003711t:  Note on ::  Channel 1.  Note 85.  Velocity 30
000000t:  Note on ::  Channel 1.  Note 73.  Velocity 30
000012t:  Note on ::  Channel 1.  Note 88.  Velocity 50
000053t:  Note off ::  Channel 1.  Note 90.  Velocity 0
000012t:  Note off ::  Channel 1.  Note 74.  Velocity 0
000026t:  Note off ::  Channel 1.  Note 86.  Velocity 0
003737t:  Note off ::  Channel 1.  Note 85.  Velocity 0
000000t:  Note on ::  Channel 1.  Note 74.  Velocity 50
000000t:  Note on ::  Channel 1.  Note 78.  Velocity 50
000000t:  Note on ::  Channel 1.  Note 81.  Velocity 50
000000t:  Note on ::  Channel 1.  Note 85.  Velocity 50
000038t:  Note off ::  Channel 1.  Note 88.  Velocity 0
000001t:  Note off ::  Channel 1.  Note 73.  Velocity 0
003710t:  Note off ::  Channel 1.  Note 74.  Velocity 0
000000t:  Note off ::  Channel 1.  Note 78.  Velocity 0
000013t:  Note off ::  Channel 1.  Note 81.  Velocity 0
000052t:  Note off ::  Channel 1.  Note 85.  Velocity 0
000026t:  Note on ::  Channel 1.  Note 73.  Velocity 50
000000t:  Note on ::  Channel 1.  Note 76.  Velocity 50
000000t:  Note on ::  Channel 1.  Note 80.  Velocity 50
000000t:  Note on ::  Channel 1.  Note 83.  Velocity 50
003723t:  Note off ::  Channel 1.  Note 83.  Velocity 0
000039t:  Note off ::  Channel 1.  Note 76.  Velocity 0
000013t:  Note off ::  Channel 1.  Note 73.  Velocity 0
000000t:  Note off ::  Channel 1.  Note 80.  Velocity 0
000065t:  Note on ::  Channel 1.  Note 81.  Velocity 50
000000t:  Note on ::  Channel 1.  Note 71.  Velocity 50
000000t:  Note on ::  Channel 1.  Note 74.  Velocity 50
000000t:  Note on ::  Channel 1.  Note 78.  Velocity 50
001855t:  Note off ::  Channel 1.  Note 81.  Velocity 0
000065t:  Note on ::  Channel 1.  Note 80.  Velocity 50
001803t:  Note off ::  Channel 1.  Note 80.  Velocity 0
000026t:  Note off ::  Channel 1.  Note 78.  Velocity 0
000013t:  Note off ::  Channel 1.  Note 74.  Velocity 0
000026t:  Note off ::  Channel 1.  Note 71.  Velocity 0
000052t:  Note on ::  Channel 1.  Note 69.  Velocity 50
000000t:  Note on ::  Channel 1.  Note 73.  Velocity 50
000000t:  Note on ::  Channel 1.  Note 76.  Velocity 50
000000t:  Note on ::  Channel 1.  Note 80.  Velocity 50
003372t:  Note off ::  Channel 1.  Note 76.  Velocity 0
000104t:  Note off ::  Channel 1.  Note 73.  Velocity 0
000078t:  Note off ::  Channel 1.  Note 80.  Velocity 0
000013t:  Note off ::  Channel 1.  Note 69.  Velocity 0
000273t:  Note on ::  Channel 1.  Note 74.  Velocity 50
000000t:  Note on ::  Channel 1.  Note 78.  Velocity 50
000000t:  Note on ::  Channel 1.  Note 81.  Velocity 50
000000t:  Note on ::  Channel 1.  Note 85.  Velocity 50
003749t:  Note off ::  Channel 1.  Note 78.  Velocity 0
000000t:  Note off ::  Channel 1.  Note 74.  Velocity 0
000013t:  Note off ::  Channel 1.  Note 81.  Velocity 0
000052t:  Note off ::  Channel 1.  Note 85.  Velocity 0
000026t:  Note on ::  Channel 1.  Note 73.  Velocity 50
000000t:  Note on ::  Channel 1.  Note 76.  Velocity 50
000000t:  Note on ::  Channel 1.  Note 80.  Velocity 50
000000t:  Note on ::  Channel 1.  Note 83.  Velocity 50
003723t:  Note off ::  Channel 1.  Note 83.  Velocity 0
000039t:  Note off ::  Channel 1.  Note 76.  Velocity 0
000013t:  Note off ::  Channel 1.  Note 73.  Velocity 0
000000t:  Note off ::  Channel 1.  Note 80.  Velocity 0
000065t:  Note on ::  Channel 1.  Note 81.  Velocity 50
000000t:  Note on ::  Channel 1.  Note 71.  Velocity 50
000000t:  Note on ::  Channel 1.  Note 74.  Velocity 50
000000t:  Note on ::  Channel 1.  Note 78.  Velocity 50
001855t:  Note off ::  Channel 1.  Note 81.  Velocity 0
000065t:  Note on ::  Channel 1.  Note 80.  Velocity 50
001803t:  Note off ::  Channel 1.  Note 80.  Velocity 0
000026t:  Note off ::  Channel 1.  Note 78.  Velocity 0
000013t:  Note off ::  Channel 1.  Note 74.  Velocity 0
000026t:  Note off ::  Channel 1.  Note 71.  Velocity 0
000052t:  Note on ::  Channel 1.  Note 69.  Velocity 50
000000t:  Note on ::  Channel 1.  Note 73.  Velocity 50
000000t:  Note on ::  Channel 1.  Note 76.  Velocity 50
000000t:  Note on ::  Channel 1.  Note 80.  Velocity 50
003372t:  Note off ::  Channel 1.  Note 76.  Velocity 0
000104t:  Note off ::  Channel 1.  Note 73.  Velocity 0
000078t:  Note off ::  Channel 1.  Note 80.  Velocity 0
000013t:  Note off ::  Channel 1.  Note 69.  Velocity 0
000169t:  Channel after-touch ::  Channel 1.  Channel 50.
000000t:  Key after-touch ::  Channel 1.  Note 60.  Velocity 50
000104t:  Note on ::  Channel 1.  Note 90.  Velocity 50
000012t:  Note on ::  Channel 1.  Note 74.  Velocity 30
000000t:  Note on ::  Channel 1.  Note 86.  Velocity 30
003827t:  Note off ::  Channel 1.  Note 86.  Velocity 0
000001t:  Note on ::  Channel 1.  Note 85.  Velocity 30
000012t:  Note on ::  Channel 1.  Note 88.  Velocity 50
000000t:  Note on ::  Channel 1.  Note 73.  Velocity 30
000001t:  Note off ::  Channel 1.  Note 90.  Velocity 0
000129t:  Note off ::  Channel 1.  Note 74.  Velocity 0
003697t:  Note off ::  Channel 1.  Note 88.  Velocity 0
000001t:  Note on ::  Channel 1.  Note 86.  Velocity 30
000012t:  Note on ::  Channel 1.  Note 74.  Velocity 30
000000t:  Note on ::  Channel 1.  Note 90.  Velocity 50
000001t:  Note off ::  Channel 1.  Note 85.  Velocity 0
000025t:  Note off ::  Channel 1.  Note 73.  Velocity 0
003619t:  Note off ::  Channel 1.  Note 74.  Velocity 0
000091t:  Note off ::  Channel 1.  Note 90.  Velocity 0
000066t:  Note off ::  Channel 1.  Note 86.  Velocity 0
000026t:  Note on ::  Channel 1.  Note 73.  Velocity 30
000000t:  Note on ::  Channel 1.  Note 85.  Velocity 30
000012t:  Note on ::  Channel 1.  Note 88.  Velocity 50
003815t:  Note off ::  Channel 1.  Note 85.  Velocity 0
000013t:  Note on ::  Channel 1.  Note 74.  Velocity 30
000000t:  Note on ::  Channel 1.  Note 86.  Velocity 30
000012t:  Note on ::  Channel 1.  Note 90.  Velocity 50
000013t:  Note off ::  Channel 1.  Note 88.  Velocity 0
000001t:  Note off ::  Channel 1.  Note 73.  Velocity 0
003787t:  Note off ::  Channel 1.  Note 90.  Velocity 0
000027t:  Note on ::  Channel 1.  Note 88.  Velocity 50
000012t:  Note on ::  Channel 1.  Note 85.  Velocity 30
000000t:  Note on ::  Channel 1.  Note 73.  Velocity 30
000014t:  Note off ::  Channel 1.  Note 86.  Velocity 0
000078t:  Note off ::  Channel 1.  Note 74.  Velocity 0
003736t:  Note on ::  Channel 1.  Note 90.  Velocity 50
000012t:  Note on ::  Channel 1.  Note 74.  Velocity 30
000013t:  Note on ::  Channel 1.  Note 86.  Velocity 30
000001t:  Note off ::  Channel 1.  Note 88.  Velocity 0
000025t:  Note off ::  Channel 1.  Note 85.  Velocity 0
000078t:  Note off ::  Channel 1.  Note 73.  Velocity 0
003711t:  Note on ::  Channel 1.  Note 85.  Velocity 30
000000t:  Note on ::  Channel 1.  Note 73.  Velocity 30
000012t:  Note on ::  Channel 1.  Note 88.  Velocity 50
000053t:  Note off ::  Channel 1.  Note 90.  Velocity 0
000012t:  Note off ::  Channel 1.  Note 74.  Velocity 0
000026t:  Note off ::  Channel 1.  Note 86.  Velocity 0
003737t:  Note off ::  Channel 1.  Note 85.  Velocity 0
000000t:  Note on ::  Channel 1.  Note 74.  Velocity 50
000000t:  Note on ::  Channel 1.  Note 78.  Velocity 50
000000t:  Note on ::  Channel 1.  Note 81.  Velocity 50
000000t:  Note on ::  Channel 1.  Note 85.  Velocity 50
000038t:  Note off ::  Channel 1.  Note 88.  Velocity 0
000001t:  Note off ::  Channel 1.  Note 73.  Velocity 0
003710t:  Note off ::  Channel 1.  Note 74.  Velocity 0
000000t:  Note off ::  Channel 1.  Note 78.  Velocity 0
000013t:  Note off ::  Channel 1.  Note 81.  Velocity 0
000052t:  Note off ::  Channel 1.  Note 85.  Velocity 0
000026t:  Note on ::  Channel 1.  Note 73.  Velocity 50
000000t:  Note on ::  Channel 1.  Note 76.  Velocity 50
000000t:  Note on ::  Channel 1.  Note 80.  Velocity 50
000000t:  Note on ::  Channel 1.  Note 83.  Velocity 50
003723t:  Note off ::  Channel 1.  Note 83.  Velocity 0
000039t:  Note off ::  Channel 1.  Note 76.  Velocity 0
000013t:  Note off ::  Channel 1.  Note 73.  Velocity 0
000000t:  Note off ::  Channel 1.  Note 80.  Velocity 0
000065t:  Note on ::  Channel 1.  Note 81.  Velocity 50
000000t:  Note on ::  Channel 1.  Note 71.  Velocity 50
000000t:  Note on ::  Channel 1.  Note 74.  Velocity 50
000000t:  Note on ::  Channel 1.  Note 78.  Velocity 50
001855t:  Note off ::  Channel 1.  Note 81.  Velocity 0
000065t:  Note on ::  Channel 1.  Note 80.  Velocity 50
001803t:  Note off ::  Channel 1.  Note 80.  Velocity 0
000026t:  Note off ::  Channel 1.  Note 78.  Velocity 0
000013t:  Note off ::  Channel 1.  Note 74.  Velocity 0
000026t:  Note off ::  Channel 1.  Note 71.  Velocity 0
000052t:  Note on ::  Channel 1.  Note 69.  Velocity 50
000000t:  Note on ::  Channel 1.  Note 73.  Velocity 50
000000t:  Note on ::  Channel 1.  Note 76.  Velocity 50
000000t:  Note on ::  Channel 1.  Note 80.  Velocity 50
003372t:  Note off ::  Channel 1.  Note 76.  Velocity 0
000104t:  Note off ::  Channel 1.  Note 73.  Velocity 0
000078t:  Note off ::  Channel 1.  Note 80.  Velocity 0
000013t:  Note off ::  Channel 1.  Note 69.  Velocity 0
000273t:  Note on ::  Channel 1.  Note 74.  Velocity 50
000000t:  Note on ::  Channel 1.  Note 78.  Velocity 50
000000t:  Note on ::  Channel 1.  Note 81.  Velocity 50
000000t:  Note on ::  Channel 1.  Note 85.  Velocity 50
003749t:  Note off ::  Channel 1.  Note 78.  Velocity 0
000000t:  Note off ::  Channel 1.  Note 74.  Velocity 0
000013t:  Note off ::  Channel 1.  Note 81.  Velocity 0
000052t:  Note off ::  Channel 1.  Note 85.  Velocity 0
000026t:  Note on ::  Channel 1.  Note 73.  Velocity 50
000000t:  Note on ::  Channel 1.  Note 76.  Velocity 50
000000t:  Note on ::  Channel 1.  Note 80.  Velocity 50
000000t:  Note on ::  Channel 1.  Note 83.  Velocity 50
003723t:  Note off ::  Channel 1.  Note 83.  Velocity 0
000039t:  Note off ::  Channel 1.  Note 76.  Velocity 0
000013t:  Note off ::  Channel 1.  Note 73.  Velocity 0
000000t:  Note off ::  Channel 1.  Note 80.  Velocity 0
000065t:  Note on ::  Channel 1.  Note 81.  Velocity 50
000000t:  Note on ::  Channel 1.  Note 71.  Velocity 50
000000t:  Note on ::  Channel 1.  Note 74.  Velocity 50
000000t:  Note on ::  Channel 1.  Note 78.  Velocity 50
001855t:  Note off ::  Channel 1.  Note 81.  Velocity 0
000065t:  Note on ::  Channel 1.  Note 80.  Velocity 50
001803t:  Note off ::  Channel 1.  Note 80.  Velocity 0
000026t:  Note off ::  Channel 1.  Note 78.  Velocity 0
000013t:  Note off ::  Channel 1.  Note 74.  Velocity 0
000026t:  Note off ::  Channel 1.  Note 71.  Velocity 0
000052t:  Note on ::  Channel 1.  Note 69.  Velocity 50
000000t:  Note on ::  Channel 1.  Note 73.  Velocity 50
000000t:  Note on ::  Channel 1.  Note 76.  Velocity 50
000000t:  Note on ::  Channel 1.  Note 80.  Velocity 50
003372t:  Note off ::  Channel 1.  Note 76.  Velocity 0
000104t:  Note off ::  Channel 1.  Note 73.  Velocity 0
000078t:  Note off ::  Channel 1.  Note 80.  Velocity 0
000013t:  Note off ::  Channel 1.  Note 69.  Velocity 0
000000t:  Meta-event type $2f (End-track event) of length 0
Sigma t = 124527

Track chunk of 86 bytes
000000t:  Meta-event type $03 (Track name) of length 16
	        Background
000000t:  Meta-event type $21 (?) of length 1
	  _
000000t:  Meta-event type $20 (?) of length 1
	  _
000000t:  Control change ::  Channel 2.  Controller 7.  Value: 79
000000t:  Control change ::  Channel 2.  Controller 10.  Value: 54
000000t:  Control change ::  Channel 2.  Controller 91.  Value: 126
000000t:  Program (patch) change ::  Channel 2.  Patch 18 (Rock Organ)
001816t:  Channel after-touch ::  Channel 2.  Channel 50.
000000t:  Key after-touch ::  Channel 2.  Note 60.  Velocity 50
000116t:  Note on ::  Channel 2.  Note 81.  Velocity 40
032432t:  Note off ::  Channel 2.  Note 81.  Velocity 0
028892t:  Channel after-touch ::  Channel 2.  Channel 50.
000000t:  Key after-touch ::  Channel 2.  Note 60.  Velocity 50
000116t:  Note on ::  Channel 2.  Note 81.  Velocity 40
032432t:  Note off ::  Channel 2.  Note 81.  Velocity 0
000000t:  Meta-event type $2f (End-track event) of length 0
Sigma t = 95804

Track chunk of 628 bytes
000000t:  Meta-event type $03 (Track name) of length 14
	          Melody
000000t:  Meta-event type $21 (?) of length 1
	  _
000000t:  Meta-event type $20 (?) of length 1
	  _
000000t:  Control change ::  Channel 3.  Controller 7.  Value: 69
000000t:  Control change ::  Channel 3.  Controller 10.  Value: 49
000000t:  Control change ::  Channel 3.  Controller 91.  Value: 126
000000t:  Program (patch) change ::  Channel 3.  Patch 94 (Pad 7 (halo))
003360t:  Key after-touch ::  Channel 3.  Note 60.  Velocity 50
000000t:  Channel after-touch ::  Channel 3.  Channel 50.
000000t:  Note on ::  Channel 3.  Note 78.  Velocity 110
000220t:  Note off ::  Channel 3.  Note 78.  Velocity 0
000013t:  Note on ::  Channel 3.  Note 80.  Velocity 110
000221t:  Note off ::  Channel 3.  Note 80.  Velocity 0
000026t:  Note on ::  Channel 3.  Note 81.  Velocity 110
000480t:  Note off ::  Channel 3.  Note 81.  Velocity 0
000000t:  Note on ::  Channel 3.  Note 80.  Velocity 110
000480t:  Note on ::  Channel 3.  Note 78.  Velocity 110
000025t:  Note off ::  Channel 3.  Note 80.  Velocity 0
000455t:  Note on ::  Channel 3.  Note 76.  Velocity 110
000025t:  Note off ::  Channel 3.  Note 78.  Velocity 0
000455t:  Note off ::  Channel 3.  Note 76.  Velocity 0
000000t:  Note on ::  Channel 3.  Note 73.  Velocity 110
003840t:  Note off ::  Channel 3.  Note 73.  Velocity 0
001440t:  Note on ::  Channel 3.  Note 78.  Velocity 110
000220t:  Note off ::  Channel 3.  Note 78.  Velocity 0
000013t:  Note on ::  Channel 3.  Note 81.  Velocity 110
000221t:  Note off ::  Channel 3.  Note 81.  Velocity 0
000026t:  Note on ::  Channel 3.  Note 83.  Velocity 110
000480t:  Note off ::  Channel 3.  Note 83.  Velocity 0
000000t:  Note on ::  Channel 3.  Note 81.  Velocity 110
000480t:  Note on ::  Channel 3.  Note 80.  Velocity 110
000025t:  Note off ::  Channel 3.  Note 81.  Velocity 0
000455t:  Note on ::  Channel 3.  Note 78.  Velocity 110
000025t:  Note off ::  Channel 3.  Note 80.  Velocity 0
000455t:  Note off ::  Channel 3.  Note 78.  Velocity 0
000000t:  Note on ::  Channel 3.  Note 76.  Velocity 110
000233t:  Note off ::  Channel 3.  Note 76.  Velocity 0
000000t:  Note on ::  Channel 3.  Note 78.  Velocity 110
000247t:  Note on ::  Channel 3.  Note 76.  Velocity 110
000013t:  Note off ::  Channel 3.  Note 78.  Velocity 0
000220t:  Note off ::  Channel 3.  Note 76.  Velocity 0
000000t:  Note on ::  Channel 3.  Note 73.  Velocity 110
003075t:  Note off ::  Channel 3.  Note 73.  Velocity 0
001492t:  Note on ::  Channel 3.  Note 78.  Velocity 110
000220t:  Note off ::  Channel 3.  Note 78.  Velocity 0
000013t:  Note on ::  Channel 3.  Note 81.  Velocity 110
000221t:  Note off ::  Channel 3.  Note 81.  Velocity 0
000026t:  Note on ::  Channel 3.  Note 80.  Velocity 110
000480t:  Note off ::  Channel 3.  Note 80.  Velocity 0
000000t:  Note on ::  Channel 3.  Note 76.  Velocity 110
000480t:  Note on ::  Channel 3.  Note 73.  Velocity 110
000025t:  Note off ::  Channel 3.  Note 76.  Velocity 0
000455t:  Note on ::  Channel 3.  Note 78.  Velocity 110
000025t:  Note off ::  Channel 3.  Note 73.  Velocity 0
000455t:  Note off ::  Channel 3.  Note 78.  Velocity 0
000000t:  Note on ::  Channel 3.  Note 76.  Velocity 110
003840t:  Note off ::  Channel 3.  Note 76.  Velocity 0
001440t:  Note on ::  Channel 3.  Note 78.  Velocity 110
000220t:  Note off ::  Channel 3.  Note 78.  Velocity 0
000013t:  Note on ::  Channel 3.  Note 81.  Velocity 110
000221t:  Note off ::  Channel 3.  Note 81.  Velocity 0
000026t:  Note on ::  Channel 3.  Note 83.  Velocity 110
000480t:  Note off ::  Channel 3.  Note 83.  Velocity 0
000000t:  Note on ::  Channel 3.  Note 81.  Velocity 110
000480t:  Note on ::  Channel 3.  Note 80.  Velocity 110
000025t:  Note off ::  Channel 3.  Note 81.  Velocity 0
000455t:  Note on ::  Channel 3.  Note 78.  Velocity 110
000025t:  Note off ::  Channel 3.  Note 80.  Velocity 0
000455t:  Note off ::  Channel 3.  Note 78.  Velocity 0
000000t:  Note on ::  Channel 3.  Note 76.  Velocity 110
001297t:  Note off ::  Channel 3.  Note 76.  Velocity 0
034703t:  Key after-touch ::  Channel 3.  Note 60.  Velocity 50
000000t:  Channel after-touch ::  Channel 3.  Channel 50.
000000t:  Note on ::  Channel 3.  Note 78.  Velocity 110
000220t:  Note off ::  Channel 3.  Note 78.  Velocity 0
000013t:  Note on ::  Channel 3.  Note 80.  Velocity 110
000221t:  Note off ::  Channel 3.  Note 80.  Velocity 0
000026t:  Note on ::  Channel 3.  Note 81.  Velocity 110
000480t:  Note off ::  Channel 3.  Note 81.  Velocity 0
000000t:  Note on ::  Channel 3.  Note 80.  Velocity 110
000480t:  Note on ::  Channel 3.  Note 78.  Velocity 110
000025t:  Note off ::  Channel 3.  Note 80.  Velocity 0
000455t:  Note on ::  Channel 3.  Note 76.  Velocity 110
000025t:  Note off ::  Channel 3.  Note 78.  Velocity 0
000455t:  Note off ::  Channel 3.  Note 76.  Velocity 0
000000t:  Note on ::  Channel 3.  Note 73.  Velocity 110
003840t:  Note off ::  Channel 3.  Note 73.  Velocity 0
001440t:  Note on ::  Channel 3.  Note 78.  Velocity 110
000220t:  Note off ::  Channel 3.  Note 78.  Velocity 0
000013t:  Note on ::  Channel 3.  Note 81.  Velocity 110
000221t:  Note off ::  Channel 3.  Note 81.  Velocity 0
000026t:  Note on ::  Channel 3.  Note 83.  Velocity 110
000480t:  Note off ::  Channel 3.  Note 83.  Velocity 0
000000t:  Note on ::  Channel 3.  Note 81.  Velocity 110
000480t:  Note on ::  Channel 3.  Note 80.  Velocity 110
000025t:  Note off ::  Channel 3.  Note 81.  Velocity 0
000455t:  Note on ::  Channel 3.  Note 78.  Velocity 110
000025t:  Note off ::  Channel 3.  Note 80.  Velocity 0
000455t:  Note off ::  Channel 3.  Note 78.  Velocity 0
000000t:  Note on ::  Channel 3.  Note 76.  Velocity 110
000233t:  Note off ::  Channel 3.  Note 76.  Velocity 0
000000t:  Note on ::  Channel 3.  Note 78.  Velocity 110
000247t:  Note on ::  Channel 3.  Note 76.  Velocity 110
000013t:  Note off ::  Channel 3.  Note 78.  Velocity 0
000220t:  Note off ::  Channel 3.  Note 76.  Velocity 0
000000t:  Note on ::  Channel 3.  Note 73.  Velocity 110
003075t:  Note off ::  Channel 3.  Note 73.  Velocity 0
001492t:  Note on ::  Channel 3.  Note 78.  Velocity 110
000220t:  Note off ::  Channel 3.  Note 78.  Velocity 0
000013t:  Note on ::  Channel 3.  Note 81.  Velocity 110
000221t:  Note off ::  Channel 3.  Note 81.  Velocity 0
000026t:  Note on ::  Channel 3.  Note 80.  Velocity 110
000480t:  Note off ::  Channel 3.  Note 80.  Velocity 0
000000t:  Note on ::  Channel 3.  Note 76.  Velocity 110
000480t:  Note on ::  Channel 3.  Note 73.  Velocity 110
000025t:  Note off ::  Channel 3.  Note 76.  Velocity 0
000455t:  Note on ::  Channel 3.  Note 78.  Velocity 110
000025t:  Note off ::  Channel 3.  Note 73.  Velocity 0
000455t:  Note off ::  Channel 3.  Note 78.  Velocity 0
000000t:  Note on ::  Channel 3.  Note 76.  Velocity 110
003840t:  Note off ::  Channel 3.  Note 76.  Velocity 0
001440t:  Note on ::  Channel 3.  Note 78.  Velocity 110
000220t:  Note off ::  Channel 3.  Note 78.  Velocity 0
000013t:  Note on ::  Channel 3.  Note 81.  Velocity 110
000221t:  Note off ::  Channel 3.  Note 81.  Velocity 0
000026t:  Note on ::  Channel 3.  Note 83.  Velocity 110
000480t:  Note off ::  Channel 3.  Note 83.  Velocity 0
000000t:  Note on ::  Channel 3.  Note 81.  Velocity 110
000480t:  Note on ::  Channel 3.  Note 80.  Velocity 110
000025t:  Note off ::  Channel 3.  Note 81.  Velocity 0
000455t:  Note on ::  Channel 3.  Note 78.  Velocity 110
000025t:  Note off ::  Channel 3.  Note 80.  Velocity 0
000455t:  Note off ::  Channel 3.  Note 78.  Velocity 0
000000t:  Note on ::  Channel 3.  Note 76.  Velocity 110
001699t:  Note off ::  Channel 3.  Note 76.  Velocity 0
000000t:  Meta-event type $2f (End-track event) of length 0
Sigma t = 91939

Track chunk of 678 bytes
000000t:  Meta-event type $03 (Track name) of length 22
	            Counterpoint
000000t:  Meta-event type $21 (?) of length 1
	  _
000000t:  Meta-event type $20 (?) of length 1
	  _
000000t:  Control change ::  Channel 4.  Controller 7.  Value: 109
000000t:  Control change ::  Channel 4.  Controller 10.  Value: 88
000000t:  Control change ::  Channel 4.  Controller 91.  Value: 126
000000t:  Program (patch) change ::  Channel 4.  Patch 58 (Tuba)
007680t:  Channel after-touch ::  Channel 4.  Channel 50.
000000t:  Key after-touch ::  Channel 4.  Note 60.  Velocity 50
000000t:  Note on ::  Channel 4.  Note 69.  Velocity 110
000389t:  Note off ::  Channel 4.  Note 69.  Velocity 0
000091t:  Note on ::  Channel 4.  Note 64.  Velocity 110
000428t:  Note off ::  Channel 4.  Note 64.  Velocity 0
000052t:  Note on ::  Channel 4.  Note 66.  Velocity 110
000233t:  Note off ::  Channel 4.  Note 66.  Velocity 0
000000t:  Note on ::  Channel 4.  Note 69.  Velocity 110
000260t:  Note off ::  Channel 4.  Note 69.  Velocity 0
000220t:  Note on ::  Channel 4.  Note 69.  Velocity 110
001207t:  Control change ::  Channel 4.  Controller 7.  Value: 54
004526t:  Note off ::  Channel 4.  Note 69.  Velocity 0
000274t:  Control change ::  Channel 4.  Controller 7.  Value: 110
000000t:  Note on ::  Channel 4.  Note 71.  Velocity 110
000934t:  Note off ::  Channel 4.  Note 71.  Velocity 0
000026t:  Note on ::  Channel 4.  Note 71.  Velocity 110
000090t:  Note off ::  Channel 4.  Note 71.  Velocity 0
000000t:  Note on ::  Channel 4.  Note 73.  Velocity 110
000532t:  Note off ::  Channel 4.  Note 73.  Velocity 0
000091t:  Note on ::  Channel 4.  Note 69.  Velocity 110
002011t:  Note off ::  Channel 4.  Note 69.  Velocity 0
003996t:  Note on ::  Channel 4.  Note 69.  Velocity 110
000389t:  Note off ::  Channel 4.  Note 69.  Velocity 0
000091t:  Note on ::  Channel 4.  Note 64.  Velocity 110
000428t:  Note off ::  Channel 4.  Note 64.  Velocity 0
000052t:  Note on ::  Channel 4.  Note 66.  Velocity 110
000233t:  Note off ::  Channel 4.  Note 66.  Velocity 0
000000t:  Note on ::  Channel 4.  Note 69.  Velocity 110
000260t:  Note off ::  Channel 4.  Note 69.  Velocity 0
000220t:  Note on ::  Channel 4.  Note 69.  Velocity 110
001207t:  Control change ::  Channel 4.  Controller 7.  Value: 54
002633t:  Note off ::  Channel 4.  Note 69.  Velocity 0
000247t:  Control change ::  Channel 4.  Controller 7.  Value: 110
000000t:  Note on ::  Channel 4.  Note 61.  Velocity 110
000012t:  Note on ::  Channel 4.  Note 57.  Velocity 60
000207t:  Note off ::  Channel 4.  Note 57.  Velocity 0
000001t:  Note off ::  Channel 4.  Note 61.  Velocity 0
000013t:  Note on ::  Channel 4.  Note 62.  Velocity 110
000000t:  Note on ::  Channel 4.  Note 59.  Velocity 60
000182t:  Note off ::  Channel 4.  Note 59.  Velocity 0
000026t:  Note off ::  Channel 4.  Note 62.  Velocity 0
000039t:  Note on ::  Channel 4.  Note 61.  Velocity 110
000000t:  Note on ::  Channel 4.  Note 57.  Velocity 60
000856t:  Note off ::  Channel 4.  Note 57.  Velocity 0
000013t:  Note off ::  Channel 4.  Note 61.  Velocity 0
000091t:  Note on ::  Channel 4.  Note 64.  Velocity 110
000000t:  Note on ::  Channel 4.  Note 61.  Velocity 60
000194t:  Note off ::  Channel 4.  Note 61.  Velocity 0
000013t:  Note off ::  Channel 4.  Note 64.  Velocity 0
000026t:  Note on ::  Channel 4.  Note 66.  Velocity 110
000000t:  Note on ::  Channel 4.  Note 62.  Velocity 60
000195t:  Note off ::  Channel 4.  Note 62.  Velocity 0
000026t:  Note off ::  Channel 4.  Note 66.  Velocity 0
000026t:  Note on ::  Channel 4.  Note 64.  Velocity 110
000000t:  Note on ::  Channel 4.  Note 61.  Velocity 60
001349t:  Note off ::  Channel 4.  Note 61.  Velocity 0
000013t:  Note off ::  Channel 4.  Note 64.  Velocity 0
000078t:  Note on ::  Channel 4.  Note 69.  Velocity 110
000000t:  Note on ::  Channel 4.  Note 64.  Velocity 60
000181t:  Note off ::  Channel 4.  Note 64.  Velocity 0
000013t:  Note off ::  Channel 4.  Note 69.  Velocity 0
000039t:  Note on ::  Channel 4.  Note 71.  Velocity 110
000000t:  Note on ::  Channel 4.  Note 66.  Velocity 60
000221t:  Note off ::  Channel 4.  Note 66.  Velocity 0
000000t:  Note off ::  Channel 4.  Note 71.  Velocity 0
000026t:  Note on ::  Channel 4.  Note 69.  Velocity 110
000000t:  Note on ::  Channel 4.  Note 62.  Velocity 60
001790t:  Note off ::  Channel 4.  Note 62.  Velocity 0
000013t:  Note off ::  Channel 4.  Note 69.  Velocity 0
034677t:  Channel after-touch ::  Channel 4.  Channel 50.
000000t:  Key after-touch ::  Channel 4.  Note 60.  Velocity 50
000000t:  Control change ::  Channel 4.  Controller 7.  Value: 110
000000t:  Note on ::  Channel 4.  Note 69.  Velocity 110
000389t:  Note off ::  Channel 4.  Note 69.  Velocity 0
000091t:  Note on ::  Channel 4.  Note 64.  Velocity 110
000428t:  Note off ::  Channel 4.  Note 64.  Velocity 0
000052t:  Note on ::  Channel 4.  Note 66.  Velocity 110
000233t:  Note off ::  Channel 4.  Note 66.  Velocity 0
000000t:  Note on ::  Channel 4.  Note 69.  Velocity 110
000260t:  Note off ::  Channel 4.  Note 69.  Velocity 0
000220t:  Note on ::  Channel 4.  Note 69.  Velocity 110
001207t:  Control change ::  Channel 4.  Controller 7.  Value: 54
004526t:  Note off ::  Channel 4.  Note 69.  Velocity 0
000274t:  Control change ::  Channel 4.  Controller 7.  Value: 110
000000t:  Note on ::  Channel 4.  Note 71.  Velocity 110
000934t:  Note off ::  Channel 4.  Note 71.  Velocity 0
000026t:  Note on ::  Channel 4.  Note 71.  Velocity 110
000090t:  Note off ::  Channel 4.  Note 71.  Velocity 0
000000t:  Note on ::  Channel 4.  Note 73.  Velocity 110
000532t:  Note off ::  Channel 4.  Note 73.  Velocity 0
000091t:  Note on ::  Channel 4.  Note 69.  Velocity 110
002011t:  Note off ::  Channel 4.  Note 69.  Velocity 0
003996t:  Note on ::  Channel 4.  Note 69.  Velocity 110
000389t:  Note off ::  Channel 4.  Note 69.  Velocity 0
000091t:  Note on ::  Channel 4.  Note 64.  Velocity 110
000428t:  Note off ::  Channel 4.  Note 64.  Velocity 0
000052t:  Note on ::  Channel 4.  Note 66.  Velocity 110
000233t:  Note off ::  Channel 4.  Note 66.  Velocity 0
000000t:  Note on ::  Channel 4.  Note 69.  Velocity 110
000260t:  Note off ::  Channel 4.  Note 69.  Velocity 0
000220t:  Note on ::  Channel 4.  Note 69.  Velocity 110
001207t:  Control change ::  Channel 4.  Controller 7.  Value: 54
002633t:  Note off ::  Channel 4.  Note 69.  Velocity 0
000247t:  Control change ::  Channel 4.  Controller 7.  Value: 110
000000t:  Note on ::  Channel 4.  Note 61.  Velocity 110
000012t:  Note on ::  Channel 4.  Note 57.  Velocity 60
000207t:  Note off ::  Channel 4.  Note 57.  Velocity 0
000001t:  Note off ::  Channel 4.  Note 61.  Velocity 0
000013t:  Note on ::  Channel 4.  Note 62.  Velocity 110
000000t:  Note on ::  Channel 4.  Note 59.  Velocity 60
000182t:  Note off ::  Channel 4.  Note 59.  Velocity 0
000026t:  Note off ::  Channel 4.  Note 62.  Velocity 0
000039t:  Note on ::  Channel 4.  Note 61.  Velocity 110
000000t:  Note on ::  Channel 4.  Note 57.  Velocity 60
000856t:  Note off ::  Channel 4.  Note 57.  Velocity 0
000013t:  Note off ::  Channel 4.  Note 61.  Velocity 0
000091t:  Note on ::  Channel 4.  Note 64.  Velocity 110
000000t:  Note on ::  Channel 4.  Note 61.  Velocity 60
000194t:  Note off ::  Channel 4.  Note 61.  Velocity 0
000013t:  Note off ::  Channel 4.  Note 64.  Velocity 0
000026t:  Note on ::  Channel 4.  Note 66.  Velocity 110
000000t:  Note on ::  Channel 4.  Note 62.  Velocity 60
000195t:  Note off ::  Channel 4.  Note 62.  Velocity 0
000026t:  Note off ::  Channel 4.  Note 66.  Velocity 0
000026t:  Note on ::  Channel 4.  Note 64.  Velocity 110
000000t:  Note on ::  Channel 4.  Note 61.  Velocity 60
001349t:  Note off ::  Channel 4.  Note 61.  Velocity 0
000013t:  Note off ::  Channel 4.  Note 64.  Velocity 0
000078t:  Note on ::  Channel 4.  Note 69.  Velocity 110
000000t:  Note on ::  Channel 4.  Note 64.  Velocity 60
000181t:  Note off ::  Channel 4.  Note 64.  Velocity 0
000013t:  Note off ::  Channel 4.  Note 69.  Velocity 0
000039t:  Note on ::  Channel 4.  Note 71.  Velocity 110
000000t:  Note on ::  Channel 4.  Note 66.  Velocity 60
000221t:  Note off ::  Channel 4.  Note 66.  Velocity 0
000000t:  Note off ::  Channel 4.  Note 71.  Velocity 0
000026t:  Note on ::  Channel 4.  Note 69.  Velocity 110
000000t:  Note on ::  Channel 4.  Note 62.  Velocity 60
001790t:  Note off ::  Channel 4.  Note 62.  Velocity 0
000013t:  Note off ::  Channel 4.  Note 69.  Velocity 0
000000t:  Meta-event type $2f (End-track event) of length 0
Sigma t = 95883

Track chunk of 591 bytes
000000t:  Meta-event type $03 (Track name) of length 15
	           Melody
000000t:  Meta-event type $21 (?) of length 1
	  _
000000t:  Meta-event type $20 (?) of length 1
	  _
000000t:  Control change ::  Channel 5.  Controller 7.  Value: 79
000000t:  Control change ::  Channel 5.  Controller 10.  Value: 58
000000t:  Control change ::  Channel 5.  Controller 91.  Value: 126
000000t:  Program (patch) change ::  Channel 5.  Patch 60 (French Horn)
003360t:  Note on ::  Channel 5.  Note 66.  Velocity 110
000220t:  Note off ::  Channel 5.  Note 66.  Velocity 0
000013t:  Note on ::  Channel 5.  Note 68.  Velocity 110
000221t:  Note off ::  Channel 5.  Note 68.  Velocity 0
000026t:  Note on ::  Channel 5.  Note 69.  Velocity 110
000480t:  Note off ::  Channel 5.  Note 69.  Velocity 0
000000t:  Note on ::  Channel 5.  Note 68.  Velocity 110
000480t:  Note on ::  Channel 5.  Note 66.  Velocity 110
000025t:  Note off ::  Channel 5.  Note 68.  Velocity 0
000455t:  Note on ::  Channel 5.  Note 64.  Velocity 110
000025t:  Note off ::  Channel 5.  Note 66.  Velocity 0
000455t:  Note off ::  Channel 5.  Note 64.  Velocity 0
000000t:  Note on ::  Channel 5.  Note 61.  Velocity 110
003840t:  Note off ::  Channel 5.  Note 61.  Velocity 0
001440t:  Note on ::  Channel 5.  Note 66.  Velocity 110
000220t:  Note off ::  Channel 5.  Note 66.  Velocity 0
000013t:  Note on ::  Channel 5.  Note 69.  Velocity 110
000221t:  Note off ::  Channel 5.  Note 69.  Velocity 0
000026t:  Note on ::  Channel 5.  Note 71.  Velocity 110
000480t:  Note off ::  Channel 5.  Note 71.  Velocity 0
000000t:  Note on ::  Channel 5.  Note 69.  Velocity 110
000480t:  Note on ::  Channel 5.  Note 68.  Velocity 110
000025t:  Note off ::  Channel 5.  Note 69.  Velocity 0
000455t:  Note on ::  Channel 5.  Note 66.  Velocity 110
000025t:  Note off ::  Channel 5.  Note 68.  Velocity 0
000455t:  Note off ::  Channel 5.  Note 66.  Velocity 0
000000t:  Note on ::  Channel 5.  Note 64.  Velocity 110
000120t:  Note off ::  Channel 5.  Note 64.  Velocity 0
000113t:  Note on ::  Channel 5.  Note 66.  Velocity 110
000120t:  Note off ::  Channel 5.  Note 66.  Velocity 0
000127t:  Note on ::  Channel 5.  Note 64.  Velocity 110
000120t:  Note off ::  Channel 5.  Note 64.  Velocity 0
000113t:  Note on ::  Channel 5.  Note 61.  Velocity 110
003075t:  Note off ::  Channel 5.  Note 61.  Velocity 0
001492t:  Note on ::  Channel 5.  Note 66.  Velocity 110
000220t:  Note off ::  Channel 5.  Note 66.  Velocity 0
000013t:  Note on ::  Channel 5.  Note 69.  Velocity 110
000221t:  Note off ::  Channel 5.  Note 69.  Velocity 0
000026t:  Note on ::  Channel 5.  Note 68.  Velocity 110
000480t:  Note off ::  Channel 5.  Note 68.  Velocity 0
000000t:  Note on ::  Channel 5.  Note 64.  Velocity 110
000480t:  Note on ::  Channel 5.  Note 61.  Velocity 110
000025t:  Note off ::  Channel 5.  Note 64.  Velocity 0
000455t:  Note on ::  Channel 5.  Note 66.  Velocity 110
000025t:  Note off ::  Channel 5.  Note 61.  Velocity 0
000455t:  Note off ::  Channel 5.  Note 66.  Velocity 0
000000t:  Note on ::  Channel 5.  Note 64.  Velocity 110
002335t:  Note off ::  Channel 5.  Note 64.  Velocity 0
002945t:  Note on ::  Channel 5.  Note 66.  Velocity 110
000220t:  Note off ::  Channel 5.  Note 66.  Velocity 0
000013t:  Note on ::  Channel 5.  Note 69.  Velocity 110
000221t:  Note off ::  Channel 5.  Note 69.  Velocity 0
000026t:  Note on ::  Channel 5.  Note 71.  Velocity 110
000480t:  Note off ::  Channel 5.  Note 71.  Velocity 0
000000t:  Note on ::  Channel 5.  Note 69.  Velocity 110
000480t:  Note on ::  Channel 5.  Note 68.  Velocity 110
000025t:  Note off ::  Channel 5.  Note 69.  Velocity 0
000455t:  Note on ::  Channel 5.  Note 66.  Velocity 110
000025t:  Note off ::  Channel 5.  Note 68.  Velocity 0
000455t:  Note off ::  Channel 5.  Note 66.  Velocity 0
036000t:  Note on ::  Channel 5.  Note 66.  Velocity 110
000220t:  Note off ::  Channel 5.  Note 66.  Velocity 0
000013t:  Note on ::  Channel 5.  Note 68.  Velocity 110
000221t:  Note off ::  Channel 5.  Note 68.  Velocity 0
000026t:  Note on ::  Channel 5.  Note 69.  Velocity 110
000480t:  Note off ::  Channel 5.  Note 69.  Velocity 0
000000t:  Note on ::  Channel 5.  Note 68.  Velocity 110
000480t:  Note on ::  Channel 5.  Note 66.  Velocity 110
000025t:  Note off ::  Channel 5.  Note 68.  Velocity 0
000455t:  Note on ::  Channel 5.  Note 64.  Velocity 110
000025t:  Note off ::  Channel 5.  Note 66.  Velocity 0
000455t:  Note off ::  Channel 5.  Note 64.  Velocity 0
000000t:  Note on ::  Channel 5.  Note 61.  Velocity 110
003840t:  Note off ::  Channel 5.  Note 61.  Velocity 0
001440t:  Note on ::  Channel 5.  Note 66.  Velocity 110
000220t:  Note off ::  Channel 5.  Note 66.  Velocity 0
000013t:  Note on ::  Channel 5.  Note 69.  Velocity 110
000221t:  Note off ::  Channel 5.  Note 69.  Velocity 0
000026t:  Note on ::  Channel 5.  Note 71.  Velocity 110
000480t:  Note off ::  Channel 5.  Note 71.  Velocity 0
000000t:  Note on ::  Channel 5.  Note 69.  Velocity 110
000480t:  Note on ::  Channel 5.  Note 68.  Velocity 110
000025t:  Note off ::  Channel 5.  Note 69.  Velocity 0
000455t:  Note on ::  Channel 5.  Note 66.  Velocity 110
000025t:  Note off ::  Channel 5.  Note 68.  Velocity 0
000455t:  Note off ::  Channel 5.  Note 66.  Velocity 0
000000t:  Note on ::  Channel 5.  Note 64.  Velocity 110
000120t:  Note off ::  Channel 5.  Note 64.  Velocity 0
000113t:  Note on ::  Channel 5.  Note 66.  Velocity 110
000120t:  Note off ::  Channel 5.  Note 66.  Velocity 0
000127t:  Note on ::  Channel 5.  Note 64.  Velocity 110
000120t:  Note off ::  Channel 5.  Note 64.  Velocity 0
000113t:  Note on ::  Channel 5.  Note 61.  Velocity 110
003075t:  Note off ::  Channel 5.  Note 61.  Velocity 0
001492t:  Note on ::  Channel 5.  Note 66.  Velocity 110
000220t:  Note off ::  Channel 5.  Note 66.  Velocity 0
000013t:  Note on ::  Channel 5.  Note 69.  Velocity 110
000221t:  Note off ::  Channel 5.  Note 69.  Velocity 0
000026t:  Note on ::  Channel 5.  Note 68.  Velocity 110
000480t:  Note off ::  Channel 5.  Note 68.  Velocity 0
000000t:  Note on ::  Channel 5.  Note 64.  Velocity 110
000480t:  Note on ::  Channel 5.  Note 61.  Velocity 110
000025t:  Note off ::  Channel 5.  Note 64.  Velocity 0
000455t:  Note on ::  Channel 5.  Note 66.  Velocity 110
000025t:  Note off ::  Channel 5.  Note 61.  Velocity 0
000455t:  Note off ::  Channel 5.  Note 66.  Velocity 0
000000t:  Note on ::  Channel 5.  Note 64.  Velocity 110
002335t:  Note off ::  Channel 5.  Note 64.  Velocity 0
002945t:  Note on ::  Channel 5.  Note 66.  Velocity 110
000220t:  Note off ::  Channel 5.  Note 66.  Velocity 0
000013t:  Note on ::  Channel 5.  Note 69.  Velocity 110
000221t:  Note off ::  Channel 5.  Note 69.  Velocity 0
000026t:  Note on ::  Channel 5.  Note 71.  Velocity 110
000480t:  Note off ::  Channel 5.  Note 71.  Velocity 0
000000t:  Note on ::  Channel 5.  Note 69.  Velocity 110
000480t:  Note on ::  Channel 5.  Note 68.  Velocity 110
000025t:  Note off ::  Channel 5.  Note 69.  Velocity 0
000455t:  Note on ::  Channel 5.  Note 66.  Velocity 110
000025t:  Note off ::  Channel 5.  Note 68.  Velocity 0
000455t:  Note off ::  Channel 5.  Note 66.  Velocity 0
000000t:  Meta-event type $2f (End-track event) of length 0
Sigma t = 90240

Track chunk of 89 bytes
000000t:  Meta-event type $03 (Track name) of length 19
	           Background
000000t:  Meta-event type $21 (?) of length 1
	  _
000000t:  Meta-event type $20 (?) of length 1
	  _
000000t:  Control change ::  Channel 6.  Controller 7.  Value: 59
000000t:  Control change ::  Channel 6.  Controller 10.  Value: 70
000000t:  Control change ::  Channel 6.  Controller 91.  Value: 126
000000t:  Program (patch) change ::  Channel 6.  Patch 49 (String Ensemble 2)
001816t:  Key after-touch ::  Channel 6.  Note 60.  Velocity 50
000000t:  Channel after-touch ::  Channel 6.  Channel 50.
000116t:  Note on ::  Channel 6.  Note 69.  Velocity 40
032640t:  Note off ::  Channel 6.  Note 69.  Velocity 0
028684t:  Key after-touch ::  Channel 6.  Note 60.  Velocity 50
000000t:  Channel after-touch ::  Channel 6.  Channel 50.
000116t:  Note on ::  Channel 6.  Note 69.  Velocity 40
032640t:  Note off ::  Channel 6.  Note 69.  Velocity 0
000000t:  Meta-event type $2f (End-track event) of length 0
Sigma t = 96012

Track chunk of 614 bytes
000000t:  Meta-event type $03 (Track name) of length 23
	             Counterpoint
000000t:  Meta-event type $21 (?) of length 1
	  _
000000t:  Meta-event type $20 (?) of length 1
	  _
000000t:  Control change ::  Channel 7.  Controller 7.  Value: 99
000000t:  Control change ::  Channel 7.  Controller 10.  Value: 79
000000t:  Control change ::  Channel 7.  Controller 91.  Value: 126
000000t:  Control change ::  Channel 7.  Controller 64.  Value: 59
000000t:  Program (patch) change ::  Channel 7.  Patch 15 (Dulcimer)
032640t:  Note on ::  Channel 7.  Note 73.  Velocity 75
000791t:  Note off ::  Channel 7.  Note 73.  Velocity 0
000169t:  Note on ::  Channel 7.  Note 69.  Velocity 75
000869t:  Note off ::  Channel 7.  Note 69.  Velocity 0
000091t:  Note on ::  Channel 7.  Note 71.  Velocity 75
000791t:  Note off ::  Channel 7.  Note 71.  Velocity 0
000169t:  Note on ::  Channel 7.  Note 64.  Velocity 75
000869t:  Note off ::  Channel 7.  Note 64.  Velocity 0
000091t:  Note on ::  Channel 7.  Note 73.  Velocity 75
000791t:  Note off ::  Channel 7.  Note 73.  Velocity 0
000169t:  Note on ::  Channel 7.  Note 69.  Velocity 75
000869t:  Note off ::  Channel 7.  Note 69.  Velocity 0
000091t:  Note on ::  Channel 7.  Note 71.  Velocity 75
000791t:  Note off ::  Channel 7.  Note 71.  Velocity 0
000169t:  Note on ::  Channel 7.  Note 64.  Velocity 75
000869t:  Note off ::  Channel 7.  Note 64.  Velocity 0
000091t:  Note on ::  Channel 7.  Note 73.  Velocity 75
000791t:  Note off ::  Channel 7.  Note 73.  Velocity 0
000169t:  Note on ::  Channel 7.  Note 69.  Velocity 75
000869t:  Note off ::  Channel 7.  Note 69.  Velocity 0
000091t:  Note on ::  Channel 7.  Note 71.  Velocity 75
000791t:  Note off ::  Channel 7.  Note 71.  Velocity 0
000169t:  Note on ::  Channel 7.  Note 64.  Velocity 75
000869t:  Note off ::  Channel 7.  Note 64.  Velocity 0
000091t:  Note on ::  Channel 7.  Note 73.  Velocity 75
000791t:  Note off ::  Channel 7.  Note 73.  Velocity 0
000169t:  Note on ::  Channel 7.  Note 69.  Velocity 75
000869t:  Note off ::  Channel 7.  Note 69.  Velocity 0
000091t:  Note on ::  Channel 7.  Note 71.  Velocity 75
000791t:  Note off ::  Channel 7.  Note 71.  Velocity 0
000169t:  Note on ::  Channel 7.  Note 64.  Velocity 75
000869t:  Note off ::  Channel 7.  Note 64.  Velocity 0
000091t:  Note on ::  Channel 7.  Note 73.  Velocity 75
000791t:  Note off ::  Channel 7.  Note 73.  Velocity 0
000169t:  Note on ::  Channel 7.  Note 69.  Velocity 75
000869t:  Note off ::  Channel 7.  Note 69.  Velocity 0
000091t:  Note on ::  Channel 7.  Note 71.  Velocity 75
000791t:  Note off ::  Channel 7.  Note 71.  Velocity 0
000169t:  Note on ::  Channel 7.  Note 64.  Velocity 75
000869t:  Note off ::  Channel 7.  Note 64.  Velocity 0
000091t:  Note on ::  Channel 7.  Note 73.  Velocity 75
000791t:  Note off ::  Channel 7.  Note 73.  Velocity 0
000169t:  Note on ::  Channel 7.  Note 69.  Velocity 75
000869t:  Note off ::  Channel 7.  Note 69.  Velocity 0
000091t:  Note on ::  Channel 7.  Note 71.  Velocity 75
000791t:  Note off ::  Channel 7.  Note 71.  Velocity 0
000169t:  Note on ::  Channel 7.  Note 64.  Velocity 75
000869t:  Note off ::  Channel 7.  Note 64.  Velocity 0
000091t:  Note on ::  Channel 7.  Note 73.  Velocity 75
000791t:  Note off ::  Channel 7.  Note 73.  Velocity 0
000169t:  Note on ::  Channel 7.  Note 69.  Velocity 75
000869t:  Note off ::  Channel 7.  Note 69.  Velocity 0
000091t:  Note on ::  Channel 7.  Note 71.  Velocity 75
000791t:  Note off ::  Channel 7.  Note 71.  Velocity 0
000169t:  Note on ::  Channel 7.  Note 64.  Velocity 75
000869t:  Note off ::  Channel 7.  Note 64.  Velocity 0
000091t:  Note on ::  Channel 7.  Note 73.  Velocity 75
003398t:  Note off ::  Channel 7.  Note 73.  Velocity 0
031162t:  Note on ::  Channel 7.  Note 73.  Velocity 75
000791t:  Note off ::  Channel 7.  Note 73.  Velocity 0
000169t:  Note on ::  Channel 7.  Note 69.  Velocity 75
000869t:  Note off ::  Channel 7.  Note 69.  Velocity 0
000091t:  Note on ::  Channel 7.  Note 71.  Velocity 75
000791t:  Note off ::  Channel 7.  Note 71.  Velocity 0
000169t:  Note on ::  Channel 7.  Note 64.  Velocity 75
000869t:  Note off ::  Channel 7.  Note 64.  Velocity 0
000091t:  Note on ::  Channel 7.  Note 73.  Velocity 75
000791t:  Note off ::  Channel 7.  Note 73.  Velocity 0
000169t:  Note on ::  Channel 7.  Note 69.  Velocity 75
000869t:  Note off ::  Channel 7.  Note 69.  Velocity 0
000091t:  Note on ::  Channel 7.  Note 71.  Velocity 75
000791t:  Note off ::  Channel 7.  Note 71.  Velocity 0
000169t:  Note on ::  Channel 7.  Note 64.  Velocity 75
000869t:  Note off ::  Channel 7.  Note 64.  Velocity 0
000091t:  Note on ::  Channel 7.  Note 73.  Velocity 75
000791t:  Note off ::  Channel 7.  Note 73.  Velocity 0
000169t:  Note on ::  Channel 7.  Note 69.  Velocity 75
000869t:  Note off ::  Channel 7.  Note 69.  Velocity 0
000091t:  Note on ::  Channel 7.  Note 71.  Velocity 75
000791t:  Note off ::  Channel 7.  Note 71.  Velocity 0
000169t:  Note on ::  Channel 7.  Note 64.  Velocity 75
000869t:  Note off ::  Channel 7.  Note 64.  Velocity 0
000091t:  Note on ::  Channel 7.  Note 73.  Velocity 75
000791t:  Note off ::  Channel 7.  Note 73.  Velocity 0
000169t:  Note on ::  Channel 7.  Note 69.  Velocity 75
000869t:  Note off ::  Channel 7.  Note 69.  Velocity 0
000091t:  Note on ::  Channel 7.  Note 71.  Velocity 75
000791t:  Note off ::  Channel 7.  Note 71.  Velocity 0
000169t:  Note on ::  Channel 7.  Note 64.  Velocity 75
000869t:  Note off ::  Channel 7.  Note 64.  Velocity 0
000091t:  Note on ::  Channel 7.  Note 73.  Velocity 75
000791t:  Note off ::  Channel 7.  Note 73.  Velocity 0
000169t:  Note on ::  Channel 7.  Note 69.  Velocity 75
000869t:  Note off ::  Channel 7.  Note 69.  Velocity 0
000091t:  Note on ::  Channel 7.  Note 71.  Velocity 75
000791t:  Note off ::  Channel 7.  Note 71.  Velocity 0
000169t:  Note on ::  Channel 7.  Note 64.  Velocity 75
000869t:  Note off ::  Channel 7.  Note 64.  Velocity 0
000091t:  Note on ::  Channel 7.  Note 73.  Velocity 75
000791t:  Note off ::  Channel 7.  Note 73.  Velocity 0
000169t:  Note on ::  Channel 7.  Note 69.  Velocity 75
000869t:  Note off ::  Channel 7.  Note 69.  Velocity 0
000091t:  Note on ::  Channel 7.  Note 71.  Velocity 75
000791t:  Note off ::  Channel 7.  Note 71.  Velocity 0
000169t:  Note on ::  Channel 7.  Note 64.  Velocity 75
000869t:  Note off ::  Channel 7.  Note 64.  Velocity 0
000091t:  Note on ::  Channel 7.  Note 73.  Velocity 75
000791t:  Note off ::  Channel 7.  Note 73.  Velocity 0
000169t:  Note on ::  Channel 7.  Note 69.  Velocity 75
000869t:  Note off ::  Channel 7.  Note 69.  Velocity 0
000091t:  Note on ::  Channel 7.  Note 71.  Velocity 75
000791t:  Note off ::  Channel 7.  Note 71.  Velocity 0
000169t:  Note on ::  Channel 7.  Note 64.  Velocity 75
000869t:  Note off ::  Channel 7.  Note 64.  Velocity 0
000091t:  Note on ::  Channel 7.  Note 73.  Velocity 75
003398t:  Note off ::  Channel 7.  Note 73.  Velocity 0
000000t:  Meta-event type $2f (End-track event) of length 0
Sigma t = 124358

Track chunk of 639 bytes
000000t:  Meta-event type $03 (Track name) of length 20
	            Background
000000t:  Meta-event type $21 (?) of length 1
	  _
000000t:  Meta-event type $20 (?) of length 1
	  _
000000t:  Control change ::  Channel 8.  Controller 7.  Value: 84
000000t:  Control change ::  Channel 8.  Controller 10.  Value: 52
000000t:  Control change ::  Channel 8.  Controller 91.  Value: 126
000000t:  Program (patch) change ::  Channel 8.  Patch 95 (Pad 8 (sweep))
032640t:  Control change ::  Channel 8.  Controller 7.  Value: 85
000000t:  Note on ::  Channel 8.  Note 73.  Velocity 50
000000t:  Note on ::  Channel 8.  Note 69.  Velocity 50
000000t:  Note on ::  Channel 8.  Note 66.  Velocity 50
000000t:  Note on ::  Channel 8.  Note 62.  Velocity 50
003749t:  Note off ::  Channel 8.  Note 62.  Velocity 0
000000t:  Note off ::  Channel 8.  Note 66.  Velocity 0
000013t:  Note off ::  Channel 8.  Note 69.  Velocity 0
000052t:  Note off ::  Channel 8.  Note 73.  Velocity 0
000026t:  Note on ::  Channel 8.  Note 61.  Velocity 50
000000t:  Note on ::  Channel 8.  Note 64.  Velocity 50
000000t:  Note on ::  Channel 8.  Note 68.  Velocity 50
000000t:  Note on ::  Channel 8.  Note 71.  Velocity 50
003723t:  Note off ::  Channel 8.  Note 71.  Velocity 0
000039t:  Note off ::  Channel 8.  Note 64.  Velocity 0
000013t:  Note off ::  Channel 8.  Note 61.  Velocity 0
000000t:  Note off ::  Channel 8.  Note 68.  Velocity 0
000065t:  Note on ::  Channel 8.  Note 69.  Velocity 50
000000t:  Note on ::  Channel 8.  Note 59.  Velocity 50
000000t:  Note on ::  Channel 8.  Note 62.  Velocity 50
000000t:  Note on ::  Channel 8.  Note 66.  Velocity 50
001855t:  Note off ::  Channel 8.  Note 69.  Velocity 0
000065t:  Note on ::  Channel 8.  Note 68.  Velocity 50
001803t:  Note off ::  Channel 8.  Note 68.  Velocity 0
000026t:  Note off ::  Channel 8.  Note 66.  Velocity 0
000013t:  Note off ::  Channel 8.  Note 62.  Velocity 0
000026t:  Note off ::  Channel 8.  Note 59.  Velocity 0
000052t:  Note on ::  Channel 8.  Note 57.  Velocity 50
000000t:  Note on ::  Channel 8.  Note 61.  Velocity 50
000000t:  Note on ::  Channel 8.  Note 64.  Velocity 50
000000t:  Note on ::  Channel 8.  Note 68.  Velocity 50
003372t:  Note off ::  Channel 8.  Note 64.  Velocity 0
000104t:  Note off ::  Channel 8.  Note 61.  Velocity 0
000078t:  Note off ::  Channel 8.  Note 68.  Velocity 0
000013t:  Note off ::  Channel 8.  Note 57.  Velocity 0
000273t:  Note on ::  Channel 8.  Note 62.  Velocity 50
000000t:  Note on ::  Channel 8.  Note 66.  Velocity 50
000000t:  Note on ::  Channel 8.  Note 69.  Velocity 50
000000t:  Note on ::  Channel 8.  Note 73.  Velocity 50
003749t:  Note off ::  Channel 8.  Note 66.  Velocity 0
000000t:  Note off ::  Channel 8.  Note 62.  Velocity 0
000013t:  Note off ::  Channel 8.  Note 69.  Velocity 0
000052t:  Note off ::  Channel 8.  Note 73.  Velocity 0
000026t:  Note on ::  Channel 8.  Note 61.  Velocity 50
000000t:  Note on ::  Channel 8.  Note 64.  Velocity 50
000000t:  Note on ::  Channel 8.  Note 68.  Velocity 50
000000t:  Note on ::  Channel 8.  Note 71.  Velocity 50
003723t:  Note off ::  Channel 8.  Note 71.  Velocity 0
000039t:  Note off ::  Channel 8.  Note 64.  Velocity 0
000013t:  Note off ::  Channel 8.  Note 61.  Velocity 0
000000t:  Note off ::  Channel 8.  Note 68.  Velocity 0
000065t:  Note on ::  Channel 8.  Note 69.  Velocity 50
000000t:  Note on ::  Channel 8.  Note 59.  Velocity 50
000000t:  Note on ::  Channel 8.  Note 62.  Velocity 50
000000t:  Note on ::  Channel 8.  Note 66.  Velocity 50
001855t:  Note off ::  Channel 8.  Note 69.  Velocity 0
000065t:  Note on ::  Channel 8.  Note 68.  Velocity 50
001803t:  Note off ::  Channel 8.  Note 68.  Velocity 0
000026t:  Note off ::  Channel 8.  Note 66.  Velocity 0
000013t:  Note off ::  Channel 8.  Note 62.  Velocity 0
000026t:  Note off ::  Channel 8.  Note 59.  Velocity 0
000052t:  Note on ::  Channel 8.  Note 57.  Velocity 50
000000t:  Note on ::  Channel 8.  Note 61.  Velocity 50
000000t:  Note on ::  Channel 8.  Note 64.  Velocity 50
000000t:  Control change ::  Channel 8.  Controller 7.  Value: 127
000000t:  Note on ::  Channel 8.  Note 68.  Velocity 50
003372t:  Note off ::  Channel 8.  Note 64.  Velocity 0
000104t:  Note off ::  Channel 8.  Note 61.  Velocity 0
000078t:  Note off ::  Channel 8.  Note 68.  Velocity 0
000013t:  Note off ::  Channel 8.  Note 57.  Velocity 0
030993t:  Control change ::  Channel 8.  Controller 7.  Value: 85
000000t:  Note on ::  Channel 8.  Note 73.  Velocity 50
000000t:  Note on ::  Channel 8.  Note 69.  Velocity 50
000000t:  Note on ::  Channel 8.  Note 66.  Velocity 50
000000t:  Note on ::  Channel 8.  Note 62.  Velocity 50
003749t:  Note off ::  Channel 8.  Note 62.  Velocity 0
000000t:  Note off ::  Channel 8.  Note 66.  Velocity 0
000013t:  Note off ::  Channel 8.  Note 69.  Velocity 0
000052t:  Note off ::  Channel 8.  Note 73.  Velocity 0
000026t:  Note on ::  Channel 8.  Note 61.  Velocity 50
000000t:  Note on ::  Channel 8.  Note 64.  Velocity 50
000000t:  Note on ::  Channel 8.  Note 68.  Velocity 50
000000t:  Note on ::  Channel 8.  Note 71.  Velocity 50
003723t:  Note off ::  Channel 8.  Note 71.  Velocity 0
000039t:  Note off ::  Channel 8.  Note 64.  Velocity 0
000013t:  Note off ::  Channel 8.  Note 61.  Velocity 0
000000t:  Note off ::  Channel 8.  Note 68.  Velocity 0
000065t:  Note on ::  Channel 8.  Note 69.  Velocity 50
000000t:  Note on ::  Channel 8.  Note 59.  Velocity 50
000000t:  Note on ::  Channel 8.  Note 62.  Velocity 50
000000t:  Note on ::  Channel 8.  Note 66.  Velocity 50
001855t:  Note off ::  Channel 8.  Note 69.  Velocity 0
000065t:  Note on ::  Channel 8.  Note 68.  Velocity 50
001803t:  Note off ::  Channel 8.  Note 68.  Velocity 0
000026t:  Note off ::  Channel 8.  Note 66.  Velocity 0
000013t:  Note off ::  Channel 8.  Note 62.  Velocity 0
000026t:  Note off ::  Channel 8.  Note 59.  Velocity 0
000052t:  Note on ::  Channel 8.  Note 57.  Velocity 50
000000t:  Note on ::  Channel 8.  Note 61.  Velocity 50
000000t:  Note on ::  Channel 8.  Note 64.  Velocity 50
000000t:  Note on ::  Channel 8.  Note 68.  Velocity 50
003372t:  Note off ::  Channel 8.  Note 64.  Velocity 0
000104t:  Note off ::  Channel 8.  Note 61.  Velocity 0
000078t:  Note off ::  Channel 8.  Note 68.  Velocity 0
000013t:  Note off ::  Channel 8.  Note 57.  Velocity 0
000273t:  Note on ::  Channel 8.  Note 62.  Velocity 50
000000t:  Note on ::  Channel 8.  Note 66.  Velocity 50
000000t:  Note on ::  Channel 8.  Note 69.  Velocity 50
000000t:  Note on ::  Channel 8.  Note 73.  Velocity 50
003749t:  Note off ::  Channel 8.  Note 66.  Velocity 0
000000t:  Note off ::  Channel 8.  Note 62.  Velocity 0
000013t:  Note off ::  Channel 8.  Note 69.  Velocity 0
000052t:  Note off ::  Channel 8.  Note 73.  Velocity 0
000026t:  Note on ::  Channel 8.  Note 61.  Velocity 50
000000t:  Note on ::  Channel 8.  Note 64.  Velocity 50
000000t:  Note on ::  Channel 8.  Note 68.  Velocity 50
000000t:  Note on ::  Channel 8.  Note 71.  Velocity 50
003723t:  Note off ::  Channel 8.  Note 71.  Velocity 0
000039t:  Note off ::  Channel 8.  Note 64.  Velocity 0
000013t:  Note off ::  Channel 8.  Note 61.  Velocity 0
000000t:  Note off ::  Channel 8.  Note 68.  Velocity 0
000065t:  Note on ::  Channel 8.  Note 69.  Velocity 50
000000t:  Note on ::  Channel 8.  Note 59.  Velocity 50
000000t:  Note on ::  Channel 8.  Note 62.  Velocity 50
000000t:  Note on ::  Channel 8.  Note 66.  Velocity 50
001855t:  Note off ::  Channel 8.  Note 69.  Velocity 0
000065t:  Note on ::  Channel 8.  Note 68.  Velocity 50
001803t:  Note off ::  Channel 8.  Note 68.  Velocity 0
000026t:  Note off ::  Channel 8.  Note 66.  Velocity 0
000013t:  Note off ::  Channel 8.  Note 62.  Velocity 0
000026t:  Note off ::  Channel 8.  Note 59.  Velocity 0
000052t:  Control change ::  Channel 8.  Controller 7.  Value: 127
000000t:  Note on ::  Channel 8.  Note 68.  Velocity 55
000000t:  Note on ::  Channel 8.  Note 64.  Velocity 55
000000t:  Note on ::  Channel 8.  Note 61.  Velocity 55
000000t:  Note on ::  Channel 8.  Note 57.  Velocity 55
003372t:  Note off ::  Channel 8.  Note 64.  Velocity 0
000104t:  Note off ::  Channel 8.  Note 61.  Velocity 0
000078t:  Note off ::  Channel 8.  Note 68.  Velocity 0
000013t:  Note off ::  Channel 8.  Note 57.  Velocity 0
000000t:  Meta-event type $2f (End-track event) of length 0
Sigma t = 124527

Track chunk of 547 bytes
000000t:  Meta-event type $03 (Track name) of length 16
	            Melody
000000t:  Meta-event type $21 (?) of length 1
	  _
000000t:  Meta-event type $20 (?) of length 1
	  _
000000t:  Control change ::  Channel 10.  Controller 7.  Value: 114
000000t:  Control change ::  Channel 10.  Controller 10.  Value: 59
000000t:  Control change ::  Channel 10.  Controller 91.  Value: 126
000000t:  Program (patch) change ::  Channel 10.  Patch 58 (Tuba)
034080t:  Channel after-touch ::  Channel 10.  Channel 60.
000000t:  Key after-touch ::  Channel 10.  Note 60.  Velocity 60
000000t:  Note on ::  Channel 10.  Note 69.  Velocity 110
000194t:  Note off ::  Channel 10.  Note 69.  Velocity 0
000039t:  Note on ::  Channel 10.  Note 71.  Velocity 110
000195t:  Note off ::  Channel 10.  Note 71.  Velocity 0
000052t:  Note on ::  Channel 10.  Note 73.  Velocity 110
000908t:  Note off ::  Channel 10.  Note 73.  Velocity 0
000052t:  Note on ::  Channel 10.  Note 74.  Velocity 110
000233t:  Note on ::  Channel 10.  Note 73.  Velocity 110
000013t:  Note off ::  Channel 10.  Note 74.  Velocity 0
000208t:  Note off ::  Channel 10.  Note 73.  Velocity 0
000026t:  Note on ::  Channel 10.  Note 74.  Velocity 110
000220t:  Note off ::  Channel 10.  Note 74.  Velocity 0
000013t:  Note on ::  Channel 10.  Note 76.  Velocity 110
003062t:  Note off ::  Channel 10.  Note 76.  Velocity 0
000065t:  Note on ::  Channel 10.  Note 76.  Velocity 110
000103t:  Note off ::  Channel 10.  Note 76.  Velocity 0
000026t:  Note on ::  Channel 10.  Note 78.  Velocity 110
000571t:  Note off ::  Channel 10.  Note 78.  Velocity 0
000013t:  Note on ::  Channel 10.  Note 69.  Velocity 110
003074t:  Note off ::  Channel 10.  Note 69.  Velocity 0
000053t:  Note on ::  Channel 10.  Note 69.  Velocity 110
000480t:  Note off ::  Channel 10.  Note 69.  Velocity 0
000000t:  Note on ::  Channel 10.  Note 71.  Velocity 110
000233t:  Note off ::  Channel 10.  Note 71.  Velocity 0
000000t:  Note on ::  Channel 10.  Note 73.  Velocity 110
002452t:  Note off ::  Channel 10.  Note 73.  Velocity 0
003075t:  Channel after-touch ::  Channel 10.  Channel 60.
000000t:  Key after-touch ::  Channel 10.  Note 60.  Velocity 60
000000t:  Note on ::  Channel 10.  Note 69.  Velocity 110
000194t:  Note off ::  Channel 10.  Note 69.  Velocity 0
000039t:  Note on ::  Channel 10.  Note 71.  Velocity 110
000195t:  Note off ::  Channel 10.  Note 71.  Velocity 0
000052t:  Note on ::  Channel 10.  Note 73.  Velocity 110
000908t:  Note off ::  Channel 10.  Note 73.  Velocity 0
000052t:  Note on ::  Channel 10.  Note 74.  Velocity 110
000233t:  Note on ::  Channel 10.  Note 73.  Velocity 110
000013t:  Note off ::  Channel 10.  Note 74.  Velocity 0
000208t:  Note off ::  Channel 10.  Note 73.  Velocity 0
000026t:  Note on ::  Channel 10.  Note 74.  Velocity 110
000220t:  Note off ::  Channel 10.  Note 74.  Velocity 0
000013t:  Note on ::  Channel 10.  Note 76.  Velocity 110
003062t:  Note off ::  Channel 10.  Note 76.  Velocity 0
000065t:  Note on ::  Channel 10.  Note 76.  Velocity 110
000103t:  Note off ::  Channel 10.  Note 76.  Velocity 0
000026t:  Note on ::  Channel 10.  Note 78.  Velocity 110
000571t:  Note off ::  Channel 10.  Note 78.  Velocity 0
000013t:  Note on ::  Channel 10.  Note 69.  Velocity 110
003074t:  Note off ::  Channel 10.  Note 69.  Velocity 0
000053t:  Note on ::  Channel 10.  Note 69.  Velocity 110
000480t:  Note on ::  Channel 10.  Note 71.  Velocity 110
000051t:  Note off ::  Channel 10.  Note 69.  Velocity 0
000182t:  Note on ::  Channel 10.  Note 69.  Velocity 110
000065t:  Note off ::  Channel 10.  Note 71.  Velocity 0
001803t:  Note off ::  Channel 10.  Note 69.  Velocity 0
034379t:  Channel after-touch ::  Channel 10.  Channel 60.
000000t:  Key after-touch ::  Channel 10.  Note 60.  Velocity 60
000000t:  Note on ::  Channel 10.  Note 69.  Velocity 110
000194t:  Note off ::  Channel 10.  Note 69.  Velocity 0
000039t:  Note on ::  Channel 10.  Note 71.  Velocity 110
000195t:  Note off ::  Channel 10.  Note 71.  Velocity 0
000052t:  Note on ::  Channel 10.  Note 73.  Velocity 110
000908t:  Note off ::  Channel 10.  Note 73.  Velocity 0
000052t:  Note on ::  Channel 10.  Note 74.  Velocity 110
000233t:  Note on ::  Channel 10.  Note 73.  Velocity 110
000013t:  Note off ::  Channel 10.  Note 74.  Velocity 0
000208t:  Note off ::  Channel 10.  Note 73.  Velocity 0
000026t:  Note on ::  Channel 10.  Note 74.  Velocity 110
000220t:  Note off ::  Channel 10.  Note 74.  Velocity 0
000013t:  Note on ::  Channel 10.  Note 76.  Velocity 110
003062t:  Note off ::  Channel 10.  Note 76.  Velocity 0
000065t:  Note on ::  Channel 10.  Note 76.  Velocity 110
000103t:  Note off ::  Channel 10.  Note 76.  Velocity 0
000026t:  Note on ::  Channel 10.  Note 78.  Velocity 110
000571t:  Note off ::  Channel 10.  Note 78.  Velocity 0
000013t:  Note on ::  Channel 10.  Note 69.  Velocity 110
003074t:  Note off ::  Channel 10.  Note 69.  Velocity 0
000053t:  Note on ::  Channel 10.  Note 69.  Velocity 110
000480t:  Note off ::  Channel 10.  Note 69.  Velocity 0
000000t:  Note on ::  Channel 10.  Note 71.  Velocity 110
000233t:  Note off ::  Channel 10.  Note 71.  Velocity 0
000000t:  Note on ::  Channel 10.  Note 73.  Velocity 110
002452t:  Note off ::  Channel 10.  Note 73.  Velocity 0
003075t:  Channel after-touch ::  Channel 10.  Channel 60.
000000t:  Key after-touch ::  Channel 10.  Note 60.  Velocity 60
000000t:  Note on ::  Channel 10.  Note 69.  Velocity 110
000194t:  Note off ::  Channel 10.  Note 69.  Velocity 0
000039t:  Note on ::  Channel 10.  Note 71.  Velocity 110
000195t:  Note off ::  Channel 10.  Note 71.  Velocity 0
000052t:  Note on ::  Channel 10.  Note 73.  Velocity 110
000908t:  Note off ::  Channel 10.  Note 73.  Velocity 0
000052t:  Note on ::  Channel 10.  Note 74.  Velocity 110
000233t:  Note on ::  Channel 10.  Note 73.  Velocity 110
000013t:  Note off ::  Channel 10.  Note 74.  Velocity 0
000208t:  Note off ::  Channel 10.  Note 73.  Velocity 0
000026t:  Note on ::  Channel 10.  Note 74.  Velocity 110
000220t:  Note off ::  Channel 10.  Note 74.  Velocity 0
000013t:  Note on ::  Channel 10.  Note 76.  Velocity 110
003062t:  Note off ::  Channel 10.  Note 76.  Velocity 0
000065t:  Note on ::  Channel 10.  Note 76.  Velocity 110
000103t:  Note off ::  Channel 10.  Note 76.  Velocity 0
000026t:  Note on ::  Channel 10.  Note 78.  Velocity 110
000571t:  Note off ::  Channel 10.  Note 78.  Velocity 0
000013t:  Note on ::  Channel 10.  Note 69.  Velocity 110
003074t:  Note off ::  Channel 10.  Note 69.  Velocity 0
000053t:  Note on ::  Channel 10.  Note 69.  Velocity 110
000480t:  Note on ::  Channel 10.  Note 71.  Velocity 110
000051t:  Note off ::  Channel 10.  Note 69.  Velocity 0
000182t:  Note on ::  Channel 10.  Note 69.  Velocity 110
000065t:  Note off ::  Channel 10.  Note 71.  Velocity 0
001803t:  Note off ::  Channel 10.  Note 69.  Velocity 0
000000t:  Meta-event type $2f (End-track event) of length 0
Sigma t = 122581

Track chunk of 425 bytes
000000t:  Meta-event type $03 (Track name) of length 15
	            Drums
000000t:  Meta-event type $21 (?) of length 1
	  _
000000t:  Meta-event type $20 (?) of length 1
	  _
000000t:  Control change ::  Channel 9.  Controller 7.  Value: 99
000000t:  Control change ::  Channel 9.  Controller 10.  Value: 64
000000t:  Control change ::  Channel 9.  Controller 91.  Value: 19
034560t:  Note on ::  Channel 9.  Note 81.  Velocity 30
000120t:  Note off ::  Channel 9.  Note 81.  Velocity 0
000360t:  Note on ::  Channel 9.  Note 81.  Velocity 30
000120t:  Note off ::  Channel 9.  Note 81.  Velocity 0
000360t:  Note on ::  Channel 9.  Note 81.  Velocity 30
000120t:  Note off ::  Channel 9.  Note 81.  Velocity 0
002760t:  Note on ::  Channel 9.  Note 81.  Velocity 30
000120t:  Note off ::  Channel 9.  Note 81.  Velocity 0
000360t:  Note on ::  Channel 9.  Note 81.  Velocity 30
000120t:  Note off ::  Channel 9.  Note 81.  Velocity 0
000360t:  Note on ::  Channel 9.  Note 81.  Velocity 30
000120t:  Note off ::  Channel 9.  Note 81.  Velocity 0
002760t:  Note on ::  Channel 9.  Note 81.  Velocity 30
000120t:  Note off ::  Channel 9.  Note 81.  Velocity 0
000360t:  Note on ::  Channel 9.  Note 81.  Velocity 30
000120t:  Note off ::  Channel 9.  Note 81.  Velocity 0
000360t:  Note on ::  Channel 9.  Note 81.  Velocity 30
000120t:  Note off ::  Channel 9.  Note 81.  Velocity 0
002760t:  Note on ::  Channel 9.  Note 81.  Velocity 30
000120t:  Note off ::  Channel 9.  Note 81.  Velocity 0
000360t:  Note on ::  Channel 9.  Note 81.  Velocity 30
000120t:  Note off ::  Channel 9.  Note 81.  Velocity 0
000360t:  Note on ::  Channel 9.  Note 81.  Velocity 30
000120t:  Note off ::  Channel 9.  Note 81.  Velocity 0
002760t:  Note on ::  Channel 9.  Note 81.  Velocity 30
000120t:  Note off ::  Channel 9.  Note 81.  Velocity 0
000360t:  Note on ::  Channel 9.  Note 81.  Velocity 30
000120t:  Note off ::  Channel 9.  Note 81.  Velocity 0
000360t:  Note on ::  Channel 9.  Note 81.  Velocity 30
000120t:  Note off ::  Channel 9.  Note 81.  Velocity 0
002760t:  Note on ::  Channel 9.  Note 81.  Velocity 30
000120t:  Note off ::  Channel 9.  Note 81.  Velocity 0
000360t:  Note on ::  Channel 9.  Note 81.  Velocity 30
000120t:  Note off ::  Channel 9.  Note 81.  Velocity 0
000360t:  Note on ::  Channel 9.  Note 81.  Velocity 30
000120t:  Note off ::  Channel 9.  Note 81.  Velocity 0
002760t:  Note on ::  Channel 9.  Note 81.  Velocity 30
000120t:  Note off ::  Channel 9.  Note 81.  Velocity 0
000360t:  Note on ::  Channel 9.  Note 81.  Velocity 30
000120t:  Note off ::  Channel 9.  Note 81.  Velocity 0
000360t:  Note on ::  Channel 9.  Note 81.  Velocity 30
000120t:  Note off ::  Channel 9.  Note 81.  Velocity 0
037320t:  Note on ::  Channel 9.  Note 81.  Velocity 30
000120t:  Note off ::  Channel 9.  Note 81.  Velocity 0
000360t:  Note on ::  Channel 9.  Note 81.  Velocity 30
000120t:  Note off ::  Channel 9.  Note 81.  Velocity 0
000360t:  Note on ::  Channel 9.  Note 81.  Velocity 30
000120t:  Note off ::  Channel 9.  Note 81.  Velocity 0
002760t:  Note on ::  Channel 9.  Note 81.  Velocity 30
000120t:  Note off ::  Channel 9.  Note 81.  Velocity 0
000360t:  Note on ::  Channel 9.  Note 81.  Velocity 30
000120t:  Note off ::  Channel 9.  Note 81.  Velocity 0
000360t:  Note on ::  Channel 9.  Note 81.  Velocity 30
000120t:  Note off ::  Channel 9.  Note 81.  Velocity 0
002760t:  Note on ::  Channel 9.  Note 81.  Velocity 30
000120t:  Note off ::  Channel 9.  Note 81.  Velocity 0
000360t:  Note on ::  Channel 9.  Note 81.  Velocity 30
000120t:  Note off ::  Channel 9.  Note 81.  Velocity 0
000360t:  Note on ::  Channel 9.  Note 81.  Velocity 30
000120t:  Note off ::  Channel 9.  Note 81.  Velocity 0
002760t:  Note on ::  Channel 9.  Note 81.  Velocity 30
000120t:  Note off ::  Channel 9.  Note 81.  Velocity 0
000360t:  Note on ::  Channel 9.  Note 81.  Velocity 30
000120t:  Note off ::  Channel 9.  Note 81.  Velocity 0
000360t:  Note on ::  Channel 9.  Note 81.  Velocity 30
000120t:  Note off ::  Channel 9.  Note 81.  Velocity 0
002760t:  Note on ::  Channel 9.  Note 81.  Velocity 30
000120t:  Note off ::  Channel 9.  Note 81.  Velocity 0
000360t:  Note on ::  Channel 9.  Note 81.  Velocity 30
000120t:  Note off ::  Channel 9.  Note 81.  Velocity 0
000360t:  Note on ::  Channel 9.  Note 81.  Velocity 30
000120t:  Note off ::  Channel 9.  Note 81.  Velocity 0
002760t:  Note on ::  Channel 9.  Note 81.  Velocity 30
000120t:  Note off ::  Channel 9.  Note 81.  Velocity 0
000360t:  Note on ::  Channel 9.  Note 81.  Velocity 30
000120t:  Note off ::  Channel 9.  Note 81.  Velocity 0
000360t:  Note on ::  Channel 9.  Note 81.  Velocity 30
000120t:  Note off ::  Channel 9.  Note 81.  Velocity 0
002760t:  Note on ::  Channel 9.  Note 81.  Velocity 30
000120t:  Note off ::  Channel 9.  Note 81.  Velocity 0
000360t:  Note on ::  Channel 9.  Note 81.  Velocity 30
000120t:  Note off ::  Channel 9.  Note 81.  Velocity 0
000360t:  Note on ::  Channel 9.  Note 81.  Velocity 30
000120t:  Note off ::  Channel 9.  Note 81.  Velocity 0
000000t:  Meta-event type $2f (End-track event) of length 0
Sigma t = 120120

Track chunk of 1165 bytes
000000t:  Meta-event type $03 (Track name) of length 15
	           Melody
000000t:  Meta-event type $21 (?) of length 1
	  _
000000t:  Meta-event type $20 (?) of length 1
	  _
000000t:  Control change ::  Channel 11.  Controller 7.  Value: 84
000000t:  Control change ::  Channel 11.  Controller 10.  Value: 59
000000t:  Control change ::  Channel 11.  Controller 91.  Value: 126
000000t:  Program (patch) change ::  Channel 11.  Patch 5 (Electric Piano 2)
003360t:  Note on ::  Channel 11.  Note 78.  Velocity 110
000000t:  Channel after-touch ::  Channel 11.  Channel 50.
000000t:  Key after-touch ::  Channel 11.  Note 60.  Velocity 50
000220t:  Note off ::  Channel 11.  Note 78.  Velocity 0
000013t:  Note on ::  Channel 11.  Note 80.  Velocity 110
000221t:  Note off ::  Channel 11.  Note 80.  Velocity 0
000026t:  Note on ::  Channel 11.  Note 81.  Velocity 110
000480t:  Note off ::  Channel 11.  Note 81.  Velocity 0
000000t:  Note on ::  Channel 11.  Note 80.  Velocity 110
000480t:  Note on ::  Channel 11.  Note 78.  Velocity 110
000025t:  Note off ::  Channel 11.  Note 80.  Velocity 0
000455t:  Note on ::  Channel 11.  Note 76.  Velocity 110
000025t:  Note off ::  Channel 11.  Note 78.  Velocity 0
000455t:  Note off ::  Channel 11.  Note 76.  Velocity 0
000000t:  Note on ::  Channel 11.  Note 73.  Velocity 110
003840t:  Note off ::  Channel 11.  Note 73.  Velocity 0
001440t:  Note on ::  Channel 11.  Note 78.  Velocity 110
000220t:  Note off ::  Channel 11.  Note 78.  Velocity 0
000013t:  Note on ::  Channel 11.  Note 81.  Velocity 110
000221t:  Note off ::  Channel 11.  Note 81.  Velocity 0
000026t:  Note on ::  Channel 11.  Note 83.  Velocity 110
000480t:  Note off ::  Channel 11.  Note 83.  Velocity 0
000000t:  Note on ::  Channel 11.  Note 81.  Velocity 110
000480t:  Note on ::  Channel 11.  Note 80.  Velocity 110
000025t:  Note off ::  Channel 11.  Note 81.  Velocity 0
000455t:  Note on ::  Channel 11.  Note 78.  Velocity 110
000025t:  Note off ::  Channel 11.  Note 80.  Velocity 0
000455t:  Note off ::  Channel 11.  Note 78.  Velocity 0
000000t:  Note on ::  Channel 11.  Note 76.  Velocity 110
000233t:  Note off ::  Channel 11.  Note 76.  Velocity 0
000000t:  Note on ::  Channel 11.  Note 78.  Velocity 110
000247t:  Note on ::  Channel 11.  Note 76.  Velocity 110
000013t:  Note off ::  Channel 11.  Note 78.  Velocity 0
000220t:  Note off ::  Channel 11.  Note 76.  Velocity 0
000000t:  Note on ::  Channel 11.  Note 73.  Velocity 110
003075t:  Note off ::  Channel 11.  Note 73.  Velocity 0
001492t:  Note on ::  Channel 11.  Note 78.  Velocity 110
000220t:  Note off ::  Channel 11.  Note 78.  Velocity 0
000013t:  Note on ::  Channel 11.  Note 81.  Velocity 110
000221t:  Note off ::  Channel 11.  Note 81.  Velocity 0
000026t:  Note on ::  Channel 11.  Note 80.  Velocity 110
000480t:  Note off ::  Channel 11.  Note 80.  Velocity 0
000000t:  Note on ::  Channel 11.  Note 76.  Velocity 110
000480t:  Note on ::  Channel 11.  Note 73.  Velocity 110
000025t:  Note off ::  Channel 11.  Note 76.  Velocity 0
000455t:  Note on ::  Channel 11.  Note 78.  Velocity 110
000025t:  Note off ::  Channel 11.  Note 73.  Velocity 0
000455t:  Note off ::  Channel 11.  Note 78.  Velocity 0
000000t:  Note on ::  Channel 11.  Note 76.  Velocity 110
003840t:  Note off ::  Channel 11.  Note 76.  Velocity 0
001440t:  Note on ::  Channel 11.  Note 78.  Velocity 110
000220t:  Note off ::  Channel 11.  Note 78.  Velocity 0
000013t:  Note on ::  Channel 11.  Note 81.  Velocity 110
000221t:  Note off ::  Channel 11.  Note 81.  Velocity 0
000026t:  Note on ::  Channel 11.  Note 83.  Velocity 110
000480t:  Note off ::  Channel 11.  Note 83.  Velocity 0
000000t:  Note on ::  Channel 11.  Note 81.  Velocity 110
000480t:  Note on ::  Channel 11.  Note 80.  Velocity 110
000025t:  Note off ::  Channel 11.  Note 81.  Velocity 0
000455t:  Note on ::  Channel 11.  Note 78.  Velocity 110
000025t:  Note off ::  Channel 11.  Note 80.  Velocity 0
000455t:  Note off ::  Channel 11.  Note 78.  Velocity 0
000000t:  Note on ::  Channel 11.  Note 76.  Velocity 110
001868t:  Note off ::  Channel 11.  Note 76.  Velocity 0
000052t:  Note on ::  Channel 11.  Note 73.  Velocity 70
001816t:  Note off ::  Channel 11.  Note 73.  Velocity 0
000104t:  Note on ::  Channel 11.  Note 69.  Velocity 40
001310t:  Note off ::  Channel 11.  Note 69.  Velocity 0
000130t:  Channel after-touch ::  Channel 11.  Channel 60.
000000t:  Key after-touch ::  Channel 11.  Note 60.  Velocity 60
000000t:  Note on ::  Channel 11.  Note 69.  Velocity 110
000194t:  Note off ::  Channel 11.  Note 69.  Velocity 0
000039t:  Note on ::  Channel 11.  Note 71.  Velocity 110
000195t:  Note off ::  Channel 11.  Note 71.  Velocity 0
000052t:  Note on ::  Channel 11.  Note 73.  Velocity 110
000908t:  Note off ::  Channel 11.  Note 73.  Velocity 0
000052t:  Note on ::  Channel 11.  Note 74.  Velocity 110
000233t:  Note on ::  Channel 11.  Note 73.  Velocity 110
000013t:  Note off ::  Channel 11.  Note 74.  Velocity 0
000208t:  Note off ::  Channel 11.  Note 73.  Velocity 0
000026t:  Note on ::  Channel 11.  Note 74.  Velocity 110
000220t:  Note off ::  Channel 11.  Note 74.  Velocity 0
000013t:  Note on ::  Channel 11.  Note 76.  Velocity 110
003062t:  Note off ::  Channel 11.  Note 76.  Velocity 0
000065t:  Note on ::  Channel 11.  Note 76.  Velocity 110
000103t:  Note off ::  Channel 11.  Note 76.  Velocity 0
000026t:  Note on ::  Channel 11.  Note 78.  Velocity 110
000571t:  Note off ::  Channel 11.  Note 78.  Velocity 0
000013t:  Note on ::  Channel 11.  Note 69.  Velocity 110
003074t:  Note off ::  Channel 11.  Note 69.  Velocity 0
000053t:  Note on ::  Channel 11.  Note 69.  Velocity 110
000480t:  Note off ::  Channel 11.  Note 69.  Velocity 0
000000t:  Note on ::  Channel 11.  Note 71.  Velocity 110
000233t:  Note off ::  Channel 11.  Note 71.  Velocity 0
000000t:  Note on ::  Channel 11.  Note 73.  Velocity 110
002452t:  Note off ::  Channel 11.  Note 73.  Velocity 0
003075t:  Channel after-touch ::  Channel 11.  Channel 60.
000000t:  Key after-touch ::  Channel 11.  Note 60.  Velocity 60
000000t:  Note on ::  Channel 11.  Note 69.  Velocity 110
000194t:  Note off ::  Channel 11.  Note 69.  Velocity 0
000039t:  Note on ::  Channel 11.  Note 71.  Velocity 110
000195t:  Note off ::  Channel 11.  Note 71.  Velocity 0
000052t:  Note on ::  Channel 11.  Note 73.  Velocity 110
000908t:  Note off ::  Channel 11.  Note 73.  Velocity 0
000052t:  Note on ::  Channel 11.  Note 74.  Velocity 110
000233t:  Note on ::  Channel 11.  Note 73.  Velocity 110
000013t:  Note off ::  Channel 11.  Note 74.  Velocity 0
000208t:  Note off ::  Channel 11.  Note 73.  Velocity 0
000026t:  Note on ::  Channel 11.  Note 74.  Velocity 110
000220t:  Note off ::  Channel 11.  Note 74.  Velocity 0
000013t:  Note on ::  Channel 11.  Note 76.  Velocity 110
003062t:  Note off ::  Channel 11.  Note 76.  Velocity 0
000065t:  Note on ::  Channel 11.  Note 76.  Velocity 110
000103t:  Note off ::  Channel 11.  Note 76.  Velocity 0
000026t:  Note on ::  Channel 11.  Note 78.  Velocity 110
000571t:  Note off ::  Channel 11.  Note 78.  Velocity 0
000013t:  Note on ::  Channel 11.  Note 69.  Velocity 110
003074t:  Note off ::  Channel 11.  Note 69.  Velocity 0
000053t:  Note on ::  Channel 11.  Note 69.  Velocity 110
000480t:  Note on ::  Channel 11.  Note 71.  Velocity 110
000051t:  Note off ::  Channel 11.  Note 69.  Velocity 0
000182t:  Note on ::  Channel 11.  Note 69.  Velocity 110
000065t:  Note off ::  Channel 11.  Note 71.  Velocity 0
001803t:  Note off ::  Channel 11.  Note 69.  Velocity 0
003659t:  Key after-touch ::  Channel 11.  Note 60.  Velocity 50
000000t:  Channel after-touch ::  Channel 11.  Channel 50.
000000t:  Control change ::  Channel 11.  Controller 7.  Value: 85
000000t:  Note on ::  Channel 11.  Note 78.  Velocity 110
000220t:  Note off ::  Channel 11.  Note 78.  Velocity 0
000013t:  Note on ::  Channel 11.  Note 80.  Velocity 110
000221t:  Note off ::  Channel 11.  Note 80.  Velocity 0
000026t:  Note on ::  Channel 11.  Note 81.  Velocity 110
000480t:  Note off ::  Channel 11.  Note 81.  Velocity 0
000000t:  Note on ::  Channel 11.  Note 80.  Velocity 110
000480t:  Note on ::  Channel 11.  Note 78.  Velocity 110
000025t:  Note off ::  Channel 11.  Note 80.  Velocity 0
000455t:  Note on ::  Channel 11.  Note 76.  Velocity 110
000025t:  Note off ::  Channel 11.  Note 78.  Velocity 0
000455t:  Note off ::  Channel 11.  Note 76.  Velocity 0
000000t:  Note on ::  Channel 11.  Note 73.  Velocity 110
003840t:  Note off ::  Channel 11.  Note 73.  Velocity 0
001440t:  Note on ::  Channel 11.  Note 78.  Velocity 110
000220t:  Note off ::  Channel 11.  Note 78.  Velocity 0
000013t:  Note on ::  Channel 11.  Note 81.  Velocity 110
000221t:  Note off ::  Channel 11.  Note 81.  Velocity 0
000026t:  Note on ::  Channel 11.  Note 83.  Velocity 110
000480t:  Note off ::  Channel 11.  Note 83.  Velocity 0
000000t:  Note on ::  Channel 11.  Note 81.  Velocity 110
000480t:  Note on ::  Channel 11.  Note 80.  Velocity 110
000025t:  Note off ::  Channel 11.  Note 81.  Velocity 0
000455t:  Note on ::  Channel 11.  Note 78.  Velocity 110
000025t:  Note off ::  Channel 11.  Note 80.  Velocity 0
000455t:  Note off ::  Channel 11.  Note 78.  Velocity 0
000000t:  Note on ::  Channel 11.  Note 76.  Velocity 110
000233t:  Note off ::  Channel 11.  Note 76.  Velocity 0
000000t:  Note on ::  Channel 11.  Note 78.  Velocity 110
000247t:  Note on ::  Channel 11.  Note 76.  Velocity 110
000013t:  Note off ::  Channel 11.  Note 78.  Velocity 0
000220t:  Note off ::  Channel 11.  Note 76.  Velocity 0
000000t:  Note on ::  Channel 11.  Note 73.  Velocity 110
003075t:  Note off ::  Channel 11.  Note 73.  Velocity 0
001492t:  Note on ::  Channel 11.  Note 78.  Velocity 110
000220t:  Note off ::  Channel 11.  Note 78.  Velocity 0
000013t:  Note on ::  Channel 11.  Note 81.  Velocity 110
000221t:  Note off ::  Channel 11.  Note 81.  Velocity 0
000026t:  Note on ::  Channel 11.  Note 80.  Velocity 110
000480t:  Note off ::  Channel 11.  Note 80.  Velocity 0
000000t:  Note on ::  Channel 11.  Note 76.  Velocity 110
000480t:  Note on ::  Channel 11.  Note 73.  Velocity 110
000025t:  Note off ::  Channel 11.  Note 76.  Velocity 0
000455t:  Note on ::  Channel 11.  Note 78.  Velocity 110
000025t:  Note off ::  Channel 11.  Note 73.  Velocity 0
000455t:  Note off ::  Channel 11.  Note 78.  Velocity 0
000000t:  Note on ::  Channel 11.  Note 76.  Velocity 110
003840t:  Note off ::  Channel 11.  Note 76.  Velocity 0
001440t:  Note on ::  Channel 11.  Note 78.  Velocity 110
000220t:  Note off ::  Channel 11.  Note 78.  Velocity 0
000013t:  Note on ::  Channel 11.  Note 81.  Velocity 110
000221t:  Note off ::  Channel 11.  Note 81.  Velocity 0
000026t:  Note on ::  Channel 11.  Note 83.  Velocity 110
000480t:  Note off ::  Channel 11.  Note 83.  Velocity 0
000000t:  Note on ::  Channel 11.  Note 81.  Velocity 110
000480t:  Note on ::  Channel 11.  Note 80.  Velocity 110
000025t:  Note off ::  Channel 11.  Note 81.  Velocity 0
000455t:  Note on ::  Channel 11.  Note 78.  Velocity 110
000025t:  Note off ::  Channel 11.  Note 80.  Velocity 0
000455t:  Note off ::  Channel 11.  Note 78.  Velocity 0
000000t:  Note on ::  Channel 11.  Note 76.  Velocity 110
001699t:  Note off ::  Channel 11.  Note 76.  Velocity 0
000221t:  Note on ::  Channel 11.  Note 73.  Velocity 70
001920t:  Note on ::  Channel 11.  Note 69.  Velocity 40
000012t:  Note off ::  Channel 11.  Note 73.  Velocity 0
001259t:  Note off ::  Channel 11.  Note 69.  Velocity 0
000169t:  Channel after-touch ::  Channel 11.  Channel 60.
000000t:  Key after-touch ::  Channel 11.  Note 60.  Velocity 60
000000t:  Note on ::  Channel 11.  Note 69.  Velocity 110
000194t:  Note off ::  Channel 11.  Note 69.  Velocity 0
000039t:  Note on ::  Channel 11.  Note 71.  Velocity 110
000195t:  Note off ::  Channel 11.  Note 71.  Velocity 0
000052t:  Note on ::  Channel 11.  Note 73.  Velocity 110
000908t:  Note off ::  Channel 11.  Note 73.  Velocity 0
000052t:  Note on ::  Channel 11.  Note 74.  Velocity 110
000233t:  Note on ::  Channel 11.  Note 73.  Velocity 110
000013t:  Note off ::  Channel 11.  Note 74.  Velocity 0
000208t:  Note off ::  Channel 11.  Note 73.  Velocity 0
000026t:  Note on ::  Channel 11.  Note 74.  Velocity 110
000220t:  Note off ::  Channel 11.  Note 74.  Velocity 0
000013t:  Note on ::  Channel 11.  Note 76.  Velocity 110
003062t:  Note off ::  Channel 11.  Note 76.  Velocity 0
000065t:  Note on ::  Channel 11.  Note 76.  Velocity 110
000103t:  Note off ::  Channel 11.  Note 76.  Velocity 0
000026t:  Note on ::  Channel 11.  Note 78.  Velocity 110
000571t:  Note off ::  Channel 11.  Note 78.  Velocity 0
000013t:  Note on ::  Channel 11.  Note 69.  Velocity 110
003074t:  Note off ::  Channel 11.  Note 69.  Velocity 0
000053t:  Note on ::  Channel 11.  Note 69.  Velocity 110
000480t:  Note off ::  Channel 11.  Note 69.  Velocity 0
000000t:  Note on ::  Channel 11.  Note 71.  Velocity 110
000233t:  Note off ::  Channel 11.  Note 71.  Velocity 0
000000t:  Note on ::  Channel 11.  Note 73.  Velocity 110
002452t:  Note off ::  Channel 11.  Note 73.  Velocity 0
003075t:  Channel after-touch ::  Channel 11.  Channel 60.
000000t:  Key after-touch ::  Channel 11.  Note 60.  Velocity 60
000000t:  Note on ::  Channel 11.  Note 69.  Velocity 110
000194t:  Note off ::  Channel 11.  Note 69.  Velocity 0
000039t:  Note on ::  Channel 11.  Note 71.  Velocity 110
000195t:  Note off ::  Channel 11.  Note 71.  Velocity 0
000052t:  Note on ::  Channel 11.  Note 73.  Velocity 110
000908t:  Note off ::  Channel 11.  Note 73.  Velocity 0
000052t:  Note on ::  Channel 11.  Note 74.  Velocity 110
000233t:  Note on ::  Channel 11.  Note 73.  Velocity 110
000013t:  Note off ::  Channel 11.  Note 74.  Velocity 0
000208t:  Note off ::  Channel 11.  Note 73.  Velocity 0
000026t:  Note on ::  Channel 11.  Note 74.  Velocity 110
000220t:  Note off ::  Channel 11.  Note 74.  Velocity 0
000013t:  Note on ::  Channel 11.  Note 76.  Velocity 110
003062t:  Note off ::  Channel 11.  Note 76.  Velocity 0
000065t:  Note on ::  Channel 11.  Note 76.  Velocity 110
000103t:  Note off ::  Channel 11.  Note 76.  Velocity 0
000026t:  Note on ::  Channel 11.  Note 78.  Velocity 110
000571t:  Note off ::  Channel 11.  Note 78.  Velocity 0
000013t:  Note on ::  Channel 11.  Note 69.  Velocity 110
003074t:  Note off ::  Channel 11.  Note 69.  Velocity 0
000053t:  Note on ::  Channel 11.  Note 69.  Velocity 110
000480t:  Note on ::  Channel 11.  Note 71.  Velocity 110
000051t:  Note off ::  Channel 11.  Note 69.  Velocity 0
000182t:  Note on ::  Channel 11.  Note 69.  Velocity 110
000065t:  Note off ::  Channel 11.  Note 71.  Velocity 0
001803t:  Note off ::  Channel 11.  Note 69.  Velocity 0
000000t:  Meta-event type $2f (End-track event) of length 0
Sigma t = 122581

Track chunk of 546 bytes
000000t:  Meta-event type $03 (Track name) of length 15
	           Melody
000000t:  Meta-event type $21 (?) of length 1
	  _
000000t:  Meta-event type $20 (?) of length 1
	  _
000000t:  Control change ::  Channel 12.  Controller 7.  Value: 64
000000t:  Control change ::  Channel 12.  Controller 10.  Value: 64
000000t:  Control change ::  Channel 12.  Controller 91.  Value: 126
000000t:  Program (patch) change ::  Channel 12.  Patch 78 (Whistle)
034080t:  Note on ::  Channel 12.  Note 69.  Velocity 110
000000t:  Key after-touch ::  Channel 12.  Note 60.  Velocity 60
000000t:  Channel after-touch ::  Channel 12.  Channel 60.
000194t:  Note off ::  Channel 12.  Note 69.  Velocity 0
000039t:  Note on ::  Channel 12.  Note 71.  Velocity 110
000195t:  Note off ::  Channel 12.  Note 71.  Velocity 0
000052t:  Note on ::  Channel 12.  Note 73.  Velocity 110
000908t:  Note off ::  Channel 12.  Note 73.  Velocity 0
000052t:  Note on ::  Channel 12.  Note 74.  Velocity 110
000233t:  Note on ::  Channel 12.  Note 73.  Velocity 110
000013t:  Note off ::  Channel 12.  Note 74.  Velocity 0
000208t:  Note off ::  Channel 12.  Note 73.  Velocity 0
000026t:  Note on ::  Channel 12.  Note 74.  Velocity 110
000220t:  Note off ::  Channel 12.  Note 74.  Velocity 0
000013t:  Note on ::  Channel 12.  Note 76.  Velocity 110
003062t:  Note off ::  Channel 12.  Note 76.  Velocity 0
000065t:  Note on ::  Channel 12.  Note 76.  Velocity 110
000103t:  Note off ::  Channel 12.  Note 76.  Velocity 0
000026t:  Note on ::  Channel 12.  Note 78.  Velocity 110
000571t:  Note off ::  Channel 12.  Note 78.  Velocity 0
000013t:  Note on ::  Channel 12.  Note 69.  Velocity 110
003074t:  Note off ::  Channel 12.  Note 69.  Velocity 0
000053t:  Note on ::  Channel 12.  Note 69.  Velocity 110
000480t:  Note off ::  Channel 12.  Note 69.  Velocity 0
000000t:  Note on ::  Channel 12.  Note 71.  Velocity 110
000233t:  Note off ::  Channel 12.  Note 71.  Velocity 0
000000t:  Note on ::  Channel 12.  Note 73.  Velocity 110
002452t:  Note off ::  Channel 12.  Note 73.  Velocity 0
003075t:  Channel after-touch ::  Channel 12.  Channel 60.
000000t:  Key after-touch ::  Channel 12.  Note 60.  Velocity 60
000000t:  Note on ::  Channel 12.  Note 69.  Velocity 110
000194t:  Note off ::  Channel 12.  Note 69.  Velocity 0
000039t:  Note on ::  Channel 12.  Note 71.  Velocity 110
000195t:  Note off ::  Channel 12.  Note 71.  Velocity 0
000052t:  Note on ::  Channel 12.  Note 73.  Velocity 110
000908t:  Note off ::  Channel 12.  Note 73.  Velocity 0
000052t:  Note on ::  Channel 12.  Note 74.  Velocity 110
000233t:  Note on ::  Channel 12.  Note 73.  Velocity 110
000013t:  Note off ::  Channel 12.  Note 74.  Velocity 0
000208t:  Note off ::  Channel 12.  Note 73.  Velocity 0
000026t:  Note on ::  Channel 12.  Note 74.  Velocity 110
000220t:  Note off ::  Channel 12.  Note 74.  Velocity 0
000013t:  Note on ::  Channel 12.  Note 76.  Velocity 110
003062t:  Note off ::  Channel 12.  Note 76.  Velocity 0
000065t:  Note on ::  Channel 12.  Note 76.  Velocity 110
000103t:  Note off ::  Channel 12.  Note 76.  Velocity 0
000026t:  Note on ::  Channel 12.  Note 78.  Velocity 110
000571t:  Note off ::  Channel 12.  Note 78.  Velocity 0
000013t:  Note on ::  Channel 12.  Note 69.  Velocity 110
003074t:  Note off ::  Channel 12.  Note 69.  Velocity 0
000053t:  Note on ::  Channel 12.  Note 69.  Velocity 110
000480t:  Note on ::  Channel 12.  Note 71.  Velocity 110
000051t:  Note off ::  Channel 12.  Note 69.  Velocity 0
000182t:  Note on ::  Channel 12.  Note 69.  Velocity 110
000065t:  Note off ::  Channel 12.  Note 71.  Velocity 0
001803t:  Note off ::  Channel 12.  Note 69.  Velocity 0
034379t:  Channel after-touch ::  Channel 12.  Channel 60.
000000t:  Key after-touch ::  Channel 12.  Note 60.  Velocity 60
000000t:  Note on ::  Channel 12.  Note 69.  Velocity 110
000194t:  Note off ::  Channel 12.  Note 69.  Velocity 0
000039t:  Note on ::  Channel 12.  Note 71.  Velocity 110
000195t:  Note off ::  Channel 12.  Note 71.  Velocity 0
000052t:  Note on ::  Channel 12.  Note 73.  Velocity 110
000908t:  Note off ::  Channel 12.  Note 73.  Velocity 0
000052t:  Note on ::  Channel 12.  Note 74.  Velocity 110
000233t:  Note on ::  Channel 12.  Note 73.  Velocity 110
000013t:  Note off ::  Channel 12.  Note 74.  Velocity 0
000208t:  Note off ::  Channel 12.  Note 73.  Velocity 0
000026t:  Note on ::  Channel 12.  Note 74.  Velocity 110
000220t:  Note off ::  Channel 12.  Note 74.  Velocity 0
000013t:  Note on ::  Channel 12.  Note 76.  Velocity 110
003062t:  Note off ::  Channel 12.  Note 76.  Velocity 0
000065t:  Note on ::  Channel 12.  Note 76.  Velocity 110
000103t:  Note off ::  Channel 12.  Note 76.  Velocity 0
000026t:  Note on ::  Channel 12.  Note 78.  Velocity 110
000571t:  Note off ::  Channel 12.  Note 78.  Velocity 0
000013t:  Note on ::  Channel 12.  Note 69.  Velocity 110
003074t:  Note off ::  Channel 12.  Note 69.  Velocity 0
000053t:  Note on ::  Channel 12.  Note 69.  Velocity 110
000480t:  Note off ::  Channel 12.  Note 69.  Velocity 0
000000t:  Note on ::  Channel 12.  Note 71.  Velocity 110
000233t:  Note off ::  Channel 12.  Note 71.  Velocity 0
000000t:  Note on ::  Channel 12.  Note 73.  Velocity 110
002452t:  Note off ::  Channel 12.  Note 73.  Velocity 0
003075t:  Channel after-touch ::  Channel 12.  Channel 60.
000000t:  Key after-touch ::  Channel 12.  Note 60.  Velocity 60
000000t:  Note on ::  Channel 12.  Note 69.  Velocity 110
000194t:  Note off ::  Channel 12.  Note 69.  Velocity 0
000039t:  Note on ::  Channel 12.  Note 71.  Velocity 110
000195t:  Note off ::  Channel 12.  Note 71.  Velocity 0
000052t:  Note on ::  Channel 12.  Note 73.  Velocity 110
000908t:  Note off ::  Channel 12.  Note 73.  Velocity 0
000052t:  Note on ::  Channel 12.  Note 74.  Velocity 110
000233t:  Note on ::  Channel 12.  Note 73.  Velocity 110
000013t:  Note off ::  Channel 12.  Note 74.  Velocity 0
000208t:  Note off ::  Channel 12.  Note 73.  Velocity 0
000026t:  Note on ::  Channel 12.  Note 74.  Velocity 110
000220t:  Note off ::  Channel 12.  Note 74.  Velocity 0
000013t:  Note on ::  Channel 12.  Note 76.  Velocity 110
003062t:  Note off ::  Channel 12.  Note 76.  Velocity 0
000065t:  Note on ::  Channel 12.  Note 76.  Velocity 110
000103t:  Note off ::  Channel 12.  Note 76.  Velocity 0
000026t:  Note on ::  Channel 12.  Note 78.  Velocity 110
000571t:  Note off ::  Channel 12.  Note 78.  Velocity 0
000013t:  Note on ::  Channel 12.  Note 69.  Velocity 110
003074t:  Note off ::  Channel 12.  Note 69.  Velocity 0
000053t:  Note on ::  Channel 12.  Note 69.  Velocity 110
000480t:  Note on ::  Channel 12.  Note 71.  Velocity 110
000051t:  Note off ::  Channel 12.  Note 69.  Velocity 0
000182t:  Note on ::  Channel 12.  Note 69.  Velocity 110
000065t:  Note off ::  Channel 12.  Note 71.  Velocity 0
001803t:  Note off ::  Channel 12.  Note 69.  Velocity 0
000000t:  Meta-event type $2f (End-track event) of length 0
Sigma t = 122581

Track chunk of 33 bytes
000000t:  Meta-event type $21 (?) of length 1
	  _
000000t:  Meta-event type $20 (?) of length 1
	  _
000000t:  Control change ::  Channel 13.  Controller 7.  Value: 99
000000t:  Control change ::  Channel 13.  Controller 10.  Value: 49
000000t:  Control change ::  Channel 13.  Controller 91.  Value: 126
000000t:  Control change ::  Channel 13.  Controller 64.  Value: 59
000000t:  Program (patch) change ::  Channel 13.  Patch 15 (Dulcimer)
000000t:  Meta-event type $2f (End-track event) of length 0
Sigma t = 0
End.
