File: battle-theme.mid
Format: 1
Tracks: 14
Ticks per quarter note: 192

Track chunk of 146 bytes
000000t:  Meta-event type $03 (Track name) of length 10
	  FF9 Battle
000000t:  Meta-event type $01 (Text event) of length 13
	  By JeffreyAtW
000000t:  Meta-event type $02 (Copyright text event) of length 30
	  Copyright © 2000 by JeffreyAtW
000000t:  Meta-event type $02 (Copyright text event) of length 30
	  Copyright © 2000 by JeffreyAtW
000000t:  Meta-event type $01 (Text event) of length 32
	  Generated by NoteWorthy Composer
000000t:  Meta-event type $51 (Set tempo) of length 3
	  _¸Ø
000000t:  Meta-event type $2f (End-track event) of length 0
Sigma t = 0

Track chunk of 108 bytes
000000t:  Meta-event type $21 (?) of length 1
	  _
000000t:  Meta-event type $03 (Track name) of length 12
	  Battle Theme
000000t:  Program (patch) change ::  Channel 0.  Patch 88 (Pad 1 (new age))
000000t:  Control change ::  Channel 0.  Controller 7.  Value: 127
000000t:  Control change ::  Channel 0.  Controller 10.  Value: 64
000000t:  Note on ::  Channel 0.  Note 50.  Velocity 110
000034t:  Note on ::  Channel 0.  Note 50.  Velocity 0
000002t:  Note on ::  Channel 0.  Note 56.  Velocity 110
000034t:  Note on ::  Channel 0.  Note 56.  Velocity 0
000002t:  Note on ::  Channel 0.  Note 59.  Velocity 110
000034t:  Note on ::  Channel 0.  Note 59.  Velocity 0
000002t:  Note on ::  Channel 0.  Note 62.  Velocity 110
000034t:  Note on ::  Channel 0.  Note 62.  Velocity 0
000002t:  Note on ::  Channel 0.  Note 68.  Velocity 110
000034t:  Note on ::  Channel 0.  Note 68.  Velocity 0
000002t:  Note on ::  Channel 0.  Note 71.  Velocity 110
000034t:  Note on ::  Channel 0.  Note 71.  Velocity 0
000002t:  Note on ::  Channel 0.  Note 74.  Velocity 110
000034t:  Note on ::  Channel 0.  Note 74.  Velocity 0
000002t:  Note on ::  Channel 0.  Note 80.  Velocity 110
000034t:  Note on ::  Channel 0.  Note 80.  Velocity 0
000002t:  Note on ::  Channel 0.  Note 83.  Velocity 110
000034t:  Note on ::  Channel 0.  Note 83.  Velocity 0
000000t:  Meta-event type $2f (End-track event) of length 0
Sigma t = 322

Track chunk of 11786 bytes
000000t:  Meta-event type $21 (?) of length 1
	  _
000000t:  Meta-event type $03 (Track name) of length 15
	  Final Fantasy 9
000000t:  Program (patch) change ::  Channel 1.  Patch 30 (Distortion Guitar)
000000t:  Control change ::  Channel 1.  Controller 7.  Value: 127
000000t:  Control change ::  Channel 1.  Controller 10.  Value: 64
000288t:  Note on ::  Channel 1.  Note 21.  Velocity 110
000000t:  Note on ::  Channel 1.  Note 33.  Velocity 110
000000t:  Note on ::  Channel 1.  Note 45.  Velocity 110
000094t:  Note on ::  Channel 1.  Note 21.  Velocity 0
000000t:  Note on ::  Channel 1.  Note 33.  Velocity 0
000000t:  Note on ::  Channel 1.  Note 45.  Velocity 0
000002t:  Note on ::  Channel 1.  Note 21.  Velocity 110
000000t:  Note on ::  Channel 1.  Note 33.  Velocity 110
000000t:  Note on ::  Channel 1.  Note 45.  Velocity 110
000094t:  Note on ::  Channel 1.  Note 21.  Velocity 0
000000t:  Note on ::  Channel 1.  Note 33.  Velocity 0
000000t:  Note on ::  Channel 1.  Note 45.  Velocity 0
000002t:  Note on ::  Channel 1.  Note 21.  Velocity 110
000000t:  Note on ::  Channel 1.  Note 33.  Velocity 110
000000t:  Note on ::  Channel 1.  Note 45.  Velocity 110
000094t:  Note on ::  Channel 1.  Note 21.  Velocity 0
000000t:  Note on ::  Channel 1.  Note 33.  Velocity 0
000000t:  Note on ::  Channel 1.  Note 45.  Velocity 0
000002t:  Note on ::  Channel 1.  Note 21.  Velocity 110
000000t:  Note on ::  Channel 1.  Note 33.  Velocity 110
000000t:  Note on ::  Channel 1.  Note 45.  Velocity 110
000094t:  Note on ::  Channel 1.  Note 21.  Velocity 0
000000t:  Note on ::  Channel 1.  Note 33.  Velocity 0
000000t:  Note on ::  Channel 1.  Note 45.  Velocity 0
000002t:  Note on ::  Channel 1.  Note 21.  Velocity 110
000000t:  Note on ::  Channel 1.  Note 33.  Velocity 110
000000t:  Note on ::  Channel 1.  Note 45.  Velocity 110
000094t:  Note on ::  Channel 1.  Note 21.  Velocity 0
000000t:  Note on ::  Channel 1.  Note 33.  Velocity 0
000000t:  Note on ::  Channel 1.  Note 45.  Velocity 0
000002t:  Note on ::  Channel 1.  Note 21.  Velocity 110
000000t:  Note on ::  Channel 1.  Note 33.  Velocity 110
000000t:  Note on ::  Channel 1.  Note 45.  Velocity 110
000094t:  Note on ::  Channel 1.  Note 21.  Velocity 0
000000t:  Note on ::  Channel 1.  Note 33.  Velocity 0
000000t:  Note on ::  Channel 1.  Note 45.  Velocity 0
000002t:  Note on ::  Channel 1.  Note 19.  Velocity 110
000000t:  Note on ::  Channel 1.  Note 31.  Velocity 110
000000t:  Note on ::  Channel 1.  Note 43.  Velocity 110
000094t:  Note on ::  Channel 1.  Note 19.  Velocity 0
000000t:  Note on ::  Channel 1.  Note 31.  Velocity 0
000000t:  Note on ::  Channel 1.  Note 43.  Velocity 0
000002t:  Note on ::  Channel 1.  Note 19.  Velocity 110
000000t:  Note on ::  Channel 1.  Note 31.  Velocity 110
000000t:  Note on ::  Channel 1.  Note 43.  Velocity 110
000094t:  Note on ::  Channel 1.  Note 19.  Velocity 0
000000t:  Note on ::  Channel 1.  Note 31.  Velocity 0
000000t:  Note on ::  Channel 1.  Note 43.  Velocity 0
000002t:  Note on ::  Channel 1.  Note 21.  Velocity 110
000000t:  Note on ::  Channel 1.  Note 33.  Velocity 110
000000t:  Note on ::  Channel 1.  Note 45.  Velocity 110
000094t:  Note on ::  Channel 1.  Note 21.  Velocity 0
000000t:  Note on ::  Channel 1.  Note 33.  Velocity 0
000000t:  Note on ::  Channel 1.  Note 45.  Velocity 0
000002t:  Note on ::  Channel 1.  Note 21.  Velocity 110
000000t:  Note on ::  Channel 1.  Note 33.  Velocity 110
000000t:  Note on ::  Channel 1.  Note 45.  Velocity 110
000094t:  Note on ::  Channel 1.  Note 21.  Velocity 0
000000t:  Note on ::  Channel 1.  Note 33.  Velocity 0
000000t:  Note on ::  Channel 1.  Note 45.  Velocity 0
000002t:  Note on ::  Channel 1.  Note 21.  Velocity 110
000000t:  Note on ::  Channel 1.  Note 33.  Velocity 110
000000t:  Note on ::  Channel 1.  Note 45.  Velocity 110
000094t:  Note on ::  Channel 1.  Note 21.  Velocity 0
000000t:  Note on ::  Channel 1.  Note 33.  Velocity 0
000000t:  Note on ::  Channel 1.  Note 45.  Velocity 0
000002t:  Note on ::  Channel 1.  Note 21.  Velocity 110
000000t:  Note on ::  Channel 1.  Note 33.  Velocity 110
000000t:  Note on ::  Channel 1.  Note 45.  Velocity 110
000094t:  Note on ::  Channel 1.  Note 21.  Velocity 0
000000t:  Note on ::  Channel 1.  Note 33.  Velocity 0
000000t:  Note on ::  Channel 1.  Note 45.  Velocity 0
000002t:  Note on ::  Channel 1.  Note 21.  Velocity 110
000000t:  Note on ::  Channel 1.  Note 33.  Velocity 110
000000t:  Note on ::  Channel 1.  Note 45.  Velocity 110
000094t:  Note on ::  Channel 1.  Note 21.  Velocity 0
000000t:  Note on ::  Channel 1.  Note 33.  Velocity 0
000000t:  Note on ::  Channel 1.  Note 45.  Velocity 0
000002t:  Note on ::  Channel 1.  Note 21.  Velocity 110
000000t:  Note on ::  Channel 1.  Note 33.  Velocity 110
000000t:  Note on ::  Channel 1.  Note 45.  Velocity 110
000094t:  Note on ::  Channel 1.  Note 21.  Velocity 0
000000t:  Note on ::  Channel 1.  Note 33.  Velocity 0
000000t:  Note on ::  Channel 1.  Note 45.  Velocity 0
000002t:  Note on ::  Channel 1.  Note 19.  Velocity 110
000000t:  Note on ::  Channel 1.  Note 31.  Velocity 110
000000t:  Note on ::  Channel 1.  Note 43.  Velocity 110
000094t:  Note on ::  Channel 1.  Note 19.  Velocity 0
000000t:  Note on ::  Channel 1.  Note 31.  Velocity 0
000000t:  Note on ::  Channel 1.  Note 43.  Velocity 0
000002t:  Note on ::  Channel 1.  Note 19.  Velocity 110
000000t:  Note on ::  Channel 1.  Note 31.  Velocity 110
000000t:  Note on ::  Channel 1.  Note 43.  Velocity 110
000094t:  Note on ::  Channel 1.  Note 19.  Velocity 0
000000t:  Note on ::  Channel 1.  Note 31.  Velocity 0
000000t:  Note on ::  Channel 1.  Note 43.  Velocity 0
000002t:  Note on ::  Channel 1.  Note 21.  Velocity 110
000000t:  Note on ::  Channel 1.  Note 33.  Velocity 110
000000t:  Note on ::  Channel 1.  Note 45.  Velocity 110
000094t:  Note on ::  Channel 1.  Note 21.  Velocity 0
000000t:  Note on ::  Channel 1.  Note 33.  Velocity 0
000000t:  Note on ::  Channel 1.  Note 45.  Velocity 0
000002t:  Note on ::  Channel 1.  Note 21.  Velocity 110
000000t:  Note on ::  Channel 1.  Note 33.  Velocity 110
000000t:  Note on ::  Channel 1.  Note 45.  Velocity 110
000094t:  Note on ::  Channel 1.  Note 21.  Velocity 0
000000t:  Note on ::  Channel 1.  Note 33.  Velocity 0
000000t:  Note on ::  Channel 1.  Note 45.  Velocity 0
000002t:  Note on ::  Channel 1.  Note 21.  Velocity 110
000000t:  Note on ::  Channel 1.  Note 33.  Velocity 110
000000t:  Note on ::  Channel 1.  Note 45.  Velocity 110
000094t:  Note on ::  Channel 1.  Note 21.  Velocity 0
000000t:  Note on ::  Channel 1.  Note 33.  Velocity 0
000000t:  Note on ::  Channel 1.  Note 45.  Velocity 0
000002t:  Note on ::  Channel 1.  Note 21.  Velocity 110
000000t:  Note on ::  Channel 1.  Note 33.  Velocity 110
000000t:  Note on ::  Channel 1.  Note 45.  Velocity 110
000094t:  Note on ::  Channel 1.  Note 21.  Velocity 0
000000t:  Note on ::  Channel 1.  Note 33.  Velocity 0
000000t:  Note on ::  Channel 1.  Note 45.  Velocity 0
000002t:  Note on ::  Channel 1.  Note 21.  Velocity 110
000000t:  Note on ::  Channel 1.  Note 33.  Velocity 110
000000t:  Note on ::  Channel 1.  Note 45.  Velocity 110
000094t:  Note on ::  Channel 1.  Note 21.  Velocity 0
000000t:  Note on ::  Channel 1.  Note 33.  Velocity 0
000000t:  Note on ::  Channel 1.  Note 45.  Velocity 0
000002t:  Note on ::  Channel 1.  Note 21.  Velocity 110
000000t:  Note on ::  Channel 1.  Note 33.  Velocity 110
000000t:  Note on ::  Channel 1.  Note 45.  Velocity 110
000094t:  Note on ::  Channel 1.  Note 21.  Velocity 0
000000t:  Note on ::  Channel 1.  Note 33.  Velocity 0
000000t:  Note on ::  Channel 1.  Note 45.  Velocity 0
000002t:  Note on ::  Channel 1.  Note 19.  Velocity 110
000000t:  Note on ::  Channel 1.  Note 31.  Velocity 110
000000t:  Note on ::  Channel 1.  Note 43.  Velocity 110
000094t:  Note on ::  Channel 1.  Note 19.  Velocity 0
000000t:  Note on ::  Channel 1.  Note 31.  Velocity 0
000000t:  Note on ::  Channel 1.  Note 43.  Velocity 0
000002t:  Note on ::  Channel 1.  Note 19.  Velocity 110
000000t:  Note on ::  Channel 1.  Note 31.  Velocity 110
000000t:  Note on ::  Channel 1.  Note 43.  Velocity 110
000094t:  Note on ::  Channel 1.  Note 19.  Velocity 0
000000t:  Note on ::  Channel 1.  Note 31.  Velocity 0
000000t:  Note on ::  Channel 1.  Note 43.  Velocity 0
000002t:  Note on ::  Channel 1.  Note 21.  Velocity 110
000000t:  Note on ::  Channel 1.  Note 33.  Velocity 110
000000t:  Note on ::  Channel 1.  Note 45.  Velocity 110
000094t:  Note on ::  Channel 1.  Note 21.  Velocity 0
000000t:  Note on ::  Channel 1.  Note 33.  Velocity 0
000000t:  Note on ::  Channel 1.  Note 45.  Velocity 0
000002t:  Note on ::  Channel 1.  Note 21.  Velocity 110
000000t:  Note on ::  Channel 1.  Note 33.  Velocity 110
000000t:  Note on ::  Channel 1.  Note 45.  Velocity 110
000094t:  Note on ::  Channel 1.  Note 21.  Velocity 0
000000t:  Note on ::  Channel 1.  Note 33.  Velocity 0
000000t:  Note on ::  Channel 1.  Note 45.  Velocity 0
000002t:  Note on ::  Channel 1.  Note 21.  Velocity 110
000000t:  Note on ::  Channel 1.  Note 33.  Velocity 110
000000t:  Note on ::  Channel 1.  Note 45.  Velocity 110
000094t:  Note on ::  Channel 1.  Note 21.  Velocity 0
000000t:  Note on ::  Channel 1.  Note 33.  Velocity 0
000000t:  Note on ::  Channel 1.  Note 45.  Velocity 0
000002t:  Note on ::  Channel 1.  Note 21.  Velocity 110
000000t:  Note on ::  Channel 1.  Note 33.  Velocity 110
000000t:  Note on ::  Channel 1.  Note 45.  Velocity 110
000094t:  Note on ::  Channel 1.  Note 21.  Velocity 0
000000t:  Note on ::  Channel 1.  Note 33.  Velocity 0
000000t:  Note on ::  Channel 1.  Note 45.  Velocity 0
000002t:  Note on ::  Channel 1.  Note 21.  Velocity 110
000000t:  Note on ::  Channel 1.  Note 33.  Velocity 110
000000t:  Note on ::  Channel 1.  Note 45.  Velocity 110
000094t:  Note on ::  Channel 1.  Note 21.  Velocity 0
000000t:  Note on ::  Channel 1.  Note 33.  Velocity 0
000000t:  Note on ::  Channel 1.  Note 45.  Velocity 0
000002t:  Note on ::  Channel 1.  Note 21.  Velocity 110
000000t:  Note on ::  Channel 1.  Note 33.  Velocity 110
000000t:  Note on ::  Channel 1.  Note 45.  Velocity 110
000094t:  Note on ::  Channel 1.  Note 21.  Velocity 0
000000t:  Note on ::  Channel 1.  Note 33.  Velocity 0
000000t:  Note on ::  Channel 1.  Note 45.  Velocity 0
000002t:  Note on ::  Channel 1.  Note 19.  Velocity 110
000000t:  Note on ::  Channel 1.  Note 31.  Velocity 110
000000t:  Note on ::  Channel 1.  Note 43.  Velocity 110
000094t:  Note on ::  Channel 1.  Note 19.  Velocity 0
000000t:  Note on ::  Channel 1.  Note 31.  Velocity 0
000000t:  Note on ::  Channel 1.  Note 43.  Velocity 0
000002t:  Note on ::  Channel 1.  Note 19.  Velocity 110
000000t:  Note on ::  Channel 1.  Note 31.  Velocity 110
000000t:  Note on ::  Channel 1.  Note 43.  Velocity 110
000094t:  Note on ::  Channel 1.  Note 19.  Velocity 0
000000t:  Note on ::  Channel 1.  Note 31.  Velocity 0
000000t:  Note on ::  Channel 1.  Note 43.  Velocity 0
000002t:  Note on ::  Channel 1.  Note 21.  Velocity 110
000000t:  Note on ::  Channel 1.  Note 33.  Velocity 110
000000t:  Note on ::  Channel 1.  Note 45.  Velocity 110
000094t:  Note on ::  Channel 1.  Note 21.  Velocity 0
000000t:  Note on ::  Channel 1.  Note 33.  Velocity 0
000000t:  Note on ::  Channel 1.  Note 45.  Velocity 0
000002t:  Note on ::  Channel 1.  Note 21.  Velocity 110
000000t:  Note on ::  Channel 1.  Note 33.  Velocity 110
000000t:  Note on ::  Channel 1.  Note 45.  Velocity 110
000094t:  Note on ::  Channel 1.  Note 21.  Velocity 0
000000t:  Note on ::  Channel 1.  Note 33.  Velocity 0
000000t:  Note on ::  Channel 1.  Note 45.  Velocity 0
000002t:  Note on ::  Channel 1.  Note 21.  Velocity 110
000000t:  Note on ::  Channel 1.  Note 33.  Velocity 110
000000t:  Note on ::  Channel 1.  Note 45.  Velocity 110
000094t:  Note on ::  Channel 1.  Note 21.  Velocity 0
000000t:  Note on ::  Channel 1.  Note 33.  Velocity 0
000000t:  Note on ::  Channel 1.  Note 45.  Velocity 0
000002t:  Note on ::  Channel 1.  Note 21.  Velocity 110
000000t:  Note on ::  Channel 1.  Note 33.  Velocity 110
000000t:  Note on ::  Channel 1.  Note 45.  Velocity 110
000094t:  Note on ::  Channel 1.  Note 21.  Velocity 0
000000t:  Note on ::  Channel 1.  Note 33.  Velocity 0
000000t:  Note on ::  Channel 1.  Note 45.  Velocity 0
000002t:  Note on ::  Channel 1.  Note 21.  Velocity 110
000000t:  Note on ::  Channel 1.  Note 33.  Velocity 110
000000t:  Note on ::  Channel 1.  Note 45.  Velocity 110
000094t:  Note on ::  Channel 1.  Note 21.  Velocity 0
000000t:  Note on ::  Channel 1.  Note 33.  Velocity 0
000000t:  Note on ::  Channel 1.  Note 45.  Velocity 0
000002t:  Note on ::  Channel 1.  Note 21.  Velocity 110
000000t:  Note on ::  Channel 1.  Note 33.  Velocity 110
000000t:  Note on ::  Channel 1.  Note 45.  Velocity 110
000094t:  Note on ::  Channel 1.  Note 21.  Velocity 0
000000t:  Note on ::  Channel 1.  Note 33.  Velocity 0
000000t:  Note on ::  Channel 1.  Note 45.  Velocity 0
000002t:  Note on ::  Channel 1.  Note 19.  Velocity 110
000000t:  Note on ::  Channel 1.  Note 31.  Velocity 110
000000t:  Note on ::  Channel 1.  Note 43.  Velocity 110
000094t:  Note on ::  Channel 1.  Note 19.  Velocity 0
000000t:  Note on ::  Channel 1.  Note 31.  Velocity 0
000000t:  Note on ::  Channel 1.  Note 43.  Velocity 0
000002t:  Note on ::  Channel 1.  Note 19.  Velocity 110
000000t:  Note on ::  Channel 1.  Note 31.  Velocity 110
000000t:  Note on ::  Channel 1.  Note 43.  Velocity 110
000094t:  Note on ::  Channel 1.  Note 19.  Velocity 0
000000t:  Note on ::  Channel 1.  Note 31.  Velocity 0
000000t:  Note on ::  Channel 1.  Note 43.  Velocity 0
000002t:  Note on ::  Channel 1.  Note 21.  Velocity 110
000000t:  Note on ::  Channel 1.  Note 33.  Velocity 110
000000t:  Note on ::  Channel 1.  Note 45.  Velocity 110
000094t:  Note on ::  Channel 1.  Note 21.  Velocity 0
000000t:  Note on ::  Channel 1.  Note 33.  Velocity 0
000000t:  Note on ::  Channel 1.  Note 45.  Velocity 0
000002t:  Note on ::  Channel 1.  Note 21.  Velocity 110
000000t:  Note on ::  Channel 1.  Note 33.  Velocity 110
000000t:  Note on ::  Channel 1.  Note 45.  Velocity 110
000094t:  Note on ::  Channel 1.  Note 21.  Velocity 0
000000t:  Note on ::  Channel 1.  Note 33.  Velocity 0
000000t:  Note on ::  Channel 1.  Note 45.  Velocity 0
000002t:  Note on ::  Channel 1.  Note 21.  Velocity 110
000000t:  Note on ::  Channel 1.  Note 33.  Velocity 110
000000t:  Note on ::  Channel 1.  Note 45.  Velocity 110
000094t:  Note on ::  Channel 1.  Note 21.  Velocity 0
000000t:  Note on ::  Channel 1.  Note 33.  Velocity 0
000000t:  Note on ::  Channel 1.  Note 45.  Velocity 0
000002t:  Note on ::  Channel 1.  Note 21.  Velocity 110
000000t:  Note on ::  Channel 1.  Note 33.  Velocity 110
000000t:  Note on ::  Channel 1.  Note 45.  Velocity 110
000094t:  Note on ::  Channel 1.  Note 21.  Velocity 0
000000t:  Note on ::  Channel 1.  Note 33.  Velocity 0
000000t:  Note on ::  Channel 1.  Note 45.  Velocity 0
000002t:  Note on ::  Channel 1.  Note 21.  Velocity 110
000000t:  Note on ::  Channel 1.  Note 33.  Velocity 110
000000t:  Note on ::  Channel 1.  Note 45.  Velocity 110
000094t:  Note on ::  Channel 1.  Note 21.  Velocity 0
000000t:  Note on ::  Channel 1.  Note 33.  Velocity 0
000000t:  Note on ::  Channel 1.  Note 45.  Velocity 0
000002t:  Note on ::  Channel 1.  Note 21.  Velocity 110
000000t:  Note on ::  Channel 1.  Note 33.  Velocity 110
000000t:  Note on ::  Channel 1.  Note 45.  Velocity 110
000094t:  Note on ::  Channel 1.  Note 21.  Velocity 0
000000t:  Note on ::  Channel 1.  Note 33.  Velocity 0
000000t:  Note on ::  Channel 1.  Note 45.  Velocity 0
000002t:  Note on ::  Channel 1.  Note 19.  Velocity 110
000000t:  Note on ::  Channel 1.  Note 31.  Velocity 110
000000t:  Note on ::  Channel 1.  Note 43.  Velocity 110
000094t:  Note on ::  Channel 1.  Note 19.  Velocity 0
000000t:  Note on ::  Channel 1.  Note 31.  Velocity 0
000000t:  Note on ::  Channel 1.  Note 43.  Velocity 0
000002t:  Note on ::  Channel 1.  Note 19.  Velocity 110
000000t:  Note on ::  Channel 1.  Note 31.  Velocity 110
000000t:  Note on ::  Channel 1.  Note 43.  Velocity 110
000094t:  Note on ::  Channel 1.  Note 19.  Velocity 0
000000t:  Note on ::  Channel 1.  Note 31.  Velocity 0
000000t:  Note on ::  Channel 1.  Note 43.  Velocity 0
000002t:  Note on ::  Channel 1.  Note 17.  Velocity 110
000000t:  Note on ::  Channel 1.  Note 29.  Velocity 110
000000t:  Note on ::  Channel 1.  Note 41.  Velocity 110
001344t:  Note on ::  Channel 1.  Note 17.  Velocity 0
000000t:  Note on ::  Channel 1.  Note 29.  Velocity 0
000000t:  Note on ::  Channel 1.  Note 41.  Velocity 0
000000t:  Note on ::  Channel 1.  Note 19.  Velocity 110
000000t:  Note on ::  Channel 1.  Note 31.  Velocity 110
000000t:  Note on ::  Channel 1.  Note 43.  Velocity 110
001536t:  Note on ::  Channel 1.  Note 19.  Velocity 0
000000t:  Note on ::  Channel 1.  Note 31.  Velocity 0
000000t:  Note on ::  Channel 1.  Note 43.  Velocity 0
000000t:  Note on ::  Channel 1.  Note 21.  Velocity 110
000000t:  Note on ::  Channel 1.  Note 33.  Velocity 110
000000t:  Note on ::  Channel 1.  Note 45.  Velocity 110
000094t:  Note on ::  Channel 1.  Note 21.  Velocity 0
000000t:  Note on ::  Channel 1.  Note 33.  Velocity 0
000000t:  Note on ::  Channel 1.  Note 45.  Velocity 0
000002t:  Note on ::  Channel 1.  Note 21.  Velocity 110
000000t:  Note on ::  Channel 1.  Note 33.  Velocity 110
000000t:  Note on ::  Channel 1.  Note 45.  Velocity 110
000094t:  Note on ::  Channel 1.  Note 21.  Velocity 0
000000t:  Note on ::  Channel 1.  Note 33.  Velocity 0
000000t:  Note on ::  Channel 1.  Note 45.  Velocity 0
000002t:  Note on ::  Channel 1.  Note 21.  Velocity 110
000000t:  Note on ::  Channel 1.  Note 33.  Velocity 110
000000t:  Note on ::  Channel 1.  Note 45.  Velocity 110
000094t:  Note on ::  Channel 1.  Note 21.  Velocity 0
000000t:  Note on ::  Channel 1.  Note 33.  Velocity 0
000000t:  Note on ::  Channel 1.  Note 45.  Velocity 0
000002t:  Note on ::  Channel 1.  Note 21.  Velocity 110
000000t:  Note on ::  Channel 1.  Note 33.  Velocity 110
000000t:  Note on ::  Channel 1.  Note 45.  Velocity 110
000094t:  Note on ::  Channel 1.  Note 21.  Velocity 0
000000t:  Note on ::  Channel 1.  Note 33.  Velocity 0
000000t:  Note on ::  Channel 1.  Note 45.  Velocity 0
000002t:  Note on ::  Channel 1.  Note 21.  Velocity 110
000000t:  Note on ::  Channel 1.  Note 33.  Velocity 110
000000t:  Note on ::  Channel 1.  Note 45.  Velocity 110
000094t:  Note on ::  Channel 1.  Note 21.  Velocity 0
000000t:  Note on ::  Channel 1.  Note 33.  Velocity 0
000000t:  Note on ::  Channel 1.  Note 45.  Velocity 0
000002t:  Note on ::  Channel 1.  Note 21.  Velocity 110
000000t:  Note on ::  Channel 1.  Note 33.  Velocity 110
000000t:  Note on ::  Channel 1.  Note 45.  Velocity 110
000094t:  Note on ::  Channel 1.  Note 21.  Velocity 0
000000t:  Note on ::  Channel 1.  Note 33.  Velocity 0
000000t:  Note on ::  Channel 1.  Note 45.  Velocity 0
000002t:  Note on ::  Channel 1.  Note 19.  Velocity 110
000000t:  Note on ::  Channel 1.  Note 31.  Velocity 110
000000t:  Note on ::  Channel 1.  Note 43.  Velocity 110
000094t:  Note on ::  Channel 1.  Note 19.  Velocity 0
000000t:  Note on ::  Channel 1.  Note 31.  Velocity 0
000000t:  Note on ::  Channel 1.  Note 43.  Velocity 0
000002t:  Note on ::  Channel 1.  Note 19.  Velocity 110
000000t:  Note on ::  Channel 1.  Note 31.  Velocity 110
000000t:  Note on ::  Channel 1.  Note 43.  Velocity 110
000094t:  Note on ::  Channel 1.  Note 19.  Velocity 0
000000t:  Note on ::  Channel 1.  Note 31.  Velocity 0
000000t:  Note on ::  Channel 1.  Note 43.  Velocity 0
000002t:  Note on ::  Channel 1.  Note 21.  Velocity 110
000000t:  Note on ::  Channel 1.  Note 33.  Velocity 110
000000t:  Note on ::  Channel 1.  Note 45.  Velocity 110
000094t:  Note on ::  Channel 1.  Note 21.  Velocity 0
000000t:  Note on ::  Channel 1.  Note 33.  Velocity 0
000000t:  Note on ::  Channel 1.  Note 45.  Velocity 0
000002t:  Note on ::  Channel 1.  Note 21.  Velocity 110
000000t:  Note on ::  Channel 1.  Note 33.  Velocity 110
000000t:  Note on ::  Channel 1.  Note 45.  Velocity 110
000094t:  Note on ::  Channel 1.  Note 21.  Velocity 0
000000t:  Note on ::  Channel 1.  Note 33.  Velocity 0
000000t:  Note on ::  Channel 1.  Note 45.  Velocity 0
000002t:  Note on ::  Channel 1.  Note 21.  Velocity 110
000000t:  Note on ::  Channel 1.  Note 33.  Velocity 110
000000t:  Note on ::  Channel 1.  Note 45.  Velocity 110
000094t:  Note on ::  Channel 1.  Note 21.  Velocity 0
000000t:  Note on ::  Channel 1.  Note 33.  Velocity 0
000000t:  Note on ::  Channel 1.  Note 45.  Velocity 0
000002t:  Note on ::  Channel 1.  Note 21.  Velocity 110
000000t:  Note on ::  Channel 1.  Note 33.  Velocity 110
000000t:  Note on ::  Channel 1.  Note 45.  Velocity 110
000094t:  Note on ::  Channel 1.  Note 21.  Velocity 0
000000t:  Note on ::  Channel 1.  Note 33.  Velocity 0
000000t:  Note on ::  Channel 1.  Note 45.  Velocity 0
000002t:  Note on ::  Channel 1.  Note 21.  Velocity 110
000000t:  Note on ::  Channel 1.  Note 33.  Velocity 110
000000t:  Note on ::  Channel 1.  Note 45.  Velocity 110
000094t:  Note on ::  Channel 1.  Note 21.  Velocity 0
000000t:  Note on ::  Channel 1.  Note 33.  Velocity 0
000000t:  Note on ::  Channel 1.  Note 45.  Velocity 0
000002t:  Note on ::  Channel 1.  Note 21.  Velocity 110
000000t:  Note on ::  Channel 1.  Note 33.  Velocity 110
000000t:  Note on ::  Channel 1.  Note 45.  Velocity 110
000094t:  Note on ::  Channel 1.  Note 21.  Velocity 0
000000t:  Note on ::  Channel 1.  Note 33.  Velocity 0
000000t:  Note on ::  Channel 1.  Note 45.  Velocity 0
000002t:  Note on ::  Channel 1.  Note 19.  Velocity 110
000000t:  Note on ::  Channel 1.  Note 31.  Velocity 110
000000t:  Note on ::  Channel 1.  Note 43.  Velocity 110
000094t:  Note on ::  Channel 1.  Note 19.  Velocity 0
000000t:  Note on ::  Channel 1.  Note 31.  Velocity 0
000000t:  Note on ::  Channel 1.  Note 43.  Velocity 0
000002t:  Note on ::  Channel 1.  Note 19.  Velocity 110
000000t:  Note on ::  Channel 1.  Note 31.  Velocity 110
000000t:  Note on ::  Channel 1.  Note 43.  Velocity 110
000094t:  Note on ::  Channel 1.  Note 19.  Velocity 0
000000t:  Note on ::  Channel 1.  Note 31.  Velocity 0
000000t:  Note on ::  Channel 1.  Note 43.  Velocity 0
000002t:  Note on ::  Channel 1.  Note 21.  Velocity 110
000000t:  Note on ::  Channel 1.  Note 33.  Velocity 110
000000t:  Note on ::  Channel 1.  Note 45.  Velocity 110
000094t:  Note on ::  Channel 1.  Note 21.  Velocity 0
000000t:  Note on ::  Channel 1.  Note 33.  Velocity 0
000000t:  Note on ::  Channel 1.  Note 45.  Velocity 0
000002t:  Note on ::  Channel 1.  Note 21.  Velocity 110
000000t:  Note on ::  Channel 1.  Note 33.  Velocity 110
000000t:  Note on ::  Channel 1.  Note 45.  Velocity 110
000094t:  Note on ::  Channel 1.  Note 21.  Velocity 0
000000t:  Note on ::  Channel 1.  Note 33.  Velocity 0
000000t:  Note on ::  Channel 1.  Note 45.  Velocity 0
000002t:  Note on ::  Channel 1.  Note 21.  Velocity 110
000000t:  Note on ::  Channel 1.  Note 33.  Velocity 110
000000t:  Note on ::  Channel 1.  Note 45.  Velocity 110
000094t:  Note on ::  Channel 1.  Note 21.  Velocity 0
000000t:  Note on ::  Channel 1.  Note 33.  Velocity 0
000000t:  Note on ::  Channel 1.  Note 45.  Velocity 0
000002t:  Note on ::  Channel 1.  Note 21.  Velocity 110
000000t:  Note on ::  Channel 1.  Note 33.  Velocity 110
000000t:  Note on ::  Channel 1.  Note 45.  Velocity 110
000094t:  Note on ::  Channel 1.  Note 21.  Velocity 0
000000t:  Note on ::  Channel 1.  Note 33.  Velocity 0
000000t:  Note on ::  Channel 1.  Note 45.  Velocity 0
000002t:  Note on ::  Channel 1.  Note 21.  Velocity 110
000000t:  Note on ::  Channel 1.  Note 33.  Velocity 110
000000t:  Note on ::  Channel 1.  Note 45.  Velocity 110
000094t:  Note on ::  Channel 1.  Note 21.  Velocity 0
000000t:  Note on ::  Channel 1.  Note 33.  Velocity 0
000000t:  Note on ::  Channel 1.  Note 45.  Velocity 0
000002t:  Note on ::  Channel 1.  Note 21.  Velocity 110
000000t:  Note on ::  Channel 1.  Note 33.  Velocity 110
000000t:  Note on ::  Channel 1.  Note 45.  Velocity 110
000094t:  Note on ::  Channel 1.  Note 21.  Velocity 0
000000t:  Note on ::  Channel 1.  Note 33.  Velocity 0
000000t:  Note on ::  Channel 1.  Note 45.  Velocity 0
000002t:  Note on ::  Channel 1.  Note 19.  Velocity 110
000000t:  Note on ::  Channel 1.  Note 31.  Velocity 110
000000t:  Note on ::  Channel 1.  Note 43.  Velocity 110
000094t:  Note on ::  Channel 1.  Note 19.  Velocity 0
000000t:  Note on ::  Channel 1.  Note 31.  Velocity 0
000000t:  Note on ::  Channel 1.  Note 43.  Velocity 0
000002t:  Note on ::  Channel 1.  Note 19.  Velocity 110
000000t:  Note on ::  Channel 1.  Note 31.  Velocity 110
000000t:  Note on ::  Channel 1.  Note 43.  Velocity 110
000094t:  Note on ::  Channel 1.  Note 19.  Velocity 0
000000t:  Note on ::  Channel 1.  Note 31.  Velocity 0
000000t:  Note on ::  Channel 1.  Note 43.  Velocity 0
000002t:  Note on ::  Channel 1.  Note 21.  Velocity 110
000000t:  Note on ::  Channel 1.  Note 33.  Velocity 110
000000t:  Note on ::  Channel 1.  Note 45.  Velocity 110
000094t:  Note on ::  Channel 1.  Note 21.  Velocity 0
000000t:  Note on ::  Channel 1.  Note 33.  Velocity 0
000000t:  Note on ::  Channel 1.  Note 45.  Velocity 0
000002t:  Note on ::  Channel 1.  Note 21.  Velocity 110
000000t:  Note on ::  Channel 1.  Note 33.  Velocity 110
000000t:  Note on ::  Channel 1.  Note 45.  Velocity 110
000094t:  Note on ::  Channel 1.  Note 21.  Velocity 0
000000t:  Note on ::  Channel 1.  Note 33.  Velocity 0
000000t:  Note on ::  Channel 1.  Note 45.  Velocity 0
000002t:  Note on ::  Channel 1.  Note 21.  Velocity 110
000000t:  Note on ::  Channel 1.  Note 33.  Velocity 110
000000t:  Note on ::  Channel 1.  Note 45.  Velocity 110
000094t:  Note on ::  Channel 1.  Note 21.  Velocity 0
000000t:  Note on ::  Channel 1.  Note 33.  Velocity 0
000000t:  Note on ::  Channel 1.  Note 45.  Velocity 0
000002t:  Note on ::  Channel 1.  Note 21.  Velocity 110
000000t:  Note on ::  Channel 1.  Note 33.  Velocity 110
000000t:  Note on ::  Channel 1.  Note 45.  Velocity 110
000094t:  Note on ::  Channel 1.  Note 21.  Velocity 0
000000t:  Note on ::  Channel 1.  Note 33.  Velocity 0
000000t:  Note on ::  Channel 1.  Note 45.  Velocity 0
000002t:  Note on ::  Channel 1.  Note 21.  Velocity 110
000000t:  Note on ::  Channel 1.  Note 33.  Velocity 110
000000t:  Note on ::  Channel 1.  Note 45.  Velocity 110
000094t:  Note on ::  Channel 1.  Note 21.  Velocity 0
000000t:  Note on ::  Channel 1.  Note 33.  Velocity 0
000000t:  Note on ::  Channel 1.  Note 45.  Velocity 0
000002t:  Note on ::  Channel 1.  Note 21.  Velocity 110
000000t:  Note on ::  Channel 1.  Note 33.  Velocity 110
000000t:  Note on ::  Channel 1.  Note 45.  Velocity 110
000094t:  Note on ::  Channel 1.  Note 21.  Velocity 0
000000t:  Note on ::  Channel 1.  Note 33.  Velocity 0
000000t:  Note on ::  Channel 1.  Note 45.  Velocity 0
000002t:  Note on ::  Channel 1.  Note 19.  Velocity 110
000000t:  Note on ::  Channel 1.  Note 31.  Velocity 110
000000t:  Note on ::  Channel 1.  Note 43.  Velocity 110
000094t:  Note on ::  Channel 1.  Note 19.  Velocity 0
000000t:  Note on ::  Channel 1.  Note 31.  Velocity 0
000000t:  Note on ::  Channel 1.  Note 43.  Velocity 0
000002t:  Note on ::  Channel 1.  Note 19.  Velocity 110
000000t:  Note on ::  Channel 1.  Note 31.  Velocity 110
000000t:  Note on ::  Channel 1.  Note 43.  Velocity 110
000094t:  Note on ::  Channel 1.  Note 19.  Velocity 0
000000t:  Note on ::  Channel 1.  Note 31.  Velocity 0
000000t:  Note on ::  Channel 1.  Note 43.  Velocity 0
000002t:  Note on ::  Channel 1.  Note 21.  Velocity 110
000000t:  Note on ::  Channel 1.  Note 33.  Velocity 110
000000t:  Note on ::  Channel 1.  Note 45.  Velocity 110
000094t:  Note on ::  Channel 1.  Note 21.  Velocity 0
000000t:  Note on ::  Channel 1.  Note 33.  Velocity 0
000000t:  Note on ::  Channel 1.  Note 45.  Velocity 0
000194t:  Note on ::  Channel 1.  Note 21.  Velocity 110
000000t:  Note on ::  Channel 1.  Note 33.  Velocity 110
000000t:  Note on ::  Channel 1.  Note 45.  Velocity 110
000094t:  Note on ::  Channel 1.  Note 21.  Velocity 0
000000t:  Note on ::  Channel 1.  Note 33.  Velocity 0
000000t:  Note on ::  Channel 1.  Note 45.  Velocity 0
000098t:  Note on ::  Channel 1.  Note 16.  Velocity 110
000000t:  Note on ::  Channel 1.  Note 28.  Velocity 110
000000t:  Note on ::  Channel 1.  Note 40.  Velocity 110
000094t:  Note on ::  Channel 1.  Note 16.  Velocity 0
000000t:  Note on ::  Channel 1.  Note 28.  Velocity 0
000000t:  Note on ::  Channel 1.  Note 40.  Velocity 0
000002t:  Note on ::  Channel 1.  Note 22.  Velocity 110
000000t:  Note on ::  Channel 1.  Note 34.  Velocity 110
000000t:  Note on ::  Channel 1.  Note 46.  Velocity 110
000094t:  Note on ::  Channel 1.  Note 22.  Velocity 0
000000t:  Note on ::  Channel 1.  Note 34.  Velocity 0
000000t:  Note on ::  Channel 1.  Note 46.  Velocity 0
000002t:  Note on ::  Channel 1.  Note 20.  Velocity 110
000000t:  Note on ::  Channel 1.  Note 32.  Velocity 110
000000t:  Note on ::  Channel 1.  Note 44.  Velocity 110
000094t:  Note on ::  Channel 1.  Note 20.  Velocity 0
000000t:  Note on ::  Channel 1.  Note 32.  Velocity 0
000000t:  Note on ::  Channel 1.  Note 44.  Velocity 0
000002t:  Note on ::  Channel 1.  Note 21.  Velocity 110
000000t:  Note on ::  Channel 1.  Note 33.  Velocity 110
000000t:  Note on ::  Channel 1.  Note 45.  Velocity 110
000094t:  Note on ::  Channel 1.  Note 21.  Velocity 0
000000t:  Note on ::  Channel 1.  Note 33.  Velocity 0
000000t:  Note on ::  Channel 1.  Note 45.  Velocity 0
000194t:  Note on ::  Channel 1.  Note 21.  Velocity 110
000000t:  Note on ::  Channel 1.  Note 33.  Velocity 110
000000t:  Note on ::  Channel 1.  Note 45.  Velocity 110
000094t:  Note on ::  Channel 1.  Note 21.  Velocity 0
000000t:  Note on ::  Channel 1.  Note 33.  Velocity 0
000000t:  Note on ::  Channel 1.  Note 45.  Velocity 0
000098t:  Note on ::  Channel 1.  Note 16.  Velocity 110
000000t:  Note on ::  Channel 1.  Note 28.  Velocity 110
000000t:  Note on ::  Channel 1.  Note 40.  Velocity 110
000094t:  Note on ::  Channel 1.  Note 16.  Velocity 0
000000t:  Note on ::  Channel 1.  Note 28.  Velocity 0
000000t:  Note on ::  Channel 1.  Note 40.  Velocity 0
000002t:  Note on ::  Channel 1.  Note 19.  Velocity 110
000000t:  Note on ::  Channel 1.  Note 31.  Velocity 110
000000t:  Note on ::  Channel 1.  Note 43.  Velocity 110
000094t:  Note on ::  Channel 1.  Note 19.  Velocity 0
000000t:  Note on ::  Channel 1.  Note 31.  Velocity 0
000000t:  Note on ::  Channel 1.  Note 43.  Velocity 0
000002t:  Note on ::  Channel 1.  Note 20.  Velocity 110
000000t:  Note on ::  Channel 1.  Note 32.  Velocity 110
000000t:  Note on ::  Channel 1.  Note 44.  Velocity 110
000094t:  Note on ::  Channel 1.  Note 20.  Velocity 0
000000t:  Note on ::  Channel 1.  Note 32.  Velocity 0
000000t:  Note on ::  Channel 1.  Note 44.  Velocity 0
000002t:  Note on ::  Channel 1.  Note 21.  Velocity 110
000000t:  Note on ::  Channel 1.  Note 33.  Velocity 110
000000t:  Note on ::  Channel 1.  Note 45.  Velocity 110
000094t:  Note on ::  Channel 1.  Note 21.  Velocity 0
000000t:  Note on ::  Channel 1.  Note 33.  Velocity 0
000000t:  Note on ::  Channel 1.  Note 45.  Velocity 0
000002t:  Note on ::  Channel 1.  Note 21.  Velocity 110
000000t:  Note on ::  Channel 1.  Note 33.  Velocity 110
000000t:  Note on ::  Channel 1.  Note 45.  Velocity 110
000094t:  Note on ::  Channel 1.  Note 21.  Velocity 0
000000t:  Note on ::  Channel 1.  Note 33.  Velocity 0
000000t:  Note on ::  Channel 1.  Note 45.  Velocity 0
000002t:  Note on ::  Channel 1.  Note 21.  Velocity 110
000000t:  Note on ::  Channel 1.  Note 33.  Velocity 110
000000t:  Note on ::  Channel 1.  Note 45.  Velocity 110
000094t:  Note on ::  Channel 1.  Note 21.  Velocity 0
000000t:  Note on ::  Channel 1.  Note 33.  Velocity 0
000000t:  Note on ::  Channel 1.  Note 45.  Velocity 0
000002t:  Note on ::  Channel 1.  Note 21.  Velocity 110
000000t:  Note on ::  Channel 1.  Note 33.  Velocity 110
000000t:  Note on ::  Channel 1.  Note 45.  Velocity 110
000094t:  Note on ::  Channel 1.  Note 21.  Velocity 0
000000t:  Note on ::  Channel 1.  Note 33.  Velocity 0
000000t:  Note on ::  Channel 1.  Note 45.  Velocity 0
000002t:  Note on ::  Channel 1.  Note 21.  Velocity 110
000000t:  Note on ::  Channel 1.  Note 33.  Velocity 110
000000t:  Note on ::  Channel 1.  Note 45.  Velocity 110
000094t:  Note on ::  Channel 1.  Note 21.  Velocity 0
000000t:  Note on ::  Channel 1.  Note 33.  Velocity 0
000000t:  Note on ::  Channel 1.  Note 45.  Velocity 0
000002t:  Note on ::  Channel 1.  Note 21.  Velocity 110
000000t:  Note on ::  Channel 1.  Note 33.  Velocity 110
000000t:  Note on ::  Channel 1.  Note 45.  Velocity 110
000094t:  Note on ::  Channel 1.  Note 21.  Velocity 0
000000t:  Note on ::  Channel 1.  Note 33.  Velocity 0
000000t:  Note on ::  Channel 1.  Note 45.  Velocity 0
000002t:  Note on ::  Channel 1.  Note 19.  Velocity 110
000000t:  Note on ::  Channel 1.  Note 31.  Velocity 110
000000t:  Note on ::  Channel 1.  Note 43.  Velocity 110
000094t:  Note on ::  Channel 1.  Note 19.  Velocity 0
000000t:  Note on ::  Channel 1.  Note 31.  Velocity 0
000000t:  Note on ::  Channel 1.  Note 43.  Velocity 0
000002t:  Note on ::  Channel 1.  Note 19.  Velocity 110
000000t:  Note on ::  Channel 1.  Note 31.  Velocity 110
000000t:  Note on ::  Channel 1.  Note 43.  Velocity 110
000094t:  Note on ::  Channel 1.  Note 19.  Velocity 0
000000t:  Note on ::  Channel 1.  Note 31.  Velocity 0
000000t:  Note on ::  Channel 1.  Note 43.  Velocity 0
000002t:  Note on ::  Channel 1.  Note 21.  Velocity 110
000000t:  Note on ::  Channel 1.  Note 33.  Velocity 110
000000t:  Note on ::  Channel 1.  Note 45.  Velocity 110
000094t:  Note on ::  Channel 1.  Note 21.  Velocity 0
000000t:  Note on ::  Channel 1.  Note 33.  Velocity 0
000000t:  Note on ::  Channel 1.  Note 45.  Velocity 0
000002t:  Note on ::  Channel 1.  Note 21.  Velocity 110
000000t:  Note on ::  Channel 1.  Note 33.  Velocity 110
000000t:  Note on ::  Channel 1.  Note 45.  Velocity 110
000094t:  Note on ::  Channel 1.  Note 21.  Velocity 0
000000t:  Note on ::  Channel 1.  Note 33.  Velocity 0
000000t:  Note on ::  Channel 1.  Note 45.  Velocity 0
000002t:  Note on ::  Channel 1.  Note 21.  Velocity 110
000000t:  Note on ::  Channel 1.  Note 33.  Velocity 110
000000t:  Note on ::  Channel 1.  Note 45.  Velocity 110
000094t:  Note on ::  Channel 1.  Note 21.  Velocity 0
000000t:  Note on ::  Channel 1.  Note 33.  Velocity 0
000000t:  Note on ::  Channel 1.  Note 45.  Velocity 0
000002t:  Note on ::  Channel 1.  Note 21.  Velocity 110
000000t:  Note on ::  Channel 1.  Note 33.  Velocity 110
000000t:  Note on ::  Channel 1.  Note 45.  Velocity 110
000094t:  Note on ::  Channel 1.  Note 21.  Velocity 0
000000t:  Note on ::  Channel 1.  Note 33.  Velocity 0
000000t:  Note on ::  Channel 1.  Note 45.  Velocity 0
000002t:  Note on ::  Channel 1.  Note 21.  Velocity 110
000000t:  Note on ::  Channel 1.  Note 33.  Velocity 110
000000t:  Note on ::  Channel 1.  Note 45.  Velocity 110
000094t:  Note on ::  Channel 1.  Note 21.  Velocity 0
000000t:  Note on ::  Channel 1.  Note 33.  Velocity 0
000000t:  Note on ::  Channel 1.  Note 45.  Velocity 0
000002t:  Note on ::  Channel 1.  Note 21.  Velocity 110
000000t:  Note on ::  Channel 1.  Note 33.  Velocity 110
000000t:  Note on ::  Channel 1.  Note 45.  Velocity 110
000094t:  Note on ::  Channel 1.  Note 21.  Velocity 0
000000t:  Note on ::  Channel 1.  Note 33.  Velocity 0
000000t:  Note on ::  Channel 1.  Note 45.  Velocity 0
000002t:  Note on ::  Channel 1.  Note 19.  Velocity 110
000000t:  Note on ::  Channel 1.  Note 31.  Velocity 110
000000t:  Note on ::  Channel 1.  Note 43.  Velocity 110
000094t:  Note on ::  Channel 1.  Note 19.  Velocity 0
000000t:  Note on ::  Channel 1.  Note 31.  Velocity 0
000000t:  Note on ::  Channel 1.  Note 43.  Velocity 0
000002t:  Note on ::  Channel 1.  Note 19.  Velocity 110
000000t:  Note on ::  Channel 1.  Note 31.  Velocity 110
000000t:  Note on ::  Channel 1.  Note 43.  Velocity 110
000094t:  Note on ::  Channel 1.  Note 19.  Velocity 0
000000t:  Note on ::  Channel 1.  Note 31.  Velocity 0
000000t:  Note on ::  Channel 1.  Note 43.  Velocity 0
000002t:  Note on ::  Channel 1.  Note 17.  Velocity 110
000000t:  Note on ::  Channel 1.  Note 29.  Velocity 110
000000t:  Note on ::  Channel 1.  Note 41.  Velocity 110
000094t:  Note on ::  Channel 1.  Note 17.  Velocity 0
000000t:  Note on ::  Channel 1.  Note 29.  Velocity 0
000000t:  Note on ::  Channel 1.  Note 41.  Velocity 0
000194t:  Note on ::  Channel 1.  Note 17.  Velocity 110
000000t:  Note on ::  Channel 1.  Note 29.  Velocity 110
000000t:  Note on ::  Channel 1.  Note 41.  Velocity 110
000094t:  Note on ::  Channel 1.  Note 17.  Velocity 0
000000t:  Note on ::  Channel 1.  Note 29.  Velocity 0
000000t:  Note on ::  Channel 1.  Note 41.  Velocity 0
000194t:  Note on ::  Channel 1.  Note 24.  Velocity 110
000000t:  Note on ::  Channel 1.  Note 36.  Velocity 110
000000t:  Note on ::  Channel 1.  Note 48.  Velocity 110
000094t:  Note on ::  Channel 1.  Note 24.  Velocity 0
000000t:  Note on ::  Channel 1.  Note 36.  Velocity 0
000000t:  Note on ::  Channel 1.  Note 48.  Velocity 0
000098t:  Note on ::  Channel 1.  Note 19.  Velocity 110
000000t:  Note on ::  Channel 1.  Note 31.  Velocity 110
000000t:  Note on ::  Channel 1.  Note 43.  Velocity 110
000094t:  Note on ::  Channel 1.  Note 19.  Velocity 0
000000t:  Note on ::  Channel 1.  Note 31.  Velocity 0
000000t:  Note on ::  Channel 1.  Note 43.  Velocity 0
000194t:  Note on ::  Channel 1.  Note 19.  Velocity 110
000000t:  Note on ::  Channel 1.  Note 31.  Velocity 110
000000t:  Note on ::  Channel 1.  Note 43.  Velocity 110
000094t:  Note on ::  Channel 1.  Note 19.  Velocity 0
000000t:  Note on ::  Channel 1.  Note 31.  Velocity 0
000000t:  Note on ::  Channel 1.  Note 43.  Velocity 0
000098t:  Note on ::  Channel 1.  Note 14.  Velocity 110
000000t:  Note on ::  Channel 1.  Note 26.  Velocity 110
000000t:  Note on ::  Channel 1.  Note 38.  Velocity 110
000094t:  Note on ::  Channel 1.  Note 14.  Velocity 0
000000t:  Note on ::  Channel 1.  Note 26.  Velocity 0
000000t:  Note on ::  Channel 1.  Note 38.  Velocity 0
000002t:  Note on ::  Channel 1.  Note 23.  Velocity 110
000000t:  Note on ::  Channel 1.  Note 35.  Velocity 110
000000t:  Note on ::  Channel 1.  Note 47.  Velocity 110
000094t:  Note on ::  Channel 1.  Note 23.  Velocity 0
000000t:  Note on ::  Channel 1.  Note 35.  Velocity 0
000000t:  Note on ::  Channel 1.  Note 47.  Velocity 0
000002t:  Note on ::  Channel 1.  Note 19.  Velocity 110
000000t:  Note on ::  Channel 1.  Note 31.  Velocity 110
000000t:  Note on ::  Channel 1.  Note 43.  Velocity 110
000094t:  Note on ::  Channel 1.  Note 19.  Velocity 0
000000t:  Note on ::  Channel 1.  Note 31.  Velocity 0
000000t:  Note on ::  Channel 1.  Note 43.  Velocity 0
000002t:  Note on ::  Channel 1.  Note 21.  Velocity 110
000000t:  Note on ::  Channel 1.  Note 33.  Velocity 110
000000t:  Note on ::  Channel 1.  Note 45.  Velocity 110
000094t:  Note on ::  Channel 1.  Note 21.  Velocity 0
000000t:  Note on ::  Channel 1.  Note 33.  Velocity 0
000000t:  Note on ::  Channel 1.  Note 45.  Velocity 0
000002t:  Note on ::  Channel 1.  Note 21.  Velocity 110
000000t:  Note on ::  Channel 1.  Note 33.  Velocity 110
000000t:  Note on ::  Channel 1.  Note 45.  Velocity 110
000094t:  Note on ::  Channel 1.  Note 21.  Velocity 0
000000t:  Note on ::  Channel 1.  Note 33.  Velocity 0
000000t:  Note on ::  Channel 1.  Note 45.  Velocity 0
000002t:  Note on ::  Channel 1.  Note 21.  Velocity 110
000000t:  Note on ::  Channel 1.  Note 33.  Velocity 110
000000t:  Note on ::  Channel 1.  Note 45.  Velocity 110
000094t:  Note on ::  Channel 1.  Note 21.  Velocity 0
000000t:  Note on ::  Channel 1.  Note 33.  Velocity 0
000000t:  Note on ::  Channel 1.  Note 45.  Velocity 0
000002t:  Note on ::  Channel 1.  Note 21.  Velocity 110
000000t:  Note on ::  Channel 1.  Note 33.  Velocity 110
000000t:  Note on ::  Channel 1.  Note 45.  Velocity 110
000094t:  Note on ::  Channel 1.  Note 21.  Velocity 0
000000t:  Note on ::  Channel 1.  Note 33.  Velocity 0
000000t:  Note on ::  Channel 1.  Note 45.  Velocity 0
000002t:  Note on ::  Channel 1.  Note 21.  Velocity 110
000000t:  Note on ::  Channel 1.  Note 33.  Velocity 110
000000t:  Note on ::  Channel 1.  Note 45.  Velocity 110
000094t:  Note on ::  Channel 1.  Note 21.  Velocity 0
000000t:  Note on ::  Channel 1.  Note 33.  Velocity 0
000000t:  Note on ::  Channel 1.  Note 45.  Velocity 0
000002t:  Note on ::  Channel 1.  Note 21.  Velocity 110
000000t:  Note on ::  Channel 1.  Note 33.  Velocity 110
000000t:  Note on ::  Channel 1.  Note 45.  Velocity 110
000094t:  Note on ::  Channel 1.  Note 21.  Velocity 0
000000t:  Note on ::  Channel 1.  Note 33.  Velocity 0
000000t:  Note on ::  Channel 1.  Note 45.  Velocity 0
000002t:  Note on ::  Channel 1.  Note 19.  Velocity 110
000000t:  Note on ::  Channel 1.  Note 31.  Velocity 110
000000t:  Note on ::  Channel 1.  Note 43.  Velocity 110
000094t:  Note on ::  Channel 1.  Note 19.  Velocity 0
000000t:  Note on ::  Channel 1.  Note 31.  Velocity 0
000000t:  Note on ::  Channel 1.  Note 43.  Velocity 0
000002t:  Note on ::  Channel 1.  Note 19.  Velocity 110
000000t:  Note on ::  Channel 1.  Note 31.  Velocity 110
000000t:  Note on ::  Channel 1.  Note 43.  Velocity 110
000094t:  Note on ::  Channel 1.  Note 19.  Velocity 0
000000t:  Note on ::  Channel 1.  Note 31.  Velocity 0
000000t:  Note on ::  Channel 1.  Note 43.  Velocity 0
000002t:  Note on ::  Channel 1.  Note 21.  Velocity 110
000000t:  Note on ::  Channel 1.  Note 33.  Velocity 110
000000t:  Note on ::  Channel 1.  Note 45.  Velocity 110
000094t:  Note on ::  Channel 1.  Note 21.  Velocity 0
000000t:  Note on ::  Channel 1.  Note 33.  Velocity 0
000000t:  Note on ::  Channel 1.  Note 45.  Velocity 0
000002t:  Note on ::  Channel 1.  Note 21.  Velocity 110
000000t:  Note on ::  Channel 1.  Note 33.  Velocity 110
000000t:  Note on ::  Channel 1.  Note 45.  Velocity 110
000094t:  Note on ::  Channel 1.  Note 21.  Velocity 0
000000t:  Note on ::  Channel 1.  Note 33.  Velocity 0
000000t:  Note on ::  Channel 1.  Note 45.  Velocity 0
000002t:  Note on ::  Channel 1.  Note 21.  Velocity 110
000000t:  Note on ::  Channel 1.  Note 33.  Velocity 110
000000t:  Note on ::  Channel 1.  Note 45.  Velocity 110
000094t:  Note on ::  Channel 1.  Note 21.  Velocity 0
000000t:  Note on ::  Channel 1.  Note 33.  Velocity 0
000000t:  Note on ::  Channel 1.  Note 45.  Velocity 0
000002t:  Note on ::  Channel 1.  Note 21.  Velocity 110
000000t:  Note on ::  Channel 1.  Note 33.  Velocity 110
000000t:  Note on ::  Channel 1.  Note 45.  Velocity 110
000094t:  Note on ::  Channel 1.  Note 21.  Velocity 0
000000t:  Note on ::  Channel 1.  Note 33.  Velocity 0
000000t:  Note on ::  Channel 1.  Note 45.  Velocity 0
000002t:  Note on ::  Channel 1.  Note 21.  Velocity 110
000000t:  Note on ::  Channel 1.  Note 33.  Velocity 110
000000t:  Note on ::  Channel 1.  Note 45.  Velocity 110
000094t:  Note on ::  Channel 1.  Note 21.  Velocity 0
000000t:  Note on ::  Channel 1.  Note 33.  Velocity 0
000000t:  Note on ::  Channel 1.  Note 45.  Velocity 0
000002t:  Note on ::  Channel 1.  Note 21.  Velocity 110
000000t:  Note on ::  Channel 1.  Note 33.  Velocity 110
000000t:  Note on ::  Channel 1.  Note 45.  Velocity 110
000094t:  Note on ::  Channel 1.  Note 21.  Velocity 0
000000t:  Note on ::  Channel 1.  Note 33.  Velocity 0
000000t:  Note on ::  Channel 1.  Note 45.  Velocity 0
000002t:  Note on ::  Channel 1.  Note 19.  Velocity 110
000000t:  Note on ::  Channel 1.  Note 31.  Velocity 110
000000t:  Note on ::  Channel 1.  Note 43.  Velocity 110
000094t:  Note on ::  Channel 1.  Note 19.  Velocity 0
000000t:  Note on ::  Channel 1.  Note 31.  Velocity 0
000000t:  Note on ::  Channel 1.  Note 43.  Velocity 0
000002t:  Note on ::  Channel 1.  Note 19.  Velocity 110
000000t:  Note on ::  Channel 1.  Note 31.  Velocity 110
000000t:  Note on ::  Channel 1.  Note 43.  Velocity 110
000094t:  Note on ::  Channel 1.  Note 19.  Velocity 0
000000t:  Note on ::  Channel 1.  Note 31.  Velocity 0
000000t:  Note on ::  Channel 1.  Note 43.  Velocity 0
000002t:  Note on ::  Channel 1.  Note 21.  Velocity 110
000000t:  Note on ::  Channel 1.  Note 33.  Velocity 110
000000t:  Note on ::  Channel 1.  Note 45.  Velocity 110
000094t:  Note on ::  Channel 1.  Note 21.  Velocity 0
000000t:  Note on ::  Channel 1.  Note 33.  Velocity 0
000000t:  Note on ::  Channel 1.  Note 45.  Velocity 0
000194t:  Note on ::  Channel 1.  Note 21.  Velocity 110
000000t:  Note on ::  Channel 1.  Note 33.  Velocity 110
000000t:  Note on ::  Channel 1.  Note 45.  Velocity 110
000094t:  Note on ::  Channel 1.  Note 21.  Velocity 0
000000t:  Note on ::  Channel 1.  Note 33.  Velocity 0
000000t:  Note on ::  Channel 1.  Note 45.  Velocity 0
000098t:  Note on ::  Channel 1.  Note 16.  Velocity 110
000000t:  Note on ::  Channel 1.  Note 28.  Velocity 110
000000t:  Note on ::  Channel 1.  Note 40.  Velocity 110
000094t:  Note on ::  Channel 1.  Note 16.  Velocity 0
000000t:  Note on ::  Channel 1.  Note 28.  Velocity 0
000000t:  Note on ::  Channel 1.  Note 40.  Velocity 0
000002t:  Note on ::  Channel 1.  Note 22.  Velocity 110
000000t:  Note on ::  Channel 1.  Note 34.  Velocity 110
000000t:  Note on ::  Channel 1.  Note 46.  Velocity 110
000094t:  Note on ::  Channel 1.  Note 22.  Velocity 0
000000t:  Note on ::  Channel 1.  Note 34.  Velocity 0
000000t:  Note on ::  Channel 1.  Note 46.  Velocity 0
000002t:  Note on ::  Channel 1.  Note 20.  Velocity 110
000000t:  Note on ::  Channel 1.  Note 32.  Velocity 110
000000t:  Note on ::  Channel 1.  Note 44.  Velocity 110
000094t:  Note on ::  Channel 1.  Note 20.  Velocity 0
000000t:  Note on ::  Channel 1.  Note 32.  Velocity 0
000000t:  Note on ::  Channel 1.  Note 44.  Velocity 0
000002t:  Note on ::  Channel 1.  Note 21.  Velocity 110
000000t:  Note on ::  Channel 1.  Note 33.  Velocity 110
000000t:  Note on ::  Channel 1.  Note 45.  Velocity 110
000094t:  Note on ::  Channel 1.  Note 21.  Velocity 0
000000t:  Note on ::  Channel 1.  Note 33.  Velocity 0
000000t:  Note on ::  Channel 1.  Note 45.  Velocity 0
000194t:  Note on ::  Channel 1.  Note 21.  Velocity 110
000000t:  Note on ::  Channel 1.  Note 33.  Velocity 110
000000t:  Note on ::  Channel 1.  Note 45.  Velocity 110
000094t:  Note on ::  Channel 1.  Note 21.  Velocity 0
000000t:  Note on ::  Channel 1.  Note 33.  Velocity 0
000000t:  Note on ::  Channel 1.  Note 45.  Velocity 0
000098t:  Note on ::  Channel 1.  Note 16.  Velocity 110
000000t:  Note on ::  Channel 1.  Note 28.  Velocity 110
000000t:  Note on ::  Channel 1.  Note 40.  Velocity 110
000094t:  Note on ::  Channel 1.  Note 16.  Velocity 0
000000t:  Note on ::  Channel 1.  Note 28.  Velocity 0
000000t:  Note on ::  Channel 1.  Note 40.  Velocity 0
000002t:  Note on ::  Channel 1.  Note 19.  Velocity 110
000000t:  Note on ::  Channel 1.  Note 31.  Velocity 110
000000t:  Note on ::  Channel 1.  Note 43.  Velocity 110
000094t:  Note on ::  Channel 1.  Note 19.  Velocity 0
000000t:  Note on ::  Channel 1.  Note 31.  Velocity 0
000000t:  Note on ::  Channel 1.  Note 43.  Velocity 0
000002t:  Note on ::  Channel 1.  Note 20.  Velocity 110
000000t:  Note on ::  Channel 1.  Note 32.  Velocity 110
000000t:  Note on ::  Channel 1.  Note 44.  Velocity 110
000094t:  Note on ::  Channel 1.  Note 20.  Velocity 0
000000t:  Note on ::  Channel 1.  Note 32.  Velocity 0
000000t:  Note on ::  Channel 1.  Note 44.  Velocity 0
000002t:  Note on ::  Channel 1.  Note 21.  Velocity 110
000000t:  Note on ::  Channel 1.  Note 33.  Velocity 110
000000t:  Note on ::  Channel 1.  Note 45.  Velocity 110
000094t:  Note on ::  Channel 1.  Note 21.  Velocity 0
000000t:  Note on ::  Channel 1.  Note 33.  Velocity 0
000000t:  Note on ::  Channel 1.  Note 45.  Velocity 0
000002t:  Note on ::  Channel 1.  Note 21.  Velocity 110
000000t:  Note on ::  Channel 1.  Note 33.  Velocity 110
000000t:  Note on ::  Channel 1.  Note 45.  Velocity 110
000094t:  Note on ::  Channel 1.  Note 21.  Velocity 0
000000t:  Note on ::  Channel 1.  Note 33.  Velocity 0
000000t:  Note on ::  Channel 1.  Note 45.  Velocity 0
000002t:  Note on ::  Channel 1.  Note 21.  Velocity 110
000000t:  Note on ::  Channel 1.  Note 33.  Velocity 110
000000t:  Note on ::  Channel 1.  Note 45.  Velocity 110
000094t:  Note on ::  Channel 1.  Note 21.  Velocity 0
000000t:  Note on ::  Channel 1.  Note 33.  Velocity 0
000000t:  Note on ::  Channel 1.  Note 45.  Velocity 0
000002t:  Note on ::  Channel 1.  Note 21.  Velocity 110
000000t:  Note on ::  Channel 1.  Note 33.  Velocity 110
000000t:  Note on ::  Channel 1.  Note 45.  Velocity 110
000094t:  Note on ::  Channel 1.  Note 21.  Velocity 0
000000t:  Note on ::  Channel 1.  Note 33.  Velocity 0
000000t:  Note on ::  Channel 1.  Note 45.  Velocity 0
000002t:  Note on ::  Channel 1.  Note 21.  Velocity 110
000000t:  Note on ::  Channel 1.  Note 33.  Velocity 110
000000t:  Note on ::  Channel 1.  Note 45.  Velocity 110
000094t:  Note on ::  Channel 1.  Note 21.  Velocity 0
000000t:  Note on ::  Channel 1.  Note 33.  Velocity 0
000000t:  Note on ::  Channel 1.  Note 45.  Velocity 0
000002t:  Note on ::  Channel 1.  Note 21.  Velocity 110
000000t:  Note on ::  Channel 1.  Note 33.  Velocity 110
000000t:  Note on ::  Channel 1.  Note 45.  Velocity 110
000094t:  Note on ::  Channel 1.  Note 21.  Velocity 0
000000t:  Note on ::  Channel 1.  Note 33.  Velocity 0
000000t:  Note on ::  Channel 1.  Note 45.  Velocity 0
000002t:  Note on ::  Channel 1.  Note 19.  Velocity 110
000000t:  Note on ::  Channel 1.  Note 31.  Velocity 110
000000t:  Note on ::  Channel 1.  Note 43.  Velocity 110
000094t:  Note on ::  Channel 1.  Note 19.  Velocity 0
000000t:  Note on ::  Channel 1.  Note 31.  Velocity 0
000000t:  Note on ::  Channel 1.  Note 43.  Velocity 0
000002t:  Note on ::  Channel 1.  Note 19.  Velocity 110
000000t:  Note on ::  Channel 1.  Note 31.  Velocity 110
000000t:  Note on ::  Channel 1.  Note 43.  Velocity 110
000094t:  Note on ::  Channel 1.  Note 19.  Velocity 0
000000t:  Note on ::  Channel 1.  Note 31.  Velocity 0
000000t:  Note on ::  Channel 1.  Note 43.  Velocity 0
000002t:  Note on ::  Channel 1.  Note 21.  Velocity 110
000000t:  Note on ::  Channel 1.  Note 33.  Velocity 110
000000t:  Note on ::  Channel 1.  Note 45.  Velocity 110
000094t:  Note on ::  Channel 1.  Note 21.  Velocity 0
000000t:  Note on ::  Channel 1.  Note 33.  Velocity 0
000000t:  Note on ::  Channel 1.  Note 45.  Velocity 0
000002t:  Note on ::  Channel 1.  Note 21.  Velocity 110
000000t:  Note on ::  Channel 1.  Note 33.  Velocity 110
000000t:  Note on ::  Channel 1.  Note 45.  Velocity 110
000094t:  Note on ::  Channel 1.  Note 21.  Velocity 0
000000t:  Note on ::  Channel 1.  Note 33.  Velocity 0
000000t:  Note on ::  Channel 1.  Note 45.  Velocity 0
000002t:  Note on ::  Channel 1.  Note 21.  Velocity 110
000000t:  Note on ::  Channel 1.  Note 33.  Velocity 110
000000t:  Note on ::  Channel 1.  Note 45.  Velocity 110
000094t:  Note on ::  Channel 1.  Note 21.  Velocity 0
000000t:  Note on ::  Channel 1.  Note 33.  Velocity 0
000000t:  Note on ::  Channel 1.  Note 45.  Velocity 0
000002t:  Note on ::  Channel 1.  Note 21.  Velocity 110
000000t:  Note on ::  Channel 1.  Note 33.  Velocity 110
000000t:  Note on ::  Channel 1.  Note 45.  Velocity 110
000094t:  Note on ::  Channel 1.  Note 21.  Velocity 0
000000t:  Note on ::  Channel 1.  Note 33.  Velocity 0
000000t:  Note on ::  Channel 1.  Note 45.  Velocity 0
000002t:  Note on ::  Channel 1.  Note 21.  Velocity 110
000000t:  Note on ::  Channel 1.  Note 33.  Velocity 110
000000t:  Note on ::  Channel 1.  Note 45.  Velocity 110
000094t:  Note on ::  Channel 1.  Note 21.  Velocity 0
000000t:  Note on ::  Channel 1.  Note 33.  Velocity 0
000000t:  Note on ::  Channel 1.  Note 45.  Velocity 0
000002t:  Note on ::  Channel 1.  Note 21.  Velocity 110
000000t:  Note on ::  Channel 1.  Note 33.  Velocity 110
000000t:  Note on ::  Channel 1.  Note 45.  Velocity 110
000094t:  Note on ::  Channel 1.  Note 21.  Velocity 0
000000t:  Note on ::  Channel 1.  Note 33.  Velocity 0
000000t:  Note on ::  Channel 1.  Note 45.  Velocity 0
000002t:  Note on ::  Channel 1.  Note 19.  Velocity 110
000000t:  Note on ::  Channel 1.  Note 31.  Velocity 110
000000t:  Note on ::  Channel 1.  Note 43.  Velocity 110
000094t:  Note on ::  Channel 1.  Note 19.  Velocity 0
000000t:  Note on ::  Channel 1.  Note 31.  Velocity 0
000000t:  Note on ::  Channel 1.  Note 43.  Velocity 0
000002t:  Note on ::  Channel 1.  Note 19.  Velocity 110
000000t:  Note on ::  Channel 1.  Note 31.  Velocity 110
000000t:  Note on ::  Channel 1.  Note 43.  Velocity 110
000094t:  Note on ::  Channel 1.  Note 19.  Velocity 0
000000t:  Note on ::  Channel 1.  Note 31.  Velocity 0
000000t:  Note on ::  Channel 1.  Note 43.  Velocity 0
000002t:  Note on ::  Channel 1.  Note 17.  Velocity 110
000000t:  Note on ::  Channel 1.  Note 29.  Velocity 110
000000t:  Note on ::  Channel 1.  Note 41.  Velocity 110
000094t:  Note on ::  Channel 1.  Note 17.  Velocity 0
000000t:  Note on ::  Channel 1.  Note 29.  Velocity 0
000000t:  Note on ::  Channel 1.  Note 41.  Velocity 0
000194t:  Note on ::  Channel 1.  Note 17.  Velocity 110
000000t:  Note on ::  Channel 1.  Note 29.  Velocity 110
000000t:  Note on ::  Channel 1.  Note 41.  Velocity 110
000094t:  Note on ::  Channel 1.  Note 17.  Velocity 0
000000t:  Note on ::  Channel 1.  Note 29.  Velocity 0
000000t:  Note on ::  Channel 1.  Note 41.  Velocity 0
000194t:  Note on ::  Channel 1.  Note 24.  Velocity 110
000000t:  Note on ::  Channel 1.  Note 36.  Velocity 110
000000t:  Note on ::  Channel 1.  Note 48.  Velocity 110
000094t:  Note on ::  Channel 1.  Note 24.  Velocity 0
000000t:  Note on ::  Channel 1.  Note 36.  Velocity 0
000000t:  Note on ::  Channel 1.  Note 48.  Velocity 0
000098t:  Note on ::  Channel 1.  Note 19.  Velocity 110
000000t:  Note on ::  Channel 1.  Note 31.  Velocity 110
000000t:  Note on ::  Channel 1.  Note 43.  Velocity 110
000094t:  Note on ::  Channel 1.  Note 19.  Velocity 0
000000t:  Note on ::  Channel 1.  Note 31.  Velocity 0
000000t:  Note on ::  Channel 1.  Note 43.  Velocity 0
000194t:  Note on ::  Channel 1.  Note 19.  Velocity 110
000000t:  Note on ::  Channel 1.  Note 31.  Velocity 110
000000t:  Note on ::  Channel 1.  Note 43.  Velocity 110
000094t:  Note on ::  Channel 1.  Note 19.  Velocity 0
000000t:  Note on ::  Channel 1.  Note 31.  Velocity 0
000000t:  Note on ::  Channel 1.  Note 43.  Velocity 0
000098t:  Note on ::  Channel 1.  Note 14.  Velocity 110
000000t:  Note on ::  Channel 1.  Note 26.  Velocity 110
000000t:  Note on ::  Channel 1.  Note 38.  Velocity 110
000094t:  Note on ::  Channel 1.  Note 14.  Velocity 0
000000t:  Note on ::  Channel 1.  Note 26.  Velocity 0
000000t:  Note on ::  Channel 1.  Note 38.  Velocity 0
000002t:  Note on ::  Channel 1.  Note 23.  Velocity 110
000000t:  Note on ::  Channel 1.  Note 35.  Velocity 110
000000t:  Note on ::  Channel 1.  Note 47.  Velocity 110
000094t:  Note on ::  Channel 1.  Note 23.  Velocity 0
000000t:  Note on ::  Channel 1.  Note 35.  Velocity 0
000000t:  Note on ::  Channel 1.  Note 47.  Velocity 0
000002t:  Note on ::  Channel 1.  Note 19.  Velocity 110
000000t:  Note on ::  Channel 1.  Note 31.  Velocity 110
000000t:  Note on ::  Channel 1.  Note 43.  Velocity 110
000094t:  Note on ::  Channel 1.  Note 19.  Velocity 0
000000t:  Note on ::  Channel 1.  Note 31.  Velocity 0
000000t:  Note on ::  Channel 1.  Note 43.  Velocity 0
000002t:  Note on ::  Channel 1.  Note 21.  Velocity 110
000000t:  Note on ::  Channel 1.  Note 33.  Velocity 110
000000t:  Note on ::  Channel 1.  Note 45.  Velocity 110
000094t:  Note on ::  Channel 1.  Note 21.  Velocity 0
000000t:  Note on ::  Channel 1.  Note 33.  Velocity 0
000000t:  Note on ::  Channel 1.  Note 45.  Velocity 0
000002t:  Note on ::  Channel 1.  Note 21.  Velocity 110
000000t:  Note on ::  Channel 1.  Note 33.  Velocity 110
000000t:  Note on ::  Channel 1.  Note 45.  Velocity 110
000094t:  Note on ::  Channel 1.  Note 21.  Velocity 0
000000t:  Note on ::  Channel 1.  Note 33.  Velocity 0
000000t:  Note on ::  Channel 1.  Note 45.  Velocity 0
000002t:  Note on ::  Channel 1.  Note 21.  Velocity 110
000000t:  Note on ::  Channel 1.  Note 33.  Velocity 110
000000t:  Note on ::  Channel 1.  Note 45.  Velocity 110
000094t:  Note on ::  Channel 1.  Note 21.  Velocity 0
000000t:  Note on ::  Channel 1.  Note 33.  Velocity 0
000000t:  Note on ::  Channel 1.  Note 45.  Velocity 0
000002t:  Note on ::  Channel 1.  Note 21.  Velocity 110
000000t:  Note on ::  Channel 1.  Note 33.  Velocity 110
000000t:  Note on ::  Channel 1.  Note 45.  Velocity 110
000094t:  Note on ::  Channel 1.  Note 21.  Velocity 0
000000t:  Note on ::  Channel 1.  Note 33.  Velocity 0
000000t:  Note on ::  Channel 1.  Note 45.  Velocity 0
000002t:  Note on ::  Channel 1.  Note 21.  Velocity 110
000000t:  Note on ::  Channel 1.  Note 33.  Velocity 110
000000t:  Note on ::  Channel 1.  Note 45.  Velocity 110
000094t:  Note on ::  Channel 1.  Note 21.  Velocity 0
000000t:  Note on ::  Channel 1.  Note 33.  Velocity 0
000000t:  Note on ::  Channel 1.  Note 45.  Velocity 0
000002t:  Note on ::  Channel 1.  Note 21.  Velocity 110
000000t:  Note on ::  Channel 1.  Note 33.  Velocity 110
000000t:  Note on ::  Channel 1.  Note 45.  Velocity 110
000094t:  Note on ::  Channel 1.  Note 21.  Velocity 0
000000t:  Note on ::  Channel 1.  Note 33.  Velocity 0
000000t:  Note on ::  Channel 1.  Note 45.  Velocity 0
000002t:  Note on ::  Channel 1.  Note 19.  Velocity 110
000000t:  Note on ::  Channel 1.  Note 31.  Velocity 110
000000t:  Note on ::  Channel 1.  Note 43.  Velocity 110
000094t:  Note on ::  Channel 1.  Note 19.  Velocity 0
000000t:  Note on ::  Channel 1.  Note 31.  Velocity 0
000000t:  Note on ::  Channel 1.  Note 43.  Velocity 0
000002t:  Note on ::  Channel 1.  Note 19.  Velocity 110
000000t:  Note on ::  Channel 1.  Note 31.  Velocity 110
000000t:  Note on ::  Channel 1.  Note 43.  Velocity 110
000094t:  Note on ::  Channel 1.  Note 19.  Velocity 0
000000t:  Note on ::  Channel 1.  Note 31.  Velocity 0
000000t:  Note on ::  Channel 1.  Note 43.  Velocity 0
000002t:  Note on ::  Channel 1.  Note 21.  Velocity 110
000000t:  Note on ::  Channel 1.  Note 33.  Velocity 110
000000t:  Note on ::  Channel 1.  Note 45.  Velocity 110
000094t:  Note on ::  Channel 1.  Note 21.  Velocity 0
000000t:  Note on ::  Channel 1.  Note 33.  Velocity 0
000000t:  Note on ::  Channel 1.  Note 45.  Velocity 0
000002t:  Note on ::  Channel 1.  Note 21.  Velocity 110
000000t:  Note on ::  Channel 1.  Note 33.  Velocity 110
000000t:  Note on ::  Channel 1.  Note 45.  Velocity 110
000094t:  Note on ::  Channel 1.  Note 21.  Velocity 0
000000t:  Note on ::  Channel 1.  Note 33.  Velocity 0
000000t:  Note on ::  Channel 1.  Note 45.  Velocity 0
000002t:  Note on ::  Channel 1.  Note 21.  Velocity 110
000000t:  Note on ::  Channel 1.  Note 33.  Velocity 110
000000t:  Note on ::  Channel 1.  Note 45.  Velocity 110
000094t:  Note on ::  Channel 1.  Note 21.  Velocity 0
000000t:  Note on ::  Channel 1.  Note 33.  Velocity 0
000000t:  Note on ::  Channel 1.  Note 45.  Velocity 0
000002t:  Note on ::  Channel 1.  Note 21.  Velocity 110
000000t:  Note on ::  Channel 1.  Note 33.  Velocity 110
000000t:  Note on ::  Channel 1.  Note 45.  Velocity 110
000094t:  Note on ::  Channel 1.  Note 21.  Velocity 0
000000t:  Note on ::  Channel 1.  Note 33.  Velocity 0
000000t:  Note on ::  Channel 1.  Note 45.  Velocity 0
000002t:  Note on ::  Channel 1.  Note 21.  Velocity 110
000000t:  Note on ::  Channel 1.  Note 33.  Velocity 110
000000t:  Note on ::  Channel 1.  Note 45.  Velocity 110
000094t:  Note on ::  Channel 1.  Note 21.  Velocity 0
000000t:  Note on ::  Channel 1.  Note 33.  Velocity 0
000000t:  Note on ::  Channel 1.  Note 45.  Velocity 0
000002t:  Note on ::  Channel 1.  Note 21.  Velocity 110
000000t:  Note on ::  Channel 1.  Note 33.  Velocity 110
000000t:  Note on ::  Channel 1.  Note 45.  Velocity 110
000094t:  Note on ::  Channel 1.  Note 21.  Velocity 0
000000t:  Note on ::  Channel 1.  Note 33.  Velocity 0
000000t:  Note on ::  Channel 1.  Note 45.  Velocity 0
000002t:  Note on ::  Channel 1.  Note 19.  Velocity 110
000000t:  Note on ::  Channel 1.  Note 31.  Velocity 110
000000t:  Note on ::  Channel 1.  Note 43.  Velocity 110
000094t:  Note on ::  Channel 1.  Note 19.  Velocity 0
000000t:  Note on ::  Channel 1.  Note 31.  Velocity 0
000000t:  Note on ::  Channel 1.  Note 43.  Velocity 0
000002t:  Note on ::  Channel 1.  Note 19.  Velocity 110
000000t:  Note on ::  Channel 1.  Note 31.  Velocity 110
000000t:  Note on ::  Channel 1.  Note 43.  Velocity 110
000094t:  Note on ::  Channel 1.  Note 19.  Velocity 0
000000t:  Note on ::  Channel 1.  Note 31.  Velocity 0
000000t:  Note on ::  Channel 1.  Note 43.  Velocity 0
000002t:  Note on ::  Channel 1.  Note 41.  Velocity 110
000000t:  Note on ::  Channel 1.  Note 53.  Velocity 110
001536t:  Note on ::  Channel 1.  Note 41.  Velocity 0
000000t:  Note on ::  Channel 1.  Note 53.  Velocity 0
000000t:  Note on ::  Channel 1.  Note 43.  Velocity 110
000000t:  Note on ::  Channel 1.  Note 55.  Velocity 110
001536t:  Note on ::  Channel 1.  Note 43.  Velocity 0
000000t:  Note on ::  Channel 1.  Note 55.  Velocity 0
010752t:  Note on ::  Channel 1.  Note 21.  Velocity 110
000000t:  Note on ::  Channel 1.  Note 33.  Velocity 110
000000t:  Note on ::  Channel 1.  Note 45.  Velocity 110
000094t:  Note on ::  Channel 1.  Note 21.  Velocity 0
000000t:  Note on ::  Channel 1.  Note 33.  Velocity 0
000000t:  Note on ::  Channel 1.  Note 45.  Velocity 0
000002t:  Note on ::  Channel 1.  Note 21.  Velocity 110
000000t:  Note on ::  Channel 1.  Note 33.  Velocity 110
000000t:  Note on ::  Channel 1.  Note 45.  Velocity 110
000094t:  Note on ::  Channel 1.  Note 21.  Velocity 0
000000t:  Note on ::  Channel 1.  Note 33.  Velocity 0
000000t:  Note on ::  Channel 1.  Note 45.  Velocity 0
000002t:  Note on ::  Channel 1.  Note 21.  Velocity 110
000000t:  Note on ::  Channel 1.  Note 33.  Velocity 110
000000t:  Note on ::  Channel 1.  Note 45.  Velocity 110
000094t:  Note on ::  Channel 1.  Note 21.  Velocity 0
000000t:  Note on ::  Channel 1.  Note 33.  Velocity 0
000000t:  Note on ::  Channel 1.  Note 45.  Velocity 0
000002t:  Note on ::  Channel 1.  Note 21.  Velocity 110
000000t:  Note on ::  Channel 1.  Note 33.  Velocity 110
000000t:  Note on ::  Channel 1.  Note 45.  Velocity 110
000094t:  Note on ::  Channel 1.  Note 21.  Velocity 0
000000t:  Note on ::  Channel 1.  Note 33.  Velocity 0
000000t:  Note on ::  Channel 1.  Note 45.  Velocity 0
000002t:  Note on ::  Channel 1.  Note 21.  Velocity 110
000000t:  Note on ::  Channel 1.  Note 33.  Velocity 110
000000t:  Note on ::  Channel 1.  Note 45.  Velocity 110
000094t:  Note on ::  Channel 1.  Note 21.  Velocity 0
000000t:  Note on ::  Channel 1.  Note 33.  Velocity 0
000000t:  Note on ::  Channel 1.  Note 45.  Velocity 0
000002t:  Note on ::  Channel 1.  Note 21.  Velocity 110
000000t:  Note on ::  Channel 1.  Note 33.  Velocity 110
000000t:  Note on ::  Channel 1.  Note 45.  Velocity 110
000094t:  Note on ::  Channel 1.  Note 21.  Velocity 0
000000t:  Note on ::  Channel 1.  Note 33.  Velocity 0
000000t:  Note on ::  Channel 1.  Note 45.  Velocity 0
000002t:  Note on ::  Channel 1.  Note 19.  Velocity 110
000000t:  Note on ::  Channel 1.  Note 31.  Velocity 110
000000t:  Note on ::  Channel 1.  Note 43.  Velocity 110
000094t:  Note on ::  Channel 1.  Note 19.  Velocity 0
000000t:  Note on ::  Channel 1.  Note 31.  Velocity 0
000000t:  Note on ::  Channel 1.  Note 43.  Velocity 0
000002t:  Note on ::  Channel 1.  Note 19.  Velocity 110
000000t:  Note on ::  Channel 1.  Note 31.  Velocity 110
000000t:  Note on ::  Channel 1.  Note 43.  Velocity 110
000094t:  Note on ::  Channel 1.  Note 19.  Velocity 0
000000t:  Note on ::  Channel 1.  Note 31.  Velocity 0
000000t:  Note on ::  Channel 1.  Note 43.  Velocity 0
000002t:  Note on ::  Channel 1.  Note 21.  Velocity 110
000000t:  Note on ::  Channel 1.  Note 33.  Velocity 110
000000t:  Note on ::  Channel 1.  Note 45.  Velocity 110
000094t:  Note on ::  Channel 1.  Note 21.  Velocity 0
000000t:  Note on ::  Channel 1.  Note 33.  Velocity 0
000000t:  Note on ::  Channel 1.  Note 45.  Velocity 0
000002t:  Note on ::  Channel 1.  Note 21.  Velocity 110
000000t:  Note on ::  Channel 1.  Note 33.  Velocity 110
000000t:  Note on ::  Channel 1.  Note 45.  Velocity 110
000094t:  Note on ::  Channel 1.  Note 21.  Velocity 0
000000t:  Note on ::  Channel 1.  Note 33.  Velocity 0
000000t:  Note on ::  Channel 1.  Note 45.  Velocity 0
000002t:  Note on ::  Channel 1.  Note 21.  Velocity 110
000000t:  Note on ::  Channel 1.  Note 33.  Velocity 110
000000t:  Note on ::  Channel 1.  Note 45.  Velocity 110
000094t:  Note on ::  Channel 1.  Note 21.  Velocity 0
000000t:  Note on ::  Channel 1.  Note 33.  Velocity 0
000000t:  Note on ::  Channel 1.  Note 45.  Velocity 0
000002t:  Note on ::  Channel 1.  Note 21.  Velocity 110
000000t:  Note on ::  Channel 1.  Note 33.  Velocity 110
000000t:  Note on ::  Channel 1.  Note 45.  Velocity 110
000094t:  Note on ::  Channel 1.  Note 21.  Velocity 0
000000t:  Note on ::  Channel 1.  Note 33.  Velocity 0
000000t:  Note on ::  Channel 1.  Note 45.  Velocity 0
000002t:  Note on ::  Channel 1.  Note 21.  Velocity 110
000000t:  Note on ::  Channel 1.  Note 33.  Velocity 110
000000t:  Note on ::  Channel 1.  Note 45.  Velocity 110
000094t:  Note on ::  Channel 1.  Note 21.  Velocity 0
000000t:  Note on ::  Channel 1.  Note 33.  Velocity 0
000000t:  Note on ::  Channel 1.  Note 45.  Velocity 0
000002t:  Note on ::  Channel 1.  Note 21.  Velocity 110
000000t:  Note on ::  Channel 1.  Note 33.  Velocity 110
000000t:  Note on ::  Channel 1.  Note 45.  Velocity 110
000094t:  Note on ::  Channel 1.  Note 21.  Velocity 0
000000t:  Note on ::  Channel 1.  Note 33.  Velocity 0
000000t:  Note on ::  Channel 1.  Note 45.  Velocity 0
000002t:  Note on ::  Channel 1.  Note 19.  Velocity 110
000000t:  Note on ::  Channel 1.  Note 31.  Velocity 110
000000t:  Note on ::  Channel 1.  Note 43.  Velocity 110
000094t:  Note on ::  Channel 1.  Note 19.  Velocity 0
000000t:  Note on ::  Channel 1.  Note 31.  Velocity 0
000000t:  Note on ::  Channel 1.  Note 43.  Velocity 0
000002t:  Note on ::  Channel 1.  Note 19.  Velocity 110
000000t:  Note on ::  Channel 1.  Note 31.  Velocity 110
000000t:  Note on ::  Channel 1.  Note 43.  Velocity 110
000094t:  Note on ::  Channel 1.  Note 19.  Velocity 0
000000t:  Note on ::  Channel 1.  Note 31.  Velocity 0
000000t:  Note on ::  Channel 1.  Note 43.  Velocity 0
000002t:  Note on ::  Channel 1.  Note 21.  Velocity 110
000000t:  Note on ::  Channel 1.  Note 33.  Velocity 110
000000t:  Note on ::  Channel 1.  Note 45.  Velocity 110
000094t:  Note on ::  Channel 1.  Note 21.  Velocity 0
000000t:  Note on ::  Channel 1.  Note 33.  Velocity 0
000000t:  Note on ::  Channel 1.  Note 45.  Velocity 0
000002t:  Note on ::  Channel 1.  Note 21.  Velocity 110
000000t:  Note on ::  Channel 1.  Note 33.  Velocity 110
000000t:  Note on ::  Channel 1.  Note 45.  Velocity 110
000094t:  Note on ::  Channel 1.  Note 21.  Velocity 0
000000t:  Note on ::  Channel 1.  Note 33.  Velocity 0
000000t:  Note on ::  Channel 1.  Note 45.  Velocity 0
000002t:  Note on ::  Channel 1.  Note 21.  Velocity 110
000000t:  Note on ::  Channel 1.  Note 33.  Velocity 110
000000t:  Note on ::  Channel 1.  Note 45.  Velocity 110
000094t:  Note on ::  Channel 1.  Note 21.  Velocity 0
000000t:  Note on ::  Channel 1.  Note 33.  Velocity 0
000000t:  Note on ::  Channel 1.  Note 45.  Velocity 0
000002t:  Note on ::  Channel 1.  Note 21.  Velocity 110
000000t:  Note on ::  Channel 1.  Note 33.  Velocity 110
000000t:  Note on ::  Channel 1.  Note 45.  Velocity 110
000094t:  Note on ::  Channel 1.  Note 21.  Velocity 0
000000t:  Note on ::  Channel 1.  Note 33.  Velocity 0
000000t:  Note on ::  Channel 1.  Note 45.  Velocity 0
000002t:  Note on ::  Channel 1.  Note 21.  Velocity 110
000000t:  Note on ::  Channel 1.  Note 33.  Velocity 110
000000t:  Note on ::  Channel 1.  Note 45.  Velocity 110
000094t:  Note on ::  Channel 1.  Note 21.  Velocity 0
000000t:  Note on ::  Channel 1.  Note 33.  Velocity 0
000000t:  Note on ::  Channel 1.  Note 45.  Velocity 0
000002t:  Note on ::  Channel 1.  Note 21.  Velocity 110
000000t:  Note on ::  Channel 1.  Note 33.  Velocity 110
000000t:  Note on ::  Channel 1.  Note 45.  Velocity 110
000094t:  Note on ::  Channel 1.  Note 21.  Velocity 0
000000t:  Note on ::  Channel 1.  Note 33.  Velocity 0
000000t:  Note on ::  Channel 1.  Note 45.  Velocity 0
000002t:  Note on ::  Channel 1.  Note 19.  Velocity 110
000000t:  Note on ::  Channel 1.  Note 31.  Velocity 110
000000t:  Note on ::  Channel 1.  Note 43.  Velocity 110
000094t:  Note on ::  Channel 1.  Note 19.  Velocity 0
000000t:  Note on ::  Channel 1.  Note 31.  Velocity 0
000000t:  Note on ::  Channel 1.  Note 43.  Velocity 0
000002t:  Note on ::  Channel 1.  Note 19.  Velocity 110
000000t:  Note on ::  Channel 1.  Note 31.  Velocity 110
000000t:  Note on ::  Channel 1.  Note 43.  Velocity 110
000094t:  Note on ::  Channel 1.  Note 19.  Velocity 0
000000t:  Note on ::  Channel 1.  Note 31.  Velocity 0
000000t:  Note on ::  Channel 1.  Note 43.  Velocity 0
000002t:  Note on ::  Channel 1.  Note 21.  Velocity 110
000000t:  Note on ::  Channel 1.  Note 33.  Velocity 110
000000t:  Note on ::  Channel 1.  Note 45.  Velocity 110
000094t:  Note on ::  Channel 1.  Note 21.  Velocity 0
000000t:  Note on ::  Channel 1.  Note 33.  Velocity 0
000000t:  Note on ::  Channel 1.  Note 45.  Velocity 0
000002t:  Note on ::  Channel 1.  Note 21.  Velocity 110
000000t:  Note on ::  Channel 1.  Note 33.  Velocity 110
000000t:  Note on ::  Channel 1.  Note 45.  Velocity 110
000094t:  Note on ::  Channel 1.  Note 21.  Velocity 0
000000t:  Note on ::  Channel 1.  Note 33.  Velocity 0
000000t:  Note on ::  Channel 1.  Note 45.  Velocity 0
000002t:  Note on ::  Channel 1.  Note 21.  Velocity 110
000000t:  Note on ::  Channel 1.  Note 33.  Velocity 110
000000t:  Note on ::  Channel 1.  Note 45.  Velocity 110
000094t:  Note on ::  Channel 1.  Note 21.  Velocity 0
000000t:  Note on ::  Channel 1.  Note 33.  Velocity 0
000000t:  Note on ::  Channel 1.  Note 45.  Velocity 0
000002t:  Note on ::  Channel 1.  Note 21.  Velocity 110
000000t:  Note on ::  Channel 1.  Note 33.  Velocity 110
000000t:  Note on ::  Channel 1.  Note 45.  Velocity 110
000094t:  Note on ::  Channel 1.  Note 21.  Velocity 0
000000t:  Note on ::  Channel 1.  Note 33.  Velocity 0
000000t:  Note on ::  Channel 1.  Note 45.  Velocity 0
000002t:  Note on ::  Channel 1.  Note 21.  Velocity 110
000000t:  Note on ::  Channel 1.  Note 33.  Velocity 110
000000t:  Note on ::  Channel 1.  Note 45.  Velocity 110
000094t:  Note on ::  Channel 1.  Note 21.  Velocity 0
000000t:  Note on ::  Channel 1.  Note 33.  Velocity 0
000000t:  Note on ::  Channel 1.  Note 45.  Velocity 0
000002t:  Note on ::  Channel 1.  Note 21.  Velocity 110
000000t:  Note on ::  Channel 1.  Note 33.  Velocity 110
000000t:  Note on ::  Channel 1.  Note 45.  Velocity 110
000094t:  Note on ::  Channel 1.  Note 21.  Velocity 0
000000t:  Note on ::  Channel 1.  Note 33.  Velocity 0
000000t:  Note on ::  Channel 1.  Note 45.  Velocity 0
000002t:  Note on ::  Channel 1.  Note 19.  Velocity 110
000000t:  Note on ::  Channel 1.  Note 31.  Velocity 110
000000t:  Note on ::  Channel 1.  Note 43.  Velocity 110
000094t:  Note on ::  Channel 1.  Note 19.  Velocity 0
000000t:  Note on ::  Channel 1.  Note 31.  Velocity 0
000000t:  Note on ::  Channel 1.  Note 43.  Velocity 0
000002t:  Note on ::  Channel 1.  Note 19.  Velocity 110
000000t:  Note on ::  Channel 1.  Note 31.  Velocity 110
000000t:  Note on ::  Channel 1.  Note 43.  Velocity 110
000094t:  Note on ::  Channel 1.  Note 19.  Velocity 0
000000t:  Note on ::  Channel 1.  Note 31.  Velocity 0
000000t:  Note on ::  Channel 1.  Note 43.  Velocity 0
000002t:  Note on ::  Channel 1.  Note 17.  Velocity 110
000000t:  Note on ::  Channel 1.  Note 29.  Velocity 110
000000t:  Note on ::  Channel 1.  Note 41.  Velocity 110
001344t:  Note on ::  Channel 1.  Note 17.  Velocity 0
000000t:  Note on ::  Channel 1.  Note 29.  Velocity 0
000000t:  Note on ::  Channel 1.  Note 41.  Velocity 0
000000t:  Note on ::  Channel 1.  Note 19.  Velocity 110
000000t:  Note on ::  Channel 1.  Note 31.  Velocity 110
000000t:  Note on ::  Channel 1.  Note 43.  Velocity 110
001536t:  Note on ::  Channel 1.  Note 19.  Velocity 0
000000t:  Note on ::  Channel 1.  Note 31.  Velocity 0
000000t:  Note on ::  Channel 1.  Note 43.  Velocity 0
000000t:  Note on ::  Channel 1.  Note 21.  Velocity 110
000000t:  Note on ::  Channel 1.  Note 33.  Velocity 110
000000t:  Note on ::  Channel 1.  Note 45.  Velocity 110
000094t:  Note on ::  Channel 1.  Note 21.  Velocity 0
000000t:  Note on ::  Channel 1.  Note 33.  Velocity 0
000000t:  Note on ::  Channel 1.  Note 45.  Velocity 0
000002t:  Note on ::  Channel 1.  Note 21.  Velocity 110
000000t:  Note on ::  Channel 1.  Note 33.  Velocity 110
000000t:  Note on ::  Channel 1.  Note 45.  Velocity 110
000094t:  Note on ::  Channel 1.  Note 21.  Velocity 0
000000t:  Note on ::  Channel 1.  Note 33.  Velocity 0
000000t:  Note on ::  Channel 1.  Note 45.  Velocity 0
000002t:  Note on ::  Channel 1.  Note 21.  Velocity 110
000000t:  Note on ::  Channel 1.  Note 33.  Velocity 110
000000t:  Note on ::  Channel 1.  Note 45.  Velocity 110
000094t:  Note on ::  Channel 1.  Note 21.  Velocity 0
000000t:  Note on ::  Channel 1.  Note 33.  Velocity 0
000000t:  Note on ::  Channel 1.  Note 45.  Velocity 0
000002t:  Note on ::  Channel 1.  Note 21.  Velocity 110
000000t:  Note on ::  Channel 1.  Note 33.  Velocity 110
000000t:  Note on ::  Channel 1.  Note 45.  Velocity 110
000094t:  Note on ::  Channel 1.  Note 21.  Velocity 0
000000t:  Note on ::  Channel 1.  Note 33.  Velocity 0
000000t:  Note on ::  Channel 1.  Note 45.  Velocity 0
000002t:  Note on ::  Channel 1.  Note 21.  Velocity 110
000000t:  Note on ::  Channel 1.  Note 33.  Velocity 110
000000t:  Note on ::  Channel 1.  Note 45.  Velocity 110
000094t:  Note on ::  Channel 1.  Note 21.  Velocity 0
000000t:  Note on ::  Channel 1.  Note 33.  Velocity 0
000000t:  Note on ::  Channel 1.  Note 45.  Velocity 0
000002t:  Note on ::  Channel 1.  Note 21.  Velocity 110
000000t:  Note on ::  Channel 1.  Note 33.  Velocity 110
000000t:  Note on ::  Channel 1.  Note 45.  Velocity 110
000094t:  Note on ::  Channel 1.  Note 21.  Velocity 0
000000t:  Note on ::  Channel 1.  Note 33.  Velocity 0
000000t:  Note on ::  Channel 1.  Note 45.  Velocity 0
000002t:  Note on ::  Channel 1.  Note 19.  Velocity 110
000000t:  Note on ::  Channel 1.  Note 31.  Velocity 110
000000t:  Note on ::  Channel 1.  Note 43.  Velocity 110
000094t:  Note on ::  Channel 1.  Note 19.  Velocity 0
000000t:  Note on ::  Channel 1.  Note 31.  Velocity 0
000000t:  Note on ::  Channel 1.  Note 43.  Velocity 0
000002t:  Note on ::  Channel 1.  Note 19.  Velocity 110
000000t:  Note on ::  Channel 1.  Note 31.  Velocity 110
000000t:  Note on ::  Channel 1.  Note 43.  Velocity 110
000094t:  Note on ::  Channel 1.  Note 19.  Velocity 0
000000t:  Note on ::  Channel 1.  Note 31.  Velocity 0
000000t:  Note on ::  Channel 1.  Note 43.  Velocity 0
000002t:  Note on ::  Channel 1.  Note 21.  Velocity 110
000000t:  Note on ::  Channel 1.  Note 33.  Velocity 110
000000t:  Note on ::  Channel 1.  Note 45.  Velocity 110
000094t:  Note on ::  Channel 1.  Note 21.  Velocity 0
000000t:  Note on ::  Channel 1.  Note 33.  Velocity 0
000000t:  Note on ::  Channel 1.  Note 45.  Velocity 0
000002t:  Note on ::  Channel 1.  Note 21.  Velocity 110
000000t:  Note on ::  Channel 1.  Note 33.  Velocity 110
000000t:  Note on ::  Channel 1.  Note 45.  Velocity 110
000094t:  Note on ::  Channel 1.  Note 21.  Velocity 0
000000t:  Note on ::  Channel 1.  Note 33.  Velocity 0
000000t:  Note on ::  Channel 1.  Note 45.  Velocity 0
000002t:  Note on ::  Channel 1.  Note 21.  Velocity 110
000000t:  Note on ::  Channel 1.  Note 33.  Velocity 110
000000t:  Note on ::  Channel 1.  Note 45.  Velocity 110
000094t:  Note on ::  Channel 1.  Note 21.  Velocity 0
000000t:  Note on ::  Channel 1.  Note 33.  Velocity 0
000000t:  Note on ::  Channel 1.  Note 45.  Velocity 0
000002t:  Note on ::  Channel 1.  Note 21.  Velocity 110
000000t:  Note on ::  Channel 1.  Note 33.  Velocity 110
000000t:  Note on ::  Channel 1.  Note 45.  Velocity 110
000094t:  Note on ::  Channel 1.  Note 21.  Velocity 0
000000t:  Note on ::  Channel 1.  Note 33.  Velocity 0
000000t:  Note on ::  Channel 1.  Note 45.  Velocity 0
000002t:  Note on ::  Channel 1.  Note 21.  Velocity 110
000000t:  Note on ::  Channel 1.  Note 33.  Velocity 110
000000t:  Note on ::  Channel 1.  Note 45.  Velocity 110
000094t:  Note on ::  Channel 1.  Note 21.  Velocity 0
000000t:  Note on ::  Channel 1.  Note 33.  Velocity 0
000000t:  Note on ::  Channel 1.  Note 45.  Velocity 0
000002t:  Note on ::  Channel 1.  Note 21.  Velocity 110
000000t:  Note on ::  Channel 1.  Note 33.  Velocity 110
000000t:  Note on ::  Channel 1.  Note 45.  Velocity 110
000094t:  Note on ::  Channel 1.  Note 21.  Velocity 0
000000t:  Note on ::  Channel 1.  Note 33.  Velocity 0
000000t:  Note on ::  Channel 1.  Note 45.  Velocity 0
000002t:  Note on ::  Channel 1.  Note 19.  Velocity 110
000000t:  Note on ::  Channel 1.  Note 31.  Velocity 110
000000t:  Note on ::  Channel 1.  Note 43.  Velocity 110
000094t:  Note on ::  Channel 1.  Note 19.  Velocity 0
000000t:  Note on ::  Channel 1.  Note 31.  Velocity 0
000000t:  Note on ::  Channel 1.  Note 43.  Velocity 0
000002t:  Note on ::  Channel 1.  Note 19.  Velocity 110
000000t:  Note on ::  Channel 1.  Note 31.  Velocity 110
000000t:  Note on ::  Channel 1.  Note 43.  Velocity 110
000094t:  Note on ::  Channel 1.  Note 19.  Velocity 0
000000t:  Note on ::  Channel 1.  Note 31.  Velocity 0
000000t:  Note on ::  Channel 1.  Note 43.  Velocity 0
000002t:  Note on ::  Channel 1.  Note 21.  Velocity 110
000000t:  Note on ::  Channel 1.  Note 33.  Velocity 110
000000t:  Note on ::  Channel 1.  Note 45.  Velocity 110
000094t:  Note on ::  Channel 1.  Note 21.  Velocity 0
000000t:  Note on ::  Channel 1.  Note 33.  Velocity 0
000000t:  Note on ::  Channel 1.  Note 45.  Velocity 0
000002t:  Note on ::  Channel 1.  Note 21.  Velocity 110
000000t:  Note on ::  Channel 1.  Note 33.  Velocity 110
000000t:  Note on ::  Channel 1.  Note 45.  Velocity 110
000094t:  Note on ::  Channel 1.  Note 21.  Velocity 0
000000t:  Note on ::  Channel 1.  Note 33.  Velocity 0
000000t:  Note on ::  Channel 1.  Note 45.  Velocity 0
000002t:  Note on ::  Channel 1.  Note 21.  Velocity 110
000000t:  Note on ::  Channel 1.  Note 33.  Velocity 110
000000t:  Note on ::  Channel 1.  Note 45.  Velocity 110
000094t:  Note on ::  Channel 1.  Note 21.  Velocity 0
000000t:  Note on ::  Channel 1.  Note 33.  Velocity 0
000000t:  Note on ::  Channel 1.  Note 45.  Velocity 0
000002t:  Note on ::  Channel 1.  Note 21.  Velocity 110
000000t:  Note on ::  Channel 1.  Note 33.  Velocity 110
000000t:  Note on ::  Channel 1.  Note 45.  Velocity 110
000094t:  Note on ::  Channel 1.  Note 21.  Velocity 0
000000t:  Note on ::  Channel 1.  Note 33.  Velocity 0
000000t:  Note on ::  Channel 1.  Note 45.  Velocity 0
000002t:  Note on ::  Channel 1.  Note 21.  Velocity 110
000000t:  Note on ::  Channel 1.  Note 33.  Velocity 110
000000t:  Note on ::  Channel 1.  Note 45.  Velocity 110
000094t:  Note on ::  Channel 1.  Note 21.  Velocity 0
000000t:  Note on ::  Channel 1.  Note 33.  Velocity 0
000000t:  Note on ::  Channel 1.  Note 45.  Velocity 0
000002t:  Note on ::  Channel 1.  Note 21.  Velocity 110
000000t:  Note on ::  Channel 1.  Note 33.  Velocity 110
000000t:  Note on ::  Channel 1.  Note 45.  Velocity 110
000094t:  Note on ::  Channel 1.  Note 21.  Velocity 0
000000t:  Note on ::  Channel 1.  Note 33.  Velocity 0
000000t:  Note on ::  Channel 1.  Note 45.  Velocity 0
000002t:  Note on ::  Channel 1.  Note 19.  Velocity 110
000000t:  Note on ::  Channel 1.  Note 31.  Velocity 110
000000t:  Note on ::  Channel 1.  Note 43.  Velocity 110
000094t:  Note on ::  Channel 1.  Note 19.  Velocity 0
000000t:  Note on ::  Channel 1.  Note 31.  Velocity 0
000000t:  Note on ::  Channel 1.  Note 43.  Velocity 0
000002t:  Note on ::  Channel 1.  Note 19.  Velocity 110
000000t:  Note on ::  Channel 1.  Note 31.  Velocity 110
000000t:  Note on ::  Channel 1.  Note 43.  Velocity 110
000094t:  Note on ::  Channel 1.  Note 19.  Velocity 0
000000t:  Note on ::  Channel 1.  Note 31.  Velocity 0
000000t:  Note on ::  Channel 1.  Note 43.  Velocity 0
000002t:  Note on ::  Channel 1.  Note 21.  Velocity 110
000000t:  Note on ::  Channel 1.  Note 33.  Velocity 110
000000t:  Note on ::  Channel 1.  Note 45.  Velocity 110
000094t:  Note on ::  Channel 1.  Note 21.  Velocity 0
000000t:  Note on ::  Channel 1.  Note 33.  Velocity 0
000000t:  Note on ::  Channel 1.  Note 45.  Velocity 0
000002t:  Note on ::  Channel 1.  Note 21.  Velocity 110
000000t:  Note on ::  Channel 1.  Note 33.  Velocity 110
000000t:  Note on ::  Channel 1.  Note 45.  Velocity 110
000094t:  Note on ::  Channel 1.  Note 21.  Velocity 0
000000t:  Note on ::  Channel 1.  Note 33.  Velocity 0
000000t:  Note on ::  Channel 1.  Note 45.  Velocity 0
000002t:  Note on ::  Channel 1.  Note 21.  Velocity 110
000000t:  Note on ::  Channel 1.  Note 33.  Velocity 110
000000t:  Note on ::  Channel 1.  Note 45.  Velocity 110
000094t:  Note on ::  Channel 1.  Note 21.  Velocity 0
000000t:  Note on ::  Channel 1.  Note 33.  Velocity 0
000000t:  Note on ::  Channel 1.  Note 45.  Velocity 0
000002t:  Note on ::  Channel 1.  Note 21.  Velocity 110
000000t:  Note on ::  Channel 1.  Note 33.  Velocity 110
000000t:  Note on ::  Channel 1.  Note 45.  Velocity 110
000094t:  Note on ::  Channel 1.  Note 21.  Velocity 0
000000t:  Note on ::  Channel 1.  Note 33.  Velocity 0
000000t:  Note on ::  Channel 1.  Note 45.  Velocity 0
000002t:  Note on ::  Channel 1.  Note 21.  Velocity 110
000000t:  Note on ::  Channel 1.  Note 33.  Velocity 110
000000t:  Note on ::  Channel 1.  Note 45.  Velocity 110
000094t:  Note on ::  Channel 1.  Note 21.  Velocity 0
000000t:  Note on ::  Channel 1.  Note 33.  Velocity 0
000000t:  Note on ::  Channel 1.  Note 45.  Velocity 0
000002t:  Note on ::  Channel 1.  Note 21.  Velocity 110
000000t:  Note on ::  Channel 1.  Note 33.  Velocity 110
000000t:  Note on ::  Channel 1.  Note 45.  Velocity 110
000094t:  Note on ::  Channel 1.  Note 21.  Velocity 0
000000t:  Note on ::  Channel 1.  Note 33.  Velocity 0
000000t:  Note on ::  Channel 1.  Note 45.  Velocity 0
000002t:  Note on ::  Channel 1.  Note 19.  Velocity 110
000000t:  Note on ::  Channel 1.  Note 31.  Velocity 110
000000t:  Note on ::  Channel 1.  Note 43.  Velocity 110
000094t:  Note on ::  Channel 1.  Note 19.  Velocity 0
000000t:  Note on ::  Channel 1.  Note 31.  Velocity 0
000000t:  Note on ::  Channel 1.  Note 43.  Velocity 0
000002t:  Note on ::  Channel 1.  Note 19.  Velocity 110
000000t:  Note on ::  Channel 1.  Note 31.  Velocity 110
000000t:  Note on ::  Channel 1.  Note 43.  Velocity 110
000094t:  Note on ::  Channel 1.  Note 19.  Velocity 0
000000t:  Note on ::  Channel 1.  Note 31.  Velocity 0
000000t:  Note on ::  Channel 1.  Note 43.  Velocity 0
000002t:  Note on ::  Channel 1.  Note 21.  Velocity 110
000000t:  Note on ::  Channel 1.  Note 33.  Velocity 110
000000t:  Note on ::  Channel 1.  Note 45.  Velocity 110
000094t:  Note on ::  Channel 1.  Note 21.  Velocity 0
000000t:  Note on ::  Channel 1.  Note 33.  Velocity 0
000000t:  Note on ::  Channel 1.  Note 45.  Velocity 0
000194t:  Note on ::  Channel 1.  Note 21.  Velocity 110
000000t:  Note on ::  Channel 1.  Note 33.  Velocity 110
000000t:  Note on ::  Channel 1.  Note 45.  Velocity 110
000094t:  Note on ::  Channel 1.  Note 21.  Velocity 0
000000t:  Note on ::  Channel 1.  Note 33.  Velocity 0
000000t:  Note on ::  Channel 1.  Note 45.  Velocity 0
000098t:  Note on ::  Channel 1.  Note 16.  Velocity 110
000000t:  Note on ::  Channel 1.  Note 28.  Velocity 110
000000t:  Note on ::  Channel 1.  Note 40.  Velocity 110
000094t:  Note on ::  Channel 1.  Note 16.  Velocity 0
000000t:  Note on ::  Channel 1.  Note 28.  Velocity 0
000000t:  Note on ::  Channel 1.  Note 40.  Velocity 0
000002t:  Note on ::  Channel 1.  Note 22.  Velocity 110
000000t:  Note on ::  Channel 1.  Note 34.  Velocity 110
000000t:  Note on ::  Channel 1.  Note 46.  Velocity 110
000094t:  Note on ::  Channel 1.  Note 22.  Velocity 0
000000t:  Note on ::  Channel 1.  Note 34.  Velocity 0
000000t:  Note on ::  Channel 1.  Note 46.  Velocity 0
000002t:  Note on ::  Channel 1.  Note 20.  Velocity 110
000000t:  Note on ::  Channel 1.  Note 32.  Velocity 110
000000t:  Note on ::  Channel 1.  Note 44.  Velocity 110
000094t:  Note on ::  Channel 1.  Note 20.  Velocity 0
000000t:  Note on ::  Channel 1.  Note 32.  Velocity 0
000000t:  Note on ::  Channel 1.  Note 44.  Velocity 0
000002t:  Note on ::  Channel 1.  Note 21.  Velocity 110
000000t:  Note on ::  Channel 1.  Note 33.  Velocity 110
000000t:  Note on ::  Channel 1.  Note 45.  Velocity 110
000094t:  Note on ::  Channel 1.  Note 21.  Velocity 0
000000t:  Note on ::  Channel 1.  Note 33.  Velocity 0
000000t:  Note on ::  Channel 1.  Note 45.  Velocity 0
000194t:  Note on ::  Channel 1.  Note 21.  Velocity 110
000000t:  Note on ::  Channel 1.  Note 33.  Velocity 110
000000t:  Note on ::  Channel 1.  Note 45.  Velocity 110
000094t:  Note on ::  Channel 1.  Note 21.  Velocity 0
000000t:  Note on ::  Channel 1.  Note 33.  Velocity 0
000000t:  Note on ::  Channel 1.  Note 45.  Velocity 0
000098t:  Note on ::  Channel 1.  Note 16.  Velocity 110
000000t:  Note on ::  Channel 1.  Note 28.  Velocity 110
000000t:  Note on ::  Channel 1.  Note 40.  Velocity 110
000094t:  Note on ::  Channel 1.  Note 16.  Velocity 0
000000t:  Note on ::  Channel 1.  Note 28.  Velocity 0
000000t:  Note on ::  Channel 1.  Note 40.  Velocity 0
000002t:  Note on ::  Channel 1.  Note 19.  Velocity 110
000000t:  Note on ::  Channel 1.  Note 31.  Velocity 110
000000t:  Note on ::  Channel 1.  Note 43.  Velocity 110
000094t:  Note on ::  Channel 1.  Note 19.  Velocity 0
000000t:  Note on ::  Channel 1.  Note 31.  Velocity 0
000000t:  Note on ::  Channel 1.  Note 43.  Velocity 0
000002t:  Note on ::  Channel 1.  Note 20.  Velocity 110
000000t:  Note on ::  Channel 1.  Note 32.  Velocity 110
000000t:  Note on ::  Channel 1.  Note 44.  Velocity 110
000094t:  Note on ::  Channel 1.  Note 20.  Velocity 0
000000t:  Note on ::  Channel 1.  Note 32.  Velocity 0
000000t:  Note on ::  Channel 1.  Note 44.  Velocity 0
000002t:  Note on ::  Channel 1.  Note 21.  Velocity 110
000000t:  Note on ::  Channel 1.  Note 33.  Velocity 110
000000t:  Note on ::  Channel 1.  Note 45.  Velocity 110
000094t:  Note on ::  Channel 1.  Note 21.  Velocity 0
000000t:  Note on ::  Channel 1.  Note 33.  Velocity 0
000000t:  Note on ::  Channel 1.  Note 45.  Velocity 0
000002t:  Note on ::  Channel 1.  Note 21.  Velocity 110
000000t:  Note on ::  Channel 1.  Note 33.  Velocity 110
000000t:  Note on ::  Channel 1.  Note 45.  Velocity 110
000094t:  Note on ::  Channel 1.  Note 21.  Velocity 0
000000t:  Note on ::  Channel 1.  Note 33.  Velocity 0
000000t:  Note on ::  Channel 1.  Note 45.  Velocity 0
000002t:  Note on ::  Channel 1.  Note 21.  Velocity 110
000000t:  Note on ::  Channel 1.  Note 33.  Velocity 110
000000t:  Note on ::  Channel 1.  Note 45.  Velocity 110
000094t:  Note on ::  Channel 1.  Note 21.  Velocity 0
000000t:  Note on ::  Channel 1.  Note 33.  Velocity 0
000000t:  Note on ::  Channel 1.  Note 45.  Velocity 0
000002t:  Note on ::  Channel 1.  Note 21.  Velocity 110
000000t:  Note on ::  Channel 1.  Note 33.  Velocity 110
000000t:  Note on ::  Channel 1.  Note 45.  Velocity 110
000094t:  Note on ::  Channel 1.  Note 21.  Velocity 0
000000t:  Note on ::  Channel 1.  Note 33.  Velocity 0
000000t:  Note on ::  Channel 1.  Note 45.  Velocity 0
000002t:  Note on ::  Channel 1.  Note 21.  Velocity 110
000000t:  Note on ::  Channel 1.  Note 33.  Velocity 110
000000t:  Note on ::  Channel 1.  Note 45.  Velocity 110
000094t:  Note on ::  Channel 1.  Note 21.  Velocity 0
000000t:  Note on ::  Channel 1.  Note 33.  Velocity 0
000000t:  Note on ::  Channel 1.  Note 45.  Velocity 0
000002t:  Note on ::  Channel 1.  Note 21.  Velocity 110
000000t:  Note on ::  Channel 1.  Note 33.  Velocity 110
000000t:  Note on ::  Channel 1.  Note 45.  Velocity 110
000094t:  Note on ::  Channel 1.  Note 21.  Velocity 0
000000t:  Note on ::  Channel 1.  Note 33.  Velocity 0
000000t:  Note on ::  Channel 1.  Note 45.  Velocity 0
000002t:  Note on ::  Channel 1.  Note 19.  Velocity 110
000000t:  Note on ::  Channel 1.  Note 31.  Velocity 110
000000t:  Note on ::  Channel 1.  Note 43.  Velocity 110
000094t:  Note on ::  Channel 1.  Note 19.  Velocity 0
000000t:  Note on ::  Channel 1.  Note 31.  Velocity 0
000000t:  Note on ::  Channel 1.  Note 43.  Velocity 0
000002t:  Note on ::  Channel 1.  Note 19.  Velocity 110
000000t:  Note on ::  Channel 1.  Note 31.  Velocity 110
000000t:  Note on ::  Channel 1.  Note 43.  Velocity 110
000094t:  Note on ::  Channel 1.  Note 19.  Velocity 0
000000t:  Note on ::  Channel 1.  Note 31.  Velocity 0
000000t:  Note on ::  Channel 1.  Note 43.  Velocity 0
000002t:  Note on ::  Channel 1.  Note 21.  Velocity 110
000000t:  Note on ::  Channel 1.  Note 33.  Velocity 110
000000t:  Note on ::  Channel 1.  Note 45.  Velocity 110
000094t:  Note on ::  Channel 1.  Note 21.  Velocity 0
000000t:  Note on ::  Channel 1.  Note 33.  Velocity 0
000000t:  Note on ::  Channel 1.  Note 45.  Velocity 0
000002t:  Note on ::  Channel 1.  Note 21.  Velocity 110
000000t:  Note on ::  Channel 1.  Note 33.  Velocity 110
000000t:  Note on ::  Channel 1.  Note 45.  Velocity 110
000094t:  Note on ::  Channel 1.  Note 21.  Velocity 0
000000t:  Note on ::  Channel 1.  Note 33.  Velocity 0
000000t:  Note on ::  Channel 1.  Note 45.  Velocity 0
000002t:  Note on ::  Channel 1.  Note 21.  Velocity 110
000000t:  Note on ::  Channel 1.  Note 33.  Velocity 110
000000t:  Note on ::  Channel 1.  Note 45.  Velocity 110
000094t:  Note on ::  Channel 1.  Note 21.  Velocity 0
000000t:  Note on ::  Channel 1.  Note 33.  Velocity 0
000000t:  Note on ::  Channel 1.  Note 45.  Velocity 0
000002t:  Note on ::  Channel 1.  Note 21.  Velocity 110
000000t:  Note on ::  Channel 1.  Note 33.  Velocity 110
000000t:  Note on ::  Channel 1.  Note 45.  Velocity 110
000094t:  Note on ::  Channel 1.  Note 21.  Velocity 0
000000t:  Note on ::  Channel 1.  Note 33.  Velocity 0
000000t:  Note on ::  Channel 1.  Note 45.  Velocity 0
000002t:  Note on ::  Channel 1.  Note 21.  Velocity 110
000000t:  Note on ::  Channel 1.  Note 33.  Velocity 110
000000t:  Note on ::  Channel 1.  Note 45.  Velocity 110
000094t:  Note on ::  Channel 1.  Note 21.  Velocity 0
000000t:  Note on ::  Channel 1.  Note 33.  Velocity 0
000000t:  Note on ::  Channel 1.  Note 45.  Velocity 0
000002t:  Note on ::  Channel 1.  Note 21.  Velocity 110
000000t:  Note on ::  Channel 1.  Note 33.  Velocity 110
000000t:  Note on ::  Channel 1.  Note 45.  Velocity 110
000094t:  Note on ::  Channel 1.  Note 21.  Velocity 0
000000t:  Note on ::  Channel 1.  Note 33.  Velocity 0
000000t:  Note on ::  Channel 1.  Note 45.  Velocity 0
000002t:  Note on ::  Channel 1.  Note 19.  Velocity 110
000000t:  Note on ::  Channel 1.  Note 31.  Velocity 110
000000t:  Note on ::  Channel 1.  Note 43.  Velocity 110
000094t:  Note on ::  Channel 1.  Note 19.  Velocity 0
000000t:  Note on ::  Channel 1.  Note 31.  Velocity 0
000000t:  Note on ::  Channel 1.  Note 43.  Velocity 0
000002t:  Note on ::  Channel 1.  Note 19.  Velocity 110
000000t:  Note on ::  Channel 1.  Note 31.  Velocity 110
000000t:  Note on ::  Channel 1.  Note 43.  Velocity 110
000094t:  Note on ::  Channel 1.  Note 19.  Velocity 0
000000t:  Note on ::  Channel 1.  Note 31.  Velocity 0
000000t:  Note on ::  Channel 1.  Note 43.  Velocity 0
000002t:  Note on ::  Channel 1.  Note 17.  Velocity 110
000000t:  Note on ::  Channel 1.  Note 29.  Velocity 110
000000t:  Note on ::  Channel 1.  Note 41.  Velocity 110
000094t:  Note on ::  Channel 1.  Note 17.  Velocity 0
000000t:  Note on ::  Channel 1.  Note 29.  Velocity 0
000000t:  Note on ::  Channel 1.  Note 41.  Velocity 0
000194t:  Note on ::  Channel 1.  Note 17.  Velocity 110
000000t:  Note on ::  Channel 1.  Note 29.  Velocity 110
000000t:  Note on ::  Channel 1.  Note 41.  Velocity 110
000094t:  Note on ::  Channel 1.  Note 17.  Velocity 0
000000t:  Note on ::  Channel 1.  Note 29.  Velocity 0
000000t:  Note on ::  Channel 1.  Note 41.  Velocity 0
000194t:  Note on ::  Channel 1.  Note 24.  Velocity 110
000000t:  Note on ::  Channel 1.  Note 36.  Velocity 110
000000t:  Note on ::  Channel 1.  Note 48.  Velocity 110
000094t:  Note on ::  Channel 1.  Note 24.  Velocity 0
000000t:  Note on ::  Channel 1.  Note 36.  Velocity 0
000000t:  Note on ::  Channel 1.  Note 48.  Velocity 0
000098t:  Note on ::  Channel 1.  Note 19.  Velocity 110
000000t:  Note on ::  Channel 1.  Note 31.  Velocity 110
000000t:  Note on ::  Channel 1.  Note 43.  Velocity 110
000094t:  Note on ::  Channel 1.  Note 19.  Velocity 0
000000t:  Note on ::  Channel 1.  Note 31.  Velocity 0
000000t:  Note on ::  Channel 1.  Note 43.  Velocity 0
000194t:  Note on ::  Channel 1.  Note 19.  Velocity 110
000000t:  Note on ::  Channel 1.  Note 31.  Velocity 110
000000t:  Note on ::  Channel 1.  Note 43.  Velocity 110
000094t:  Note on ::  Channel 1.  Note 19.  Velocity 0
000000t:  Note on ::  Channel 1.  Note 31.  Velocity 0
000000t:  Note on ::  Channel 1.  Note 43.  Velocity 0
000098t:  Note on ::  Channel 1.  Note 14.  Velocity 110
000000t:  Note on ::  Channel 1.  Note 26.  Velocity 110
000000t:  Note on ::  Channel 1.  Note 38.  Velocity 110
000094t:  Note on ::  Channel 1.  Note 14.  Velocity 0
000000t:  Note on ::  Channel 1.  Note 26.  Velocity 0
000000t:  Note on ::  Channel 1.  Note 38.  Velocity 0
000002t:  Note on ::  Channel 1.  Note 23.  Velocity 110
000000t:  Note on ::  Channel 1.  Note 35.  Velocity 110
000000t:  Note on ::  Channel 1.  Note 47.  Velocity 110
000094t:  Note on ::  Channel 1.  Note 23.  Velocity 0
000000t:  Note on ::  Channel 1.  Note 35.  Velocity 0
000000t:  Note on ::  Channel 1.  Note 47.  Velocity 0
000002t:  Note on ::  Channel 1.  Note 19.  Velocity 110
000000t:  Note on ::  Channel 1.  Note 31.  Velocity 110
000000t:  Note on ::  Channel 1.  Note 43.  Velocity 110
000094t:  Note on ::  Channel 1.  Note 19.  Velocity 0
000000t:  Note on ::  Channel 1.  Note 31.  Velocity 0
000000t:  Note on ::  Channel 1.  Note 43.  Velocity 0
000002t:  Note on ::  Channel 1.  Note 21.  Velocity 110
000000t:  Note on ::  Channel 1.  Note 33.  Velocity 110
000000t:  Note on ::  Channel 1.  Note 45.  Velocity 110
000094t:  Note on ::  Channel 1.  Note 21.  Velocity 0
000000t:  Note on ::  Channel 1.  Note 33.  Velocity 0
000000t:  Note on ::  Channel 1.  Note 45.  Velocity 0
000002t:  Note on ::  Channel 1.  Note 21.  Velocity 110
000000t:  Note on ::  Channel 1.  Note 33.  Velocity 110
000000t:  Note on ::  Channel 1.  Note 45.  Velocity 110
000094t:  Note on ::  Channel 1.  Note 21.  Velocity 0
000000t:  Note on ::  Channel 1.  Note 33.  Velocity 0
000000t:  Note on ::  Channel 1.  Note 45.  Velocity 0
000002t:  Note on ::  Channel 1.  Note 21.  Velocity 110
000000t:  Note on ::  Channel 1.  Note 33.  Velocity 110
000000t:  Note on ::  Channel 1.  Note 45.  Velocity 110
000094t:  Note on ::  Channel 1.  Note 21.  Velocity 0
000000t:  Note on ::  Channel 1.  Note 33.  Velocity 0
000000t:  Note on ::  Channel 1.  Note 45.  Velocity 0
000002t:  Note on ::  Channel 1.  Note 21.  Velocity 110
000000t:  Note on ::  Channel 1.  Note 33.  Velocity 110
000000t:  Note on ::  Channel 1.  Note 45.  Velocity 110
000094t:  Note on ::  Channel 1.  Note 21.  Velocity 0
000000t:  Note on ::  Channel 1.  Note 33.  Velocity 0
000000t:  Note on ::  Channel 1.  Note 45.  Velocity 0
000002t:  Note on ::  Channel 1.  Note 21.  Velocity 110
000000t:  Note on ::  Channel 1.  Note 33.  Velocity 110
000000t:  Note on ::  Channel 1.  Note 45.  Velocity 110
000094t:  Note on ::  Channel 1.  Note 21.  Velocity 0
000000t:  Note on ::  Channel 1.  Note 33.  Velocity 0
000000t:  Note on ::  Channel 1.  Note 45.  Velocity 0
000002t:  Note on ::  Channel 1.  Note 21.  Velocity 110
000000t:  Note on ::  Channel 1.  Note 33.  Velocity 110
000000t:  Note on ::  Channel 1.  Note 45.  Velocity 110
000094t:  Note on ::  Channel 1.  Note 21.  Velocity 0
000000t:  Note on ::  Channel 1.  Note 33.  Velocity 0
000000t:  Note on ::  Channel 1.  Note 45.  Velocity 0
000002t:  Note on ::  Channel 1.  Note 19.  Velocity 110
000000t:  Note on ::  Channel 1.  Note 31.  Velocity 110
000000t:  Note on ::  Channel 1.  Note 43.  Velocity 110
000094t:  Note on ::  Channel 1.  Note 19.  Velocity 0
000000t:  Note on ::  Channel 1.  Note 31.  Velocity 0
000000t:  Note on ::  Channel 1.  Note 43.  Velocity 0
000002t:  Note on ::  Channel 1.  Note 19.  Velocity 110
000000t:  Note on ::  Channel 1.  Note 31.  Velocity 110
000000t:  Note on ::  Channel 1.  Note 43.  Velocity 110
000094t:  Note on ::  Channel 1.  Note 19.  Velocity 0
000000t:  Note on ::  Channel 1.  Note 31.  Velocity 0
000000t:  Note on ::  Channel 1.  Note 43.  Velocity 0
000002t:  Note on ::  Channel 1.  Note 21.  Velocity 110
000000t:  Note on ::  Channel 1.  Note 33.  Velocity 110
000000t:  Note on ::  Channel 1.  Note 45.  Velocity 110
000094t:  Note on ::  Channel 1.  Note 21.  Velocity 0
000000t:  Note on ::  Channel 1.  Note 33.  Velocity 0
000000t:  Note on ::  Channel 1.  Note 45.  Velocity 0
000002t:  Note on ::  Channel 1.  Note 21.  Velocity 110
000000t:  Note on ::  Channel 1.  Note 33.  Velocity 110
000000t:  Note on ::  Channel 1.  Note 45.  Velocity 110
000094t:  Note on ::  Channel 1.  Note 21.  Velocity 0
000000t:  Note on ::  Channel 1.  Note 33.  Velocity 0
000000t:  Note on ::  Channel 1.  Note 45.  Velocity 0
000002t:  Note on ::  Channel 1.  Note 21.  Velocity 110
000000t:  Note on ::  Channel 1.  Note 33.  Velocity 110
000000t:  Note on ::  Channel 1.  Note 45.  Velocity 110
000094t:  Note on ::  Channel 1.  Note 21.  Velocity 0
000000t:  Note on ::  Channel 1.  Note 33.  Velocity 0
000000t:  Note on ::  Channel 1.  Note 45.  Velocity 0
000002t:  Note on ::  Channel 1.  Note 21.  Velocity 110
000000t:  Note on ::  Channel 1.  Note 33.  Velocity 110
000000t:  Note on ::  Channel 1.  Note 45.  Velocity 110
000094t:  Note on ::  Channel 1.  Note 21.  Velocity 0
000000t:  Note on ::  Channel 1.  Note 33.  Velocity 0
000000t:  Note on ::  Channel 1.  Note 45.  Velocity 0
000002t:  Note on ::  Channel 1.  Note 21.  Velocity 110
000000t:  Note on ::  Channel 1.  Note 33.  Velocity 110
000000t:  Note on ::  Channel 1.  Note 45.  Velocity 110
000094t:  Note on ::  Channel 1.  Note 21.  Velocity 0
000000t:  Note on ::  Channel 1.  Note 33.  Velocity 0
000000t:  Note on ::  Channel 1.  Note 45.  Velocity 0
000002t:  Note on ::  Channel 1.  Note 21.  Velocity 110
000000t:  Note on ::  Channel 1.  Note 33.  Velocity 110
000000t:  Note on ::  Channel 1.  Note 45.  Velocity 110
000094t:  Note on ::  Channel 1.  Note 21.  Velocity 0
000000t:  Note on ::  Channel 1.  Note 33.  Velocity 0
000000t:  Note on ::  Channel 1.  Note 45.  Velocity 0
000002t:  Note on ::  Channel 1.  Note 19.  Velocity 110
000000t:  Note on ::  Channel 1.  Note 31.  Velocity 110
000000t:  Note on ::  Channel 1.  Note 43.  Velocity 110
000094t:  Note on ::  Channel 1.  Note 19.  Velocity 0
000000t:  Note on ::  Channel 1.  Note 31.  Velocity 0
000000t:  Note on ::  Channel 1.  Note 43.  Velocity 0
000002t:  Note on ::  Channel 1.  Note 19.  Velocity 110
000000t:  Note on ::  Channel 1.  Note 31.  Velocity 110
000000t:  Note on ::  Channel 1.  Note 43.  Velocity 110
000094t:  Note on ::  Channel 1.  Note 19.  Velocity 0
000000t:  Note on ::  Channel 1.  Note 31.  Velocity 0
000000t:  Note on ::  Channel 1.  Note 43.  Velocity 0
000002t:  Note on ::  Channel 1.  Note 21.  Velocity 110
000000t:  Note on ::  Channel 1.  Note 33.  Velocity 110
000000t:  Note on ::  Channel 1.  Note 45.  Velocity 110
000094t:  Note on ::  Channel 1.  Note 21.  Velocity 0
000000t:  Note on ::  Channel 1.  Note 33.  Velocity 0
000000t:  Note on ::  Channel 1.  Note 45.  Velocity 0
000194t:  Note on ::  Channel 1.  Note 21.  Velocity 110
000000t:  Note on ::  Channel 1.  Note 33.  Velocity 110
000000t:  Note on ::  Channel 1.  Note 45.  Velocity 110
000094t:  Note on ::  Channel 1.  Note 21.  Velocity 0
000000t:  Note on ::  Channel 1.  Note 33.  Velocity 0
000000t:  Note on ::  Channel 1.  Note 45.  Velocity 0
000098t:  Note on ::  Channel 1.  Note 16.  Velocity 110
000000t:  Note on ::  Channel 1.  Note 28.  Velocity 110
000000t:  Note on ::  Channel 1.  Note 40.  Velocity 110
000094t:  Note on ::  Channel 1.  Note 16.  Velocity 0
000000t:  Note on ::  Channel 1.  Note 28.  Velocity 0
000000t:  Note on ::  Channel 1.  Note 40.  Velocity 0
000002t:  Note on ::  Channel 1.  Note 22.  Velocity 110
000000t:  Note on ::  Channel 1.  Note 34.  Velocity 110
000000t:  Note on ::  Channel 1.  Note 46.  Velocity 110
000094t:  Note on ::  Channel 1.  Note 22.  Velocity 0
000000t:  Note on ::  Channel 1.  Note 34.  Velocity 0
000000t:  Note on ::  Channel 1.  Note 46.  Velocity 0
000002t:  Note on ::  Channel 1.  Note 20.  Velocity 110
000000t:  Note on ::  Channel 1.  Note 32.  Velocity 110
000000t:  Note on ::  Channel 1.  Note 44.  Velocity 110
000094t:  Note on ::  Channel 1.  Note 20.  Velocity 0
000000t:  Note on ::  Channel 1.  Note 32.  Velocity 0
000000t:  Note on ::  Channel 1.  Note 44.  Velocity 0
000002t:  Note on ::  Channel 1.  Note 21.  Velocity 110
000000t:  Note on ::  Channel 1.  Note 33.  Velocity 110
000000t:  Note on ::  Channel 1.  Note 45.  Velocity 110
000094t:  Note on ::  Channel 1.  Note 21.  Velocity 0
000000t:  Note on ::  Channel 1.  Note 33.  Velocity 0
000000t:  Note on ::  Channel 1.  Note 45.  Velocity 0
000194t:  Note on ::  Channel 1.  Note 21.  Velocity 110
000000t:  Note on ::  Channel 1.  Note 33.  Velocity 110
000000t:  Note on ::  Channel 1.  Note 45.  Velocity 110
000094t:  Note on ::  Channel 1.  Note 21.  Velocity 0
000000t:  Note on ::  Channel 1.  Note 33.  Velocity 0
000000t:  Note on ::  Channel 1.  Note 45.  Velocity 0
000098t:  Note on ::  Channel 1.  Note 16.  Velocity 110
000000t:  Note on ::  Channel 1.  Note 28.  Velocity 110
000000t:  Note on ::  Channel 1.  Note 40.  Velocity 110
000094t:  Note on ::  Channel 1.  Note 16.  Velocity 0
000000t:  Note on ::  Channel 1.  Note 28.  Velocity 0
000000t:  Note on ::  Channel 1.  Note 40.  Velocity 0
000002t:  Note on ::  Channel 1.  Note 19.  Velocity 110
000000t:  Note on ::  Channel 1.  Note 31.  Velocity 110
000000t:  Note on ::  Channel 1.  Note 43.  Velocity 110
000094t:  Note on ::  Channel 1.  Note 19.  Velocity 0
000000t:  Note on ::  Channel 1.  Note 31.  Velocity 0
000000t:  Note on ::  Channel 1.  Note 43.  Velocity 0
000002t:  Note on ::  Channel 1.  Note 20.  Velocity 110
000000t:  Note on ::  Channel 1.  Note 32.  Velocity 110
000000t:  Note on ::  Channel 1.  Note 44.  Velocity 110
000094t:  Note on ::  Channel 1.  Note 20.  Velocity 0
000000t:  Note on ::  Channel 1.  Note 32.  Velocity 0
000000t:  Note on ::  Channel 1.  Note 44.  Velocity 0
000002t:  Note on ::  Channel 1.  Note 21.  Velocity 110
000000t:  Note on ::  Channel 1.  Note 33.  Velocity 110
000000t:  Note on ::  Channel 1.  Note 45.  Velocity 110
000094t:  Note on ::  Channel 1.  Note 21.  Velocity 0
000000t:  Note on ::  Channel 1.  Note 33.  Velocity 0
000000t:  Note on ::  Channel 1.  Note 45.  Velocity 0
000002t:  Note on ::  Channel 1.  Note 21.  Velocity 110
000000t:  Note on ::  Channel 1.  Note 33.  Velocity 110
000000t:  Note on ::  Channel 1.  Note 45.  Velocity 110
000094t:  Note on ::  Channel 1.  Note 21.  Velocity 0
000000t:  Note on ::  Channel 1.  Note 33.  Velocity 0
000000t:  Note on ::  Channel 1.  Note 45.  Velocity 0
000002t:  Note on ::  Channel 1.  Note 21.  Velocity 110
000000t:  Note on ::  Channel 1.  Note 33.  Velocity 110
000000t:  Note on ::  Channel 1.  Note 45.  Velocity 110
000094t:  Note on ::  Channel 1.  Note 21.  Velocity 0
000000t:  Note on ::  Channel 1.  Note 33.  Velocity 0
000000t:  Note on ::  Channel 1.  Note 45.  Velocity 0
000002t:  Note on ::  Channel 1.  Note 21.  Velocity 110
000000t:  Note on ::  Channel 1.  Note 33.  Velocity 110
000000t:  Note on ::  Channel 1.  Note 45.  Velocity 110
000094t:  Note on ::  Channel 1.  Note 21.  Velocity 0
000000t:  Note on ::  Channel 1.  Note 33.  Velocity 0
000000t:  Note on ::  Channel 1.  Note 45.  Velocity 0
000002t:  Note on ::  Channel 1.  Note 21.  Velocity 110
000000t:  Note on ::  Channel 1.  Note 33.  Velocity 110
000000t:  Note on ::  Channel 1.  Note 45.  Velocity 110
000094t:  Note on ::  Channel 1.  Note 21.  Velocity 0
000000t:  Note on ::  Channel 1.  Note 33.  Velocity 0
000000t:  Note on ::  Channel 1.  Note 45.  Velocity 0
000002t:  Note on ::  Channel 1.  Note 21.  Velocity 110
000000t:  Note on ::  Channel 1.  Note 33.  Velocity 110
000000t:  Note on ::  Channel 1.  Note 45.  Velocity 110
000094t:  Note on ::  Channel 1.  Note 21.  Velocity 0
000000t:  Note on ::  Channel 1.  Note 33.  Velocity 0
000000t:  Note on ::  Channel 1.  Note 45.  Velocity 0
000002t:  Note on ::  Channel 1.  Note 19.  Velocity 110
000000t:  Note on ::  Channel 1.  Note 31.  Velocity 110
000000t:  Note on ::  Channel 1.  Note 43.  Velocity 110
000094t:  Note on ::  Channel 1.  Note 19.  Velocity 0
000000t:  Note on ::  Channel 1.  Note 31.  Velocity 0
000000t:  Note on ::  Channel 1.  Note 43.  Velocity 0
000002t:  Note on ::  Channel 1.  Note 19.  Velocity 110
000000t:  Note on ::  Channel 1.  Note 31.  Velocity 110
000000t:  Note on ::  Channel 1.  Note 43.  Velocity 110
000094t:  Note on ::  Channel 1.  Note 19.  Velocity 0
000000t:  Note on ::  Channel 1.  Note 31.  Velocity 0
000000t:  Note on ::  Channel 1.  Note 43.  Velocity 0
000002t:  Note on ::  Channel 1.  Note 21.  Velocity 110
000000t:  Note on ::  Channel 1.  Note 33.  Velocity 110
000000t:  Note on ::  Channel 1.  Note 45.  Velocity 110
000094t:  Note on ::  Channel 1.  Note 21.  Velocity 0
000000t:  Note on ::  Channel 1.  Note 33.  Velocity 0
000000t:  Note on ::  Channel 1.  Note 45.  Velocity 0
000002t:  Note on ::  Channel 1.  Note 21.  Velocity 110
000000t:  Note on ::  Channel 1.  Note 33.  Velocity 110
000000t:  Note on ::  Channel 1.  Note 45.  Velocity 110
000094t:  Note on ::  Channel 1.  Note 21.  Velocity 0
000000t:  Note on ::  Channel 1.  Note 33.  Velocity 0
000000t:  Note on ::  Channel 1.  Note 45.  Velocity 0
000002t:  Note on ::  Channel 1.  Note 21.  Velocity 110
000000t:  Note on ::  Channel 1.  Note 33.  Velocity 110
000000t:  Note on ::  Channel 1.  Note 45.  Velocity 110
000094t:  Note on ::  Channel 1.  Note 21.  Velocity 0
000000t:  Note on ::  Channel 1.  Note 33.  Velocity 0
000000t:  Note on ::  Channel 1.  Note 45.  Velocity 0
000002t:  Note on ::  Channel 1.  Note 21.  Velocity 110
000000t:  Note on ::  Channel 1.  Note 33.  Velocity 110
000000t:  Note on ::  Channel 1.  Note 45.  Velocity 110
000094t:  Note on ::  Channel 1.  Note 21.  Velocity 0
000000t:  Note on ::  Channel 1.  Note 33.  Velocity 0
000000t:  Note on ::  Channel 1.  Note 45.  Velocity 0
000002t:  Note on ::  Channel 1.  Note 21.  Velocity 110
000000t:  Note on ::  Channel 1.  Note 33.  Velocity 110
000000t:  Note on ::  Channel 1.  Note 45.  Velocity 110
000094t:  Note on ::  Channel 1.  Note 21.  Velocity 0
000000t:  Note on ::  Channel 1.  Note 33.  Velocity 0
000000t:  Note on ::  Channel 1.  Note 45.  Velocity 0
000002t:  Note on ::  Channel 1.  Note 21.  Velocity 110
000000t:  Note on ::  Channel 1.  Note 33.  Velocity 110
000000t:  Note on ::  Channel 1.  Note 45.  Velocity 110
000094t:  Note on ::  Channel 1.  Note 21.  Velocity 0
000000t:  Note on ::  Channel 1.  Note 33.  Velocity 0
000000t:  Note on ::  Channel 1.  Note 45.  Velocity 0
000002t:  Note on ::  Channel 1.  Note 19.  Velocity 110
000000t:  Note on ::  Channel 1.  Note 31.  Velocity 110
000000t:  Note on ::  Channel 1.  Note 43.  Velocity 110
000094t:  Note on ::  Channel 1.  Note 19.  Velocity 0
000000t:  Note on ::  Channel 1.  Note 31.  Velocity 0
000000t:  Note on ::  Channel 1.  Note 43.  Velocity 0
000002t:  Note on ::  Channel 1.  Note 19.  Velocity 110
000000t:  Note on ::  Channel 1.  Note 31.  Velocity 110
000000t:  Note on ::  Channel 1.  Note 43.  Velocity 110
000094t:  Note on ::  Channel 1.  Note 19.  Velocity 0
000000t:  Note on ::  Channel 1.  Note 31.  Velocity 0
000000t:  Note on ::  Channel 1.  Note 43.  Velocity 0
000002t:  Note on ::  Channel 1.  Note 17.  Velocity 110
000000t:  Note on ::  Channel 1.  Note 29.  Velocity 110
000000t:  Note on ::  Channel 1.  Note 41.  Velocity 110
000094t:  Note on ::  Channel 1.  Note 17.  Velocity 0
000000t:  Note on ::  Channel 1.  Note 29.  Velocity 0
000000t:  Note on ::  Channel 1.  Note 41.  Velocity 0
000194t:  Note on ::  Channel 1.  Note 17.  Velocity 110
000000t:  Note on ::  Channel 1.  Note 29.  Velocity 110
000000t:  Note on ::  Channel 1.  Note 41.  Velocity 110
000094t:  Note on ::  Channel 1.  Note 17.  Velocity 0
000000t:  Note on ::  Channel 1.  Note 29.  Velocity 0
000000t:  Note on ::  Channel 1.  Note 41.  Velocity 0
000194t:  Note on ::  Channel 1.  Note 24.  Velocity 110
000000t:  Note on ::  Channel 1.  Note 36.  Velocity 110
000000t:  Note on ::  Channel 1.  Note 48.  Velocity 110
000094t:  Note on ::  Channel 1.  Note 24.  Velocity 0
000000t:  Note on ::  Channel 1.  Note 36.  Velocity 0
000000t:  Note on ::  Channel 1.  Note 48.  Velocity 0
000098t:  Note on ::  Channel 1.  Note 19.  Velocity 110
000000t:  Note on ::  Channel 1.  Note 31.  Velocity 110
000000t:  Note on ::  Channel 1.  Note 43.  Velocity 110
000094t:  Note on ::  Channel 1.  Note 19.  Velocity 0
000000t:  Note on ::  Channel 1.  Note 31.  Velocity 0
000000t:  Note on ::  Channel 1.  Note 43.  Velocity 0
000194t:  Note on ::  Channel 1.  Note 19.  Velocity 110
000000t:  Note on ::  Channel 1.  Note 31.  Velocity 110
000000t:  Note on ::  Channel 1.  Note 43.  Velocity 110
000094t:  Note on ::  Channel 1.  Note 19.  Velocity 0
000000t:  Note on ::  Channel 1.  Note 31.  Velocity 0
000000t:  Note on ::  Channel 1.  Note 43.  Velocity 0
000098t:  Note on ::  Channel 1.  Note 14.  Velocity 110
000000t:  Note on ::  Channel 1.  Note 26.  Velocity 110
000000t:  Note on ::  Channel 1.  Note 38.  Velocity 110
000094t:  Note on ::  Channel 1.  Note 14.  Velocity 0
000000t:  Note on ::  Channel 1.  Note 26.  Velocity 0
000000t:  Note on ::  Channel 1.  Note 38.  Velocity 0
000002t:  Note on ::  Channel 1.  Note 23.  Velocity 110
000000t:  Note on ::  Channel 1.  Note 35.  Velocity 110
000000t:  Note on ::  Channel 1.  Note 47.  Velocity 110
000094t:  Note on ::  Channel 1.  Note 23.  Velocity 0
000000t:  Note on ::  Channel 1.  Note 35.  Velocity 0
000000t:  Note on ::  Channel 1.  Note 47.  Velocity 0
000002t:  Note on ::  Channel 1.  Note 19.  Velocity 110
000000t:  Note on ::  Channel 1.  Note 31.  Velocity 110
000000t:  Note on ::  Channel 1.  Note 43.  Velocity 110
000094t:  Note on ::  Channel 1.  Note 19.  Velocity 0
000000t:  Note on ::  Channel 1.  Note 31.  Velocity 0
000000t:  Note on ::  Channel 1.  Note 43.  Velocity 0
000002t:  Note on ::  Channel 1.  Note 21.  Velocity 110
000000t:  Note on ::  Channel 1.  Note 33.  Velocity 110
000000t:  Note on ::  Channel 1.  Note 45.  Velocity 110
000094t:  Note on ::  Channel 1.  Note 21.  Velocity 0
000000t:  Note on ::  Channel 1.  Note 33.  Velocity 0
000000t:  Note on ::  Channel 1.  Note 45.  Velocity 0
000002t:  Note on ::  Channel 1.  Note 21.  Velocity 110
000000t:  Note on ::  Channel 1.  Note 33.  Velocity 110
000000t:  Note on ::  Channel 1.  Note 45.  Velocity 110
000094t:  Note on ::  Channel 1.  Note 21.  Velocity 0
000000t:  Note on ::  Channel 1.  Note 33.  Velocity 0
000000t:  Note on ::  Channel 1.  Note 45.  Velocity 0
000002t:  Note on ::  Channel 1.  Note 21.  Velocity 110
000000t:  Note on ::  Channel 1.  Note 33.  Velocity 110
000000t:  Note on ::  Channel 1.  Note 45.  Velocity 110
000094t:  Note on ::  Channel 1.  Note 21.  Velocity 0
000000t:  Note on ::  Channel 1.  Note 33.  Velocity 0
000000t:  Note on ::  Channel 1.  Note 45.  Velocity 0
000002t:  Note on ::  Channel 1.  Note 21.  Velocity 110
000000t:  Note on ::  Channel 1.  Note 33.  Velocity 110
000000t:  Note on ::  Channel 1.  Note 45.  Velocity 110
000094t:  Note on ::  Channel 1.  Note 21.  Velocity 0
000000t:  Note on ::  Channel 1.  Note 33.  Velocity 0
000000t:  Note on ::  Channel 1.  Note 45.  Velocity 0
000002t:  Note on ::  Channel 1.  Note 21.  Velocity 110
000000t:  Note on ::  Channel 1.  Note 33.  Velocity 110
000000t:  Note on ::  Channel 1.  Note 45.  Velocity 110
000094t:  Note on ::  Channel 1.  Note 21.  Velocity 0
000000t:  Note on ::  Channel 1.  Note 33.  Velocity 0
000000t:  Note on ::  Channel 1.  Note 45.  Velocity 0
000002t:  Note on ::  Channel 1.  Note 21.  Velocity 110
000000t:  Note on ::  Channel 1.  Note 33.  Velocity 110
000000t:  Note on ::  Channel 1.  Note 45.  Velocity 110
000094t:  Note on ::  Channel 1.  Note 21.  Velocity 0
000000t:  Note on ::  Channel 1.  Note 33.  Velocity 0
000000t:  Note on ::  Channel 1.  Note 45.  Velocity 0
000002t:  Note on ::  Channel 1.  Note 19.  Velocity 110
000000t:  Note on ::  Channel 1.  Note 31.  Velocity 110
000000t:  Note on ::  Channel 1.  Note 43.  Velocity 110
000094t:  Note on ::  Channel 1.  Note 19.  Velocity 0
000000t:  Note on ::  Channel 1.  Note 31.  Velocity 0
000000t:  Note on ::  Channel 1.  Note 43.  Velocity 0
000002t:  Note on ::  Channel 1.  Note 19.  Velocity 110
000000t:  Note on ::  Channel 1.  Note 31.  Velocity 110
000000t:  Note on ::  Channel 1.  Note 43.  Velocity 110
000094t:  Note on ::  Channel 1.  Note 31.  Velocity 0
000000t:  Note on ::  Channel 1.  Note 19.  Velocity 0
000000t:  Note on ::  Channel 1.  Note 43.  Velocity 0
000002t:  Note on ::  Channel 1.  Note 21.  Velocity 110
000000t:  Note on ::  Channel 1.  Note 33.  Velocity 110
000000t:  Note on ::  Channel 1.  Note 45.  Velocity 110
000094t:  Note on ::  Channel 1.  Note 21.  Velocity 0
000000t:  Note on ::  Channel 1.  Note 33.  Velocity 0
000000t:  Note on ::  Channel 1.  Note 45.  Velocity 0
000002t:  Note on ::  Channel 1.  Note 21.  Velocity 110
000000t:  Note on ::  Channel 1.  Note 33.  Velocity 110
000000t:  Note on ::  Channel 1.  Note 45.  Velocity 110
000094t:  Note on ::  Channel 1.  Note 21.  Velocity 0
000000t:  Note on ::  Channel 1.  Note 33.  Velocity 0
000000t:  Note on ::  Channel 1.  Note 45.  Velocity 0
000002t:  Note on ::  Channel 1.  Note 21.  Velocity 110
000000t:  Note on ::  Channel 1.  Note 33.  Velocity 110
000000t:  Note on ::  Channel 1.  Note 45.  Velocity 110
000094t:  Note on ::  Channel 1.  Note 21.  Velocity 0
000000t:  Note on ::  Channel 1.  Note 33.  Velocity 0
000000t:  Note on ::  Channel 1.  Note 45.  Velocity 0
000002t:  Note on ::  Channel 1.  Note 21.  Velocity 110
000000t:  Note on ::  Channel 1.  Note 33.  Velocity 110
000000t:  Note on ::  Channel 1.  Note 45.  Velocity 110
000094t:  Note on ::  Channel 1.  Note 21.  Velocity 0
000000t:  Note on ::  Channel 1.  Note 33.  Velocity 0
000000t:  Note on ::  Channel 1.  Note 45.  Velocity 0
000002t:  Note on ::  Channel 1.  Note 21.  Velocity 110
000000t:  Note on ::  Channel 1.  Note 33.  Velocity 110
000000t:  Note on ::  Channel 1.  Note 45.  Velocity 110
000094t:  Note on ::  Channel 1.  Note 21.  Velocity 0
000000t:  Note on ::  Channel 1.  Note 33.  Velocity 0
000000t:  Note on ::  Channel 1.  Note 45.  Velocity 0
000002t:  Note on ::  Channel 1.  Note 21.  Velocity 110
000000t:  Note on ::  Channel 1.  Note 33.  Velocity 110
000000t:  Note on ::  Channel 1.  Note 45.  Velocity 110
000094t:  Note on ::  Channel 1.  Note 21.  Velocity 0
000000t:  Note on ::  Channel 1.  Note 33.  Velocity 0
000000t:  Note on ::  Channel 1.  Note 45.  Velocity 0
000002t:  Note on ::  Channel 1.  Note 19.  Velocity 110
000000t:  Note on ::  Channel 1.  Note 31.  Velocity 110
000000t:  Note on ::  Channel 1.  Note 43.  Velocity 110
000094t:  Note on ::  Channel 1.  Note 19.  Velocity 0
000000t:  Note on ::  Channel 1.  Note 31.  Velocity 0
000000t:  Note on ::  Channel 1.  Note 43.  Velocity 0
000002t:  Note on ::  Channel 1.  Note 19.  Velocity 110
000000t:  Note on ::  Channel 1.  Note 31.  Velocity 110
000000t:  Note on ::  Channel 1.  Note 43.  Velocity 110
000094t:  Note on ::  Channel 1.  Note 19.  Velocity 0
000000t:  Note on ::  Channel 1.  Note 31.  Velocity 0
000000t:  Note on ::  Channel 1.  Note 43.  Velocity 0
000002t:  Note on ::  Channel 1.  Note 41.  Velocity 110
000000t:  Note on ::  Channel 1.  Note 53.  Velocity 110
001536t:  Note on ::  Channel 1.  Note 41.  Velocity 0
000000t:  Note on ::  Channel 1.  Note 53.  Velocity 0
000000t:  Note on ::  Channel 1.  Note 43.  Velocity 110
000000t:  Note on ::  Channel 1.  Note 55.  Velocity 110
001536t:  Note on ::  Channel 1.  Note 43.  Velocity 0
000000t:  Note on ::  Channel 1.  Note 55.  Velocity 0
010752t:  Note on ::  Channel 1.  Note 21.  Velocity 110
000000t:  Note on ::  Channel 1.  Note 33.  Velocity 110
000000t:  Note on ::  Channel 1.  Note 45.  Velocity 110
000094t:  Note on ::  Channel 1.  Note 21.  Velocity 0
000000t:  Note on ::  Channel 1.  Note 33.  Velocity 0
000000t:  Note on ::  Channel 1.  Note 45.  Velocity 0
000002t:  Note on ::  Channel 1.  Note 21.  Velocity 110
000000t:  Note on ::  Channel 1.  Note 33.  Velocity 110
000000t:  Note on ::  Channel 1.  Note 45.  Velocity 110
000094t:  Note on ::  Channel 1.  Note 21.  Velocity 0
000000t:  Note on ::  Channel 1.  Note 33.  Velocity 0
000000t:  Note on ::  Channel 1.  Note 45.  Velocity 0
000002t:  Note on ::  Channel 1.  Note 21.  Velocity 110
000000t:  Note on ::  Channel 1.  Note 33.  Velocity 110
000000t:  Note on ::  Channel 1.  Note 45.  Velocity 110
000094t:  Note on ::  Channel 1.  Note 21.  Velocity 0
000000t:  Note on ::  Channel 1.  Note 33.  Velocity 0
000000t:  Note on ::  Channel 1.  Note 45.  Velocity 0
000002t:  Note on ::  Channel 1.  Note 21.  Velocity 110
000000t:  Note on ::  Channel 1.  Note 33.  Velocity 110
000000t:  Note on ::  Channel 1.  Note 45.  Velocity 110
000094t:  Note on ::  Channel 1.  Note 21.  Velocity 0
000000t:  Note on ::  Channel 1.  Note 33.  Velocity 0
000000t:  Note on ::  Channel 1.  Note 45.  Velocity 0
000002t:  Note on ::  Channel 1.  Note 21.  Velocity 110
000000t:  Note on ::  Channel 1.  Note 33.  Velocity 110
000000t:  Note on ::  Channel 1.  Note 45.  Velocity 110
000094t:  Note on ::  Channel 1.  Note 21.  Velocity 0
000000t:  Note on ::  Channel 1.  Note 33.  Velocity 0
000000t:  Note on ::  Channel 1.  Note 45.  Velocity 0
000002t:  Note on ::  Channel 1.  Note 21.  Velocity 110
000000t:  Note on ::  Channel 1.  Note 33.  Velocity 110
000000t:  Note on ::  Channel 1.  Note 45.  Velocity 110
000094t:  Note on ::  Channel 1.  Note 21.  Velocity 0
000000t:  Note on ::  Channel 1.  Note 33.  Velocity 0
000000t:  Note on ::  Channel 1.  Note 45.  Velocity 0
000002t:  Note on ::  Channel 1.  Note 19.  Velocity 110
000000t:  Note on ::  Channel 1.  Note 31.  Velocity 110
000000t:  Note on ::  Channel 1.  Note 43.  Velocity 110
000094t:  Note on ::  Channel 1.  Note 19.  Velocity 0
000000t:  Note on ::  Channel 1.  Note 31.  Velocity 0
000000t:  Note on ::  Channel 1.  Note 43.  Velocity 0
000002t:  Note on ::  Channel 1.  Note 19.  Velocity 110
000000t:  Note on ::  Channel 1.  Note 31.  Velocity 110
000000t:  Note on ::  Channel 1.  Note 43.  Velocity 110
000094t:  Note on ::  Channel 1.  Note 19.  Velocity 0
000000t:  Note on ::  Channel 1.  Note 31.  Velocity 0
000000t:  Note on ::  Channel 1.  Note 43.  Velocity 0
000002t:  Note on ::  Channel 1.  Note 21.  Velocity 110
000000t:  Note on ::  Channel 1.  Note 33.  Velocity 110
000000t:  Note on ::  Channel 1.  Note 45.  Velocity 110
000094t:  Note on ::  Channel 1.  Note 21.  Velocity 0
000000t:  Note on ::  Channel 1.  Note 33.  Velocity 0
000000t:  Note on ::  Channel 1.  Note 45.  Velocity 0
000002t:  Note on ::  Channel 1.  Note 21.  Velocity 110
000000t:  Note on ::  Channel 1.  Note 33.  Velocity 110
000000t:  Note on ::  Channel 1.  Note 45.  Velocity 110
000094t:  Note on ::  Channel 1.  Note 21.  Velocity 0
000000t:  Note on ::  Channel 1.  Note 33.  Velocity 0
000000t:  Note on ::  Channel 1.  Note 45.  Velocity 0
000002t:  Note on ::  Channel 1.  Note 21.  Velocity 110
000000t:  Note on ::  Channel 1.  Note 33.  Velocity 110
000000t:  Note on ::  Channel 1.  Note 45.  Velocity 110
000094t:  Note on ::  Channel 1.  Note 21.  Velocity 0
000000t:  Note on ::  Channel 1.  Note 33.  Velocity 0
000000t:  Note on ::  Channel 1.  Note 45.  Velocity 0
000002t:  Note on ::  Channel 1.  Note 21.  Velocity 110
000000t:  Note on ::  Channel 1.  Note 33.  Velocity 110
000000t:  Note on ::  Channel 1.  Note 45.  Velocity 110
000094t:  Note on ::  Channel 1.  Note 21.  Velocity 0
000000t:  Note on ::  Channel 1.  Note 33.  Velocity 0
000000t:  Note on ::  Channel 1.  Note 45.  Velocity 0
000002t:  Note on ::  Channel 1.  Note 21.  Velocity 110
000000t:  Note on ::  Channel 1.  Note 33.  Velocity 110
000000t:  Note on ::  Channel 1.  Note 45.  Velocity 110
000094t:  Note on ::  Channel 1.  Note 21.  Velocity 0
000000t:  Note on ::  Channel 1.  Note 33.  Velocity 0
000000t:  Note on ::  Channel 1.  Note 45.  Velocity 0
000002t:  Note on ::  Channel 1.  Note 21.  Velocity 110
000000t:  Note on ::  Channel 1.  Note 33.  Velocity 110
000000t:  Note on ::  Channel 1.  Note 45.  Velocity 110
000094t:  Note on ::  Channel 1.  Note 21.  Velocity 0
000000t:  Note on ::  Channel 1.  Note 33.  Velocity 0
000000t:  Note on ::  Channel 1.  Note 45.  Velocity 0
000002t:  Note on ::  Channel 1.  Note 19.  Velocity 110
000000t:  Note on ::  Channel 1.  Note 31.  Velocity 110
000000t:  Note on ::  Channel 1.  Note 43.  Velocity 110
000094t:  Note on ::  Channel 1.  Note 19.  Velocity 0
000000t:  Note on ::  Channel 1.  Note 31.  Velocity 0
000000t:  Note on ::  Channel 1.  Note 43.  Velocity 0
000002t:  Note on ::  Channel 1.  Note 19.  Velocity 110
000000t:  Note on ::  Channel 1.  Note 31.  Velocity 110
000000t:  Note on ::  Channel 1.  Note 43.  Velocity 110
000094t:  Note on ::  Channel 1.  Note 19.  Velocity 0
000000t:  Note on ::  Channel 1.  Note 31.  Velocity 0
000000t:  Note on ::  Channel 1.  Note 43.  Velocity 0
000002t:  Note on ::  Channel 1.  Note 21.  Velocity 110
000000t:  Note on ::  Channel 1.  Note 33.  Velocity 110
000000t:  Note on ::  Channel 1.  Note 45.  Velocity 110
000094t:  Note on ::  Channel 1.  Note 21.  Velocity 0
000000t:  Note on ::  Channel 1.  Note 33.  Velocity 0
000000t:  Note on ::  Channel 1.  Note 45.  Velocity 0
000002t:  Note on ::  Channel 1.  Note 21.  Velocity 110
000000t:  Note on ::  Channel 1.  Note 33.  Velocity 110
000000t:  Note on ::  Channel 1.  Note 45.  Velocity 110
000094t:  Note on ::  Channel 1.  Note 21.  Velocity 0
000000t:  Note on ::  Channel 1.  Note 33.  Velocity 0
000000t:  Note on ::  Channel 1.  Note 45.  Velocity 0
000002t:  Note on ::  Channel 1.  Note 21.  Velocity 110
000000t:  Note on ::  Channel 1.  Note 33.  Velocity 110
000000t:  Note on ::  Channel 1.  Note 45.  Velocity 110
000094t:  Note on ::  Channel 1.  Note 21.  Velocity 0
000000t:  Note on ::  Channel 1.  Note 33.  Velocity 0
000000t:  Note on ::  Channel 1.  Note 45.  Velocity 0
000002t:  Note on ::  Channel 1.  Note 21.  Velocity 110
000000t:  Note on ::  Channel 1.  Note 33.  Velocity 110
000000t:  Note on ::  Channel 1.  Note 45.  Velocity 110
000094t:  Note on ::  Channel 1.  Note 21.  Velocity 0
000000t:  Note on ::  Channel 1.  Note 33.  Velocity 0
000000t:  Note on ::  Channel 1.  Note 45.  Velocity 0
000002t:  Note on ::  Channel 1.  Note 21.  Velocity 110
000000t:  Note on ::  Channel 1.  Note 33.  Velocity 110
000000t:  Note on ::  Channel 1.  Note 45.  Velocity 110
000094t:  Note on ::  Channel 1.  Note 21.  Velocity 0
000000t:  Note on ::  Channel 1.  Note 33.  Velocity 0
000000t:  Note on ::  Channel 1.  Note 45.  Velocity 0
000002t:  Note on ::  Channel 1.  Note 21.  Velocity 110
000000t:  Note on ::  Channel 1.  Note 33.  Velocity 110
000000t:  Note on ::  Channel 1.  Note 45.  Velocity 110
000094t:  Note on ::  Channel 1.  Note 21.  Velocity 0
000000t:  Note on ::  Channel 1.  Note 33.  Velocity 0
000000t:  Note on ::  Channel 1.  Note 45.  Velocity 0
000002t:  Note on ::  Channel 1.  Note 19.  Velocity 110
000000t:  Note on ::  Channel 1.  Note 31.  Velocity 110
000000t:  Note on ::  Channel 1.  Note 43.  Velocity 110
000094t:  Note on ::  Channel 1.  Note 19.  Velocity 0
000000t:  Note on ::  Channel 1.  Note 31.  Velocity 0
000000t:  Note on ::  Channel 1.  Note 43.  Velocity 0
000002t:  Note on ::  Channel 1.  Note 19.  Velocity 110
000000t:  Note on ::  Channel 1.  Note 31.  Velocity 110
000000t:  Note on ::  Channel 1.  Note 43.  Velocity 110
000094t:  Note on ::  Channel 1.  Note 19.  Velocity 0
000000t:  Note on ::  Channel 1.  Note 31.  Velocity 0
000000t:  Note on ::  Channel 1.  Note 43.  Velocity 0
000002t:  Note on ::  Channel 1.  Note 21.  Velocity 110
000000t:  Note on ::  Channel 1.  Note 33.  Velocity 110
000000t:  Note on ::  Channel 1.  Note 45.  Velocity 110
000094t:  Note on ::  Channel 1.  Note 21.  Velocity 0
000000t:  Note on ::  Channel 1.  Note 33.  Velocity 0
000000t:  Note on ::  Channel 1.  Note 45.  Velocity 0
000002t:  Note on ::  Channel 1.  Note 21.  Velocity 110
000000t:  Note on ::  Channel 1.  Note 33.  Velocity 110
000000t:  Note on ::  Channel 1.  Note 45.  Velocity 110
000094t:  Note on ::  Channel 1.  Note 21.  Velocity 0
000000t:  Note on ::  Channel 1.  Note 33.  Velocity 0
000000t:  Note on ::  Channel 1.  Note 45.  Velocity 0
000002t:  Note on ::  Channel 1.  Note 21.  Velocity 110
000000t:  Note on ::  Channel 1.  Note 33.  Velocity 110
000000t:  Note on ::  Channel 1.  Note 45.  Velocity 110
000094t:  Note on ::  Channel 1.  Note 21.  Velocity 0
000000t:  Note on ::  Channel 1.  Note 33.  Velocity 0
000000t:  Note on ::  Channel 1.  Note 45.  Velocity 0
000002t:  Note on ::  Channel 1.  Note 21.  Velocity 110
000000t:  Note on ::  Channel 1.  Note 33.  Velocity 110
000000t:  Note on ::  Channel 1.  Note 45.  Velocity 110
000094t:  Note on ::  Channel 1.  Note 21.  Velocity 0
000000t:  Note on ::  Channel 1.  Note 33.  Velocity 0
000000t:  Note on ::  Channel 1.  Note 45.  Velocity 0
000002t:  Note on ::  Channel 1.  Note 21.  Velocity 110
000000t:  Note on ::  Channel 1.  Note 33.  Velocity 110
000000t:  Note on ::  Channel 1.  Note 45.  Velocity 110
000094t:  Note on ::  Channel 1.  Note 21.  Velocity 0
000000t:  Note on ::  Channel 1.  Note 33.  Velocity 0
000000t:  Note on ::  Channel 1.  Note 45.  Velocity 0
000002t:  Note on ::  Channel 1.  Note 21.  Velocity 110
000000t:  Note on ::  Channel 1.  Note 33.  Velocity 110
000000t:  Note on ::  Channel 1.  Note 45.  Velocity 110
000094t:  Note on ::  Channel 1.  Note 21.  Velocity 0
000000t:  Note on ::  Channel 1.  Note 33.  Velocity 0
000000t:  Note on ::  Channel 1.  Note 45.  Velocity 0
000002t:  Note on ::  Channel 1.  Note 19.  Velocity 110
000000t:  Note on ::  Channel 1.  Note 31.  Velocity 110
000000t:  Note on ::  Channel 1.  Note 43.  Velocity 110
000094t:  Note on ::  Channel 1.  Note 19.  Velocity 0
000000t:  Note on ::  Channel 1.  Note 31.  Velocity 0
000000t:  Note on ::  Channel 1.  Note 43.  Velocity 0
000002t:  Note on ::  Channel 1.  Note 19.  Velocity 110
000000t:  Note on ::  Channel 1.  Note 31.  Velocity 110
000000t:  Note on ::  Channel 1.  Note 43.  Velocity 110
000094t:  Note on ::  Channel 1.  Note 19.  Velocity 0
000000t:  Note on ::  Channel 1.  Note 31.  Velocity 0
000000t:  Note on ::  Channel 1.  Note 43.  Velocity 0
000002t:  Note on ::  Channel 1.  Note 17.  Velocity 110
000000t:  Note on ::  Channel 1.  Note 29.  Velocity 110
000000t:  Note on ::  Channel 1.  Note 41.  Velocity 110
001344t:  Note on ::  Channel 1.  Note 17.  Velocity 0
000000t:  Note on ::  Channel 1.  Note 29.  Velocity 0
000000t:  Note on ::  Channel 1.  Note 41.  Velocity 0
000000t:  Note on ::  Channel 1.  Note 19.  Velocity 110
000000t:  Note on ::  Channel 1.  Note 31.  Velocity 110
000000t:  Note on ::  Channel 1.  Note 43.  Velocity 110
001536t:  Note on ::  Channel 1.  Note 19.  Velocity 0
000000t:  Note on ::  Channel 1.  Note 31.  Velocity 0
000000t:  Note on ::  Channel 1.  Note 43.  Velocity 0
000000t:  Note on ::  Channel 1.  Note 21.  Velocity 110
000000t:  Note on ::  Channel 1.  Note 33.  Velocity 110
000000t:  Note on ::  Channel 1.  Note 45.  Velocity 110
000094t:  Note on ::  Channel 1.  Note 21.  Velocity 0
000000t:  Note on ::  Channel 1.  Note 33.  Velocity 0
000000t:  Note on ::  Channel 1.  Note 45.  Velocity 0
000002t:  Note on ::  Channel 1.  Note 21.  Velocity 110
000000t:  Note on ::  Channel 1.  Note 33.  Velocity 110
000000t:  Note on ::  Channel 1.  Note 45.  Velocity 110
000094t:  Note on ::  Channel 1.  Note 21.  Velocity 0
000000t:  Note on ::  Channel 1.  Note 33.  Velocity 0
000000t:  Note on ::  Channel 1.  Note 45.  Velocity 0
000002t:  Note on ::  Channel 1.  Note 21.  Velocity 110
000000t:  Note on ::  Channel 1.  Note 33.  Velocity 110
000000t:  Note on ::  Channel 1.  Note 45.  Velocity 110
000094t:  Note on ::  Channel 1.  Note 21.  Velocity 0
000000t:  Note on ::  Channel 1.  Note 33.  Velocity 0
000000t:  Note on ::  Channel 1.  Note 45.  Velocity 0
000002t:  Note on ::  Channel 1.  Note 21.  Velocity 110
000000t:  Note on ::  Channel 1.  Note 33.  Velocity 110
000000t:  Note on ::  Channel 1.  Note 45.  Velocity 110
000094t:  Note on ::  Channel 1.  Note 21.  Velocity 0
000000t:  Note on ::  Channel 1.  Note 33.  Velocity 0
000000t:  Note on ::  Channel 1.  Note 45.  Velocity 0
000002t:  Note on ::  Channel 1.  Note 21.  Velocity 110
000000t:  Note on ::  Channel 1.  Note 33.  Velocity 110
000000t:  Note on ::  Channel 1.  Note 45.  Velocity 110
000094t:  Note on ::  Channel 1.  Note 21.  Velocity 0
000000t:  Note on ::  Channel 1.  Note 33.  Velocity 0
000000t:  Note on ::  Channel 1.  Note 45.  Velocity 0
000002t:  Note on ::  Channel 1.  Note 21.  Velocity 110
000000t:  Note on ::  Channel 1.  Note 33.  Velocity 110
000000t:  Note on ::  Channel 1.  Note 45.  Velocity 110
000094t:  Note on ::  Channel 1.  Note 21.  Velocity 0
000000t:  Note on ::  Channel 1.  Note 33.  Velocity 0
000000t:  Note on ::  Channel 1.  Note 45.  Velocity 0
000002t:  Note on ::  Channel 1.  Note 19.  Velocity 110
000000t:  Note on ::  Channel 1.  Note 31.  Velocity 110
000000t:  Note on ::  Channel 1.  Note 43.  Velocity 110
000094t:  Note on ::  Channel 1.  Note 19.  Velocity 0
000000t:  Note on ::  Channel 1.  Note 31.  Velocity 0
000000t:  Note on ::  Channel 1.  Note 43.  Velocity 0
000002t:  Note on ::  Channel 1.  Note 19.  Velocity 110
000000t:  Note on ::  Channel 1.  Note 31.  Velocity 110
000000t:  Note on ::  Channel 1.  Note 43.  Velocity 110
000094t:  Note on ::  Channel 1.  Note 19.  Velocity 0
000000t:  Note on ::  Channel 1.  Note 31.  Velocity 0
000000t:  Note on ::  Channel 1.  Note 43.  Velocity 0
000002t:  Note on ::  Channel 1.  Note 21.  Velocity 110
000000t:  Note on ::  Channel 1.  Note 33.  Velocity 110
000000t:  Note on ::  Channel 1.  Note 45.  Velocity 110
000094t:  Note on ::  Channel 1.  Note 21.  Velocity 0
000000t:  Note on ::  Channel 1.  Note 33.  Velocity 0
000000t:  Note on ::  Channel 1.  Note 45.  Velocity 0
000002t:  Note on ::  Channel 1.  Note 21.  Velocity 110
000000t:  Note on ::  Channel 1.  Note 33.  Velocity 110
000000t:  Note on ::  Channel 1.  Note 45.  Velocity 110
000094t:  Note on ::  Channel 1.  Note 21.  Velocity 0
000000t:  Note on ::  Channel 1.  Note 33.  Velocity 0
000000t:  Note on ::  Channel 1.  Note 45.  Velocity 0
000002t:  Note on ::  Channel 1.  Note 21.  Velocity 110
000000t:  Note on ::  Channel 1.  Note 33.  Velocity 110
000000t:  Note on ::  Channel 1.  Note 45.  Velocity 110
000094t:  Note on ::  Channel 1.  Note 21.  Velocity 0
000000t:  Note on ::  Channel 1.  Note 33.  Velocity 0
000000t:  Note on ::  Channel 1.  Note 45.  Velocity 0
000002t:  Note on ::  Channel 1.  Note 21.  Velocity 110
000000t:  Note on ::  Channel 1.  Note 33.  Velocity 110
000000t:  Note on ::  Channel 1.  Note 45.  Velocity 110
000094t:  Note on ::  Channel 1.  Note 21.  Velocity 0
000000t:  Note on ::  Channel 1.  Note 33.  Velocity 0
000000t:  Note on ::  Channel 1.  Note 45.  Velocity 0
000002t:  Note on ::  Channel 1.  Note 21.  Velocity 110
000000t:  Note on ::  Channel 1.  Note 33.  Velocity 110
000000t:  Note on ::  Channel 1.  Note 45.  Velocity 110
000094t:  Note on ::  Channel 1.  Note 21.  Velocity 0
000000t:  Note on ::  Channel 1.  Note 33.  Velocity 0
000000t:  Note on ::  Channel 1.  Note 45.  Velocity 0
000002t:  Note on ::  Channel 1.  Note 21.  Velocity 110
000000t:  Note on ::  Channel 1.  Note 33.  Velocity 110
000000t:  Note on ::  Channel 1.  Note 45.  Velocity 110
000094t:  Note on ::  Channel 1.  Note 21.  Velocity 0
000000t:  Note on ::  Channel 1.  Note 33.  Velocity 0
000000t:  Note on ::  Channel 1.  Note 45.  Velocity 0
000002t:  Note on ::  Channel 1.  Note 19.  Velocity 110
000000t:  Note on ::  Channel 1.  Note 31.  Velocity 110
000000t:  Note on ::  Channel 1.  Note 43.  Velocity 110
000094t:  Note on ::  Channel 1.  Note 19.  Velocity 0
000000t:  Note on ::  Channel 1.  Note 31.  Velocity 0
000000t:  Note on ::  Channel 1.  Note 43.  Velocity 0
000002t:  Note on ::  Channel 1.  Note 19.  Velocity 110
000000t:  Note on ::  Channel 1.  Note 31.  Velocity 110
000000t:  Note on ::  Channel 1.  Note 43.  Velocity 110
000094t:  Note on ::  Channel 1.  Note 19.  Velocity 0
000000t:  Note on ::  Channel 1.  Note 31.  Velocity 0
000000t:  Note on ::  Channel 1.  Note 43.  Velocity 0
000002t:  Note on ::  Channel 1.  Note 21.  Velocity 110
000000t:  Note on ::  Channel 1.  Note 33.  Velocity 110
000000t:  Note on ::  Channel 1.  Note 45.  Velocity 110
000094t:  Note on ::  Channel 1.  Note 21.  Velocity 0
000000t:  Note on ::  Channel 1.  Note 33.  Velocity 0
000000t:  Note on ::  Channel 1.  Note 45.  Velocity 0
000002t:  Note on ::  Channel 1.  Note 21.  Velocity 110
000000t:  Note on ::  Channel 1.  Note 33.  Velocity 110
000000t:  Note on ::  Channel 1.  Note 45.  Velocity 110
000094t:  Note on ::  Channel 1.  Note 21.  Velocity 0
000000t:  Note on ::  Channel 1.  Note 33.  Velocity 0
000000t:  Note on ::  Channel 1.  Note 45.  Velocity 0
000002t:  Note on ::  Channel 1.  Note 21.  Velocity 110
000000t:  Note on ::  Channel 1.  Note 33.  Velocity 110
000000t:  Note on ::  Channel 1.  Note 45.  Velocity 110
000094t:  Note on ::  Channel 1.  Note 21.  Velocity 0
000000t:  Note on ::  Channel 1.  Note 33.  Velocity 0
000000t:  Note on ::  Channel 1.  Note 45.  Velocity 0
000002t:  Note on ::  Channel 1.  Note 21.  Velocity 110
000000t:  Note on ::  Channel 1.  Note 33.  Velocity 110
000000t:  Note on ::  Channel 1.  Note 45.  Velocity 110
000094t:  Note on ::  Channel 1.  Note 21.  Velocity 0
000000t:  Note on ::  Channel 1.  Note 33.  Velocity 0
000000t:  Note on ::  Channel 1.  Note 45.  Velocity 0
000002t:  Note on ::  Channel 1.  Note 21.  Velocity 110
000000t:  Note on ::  Channel 1.  Note 33.  Velocity 110
000000t:  Note on ::  Channel 1.  Note 45.  Velocity 110
000094t:  Note on ::  Channel 1.  Note 21.  Velocity 0
000000t:  Note on ::  Channel 1.  Note 33.  Velocity 0
000000t:  Note on ::  Channel 1.  Note 45.  Velocity 0
000002t:  Note on ::  Channel 1.  Note 21.  Velocity 110
000000t:  Note on ::  Channel 1.  Note 33.  Velocity 110
000000t:  Note on ::  Channel 1.  Note 45.  Velocity 110
000094t:  Note on ::  Channel 1.  Note 21.  Velocity 0
000000t:  Note on ::  Channel 1.  Note 33.  Velocity 0
000000t:  Note on ::  Channel 1.  Note 45.  Velocity 0
000002t:  Note on ::  Channel 1.  Note 19.  Velocity 110
000000t:  Note on ::  Channel 1.  Note 31.  Velocity 110
000000t:  Note on ::  Channel 1.  Note 43.  Velocity 110
000094t:  Note on ::  Channel 1.  Note 19.  Velocity 0
000000t:  Note on ::  Channel 1.  Note 31.  Velocity 0
000000t:  Note on ::  Channel 1.  Note 43.  Velocity 0
000002t:  Note on ::  Channel 1.  Note 19.  Velocity 110
000000t:  Note on ::  Channel 1.  Note 31.  Velocity 110
000000t:  Note on ::  Channel 1.  Note 43.  Velocity 110
000094t:  Note on ::  Channel 1.  Note 19.  Velocity 0
000000t:  Note on ::  Channel 1.  Note 31.  Velocity 0
000000t:  Note on ::  Channel 1.  Note 43.  Velocity 0
000002t:  Note on ::  Channel 1.  Note 21.  Velocity 110
000000t:  Note on ::  Channel 1.  Note 33.  Velocity 110
000000t:  Note on ::  Channel 1.  Note 45.  Velocity 110
000094t:  Note on ::  Channel 1.  Note 21.  Velocity 0
000000t:  Note on ::  Channel 1.  Note 33.  Velocity 0
000000t:  Note on ::  Channel 1.  Note 45.  Velocity 0
000002t:  Note on ::  Channel 1.  Note 21.  Velocity 110
000000t:  Note on ::  Channel 1.  Note 33.  Velocity 110
000000t:  Note on ::  Channel 1.  Note 45.  Velocity 110
000094t:  Note on ::  Channel 1.  Note 21.  Velocity 0
000000t:  Note on ::  Channel 1.  Note 33.  Velocity 0
000000t:  Note on ::  Channel 1.  Note 45.  Velocity 0
000002t:  Note on ::  Channel 1.  Note 21.  Velocity 110
000000t:  Note on ::  Channel 1.  Note 33.  Velocity 110
000000t:  Note on ::  Channel 1.  Note 45.  Velocity 110
000094t:  Note on ::  Channel 1.  Note 21.  Velocity 0
000000t:  Note on ::  Channel 1.  Note 33.  Velocity 0
000000t:  Note on ::  Channel 1.  Note 45.  Velocity 0
000002t:  Note on ::  Channel 1.  Note 21.  Velocity 110
000000t:  Note on ::  Channel 1.  Note 33.  Velocity 110
000000t:  Note on ::  Channel 1.  Note 45.  Velocity 110
000094t:  Note on ::  Channel 1.  Note 21.  Velocity 0
000000t:  Note on ::  Channel 1.  Note 33.  Velocity 0
000000t:  Note on ::  Channel 1.  Note 45.  Velocity 0
000002t:  Note on ::  Channel 1.  Note 21.  Velocity 110
000000t:  Note on ::  Channel 1.  Note 33.  Velocity 110
000000t:  Note on ::  Channel 1.  Note 45.  Velocity 110
000094t:  Note on ::  Channel 1.  Note 21.  Velocity 0
000000t:  Note on ::  Channel 1.  Note 33.  Velocity 0
000000t:  Note on ::  Channel 1.  Note 45.  Velocity 0
000002t:  Note on ::  Channel 1.  Note 21.  Velocity 110
000000t:  Note on ::  Channel 1.  Note 33.  Velocity 110
000000t:  Note on ::  Channel 1.  Note 45.  Velocity 110
000094t:  Note on ::  Channel 1.  Note 21.  Velocity 0
000000t:  Note on ::  Channel 1.  Note 33.  Velocity 0
000000t:  Note on ::  Channel 1.  Note 45.  Velocity 0
000002t:  Note on ::  Channel 1.  Note 19.  Velocity 110
000000t:  Note on ::  Channel 1.  Note 31.  Velocity 110
000000t:  Note on ::  Channel 1.  Note 43.  Velocity 110
000094t:  Note on ::  Channel 1.  Note 19.  Velocity 0
000000t:  Note on ::  Channel 1.  Note 31.  Velocity 0
000000t:  Note on ::  Channel 1.  Note 43.  Velocity 0
000002t:  Note on ::  Channel 1.  Note 19.  Velocity 110
000000t:  Note on ::  Channel 1.  Note 31.  Velocity 110
000000t:  Note on ::  Channel 1.  Note 43.  Velocity 110
000094t:  Note on ::  Channel 1.  Note 19.  Velocity 0
000000t:  Note on ::  Channel 1.  Note 31.  Velocity 0
000000t:  Note on ::  Channel 1.  Note 43.  Velocity 0
000002t:  Note on ::  Channel 1.  Note 21.  Velocity 110
000000t:  Note on ::  Channel 1.  Note 33.  Velocity 110
000000t:  Note on ::  Channel 1.  Note 45.  Velocity 110
000094t:  Note on ::  Channel 1.  Note 21.  Velocity 0
000000t:  Note on ::  Channel 1.  Note 33.  Velocity 0
000000t:  Note on ::  Channel 1.  Note 45.  Velocity 0
000194t:  Note on ::  Channel 1.  Note 21.  Velocity 110
000000t:  Note on ::  Channel 1.  Note 33.  Velocity 110
000000t:  Note on ::  Channel 1.  Note 45.  Velocity 110
000094t:  Note on ::  Channel 1.  Note 21.  Velocity 0
000000t:  Note on ::  Channel 1.  Note 33.  Velocity 0
000000t:  Note on ::  Channel 1.  Note 45.  Velocity 0
000098t:  Note on ::  Channel 1.  Note 16.  Velocity 110
000000t:  Note on ::  Channel 1.  Note 28.  Velocity 110
000000t:  Note on ::  Channel 1.  Note 40.  Velocity 110
000094t:  Note on ::  Channel 1.  Note 16.  Velocity 0
000000t:  Note on ::  Channel 1.  Note 28.  Velocity 0
000000t:  Note on ::  Channel 1.  Note 40.  Velocity 0
000002t:  Note on ::  Channel 1.  Note 22.  Velocity 110
000000t:  Note on ::  Channel 1.  Note 34.  Velocity 110
000000t:  Note on ::  Channel 1.  Note 46.  Velocity 110
000094t:  Note on ::  Channel 1.  Note 22.  Velocity 0
000000t:  Note on ::  Channel 1.  Note 34.  Velocity 0
000000t:  Note on ::  Channel 1.  Note 46.  Velocity 0
000002t:  Note on ::  Channel 1.  Note 20.  Velocity 110
000000t:  Note on ::  Channel 1.  Note 32.  Velocity 110
000000t:  Note on ::  Channel 1.  Note 44.  Velocity 110
000094t:  Note on ::  Channel 1.  Note 20.  Velocity 0
000000t:  Note on ::  Channel 1.  Note 32.  Velocity 0
000000t:  Note on ::  Channel 1.  Note 44.  Velocity 0
000002t:  Note on ::  Channel 1.  Note 21.  Velocity 110
000000t:  Note on ::  Channel 1.  Note 33.  Velocity 110
000000t:  Note on ::  Channel 1.  Note 45.  Velocity 110
000094t:  Note on ::  Channel 1.  Note 21.  Velocity 0
000000t:  Note on ::  Channel 1.  Note 33.  Velocity 0
000000t:  Note on ::  Channel 1.  Note 45.  Velocity 0
000194t:  Note on ::  Channel 1.  Note 21.  Velocity 110
000000t:  Note on ::  Channel 1.  Note 33.  Velocity 110
000000t:  Note on ::  Channel 1.  Note 45.  Velocity 110
000094t:  Note on ::  Channel 1.  Note 21.  Velocity 0
000000t:  Note on ::  Channel 1.  Note 33.  Velocity 0
000000t:  Note on ::  Channel 1.  Note 45.  Velocity 0
000098t:  Note on ::  Channel 1.  Note 16.  Velocity 110
000000t:  Note on ::  Channel 1.  Note 28.  Velocity 110
000000t:  Note on ::  Channel 1.  Note 40.  Velocity 110
000094t:  Note on ::  Channel 1.  Note 16.  Velocity 0
000000t:  Note on ::  Channel 1.  Note 28.  Velocity 0
000000t:  Note on ::  Channel 1.  Note 40.  Velocity 0
000002t:  Note on ::  Channel 1.  Note 19.  Velocity 110
000000t:  Note on ::  Channel 1.  Note 31.  Velocity 110
000000t:  Note on ::  Channel 1.  Note 43.  Velocity 110
000094t:  Note on ::  Channel 1.  Note 19.  Velocity 0
000000t:  Note on ::  Channel 1.  Note 31.  Velocity 0
000000t:  Note on ::  Channel 1.  Note 43.  Velocity 0
000002t:  Note on ::  Channel 1.  Note 20.  Velocity 110
000000t:  Note on ::  Channel 1.  Note 32.  Velocity 110
000000t:  Note on ::  Channel 1.  Note 44.  Velocity 110
000094t:  Note on ::  Channel 1.  Note 20.  Velocity 0
000000t:  Note on ::  Channel 1.  Note 32.  Velocity 0
000000t:  Note on ::  Channel 1.  Note 44.  Velocity 0
000002t:  Note on ::  Channel 1.  Note 21.  Velocity 110
000000t:  Note on ::  Channel 1.  Note 33.  Velocity 110
000000t:  Note on ::  Channel 1.  Note 45.  Velocity 110
000094t:  Note on ::  Channel 1.  Note 21.  Velocity 0
000000t:  Note on ::  Channel 1.  Note 33.  Velocity 0
000000t:  Note on ::  Channel 1.  Note 45.  Velocity 0
000002t:  Note on ::  Channel 1.  Note 21.  Velocity 110
000000t:  Note on ::  Channel 1.  Note 33.  Velocity 110
000000t:  Note on ::  Channel 1.  Note 45.  Velocity 110
000094t:  Note on ::  Channel 1.  Note 21.  Velocity 0
000000t:  Note on ::  Channel 1.  Note 33.  Velocity 0
000000t:  Note on ::  Channel 1.  Note 45.  Velocity 0
000002t:  Note on ::  Channel 1.  Note 21.  Velocity 110
000000t:  Note on ::  Channel 1.  Note 33.  Velocity 110
000000t:  Note on ::  Channel 1.  Note 45.  Velocity 110
000094t:  Note on ::  Channel 1.  Note 21.  Velocity 0
000000t:  Note on ::  Channel 1.  Note 33.  Velocity 0
000000t:  Note on ::  Channel 1.  Note 45.  Velocity 0
000002t:  Note on ::  Channel 1.  Note 21.  Velocity 110
000000t:  Note on ::  Channel 1.  Note 33.  Velocity 110
000000t:  Note on ::  Channel 1.  Note 45.  Velocity 110
000094t:  Note on ::  Channel 1.  Note 21.  Velocity 0
000000t:  Note on ::  Channel 1.  Note 33.  Velocity 0
000000t:  Note on ::  Channel 1.  Note 45.  Velocity 0
000002t:  Note on ::  Channel 1.  Note 21.  Velocity 110
000000t:  Note on ::  Channel 1.  Note 33.  Velocity 110
000000t:  Note on ::  Channel 1.  Note 45.  Velocity 110
000094t:  Note on ::  Channel 1.  Note 21.  Velocity 0
000000t:  Note on ::  Channel 1.  Note 33.  Velocity 0
000000t:  Note on ::  Channel 1.  Note 45.  Velocity 0
000002t:  Note on ::  Channel 1.  Note 21.  Velocity 110
000000t:  Note on ::  Channel 1.  Note 33.  Velocity 110
000000t:  Note on ::  Channel 1.  Note 45.  Velocity 110
000094t:  Note on ::  Channel 1.  Note 21.  Velocity 0
000000t:  Note on ::  Channel 1.  Note 33.  Velocity 0
000000t:  Note on ::  Channel 1.  Note 45.  Velocity 0
000002t:  Note on ::  Channel 1.  Note 19.  Velocity 110
000000t:  Note on ::  Channel 1.  Note 31.  Velocity 110
000000t:  Note on ::  Channel 1.  Note 43.  Velocity 110
000094t:  Note on ::  Channel 1.  Note 19.  Velocity 0
000000t:  Note on ::  Channel 1.  Note 31.  Velocity 0
000000t:  Note on ::  Channel 1.  Note 43.  Velocity 0
000002t:  Note on ::  Channel 1.  Note 19.  Velocity 110
000000t:  Note on ::  Channel 1.  Note 31.  Velocity 110
000000t:  Note on ::  Channel 1.  Note 43.  Velocity 110
000094t:  Note on ::  Channel 1.  Note 19.  Velocity 0
000000t:  Note on ::  Channel 1.  Note 31.  Velocity 0
000000t:  Note on ::  Channel 1.  Note 43.  Velocity 0
000002t:  Note on ::  Channel 1.  Note 21.  Velocity 110
000000t:  Note on ::  Channel 1.  Note 33.  Velocity 110
000000t:  Note on ::  Channel 1.  Note 45.  Velocity 110
000094t:  Note on ::  Channel 1.  Note 21.  Velocity 0
000000t:  Note on ::  Channel 1.  Note 33.  Velocity 0
000000t:  Note on ::  Channel 1.  Note 45.  Velocity 0
000002t:  Note on ::  Channel 1.  Note 21.  Velocity 110
000000t:  Note on ::  Channel 1.  Note 33.  Velocity 110
000000t:  Note on ::  Channel 1.  Note 45.  Velocity 110
000094t:  Note on ::  Channel 1.  Note 21.  Velocity 0
000000t:  Note on ::  Channel 1.  Note 33.  Velocity 0
000000t:  Note on ::  Channel 1.  Note 45.  Velocity 0
000002t:  Note on ::  Channel 1.  Note 21.  Velocity 110
000000t:  Note on ::  Channel 1.  Note 33.  Velocity 110
000000t:  Note on ::  Channel 1.  Note 45.  Velocity 110
000094t:  Note on ::  Channel 1.  Note 21.  Velocity 0
000000t:  Note on ::  Channel 1.  Note 33.  Velocity 0
000000t:  Note on ::  Channel 1.  Note 45.  Velocity 0
000002t:  Note on ::  Channel 1.  Note 21.  Velocity 110
000000t:  Note on ::  Channel 1.  Note 33.  Velocity 110
000000t:  Note on ::  Channel 1.  Note 45.  Velocity 110
000094t:  Note on ::  Channel 1.  Note 21.  Velocity 0
000000t:  Note on ::  Channel 1.  Note 33.  Velocity 0
000000t:  Note on ::  Channel 1.  Note 45.  Velocity 0
000002t:  Note on ::  Channel 1.  Note 21.  Velocity 110
000000t:  Note on ::  Channel 1.  Note 33.  Velocity 110
000000t:  Note on ::  Channel 1.  Note 45.  Velocity 110
000094t:  Note on ::  Channel 1.  Note 21.  Velocity 0
000000t:  Note on ::  Channel 1.  Note 33.  Velocity 0
000000t:  Note on ::  Channel 1.  Note 45.  Velocity 0
000002t:  Note on ::  Channel 1.  Note 21.  Velocity 110
000000t:  Note on ::  Channel 1.  Note 33.  Velocity 110
000000t:  Note on ::  Channel 1.  Note 45.  Velocity 110
000094t:  Note on ::  Channel 1.  Note 21.  Velocity 0
000000t:  Note on ::  Channel 1.  Note 33.  Velocity 0
000000t:  Note on ::  Channel 1.  Note 45.  Velocity 0
000002t:  Note on ::  Channel 1.  Note 19.  Velocity 110
000000t:  Note on ::  Channel 1.  Note 31.  Velocity 110
000000t:  Note on ::  Channel 1.  Note 43.  Velocity 110
000094t:  Note on ::  Channel 1.  Note 19.  Velocity 0
000000t:  Note on ::  Channel 1.  Note 31.  Velocity 0
000000t:  Note on ::  Channel 1.  Note 43.  Velocity 0
000002t:  Note on ::  Channel 1.  Note 19.  Velocity 110
000000t:  Note on ::  Channel 1.  Note 31.  Velocity 110
000000t:  Note on ::  Channel 1.  Note 43.  Velocity 110
000094t:  Note on ::  Channel 1.  Note 19.  Velocity 0
000000t:  Note on ::  Channel 1.  Note 31.  Velocity 0
000000t:  Note on ::  Channel 1.  Note 43.  Velocity 0
000002t:  Control change ::  Channel 1.  Controller 7.  Value: 127
000000t:  Note on ::  Channel 1.  Note 17.  Velocity 110
000000t:  Note on ::  Channel 1.  Note 29.  Velocity 110
000000t:  Note on ::  Channel 1.  Note 41.  Velocity 110
000024t:  Control change ::  Channel 1.  Controller 7.  Value: 126
000024t:  Control change ::  Channel 1.  Controller 7.  Value: 125
000024t:  Control change ::  Channel 1.  Controller 7.  Value: 124
000022t:  Note on ::  Channel 1.  Note 17.  Velocity 0
000000t:  Note on ::  Channel 1.  Note 29.  Velocity 0
000000t:  Note on ::  Channel 1.  Note 41.  Velocity 0
000002t:  Control change ::  Channel 1.  Controller 7.  Value: 123
000024t:  Control change ::  Channel 1.  Controller 7.  Value: 122
000025t:  Control change ::  Channel 1.  Controller 7.  Value: 121
000024t:  Control change ::  Channel 1.  Controller 7.  Value: 120
000024t:  Control change ::  Channel 1.  Controller 7.  Value: 119
000024t:  Control change ::  Channel 1.  Controller 7.  Value: 118
000024t:  Control change ::  Channel 1.  Controller 7.  Value: 117
000025t:  Control change ::  Channel 1.  Controller 7.  Value: 116
000022t:  Note on ::  Channel 1.  Note 17.  Velocity 110
000000t:  Note on ::  Channel 1.  Note 29.  Velocity 110
000000t:  Note on ::  Channel 1.  Note 41.  Velocity 110
000002t:  Control change ::  Channel 1.  Controller 7.  Value: 115
000024t:  Control change ::  Channel 1.  Controller 7.  Value: 114
000024t:  Control change ::  Channel 1.  Controller 7.  Value: 113
000024t:  Control change ::  Channel 1.  Controller 7.  Value: 112
000020t:  Note on ::  Channel 1.  Note 17.  Velocity 0
000000t:  Note on ::  Channel 1.  Note 29.  Velocity 0
000000t:  Note on ::  Channel 1.  Note 41.  Velocity 0
000005t:  Control change ::  Channel 1.  Controller 7.  Value: 111
000024t:  Control change ::  Channel 1.  Controller 7.  Value: 110
000024t:  Control change ::  Channel 1.  Controller 7.  Value: 109
000024t:  Control change ::  Channel 1.  Controller 7.  Value: 108
000024t:  Control change ::  Channel 1.  Controller 7.  Value: 107
000024t:  Control change ::  Channel 1.  Controller 7.  Value: 106
000025t:  Control change ::  Channel 1.  Controller 7.  Value: 105
000024t:  Control change ::  Channel 1.  Controller 7.  Value: 104
000020t:  Note on ::  Channel 1.  Note 24.  Velocity 110
000000t:  Note on ::  Channel 1.  Note 36.  Velocity 110
000000t:  Note on ::  Channel 1.  Note 48.  Velocity 110
000004t:  Control change ::  Channel 1.  Controller 7.  Value: 103
000024t:  Control change ::  Channel 1.  Controller 7.  Value: 102
000024t:  Control change ::  Channel 1.  Controller 7.  Value: 101
000025t:  Control change ::  Channel 1.  Controller 7.  Value: 100
000017t:  Note on ::  Channel 1.  Note 24.  Velocity 0
000000t:  Note on ::  Channel 1.  Note 36.  Velocity 0
000000t:  Note on ::  Channel 1.  Note 48.  Velocity 0
000007t:  Control change ::  Channel 1.  Controller 7.  Value: 99
000024t:  Control change ::  Channel 1.  Controller 7.  Value: 98
000024t:  Control change ::  Channel 1.  Controller 7.  Value: 97
000024t:  Control change ::  Channel 1.  Controller 7.  Value: 96
000019t:  Note on ::  Channel 1.  Note 19.  Velocity 110
000000t:  Note on ::  Channel 1.  Note 31.  Velocity 110
000000t:  Note on ::  Channel 1.  Note 43.  Velocity 110
000006t:  Control change ::  Channel 1.  Controller 7.  Value: 95
000024t:  Control change ::  Channel 1.  Controller 7.  Value: 94
000024t:  Control change ::  Channel 1.  Controller 7.  Value: 93
000024t:  Control change ::  Channel 1.  Controller 7.  Value: 92
000016t:  Note on ::  Channel 1.  Note 19.  Velocity 0
000000t:  Note on ::  Channel 1.  Note 31.  Velocity 0
000000t:  Note on ::  Channel 1.  Note 43.  Velocity 0
000008t:  Control change ::  Channel 1.  Controller 7.  Value: 91
000024t:  Control change ::  Channel 1.  Controller 7.  Value: 90
000025t:  Control change ::  Channel 1.  Controller 7.  Value: 89
000024t:  Control change ::  Channel 1.  Controller 7.  Value: 88
000024t:  Control change ::  Channel 1.  Controller 7.  Value: 87
000024t:  Control change ::  Channel 1.  Controller 7.  Value: 86
000024t:  Control change ::  Channel 1.  Controller 7.  Value: 85
000025t:  Control change ::  Channel 1.  Controller 7.  Value: 84
000016t:  Note on ::  Channel 1.  Note 19.  Velocity 110
000000t:  Note on ::  Channel 1.  Note 31.  Velocity 110
000000t:  Note on ::  Channel 1.  Note 43.  Velocity 110
000008t:  Control change ::  Channel 1.  Controller 7.  Value: 83
000024t:  Control change ::  Channel 1.  Controller 7.  Value: 82
000024t:  Control change ::  Channel 1.  Controller 7.  Value: 81
000024t:  Control change ::  Channel 1.  Controller 7.  Value: 80
000014t:  Note on ::  Channel 1.  Note 19.  Velocity 0
000000t:  Note on ::  Channel 1.  Note 31.  Velocity 0
000000t:  Note on ::  Channel 1.  Note 43.  Velocity 0
000011t:  Control change ::  Channel 1.  Controller 7.  Value: 79
000024t:  Control change ::  Channel 1.  Controller 7.  Value: 78
000024t:  Control change ::  Channel 1.  Controller 7.  Value: 77
000024t:  Control change ::  Channel 1.  Controller 7.  Value: 76
000015t:  Note on ::  Channel 1.  Note 14.  Velocity 110
000000t:  Note on ::  Channel 1.  Note 26.  Velocity 110
000000t:  Note on ::  Channel 1.  Note 38.  Velocity 110
000009t:  Control change ::  Channel 1.  Controller 7.  Value: 75
000025t:  Control change ::  Channel 1.  Controller 7.  Value: 74
000024t:  Control change ::  Channel 1.  Controller 7.  Value: 73
000024t:  Control change ::  Channel 1.  Controller 7.  Value: 72
000012t:  Note on ::  Channel 1.  Note 14.  Velocity 0
000000t:  Note on ::  Channel 1.  Note 26.  Velocity 0
000000t:  Note on ::  Channel 1.  Note 38.  Velocity 0
000002t:  Note on ::  Channel 1.  Note 23.  Velocity 110
000000t:  Note on ::  Channel 1.  Note 35.  Velocity 110
000000t:  Note on ::  Channel 1.  Note 47.  Velocity 110
000010t:  Control change ::  Channel 1.  Controller 7.  Value: 71
000024t:  Control change ::  Channel 1.  Controller 7.  Value: 70
000024t:  Control change ::  Channel 1.  Controller 7.  Value: 69
000025t:  Control change ::  Channel 1.  Controller 7.  Value: 68
000011t:  Note on ::  Channel 1.  Note 23.  Velocity 0
000000t:  Note on ::  Channel 1.  Note 35.  Velocity 0
000000t:  Note on ::  Channel 1.  Note 47.  Velocity 0
000002t:  Note on ::  Channel 1.  Note 19.  Velocity 110
000000t:  Note on ::  Channel 1.  Note 31.  Velocity 110
000000t:  Note on ::  Channel 1.  Note 43.  Velocity 110
000011t:  Control change ::  Channel 1.  Controller 7.  Value: 67
000024t:  Control change ::  Channel 1.  Controller 7.  Value: 66
000024t:  Control change ::  Channel 1.  Controller 7.  Value: 65
000024t:  Control change ::  Channel 1.  Controller 7.  Value: 64
000011t:  Note on ::  Channel 1.  Note 19.  Velocity 0
000000t:  Note on ::  Channel 1.  Note 31.  Velocity 0
000000t:  Note on ::  Channel 1.  Note 43.  Velocity 0
000002t:  Note on ::  Channel 1.  Note 21.  Velocity 110
000000t:  Note on ::  Channel 1.  Note 33.  Velocity 110
000000t:  Note on ::  Channel 1.  Note 45.  Velocity 110
000012t:  Control change ::  Channel 1.  Controller 7.  Value: 63
000024t:  Control change ::  Channel 1.  Controller 7.  Value: 62
000024t:  Control change ::  Channel 1.  Controller 7.  Value: 61
000024t:  Control change ::  Channel 1.  Controller 7.  Value: 60
000010t:  Note on ::  Channel 1.  Note 21.  Velocity 0
000000t:  Note on ::  Channel 1.  Note 33.  Velocity 0
000000t:  Note on ::  Channel 1.  Note 45.  Velocity 0
000002t:  Note on ::  Channel 1.  Note 21.  Velocity 110
000000t:  Note on ::  Channel 1.  Note 33.  Velocity 110
000000t:  Note on ::  Channel 1.  Note 45.  Velocity 110
000012t:  Control change ::  Channel 1.  Controller 7.  Value: 59
000025t:  Control change ::  Channel 1.  Controller 7.  Value: 58
000024t:  Control change ::  Channel 1.  Controller 7.  Value: 57
000024t:  Control change ::  Channel 1.  Controller 7.  Value: 56
000009t:  Note on ::  Channel 1.  Note 21.  Velocity 0
000000t:  Note on ::  Channel 1.  Note 33.  Velocity 0
000000t:  Note on ::  Channel 1.  Note 45.  Velocity 0
000002t:  Note on ::  Channel 1.  Note 21.  Velocity 110
000000t:  Note on ::  Channel 1.  Note 33.  Velocity 110
000000t:  Note on ::  Channel 1.  Note 45.  Velocity 110
000013t:  Control change ::  Channel 1.  Controller 7.  Value: 55
000024t:  Control change ::  Channel 1.  Controller 7.  Value: 54
000024t:  Control change ::  Channel 1.  Controller 7.  Value: 53
000025t:  Control change ::  Channel 1.  Controller 7.  Value: 52
000008t:  Note on ::  Channel 1.  Note 21.  Velocity 0
000000t:  Note on ::  Channel 1.  Note 33.  Velocity 0
000000t:  Note on ::  Channel 1.  Note 45.  Velocity 0
000002t:  Note on ::  Channel 1.  Note 21.  Velocity 110
000000t:  Note on ::  Channel 1.  Note 33.  Velocity 110
000000t:  Note on ::  Channel 1.  Note 45.  Velocity 110
000014t:  Control change ::  Channel 1.  Controller 7.  Value: 51
000024t:  Control change ::  Channel 1.  Controller 7.  Value: 50
000024t:  Control change ::  Channel 1.  Controller 7.  Value: 49
000024t:  Control change ::  Channel 1.  Controller 7.  Value: 48
000008t:  Note on ::  Channel 1.  Note 21.  Velocity 0
000000t:  Note on ::  Channel 1.  Note 33.  Velocity 0
000000t:  Note on ::  Channel 1.  Note 45.  Velocity 0
000002t:  Note on ::  Channel 1.  Note 21.  Velocity 110
000000t:  Note on ::  Channel 1.  Note 33.  Velocity 110
000000t:  Note on ::  Channel 1.  Note 45.  Velocity 110
000015t:  Control change ::  Channel 1.  Controller 7.  Value: 47
000024t:  Control change ::  Channel 1.  Controller 7.  Value: 46
000024t:  Control change ::  Channel 1.  Controller 7.  Value: 45
000024t:  Control change ::  Channel 1.  Controller 7.  Value: 44
000007t:  Note on ::  Channel 1.  Note 21.  Velocity 0
000000t:  Note on ::  Channel 1.  Note 33.  Velocity 0
000000t:  Note on ::  Channel 1.  Note 45.  Velocity 0
000002t:  Note on ::  Channel 1.  Note 21.  Velocity 110
000000t:  Note on ::  Channel 1.  Note 33.  Velocity 110
000000t:  Note on ::  Channel 1.  Note 45.  Velocity 110
000015t:  Control change ::  Channel 1.  Controller 7.  Value: 43
000025t:  Control change ::  Channel 1.  Controller 7.  Value: 42
000024t:  Control change ::  Channel 1.  Controller 7.  Value: 41
000024t:  Control change ::  Channel 1.  Controller 7.  Value: 40
000006t:  Note on ::  Channel 1.  Note 21.  Velocity 0
000000t:  Note on ::  Channel 1.  Note 33.  Velocity 0
000000t:  Note on ::  Channel 1.  Note 45.  Velocity 0
000002t:  Note on ::  Channel 1.  Note 19.  Velocity 110
000000t:  Note on ::  Channel 1.  Note 31.  Velocity 110
000000t:  Note on ::  Channel 1.  Note 43.  Velocity 110
000016t:  Control change ::  Channel 1.  Controller 7.  Value: 39
000024t:  Control change ::  Channel 1.  Controller 7.  Value: 38
000025t:  Control change ::  Channel 1.  Controller 7.  Value: 37
000024t:  Control change ::  Channel 1.  Controller 7.  Value: 36
000005t:  Note on ::  Channel 1.  Note 19.  Velocity 0
000000t:  Note on ::  Channel 1.  Note 31.  Velocity 0
000000t:  Note on ::  Channel 1.  Note 43.  Velocity 0
000002t:  Note on ::  Channel 1.  Note 19.  Velocity 110
000000t:  Note on ::  Channel 1.  Note 31.  Velocity 110
000000t:  Note on ::  Channel 1.  Note 43.  Velocity 110
000017t:  Control change ::  Channel 1.  Controller 7.  Value: 35
000024t:  Control change ::  Channel 1.  Controller 7.  Value: 34
000024t:  Control change ::  Channel 1.  Controller 7.  Value: 33
000024t:  Control change ::  Channel 1.  Controller 7.  Value: 32
000005t:  Note on ::  Channel 1.  Note 19.  Velocity 0
000000t:  Note on ::  Channel 1.  Note 31.  Velocity 0
000000t:  Note on ::  Channel 1.  Note 43.  Velocity 0
000002t:  Note on ::  Channel 1.  Note 21.  Velocity 110
000000t:  Note on ::  Channel 1.  Note 33.  Velocity 110
000000t:  Note on ::  Channel 1.  Note 45.  Velocity 110
000018t:  Control change ::  Channel 1.  Controller 7.  Value: 31
000024t:  Control change ::  Channel 1.  Controller 7.  Value: 30
000024t:  Control change ::  Channel 1.  Controller 7.  Value: 29
000024t:  Control change ::  Channel 1.  Controller 7.  Value: 28
000004t:  Note on ::  Channel 1.  Note 21.  Velocity 0
000000t:  Note on ::  Channel 1.  Note 33.  Velocity 0
000000t:  Note on ::  Channel 1.  Note 45.  Velocity 0
000002t:  Note on ::  Channel 1.  Note 21.  Velocity 110
000000t:  Note on ::  Channel 1.  Note 33.  Velocity 110
000000t:  Note on ::  Channel 1.  Note 45.  Velocity 110
000018t:  Control change ::  Channel 1.  Controller 7.  Value: 27
000025t:  Control change ::  Channel 1.  Controller 7.  Value: 26
000024t:  Control change ::  Channel 1.  Controller 7.  Value: 25
000024t:  Control change ::  Channel 1.  Controller 7.  Value: 24
000003t:  Note on ::  Channel 1.  Note 21.  Velocity 0
000000t:  Note on ::  Channel 1.  Note 33.  Velocity 0
000000t:  Note on ::  Channel 1.  Note 45.  Velocity 0
000002t:  Note on ::  Channel 1.  Note 21.  Velocity 110
000000t:  Note on ::  Channel 1.  Note 33.  Velocity 110
000000t:  Note on ::  Channel 1.  Note 45.  Velocity 110
000019t:  Control change ::  Channel 1.  Controller 7.  Value: 23
000024t:  Control change ::  Channel 1.  Controller 7.  Value: 22
000025t:  Control change ::  Channel 1.  Controller 7.  Value: 21
000024t:  Control change ::  Channel 1.  Controller 7.  Value: 20
000002t:  Note on ::  Channel 1.  Note 21.  Velocity 0
000000t:  Note on ::  Channel 1.  Note 33.  Velocity 0
000000t:  Note on ::  Channel 1.  Note 45.  Velocity 0
000002t:  Note on ::  Channel 1.  Note 21.  Velocity 110
000000t:  Note on ::  Channel 1.  Note 33.  Velocity 110
000000t:  Note on ::  Channel 1.  Note 45.  Velocity 110
000020t:  Control change ::  Channel 1.  Controller 7.  Value: 19
000024t:  Control change ::  Channel 1.  Controller 7.  Value: 18
000024t:  Control change ::  Channel 1.  Controller 7.  Value: 17
000024t:  Control change ::  Channel 1.  Controller 7.  Value: 16
000002t:  Note on ::  Channel 1.  Note 21.  Velocity 0
000000t:  Note on ::  Channel 1.  Note 33.  Velocity 0
000000t:  Note on ::  Channel 1.  Note 45.  Velocity 0
000002t:  Note on ::  Channel 1.  Note 21.  Velocity 110
000000t:  Note on ::  Channel 1.  Note 33.  Velocity 110
000000t:  Note on ::  Channel 1.  Note 45.  Velocity 110
000021t:  Control change ::  Channel 1.  Controller 7.  Value: 15
000024t:  Control change ::  Channel 1.  Controller 7.  Value: 14
000024t:  Control change ::  Channel 1.  Controller 7.  Value: 13
000024t:  Control change ::  Channel 1.  Controller 7.  Value: 12
000001t:  Note on ::  Channel 1.  Note 21.  Velocity 0
000000t:  Note on ::  Channel 1.  Note 33.  Velocity 0
000000t:  Note on ::  Channel 1.  Note 45.  Velocity 0
000002t:  Note on ::  Channel 1.  Note 21.  Velocity 110
000000t:  Note on ::  Channel 1.  Note 33.  Velocity 110
000000t:  Note on ::  Channel 1.  Note 45.  Velocity 110
000021t:  Control change ::  Channel 1.  Controller 7.  Value: 11
000025t:  Control change ::  Channel 1.  Controller 7.  Value: 10
000024t:  Control change ::  Channel 1.  Controller 7.  Value: 9
000024t:  Note on ::  Channel 1.  Note 21.  Velocity 0
000000t:  Note on ::  Channel 1.  Note 33.  Velocity 0
000000t:  Note on ::  Channel 1.  Note 45.  Velocity 0
000000t:  Control change ::  Channel 1.  Controller 7.  Value: 8
000002t:  Note on ::  Channel 1.  Note 19.  Velocity 110
000000t:  Note on ::  Channel 1.  Note 31.  Velocity 110
000000t:  Note on ::  Channel 1.  Note 43.  Velocity 110
000022t:  Control change ::  Channel 1.  Controller 7.  Value: 7
000024t:  Control change ::  Channel 1.  Controller 7.  Value: 6
000025t:  Control change ::  Channel 1.  Controller 7.  Value: 5
000023t:  Note on ::  Channel 1.  Note 19.  Velocity 0
000000t:  Note on ::  Channel 1.  Note 31.  Velocity 0
000000t:  Note on ::  Channel 1.  Note 43.  Velocity 0
000001t:  Control change ::  Channel 1.  Controller 7.  Value: 4
000001t:  Note on ::  Channel 1.  Note 19.  Velocity 110
000000t:  Note on ::  Channel 1.  Note 31.  Velocity 110
000000t:  Note on ::  Channel 1.  Note 43.  Velocity 110
000023t:  Control change ::  Channel 1.  Controller 7.  Value: 3
000024t:  Control change ::  Channel 1.  Controller 7.  Value: 2
000024t:  Control change ::  Channel 1.  Controller 7.  Value: 1
000023t:  Note on ::  Channel 1.  Note 19.  Velocity 0
000000t:  Note on ::  Channel 1.  Note 31.  Velocity 0
000000t:  Note on ::  Channel 1.  Note 43.  Velocity 0
000002t:  Control change ::  Channel 1.  Controller 7.  Value: 0
000000t:  Meta-event type $2f (End-track event) of length 0
Sigma t = 87264

Track chunk of 4541 bytes
000000t:  Meta-event type $21 (?) of length 1
	  _
000000t:  Meta-event type $03 (Track name) of length 23
	  Sequenced by JeffreyAtW
000000t:  Control change ::  Channel 9.  Controller 7.  Value: 127
000000t:  Control change ::  Channel 9.  Controller 10.  Value: 64
000288t:  Note on ::  Channel 9.  Note 35.  Velocity 110
000160t:  Note on ::  Channel 9.  Note 35.  Velocity 0
000032t:  Note on ::  Channel 9.  Note 35.  Velocity 110
000160t:  Note on ::  Channel 9.  Note 35.  Velocity 0
000032t:  Note on ::  Channel 9.  Note 35.  Velocity 110
000160t:  Note on ::  Channel 9.  Note 35.  Velocity 0
000032t:  Note on ::  Channel 9.  Note 35.  Velocity 110
000160t:  Note on ::  Channel 9.  Note 35.  Velocity 0
000032t:  Note on ::  Channel 9.  Note 35.  Velocity 110
000160t:  Note on ::  Channel 9.  Note 35.  Velocity 0
000032t:  Note on ::  Channel 9.  Note 35.  Velocity 110
000160t:  Note on ::  Channel 9.  Note 35.  Velocity 0
000032t:  Note on ::  Channel 9.  Note 35.  Velocity 110
000160t:  Note on ::  Channel 9.  Note 35.  Velocity 0
000032t:  Note on ::  Channel 9.  Note 35.  Velocity 110
000160t:  Note on ::  Channel 9.  Note 35.  Velocity 0
000032t:  Note on ::  Channel 9.  Note 35.  Velocity 110
000160t:  Note on ::  Channel 9.  Note 35.  Velocity 0
000032t:  Note on ::  Channel 9.  Note 35.  Velocity 110
000160t:  Note on ::  Channel 9.  Note 35.  Velocity 0
000032t:  Note on ::  Channel 9.  Note 35.  Velocity 110
000160t:  Note on ::  Channel 9.  Note 35.  Velocity 0
000032t:  Note on ::  Channel 9.  Note 35.  Velocity 110
000160t:  Note on ::  Channel 9.  Note 35.  Velocity 0
000032t:  Note on ::  Channel 9.  Note 35.  Velocity 110
000160t:  Note on ::  Channel 9.  Note 35.  Velocity 0
000032t:  Note on ::  Channel 9.  Note 35.  Velocity 110
000160t:  Note on ::  Channel 9.  Note 35.  Velocity 0
000032t:  Note on ::  Channel 9.  Note 35.  Velocity 110
000160t:  Note on ::  Channel 9.  Note 35.  Velocity 0
000032t:  Note on ::  Channel 9.  Note 35.  Velocity 110
000160t:  Note on ::  Channel 9.  Note 35.  Velocity 0
000032t:  Note on ::  Channel 9.  Note 35.  Velocity 110
000160t:  Note on ::  Channel 9.  Note 35.  Velocity 0
000032t:  Note on ::  Channel 9.  Note 35.  Velocity 110
000160t:  Note on ::  Channel 9.  Note 35.  Velocity 0
000032t:  Note on ::  Channel 9.  Note 35.  Velocity 110
000160t:  Note on ::  Channel 9.  Note 35.  Velocity 0
000032t:  Note on ::  Channel 9.  Note 35.  Velocity 110
000160t:  Note on ::  Channel 9.  Note 35.  Velocity 0
000032t:  Note on ::  Channel 9.  Note 35.  Velocity 110
000160t:  Note on ::  Channel 9.  Note 35.  Velocity 0
000032t:  Note on ::  Channel 9.  Note 35.  Velocity 110
000160t:  Note on ::  Channel 9.  Note 35.  Velocity 0
000032t:  Note on ::  Channel 9.  Note 35.  Velocity 110
000160t:  Note on ::  Channel 9.  Note 35.  Velocity 0
000032t:  Note on ::  Channel 9.  Note 35.  Velocity 110
000160t:  Note on ::  Channel 9.  Note 35.  Velocity 0
000032t:  Note on ::  Channel 9.  Note 35.  Velocity 110
000160t:  Note on ::  Channel 9.  Note 35.  Velocity 0
000032t:  Note on ::  Channel 9.  Note 35.  Velocity 110
000160t:  Note on ::  Channel 9.  Note 35.  Velocity 0
000032t:  Note on ::  Channel 9.  Note 35.  Velocity 110
000160t:  Note on ::  Channel 9.  Note 35.  Velocity 0
000032t:  Note on ::  Channel 9.  Note 35.  Velocity 110
000160t:  Note on ::  Channel 9.  Note 35.  Velocity 0
000032t:  Note on ::  Channel 9.  Note 35.  Velocity 110
000160t:  Note on ::  Channel 9.  Note 35.  Velocity 0
000032t:  Note on ::  Channel 9.  Note 35.  Velocity 110
000160t:  Note on ::  Channel 9.  Note 35.  Velocity 0
000032t:  Note on ::  Channel 9.  Note 35.  Velocity 110
000160t:  Note on ::  Channel 9.  Note 35.  Velocity 0
000032t:  Note on ::  Channel 9.  Note 35.  Velocity 110
000160t:  Note on ::  Channel 9.  Note 35.  Velocity 0
000032t:  Note on ::  Channel 9.  Note 35.  Velocity 110
000160t:  Note on ::  Channel 9.  Note 35.  Velocity 0
000032t:  Note on ::  Channel 9.  Note 35.  Velocity 110
000160t:  Note on ::  Channel 9.  Note 35.  Velocity 0
000032t:  Note on ::  Channel 9.  Note 35.  Velocity 110
000160t:  Note on ::  Channel 9.  Note 35.  Velocity 0
000032t:  Note on ::  Channel 9.  Note 35.  Velocity 110
000160t:  Note on ::  Channel 9.  Note 35.  Velocity 0
000032t:  Note on ::  Channel 9.  Note 35.  Velocity 110
000160t:  Note on ::  Channel 9.  Note 35.  Velocity 0
000128t:  Note on ::  Channel 9.  Note 35.  Velocity 110
000094t:  Note on ::  Channel 9.  Note 35.  Velocity 0
000002t:  Note on ::  Channel 9.  Note 38.  Velocity 110
000094t:  Note on ::  Channel 9.  Note 38.  Velocity 0
000002t:  Note on ::  Channel 9.  Note 35.  Velocity 110
000094t:  Note on ::  Channel 9.  Note 35.  Velocity 0
000002t:  Note on ::  Channel 9.  Note 35.  Velocity 110
000160t:  Note on ::  Channel 9.  Note 35.  Velocity 0
000032t:  Note on ::  Channel 9.  Note 35.  Velocity 110
000160t:  Note on ::  Channel 9.  Note 35.  Velocity 0
000032t:  Note on ::  Channel 9.  Note 35.  Velocity 110
000160t:  Note on ::  Channel 9.  Note 35.  Velocity 0
000032t:  Note on ::  Channel 9.  Note 35.  Velocity 110
000160t:  Note on ::  Channel 9.  Note 35.  Velocity 0
000032t:  Note on ::  Channel 9.  Note 35.  Velocity 110
000160t:  Note on ::  Channel 9.  Note 35.  Velocity 0
000032t:  Note on ::  Channel 9.  Note 35.  Velocity 110
000160t:  Note on ::  Channel 9.  Note 35.  Velocity 0
000032t:  Note on ::  Channel 9.  Note 35.  Velocity 110
000160t:  Note on ::  Channel 9.  Note 35.  Velocity 0
000032t:  Note on ::  Channel 9.  Note 35.  Velocity 110
000160t:  Note on ::  Channel 9.  Note 35.  Velocity 0
000032t:  Note on ::  Channel 9.  Note 35.  Velocity 110
000160t:  Note on ::  Channel 9.  Note 35.  Velocity 0
000032t:  Note on ::  Channel 9.  Note 35.  Velocity 110
000160t:  Note on ::  Channel 9.  Note 35.  Velocity 0
000032t:  Note on ::  Channel 9.  Note 35.  Velocity 110
000160t:  Note on ::  Channel 9.  Note 35.  Velocity 0
000032t:  Note on ::  Channel 9.  Note 35.  Velocity 110
000160t:  Note on ::  Channel 9.  Note 35.  Velocity 0
000032t:  Note on ::  Channel 9.  Note 35.  Velocity 110
000160t:  Note on ::  Channel 9.  Note 35.  Velocity 0
000032t:  Note on ::  Channel 9.  Note 35.  Velocity 110
000160t:  Note on ::  Channel 9.  Note 35.  Velocity 0
000032t:  Note on ::  Channel 9.  Note 35.  Velocity 110
000160t:  Note on ::  Channel 9.  Note 35.  Velocity 0
000032t:  Note on ::  Channel 9.  Note 35.  Velocity 110
000160t:  Note on ::  Channel 9.  Note 35.  Velocity 0
000032t:  Note on ::  Channel 9.  Note 35.  Velocity 110
000000t:  Note on ::  Channel 9.  Note 49.  Velocity 110
000160t:  Note on ::  Channel 9.  Note 35.  Velocity 0
000000t:  Note on ::  Channel 9.  Note 49.  Velocity 0
000128t:  Note on ::  Channel 9.  Note 35.  Velocity 110
000160t:  Note on ::  Channel 9.  Note 35.  Velocity 0
000320t:  Note on ::  Channel 9.  Note 35.  Velocity 110
000160t:  Note on ::  Channel 9.  Note 35.  Velocity 0
000128t:  Note on ::  Channel 9.  Note 35.  Velocity 110
000160t:  Note on ::  Channel 9.  Note 35.  Velocity 0
000320t:  Note on ::  Channel 9.  Note 35.  Velocity 110
000160t:  Note on ::  Channel 9.  Note 35.  Velocity 0
000032t:  Note on ::  Channel 9.  Note 35.  Velocity 110
000160t:  Note on ::  Channel 9.  Note 35.  Velocity 0
000032t:  Note on ::  Channel 9.  Note 35.  Velocity 110
000160t:  Note on ::  Channel 9.  Note 35.  Velocity 0
000032t:  Note on ::  Channel 9.  Note 35.  Velocity 110
000160t:  Note on ::  Channel 9.  Note 35.  Velocity 0
000032t:  Note on ::  Channel 9.  Note 35.  Velocity 110
000160t:  Note on ::  Channel 9.  Note 35.  Velocity 0
000032t:  Note on ::  Channel 9.  Note 35.  Velocity 110
000160t:  Note on ::  Channel 9.  Note 35.  Velocity 0
000032t:  Note on ::  Channel 9.  Note 35.  Velocity 110
000160t:  Note on ::  Channel 9.  Note 35.  Velocity 0
000032t:  Note on ::  Channel 9.  Note 35.  Velocity 110
000160t:  Note on ::  Channel 9.  Note 35.  Velocity 0
000032t:  Note on ::  Channel 9.  Note 35.  Velocity 110
000160t:  Note on ::  Channel 9.  Note 35.  Velocity 0
000128t:  Note on ::  Channel 9.  Note 35.  Velocity 110
000160t:  Note on ::  Channel 9.  Note 35.  Velocity 0
000320t:  Note on ::  Channel 9.  Note 35.  Velocity 110
000160t:  Note on ::  Channel 9.  Note 35.  Velocity 0
000128t:  Note on ::  Channel 9.  Note 35.  Velocity 110
000160t:  Note on ::  Channel 9.  Note 35.  Velocity 0
000320t:  Note on ::  Channel 9.  Note 35.  Velocity 110
000160t:  Note on ::  Channel 9.  Note 35.  Velocity 0
000032t:  Note on ::  Channel 9.  Note 35.  Velocity 110
000160t:  Note on ::  Channel 9.  Note 35.  Velocity 0
000032t:  Note on ::  Channel 9.  Note 35.  Velocity 110
000160t:  Note on ::  Channel 9.  Note 35.  Velocity 0
000032t:  Note on ::  Channel 9.  Note 35.  Velocity 110
000160t:  Note on ::  Channel 9.  Note 35.  Velocity 0
000032t:  Note on ::  Channel 9.  Note 35.  Velocity 110
000160t:  Note on ::  Channel 9.  Note 35.  Velocity 0
000032t:  Note on ::  Channel 9.  Note 35.  Velocity 110
000160t:  Note on ::  Channel 9.  Note 35.  Velocity 0
000032t:  Note on ::  Channel 9.  Note 35.  Velocity 110
000160t:  Note on ::  Channel 9.  Note 35.  Velocity 0
000032t:  Note on ::  Channel 9.  Note 35.  Velocity 110
000160t:  Note on ::  Channel 9.  Note 35.  Velocity 0
000032t:  Note on ::  Channel 9.  Note 35.  Velocity 110
000160t:  Note on ::  Channel 9.  Note 35.  Velocity 0
000128t:  Note on ::  Channel 9.  Note 35.  Velocity 110
000160t:  Note on ::  Channel 9.  Note 35.  Velocity 0
000320t:  Note on ::  Channel 9.  Note 35.  Velocity 110
000160t:  Note on ::  Channel 9.  Note 35.  Velocity 0
000128t:  Note on ::  Channel 9.  Note 35.  Velocity 110
000160t:  Note on ::  Channel 9.  Note 35.  Velocity 0
000320t:  Note on ::  Channel 9.  Note 35.  Velocity 110
000160t:  Note on ::  Channel 9.  Note 35.  Velocity 0
000032t:  Note on ::  Channel 9.  Note 35.  Velocity 110
000160t:  Note on ::  Channel 9.  Note 35.  Velocity 0
000032t:  Note on ::  Channel 9.  Note 35.  Velocity 110
000160t:  Note on ::  Channel 9.  Note 35.  Velocity 0
000032t:  Note on ::  Channel 9.  Note 35.  Velocity 110
000160t:  Note on ::  Channel 9.  Note 35.  Velocity 0
000032t:  Note on ::  Channel 9.  Note 35.  Velocity 110
000160t:  Note on ::  Channel 9.  Note 35.  Velocity 0
000032t:  Note on ::  Channel 9.  Note 35.  Velocity 110
000160t:  Note on ::  Channel 9.  Note 35.  Velocity 0
000032t:  Note on ::  Channel 9.  Note 35.  Velocity 110
000160t:  Note on ::  Channel 9.  Note 35.  Velocity 0
000032t:  Note on ::  Channel 9.  Note 35.  Velocity 110
000160t:  Note on ::  Channel 9.  Note 35.  Velocity 0
000032t:  Note on ::  Channel 9.  Note 35.  Velocity 110
000160t:  Note on ::  Channel 9.  Note 35.  Velocity 0
000128t:  Note on ::  Channel 9.  Note 35.  Velocity 110
000160t:  Note on ::  Channel 9.  Note 35.  Velocity 0
000320t:  Note on ::  Channel 9.  Note 35.  Velocity 110
000160t:  Note on ::  Channel 9.  Note 35.  Velocity 0
000128t:  Note on ::  Channel 9.  Note 35.  Velocity 110
000160t:  Note on ::  Channel 9.  Note 35.  Velocity 0
000320t:  Note on ::  Channel 9.  Note 35.  Velocity 110
000160t:  Note on ::  Channel 9.  Note 35.  Velocity 0
000032t:  Note on ::  Channel 9.  Note 35.  Velocity 110
000160t:  Note on ::  Channel 9.  Note 35.  Velocity 0
000032t:  Note on ::  Channel 9.  Note 35.  Velocity 110
000160t:  Note on ::  Channel 9.  Note 35.  Velocity 0
000032t:  Note on ::  Channel 9.  Note 35.  Velocity 110
000160t:  Note on ::  Channel 9.  Note 35.  Velocity 0
000032t:  Note on ::  Channel 9.  Note 35.  Velocity 110
000160t:  Note on ::  Channel 9.  Note 35.  Velocity 0
000032t:  Note on ::  Channel 9.  Note 35.  Velocity 110
000160t:  Note on ::  Channel 9.  Note 35.  Velocity 0
000032t:  Note on ::  Channel 9.  Note 35.  Velocity 110
000160t:  Note on ::  Channel 9.  Note 35.  Velocity 0
000032t:  Note on ::  Channel 9.  Note 35.  Velocity 110
000160t:  Note on ::  Channel 9.  Note 35.  Velocity 0
000032t:  Note on ::  Channel 9.  Note 35.  Velocity 110
000160t:  Note on ::  Channel 9.  Note 35.  Velocity 0
000032t:  Note on ::  Channel 9.  Note 38.  Velocity 110
000094t:  Note on ::  Channel 9.  Note 38.  Velocity 0
000002t:  Note on ::  Channel 9.  Note 35.  Velocity 110
000160t:  Note on ::  Channel 9.  Note 35.  Velocity 0
000128t:  Note on ::  Channel 9.  Note 38.  Velocity 110
000160t:  Note on ::  Channel 9.  Note 38.  Velocity 0
000032t:  Note on ::  Channel 9.  Note 35.  Velocity 110
000160t:  Note on ::  Channel 9.  Note 35.  Velocity 0
000032t:  Note on ::  Channel 9.  Note 38.  Velocity 110
000094t:  Note on ::  Channel 9.  Note 38.  Velocity 0
000002t:  Note on ::  Channel 9.  Note 35.  Velocity 110
000160t:  Note on ::  Channel 9.  Note 35.  Velocity 0
000032t:  Note on ::  Channel 9.  Note 35.  Velocity 110
000094t:  Note on ::  Channel 9.  Note 35.  Velocity 0
000002t:  Note on ::  Channel 9.  Note 38.  Velocity 110
000160t:  Note on ::  Channel 9.  Note 38.  Velocity 0
000032t:  Note on ::  Channel 9.  Note 35.  Velocity 110
000160t:  Note on ::  Channel 9.  Note 35.  Velocity 0
000032t:  Note on ::  Channel 9.  Note 38.  Velocity 110
000094t:  Note on ::  Channel 9.  Note 38.  Velocity 0
000002t:  Note on ::  Channel 9.  Note 35.  Velocity 110
000160t:  Note on ::  Channel 9.  Note 35.  Velocity 0
000128t:  Note on ::  Channel 9.  Note 38.  Velocity 110
000160t:  Note on ::  Channel 9.  Note 38.  Velocity 0
000032t:  Note on ::  Channel 9.  Note 35.  Velocity 110
000160t:  Note on ::  Channel 9.  Note 35.  Velocity 0
000032t:  Note on ::  Channel 9.  Note 38.  Velocity 110
000094t:  Note on ::  Channel 9.  Note 38.  Velocity 0
000002t:  Note on ::  Channel 9.  Note 35.  Velocity 110
000160t:  Note on ::  Channel 9.  Note 35.  Velocity 0
000032t:  Note on ::  Channel 9.  Note 35.  Velocity 110
000094t:  Note on ::  Channel 9.  Note 35.  Velocity 0
000002t:  Note on ::  Channel 9.  Note 38.  Velocity 110
000094t:  Note on ::  Channel 9.  Note 38.  Velocity 0
000002t:  Note on ::  Channel 9.  Note 35.  Velocity 110
000094t:  Note on ::  Channel 9.  Note 35.  Velocity 0
000002t:  Note on ::  Channel 9.  Note 35.  Velocity 110
000160t:  Note on ::  Channel 9.  Note 35.  Velocity 0
000032t:  Note on ::  Channel 9.  Note 38.  Velocity 110
000094t:  Note on ::  Channel 9.  Note 38.  Velocity 0
000002t:  Note on ::  Channel 9.  Note 35.  Velocity 110
000160t:  Note on ::  Channel 9.  Note 35.  Velocity 0
000128t:  Note on ::  Channel 9.  Note 38.  Velocity 110
000160t:  Note on ::  Channel 9.  Note 38.  Velocity 0
000032t:  Note on ::  Channel 9.  Note 35.  Velocity 110
000160t:  Note on ::  Channel 9.  Note 35.  Velocity 0
000032t:  Note on ::  Channel 9.  Note 38.  Velocity 110
000094t:  Note on ::  Channel 9.  Note 38.  Velocity 0
000002t:  Note on ::  Channel 9.  Note 35.  Velocity 110
000160t:  Note on ::  Channel 9.  Note 35.  Velocity 0
000032t:  Note on ::  Channel 9.  Note 35.  Velocity 110
000094t:  Note on ::  Channel 9.  Note 35.  Velocity 0
000002t:  Note on ::  Channel 9.  Note 38.  Velocity 110
000160t:  Note on ::  Channel 9.  Note 38.  Velocity 0
000032t:  Note on ::  Channel 9.  Note 35.  Velocity 110
000160t:  Note on ::  Channel 9.  Note 35.  Velocity 0
000032t:  Note on ::  Channel 9.  Note 38.  Velocity 110
000094t:  Note on ::  Channel 9.  Note 38.  Velocity 0
000002t:  Note on ::  Channel 9.  Note 35.  Velocity 110
000160t:  Note on ::  Channel 9.  Note 35.  Velocity 0
000128t:  Note on ::  Channel 9.  Note 38.  Velocity 110
000160t:  Note on ::  Channel 9.  Note 38.  Velocity 0
000032t:  Note on ::  Channel 9.  Note 35.  Velocity 110
000160t:  Note on ::  Channel 9.  Note 35.  Velocity 0
000032t:  Note on ::  Channel 9.  Note 38.  Velocity 110
000094t:  Note on ::  Channel 9.  Note 38.  Velocity 0
000002t:  Note on ::  Channel 9.  Note 35.  Velocity 110
000160t:  Note on ::  Channel 9.  Note 35.  Velocity 0
000032t:  Note on ::  Channel 9.  Note 35.  Velocity 110
000094t:  Note on ::  Channel 9.  Note 35.  Velocity 0
000002t:  Note on ::  Channel 9.  Note 38.  Velocity 110
000000t:  Note on ::  Channel 9.  Note 49.  Velocity 110
000094t:  Note on ::  Channel 9.  Note 38.  Velocity 0
000002t:  Note on ::  Channel 9.  Note 35.  Velocity 110
000064t:  Note on ::  Channel 9.  Note 49.  Velocity 0
000030t:  Note on ::  Channel 9.  Note 35.  Velocity 0
000002t:  Note on ::  Channel 9.  Note 35.  Velocity 110
000160t:  Note on ::  Channel 9.  Note 35.  Velocity 0
000032t:  Note on ::  Channel 9.  Note 38.  Velocity 110
000094t:  Note on ::  Channel 9.  Note 38.  Velocity 0
000002t:  Note on ::  Channel 9.  Note 35.  Velocity 110
000160t:  Note on ::  Channel 9.  Note 35.  Velocity 0
000128t:  Note on ::  Channel 9.  Note 38.  Velocity 110
000160t:  Note on ::  Channel 9.  Note 38.  Velocity 0
000032t:  Note on ::  Channel 9.  Note 35.  Velocity 110
000160t:  Note on ::  Channel 9.  Note 35.  Velocity 0
000032t:  Note on ::  Channel 9.  Note 38.  Velocity 110
000094t:  Note on ::  Channel 9.  Note 38.  Velocity 0
000002t:  Note on ::  Channel 9.  Note 35.  Velocity 110
000160t:  Note on ::  Channel 9.  Note 35.  Velocity 0
000032t:  Note on ::  Channel 9.  Note 35.  Velocity 110
000094t:  Note on ::  Channel 9.  Note 35.  Velocity 0
000002t:  Note on ::  Channel 9.  Note 38.  Velocity 110
000160t:  Note on ::  Channel 9.  Note 38.  Velocity 0
000032t:  Note on ::  Channel 9.  Note 35.  Velocity 110
000160t:  Note on ::  Channel 9.  Note 35.  Velocity 0
000032t:  Note on ::  Channel 9.  Note 38.  Velocity 110
000094t:  Note on ::  Channel 9.  Note 38.  Velocity 0
000002t:  Note on ::  Channel 9.  Note 35.  Velocity 110
000160t:  Note on ::  Channel 9.  Note 35.  Velocity 0
000128t:  Note on ::  Channel 9.  Note 38.  Velocity 110
000160t:  Note on ::  Channel 9.  Note 38.  Velocity 0
000032t:  Note on ::  Channel 9.  Note 35.  Velocity 110
000160t:  Note on ::  Channel 9.  Note 35.  Velocity 0
000032t:  Note on ::  Channel 9.  Note 38.  Velocity 110
000094t:  Note on ::  Channel 9.  Note 38.  Velocity 0
000002t:  Note on ::  Channel 9.  Note 35.  Velocity 110
000160t:  Note on ::  Channel 9.  Note 35.  Velocity 0
000032t:  Note on ::  Channel 9.  Note 35.  Velocity 110
000094t:  Note on ::  Channel 9.  Note 35.  Velocity 0
000002t:  Note on ::  Channel 9.  Note 38.  Velocity 110
000094t:  Note on ::  Channel 9.  Note 38.  Velocity 0
000002t:  Note on ::  Channel 9.  Note 35.  Velocity 110
000094t:  Note on ::  Channel 9.  Note 35.  Velocity 0
000002t:  Note on ::  Channel 9.  Note 35.  Velocity 110
000160t:  Note on ::  Channel 9.  Note 35.  Velocity 0
000032t:  Note on ::  Channel 9.  Note 38.  Velocity 110
000094t:  Note on ::  Channel 9.  Note 38.  Velocity 0
000002t:  Note on ::  Channel 9.  Note 35.  Velocity 110
000160t:  Note on ::  Channel 9.  Note 35.  Velocity 0
000128t:  Note on ::  Channel 9.  Note 38.  Velocity 110
000160t:  Note on ::  Channel 9.  Note 38.  Velocity 0
000032t:  Note on ::  Channel 9.  Note 35.  Velocity 110
000160t:  Note on ::  Channel 9.  Note 35.  Velocity 0
000032t:  Note on ::  Channel 9.  Note 38.  Velocity 110
000094t:  Note on ::  Channel 9.  Note 38.  Velocity 0
000002t:  Note on ::  Channel 9.  Note 35.  Velocity 110
000160t:  Note on ::  Channel 9.  Note 35.  Velocity 0
000032t:  Note on ::  Channel 9.  Note 35.  Velocity 110
000094t:  Note on ::  Channel 9.  Note 35.  Velocity 0
000002t:  Note on ::  Channel 9.  Note 38.  Velocity 110
000160t:  Note on ::  Channel 9.  Note 38.  Velocity 0
000032t:  Note on ::  Channel 9.  Note 35.  Velocity 110
000160t:  Note on ::  Channel 9.  Note 35.  Velocity 0
000032t:  Note on ::  Channel 9.  Note 38.  Velocity 110
000094t:  Note on ::  Channel 9.  Note 38.  Velocity 0
000002t:  Note on ::  Channel 9.  Note 35.  Velocity 110
000160t:  Note on ::  Channel 9.  Note 35.  Velocity 0
000128t:  Note on ::  Channel 9.  Note 38.  Velocity 110
000160t:  Note on ::  Channel 9.  Note 38.  Velocity 0
000032t:  Note on ::  Channel 9.  Note 35.  Velocity 110
000160t:  Note on ::  Channel 9.  Note 35.  Velocity 0
000032t:  Note on ::  Channel 9.  Note 38.  Velocity 110
000094t:  Note on ::  Channel 9.  Note 38.  Velocity 0
000002t:  Note on ::  Channel 9.  Note 35.  Velocity 110
000160t:  Note on ::  Channel 9.  Note 35.  Velocity 0
000032t:  Note on ::  Channel 9.  Note 35.  Velocity 110
000094t:  Note on ::  Channel 9.  Note 35.  Velocity 0
000002t:  Note on ::  Channel 9.  Note 38.  Velocity 110
000094t:  Note on ::  Channel 9.  Note 38.  Velocity 0
000002t:  Note on ::  Channel 9.  Note 35.  Velocity 110
000094t:  Note on ::  Channel 9.  Note 35.  Velocity 0
000002t:  Note on ::  Channel 9.  Note 35.  Velocity 110
000160t:  Note on ::  Channel 9.  Note 35.  Velocity 0
000032t:  Note on ::  Channel 9.  Note 38.  Velocity 110
000094t:  Note on ::  Channel 9.  Note 38.  Velocity 0
000002t:  Note on ::  Channel 9.  Note 35.  Velocity 110
000160t:  Note on ::  Channel 9.  Note 35.  Velocity 0
000128t:  Note on ::  Channel 9.  Note 38.  Velocity 110
000160t:  Note on ::  Channel 9.  Note 38.  Velocity 0
000032t:  Note on ::  Channel 9.  Note 35.  Velocity 110
000160t:  Note on ::  Channel 9.  Note 35.  Velocity 0
000032t:  Note on ::  Channel 9.  Note 38.  Velocity 110
000094t:  Note on ::  Channel 9.  Note 38.  Velocity 0
000002t:  Note on ::  Channel 9.  Note 35.  Velocity 110
000160t:  Note on ::  Channel 9.  Note 35.  Velocity 0
000032t:  Note on ::  Channel 9.  Note 35.  Velocity 110
000094t:  Note on ::  Channel 9.  Note 35.  Velocity 0
000002t:  Note on ::  Channel 9.  Note 38.  Velocity 110
000160t:  Note on ::  Channel 9.  Note 38.  Velocity 0
000032t:  Note on ::  Channel 9.  Note 35.  Velocity 110
000160t:  Note on ::  Channel 9.  Note 35.  Velocity 0
000032t:  Note on ::  Channel 9.  Note 35.  Velocity 110
000160t:  Note on ::  Channel 9.  Note 35.  Velocity 0
000032t:  Note on ::  Channel 9.  Note 35.  Velocity 110
000160t:  Note on ::  Channel 9.  Note 35.  Velocity 0
000032t:  Note on ::  Channel 9.  Note 35.  Velocity 110
000160t:  Note on ::  Channel 9.  Note 35.  Velocity 0
000032t:  Note on ::  Channel 9.  Note 35.  Velocity 110
000160t:  Note on ::  Channel 9.  Note 35.  Velocity 0
000032t:  Note on ::  Channel 9.  Note 35.  Velocity 110
000160t:  Note on ::  Channel 9.  Note 35.  Velocity 0
000032t:  Note on ::  Channel 9.  Note 35.  Velocity 110
000160t:  Note on ::  Channel 9.  Note 35.  Velocity 0
000032t:  Note on ::  Channel 9.  Note 35.  Velocity 110
000160t:  Note on ::  Channel 9.  Note 35.  Velocity 0
000032t:  Note on ::  Channel 9.  Note 35.  Velocity 110
000160t:  Note on ::  Channel 9.  Note 35.  Velocity 0
000032t:  Note on ::  Channel 9.  Note 35.  Velocity 110
000160t:  Note on ::  Channel 9.  Note 35.  Velocity 0
000032t:  Note on ::  Channel 9.  Note 35.  Velocity 110
000160t:  Note on ::  Channel 9.  Note 35.  Velocity 0
000032t:  Note on ::  Channel 9.  Note 35.  Velocity 110
000160t:  Note on ::  Channel 9.  Note 35.  Velocity 0
000032t:  Note on ::  Channel 9.  Note 35.  Velocity 110
000160t:  Note on ::  Channel 9.  Note 35.  Velocity 0
000032t:  Note on ::  Channel 9.  Note 35.  Velocity 110
000160t:  Note on ::  Channel 9.  Note 35.  Velocity 0
000032t:  Note on ::  Channel 9.  Note 35.  Velocity 110
000160t:  Note on ::  Channel 9.  Note 35.  Velocity 0
000032t:  Note on ::  Channel 9.  Note 35.  Velocity 110
000160t:  Note on ::  Channel 9.  Note 35.  Velocity 0
000032t:  Note on ::  Channel 9.  Note 35.  Velocity 110
000160t:  Note on ::  Channel 9.  Note 35.  Velocity 0
000032t:  Note on ::  Channel 9.  Note 35.  Velocity 110
000160t:  Note on ::  Channel 9.  Note 35.  Velocity 0
000032t:  Note on ::  Channel 9.  Note 35.  Velocity 110
000160t:  Note on ::  Channel 9.  Note 35.  Velocity 0
000032t:  Note on ::  Channel 9.  Note 35.  Velocity 110
000160t:  Note on ::  Channel 9.  Note 35.  Velocity 0
000032t:  Note on ::  Channel 9.  Note 35.  Velocity 110
000160t:  Note on ::  Channel 9.  Note 35.  Velocity 0
000032t:  Note on ::  Channel 9.  Note 35.  Velocity 110
000160t:  Note on ::  Channel 9.  Note 35.  Velocity 0
000032t:  Note on ::  Channel 9.  Note 35.  Velocity 110
000160t:  Note on ::  Channel 9.  Note 35.  Velocity 0
000032t:  Note on ::  Channel 9.  Note 35.  Velocity 110
000160t:  Note on ::  Channel 9.  Note 35.  Velocity 0
000032t:  Note on ::  Channel 9.  Note 35.  Velocity 110
000160t:  Note on ::  Channel 9.  Note 35.  Velocity 0
000032t:  Note on ::  Channel 9.  Note 35.  Velocity 110
000160t:  Note on ::  Channel 9.  Note 35.  Velocity 0
000032t:  Note on ::  Channel 9.  Note 35.  Velocity 110
000160t:  Note on ::  Channel 9.  Note 35.  Velocity 0
000032t:  Note on ::  Channel 9.  Note 35.  Velocity 110
000160t:  Note on ::  Channel 9.  Note 35.  Velocity 0
000032t:  Note on ::  Channel 9.  Note 35.  Velocity 110
000160t:  Note on ::  Channel 9.  Note 35.  Velocity 0
000128t:  Note on ::  Channel 9.  Note 35.  Velocity 110
000094t:  Note on ::  Channel 9.  Note 35.  Velocity 0
000002t:  Note on ::  Channel 9.  Note 38.  Velocity 110
000094t:  Note on ::  Channel 9.  Note 38.  Velocity 0
000002t:  Note on ::  Channel 9.  Note 35.  Velocity 110
000094t:  Note on ::  Channel 9.  Note 35.  Velocity 0
000002t:  Note on ::  Channel 9.  Note 35.  Velocity 110
000160t:  Note on ::  Channel 9.  Note 35.  Velocity 0
000032t:  Note on ::  Channel 9.  Note 35.  Velocity 110
000160t:  Note on ::  Channel 9.  Note 35.  Velocity 0
000032t:  Note on ::  Channel 9.  Note 35.  Velocity 110
000160t:  Note on ::  Channel 9.  Note 35.  Velocity 0
000032t:  Note on ::  Channel 9.  Note 35.  Velocity 110
000160t:  Note on ::  Channel 9.  Note 35.  Velocity 0
000032t:  Note on ::  Channel 9.  Note 35.  Velocity 110
000160t:  Note on ::  Channel 9.  Note 35.  Velocity 0
000032t:  Note on ::  Channel 9.  Note 35.  Velocity 110
000160t:  Note on ::  Channel 9.  Note 35.  Velocity 0
000032t:  Note on ::  Channel 9.  Note 35.  Velocity 110
000160t:  Note on ::  Channel 9.  Note 35.  Velocity 0
000032t:  Note on ::  Channel 9.  Note 35.  Velocity 110
000160t:  Note on ::  Channel 9.  Note 35.  Velocity 0
000032t:  Note on ::  Channel 9.  Note 35.  Velocity 110
000160t:  Note on ::  Channel 9.  Note 35.  Velocity 0
000032t:  Note on ::  Channel 9.  Note 35.  Velocity 110
000160t:  Note on ::  Channel 9.  Note 35.  Velocity 0
000032t:  Note on ::  Channel 9.  Note 35.  Velocity 110
000160t:  Note on ::  Channel 9.  Note 35.  Velocity 0
000032t:  Note on ::  Channel 9.  Note 35.  Velocity 110
000160t:  Note on ::  Channel 9.  Note 35.  Velocity 0
000032t:  Note on ::  Channel 9.  Note 35.  Velocity 110
000160t:  Note on ::  Channel 9.  Note 35.  Velocity 0
000032t:  Note on ::  Channel 9.  Note 35.  Velocity 110
000160t:  Note on ::  Channel 9.  Note 35.  Velocity 0
000032t:  Note on ::  Channel 9.  Note 35.  Velocity 110
000160t:  Note on ::  Channel 9.  Note 35.  Velocity 0
000032t:  Note on ::  Channel 9.  Note 35.  Velocity 110
000160t:  Note on ::  Channel 9.  Note 35.  Velocity 0
000032t:  Note on ::  Channel 9.  Note 35.  Velocity 110
000000t:  Note on ::  Channel 9.  Note 49.  Velocity 110
000160t:  Note on ::  Channel 9.  Note 35.  Velocity 0
000000t:  Note on ::  Channel 9.  Note 49.  Velocity 0
000128t:  Note on ::  Channel 9.  Note 35.  Velocity 110
000160t:  Note on ::  Channel 9.  Note 35.  Velocity 0
000320t:  Note on ::  Channel 9.  Note 35.  Velocity 110
000160t:  Note on ::  Channel 9.  Note 35.  Velocity 0
000128t:  Note on ::  Channel 9.  Note 35.  Velocity 110
000160t:  Note on ::  Channel 9.  Note 35.  Velocity 0
000320t:  Note on ::  Channel 9.  Note 35.  Velocity 110
000160t:  Note on ::  Channel 9.  Note 35.  Velocity 0
000032t:  Note on ::  Channel 9.  Note 35.  Velocity 110
000160t:  Note on ::  Channel 9.  Note 35.  Velocity 0
000032t:  Note on ::  Channel 9.  Note 35.  Velocity 110
000160t:  Note on ::  Channel 9.  Note 35.  Velocity 0
000032t:  Note on ::  Channel 9.  Note 35.  Velocity 110
000160t:  Note on ::  Channel 9.  Note 35.  Velocity 0
000032t:  Note on ::  Channel 9.  Note 35.  Velocity 110
000160t:  Note on ::  Channel 9.  Note 35.  Velocity 0
000032t:  Note on ::  Channel 9.  Note 35.  Velocity 110
000160t:  Note on ::  Channel 9.  Note 35.  Velocity 0
000032t:  Note on ::  Channel 9.  Note 35.  Velocity 110
000160t:  Note on ::  Channel 9.  Note 35.  Velocity 0
000032t:  Note on ::  Channel 9.  Note 35.  Velocity 110
000160t:  Note on ::  Channel 9.  Note 35.  Velocity 0
000032t:  Note on ::  Channel 9.  Note 35.  Velocity 110
000160t:  Note on ::  Channel 9.  Note 35.  Velocity 0
000128t:  Note on ::  Channel 9.  Note 35.  Velocity 110
000160t:  Note on ::  Channel 9.  Note 35.  Velocity 0
000320t:  Note on ::  Channel 9.  Note 35.  Velocity 110
000160t:  Note on ::  Channel 9.  Note 35.  Velocity 0
000128t:  Note on ::  Channel 9.  Note 35.  Velocity 110
000160t:  Note on ::  Channel 9.  Note 35.  Velocity 0
000320t:  Note on ::  Channel 9.  Note 35.  Velocity 110
000160t:  Note on ::  Channel 9.  Note 35.  Velocity 0
000032t:  Note on ::  Channel 9.  Note 35.  Velocity 110
000160t:  Note on ::  Channel 9.  Note 35.  Velocity 0
000032t:  Note on ::  Channel 9.  Note 35.  Velocity 110
000160t:  Note on ::  Channel 9.  Note 35.  Velocity 0
000032t:  Note on ::  Channel 9.  Note 35.  Velocity 110
000160t:  Note on ::  Channel 9.  Note 35.  Velocity 0
000032t:  Note on ::  Channel 9.  Note 35.  Velocity 110
000160t:  Note on ::  Channel 9.  Note 35.  Velocity 0
000032t:  Note on ::  Channel 9.  Note 35.  Velocity 110
000160t:  Note on ::  Channel 9.  Note 35.  Velocity 0
000032t:  Note on ::  Channel 9.  Note 35.  Velocity 110
000160t:  Note on ::  Channel 9.  Note 35.  Velocity 0
000032t:  Note on ::  Channel 9.  Note 35.  Velocity 110
000160t:  Note on ::  Channel 9.  Note 35.  Velocity 0
000032t:  Note on ::  Channel 9.  Note 35.  Velocity 110
000160t:  Note on ::  Channel 9.  Note 35.  Velocity 0
000128t:  Note on ::  Channel 9.  Note 35.  Velocity 110
000160t:  Note on ::  Channel 9.  Note 35.  Velocity 0
000320t:  Note on ::  Channel 9.  Note 35.  Velocity 110
000160t:  Note on ::  Channel 9.  Note 35.  Velocity 0
000128t:  Note on ::  Channel 9.  Note 35.  Velocity 110
000160t:  Note on ::  Channel 9.  Note 35.  Velocity 0
000320t:  Note on ::  Channel 9.  Note 35.  Velocity 110
000160t:  Note on ::  Channel 9.  Note 35.  Velocity 0
000032t:  Note on ::  Channel 9.  Note 35.  Velocity 110
000160t:  Note on ::  Channel 9.  Note 35.  Velocity 0
000032t:  Note on ::  Channel 9.  Note 35.  Velocity 110
000160t:  Note on ::  Channel 9.  Note 35.  Velocity 0
000032t:  Note on ::  Channel 9.  Note 35.  Velocity 110
000160t:  Note on ::  Channel 9.  Note 35.  Velocity 0
000032t:  Note on ::  Channel 9.  Note 35.  Velocity 110
000160t:  Note on ::  Channel 9.  Note 35.  Velocity 0
000032t:  Note on ::  Channel 9.  Note 35.  Velocity 110
000160t:  Note on ::  Channel 9.  Note 35.  Velocity 0
000032t:  Note on ::  Channel 9.  Note 35.  Velocity 110
000160t:  Note on ::  Channel 9.  Note 35.  Velocity 0
000032t:  Note on ::  Channel 9.  Note 35.  Velocity 110
000160t:  Note on ::  Channel 9.  Note 35.  Velocity 0
000032t:  Note on ::  Channel 9.  Note 35.  Velocity 110
000160t:  Note on ::  Channel 9.  Note 35.  Velocity 0
000128t:  Note on ::  Channel 9.  Note 35.  Velocity 110
000160t:  Note on ::  Channel 9.  Note 35.  Velocity 0
000320t:  Note on ::  Channel 9.  Note 35.  Velocity 110
000160t:  Note on ::  Channel 9.  Note 35.  Velocity 0
000128t:  Note on ::  Channel 9.  Note 35.  Velocity 110
000160t:  Note on ::  Channel 9.  Note 35.  Velocity 0
000320t:  Note on ::  Channel 9.  Note 35.  Velocity 110
000160t:  Note on ::  Channel 9.  Note 35.  Velocity 0
000032t:  Note on ::  Channel 9.  Note 35.  Velocity 110
000160t:  Note on ::  Channel 9.  Note 35.  Velocity 0
000032t:  Note on ::  Channel 9.  Note 35.  Velocity 110
000160t:  Note on ::  Channel 9.  Note 35.  Velocity 0
000032t:  Note on ::  Channel 9.  Note 35.  Velocity 110
000160t:  Note on ::  Channel 9.  Note 35.  Velocity 0
000032t:  Note on ::  Channel 9.  Note 35.  Velocity 110
000160t:  Note on ::  Channel 9.  Note 35.  Velocity 0
000032t:  Note on ::  Channel 9.  Note 35.  Velocity 110
000160t:  Note on ::  Channel 9.  Note 35.  Velocity 0
000032t:  Note on ::  Channel 9.  Note 35.  Velocity 110
000160t:  Note on ::  Channel 9.  Note 35.  Velocity 0
000032t:  Note on ::  Channel 9.  Note 35.  Velocity 110
000160t:  Note on ::  Channel 9.  Note 35.  Velocity 0
000032t:  Note on ::  Channel 9.  Note 35.  Velocity 110
000160t:  Note on ::  Channel 9.  Note 35.  Velocity 0
000032t:  Note on ::  Channel 9.  Note 38.  Velocity 110
000094t:  Note on ::  Channel 9.  Note 38.  Velocity 0
000002t:  Note on ::  Channel 9.  Note 35.  Velocity 110
000160t:  Note on ::  Channel 9.  Note 35.  Velocity 0
000128t:  Note on ::  Channel 9.  Note 38.  Velocity 110
000160t:  Note on ::  Channel 9.  Note 38.  Velocity 0
000032t:  Note on ::  Channel 9.  Note 35.  Velocity 110
000160t:  Note on ::  Channel 9.  Note 35.  Velocity 0
000032t:  Note on ::  Channel 9.  Note 38.  Velocity 110
000094t:  Note on ::  Channel 9.  Note 38.  Velocity 0
000002t:  Note on ::  Channel 9.  Note 35.  Velocity 110
000160t:  Note on ::  Channel 9.  Note 35.  Velocity 0
000032t:  Note on ::  Channel 9.  Note 35.  Velocity 110
000094t:  Note on ::  Channel 9.  Note 35.  Velocity 0
000002t:  Note on ::  Channel 9.  Note 38.  Velocity 110
000160t:  Note on ::  Channel 9.  Note 38.  Velocity 0
000032t:  Note on ::  Channel 9.  Note 35.  Velocity 110
000160t:  Note on ::  Channel 9.  Note 35.  Velocity 0
000032t:  Note on ::  Channel 9.  Note 38.  Velocity 110
000094t:  Note on ::  Channel 9.  Note 38.  Velocity 0
000002t:  Note on ::  Channel 9.  Note 35.  Velocity 110
000160t:  Note on ::  Channel 9.  Note 35.  Velocity 0
000128t:  Note on ::  Channel 9.  Note 38.  Velocity 110
000160t:  Note on ::  Channel 9.  Note 38.  Velocity 0
000032t:  Note on ::  Channel 9.  Note 35.  Velocity 110
000160t:  Note on ::  Channel 9.  Note 35.  Velocity 0
000032t:  Note on ::  Channel 9.  Note 38.  Velocity 110
000094t:  Note on ::  Channel 9.  Note 38.  Velocity 0
000002t:  Note on ::  Channel 9.  Note 35.  Velocity 110
000160t:  Note on ::  Channel 9.  Note 35.  Velocity 0
000032t:  Note on ::  Channel 9.  Note 35.  Velocity 110
000094t:  Note on ::  Channel 9.  Note 35.  Velocity 0
000002t:  Note on ::  Channel 9.  Note 38.  Velocity 110
000094t:  Note on ::  Channel 9.  Note 38.  Velocity 0
000002t:  Note on ::  Channel 9.  Note 35.  Velocity 110
000094t:  Note on ::  Channel 9.  Note 35.  Velocity 0
000002t:  Note on ::  Channel 9.  Note 35.  Velocity 110
000160t:  Note on ::  Channel 9.  Note 35.  Velocity 0
000032t:  Note on ::  Channel 9.  Note 38.  Velocity 110
000094t:  Note on ::  Channel 9.  Note 38.  Velocity 0
000002t:  Note on ::  Channel 9.  Note 35.  Velocity 110
000160t:  Note on ::  Channel 9.  Note 35.  Velocity 0
000128t:  Note on ::  Channel 9.  Note 38.  Velocity 110
000160t:  Note on ::  Channel 9.  Note 38.  Velocity 0
000032t:  Note on ::  Channel 9.  Note 35.  Velocity 110
000160t:  Note on ::  Channel 9.  Note 35.  Velocity 0
000032t:  Note on ::  Channel 9.  Note 38.  Velocity 110
000094t:  Note on ::  Channel 9.  Note 38.  Velocity 0
000002t:  Note on ::  Channel 9.  Note 35.  Velocity 110
000160t:  Note on ::  Channel 9.  Note 35.  Velocity 0
000032t:  Note on ::  Channel 9.  Note 35.  Velocity 110
000094t:  Note on ::  Channel 9.  Note 35.  Velocity 0
000002t:  Note on ::  Channel 9.  Note 38.  Velocity 110
000160t:  Note on ::  Channel 9.  Note 38.  Velocity 0
000032t:  Note on ::  Channel 9.  Note 35.  Velocity 110
000160t:  Note on ::  Channel 9.  Note 35.  Velocity 0
000032t:  Note on ::  Channel 9.  Note 38.  Velocity 110
000094t:  Note on ::  Channel 9.  Note 38.  Velocity 0
000002t:  Note on ::  Channel 9.  Note 35.  Velocity 110
000160t:  Note on ::  Channel 9.  Note 35.  Velocity 0
000128t:  Note on ::  Channel 9.  Note 38.  Velocity 110
000160t:  Note on ::  Channel 9.  Note 38.  Velocity 0
000032t:  Note on ::  Channel 9.  Note 35.  Velocity 110
000160t:  Note on ::  Channel 9.  Note 35.  Velocity 0
000032t:  Note on ::  Channel 9.  Note 38.  Velocity 110
000094t:  Note on ::  Channel 9.  Note 38.  Velocity 0
000002t:  Note on ::  Channel 9.  Note 35.  Velocity 110
000160t:  Note on ::  Channel 9.  Note 35.  Velocity 0
000032t:  Note on ::  Channel 9.  Note 35.  Velocity 110
000094t:  Note on ::  Channel 9.  Note 35.  Velocity 0
000002t:  Note on ::  Channel 9.  Note 38.  Velocity 110
000000t:  Note on ::  Channel 9.  Note 49.  Velocity 110
000094t:  Note on ::  Channel 9.  Note 38.  Velocity 0
000002t:  Note on ::  Channel 9.  Note 35.  Velocity 110
000064t:  Note on ::  Channel 9.  Note 49.  Velocity 0
000030t:  Note on ::  Channel 9.  Note 35.  Velocity 0
000002t:  Note on ::  Channel 9.  Note 35.  Velocity 110
000160t:  Note on ::  Channel 9.  Note 35.  Velocity 0
000032t:  Note on ::  Channel 9.  Note 38.  Velocity 110
000094t:  Note on ::  Channel 9.  Note 38.  Velocity 0
000002t:  Note on ::  Channel 9.  Note 35.  Velocity 110
000160t:  Note on ::  Channel 9.  Note 35.  Velocity 0
000128t:  Note on ::  Channel 9.  Note 38.  Velocity 110
000160t:  Note on ::  Channel 9.  Note 38.  Velocity 0
000032t:  Note on ::  Channel 9.  Note 35.  Velocity 110
000160t:  Note on ::  Channel 9.  Note 35.  Velocity 0
000032t:  Note on ::  Channel 9.  Note 38.  Velocity 110
000094t:  Note on ::  Channel 9.  Note 38.  Velocity 0
000002t:  Note on ::  Channel 9.  Note 35.  Velocity 110
000160t:  Note on ::  Channel 9.  Note 35.  Velocity 0
000032t:  Note on ::  Channel 9.  Note 35.  Velocity 110
000094t:  Note on ::  Channel 9.  Note 35.  Velocity 0
000002t:  Note on ::  Channel 9.  Note 38.  Velocity 110
000160t:  Note on ::  Channel 9.  Note 38.  Velocity 0
000032t:  Note on ::  Channel 9.  Note 35.  Velocity 110
000160t:  Note on ::  Channel 9.  Note 35.  Velocity 0
000032t:  Note on ::  Channel 9.  Note 38.  Velocity 110
000094t:  Note on ::  Channel 9.  Note 38.  Velocity 0
000002t:  Note on ::  Channel 9.  Note 35.  Velocity 110
000160t:  Note on ::  Channel 9.  Note 35.  Velocity 0
000128t:  Note on ::  Channel 9.  Note 38.  Velocity 110
000160t:  Note on ::  Channel 9.  Note 38.  Velocity 0
000032t:  Note on ::  Channel 9.  Note 35.  Velocity 110
000160t:  Note on ::  Channel 9.  Note 35.  Velocity 0
000032t:  Note on ::  Channel 9.  Note 38.  Velocity 110
000094t:  Note on ::  Channel 9.  Note 38.  Velocity 0
000002t:  Note on ::  Channel 9.  Note 35.  Velocity 110
000160t:  Note on ::  Channel 9.  Note 35.  Velocity 0
000032t:  Note on ::  Channel 9.  Note 35.  Velocity 110
000094t:  Note on ::  Channel 9.  Note 35.  Velocity 0
000002t:  Note on ::  Channel 9.  Note 38.  Velocity 110
000094t:  Note on ::  Channel 9.  Note 38.  Velocity 0
000002t:  Note on ::  Channel 9.  Note 35.  Velocity 110
000094t:  Note on ::  Channel 9.  Note 35.  Velocity 0
000002t:  Note on ::  Channel 9.  Note 35.  Velocity 110
000160t:  Note on ::  Channel 9.  Note 35.  Velocity 0
000032t:  Note on ::  Channel 9.  Note 38.  Velocity 110
000094t:  Note on ::  Channel 9.  Note 38.  Velocity 0
000002t:  Note on ::  Channel 9.  Note 35.  Velocity 110
000160t:  Note on ::  Channel 9.  Note 35.  Velocity 0
000128t:  Note on ::  Channel 9.  Note 38.  Velocity 110
000160t:  Note on ::  Channel 9.  Note 38.  Velocity 0
000032t:  Note on ::  Channel 9.  Note 35.  Velocity 110
000160t:  Note on ::  Channel 9.  Note 35.  Velocity 0
000032t:  Note on ::  Channel 9.  Note 38.  Velocity 110
000094t:  Note on ::  Channel 9.  Note 38.  Velocity 0
000002t:  Note on ::  Channel 9.  Note 35.  Velocity 110
000160t:  Note on ::  Channel 9.  Note 35.  Velocity 0
000032t:  Note on ::  Channel 9.  Note 35.  Velocity 110
000094t:  Note on ::  Channel 9.  Note 35.  Velocity 0
000002t:  Note on ::  Channel 9.  Note 38.  Velocity 110
000160t:  Note on ::  Channel 9.  Note 38.  Velocity 0
000032t:  Note on ::  Channel 9.  Note 35.  Velocity 110
000160t:  Note on ::  Channel 9.  Note 35.  Velocity 0
000032t:  Note on ::  Channel 9.  Note 38.  Velocity 110
000094t:  Note on ::  Channel 9.  Note 38.  Velocity 0
000002t:  Note on ::  Channel 9.  Note 35.  Velocity 110
000160t:  Note on ::  Channel 9.  Note 35.  Velocity 0
000128t:  Note on ::  Channel 9.  Note 38.  Velocity 110
000160t:  Note on ::  Channel 9.  Note 38.  Velocity 0
000032t:  Note on ::  Channel 9.  Note 35.  Velocity 110
000160t:  Note on ::  Channel 9.  Note 35.  Velocity 0
000032t:  Note on ::  Channel 9.  Note 38.  Velocity 110
000094t:  Note on ::  Channel 9.  Note 38.  Velocity 0
000002t:  Note on ::  Channel 9.  Note 35.  Velocity 110
000160t:  Note on ::  Channel 9.  Note 35.  Velocity 0
000032t:  Note on ::  Channel 9.  Note 35.  Velocity 110
000094t:  Note on ::  Channel 9.  Note 35.  Velocity 0
000002t:  Note on ::  Channel 9.  Note 38.  Velocity 110
000094t:  Note on ::  Channel 9.  Note 38.  Velocity 0
000002t:  Note on ::  Channel 9.  Note 35.  Velocity 110
000094t:  Note on ::  Channel 9.  Note 35.  Velocity 0
000002t:  Note on ::  Channel 9.  Note 35.  Velocity 110
000160t:  Note on ::  Channel 9.  Note 35.  Velocity 0
000032t:  Note on ::  Channel 9.  Note 38.  Velocity 110
000094t:  Note on ::  Channel 9.  Note 38.  Velocity 0
000002t:  Note on ::  Channel 9.  Note 35.  Velocity 110
000160t:  Note on ::  Channel 9.  Note 35.  Velocity 0
000128t:  Note on ::  Channel 9.  Note 38.  Velocity 110
000160t:  Note on ::  Channel 9.  Note 38.  Velocity 0
000032t:  Note on ::  Channel 9.  Note 35.  Velocity 110
000160t:  Note on ::  Channel 9.  Note 35.  Velocity 0
000032t:  Note on ::  Channel 9.  Note 38.  Velocity 110
000094t:  Note on ::  Channel 9.  Note 38.  Velocity 0
000002t:  Note on ::  Channel 9.  Note 35.  Velocity 110
000160t:  Note on ::  Channel 9.  Note 35.  Velocity 0
000032t:  Note on ::  Channel 9.  Note 35.  Velocity 110
000094t:  Note on ::  Channel 9.  Note 35.  Velocity 0
000002t:  Note on ::  Channel 9.  Note 38.  Velocity 110
000160t:  Note on ::  Channel 9.  Note 38.  Velocity 0
000032t:  Note on ::  Channel 9.  Note 35.  Velocity 110
000160t:  Note on ::  Channel 9.  Note 35.  Velocity 0
000032t:  Note on ::  Channel 9.  Note 35.  Velocity 110
000160t:  Note on ::  Channel 9.  Note 35.  Velocity 0
000032t:  Note on ::  Channel 9.  Note 35.  Velocity 110
000160t:  Note on ::  Channel 9.  Note 35.  Velocity 0
000032t:  Note on ::  Channel 9.  Note 35.  Velocity 110
000160t:  Note on ::  Channel 9.  Note 35.  Velocity 0
000032t:  Note on ::  Channel 9.  Note 35.  Velocity 110
000160t:  Note on ::  Channel 9.  Note 35.  Velocity 0
000032t:  Note on ::  Channel 9.  Note 35.  Velocity 110
000160t:  Note on ::  Channel 9.  Note 35.  Velocity 0
000032t:  Note on ::  Channel 9.  Note 35.  Velocity 110
000160t:  Note on ::  Channel 9.  Note 35.  Velocity 0
000032t:  Note on ::  Channel 9.  Note 35.  Velocity 110
000160t:  Note on ::  Channel 9.  Note 35.  Velocity 0
000032t:  Note on ::  Channel 9.  Note 35.  Velocity 110
000160t:  Note on ::  Channel 9.  Note 35.  Velocity 0
000032t:  Note on ::  Channel 9.  Note 35.  Velocity 110
000160t:  Note on ::  Channel 9.  Note 35.  Velocity 0
000032t:  Note on ::  Channel 9.  Note 35.  Velocity 110
000160t:  Note on ::  Channel 9.  Note 35.  Velocity 0
000032t:  Note on ::  Channel 9.  Note 35.  Velocity 110
000160t:  Note on ::  Channel 9.  Note 35.  Velocity 0
000032t:  Note on ::  Channel 9.  Note 35.  Velocity 110
000160t:  Note on ::  Channel 9.  Note 35.  Velocity 0
000032t:  Note on ::  Channel 9.  Note 35.  Velocity 110
000160t:  Note on ::  Channel 9.  Note 35.  Velocity 0
000032t:  Note on ::  Channel 9.  Note 35.  Velocity 110
000160t:  Note on ::  Channel 9.  Note 35.  Velocity 0
000032t:  Note on ::  Channel 9.  Note 35.  Velocity 110
000160t:  Note on ::  Channel 9.  Note 35.  Velocity 0
000032t:  Note on ::  Channel 9.  Note 35.  Velocity 110
000160t:  Note on ::  Channel 9.  Note 35.  Velocity 0
000032t:  Note on ::  Channel 9.  Note 35.  Velocity 110
000160t:  Note on ::  Channel 9.  Note 35.  Velocity 0
000032t:  Note on ::  Channel 9.  Note 35.  Velocity 110
000160t:  Note on ::  Channel 9.  Note 35.  Velocity 0
000032t:  Note on ::  Channel 9.  Note 35.  Velocity 110
000160t:  Note on ::  Channel 9.  Note 35.  Velocity 0
000032t:  Note on ::  Channel 9.  Note 35.  Velocity 110
000160t:  Note on ::  Channel 9.  Note 35.  Velocity 0
000032t:  Note on ::  Channel 9.  Note 35.  Velocity 110
000160t:  Note on ::  Channel 9.  Note 35.  Velocity 0
000032t:  Note on ::  Channel 9.  Note 35.  Velocity 110
000160t:  Note on ::  Channel 9.  Note 35.  Velocity 0
000032t:  Note on ::  Channel 9.  Note 35.  Velocity 110
000160t:  Note on ::  Channel 9.  Note 35.  Velocity 0
000032t:  Note on ::  Channel 9.  Note 35.  Velocity 110
000160t:  Note on ::  Channel 9.  Note 35.  Velocity 0
000032t:  Note on ::  Channel 9.  Note 35.  Velocity 110
000160t:  Note on ::  Channel 9.  Note 35.  Velocity 0
000032t:  Note on ::  Channel 9.  Note 35.  Velocity 110
000160t:  Note on ::  Channel 9.  Note 35.  Velocity 0
000032t:  Note on ::  Channel 9.  Note 35.  Velocity 110
000160t:  Note on ::  Channel 9.  Note 35.  Velocity 0
000032t:  Note on ::  Channel 9.  Note 35.  Velocity 110
000160t:  Note on ::  Channel 9.  Note 35.  Velocity 0
000128t:  Note on ::  Channel 9.  Note 35.  Velocity 110
000094t:  Note on ::  Channel 9.  Note 35.  Velocity 0
000002t:  Note on ::  Channel 9.  Note 38.  Velocity 110
000094t:  Note on ::  Channel 9.  Note 38.  Velocity 0
000002t:  Note on ::  Channel 9.  Note 35.  Velocity 110
000094t:  Note on ::  Channel 9.  Note 35.  Velocity 0
000002t:  Note on ::  Channel 9.  Note 35.  Velocity 110
000160t:  Note on ::  Channel 9.  Note 35.  Velocity 0
000032t:  Note on ::  Channel 9.  Note 35.  Velocity 110
000160t:  Note on ::  Channel 9.  Note 35.  Velocity 0
000032t:  Note on ::  Channel 9.  Note 35.  Velocity 110
000160t:  Note on ::  Channel 9.  Note 35.  Velocity 0
000032t:  Note on ::  Channel 9.  Note 35.  Velocity 110
000160t:  Note on ::  Channel 9.  Note 35.  Velocity 0
000032t:  Note on ::  Channel 9.  Note 35.  Velocity 110
000160t:  Note on ::  Channel 9.  Note 35.  Velocity 0
000032t:  Note on ::  Channel 9.  Note 35.  Velocity 110
000160t:  Note on ::  Channel 9.  Note 35.  Velocity 0
000032t:  Note on ::  Channel 9.  Note 35.  Velocity 110
000160t:  Note on ::  Channel 9.  Note 35.  Velocity 0
000032t:  Note on ::  Channel 9.  Note 35.  Velocity 110
000160t:  Note on ::  Channel 9.  Note 35.  Velocity 0
000032t:  Note on ::  Channel 9.  Note 35.  Velocity 110
000160t:  Note on ::  Channel 9.  Note 35.  Velocity 0
000032t:  Note on ::  Channel 9.  Note 35.  Velocity 110
000160t:  Note on ::  Channel 9.  Note 35.  Velocity 0
000032t:  Note on ::  Channel 9.  Note 35.  Velocity 110
000160t:  Note on ::  Channel 9.  Note 35.  Velocity 0
000032t:  Note on ::  Channel 9.  Note 35.  Velocity 110
000160t:  Note on ::  Channel 9.  Note 35.  Velocity 0
000032t:  Note on ::  Channel 9.  Note 35.  Velocity 110
000160t:  Note on ::  Channel 9.  Note 35.  Velocity 0
000032t:  Note on ::  Channel 9.  Note 35.  Velocity 110
000160t:  Note on ::  Channel 9.  Note 35.  Velocity 0
000032t:  Note on ::  Channel 9.  Note 35.  Velocity 110
000160t:  Note on ::  Channel 9.  Note 35.  Velocity 0
000032t:  Note on ::  Channel 9.  Note 35.  Velocity 110
000160t:  Note on ::  Channel 9.  Note 35.  Velocity 0
000032t:  Note on ::  Channel 9.  Note 35.  Velocity 110
000000t:  Note on ::  Channel 9.  Note 49.  Velocity 110
000160t:  Note on ::  Channel 9.  Note 35.  Velocity 0
000000t:  Note on ::  Channel 9.  Note 49.  Velocity 0
000128t:  Note on ::  Channel 9.  Note 35.  Velocity 110
000160t:  Note on ::  Channel 9.  Note 35.  Velocity 0
000320t:  Note on ::  Channel 9.  Note 35.  Velocity 110
000160t:  Note on ::  Channel 9.  Note 35.  Velocity 0
000128t:  Note on ::  Channel 9.  Note 35.  Velocity 110
000160t:  Note on ::  Channel 9.  Note 35.  Velocity 0
000320t:  Note on ::  Channel 9.  Note 35.  Velocity 110
000160t:  Note on ::  Channel 9.  Note 35.  Velocity 0
000032t:  Note on ::  Channel 9.  Note 35.  Velocity 110
000160t:  Note on ::  Channel 9.  Note 35.  Velocity 0
000032t:  Note on ::  Channel 9.  Note 35.  Velocity 110
000160t:  Note on ::  Channel 9.  Note 35.  Velocity 0
000032t:  Note on ::  Channel 9.  Note 35.  Velocity 110
000160t:  Note on ::  Channel 9.  Note 35.  Velocity 0
000032t:  Note on ::  Channel 9.  Note 35.  Velocity 110
000160t:  Note on ::  Channel 9.  Note 35.  Velocity 0
000032t:  Note on ::  Channel 9.  Note 35.  Velocity 110
000160t:  Note on ::  Channel 9.  Note 35.  Velocity 0
000032t:  Note on ::  Channel 9.  Note 35.  Velocity 110
000160t:  Note on ::  Channel 9.  Note 35.  Velocity 0
000032t:  Note on ::  Channel 9.  Note 35.  Velocity 110
000160t:  Note on ::  Channel 9.  Note 35.  Velocity 0
000032t:  Control change ::  Channel 9.  Controller 7.  Value: 127
000000t:  Note on ::  Channel 9.  Note 35.  Velocity 110
000024t:  Control change ::  Channel 9.  Controller 7.  Value: 126
000024t:  Control change ::  Channel 9.  Controller 7.  Value: 125
000024t:  Control change ::  Channel 9.  Controller 7.  Value: 124
000024t:  Control change ::  Channel 9.  Controller 7.  Value: 123
000024t:  Control change ::  Channel 9.  Controller 7.  Value: 122
000025t:  Control change ::  Channel 9.  Controller 7.  Value: 121
000015t:  Note on ::  Channel 9.  Note 35.  Velocity 0
000009t:  Control change ::  Channel 9.  Controller 7.  Value: 120
000024t:  Control change ::  Channel 9.  Controller 7.  Value: 119
000024t:  Control change ::  Channel 9.  Controller 7.  Value: 118
000024t:  Control change ::  Channel 9.  Controller 7.  Value: 117
000025t:  Control change ::  Channel 9.  Controller 7.  Value: 116
000022t:  Note on ::  Channel 9.  Note 35.  Velocity 110
000002t:  Control change ::  Channel 9.  Controller 7.  Value: 115
000024t:  Control change ::  Channel 9.  Controller 7.  Value: 114
000024t:  Control change ::  Channel 9.  Controller 7.  Value: 113
000024t:  Control change ::  Channel 9.  Controller 7.  Value: 112
000025t:  Control change ::  Channel 9.  Controller 7.  Value: 111
000024t:  Control change ::  Channel 9.  Controller 7.  Value: 110
000024t:  Control change ::  Channel 9.  Controller 7.  Value: 109
000013t:  Note on ::  Channel 9.  Note 35.  Velocity 0
000011t:  Control change ::  Channel 9.  Controller 7.  Value: 108
000024t:  Control change ::  Channel 9.  Controller 7.  Value: 107
000024t:  Control change ::  Channel 9.  Controller 7.  Value: 106
000025t:  Control change ::  Channel 9.  Controller 7.  Value: 105
000024t:  Control change ::  Channel 9.  Controller 7.  Value: 104
000024t:  Control change ::  Channel 9.  Controller 7.  Value: 103
000024t:  Control change ::  Channel 9.  Controller 7.  Value: 102
000024t:  Control change ::  Channel 9.  Controller 7.  Value: 101
000025t:  Control change ::  Channel 9.  Controller 7.  Value: 100
000024t:  Control change ::  Channel 9.  Controller 7.  Value: 99
000024t:  Control change ::  Channel 9.  Controller 7.  Value: 98
000024t:  Control change ::  Channel 9.  Controller 7.  Value: 97
000024t:  Control change ::  Channel 9.  Controller 7.  Value: 96
000019t:  Note on ::  Channel 9.  Note 35.  Velocity 110
000006t:  Control change ::  Channel 9.  Controller 7.  Value: 95
000024t:  Control change ::  Channel 9.  Controller 7.  Value: 94
000024t:  Control change ::  Channel 9.  Controller 7.  Value: 93
000024t:  Control change ::  Channel 9.  Controller 7.  Value: 92
000024t:  Control change ::  Channel 9.  Controller 7.  Value: 91
000024t:  Control change ::  Channel 9.  Controller 7.  Value: 90
000025t:  Control change ::  Channel 9.  Controller 7.  Value: 89
000009t:  Note on ::  Channel 9.  Note 35.  Velocity 0
000015t:  Control change ::  Channel 9.  Controller 7.  Value: 88
000024t:  Control change ::  Channel 9.  Controller 7.  Value: 87
000024t:  Control change ::  Channel 9.  Controller 7.  Value: 86
000024t:  Control change ::  Channel 9.  Controller 7.  Value: 85
000025t:  Control change ::  Channel 9.  Controller 7.  Value: 84
000016t:  Note on ::  Channel 9.  Note 35.  Velocity 110
000008t:  Control change ::  Channel 9.  Controller 7.  Value: 83
000024t:  Control change ::  Channel 9.  Controller 7.  Value: 82
000024t:  Control change ::  Channel 9.  Controller 7.  Value: 81
000024t:  Control change ::  Channel 9.  Controller 7.  Value: 80
000025t:  Control change ::  Channel 9.  Controller 7.  Value: 79
000024t:  Control change ::  Channel 9.  Controller 7.  Value: 78
000024t:  Control change ::  Channel 9.  Controller 7.  Value: 77
000007t:  Note on ::  Channel 9.  Note 35.  Velocity 0
000017t:  Control change ::  Channel 9.  Controller 7.  Value: 76
000024t:  Control change ::  Channel 9.  Controller 7.  Value: 75
000025t:  Control change ::  Channel 9.  Controller 7.  Value: 74
000024t:  Control change ::  Channel 9.  Controller 7.  Value: 73
000024t:  Control change ::  Channel 9.  Controller 7.  Value: 72
000024t:  Control change ::  Channel 9.  Controller 7.  Value: 71
000024t:  Control change ::  Channel 9.  Controller 7.  Value: 70
000024t:  Control change ::  Channel 9.  Controller 7.  Value: 69
000025t:  Control change ::  Channel 9.  Controller 7.  Value: 68
000024t:  Control change ::  Channel 9.  Controller 7.  Value: 67
000024t:  Control change ::  Channel 9.  Controller 7.  Value: 66
000024t:  Control change ::  Channel 9.  Controller 7.  Value: 65
000024t:  Control change ::  Channel 9.  Controller 7.  Value: 64
000013t:  Note on ::  Channel 9.  Note 35.  Velocity 110
000012t:  Control change ::  Channel 9.  Controller 7.  Value: 63
000024t:  Control change ::  Channel 9.  Controller 7.  Value: 62
000024t:  Control change ::  Channel 9.  Controller 7.  Value: 61
000024t:  Control change ::  Channel 9.  Controller 7.  Value: 60
000024t:  Control change ::  Channel 9.  Controller 7.  Value: 59
000025t:  Control change ::  Channel 9.  Controller 7.  Value: 58
000024t:  Control change ::  Channel 9.  Controller 7.  Value: 57
000003t:  Note on ::  Channel 9.  Note 35.  Velocity 0
000021t:  Control change ::  Channel 9.  Controller 7.  Value: 56
000011t:  Note on ::  Channel 9.  Note 35.  Velocity 110
000013t:  Control change ::  Channel 9.  Controller 7.  Value: 55
000024t:  Control change ::  Channel 9.  Controller 7.  Value: 54
000024t:  Control change ::  Channel 9.  Controller 7.  Value: 53
000025t:  Control change ::  Channel 9.  Controller 7.  Value: 52
000024t:  Control change ::  Channel 9.  Controller 7.  Value: 51
000024t:  Control change ::  Channel 9.  Controller 7.  Value: 50
000024t:  Control change ::  Channel 9.  Controller 7.  Value: 49
000002t:  Note on ::  Channel 9.  Note 35.  Velocity 0
000022t:  Control change ::  Channel 9.  Controller 7.  Value: 48
000010t:  Note on ::  Channel 9.  Note 35.  Velocity 110
000015t:  Control change ::  Channel 9.  Controller 7.  Value: 47
000024t:  Control change ::  Channel 9.  Controller 7.  Value: 46
000024t:  Control change ::  Channel 9.  Controller 7.  Value: 45
000024t:  Control change ::  Channel 9.  Controller 7.  Value: 44
000024t:  Control change ::  Channel 9.  Controller 7.  Value: 43
000025t:  Control change ::  Channel 9.  Controller 7.  Value: 42
000024t:  Note on ::  Channel 9.  Note 35.  Velocity 0
000000t:  Control change ::  Channel 9.  Controller 7.  Value: 41
000024t:  Control change ::  Channel 9.  Controller 7.  Value: 40
000008t:  Note on ::  Channel 9.  Note 35.  Velocity 110
000016t:  Control change ::  Channel 9.  Controller 7.  Value: 39
000024t:  Control change ::  Channel 9.  Controller 7.  Value: 38
000025t:  Control change ::  Channel 9.  Controller 7.  Value: 37
000024t:  Control change ::  Channel 9.  Controller 7.  Value: 36
000024t:  Control change ::  Channel 9.  Controller 7.  Value: 35
000024t:  Control change ::  Channel 9.  Controller 7.  Value: 34
000023t:  Note on ::  Channel 9.  Note 35.  Velocity 0
000001t:  Control change ::  Channel 9.  Controller 7.  Value: 33
000024t:  Control change ::  Channel 9.  Controller 7.  Value: 32
000007t:  Note on ::  Channel 9.  Note 35.  Velocity 110
000018t:  Control change ::  Channel 9.  Controller 7.  Value: 31
000024t:  Control change ::  Channel 9.  Controller 7.  Value: 30
000024t:  Control change ::  Channel 9.  Controller 7.  Value: 29
000024t:  Control change ::  Channel 9.  Controller 7.  Value: 28
000024t:  Control change ::  Channel 9.  Controller 7.  Value: 27
000025t:  Control change ::  Channel 9.  Controller 7.  Value: 26
000021t:  Note on ::  Channel 9.  Note 35.  Velocity 0
000003t:  Control change ::  Channel 9.  Controller 7.  Value: 25
000024t:  Control change ::  Channel 9.  Controller 7.  Value: 24
000005t:  Note on ::  Channel 9.  Note 35.  Velocity 110
000019t:  Control change ::  Channel 9.  Controller 7.  Value: 23
000024t:  Control change ::  Channel 9.  Controller 7.  Value: 22
000025t:  Control change ::  Channel 9.  Controller 7.  Value: 21
000024t:  Control change ::  Channel 9.  Controller 7.  Value: 20
000024t:  Control change ::  Channel 9.  Controller 7.  Value: 19
000024t:  Control change ::  Channel 9.  Controller 7.  Value: 18
000020t:  Note on ::  Channel 9.  Note 35.  Velocity 0
000004t:  Control change ::  Channel 9.  Controller 7.  Value: 17
000024t:  Control change ::  Channel 9.  Controller 7.  Value: 16
000004t:  Note on ::  Channel 9.  Note 35.  Velocity 110
000021t:  Control change ::  Channel 9.  Controller 7.  Value: 15
000024t:  Control change ::  Channel 9.  Controller 7.  Value: 14
000024t:  Control change ::  Channel 9.  Controller 7.  Value: 13
000024t:  Control change ::  Channel 9.  Controller 7.  Value: 12
000024t:  Control change ::  Channel 9.  Controller 7.  Value: 11
000025t:  Control change ::  Channel 9.  Controller 7.  Value: 10
000018t:  Note on ::  Channel 9.  Note 35.  Velocity 0
000006t:  Control change ::  Channel 9.  Controller 7.  Value: 9
000024t:  Control change ::  Channel 9.  Controller 7.  Value: 8
000002t:  Note on ::  Channel 9.  Note 35.  Velocity 110
000022t:  Control change ::  Channel 9.  Controller 7.  Value: 7
000024t:  Control change ::  Channel 9.  Controller 7.  Value: 6
000025t:  Control change ::  Channel 9.  Controller 7.  Value: 5
000024t:  Control change ::  Channel 9.  Controller 7.  Value: 4
000024t:  Control change ::  Channel 9.  Controller 7.  Value: 3
000024t:  Control change ::  Channel 9.  Controller 7.  Value: 2
000017t:  Note on ::  Channel 9.  Note 35.  Velocity 0
000007t:  Control change ::  Channel 9.  Controller 7.  Value: 1
000025t:  Control change ::  Channel 9.  Controller 7.  Value: 0
000000t:  Meta-event type $2f (End-track event) of length 0
Sigma t = 87264

Track chunk of 4327 bytes
000000t:  Meta-event type $21 (?) of length 1
	  _
000000t:  Meta-event type $03 (Track name) of length 23
	  jeffreyatw@portalofevil
000000t:  Control change ::  Channel 9.  Controller 7.  Value: 127
000000t:  Control change ::  Channel 9.  Controller 10.  Value: 64
004512t:  Note on ::  Channel 9.  Note 47.  Velocity 110
000046t:  Note on ::  Channel 9.  Note 47.  Velocity 0
000002t:  Note on ::  Channel 9.  Note 45.  Velocity 110
000046t:  Note on ::  Channel 9.  Note 45.  Velocity 0
000002t:  Note on ::  Channel 9.  Note 43.  Velocity 110
000046t:  Note on ::  Channel 9.  Note 43.  Velocity 0
000050t:  Note on ::  Channel 9.  Note 49.  Velocity 110
000352t:  Note on ::  Channel 9.  Note 49.  Velocity 0
000032t:  Note on ::  Channel 9.  Note 43.  Velocity 110
000094t:  Note on ::  Channel 9.  Note 43.  Velocity 0
000098t:  Note on ::  Channel 9.  Note 43.  Velocity 110
000094t:  Note on ::  Channel 9.  Note 43.  Velocity 0
000002t:  Note on ::  Channel 9.  Note 47.  Velocity 110
000000t:  Note on ::  Channel 9.  Note 49.  Velocity 110
000094t:  Note on ::  Channel 9.  Note 47.  Velocity 0
000000t:  Note on ::  Channel 9.  Note 49.  Velocity 0
000002t:  Note on ::  Channel 9.  Note 43.  Velocity 110
000094t:  Note on ::  Channel 9.  Note 43.  Velocity 0
000002t:  Note on ::  Channel 9.  Note 43.  Velocity 110
000094t:  Note on ::  Channel 9.  Note 43.  Velocity 0
000002t:  Note on ::  Channel 9.  Note 43.  Velocity 110
000000t:  Note on ::  Channel 9.  Note 52.  Velocity 110
000094t:  Note on ::  Channel 9.  Note 43.  Velocity 0
000000t:  Note on ::  Channel 9.  Note 52.  Velocity 0
000002t:  Note on ::  Channel 9.  Note 47.  Velocity 110
000094t:  Note on ::  Channel 9.  Note 47.  Velocity 0
000002t:  Note on ::  Channel 9.  Note 43.  Velocity 110
000094t:  Note on ::  Channel 9.  Note 43.  Velocity 0
000002t:  Note on ::  Channel 9.  Note 43.  Velocity 110
000094t:  Note on ::  Channel 9.  Note 43.  Velocity 0
000002t:  Note on ::  Channel 9.  Note 43.  Velocity 110
000094t:  Note on ::  Channel 9.  Note 43.  Velocity 0
000002t:  Note on ::  Channel 9.  Note 47.  Velocity 110
000046t:  Note on ::  Channel 9.  Note 47.  Velocity 0
000002t:  Note on ::  Channel 9.  Note 45.  Velocity 110
000046t:  Note on ::  Channel 9.  Note 45.  Velocity 0
000002t:  Note on ::  Channel 9.  Note 43.  Velocity 110
000046t:  Note on ::  Channel 9.  Note 43.  Velocity 0
004562t:  Note on ::  Channel 9.  Note 44.  Velocity 110
000160t:  Note on ::  Channel 9.  Note 44.  Velocity 0
000032t:  Note on ::  Channel 9.  Note 44.  Velocity 110
000160t:  Note on ::  Channel 9.  Note 44.  Velocity 0
000032t:  Note on ::  Channel 9.  Note 44.  Velocity 110
000160t:  Note on ::  Channel 9.  Note 44.  Velocity 0
000032t:  Note on ::  Channel 9.  Note 44.  Velocity 110
000160t:  Note on ::  Channel 9.  Note 44.  Velocity 0
000032t:  Note on ::  Channel 9.  Note 44.  Velocity 110
000160t:  Note on ::  Channel 9.  Note 44.  Velocity 0
000032t:  Note on ::  Channel 9.  Note 44.  Velocity 110
000160t:  Note on ::  Channel 9.  Note 44.  Velocity 0
000032t:  Note on ::  Channel 9.  Note 44.  Velocity 110
000160t:  Note on ::  Channel 9.  Note 44.  Velocity 0
000032t:  Note on ::  Channel 9.  Note 44.  Velocity 110
000160t:  Note on ::  Channel 9.  Note 44.  Velocity 0
000032t:  Note on ::  Channel 9.  Note 44.  Velocity 110
000160t:  Note on ::  Channel 9.  Note 44.  Velocity 0
000032t:  Note on ::  Channel 9.  Note 44.  Velocity 110
000160t:  Note on ::  Channel 9.  Note 44.  Velocity 0
000032t:  Note on ::  Channel 9.  Note 44.  Velocity 110
000160t:  Note on ::  Channel 9.  Note 44.  Velocity 0
000032t:  Note on ::  Channel 9.  Note 44.  Velocity 110
000160t:  Note on ::  Channel 9.  Note 44.  Velocity 0
000032t:  Note on ::  Channel 9.  Note 44.  Velocity 110
000160t:  Note on ::  Channel 9.  Note 44.  Velocity 0
000032t:  Note on ::  Channel 9.  Note 44.  Velocity 110
000160t:  Note on ::  Channel 9.  Note 44.  Velocity 0
000032t:  Note on ::  Channel 9.  Note 44.  Velocity 110
000160t:  Note on ::  Channel 9.  Note 44.  Velocity 0
000032t:  Note on ::  Channel 9.  Note 44.  Velocity 110
000160t:  Note on ::  Channel 9.  Note 44.  Velocity 0
000032t:  Note on ::  Channel 9.  Note 44.  Velocity 110
000160t:  Note on ::  Channel 9.  Note 44.  Velocity 0
000032t:  Note on ::  Channel 9.  Note 44.  Velocity 110
000160t:  Note on ::  Channel 9.  Note 44.  Velocity 0
000032t:  Note on ::  Channel 9.  Note 44.  Velocity 110
000160t:  Note on ::  Channel 9.  Note 44.  Velocity 0
000032t:  Note on ::  Channel 9.  Note 44.  Velocity 110
000160t:  Note on ::  Channel 9.  Note 44.  Velocity 0
000032t:  Note on ::  Channel 9.  Note 44.  Velocity 110
000160t:  Note on ::  Channel 9.  Note 44.  Velocity 0
000032t:  Note on ::  Channel 9.  Note 44.  Velocity 110
000160t:  Note on ::  Channel 9.  Note 44.  Velocity 0
000032t:  Note on ::  Channel 9.  Note 44.  Velocity 110
000160t:  Note on ::  Channel 9.  Note 44.  Velocity 0
000032t:  Note on ::  Channel 9.  Note 44.  Velocity 110
000160t:  Note on ::  Channel 9.  Note 44.  Velocity 0
000032t:  Note on ::  Channel 9.  Note 44.  Velocity 110
000160t:  Note on ::  Channel 9.  Note 44.  Velocity 0
000032t:  Note on ::  Channel 9.  Note 44.  Velocity 110
000160t:  Note on ::  Channel 9.  Note 44.  Velocity 0
000032t:  Note on ::  Channel 9.  Note 44.  Velocity 110
000160t:  Note on ::  Channel 9.  Note 44.  Velocity 0
000032t:  Note on ::  Channel 9.  Note 44.  Velocity 110
000160t:  Note on ::  Channel 9.  Note 44.  Velocity 0
000032t:  Note on ::  Channel 9.  Note 44.  Velocity 110
000160t:  Note on ::  Channel 9.  Note 44.  Velocity 0
000032t:  Note on ::  Channel 9.  Note 44.  Velocity 110
000160t:  Note on ::  Channel 9.  Note 44.  Velocity 0
000032t:  Note on ::  Channel 9.  Note 44.  Velocity 110
000160t:  Note on ::  Channel 9.  Note 44.  Velocity 0
000032t:  Note on ::  Channel 9.  Note 44.  Velocity 110
000160t:  Note on ::  Channel 9.  Note 44.  Velocity 0
000032t:  Note on ::  Channel 9.  Note 44.  Velocity 110
000160t:  Note on ::  Channel 9.  Note 44.  Velocity 0
000032t:  Note on ::  Channel 9.  Note 44.  Velocity 110
000160t:  Note on ::  Channel 9.  Note 44.  Velocity 0
000032t:  Note on ::  Channel 9.  Note 44.  Velocity 110
000160t:  Note on ::  Channel 9.  Note 44.  Velocity 0
000032t:  Note on ::  Channel 9.  Note 44.  Velocity 110
000160t:  Note on ::  Channel 9.  Note 44.  Velocity 0
000032t:  Note on ::  Channel 9.  Note 44.  Velocity 110
000160t:  Note on ::  Channel 9.  Note 44.  Velocity 0
000032t:  Note on ::  Channel 9.  Note 44.  Velocity 110
000160t:  Note on ::  Channel 9.  Note 44.  Velocity 0
000032t:  Note on ::  Channel 9.  Note 44.  Velocity 110
000160t:  Note on ::  Channel 9.  Note 44.  Velocity 0
000032t:  Note on ::  Channel 9.  Note 44.  Velocity 110
000160t:  Note on ::  Channel 9.  Note 44.  Velocity 0
000032t:  Note on ::  Channel 9.  Note 44.  Velocity 110
000160t:  Note on ::  Channel 9.  Note 44.  Velocity 0
000032t:  Note on ::  Channel 9.  Note 44.  Velocity 110
000160t:  Note on ::  Channel 9.  Note 44.  Velocity 0
000032t:  Note on ::  Channel 9.  Note 44.  Velocity 110
000160t:  Note on ::  Channel 9.  Note 44.  Velocity 0
000032t:  Note on ::  Channel 9.  Note 44.  Velocity 110
000160t:  Note on ::  Channel 9.  Note 44.  Velocity 0
000032t:  Note on ::  Channel 9.  Note 44.  Velocity 110
000160t:  Note on ::  Channel 9.  Note 44.  Velocity 0
000032t:  Note on ::  Channel 9.  Note 44.  Velocity 110
000160t:  Note on ::  Channel 9.  Note 44.  Velocity 0
000032t:  Note on ::  Channel 9.  Note 44.  Velocity 110
000160t:  Note on ::  Channel 9.  Note 44.  Velocity 0
000032t:  Note on ::  Channel 9.  Note 44.  Velocity 110
000160t:  Note on ::  Channel 9.  Note 44.  Velocity 0
000032t:  Note on ::  Channel 9.  Note 44.  Velocity 110
000160t:  Note on ::  Channel 9.  Note 44.  Velocity 0
000032t:  Note on ::  Channel 9.  Note 44.  Velocity 110
000160t:  Note on ::  Channel 9.  Note 44.  Velocity 0
000032t:  Note on ::  Channel 9.  Note 44.  Velocity 110
000160t:  Note on ::  Channel 9.  Note 44.  Velocity 0
000032t:  Note on ::  Channel 9.  Note 44.  Velocity 110
000160t:  Note on ::  Channel 9.  Note 44.  Velocity 0
000032t:  Note on ::  Channel 9.  Note 44.  Velocity 110
000160t:  Note on ::  Channel 9.  Note 44.  Velocity 0
000032t:  Note on ::  Channel 9.  Note 44.  Velocity 110
000160t:  Note on ::  Channel 9.  Note 44.  Velocity 0
000032t:  Note on ::  Channel 9.  Note 44.  Velocity 110
000160t:  Note on ::  Channel 9.  Note 44.  Velocity 0
000032t:  Note on ::  Channel 9.  Note 44.  Velocity 110
000160t:  Note on ::  Channel 9.  Note 44.  Velocity 0
000032t:  Note on ::  Channel 9.  Note 44.  Velocity 110
000160t:  Note on ::  Channel 9.  Note 44.  Velocity 0
000032t:  Note on ::  Channel 9.  Note 44.  Velocity 110
000160t:  Note on ::  Channel 9.  Note 44.  Velocity 0
000032t:  Note on ::  Channel 9.  Note 44.  Velocity 110
000160t:  Note on ::  Channel 9.  Note 44.  Velocity 0
000032t:  Note on ::  Channel 9.  Note 44.  Velocity 110
000160t:  Note on ::  Channel 9.  Note 44.  Velocity 0
000032t:  Note on ::  Channel 9.  Note 44.  Velocity 110
000160t:  Note on ::  Channel 9.  Note 44.  Velocity 0
000032t:  Note on ::  Channel 9.  Note 44.  Velocity 110
000160t:  Note on ::  Channel 9.  Note 44.  Velocity 0
000032t:  Note on ::  Channel 9.  Note 44.  Velocity 110
000160t:  Note on ::  Channel 9.  Note 44.  Velocity 0
000032t:  Note on ::  Channel 9.  Note 44.  Velocity 110
000160t:  Note on ::  Channel 9.  Note 44.  Velocity 0
000032t:  Note on ::  Channel 9.  Note 44.  Velocity 110
000000t:  Note on ::  Channel 9.  Note 49.  Velocity 110
000160t:  Note on ::  Channel 9.  Note 44.  Velocity 0
000000t:  Note on ::  Channel 9.  Note 49.  Velocity 0
000032t:  Note on ::  Channel 9.  Note 44.  Velocity 110
000094t:  Note on ::  Channel 9.  Note 44.  Velocity 0
000002t:  Note on ::  Channel 9.  Note 46.  Velocity 110
000094t:  Note on ::  Channel 9.  Note 46.  Velocity 0
000002t:  Note on ::  Channel 9.  Note 44.  Velocity 110
000160t:  Note on ::  Channel 9.  Note 44.  Velocity 0
000032t:  Note on ::  Channel 9.  Note 44.  Velocity 110
000094t:  Note on ::  Channel 9.  Note 44.  Velocity 0
000002t:  Note on ::  Channel 9.  Note 46.  Velocity 110
000094t:  Note on ::  Channel 9.  Note 46.  Velocity 0
000002t:  Note on ::  Channel 9.  Note 44.  Velocity 110
000160t:  Note on ::  Channel 9.  Note 44.  Velocity 0
000032t:  Note on ::  Channel 9.  Note 44.  Velocity 110
000094t:  Note on ::  Channel 9.  Note 44.  Velocity 0
000002t:  Note on ::  Channel 9.  Note 46.  Velocity 110
000094t:  Note on ::  Channel 9.  Note 46.  Velocity 0
000002t:  Note on ::  Channel 9.  Note 44.  Velocity 110
000160t:  Note on ::  Channel 9.  Note 44.  Velocity 0
000032t:  Note on ::  Channel 9.  Note 44.  Velocity 110
000094t:  Note on ::  Channel 9.  Note 44.  Velocity 0
000002t:  Note on ::  Channel 9.  Note 46.  Velocity 110
000094t:  Note on ::  Channel 9.  Note 46.  Velocity 0
000002t:  Note on ::  Channel 9.  Note 44.  Velocity 110
000160t:  Note on ::  Channel 9.  Note 44.  Velocity 0
000032t:  Note on ::  Channel 9.  Note 44.  Velocity 110
000094t:  Note on ::  Channel 9.  Note 44.  Velocity 0
000002t:  Note on ::  Channel 9.  Note 46.  Velocity 110
000094t:  Note on ::  Channel 9.  Note 46.  Velocity 0
000002t:  Note on ::  Channel 9.  Note 44.  Velocity 110
000160t:  Note on ::  Channel 9.  Note 44.  Velocity 0
000032t:  Note on ::  Channel 9.  Note 44.  Velocity 110
000094t:  Note on ::  Channel 9.  Note 44.  Velocity 0
000002t:  Note on ::  Channel 9.  Note 46.  Velocity 110
000094t:  Note on ::  Channel 9.  Note 46.  Velocity 0
000002t:  Note on ::  Channel 9.  Note 44.  Velocity 110
000160t:  Note on ::  Channel 9.  Note 44.  Velocity 0
000032t:  Note on ::  Channel 9.  Note 44.  Velocity 110
000094t:  Note on ::  Channel 9.  Note 44.  Velocity 0
000002t:  Note on ::  Channel 9.  Note 46.  Velocity 110
000094t:  Note on ::  Channel 9.  Note 46.  Velocity 0
000002t:  Note on ::  Channel 9.  Note 44.  Velocity 110
000160t:  Note on ::  Channel 9.  Note 44.  Velocity 0
000032t:  Note on ::  Channel 9.  Note 44.  Velocity 110
000094t:  Note on ::  Channel 9.  Note 44.  Velocity 0
000002t:  Note on ::  Channel 9.  Note 46.  Velocity 110
000094t:  Note on ::  Channel 9.  Note 46.  Velocity 0
000002t:  Note on ::  Channel 9.  Note 44.  Velocity 110
000160t:  Note on ::  Channel 9.  Note 44.  Velocity 0
000032t:  Note on ::  Channel 9.  Note 44.  Velocity 110
000094t:  Note on ::  Channel 9.  Note 44.  Velocity 0
000002t:  Note on ::  Channel 9.  Note 46.  Velocity 110
000094t:  Note on ::  Channel 9.  Note 46.  Velocity 0
000002t:  Note on ::  Channel 9.  Note 44.  Velocity 110
000160t:  Note on ::  Channel 9.  Note 44.  Velocity 0
000032t:  Note on ::  Channel 9.  Note 44.  Velocity 110
000094t:  Note on ::  Channel 9.  Note 44.  Velocity 0
000002t:  Note on ::  Channel 9.  Note 46.  Velocity 110
000094t:  Note on ::  Channel 9.  Note 46.  Velocity 0
000002t:  Note on ::  Channel 9.  Note 44.  Velocity 110
000160t:  Note on ::  Channel 9.  Note 44.  Velocity 0
000032t:  Note on ::  Channel 9.  Note 44.  Velocity 110
000094t:  Note on ::  Channel 9.  Note 44.  Velocity 0
000002t:  Note on ::  Channel 9.  Note 46.  Velocity 110
000094t:  Note on ::  Channel 9.  Note 46.  Velocity 0
000002t:  Note on ::  Channel 9.  Note 44.  Velocity 110
000160t:  Note on ::  Channel 9.  Note 44.  Velocity 0
000032t:  Note on ::  Channel 9.  Note 44.  Velocity 110
000094t:  Note on ::  Channel 9.  Note 44.  Velocity 0
000002t:  Note on ::  Channel 9.  Note 46.  Velocity 110
000094t:  Note on ::  Channel 9.  Note 46.  Velocity 0
000002t:  Note on ::  Channel 9.  Note 44.  Velocity 110
000160t:  Note on ::  Channel 9.  Note 44.  Velocity 0
000032t:  Note on ::  Channel 9.  Note 44.  Velocity 110
000094t:  Note on ::  Channel 9.  Note 44.  Velocity 0
000002t:  Note on ::  Channel 9.  Note 46.  Velocity 110
000094t:  Note on ::  Channel 9.  Note 46.  Velocity 0
000002t:  Note on ::  Channel 9.  Note 44.  Velocity 110
000160t:  Note on ::  Channel 9.  Note 44.  Velocity 0
000032t:  Note on ::  Channel 9.  Note 44.  Velocity 110
000094t:  Note on ::  Channel 9.  Note 44.  Velocity 0
000002t:  Note on ::  Channel 9.  Note 46.  Velocity 110
000094t:  Note on ::  Channel 9.  Note 46.  Velocity 0
000002t:  Note on ::  Channel 9.  Note 44.  Velocity 110
000160t:  Note on ::  Channel 9.  Note 44.  Velocity 0
000032t:  Note on ::  Channel 9.  Note 44.  Velocity 110
000094t:  Note on ::  Channel 9.  Note 44.  Velocity 0
000002t:  Note on ::  Channel 9.  Note 46.  Velocity 110
000094t:  Note on ::  Channel 9.  Note 46.  Velocity 0
000002t:  Note on ::  Channel 9.  Note 44.  Velocity 110
000160t:  Note on ::  Channel 9.  Note 44.  Velocity 0
000032t:  Note on ::  Channel 9.  Note 44.  Velocity 110
000094t:  Note on ::  Channel 9.  Note 44.  Velocity 0
000002t:  Note on ::  Channel 9.  Note 46.  Velocity 110
000094t:  Note on ::  Channel 9.  Note 46.  Velocity 0
000002t:  Note on ::  Channel 9.  Note 44.  Velocity 110
000160t:  Note on ::  Channel 9.  Note 44.  Velocity 0
000032t:  Note on ::  Channel 9.  Note 44.  Velocity 110
000094t:  Note on ::  Channel 9.  Note 44.  Velocity 0
000002t:  Note on ::  Channel 9.  Note 46.  Velocity 110
000094t:  Note on ::  Channel 9.  Note 46.  Velocity 0
000002t:  Note on ::  Channel 9.  Note 44.  Velocity 110
000160t:  Note on ::  Channel 9.  Note 44.  Velocity 0
000032t:  Note on ::  Channel 9.  Note 44.  Velocity 110
000094t:  Note on ::  Channel 9.  Note 44.  Velocity 0
000002t:  Note on ::  Channel 9.  Note 46.  Velocity 110
000094t:  Note on ::  Channel 9.  Note 46.  Velocity 0
000002t:  Note on ::  Channel 9.  Note 44.  Velocity 110
000160t:  Note on ::  Channel 9.  Note 44.  Velocity 0
000032t:  Note on ::  Channel 9.  Note 44.  Velocity 110
000094t:  Note on ::  Channel 9.  Note 44.  Velocity 0
000002t:  Note on ::  Channel 9.  Note 46.  Velocity 110
000094t:  Note on ::  Channel 9.  Note 46.  Velocity 0
000002t:  Note on ::  Channel 9.  Note 44.  Velocity 110
000160t:  Note on ::  Channel 9.  Note 44.  Velocity 0
000032t:  Note on ::  Channel 9.  Note 44.  Velocity 110
000094t:  Note on ::  Channel 9.  Note 44.  Velocity 0
000002t:  Note on ::  Channel 9.  Note 46.  Velocity 110
000094t:  Note on ::  Channel 9.  Note 46.  Velocity 0
000002t:  Note on ::  Channel 9.  Note 44.  Velocity 110
000160t:  Note on ::  Channel 9.  Note 44.  Velocity 0
000032t:  Note on ::  Channel 9.  Note 44.  Velocity 110
000094t:  Note on ::  Channel 9.  Note 44.  Velocity 0
000002t:  Note on ::  Channel 9.  Note 46.  Velocity 110
000094t:  Note on ::  Channel 9.  Note 46.  Velocity 0
000002t:  Note on ::  Channel 9.  Note 44.  Velocity 110
000160t:  Note on ::  Channel 9.  Note 44.  Velocity 0
000032t:  Note on ::  Channel 9.  Note 44.  Velocity 110
000094t:  Note on ::  Channel 9.  Note 44.  Velocity 0
000002t:  Note on ::  Channel 9.  Note 46.  Velocity 110
000094t:  Note on ::  Channel 9.  Note 46.  Velocity 0
000002t:  Note on ::  Channel 9.  Note 44.  Velocity 110
000160t:  Note on ::  Channel 9.  Note 44.  Velocity 0
000032t:  Note on ::  Channel 9.  Note 44.  Velocity 110
000094t:  Note on ::  Channel 9.  Note 44.  Velocity 0
000002t:  Note on ::  Channel 9.  Note 46.  Velocity 110
000094t:  Note on ::  Channel 9.  Note 46.  Velocity 0
000002t:  Note on ::  Channel 9.  Note 44.  Velocity 110
000160t:  Note on ::  Channel 9.  Note 44.  Velocity 0
000032t:  Note on ::  Channel 9.  Note 44.  Velocity 110
000094t:  Note on ::  Channel 9.  Note 44.  Velocity 0
000002t:  Note on ::  Channel 9.  Note 46.  Velocity 110
000094t:  Note on ::  Channel 9.  Note 46.  Velocity 0
000002t:  Note on ::  Channel 9.  Note 44.  Velocity 110
000160t:  Note on ::  Channel 9.  Note 44.  Velocity 0
000032t:  Note on ::  Channel 9.  Note 44.  Velocity 110
000094t:  Note on ::  Channel 9.  Note 44.  Velocity 0
000002t:  Note on ::  Channel 9.  Note 46.  Velocity 110
000094t:  Note on ::  Channel 9.  Note 46.  Velocity 0
000002t:  Note on ::  Channel 9.  Note 44.  Velocity 110
000160t:  Note on ::  Channel 9.  Note 44.  Velocity 0
000032t:  Note on ::  Channel 9.  Note 44.  Velocity 110
000094t:  Note on ::  Channel 9.  Note 44.  Velocity 0
000002t:  Note on ::  Channel 9.  Note 46.  Velocity 110
000094t:  Note on ::  Channel 9.  Note 46.  Velocity 0
000002t:  Note on ::  Channel 9.  Note 44.  Velocity 110
000160t:  Note on ::  Channel 9.  Note 44.  Velocity 0
000032t:  Note on ::  Channel 9.  Note 44.  Velocity 110
000094t:  Note on ::  Channel 9.  Note 44.  Velocity 0
000002t:  Note on ::  Channel 9.  Note 46.  Velocity 110
000094t:  Note on ::  Channel 9.  Note 46.  Velocity 0
000002t:  Note on ::  Channel 9.  Note 44.  Velocity 110
000160t:  Note on ::  Channel 9.  Note 44.  Velocity 0
000032t:  Note on ::  Channel 9.  Note 44.  Velocity 110
000094t:  Note on ::  Channel 9.  Note 44.  Velocity 0
000002t:  Note on ::  Channel 9.  Note 46.  Velocity 110
000094t:  Note on ::  Channel 9.  Note 46.  Velocity 0
000002t:  Note on ::  Channel 9.  Note 44.  Velocity 110
000000t:  Note on ::  Channel 9.  Note 49.  Velocity 110
000160t:  Note on ::  Channel 9.  Note 44.  Velocity 0
000000t:  Note on ::  Channel 9.  Note 49.  Velocity 0
000032t:  Note on ::  Channel 9.  Note 44.  Velocity 110
000094t:  Note on ::  Channel 9.  Note 44.  Velocity 0
000002t:  Note on ::  Channel 9.  Note 46.  Velocity 110
000094t:  Note on ::  Channel 9.  Note 46.  Velocity 0
000002t:  Note on ::  Channel 9.  Note 44.  Velocity 110
000160t:  Note on ::  Channel 9.  Note 44.  Velocity 0
000032t:  Note on ::  Channel 9.  Note 44.  Velocity 110
000094t:  Note on ::  Channel 9.  Note 44.  Velocity 0
000002t:  Note on ::  Channel 9.  Note 46.  Velocity 110
000094t:  Note on ::  Channel 9.  Note 46.  Velocity 0
000002t:  Note on ::  Channel 9.  Note 44.  Velocity 110
000000t:  Note on ::  Channel 9.  Note 49.  Velocity 110
000160t:  Note on ::  Channel 9.  Note 44.  Velocity 0
000000t:  Note on ::  Channel 9.  Note 49.  Velocity 0
000032t:  Note on ::  Channel 9.  Note 44.  Velocity 110
000094t:  Note on ::  Channel 9.  Note 44.  Velocity 0
000002t:  Note on ::  Channel 9.  Note 46.  Velocity 110
000094t:  Note on ::  Channel 9.  Note 46.  Velocity 0
000002t:  Note on ::  Channel 9.  Note 44.  Velocity 110
000160t:  Note on ::  Channel 9.  Note 44.  Velocity 0
000032t:  Note on ::  Channel 9.  Note 44.  Velocity 110
000094t:  Note on ::  Channel 9.  Note 44.  Velocity 0
000002t:  Note on ::  Channel 9.  Note 46.  Velocity 110
000094t:  Note on ::  Channel 9.  Note 46.  Velocity 0
000002t:  Note on ::  Channel 9.  Note 44.  Velocity 110
000000t:  Note on ::  Channel 9.  Note 49.  Velocity 110
000160t:  Note on ::  Channel 9.  Note 44.  Velocity 0
000000t:  Note on ::  Channel 9.  Note 49.  Velocity 0
000032t:  Note on ::  Channel 9.  Note 44.  Velocity 110
000094t:  Note on ::  Channel 9.  Note 44.  Velocity 0
000002t:  Note on ::  Channel 9.  Note 46.  Velocity 110
000094t:  Note on ::  Channel 9.  Note 46.  Velocity 0
000002t:  Note on ::  Channel 9.  Note 44.  Velocity 110
000160t:  Note on ::  Channel 9.  Note 44.  Velocity 0
000032t:  Note on ::  Channel 9.  Note 44.  Velocity 110
000094t:  Note on ::  Channel 9.  Note 44.  Velocity 0
000002t:  Note on ::  Channel 9.  Note 46.  Velocity 110
000094t:  Note on ::  Channel 9.  Note 46.  Velocity 0
000002t:  Note on ::  Channel 9.  Note 45.  Velocity 110
000046t:  Note on ::  Channel 9.  Note 45.  Velocity 0
000002t:  Note on ::  Channel 9.  Note 45.  Velocity 110
000046t:  Note on ::  Channel 9.  Note 45.  Velocity 0
000002t:  Note on ::  Channel 9.  Note 45.  Velocity 110
000046t:  Note on ::  Channel 9.  Note 45.  Velocity 0
000146t:  Note on ::  Channel 9.  Note 43.  Velocity 110
000046t:  Note on ::  Channel 9.  Note 43.  Velocity 0
000002t:  Note on ::  Channel 9.  Note 43.  Velocity 110
000046t:  Note on ::  Channel 9.  Note 43.  Velocity 0
000002t:  Note on ::  Channel 9.  Note 43.  Velocity 110
000046t:  Note on ::  Channel 9.  Note 43.  Velocity 0
000146t:  Note on ::  Channel 9.  Note 49.  Velocity 110
000160t:  Note on ::  Channel 9.  Note 49.  Velocity 0
002720t:  Note on ::  Channel 9.  Note 47.  Velocity 110
000046t:  Note on ::  Channel 9.  Note 47.  Velocity 0
000002t:  Note on ::  Channel 9.  Note 45.  Velocity 110
000046t:  Note on ::  Channel 9.  Note 45.  Velocity 0
000002t:  Note on ::  Channel 9.  Note 43.  Velocity 110
000046t:  Note on ::  Channel 9.  Note 43.  Velocity 0
000050t:  Note on ::  Channel 9.  Note 49.  Velocity 110
000352t:  Note on ::  Channel 9.  Note 49.  Velocity 0
000032t:  Note on ::  Channel 9.  Note 43.  Velocity 110
000094t:  Note on ::  Channel 9.  Note 43.  Velocity 0
000098t:  Note on ::  Channel 9.  Note 43.  Velocity 110
000094t:  Note on ::  Channel 9.  Note 43.  Velocity 0
000002t:  Note on ::  Channel 9.  Note 47.  Velocity 110
000000t:  Note on ::  Channel 9.  Note 49.  Velocity 110
000094t:  Note on ::  Channel 9.  Note 47.  Velocity 0
000000t:  Note on ::  Channel 9.  Note 49.  Velocity 0
000002t:  Note on ::  Channel 9.  Note 43.  Velocity 110
000094t:  Note on ::  Channel 9.  Note 43.  Velocity 0
000002t:  Note on ::  Channel 9.  Note 43.  Velocity 110
000094t:  Note on ::  Channel 9.  Note 43.  Velocity 0
000002t:  Note on ::  Channel 9.  Note 43.  Velocity 110
000000t:  Note on ::  Channel 9.  Note 52.  Velocity 110
000094t:  Note on ::  Channel 9.  Note 43.  Velocity 0
000000t:  Note on ::  Channel 9.  Note 52.  Velocity 0
000002t:  Note on ::  Channel 9.  Note 47.  Velocity 110
000094t:  Note on ::  Channel 9.  Note 47.  Velocity 0
000002t:  Note on ::  Channel 9.  Note 43.  Velocity 110
000094t:  Note on ::  Channel 9.  Note 43.  Velocity 0
000002t:  Note on ::  Channel 9.  Note 43.  Velocity 110
000094t:  Note on ::  Channel 9.  Note 43.  Velocity 0
000002t:  Note on ::  Channel 9.  Note 43.  Velocity 110
000094t:  Note on ::  Channel 9.  Note 43.  Velocity 0
000002t:  Note on ::  Channel 9.  Note 47.  Velocity 110
000046t:  Note on ::  Channel 9.  Note 47.  Velocity 0
000002t:  Note on ::  Channel 9.  Note 45.  Velocity 110
000046t:  Note on ::  Channel 9.  Note 45.  Velocity 0
000002t:  Note on ::  Channel 9.  Note 43.  Velocity 110
000046t:  Note on ::  Channel 9.  Note 43.  Velocity 0
004562t:  Note on ::  Channel 9.  Note 44.  Velocity 110
000160t:  Note on ::  Channel 9.  Note 44.  Velocity 0
000032t:  Note on ::  Channel 9.  Note 44.  Velocity 110
000160t:  Note on ::  Channel 9.  Note 44.  Velocity 0
000032t:  Note on ::  Channel 9.  Note 44.  Velocity 110
000160t:  Note on ::  Channel 9.  Note 44.  Velocity 0
000032t:  Note on ::  Channel 9.  Note 44.  Velocity 110
000160t:  Note on ::  Channel 9.  Note 44.  Velocity 0
000032t:  Note on ::  Channel 9.  Note 44.  Velocity 110
000160t:  Note on ::  Channel 9.  Note 44.  Velocity 0
000032t:  Note on ::  Channel 9.  Note 44.  Velocity 110
000160t:  Note on ::  Channel 9.  Note 44.  Velocity 0
000032t:  Note on ::  Channel 9.  Note 44.  Velocity 110
000160t:  Note on ::  Channel 9.  Note 44.  Velocity 0
000032t:  Note on ::  Channel 9.  Note 44.  Velocity 110
000160t:  Note on ::  Channel 9.  Note 44.  Velocity 0
000032t:  Note on ::  Channel 9.  Note 44.  Velocity 110
000160t:  Note on ::  Channel 9.  Note 44.  Velocity 0
000032t:  Note on ::  Channel 9.  Note 44.  Velocity 110
000160t:  Note on ::  Channel 9.  Note 44.  Velocity 0
000032t:  Note on ::  Channel 9.  Note 44.  Velocity 110
000160t:  Note on ::  Channel 9.  Note 44.  Velocity 0
000032t:  Note on ::  Channel 9.  Note 44.  Velocity 110
000160t:  Note on ::  Channel 9.  Note 44.  Velocity 0
000032t:  Note on ::  Channel 9.  Note 44.  Velocity 110
000160t:  Note on ::  Channel 9.  Note 44.  Velocity 0
000032t:  Note on ::  Channel 9.  Note 44.  Velocity 110
000160t:  Note on ::  Channel 9.  Note 44.  Velocity 0
000032t:  Note on ::  Channel 9.  Note 44.  Velocity 110
000160t:  Note on ::  Channel 9.  Note 44.  Velocity 0
000032t:  Note on ::  Channel 9.  Note 44.  Velocity 110
000160t:  Note on ::  Channel 9.  Note 44.  Velocity 0
000032t:  Note on ::  Channel 9.  Note 44.  Velocity 110
000160t:  Note on ::  Channel 9.  Note 44.  Velocity 0
000032t:  Note on ::  Channel 9.  Note 44.  Velocity 110
000160t:  Note on ::  Channel 9.  Note 44.  Velocity 0
000032t:  Note on ::  Channel 9.  Note 44.  Velocity 110
000160t:  Note on ::  Channel 9.  Note 44.  Velocity 0
000032t:  Note on ::  Channel 9.  Note 44.  Velocity 110
000160t:  Note on ::  Channel 9.  Note 44.  Velocity 0
000032t:  Note on ::  Channel 9.  Note 44.  Velocity 110
000160t:  Note on ::  Channel 9.  Note 44.  Velocity 0
000032t:  Note on ::  Channel 9.  Note 44.  Velocity 110
000160t:  Note on ::  Channel 9.  Note 44.  Velocity 0
000032t:  Note on ::  Channel 9.  Note 44.  Velocity 110
000160t:  Note on ::  Channel 9.  Note 44.  Velocity 0
000032t:  Note on ::  Channel 9.  Note 44.  Velocity 110
000160t:  Note on ::  Channel 9.  Note 44.  Velocity 0
000032t:  Note on ::  Channel 9.  Note 44.  Velocity 110
000160t:  Note on ::  Channel 9.  Note 44.  Velocity 0
000032t:  Note on ::  Channel 9.  Note 44.  Velocity 110
000160t:  Note on ::  Channel 9.  Note 44.  Velocity 0
000032t:  Note on ::  Channel 9.  Note 44.  Velocity 110
000160t:  Note on ::  Channel 9.  Note 44.  Velocity 0
000032t:  Note on ::  Channel 9.  Note 44.  Velocity 110
000160t:  Note on ::  Channel 9.  Note 44.  Velocity 0
000032t:  Note on ::  Channel 9.  Note 44.  Velocity 110
000160t:  Note on ::  Channel 9.  Note 44.  Velocity 0
000032t:  Note on ::  Channel 9.  Note 44.  Velocity 110
000160t:  Note on ::  Channel 9.  Note 44.  Velocity 0
000032t:  Note on ::  Channel 9.  Note 44.  Velocity 110
000160t:  Note on ::  Channel 9.  Note 44.  Velocity 0
000032t:  Note on ::  Channel 9.  Note 44.  Velocity 110
000160t:  Note on ::  Channel 9.  Note 44.  Velocity 0
000032t:  Note on ::  Channel 9.  Note 44.  Velocity 110
000160t:  Note on ::  Channel 9.  Note 44.  Velocity 0
000032t:  Note on ::  Channel 9.  Note 44.  Velocity 110
000160t:  Note on ::  Channel 9.  Note 44.  Velocity 0
000032t:  Note on ::  Channel 9.  Note 44.  Velocity 110
000160t:  Note on ::  Channel 9.  Note 44.  Velocity 0
000032t:  Note on ::  Channel 9.  Note 44.  Velocity 110
000160t:  Note on ::  Channel 9.  Note 44.  Velocity 0
000032t:  Note on ::  Channel 9.  Note 44.  Velocity 110
000160t:  Note on ::  Channel 9.  Note 44.  Velocity 0
000032t:  Note on ::  Channel 9.  Note 44.  Velocity 110
000160t:  Note on ::  Channel 9.  Note 44.  Velocity 0
000032t:  Note on ::  Channel 9.  Note 44.  Velocity 110
000160t:  Note on ::  Channel 9.  Note 44.  Velocity 0
000032t:  Note on ::  Channel 9.  Note 44.  Velocity 110
000160t:  Note on ::  Channel 9.  Note 44.  Velocity 0
000032t:  Note on ::  Channel 9.  Note 44.  Velocity 110
000160t:  Note on ::  Channel 9.  Note 44.  Velocity 0
000032t:  Note on ::  Channel 9.  Note 44.  Velocity 110
000160t:  Note on ::  Channel 9.  Note 44.  Velocity 0
000032t:  Note on ::  Channel 9.  Note 44.  Velocity 110
000160t:  Note on ::  Channel 9.  Note 44.  Velocity 0
000032t:  Note on ::  Channel 9.  Note 44.  Velocity 110
000160t:  Note on ::  Channel 9.  Note 44.  Velocity 0
000032t:  Note on ::  Channel 9.  Note 44.  Velocity 110
000160t:  Note on ::  Channel 9.  Note 44.  Velocity 0
000032t:  Note on ::  Channel 9.  Note 44.  Velocity 110
000160t:  Note on ::  Channel 9.  Note 44.  Velocity 0
000032t:  Note on ::  Channel 9.  Note 44.  Velocity 110
000160t:  Note on ::  Channel 9.  Note 44.  Velocity 0
000032t:  Note on ::  Channel 9.  Note 44.  Velocity 110
000160t:  Note on ::  Channel 9.  Note 44.  Velocity 0
000032t:  Note on ::  Channel 9.  Note 44.  Velocity 110
000160t:  Note on ::  Channel 9.  Note 44.  Velocity 0
000032t:  Note on ::  Channel 9.  Note 44.  Velocity 110
000160t:  Note on ::  Channel 9.  Note 44.  Velocity 0
000032t:  Note on ::  Channel 9.  Note 44.  Velocity 110
000160t:  Note on ::  Channel 9.  Note 44.  Velocity 0
000032t:  Note on ::  Channel 9.  Note 44.  Velocity 110
000160t:  Note on ::  Channel 9.  Note 44.  Velocity 0
000032t:  Note on ::  Channel 9.  Note 44.  Velocity 110
000160t:  Note on ::  Channel 9.  Note 44.  Velocity 0
000032t:  Note on ::  Channel 9.  Note 44.  Velocity 110
000160t:  Note on ::  Channel 9.  Note 44.  Velocity 0
000032t:  Note on ::  Channel 9.  Note 44.  Velocity 110
000160t:  Note on ::  Channel 9.  Note 44.  Velocity 0
000032t:  Note on ::  Channel 9.  Note 44.  Velocity 110
000160t:  Note on ::  Channel 9.  Note 44.  Velocity 0
000032t:  Note on ::  Channel 9.  Note 44.  Velocity 110
000160t:  Note on ::  Channel 9.  Note 44.  Velocity 0
000032t:  Note on ::  Channel 9.  Note 44.  Velocity 110
000160t:  Note on ::  Channel 9.  Note 44.  Velocity 0
000032t:  Note on ::  Channel 9.  Note 44.  Velocity 110
000160t:  Note on ::  Channel 9.  Note 44.  Velocity 0
000032t:  Note on ::  Channel 9.  Note 44.  Velocity 110
000160t:  Note on ::  Channel 9.  Note 44.  Velocity 0
000032t:  Note on ::  Channel 9.  Note 44.  Velocity 110
000160t:  Note on ::  Channel 9.  Note 44.  Velocity 0
000032t:  Note on ::  Channel 9.  Note 44.  Velocity 110
000160t:  Note on ::  Channel 9.  Note 44.  Velocity 0
000032t:  Note on ::  Channel 9.  Note 44.  Velocity 110
000160t:  Note on ::  Channel 9.  Note 44.  Velocity 0
000032t:  Note on ::  Channel 9.  Note 44.  Velocity 110
000160t:  Note on ::  Channel 9.  Note 44.  Velocity 0
000032t:  Note on ::  Channel 9.  Note 44.  Velocity 110
000000t:  Note on ::  Channel 9.  Note 49.  Velocity 110
000160t:  Note on ::  Channel 9.  Note 44.  Velocity 0
000000t:  Note on ::  Channel 9.  Note 49.  Velocity 0
000032t:  Note on ::  Channel 9.  Note 44.  Velocity 110
000094t:  Note on ::  Channel 9.  Note 44.  Velocity 0
000002t:  Note on ::  Channel 9.  Note 46.  Velocity 110
000094t:  Note on ::  Channel 9.  Note 46.  Velocity 0
000002t:  Note on ::  Channel 9.  Note 44.  Velocity 110
000160t:  Note on ::  Channel 9.  Note 44.  Velocity 0
000032t:  Note on ::  Channel 9.  Note 44.  Velocity 110
000094t:  Note on ::  Channel 9.  Note 44.  Velocity 0
000002t:  Note on ::  Channel 9.  Note 46.  Velocity 110
000094t:  Note on ::  Channel 9.  Note 46.  Velocity 0
000002t:  Note on ::  Channel 9.  Note 44.  Velocity 110
000160t:  Note on ::  Channel 9.  Note 44.  Velocity 0
000032t:  Note on ::  Channel 9.  Note 44.  Velocity 110
000094t:  Note on ::  Channel 9.  Note 44.  Velocity 0
000002t:  Note on ::  Channel 9.  Note 46.  Velocity 110
000094t:  Note on ::  Channel 9.  Note 46.  Velocity 0
000002t:  Note on ::  Channel 9.  Note 44.  Velocity 110
000160t:  Note on ::  Channel 9.  Note 44.  Velocity 0
000032t:  Note on ::  Channel 9.  Note 44.  Velocity 110
000094t:  Note on ::  Channel 9.  Note 44.  Velocity 0
000002t:  Note on ::  Channel 9.  Note 46.  Velocity 110
000094t:  Note on ::  Channel 9.  Note 46.  Velocity 0
000002t:  Note on ::  Channel 9.  Note 44.  Velocity 110
000160t:  Note on ::  Channel 9.  Note 44.  Velocity 0
000032t:  Note on ::  Channel 9.  Note 44.  Velocity 110
000094t:  Note on ::  Channel 9.  Note 44.  Velocity 0
000002t:  Note on ::  Channel 9.  Note 46.  Velocity 110
000094t:  Note on ::  Channel 9.  Note 46.  Velocity 0
000002t:  Note on ::  Channel 9.  Note 44.  Velocity 110
000160t:  Note on ::  Channel 9.  Note 44.  Velocity 0
000032t:  Note on ::  Channel 9.  Note 44.  Velocity 110
000094t:  Note on ::  Channel 9.  Note 44.  Velocity 0
000002t:  Note on ::  Channel 9.  Note 46.  Velocity 110
000094t:  Note on ::  Channel 9.  Note 46.  Velocity 0
000002t:  Note on ::  Channel 9.  Note 44.  Velocity 110
000160t:  Note on ::  Channel 9.  Note 44.  Velocity 0
000032t:  Note on ::  Channel 9.  Note 44.  Velocity 110
000094t:  Note on ::  Channel 9.  Note 44.  Velocity 0
000002t:  Note on ::  Channel 9.  Note 46.  Velocity 110
000094t:  Note on ::  Channel 9.  Note 46.  Velocity 0
000002t:  Note on ::  Channel 9.  Note 44.  Velocity 110
000160t:  Note on ::  Channel 9.  Note 44.  Velocity 0
000032t:  Note on ::  Channel 9.  Note 44.  Velocity 110
000094t:  Note on ::  Channel 9.  Note 44.  Velocity 0
000002t:  Note on ::  Channel 9.  Note 46.  Velocity 110
000094t:  Note on ::  Channel 9.  Note 46.  Velocity 0
000002t:  Note on ::  Channel 9.  Note 44.  Velocity 110
000160t:  Note on ::  Channel 9.  Note 44.  Velocity 0
000032t:  Note on ::  Channel 9.  Note 44.  Velocity 110
000094t:  Note on ::  Channel 9.  Note 44.  Velocity 0
000002t:  Note on ::  Channel 9.  Note 46.  Velocity 110
000094t:  Note on ::  Channel 9.  Note 46.  Velocity 0
000002t:  Note on ::  Channel 9.  Note 44.  Velocity 110
000160t:  Note on ::  Channel 9.  Note 44.  Velocity 0
000032t:  Note on ::  Channel 9.  Note 44.  Velocity 110
000094t:  Note on ::  Channel 9.  Note 44.  Velocity 0
000002t:  Note on ::  Channel 9.  Note 46.  Velocity 110
000094t:  Note on ::  Channel 9.  Note 46.  Velocity 0
000002t:  Note on ::  Channel 9.  Note 44.  Velocity 110
000160t:  Note on ::  Channel 9.  Note 44.  Velocity 0
000032t:  Note on ::  Channel 9.  Note 44.  Velocity 110
000094t:  Note on ::  Channel 9.  Note 44.  Velocity 0
000002t:  Note on ::  Channel 9.  Note 46.  Velocity 110
000094t:  Note on ::  Channel 9.  Note 46.  Velocity 0
000002t:  Note on ::  Channel 9.  Note 44.  Velocity 110
000160t:  Note on ::  Channel 9.  Note 44.  Velocity 0
000032t:  Note on ::  Channel 9.  Note 44.  Velocity 110
000094t:  Note on ::  Channel 9.  Note 44.  Velocity 0
000002t:  Note on ::  Channel 9.  Note 46.  Velocity 110
000094t:  Note on ::  Channel 9.  Note 46.  Velocity 0
000002t:  Note on ::  Channel 9.  Note 44.  Velocity 110
000160t:  Note on ::  Channel 9.  Note 44.  Velocity 0
000032t:  Note on ::  Channel 9.  Note 44.  Velocity 110
000094t:  Note on ::  Channel 9.  Note 44.  Velocity 0
000002t:  Note on ::  Channel 9.  Note 46.  Velocity 110
000094t:  Note on ::  Channel 9.  Note 46.  Velocity 0
000002t:  Note on ::  Channel 9.  Note 44.  Velocity 110
000160t:  Note on ::  Channel 9.  Note 44.  Velocity 0
000032t:  Note on ::  Channel 9.  Note 44.  Velocity 110
000094t:  Note on ::  Channel 9.  Note 44.  Velocity 0
000002t:  Note on ::  Channel 9.  Note 46.  Velocity 110
000094t:  Note on ::  Channel 9.  Note 46.  Velocity 0
000002t:  Note on ::  Channel 9.  Note 44.  Velocity 110
000160t:  Note on ::  Channel 9.  Note 44.  Velocity 0
000032t:  Note on ::  Channel 9.  Note 44.  Velocity 110
000094t:  Note on ::  Channel 9.  Note 44.  Velocity 0
000002t:  Note on ::  Channel 9.  Note 46.  Velocity 110
000094t:  Note on ::  Channel 9.  Note 46.  Velocity 0
000002t:  Note on ::  Channel 9.  Note 44.  Velocity 110
000160t:  Note on ::  Channel 9.  Note 44.  Velocity 0
000032t:  Note on ::  Channel 9.  Note 44.  Velocity 110
000094t:  Note on ::  Channel 9.  Note 44.  Velocity 0
000002t:  Note on ::  Channel 9.  Note 46.  Velocity 110
000094t:  Note on ::  Channel 9.  Note 46.  Velocity 0
000002t:  Note on ::  Channel 9.  Note 44.  Velocity 110
000160t:  Note on ::  Channel 9.  Note 44.  Velocity 0
000032t:  Note on ::  Channel 9.  Note 44.  Velocity 110
000094t:  Note on ::  Channel 9.  Note 44.  Velocity 0
000002t:  Note on ::  Channel 9.  Note 46.  Velocity 110
000094t:  Note on ::  Channel 9.  Note 46.  Velocity 0
000002t:  Note on ::  Channel 9.  Note 44.  Velocity 110
000160t:  Note on ::  Channel 9.  Note 44.  Velocity 0
000032t:  Note on ::  Channel 9.  Note 44.  Velocity 110
000094t:  Note on ::  Channel 9.  Note 44.  Velocity 0
000002t:  Note on ::  Channel 9.  Note 46.  Velocity 110
000094t:  Note on ::  Channel 9.  Note 46.  Velocity 0
000002t:  Note on ::  Channel 9.  Note 44.  Velocity 110
000160t:  Note on ::  Channel 9.  Note 44.  Velocity 0
000032t:  Note on ::  Channel 9.  Note 44.  Velocity 110
000094t:  Note on ::  Channel 9.  Note 44.  Velocity 0
000002t:  Note on ::  Channel 9.  Note 46.  Velocity 110
000094t:  Note on ::  Channel 9.  Note 46.  Velocity 0
000002t:  Note on ::  Channel 9.  Note 44.  Velocity 110
000160t:  Note on ::  Channel 9.  Note 44.  Velocity 0
000032t:  Note on ::  Channel 9.  Note 44.  Velocity 110
000094t:  Note on ::  Channel 9.  Note 44.  Velocity 0
000002t:  Note on ::  Channel 9.  Note 46.  Velocity 110
000094t:  Note on ::  Channel 9.  Note 46.  Velocity 0
000002t:  Note on ::  Channel 9.  Note 44.  Velocity 110
000160t:  Note on ::  Channel 9.  Note 44.  Velocity 0
000032t:  Note on ::  Channel 9.  Note 44.  Velocity 110
000094t:  Note on ::  Channel 9.  Note 44.  Velocity 0
000002t:  Note on ::  Channel 9.  Note 46.  Velocity 110
000094t:  Note on ::  Channel 9.  Note 46.  Velocity 0
000002t:  Note on ::  Channel 9.  Note 44.  Velocity 110
000160t:  Note on ::  Channel 9.  Note 44.  Velocity 0
000032t:  Note on ::  Channel 9.  Note 44.  Velocity 110
000094t:  Note on ::  Channel 9.  Note 44.  Velocity 0
000002t:  Note on ::  Channel 9.  Note 46.  Velocity 110
000094t:  Note on ::  Channel 9.  Note 46.  Velocity 0
000002t:  Note on ::  Channel 9.  Note 44.  Velocity 110
000160t:  Note on ::  Channel 9.  Note 44.  Velocity 0
000032t:  Note on ::  Channel 9.  Note 44.  Velocity 110
000094t:  Note on ::  Channel 9.  Note 44.  Velocity 0
000002t:  Note on ::  Channel 9.  Note 46.  Velocity 110
000094t:  Note on ::  Channel 9.  Note 46.  Velocity 0
000002t:  Note on ::  Channel 9.  Note 44.  Velocity 110
000160t:  Note on ::  Channel 9.  Note 44.  Velocity 0
000032t:  Note on ::  Channel 9.  Note 44.  Velocity 110
000094t:  Note on ::  Channel 9.  Note 44.  Velocity 0
000002t:  Note on ::  Channel 9.  Note 46.  Velocity 110
000094t:  Note on ::  Channel 9.  Note 46.  Velocity 0
000002t:  Note on ::  Channel 9.  Note 44.  Velocity 110
000160t:  Note on ::  Channel 9.  Note 44.  Velocity 0
000032t:  Note on ::  Channel 9.  Note 44.  Velocity 110
000094t:  Note on ::  Channel 9.  Note 44.  Velocity 0
000002t:  Note on ::  Channel 9.  Note 46.  Velocity 110
000094t:  Note on ::  Channel 9.  Note 46.  Velocity 0
000002t:  Note on ::  Channel 9.  Note 44.  Velocity 110
000160t:  Note on ::  Channel 9.  Note 44.  Velocity 0
000032t:  Note on ::  Channel 9.  Note 44.  Velocity 110
000094t:  Note on ::  Channel 9.  Note 44.  Velocity 0
000002t:  Note on ::  Channel 9.  Note 46.  Velocity 110
000094t:  Note on ::  Channel 9.  Note 46.  Velocity 0
000002t:  Note on ::  Channel 9.  Note 44.  Velocity 110
000160t:  Note on ::  Channel 9.  Note 44.  Velocity 0
000032t:  Note on ::  Channel 9.  Note 44.  Velocity 110
000094t:  Note on ::  Channel 9.  Note 44.  Velocity 0
000002t:  Note on ::  Channel 9.  Note 46.  Velocity 110
000094t:  Note on ::  Channel 9.  Note 46.  Velocity 0
000002t:  Note on ::  Channel 9.  Note 44.  Velocity 110
000160t:  Note on ::  Channel 9.  Note 44.  Velocity 0
000032t:  Note on ::  Channel 9.  Note 44.  Velocity 110
000094t:  Note on ::  Channel 9.  Note 44.  Velocity 0
000002t:  Note on ::  Channel 9.  Note 46.  Velocity 110
000094t:  Note on ::  Channel 9.  Note 46.  Velocity 0
000002t:  Note on ::  Channel 9.  Note 44.  Velocity 110
000000t:  Note on ::  Channel 9.  Note 49.  Velocity 110
000160t:  Note on ::  Channel 9.  Note 44.  Velocity 0
000000t:  Note on ::  Channel 9.  Note 49.  Velocity 0
000032t:  Note on ::  Channel 9.  Note 44.  Velocity 110
000094t:  Note on ::  Channel 9.  Note 44.  Velocity 0
000002t:  Note on ::  Channel 9.  Note 46.  Velocity 110
000094t:  Note on ::  Channel 9.  Note 46.  Velocity 0
000002t:  Note on ::  Channel 9.  Note 44.  Velocity 110
000160t:  Note on ::  Channel 9.  Note 44.  Velocity 0
000032t:  Note on ::  Channel 9.  Note 44.  Velocity 110
000094t:  Note on ::  Channel 9.  Note 44.  Velocity 0
000002t:  Note on ::  Channel 9.  Note 46.  Velocity 110
000094t:  Note on ::  Channel 9.  Note 46.  Velocity 0
000002t:  Note on ::  Channel 9.  Note 44.  Velocity 110
000000t:  Note on ::  Channel 9.  Note 49.  Velocity 110
000160t:  Note on ::  Channel 9.  Note 44.  Velocity 0
000000t:  Note on ::  Channel 9.  Note 49.  Velocity 0
000032t:  Note on ::  Channel 9.  Note 44.  Velocity 110
000094t:  Note on ::  Channel 9.  Note 44.  Velocity 0
000002t:  Note on ::  Channel 9.  Note 46.  Velocity 110
000094t:  Note on ::  Channel 9.  Note 46.  Velocity 0
000002t:  Note on ::  Channel 9.  Note 44.  Velocity 110
000160t:  Note on ::  Channel 9.  Note 44.  Velocity 0
000032t:  Note on ::  Channel 9.  Note 44.  Velocity 110
000094t:  Note on ::  Channel 9.  Note 44.  Velocity 0
000002t:  Note on ::  Channel 9.  Note 46.  Velocity 110
000094t:  Note on ::  Channel 9.  Note 46.  Velocity 0
000002t:  Note on ::  Channel 9.  Note 44.  Velocity 110
000000t:  Note on ::  Channel 9.  Note 49.  Velocity 110
000160t:  Note on ::  Channel 9.  Note 44.  Velocity 0
000000t:  Note on ::  Channel 9.  Note 49.  Velocity 0
000032t:  Note on ::  Channel 9.  Note 44.  Velocity 110
000094t:  Note on ::  Channel 9.  Note 44.  Velocity 0
000002t:  Note on ::  Channel 9.  Note 46.  Velocity 110
000094t:  Note on ::  Channel 9.  Note 46.  Velocity 0
000002t:  Note on ::  Channel 9.  Note 44.  Velocity 110
000160t:  Note on ::  Channel 9.  Note 44.  Velocity 0
000032t:  Note on ::  Channel 9.  Note 44.  Velocity 110
000094t:  Note on ::  Channel 9.  Note 44.  Velocity 0
000002t:  Note on ::  Channel 9.  Note 46.  Velocity 110
000094t:  Note on ::  Channel 9.  Note 46.  Velocity 0
000002t:  Note on ::  Channel 9.  Note 45.  Velocity 110
000046t:  Note on ::  Channel 9.  Note 45.  Velocity 0
000002t:  Note on ::  Channel 9.  Note 45.  Velocity 110
000046t:  Note on ::  Channel 9.  Note 45.  Velocity 0
000002t:  Note on ::  Channel 9.  Note 45.  Velocity 110
000046t:  Note on ::  Channel 9.  Note 45.  Velocity 0
000146t:  Note on ::  Channel 9.  Note 43.  Velocity 110
000046t:  Note on ::  Channel 9.  Note 43.  Velocity 0
000002t:  Note on ::  Channel 9.  Note 43.  Velocity 110
000046t:  Note on ::  Channel 9.  Note 43.  Velocity 0
000002t:  Note on ::  Channel 9.  Note 43.  Velocity 110
000046t:  Note on ::  Channel 9.  Note 43.  Velocity 0
000146t:  Note on ::  Channel 9.  Note 49.  Velocity 110
000160t:  Note on ::  Channel 9.  Note 49.  Velocity 0
002720t:  Note on ::  Channel 9.  Note 47.  Velocity 110
000046t:  Note on ::  Channel 9.  Note 47.  Velocity 0
000002t:  Note on ::  Channel 9.  Note 45.  Velocity 110
000046t:  Note on ::  Channel 9.  Note 45.  Velocity 0
000002t:  Note on ::  Channel 9.  Note 43.  Velocity 110
000046t:  Note on ::  Channel 9.  Note 43.  Velocity 0
000050t:  Note on ::  Channel 9.  Note 49.  Velocity 110
000352t:  Note on ::  Channel 9.  Note 49.  Velocity 0
000032t:  Note on ::  Channel 9.  Note 43.  Velocity 110
000094t:  Note on ::  Channel 9.  Note 43.  Velocity 0
000098t:  Note on ::  Channel 9.  Note 43.  Velocity 110
000094t:  Note on ::  Channel 9.  Note 43.  Velocity 0
000002t:  Note on ::  Channel 9.  Note 47.  Velocity 110
000000t:  Note on ::  Channel 9.  Note 49.  Velocity 110
000094t:  Note on ::  Channel 9.  Note 47.  Velocity 0
000000t:  Note on ::  Channel 9.  Note 49.  Velocity 0
000002t:  Note on ::  Channel 9.  Note 43.  Velocity 110
000094t:  Note on ::  Channel 9.  Note 43.  Velocity 0
000002t:  Note on ::  Channel 9.  Note 43.  Velocity 110
000094t:  Note on ::  Channel 9.  Note 43.  Velocity 0
000002t:  Note on ::  Channel 9.  Note 43.  Velocity 110
000000t:  Note on ::  Channel 9.  Note 52.  Velocity 110
000094t:  Note on ::  Channel 9.  Note 43.  Velocity 0
000000t:  Note on ::  Channel 9.  Note 52.  Velocity 0
000002t:  Note on ::  Channel 9.  Note 47.  Velocity 110
000094t:  Note on ::  Channel 9.  Note 47.  Velocity 0
000002t:  Note on ::  Channel 9.  Note 43.  Velocity 110
000094t:  Note on ::  Channel 9.  Note 43.  Velocity 0
000002t:  Note on ::  Channel 9.  Note 43.  Velocity 110
000094t:  Note on ::  Channel 9.  Note 43.  Velocity 0
000002t:  Note on ::  Channel 9.  Note 43.  Velocity 110
000094t:  Note on ::  Channel 9.  Note 43.  Velocity 0
000002t:  Note on ::  Channel 9.  Note 47.  Velocity 110
000046t:  Note on ::  Channel 9.  Note 47.  Velocity 0
000002t:  Note on ::  Channel 9.  Note 45.  Velocity 110
000046t:  Note on ::  Channel 9.  Note 45.  Velocity 0
000002t:  Note on ::  Channel 9.  Note 43.  Velocity 110
000046t:  Note on ::  Channel 9.  Note 43.  Velocity 0
004562t:  Note on ::  Channel 9.  Note 44.  Velocity 110
000160t:  Note on ::  Channel 9.  Note 44.  Velocity 0
000032t:  Note on ::  Channel 9.  Note 44.  Velocity 110
000160t:  Note on ::  Channel 9.  Note 44.  Velocity 0
000032t:  Note on ::  Channel 9.  Note 44.  Velocity 110
000160t:  Note on ::  Channel 9.  Note 44.  Velocity 0
000032t:  Note on ::  Channel 9.  Note 44.  Velocity 110
000160t:  Note on ::  Channel 9.  Note 44.  Velocity 0
000032t:  Note on ::  Channel 9.  Note 44.  Velocity 110
000160t:  Note on ::  Channel 9.  Note 44.  Velocity 0
000032t:  Note on ::  Channel 9.  Note 44.  Velocity 110
000160t:  Note on ::  Channel 9.  Note 44.  Velocity 0
000032t:  Note on ::  Channel 9.  Note 44.  Velocity 110
000160t:  Note on ::  Channel 9.  Note 44.  Velocity 0
000032t:  Note on ::  Channel 9.  Note 44.  Velocity 110
000160t:  Note on ::  Channel 9.  Note 44.  Velocity 0
000032t:  Note on ::  Channel 9.  Note 44.  Velocity 110
000160t:  Note on ::  Channel 9.  Note 44.  Velocity 0
000032t:  Note on ::  Channel 9.  Note 44.  Velocity 110
000160t:  Note on ::  Channel 9.  Note 44.  Velocity 0
000032t:  Note on ::  Channel 9.  Note 44.  Velocity 110
000160t:  Note on ::  Channel 9.  Note 44.  Velocity 0
000032t:  Note on ::  Channel 9.  Note 44.  Velocity 110
000160t:  Note on ::  Channel 9.  Note 44.  Velocity 0
000032t:  Note on ::  Channel 9.  Note 44.  Velocity 110
000160t:  Note on ::  Channel 9.  Note 44.  Velocity 0
000032t:  Note on ::  Channel 9.  Note 44.  Velocity 110
000160t:  Note on ::  Channel 9.  Note 44.  Velocity 0
000032t:  Note on ::  Channel 9.  Note 44.  Velocity 110
000160t:  Note on ::  Channel 9.  Note 44.  Velocity 0
000032t:  Note on ::  Channel 9.  Note 44.  Velocity 110
000160t:  Note on ::  Channel 9.  Note 44.  Velocity 0
000032t:  Control change ::  Channel 9.  Controller 7.  Value: 127
000000t:  Note on ::  Channel 9.  Note 44.  Velocity 110
000024t:  Control change ::  Channel 9.  Controller 7.  Value: 126
000024t:  Control change ::  Channel 9.  Controller 7.  Value: 125
000024t:  Control change ::  Channel 9.  Controller 7.  Value: 124
000024t:  Control change ::  Channel 9.  Controller 7.  Value: 123
000024t:  Control change ::  Channel 9.  Controller 7.  Value: 122
000025t:  Control change ::  Channel 9.  Controller 7.  Value: 121
000015t:  Note on ::  Channel 9.  Note 44.  Velocity 0
000009t:  Control change ::  Channel 9.  Controller 7.  Value: 120
000023t:  Note on ::  Channel 9.  Note 44.  Velocity 110
000001t:  Control change ::  Channel 9.  Controller 7.  Value: 119
000024t:  Control change ::  Channel 9.  Controller 7.  Value: 118
000024t:  Control change ::  Channel 9.  Controller 7.  Value: 117
000025t:  Control change ::  Channel 9.  Controller 7.  Value: 116
000024t:  Control change ::  Channel 9.  Controller 7.  Value: 115
000024t:  Control change ::  Channel 9.  Controller 7.  Value: 114
000024t:  Control change ::  Channel 9.  Controller 7.  Value: 113
000014t:  Note on ::  Channel 9.  Note 44.  Velocity 0
000010t:  Control change ::  Channel 9.  Controller 7.  Value: 112
000022t:  Note on ::  Channel 9.  Note 44.  Velocity 110
000003t:  Control change ::  Channel 9.  Controller 7.  Value: 111
000024t:  Control change ::  Channel 9.  Controller 7.  Value: 110
000024t:  Control change ::  Channel 9.  Controller 7.  Value: 109
000024t:  Control change ::  Channel 9.  Controller 7.  Value: 108
000024t:  Control change ::  Channel 9.  Controller 7.  Value: 107
000024t:  Control change ::  Channel 9.  Controller 7.  Value: 106
000025t:  Control change ::  Channel 9.  Controller 7.  Value: 105
000012t:  Note on ::  Channel 9.  Note 44.  Velocity 0
000012t:  Control change ::  Channel 9.  Controller 7.  Value: 104
000020t:  Note on ::  Channel 9.  Note 44.  Velocity 110
000004t:  Control change ::  Channel 9.  Controller 7.  Value: 103
000024t:  Control change ::  Channel 9.  Controller 7.  Value: 102
000024t:  Control change ::  Channel 9.  Controller 7.  Value: 101
000025t:  Control change ::  Channel 9.  Controller 7.  Value: 100
000024t:  Control change ::  Channel 9.  Controller 7.  Value: 99
000024t:  Control change ::  Channel 9.  Controller 7.  Value: 98
000024t:  Control change ::  Channel 9.  Controller 7.  Value: 97
000011t:  Note on ::  Channel 9.  Note 44.  Velocity 0
000013t:  Control change ::  Channel 9.  Controller 7.  Value: 96
000019t:  Note on ::  Channel 9.  Note 44.  Velocity 110
000006t:  Control change ::  Channel 9.  Controller 7.  Value: 95
000024t:  Control change ::  Channel 9.  Controller 7.  Value: 94
000024t:  Control change ::  Channel 9.  Controller 7.  Value: 93
000024t:  Control change ::  Channel 9.  Controller 7.  Value: 92
000024t:  Control change ::  Channel 9.  Controller 7.  Value: 91
000024t:  Control change ::  Channel 9.  Controller 7.  Value: 90
000025t:  Control change ::  Channel 9.  Controller 7.  Value: 89
000009t:  Note on ::  Channel 9.  Note 44.  Velocity 0
000015t:  Control change ::  Channel 9.  Controller 7.  Value: 88
000017t:  Note on ::  Channel 9.  Note 44.  Velocity 110
000007t:  Control change ::  Channel 9.  Controller 7.  Value: 87
000024t:  Control change ::  Channel 9.  Controller 7.  Value: 86
000024t:  Control change ::  Channel 9.  Controller 7.  Value: 85
000025t:  Control change ::  Channel 9.  Controller 7.  Value: 84
000024t:  Control change ::  Channel 9.  Controller 7.  Value: 83
000024t:  Control change ::  Channel 9.  Controller 7.  Value: 82
000024t:  Control change ::  Channel 9.  Controller 7.  Value: 81
000008t:  Note on ::  Channel 9.  Note 44.  Velocity 0
000016t:  Control change ::  Channel 9.  Controller 7.  Value: 80
000016t:  Note on ::  Channel 9.  Note 44.  Velocity 110
000009t:  Control change ::  Channel 9.  Controller 7.  Value: 79
000024t:  Control change ::  Channel 9.  Controller 7.  Value: 78
000024t:  Control change ::  Channel 9.  Controller 7.  Value: 77
000024t:  Control change ::  Channel 9.  Controller 7.  Value: 76
000024t:  Control change ::  Channel 9.  Controller 7.  Value: 75
000025t:  Control change ::  Channel 9.  Controller 7.  Value: 74
000024t:  Control change ::  Channel 9.  Controller 7.  Value: 73
000006t:  Note on ::  Channel 9.  Note 44.  Velocity 0
000018t:  Control change ::  Channel 9.  Controller 7.  Value: 72
000014t:  Note on ::  Channel 9.  Note 44.  Velocity 110
000010t:  Control change ::  Channel 9.  Controller 7.  Value: 71
000024t:  Control change ::  Channel 9.  Controller 7.  Value: 70
000024t:  Control change ::  Channel 9.  Controller 7.  Value: 69
000025t:  Control change ::  Channel 9.  Controller 7.  Value: 68
000024t:  Control change ::  Channel 9.  Controller 7.  Value: 67
000024t:  Control change ::  Channel 9.  Controller 7.  Value: 66
000024t:  Control change ::  Channel 9.  Controller 7.  Value: 65
000005t:  Note on ::  Channel 9.  Note 44.  Velocity 0
000019t:  Control change ::  Channel 9.  Controller 7.  Value: 64
000013t:  Note on ::  Channel 9.  Note 44.  Velocity 110
000012t:  Control change ::  Channel 9.  Controller 7.  Value: 63
000024t:  Control change ::  Channel 9.  Controller 7.  Value: 62
000024t:  Control change ::  Channel 9.  Controller 7.  Value: 61
000024t:  Control change ::  Channel 9.  Controller 7.  Value: 60
000024t:  Control change ::  Channel 9.  Controller 7.  Value: 59
000025t:  Control change ::  Channel 9.  Controller 7.  Value: 58
000024t:  Control change ::  Channel 9.  Controller 7.  Value: 57
000003t:  Note on ::  Channel 9.  Note 44.  Velocity 0
000021t:  Control change ::  Channel 9.  Controller 7.  Value: 56
000011t:  Note on ::  Channel 9.  Note 44.  Velocity 110
000013t:  Control change ::  Channel 9.  Controller 7.  Value: 55
000024t:  Control change ::  Channel 9.  Controller 7.  Value: 54
000024t:  Control change ::  Channel 9.  Controller 7.  Value: 53
000025t:  Control change ::  Channel 9.  Controller 7.  Value: 52
000024t:  Control change ::  Channel 9.  Controller 7.  Value: 51
000024t:  Control change ::  Channel 9.  Controller 7.  Value: 50
000024t:  Control change ::  Channel 9.  Controller 7.  Value: 49
000002t:  Note on ::  Channel 9.  Note 44.  Velocity 0
000022t:  Control change ::  Channel 9.  Controller 7.  Value: 48
000010t:  Note on ::  Channel 9.  Note 44.  Velocity 110
000015t:  Control change ::  Channel 9.  Controller 7.  Value: 47
000024t:  Control change ::  Channel 9.  Controller 7.  Value: 46
000024t:  Control change ::  Channel 9.  Controller 7.  Value: 45
000024t:  Control change ::  Channel 9.  Controller 7.  Value: 44
000024t:  Control change ::  Channel 9.  Controller 7.  Value: 43
000025t:  Control change ::  Channel 9.  Controller 7.  Value: 42
000024t:  Note on ::  Channel 9.  Note 44.  Velocity 0
000000t:  Control change ::  Channel 9.  Controller 7.  Value: 41
000024t:  Control change ::  Channel 9.  Controller 7.  Value: 40
000008t:  Note on ::  Channel 9.  Note 44.  Velocity 110
000016t:  Control change ::  Channel 9.  Controller 7.  Value: 39
000024t:  Control change ::  Channel 9.  Controller 7.  Value: 38
000025t:  Control change ::  Channel 9.  Controller 7.  Value: 37
000024t:  Control change ::  Channel 9.  Controller 7.  Value: 36
000024t:  Control change ::  Channel 9.  Controller 7.  Value: 35
000024t:  Control change ::  Channel 9.  Controller 7.  Value: 34
000023t:  Note on ::  Channel 9.  Note 44.  Velocity 0
000001t:  Control change ::  Channel 9.  Controller 7.  Value: 33
000024t:  Control change ::  Channel 9.  Controller 7.  Value: 32
000007t:  Note on ::  Channel 9.  Note 44.  Velocity 110
000018t:  Control change ::  Channel 9.  Controller 7.  Value: 31
000024t:  Control change ::  Channel 9.  Controller 7.  Value: 30
000024t:  Control change ::  Channel 9.  Controller 7.  Value: 29
000024t:  Control change ::  Channel 9.  Controller 7.  Value: 28
000024t:  Control change ::  Channel 9.  Controller 7.  Value: 27
000025t:  Control change ::  Channel 9.  Controller 7.  Value: 26
000021t:  Note on ::  Channel 9.  Note 44.  Velocity 0
000003t:  Control change ::  Channel 9.  Controller 7.  Value: 25
000024t:  Control change ::  Channel 9.  Controller 7.  Value: 24
000005t:  Note on ::  Channel 9.  Note 44.  Velocity 110
000019t:  Control change ::  Channel 9.  Controller 7.  Value: 23
000024t:  Control change ::  Channel 9.  Controller 7.  Value: 22
000025t:  Control change ::  Channel 9.  Controller 7.  Value: 21
000024t:  Control change ::  Channel 9.  Controller 7.  Value: 20
000024t:  Control change ::  Channel 9.  Controller 7.  Value: 19
000024t:  Control change ::  Channel 9.  Controller 7.  Value: 18
000020t:  Note on ::  Channel 9.  Note 44.  Velocity 0
000004t:  Control change ::  Channel 9.  Controller 7.  Value: 17
000024t:  Control change ::  Channel 9.  Controller 7.  Value: 16
000004t:  Note on ::  Channel 9.  Note 44.  Velocity 110
000021t:  Control change ::  Channel 9.  Controller 7.  Value: 15
000024t:  Control change ::  Channel 9.  Controller 7.  Value: 14
000024t:  Control change ::  Channel 9.  Controller 7.  Value: 13
000024t:  Control change ::  Channel 9.  Controller 7.  Value: 12
000024t:  Control change ::  Channel 9.  Controller 7.  Value: 11
000025t:  Control change ::  Channel 9.  Controller 7.  Value: 10
000018t:  Note on ::  Channel 9.  Note 44.  Velocity 0
000006t:  Control change ::  Channel 9.  Controller 7.  Value: 9
000024t:  Control change ::  Channel 9.  Controller 7.  Value: 8
000002t:  Note on ::  Channel 9.  Note 44.  Velocity 110
000022t:  Control change ::  Channel 9.  Controller 7.  Value: 7
000024t:  Control change ::  Channel 9.  Controller 7.  Value: 6
000025t:  Control change ::  Channel 9.  Controller 7.  Value: 5
000024t:  Control change ::  Channel 9.  Controller 7.  Value: 4
000024t:  Control change ::  Channel 9.  Controller 7.  Value: 3
000024t:  Control change ::  Channel 9.  Controller 7.  Value: 2
000017t:  Note on ::  Channel 9.  Note 44.  Velocity 0
000007t:  Control change ::  Channel 9.  Controller 7.  Value: 1
000025t:  Control change ::  Channel 9.  Controller 7.  Value: 0
000000t:  Meta-event type $2f (End-track event) of length 0
Sigma t = 87264

Track chunk of 5367 bytes
000000t:  Meta-event type $21 (?) of length 1
	  _
000000t:  Meta-event type $03 (Track name) of length 4
	  .com
000000t:  Program (patch) change ::  Channel 10.  Patch 48 (String Ensemble 1)
000000t:  Control change ::  Channel 10.  Controller 7.  Value: 127
000000t:  Control change ::  Channel 10.  Controller 10.  Value: 64
001824t:  Note on ::  Channel 10.  Note 81.  Velocity 110
000000t:  Note on ::  Channel 10.  Note 88.  Velocity 110
000094t:  Note on ::  Channel 10.  Note 81.  Velocity 0
000000t:  Note on ::  Channel 10.  Note 88.  Velocity 0
000098t:  Note on ::  Channel 10.  Note 81.  Velocity 110
000000t:  Note on ::  Channel 10.  Note 88.  Velocity 110
000094t:  Note on ::  Channel 10.  Note 81.  Velocity 0
000000t:  Note on ::  Channel 10.  Note 88.  Velocity 0
000098t:  Note on ::  Channel 10.  Note 81.  Velocity 110
000000t:  Note on ::  Channel 10.  Note 88.  Velocity 110
000094t:  Note on ::  Channel 10.  Note 81.  Velocity 0
000000t:  Note on ::  Channel 10.  Note 88.  Velocity 0
000098t:  Note on ::  Channel 10.  Note 81.  Velocity 110
000000t:  Note on ::  Channel 10.  Note 88.  Velocity 110
000094t:  Note on ::  Channel 10.  Note 81.  Velocity 0
000000t:  Note on ::  Channel 10.  Note 88.  Velocity 0
000098t:  Note on ::  Channel 10.  Note 81.  Velocity 110
000000t:  Note on ::  Channel 10.  Note 88.  Velocity 110
000094t:  Note on ::  Channel 10.  Note 81.  Velocity 0
000000t:  Note on ::  Channel 10.  Note 88.  Velocity 0
000098t:  Note on ::  Channel 10.  Note 81.  Velocity 110
000000t:  Note on ::  Channel 10.  Note 88.  Velocity 110
000094t:  Note on ::  Channel 10.  Note 81.  Velocity 0
000000t:  Note on ::  Channel 10.  Note 88.  Velocity 0
000098t:  Note on ::  Channel 10.  Note 81.  Velocity 110
000000t:  Note on ::  Channel 10.  Note 88.  Velocity 110
000094t:  Note on ::  Channel 10.  Note 81.  Velocity 0
000000t:  Note on ::  Channel 10.  Note 88.  Velocity 0
000098t:  Note on ::  Channel 10.  Note 81.  Velocity 110
000000t:  Note on ::  Channel 10.  Note 88.  Velocity 110
000094t:  Note on ::  Channel 10.  Note 81.  Velocity 0
000000t:  Note on ::  Channel 10.  Note 88.  Velocity 0
000098t:  Note on ::  Channel 10.  Note 81.  Velocity 110
000000t:  Note on ::  Channel 10.  Note 88.  Velocity 110
000094t:  Note on ::  Channel 10.  Note 81.  Velocity 0
000000t:  Note on ::  Channel 10.  Note 88.  Velocity 0
000098t:  Note on ::  Channel 10.  Note 81.  Velocity 110
000000t:  Note on ::  Channel 10.  Note 88.  Velocity 110
000094t:  Note on ::  Channel 10.  Note 81.  Velocity 0
000000t:  Note on ::  Channel 10.  Note 88.  Velocity 0
000098t:  Note on ::  Channel 10.  Note 81.  Velocity 110
000000t:  Note on ::  Channel 10.  Note 88.  Velocity 110
000094t:  Note on ::  Channel 10.  Note 81.  Velocity 0
000000t:  Note on ::  Channel 10.  Note 88.  Velocity 0
000098t:  Note on ::  Channel 10.  Note 81.  Velocity 110
000000t:  Note on ::  Channel 10.  Note 88.  Velocity 110
000094t:  Note on ::  Channel 10.  Note 81.  Velocity 0
000000t:  Note on ::  Channel 10.  Note 88.  Velocity 0
000098t:  Note on ::  Channel 10.  Note 81.  Velocity 110
000000t:  Note on ::  Channel 10.  Note 88.  Velocity 110
000094t:  Note on ::  Channel 10.  Note 81.  Velocity 0
000000t:  Note on ::  Channel 10.  Note 88.  Velocity 0
000098t:  Note on ::  Channel 10.  Note 81.  Velocity 110
000000t:  Note on ::  Channel 10.  Note 88.  Velocity 110
000094t:  Note on ::  Channel 10.  Note 81.  Velocity 0
000000t:  Note on ::  Channel 10.  Note 88.  Velocity 0
000098t:  Note on ::  Channel 10.  Note 81.  Velocity 110
000000t:  Note on ::  Channel 10.  Note 88.  Velocity 110
000094t:  Note on ::  Channel 10.  Note 81.  Velocity 0
000000t:  Note on ::  Channel 10.  Note 88.  Velocity 0
000098t:  Note on ::  Channel 10.  Note 81.  Velocity 110
000000t:  Note on ::  Channel 10.  Note 88.  Velocity 110
000094t:  Note on ::  Channel 10.  Note 81.  Velocity 0
000000t:  Note on ::  Channel 10.  Note 88.  Velocity 0
002978t:  Note on ::  Channel 10.  Note 81.  Velocity 110
000000t:  Note on ::  Channel 10.  Note 88.  Velocity 110
000094t:  Note on ::  Channel 10.  Note 81.  Velocity 0
000000t:  Note on ::  Channel 10.  Note 88.  Velocity 0
000098t:  Note on ::  Channel 10.  Note 81.  Velocity 110
000000t:  Note on ::  Channel 10.  Note 88.  Velocity 110
000094t:  Note on ::  Channel 10.  Note 81.  Velocity 0
000000t:  Note on ::  Channel 10.  Note 88.  Velocity 0
000098t:  Note on ::  Channel 10.  Note 81.  Velocity 110
000000t:  Note on ::  Channel 10.  Note 88.  Velocity 110
000094t:  Note on ::  Channel 10.  Note 81.  Velocity 0
000000t:  Note on ::  Channel 10.  Note 88.  Velocity 0
000098t:  Note on ::  Channel 10.  Note 81.  Velocity 110
000000t:  Note on ::  Channel 10.  Note 88.  Velocity 110
000094t:  Note on ::  Channel 10.  Note 81.  Velocity 0
000000t:  Note on ::  Channel 10.  Note 88.  Velocity 0
000098t:  Note on ::  Channel 10.  Note 81.  Velocity 110
000000t:  Note on ::  Channel 10.  Note 88.  Velocity 110
000094t:  Note on ::  Channel 10.  Note 81.  Velocity 0
000000t:  Note on ::  Channel 10.  Note 88.  Velocity 0
000098t:  Note on ::  Channel 10.  Note 81.  Velocity 110
000000t:  Note on ::  Channel 10.  Note 88.  Velocity 110
000094t:  Note on ::  Channel 10.  Note 81.  Velocity 0
000000t:  Note on ::  Channel 10.  Note 88.  Velocity 0
000098t:  Note on ::  Channel 10.  Note 81.  Velocity 110
000000t:  Note on ::  Channel 10.  Note 88.  Velocity 110
000094t:  Note on ::  Channel 10.  Note 81.  Velocity 0
000000t:  Note on ::  Channel 10.  Note 88.  Velocity 0
000098t:  Note on ::  Channel 10.  Note 81.  Velocity 110
000000t:  Note on ::  Channel 10.  Note 88.  Velocity 110
000094t:  Note on ::  Channel 10.  Note 81.  Velocity 0
000000t:  Note on ::  Channel 10.  Note 88.  Velocity 0
000098t:  Note on ::  Channel 10.  Note 81.  Velocity 110
000000t:  Note on ::  Channel 10.  Note 88.  Velocity 110
000094t:  Note on ::  Channel 10.  Note 81.  Velocity 0
000000t:  Note on ::  Channel 10.  Note 88.  Velocity 0
000098t:  Note on ::  Channel 10.  Note 81.  Velocity 110
000000t:  Note on ::  Channel 10.  Note 88.  Velocity 110
000094t:  Note on ::  Channel 10.  Note 81.  Velocity 0
000000t:  Note on ::  Channel 10.  Note 88.  Velocity 0
000098t:  Note on ::  Channel 10.  Note 81.  Velocity 110
000000t:  Note on ::  Channel 10.  Note 88.  Velocity 110
000094t:  Note on ::  Channel 10.  Note 81.  Velocity 0
000000t:  Note on ::  Channel 10.  Note 88.  Velocity 0
000098t:  Note on ::  Channel 10.  Note 81.  Velocity 110
000000t:  Note on ::  Channel 10.  Note 88.  Velocity 110
000094t:  Note on ::  Channel 10.  Note 81.  Velocity 0
000000t:  Note on ::  Channel 10.  Note 88.  Velocity 0
000098t:  Note on ::  Channel 10.  Note 81.  Velocity 110
000000t:  Note on ::  Channel 10.  Note 88.  Velocity 110
000094t:  Note on ::  Channel 10.  Note 81.  Velocity 0
000000t:  Note on ::  Channel 10.  Note 88.  Velocity 0
000098t:  Note on ::  Channel 10.  Note 81.  Velocity 110
000000t:  Note on ::  Channel 10.  Note 88.  Velocity 110
000094t:  Note on ::  Channel 10.  Note 81.  Velocity 0
000000t:  Note on ::  Channel 10.  Note 88.  Velocity 0
000098t:  Note on ::  Channel 10.  Note 81.  Velocity 110
000000t:  Note on ::  Channel 10.  Note 88.  Velocity 110
000094t:  Note on ::  Channel 10.  Note 81.  Velocity 0
000000t:  Note on ::  Channel 10.  Note 88.  Velocity 0
000098t:  Note on ::  Channel 10.  Note 81.  Velocity 110
000000t:  Note on ::  Channel 10.  Note 88.  Velocity 110
000094t:  Note on ::  Channel 10.  Note 81.  Velocity 0
000000t:  Note on ::  Channel 10.  Note 88.  Velocity 0
006338t:  Note on ::  Channel 10.  Note 81.  Velocity 110
000000t:  Note on ::  Channel 10.  Note 88.  Velocity 110
000094t:  Note on ::  Channel 10.  Note 81.  Velocity 0
000000t:  Note on ::  Channel 10.  Note 88.  Velocity 0
000002t:  Note on ::  Channel 10.  Note 76.  Velocity 110
000000t:  Note on ::  Channel 10.  Note 84.  Velocity 110
000094t:  Note on ::  Channel 10.  Note 76.  Velocity 0
000000t:  Note on ::  Channel 10.  Note 84.  Velocity 0
000098t:  Note on ::  Channel 10.  Note 84.  Velocity 110
000000t:  Note on ::  Channel 10.  Note 90.  Velocity 110
000094t:  Note on ::  Channel 10.  Note 84.  Velocity 0
000000t:  Note on ::  Channel 10.  Note 90.  Velocity 0
000002t:  Note on ::  Channel 10.  Note 76.  Velocity 110
000000t:  Note on ::  Channel 10.  Note 84.  Velocity 110
000094t:  Note on ::  Channel 10.  Note 76.  Velocity 0
000000t:  Note on ::  Channel 10.  Note 84.  Velocity 0
000098t:  Note on ::  Channel 10.  Note 84.  Velocity 110
000000t:  Note on ::  Channel 10.  Note 90.  Velocity 110
000094t:  Note on ::  Channel 10.  Note 84.  Velocity 0
000000t:  Note on ::  Channel 10.  Note 90.  Velocity 0
000098t:  Note on ::  Channel 10.  Note 84.  Velocity 110
000000t:  Note on ::  Channel 10.  Note 91.  Velocity 110
000094t:  Note on ::  Channel 10.  Note 84.  Velocity 0
000000t:  Note on ::  Channel 10.  Note 91.  Velocity 0
000002t:  Note on ::  Channel 10.  Note 76.  Velocity 110
000000t:  Note on ::  Channel 10.  Note 84.  Velocity 110
000094t:  Note on ::  Channel 10.  Note 76.  Velocity 0
000000t:  Note on ::  Channel 10.  Note 84.  Velocity 0
000098t:  Note on ::  Channel 10.  Note 84.  Velocity 110
000000t:  Note on ::  Channel 10.  Note 90.  Velocity 110
000094t:  Note on ::  Channel 10.  Note 84.  Velocity 0
000000t:  Note on ::  Channel 10.  Note 90.  Velocity 0
000002t:  Note on ::  Channel 10.  Note 76.  Velocity 110
000000t:  Note on ::  Channel 10.  Note 84.  Velocity 110
000094t:  Note on ::  Channel 10.  Note 76.  Velocity 0
000000t:  Note on ::  Channel 10.  Note 84.  Velocity 0
000098t:  Note on ::  Channel 10.  Note 84.  Velocity 110
000000t:  Note on ::  Channel 10.  Note 90.  Velocity 110
000094t:  Note on ::  Channel 10.  Note 84.  Velocity 0
000000t:  Note on ::  Channel 10.  Note 90.  Velocity 0
000098t:  Note on ::  Channel 10.  Note 81.  Velocity 110
000000t:  Note on ::  Channel 10.  Note 88.  Velocity 110
000094t:  Note on ::  Channel 10.  Note 81.  Velocity 0
000000t:  Note on ::  Channel 10.  Note 88.  Velocity 0
000002t:  Note on ::  Channel 10.  Note 76.  Velocity 110
000000t:  Note on ::  Channel 10.  Note 84.  Velocity 110
000094t:  Note on ::  Channel 10.  Note 76.  Velocity 0
000000t:  Note on ::  Channel 10.  Note 84.  Velocity 0
000098t:  Note on ::  Channel 10.  Note 84.  Velocity 110
000000t:  Note on ::  Channel 10.  Note 90.  Velocity 110
000094t:  Note on ::  Channel 10.  Note 84.  Velocity 0
000000t:  Note on ::  Channel 10.  Note 90.  Velocity 0
000002t:  Note on ::  Channel 10.  Note 76.  Velocity 110
000000t:  Note on ::  Channel 10.  Note 84.  Velocity 110
000094t:  Note on ::  Channel 10.  Note 76.  Velocity 0
000000t:  Note on ::  Channel 10.  Note 84.  Velocity 0
000098t:  Note on ::  Channel 10.  Note 84.  Velocity 110
000000t:  Note on ::  Channel 10.  Note 90.  Velocity 110
000094t:  Note on ::  Channel 10.  Note 84.  Velocity 0
000000t:  Note on ::  Channel 10.  Note 90.  Velocity 0
000098t:  Note on ::  Channel 10.  Note 84.  Velocity 110
000000t:  Note on ::  Channel 10.  Note 91.  Velocity 110
000094t:  Note on ::  Channel 10.  Note 84.  Velocity 0
000000t:  Note on ::  Channel 10.  Note 91.  Velocity 0
000002t:  Note on ::  Channel 10.  Note 76.  Velocity 110
000000t:  Note on ::  Channel 10.  Note 84.  Velocity 110
000094t:  Note on ::  Channel 10.  Note 76.  Velocity 0
000000t:  Note on ::  Channel 10.  Note 84.  Velocity 0
000098t:  Note on ::  Channel 10.  Note 84.  Velocity 110
000000t:  Note on ::  Channel 10.  Note 90.  Velocity 110
000094t:  Note on ::  Channel 10.  Note 84.  Velocity 0
000000t:  Note on ::  Channel 10.  Note 90.  Velocity 0
000002t:  Note on ::  Channel 10.  Note 76.  Velocity 110
000000t:  Note on ::  Channel 10.  Note 84.  Velocity 110
000094t:  Note on ::  Channel 10.  Note 76.  Velocity 0
000000t:  Note on ::  Channel 10.  Note 84.  Velocity 0
000098t:  Note on ::  Channel 10.  Note 84.  Velocity 110
000000t:  Note on ::  Channel 10.  Note 90.  Velocity 110
000094t:  Note on ::  Channel 10.  Note 84.  Velocity 0
000000t:  Note on ::  Channel 10.  Note 90.  Velocity 0
000098t:  Note on ::  Channel 10.  Note 84.  Velocity 110
000000t:  Note on ::  Channel 10.  Note 89.  Velocity 110
000094t:  Note on ::  Channel 10.  Note 84.  Velocity 0
000000t:  Note on ::  Channel 10.  Note 89.  Velocity 0
000002t:  Note on ::  Channel 10.  Note 77.  Velocity 110
000000t:  Note on ::  Channel 10.  Note 84.  Velocity 110
000094t:  Note on ::  Channel 10.  Note 77.  Velocity 0
000000t:  Note on ::  Channel 10.  Note 84.  Velocity 0
000098t:  Note on ::  Channel 10.  Note 86.  Velocity 110
000000t:  Note on ::  Channel 10.  Note 91.  Velocity 110
000094t:  Note on ::  Channel 10.  Note 86.  Velocity 0
000000t:  Note on ::  Channel 10.  Note 91.  Velocity 0
000002t:  Note on ::  Channel 10.  Note 77.  Velocity 110
000000t:  Note on ::  Channel 10.  Note 84.  Velocity 110
000094t:  Note on ::  Channel 10.  Note 77.  Velocity 0
000000t:  Note on ::  Channel 10.  Note 84.  Velocity 0
000098t:  Note on ::  Channel 10.  Note 89.  Velocity 110
000000t:  Note on ::  Channel 10.  Note 93.  Velocity 110
000094t:  Note on ::  Channel 10.  Note 89.  Velocity 0
000000t:  Note on ::  Channel 10.  Note 93.  Velocity 0
000098t:  Note on ::  Channel 10.  Note 91.  Velocity 110
000094t:  Note on ::  Channel 10.  Note 91.  Velocity 0
000002t:  Note on ::  Channel 10.  Note 86.  Velocity 110
000094t:  Note on ::  Channel 10.  Note 86.  Velocity 0
000002t:  Note on ::  Channel 10.  Note 83.  Velocity 110
000094t:  Note on ::  Channel 10.  Note 83.  Velocity 0
000002t:  Note on ::  Channel 10.  Note 89.  Velocity 110
000094t:  Note on ::  Channel 10.  Note 89.  Velocity 0
000002t:  Note on ::  Channel 10.  Note 86.  Velocity 110
000094t:  Note on ::  Channel 10.  Note 86.  Velocity 0
000002t:  Note on ::  Channel 10.  Note 83.  Velocity 110
000094t:  Note on ::  Channel 10.  Note 83.  Velocity 0
000002t:  Note on ::  Channel 10.  Note 89.  Velocity 110
000094t:  Note on ::  Channel 10.  Note 89.  Velocity 0
000098t:  Note on ::  Channel 10.  Note 81.  Velocity 110
000094t:  Note on ::  Channel 10.  Note 81.  Velocity 0
000002t:  Note on ::  Channel 10.  Note 80.  Velocity 110
000094t:  Note on ::  Channel 10.  Note 80.  Velocity 0
000002t:  Note on ::  Channel 10.  Note 81.  Velocity 110
000094t:  Note on ::  Channel 10.  Note 81.  Velocity 0
000002t:  Note on ::  Channel 10.  Note 84.  Velocity 110
000094t:  Note on ::  Channel 10.  Note 84.  Velocity 0
000002t:  Note on ::  Channel 10.  Note 83.  Velocity 110
000094t:  Note on ::  Channel 10.  Note 83.  Velocity 0
000002t:  Note on ::  Channel 10.  Note 84.  Velocity 110
000094t:  Note on ::  Channel 10.  Note 84.  Velocity 0
000002t:  Note on ::  Channel 10.  Note 88.  Velocity 110
000094t:  Note on ::  Channel 10.  Note 88.  Velocity 0
000002t:  Note on ::  Channel 10.  Note 87.  Velocity 110
000094t:  Note on ::  Channel 10.  Note 87.  Velocity 0
000002t:  Note on ::  Channel 10.  Note 88.  Velocity 110
000094t:  Note on ::  Channel 10.  Note 88.  Velocity 0
000002t:  Note on ::  Channel 10.  Note 88.  Velocity 110
000000t:  Note on ::  Channel 10.  Note 93.  Velocity 110
000094t:  Note on ::  Channel 10.  Note 88.  Velocity 0
000000t:  Note on ::  Channel 10.  Note 93.  Velocity 0
000002t:  Note on ::  Channel 10.  Note 87.  Velocity 110
000000t:  Note on ::  Channel 10.  Note 92.  Velocity 110
000094t:  Note on ::  Channel 10.  Note 87.  Velocity 0
000000t:  Note on ::  Channel 10.  Note 92.  Velocity 0
000002t:  Note on ::  Channel 10.  Note 88.  Velocity 110
000000t:  Note on ::  Channel 10.  Note 93.  Velocity 110
000094t:  Note on ::  Channel 10.  Note 88.  Velocity 0
000000t:  Note on ::  Channel 10.  Note 93.  Velocity 0
000002t:  Note on ::  Channel 10.  Note 93.  Velocity 110
000000t:  Note on ::  Channel 10.  Note 96.  Velocity 110
000094t:  Note on ::  Channel 10.  Note 93.  Velocity 0
000000t:  Note on ::  Channel 10.  Note 96.  Velocity 0
006434t:  Note on ::  Channel 10.  Note 72.  Velocity 110
000000t:  Note on ::  Channel 10.  Note 76.  Velocity 110
000094t:  Note on ::  Channel 10.  Note 72.  Velocity 0
000000t:  Note on ::  Channel 10.  Note 76.  Velocity 0
000002t:  Note on ::  Channel 10.  Note 76.  Velocity 110
000000t:  Note on ::  Channel 10.  Note 81.  Velocity 110
000094t:  Note on ::  Channel 10.  Note 76.  Velocity 0
000000t:  Note on ::  Channel 10.  Note 81.  Velocity 0
000002t:  Note on ::  Channel 10.  Note 81.  Velocity 110
000000t:  Note on ::  Channel 10.  Note 84.  Velocity 110
000094t:  Note on ::  Channel 10.  Note 81.  Velocity 0
000000t:  Note on ::  Channel 10.  Note 84.  Velocity 0
000002t:  Note on ::  Channel 10.  Note 72.  Velocity 110
000000t:  Note on ::  Channel 10.  Note 76.  Velocity 110
000094t:  Note on ::  Channel 10.  Note 72.  Velocity 0
000000t:  Note on ::  Channel 10.  Note 76.  Velocity 0
000002t:  Note on ::  Channel 10.  Note 76.  Velocity 110
000000t:  Note on ::  Channel 10.  Note 81.  Velocity 110
000094t:  Note on ::  Channel 10.  Note 76.  Velocity 0
000000t:  Note on ::  Channel 10.  Note 81.  Velocity 0
000002t:  Note on ::  Channel 10.  Note 84.  Velocity 110
000000t:  Note on ::  Channel 10.  Note 88.  Velocity 110
000094t:  Note on ::  Channel 10.  Note 84.  Velocity 0
000000t:  Note on ::  Channel 10.  Note 88.  Velocity 0
000002t:  Note on ::  Channel 10.  Note 81.  Velocity 110
000000t:  Note on ::  Channel 10.  Note 84.  Velocity 110
000094t:  Note on ::  Channel 10.  Note 81.  Velocity 0
000000t:  Note on ::  Channel 10.  Note 84.  Velocity 0
000002t:  Note on ::  Channel 10.  Note 86.  Velocity 110
000000t:  Note on ::  Channel 10.  Note 89.  Velocity 110
000094t:  Note on ::  Channel 10.  Note 86.  Velocity 0
000000t:  Note on ::  Channel 10.  Note 89.  Velocity 0
000002t:  Note on ::  Channel 10.  Note 74.  Velocity 110
000094t:  Note on ::  Channel 10.  Note 74.  Velocity 0
000002t:  Note on ::  Channel 10.  Note 77.  Velocity 110
000000t:  Note on ::  Channel 10.  Note 81.  Velocity 110
000094t:  Note on ::  Channel 10.  Note 77.  Velocity 0
000000t:  Note on ::  Channel 10.  Note 81.  Velocity 0
000002t:  Note on ::  Channel 10.  Note 86.  Velocity 110
000094t:  Note on ::  Channel 10.  Note 86.  Velocity 0
000002t:  Note on ::  Channel 10.  Note 74.  Velocity 110
000094t:  Note on ::  Channel 10.  Note 74.  Velocity 0
000002t:  Note on ::  Channel 10.  Note 77.  Velocity 110
000000t:  Note on ::  Channel 10.  Note 81.  Velocity 110
000094t:  Note on ::  Channel 10.  Note 77.  Velocity 0
000000t:  Note on ::  Channel 10.  Note 81.  Velocity 0
000002t:  Note on ::  Channel 10.  Note 86.  Velocity 110
000000t:  Note on ::  Channel 10.  Note 89.  Velocity 110
000094t:  Note on ::  Channel 10.  Note 86.  Velocity 0
000000t:  Note on ::  Channel 10.  Note 89.  Velocity 0
000002t:  Note on ::  Channel 10.  Note 81.  Velocity 110
000000t:  Note on ::  Channel 10.  Note 86.  Velocity 110
000094t:  Note on ::  Channel 10.  Note 81.  Velocity 0
000000t:  Note on ::  Channel 10.  Note 86.  Velocity 0
000002t:  Note on ::  Channel 10.  Note 83.  Velocity 110
000000t:  Note on ::  Channel 10.  Note 86.  Velocity 110
000094t:  Note on ::  Channel 10.  Note 83.  Velocity 0
000000t:  Note on ::  Channel 10.  Note 86.  Velocity 0
000002t:  Note on ::  Channel 10.  Note 74.  Velocity 110
000094t:  Note on ::  Channel 10.  Note 74.  Velocity 0
000002t:  Note on ::  Channel 10.  Note 79.  Velocity 110
000000t:  Note on ::  Channel 10.  Note 83.  Velocity 110
000094t:  Note on ::  Channel 10.  Note 79.  Velocity 0
000000t:  Note on ::  Channel 10.  Note 83.  Velocity 0
000002t:  Note on ::  Channel 10.  Note 83.  Velocity 110
000000t:  Note on ::  Channel 10.  Note 86.  Velocity 110
000094t:  Note on ::  Channel 10.  Note 83.  Velocity 0
000000t:  Note on ::  Channel 10.  Note 86.  Velocity 0
000002t:  Note on ::  Channel 10.  Note 79.  Velocity 110
000000t:  Note on ::  Channel 10.  Note 83.  Velocity 110
000094t:  Note on ::  Channel 10.  Note 79.  Velocity 0
000000t:  Note on ::  Channel 10.  Note 83.  Velocity 0
000002t:  Note on ::  Channel 10.  Note 83.  Velocity 110
000000t:  Note on ::  Channel 10.  Note 86.  Velocity 110
000094t:  Note on ::  Channel 10.  Note 83.  Velocity 0
000000t:  Note on ::  Channel 10.  Note 86.  Velocity 0
000002t:  Note on ::  Channel 10.  Note 86.  Velocity 110
000000t:  Note on ::  Channel 10.  Note 89.  Velocity 110
000094t:  Note on ::  Channel 10.  Note 86.  Velocity 0
000000t:  Note on ::  Channel 10.  Note 89.  Velocity 0
000002t:  Note on ::  Channel 10.  Note 83.  Velocity 110
000000t:  Note on ::  Channel 10.  Note 86.  Velocity 110
000094t:  Note on ::  Channel 10.  Note 83.  Velocity 0
000000t:  Note on ::  Channel 10.  Note 86.  Velocity 0
000002t:  Note on ::  Channel 10.  Note 84.  Velocity 110
000000t:  Note on ::  Channel 10.  Note 88.  Velocity 110
000094t:  Note on ::  Channel 10.  Note 84.  Velocity 0
000000t:  Note on ::  Channel 10.  Note 88.  Velocity 0
000002t:  Note on ::  Channel 10.  Note 76.  Velocity 110
000094t:  Note on ::  Channel 10.  Note 76.  Velocity 0
000002t:  Note on ::  Channel 10.  Note 76.  Velocity 110
000000t:  Note on ::  Channel 10.  Note 79.  Velocity 110
000094t:  Note on ::  Channel 10.  Note 76.  Velocity 0
000000t:  Note on ::  Channel 10.  Note 79.  Velocity 0
000002t:  Note on ::  Channel 10.  Note 79.  Velocity 110
000000t:  Note on ::  Channel 10.  Note 84.  Velocity 110
000094t:  Note on ::  Channel 10.  Note 79.  Velocity 0
000000t:  Note on ::  Channel 10.  Note 84.  Velocity 0
000002t:  Note on ::  Channel 10.  Note 76.  Velocity 110
000000t:  Note on ::  Channel 10.  Note 79.  Velocity 110
000094t:  Note on ::  Channel 10.  Note 76.  Velocity 0
000000t:  Note on ::  Channel 10.  Note 79.  Velocity 0
000002t:  Note on ::  Channel 10.  Note 79.  Velocity 110
000000t:  Note on ::  Channel 10.  Note 84.  Velocity 110
000094t:  Note on ::  Channel 10.  Note 79.  Velocity 0
000000t:  Note on ::  Channel 10.  Note 84.  Velocity 0
000002t:  Note on ::  Channel 10.  Note 84.  Velocity 110
000000t:  Note on ::  Channel 10.  Note 88.  Velocity 110
000094t:  Note on ::  Channel 10.  Note 84.  Velocity 0
000000t:  Note on ::  Channel 10.  Note 88.  Velocity 0
000002t:  Note on ::  Channel 10.  Note 79.  Velocity 110
000000t:  Note on ::  Channel 10.  Note 84.  Velocity 110
000094t:  Note on ::  Channel 10.  Note 79.  Velocity 0
000000t:  Note on ::  Channel 10.  Note 84.  Velocity 0
000002t:  Note on ::  Channel 10.  Note 84.  Velocity 110
000000t:  Note on ::  Channel 10.  Note 88.  Velocity 110
000094t:  Note on ::  Channel 10.  Note 84.  Velocity 0
000000t:  Note on ::  Channel 10.  Note 88.  Velocity 0
000002t:  Note on ::  Channel 10.  Note 76.  Velocity 110
000000t:  Note on ::  Channel 10.  Note 81.  Velocity 110
000094t:  Note on ::  Channel 10.  Note 76.  Velocity 0
000000t:  Note on ::  Channel 10.  Note 81.  Velocity 0
000002t:  Note on ::  Channel 10.  Note 81.  Velocity 110
000000t:  Note on ::  Channel 10.  Note 84.  Velocity 110
000094t:  Note on ::  Channel 10.  Note 81.  Velocity 0
000000t:  Note on ::  Channel 10.  Note 84.  Velocity 0
000002t:  Note on ::  Channel 10.  Note 84.  Velocity 110
000000t:  Note on ::  Channel 10.  Note 88.  Velocity 110
000094t:  Note on ::  Channel 10.  Note 84.  Velocity 0
000000t:  Note on ::  Channel 10.  Note 88.  Velocity 0
000002t:  Note on ::  Channel 10.  Note 76.  Velocity 110
000000t:  Note on ::  Channel 10.  Note 81.  Velocity 110
000094t:  Note on ::  Channel 10.  Note 76.  Velocity 0
000000t:  Note on ::  Channel 10.  Note 81.  Velocity 0
000002t:  Note on ::  Channel 10.  Note 81.  Velocity 110
000000t:  Note on ::  Channel 10.  Note 84.  Velocity 110
000094t:  Note on ::  Channel 10.  Note 81.  Velocity 0
000000t:  Note on ::  Channel 10.  Note 84.  Velocity 0
000002t:  Note on ::  Channel 10.  Note 84.  Velocity 110
000000t:  Note on ::  Channel 10.  Note 88.  Velocity 110
000094t:  Note on ::  Channel 10.  Note 84.  Velocity 0
000000t:  Note on ::  Channel 10.  Note 88.  Velocity 0
000002t:  Note on ::  Channel 10.  Note 81.  Velocity 110
000000t:  Note on ::  Channel 10.  Note 84.  Velocity 110
000094t:  Note on ::  Channel 10.  Note 81.  Velocity 0
000000t:  Note on ::  Channel 10.  Note 84.  Velocity 0
000002t:  Note on ::  Channel 10.  Note 86.  Velocity 110
000000t:  Note on ::  Channel 10.  Note 90.  Velocity 110
000094t:  Note on ::  Channel 10.  Note 86.  Velocity 0
000000t:  Note on ::  Channel 10.  Note 90.  Velocity 0
000002t:  Note on ::  Channel 10.  Note 78.  Velocity 110
000000t:  Note on ::  Channel 10.  Note 81.  Velocity 110
000094t:  Note on ::  Channel 10.  Note 78.  Velocity 0
000000t:  Note on ::  Channel 10.  Note 81.  Velocity 0
000002t:  Note on ::  Channel 10.  Note 81.  Velocity 110
000000t:  Note on ::  Channel 10.  Note 86.  Velocity 110
000094t:  Note on ::  Channel 10.  Note 81.  Velocity 0
000000t:  Note on ::  Channel 10.  Note 86.  Velocity 0
000002t:  Note on ::  Channel 10.  Note 86.  Velocity 110
000000t:  Note on ::  Channel 10.  Note 90.  Velocity 110
000094t:  Note on ::  Channel 10.  Note 86.  Velocity 0
000000t:  Note on ::  Channel 10.  Note 90.  Velocity 0
000002t:  Note on ::  Channel 10.  Note 78.  Velocity 110
000000t:  Note on ::  Channel 10.  Note 81.  Velocity 110
000094t:  Note on ::  Channel 10.  Note 78.  Velocity 0
000000t:  Note on ::  Channel 10.  Note 81.  Velocity 0
000002t:  Note on ::  Channel 10.  Note 81.  Velocity 110
000000t:  Note on ::  Channel 10.  Note 86.  Velocity 110
000094t:  Note on ::  Channel 10.  Note 81.  Velocity 0
000000t:  Note on ::  Channel 10.  Note 86.  Velocity 0
000002t:  Note on ::  Channel 10.  Note 86.  Velocity 110
000000t:  Note on ::  Channel 10.  Note 90.  Velocity 110
000094t:  Note on ::  Channel 10.  Note 86.  Velocity 0
000000t:  Note on ::  Channel 10.  Note 90.  Velocity 0
000002t:  Note on ::  Channel 10.  Note 81.  Velocity 110
000000t:  Note on ::  Channel 10.  Note 86.  Velocity 110
000094t:  Note on ::  Channel 10.  Note 81.  Velocity 0
000000t:  Note on ::  Channel 10.  Note 86.  Velocity 0
000002t:  Note on ::  Channel 10.  Note 83.  Velocity 110
000000t:  Note on ::  Channel 10.  Note 86.  Velocity 110
000094t:  Note on ::  Channel 10.  Note 83.  Velocity 0
000000t:  Note on ::  Channel 10.  Note 86.  Velocity 0
000002t:  Note on ::  Channel 10.  Note 74.  Velocity 110
000094t:  Note on ::  Channel 10.  Note 74.  Velocity 0
000002t:  Note on ::  Channel 10.  Note 79.  Velocity 110
000094t:  Note on ::  Channel 10.  Note 79.  Velocity 0
000002t:  Note on ::  Channel 10.  Note 83.  Velocity 110
000000t:  Note on ::  Channel 10.  Note 86.  Velocity 110
000094t:  Note on ::  Channel 10.  Note 83.  Velocity 0
000000t:  Note on ::  Channel 10.  Note 86.  Velocity 0
000002t:  Note on ::  Channel 10.  Note 74.  Velocity 110
000094t:  Note on ::  Channel 10.  Note 74.  Velocity 0
000002t:  Note on ::  Channel 10.  Note 79.  Velocity 110
000094t:  Note on ::  Channel 10.  Note 79.  Velocity 0
000002t:  Note on ::  Channel 10.  Note 83.  Velocity 110
000000t:  Note on ::  Channel 10.  Note 86.  Velocity 110
000094t:  Note on ::  Channel 10.  Note 83.  Velocity 0
000000t:  Note on ::  Channel 10.  Note 86.  Velocity 0
000002t:  Note on ::  Channel 10.  Note 79.  Velocity 110
000094t:  Note on ::  Channel 10.  Note 79.  Velocity 0
000002t:  Note on ::  Channel 10.  Note 83.  Velocity 110
000000t:  Note on ::  Channel 10.  Note 86.  Velocity 110
000094t:  Note on ::  Channel 10.  Note 83.  Velocity 0
000000t:  Note on ::  Channel 10.  Note 86.  Velocity 0
000002t:  Note on ::  Channel 10.  Note 74.  Velocity 110
000094t:  Note on ::  Channel 10.  Note 74.  Velocity 0
000002t:  Note on ::  Channel 10.  Note 79.  Velocity 110
000094t:  Note on ::  Channel 10.  Note 79.  Velocity 0
000002t:  Note on ::  Channel 10.  Note 83.  Velocity 110
000000t:  Note on ::  Channel 10.  Note 86.  Velocity 110
000094t:  Note on ::  Channel 10.  Note 83.  Velocity 0
000000t:  Note on ::  Channel 10.  Note 86.  Velocity 0
000002t:  Note on ::  Channel 10.  Note 74.  Velocity 110
000094t:  Note on ::  Channel 10.  Note 74.  Velocity 0
000002t:  Note on ::  Channel 10.  Note 79.  Velocity 110
000094t:  Note on ::  Channel 10.  Note 79.  Velocity 0
000002t:  Note on ::  Channel 10.  Note 83.  Velocity 110
000000t:  Note on ::  Channel 10.  Note 86.  Velocity 110
000094t:  Note on ::  Channel 10.  Note 83.  Velocity 0
000000t:  Note on ::  Channel 10.  Note 86.  Velocity 0
000002t:  Note on ::  Channel 10.  Note 79.  Velocity 110
000094t:  Note on ::  Channel 10.  Note 79.  Velocity 0
000002t:  Note on ::  Channel 10.  Note 83.  Velocity 110
000000t:  Note on ::  Channel 10.  Note 86.  Velocity 110
000094t:  Note on ::  Channel 10.  Note 83.  Velocity 0
000000t:  Note on ::  Channel 10.  Note 86.  Velocity 0
000002t:  Note on ::  Channel 10.  Note 74.  Velocity 110
000094t:  Note on ::  Channel 10.  Note 74.  Velocity 0
000002t:  Note on ::  Channel 10.  Note 79.  Velocity 110
000094t:  Note on ::  Channel 10.  Note 79.  Velocity 0
000002t:  Note on ::  Channel 10.  Note 83.  Velocity 110
000000t:  Note on ::  Channel 10.  Note 86.  Velocity 110
000094t:  Note on ::  Channel 10.  Note 83.  Velocity 0
000000t:  Note on ::  Channel 10.  Note 86.  Velocity 0
000002t:  Note on ::  Channel 10.  Note 74.  Velocity 110
000094t:  Note on ::  Channel 10.  Note 74.  Velocity 0
000002t:  Note on ::  Channel 10.  Note 79.  Velocity 110
000094t:  Note on ::  Channel 10.  Note 79.  Velocity 0
000002t:  Note on ::  Channel 10.  Note 83.  Velocity 110
000000t:  Note on ::  Channel 10.  Note 86.  Velocity 110
000094t:  Note on ::  Channel 10.  Note 83.  Velocity 0
000000t:  Note on ::  Channel 10.  Note 86.  Velocity 0
000002t:  Note on ::  Channel 10.  Note 79.  Velocity 110
000094t:  Note on ::  Channel 10.  Note 79.  Velocity 0
000002t:  Note on ::  Channel 10.  Note 83.  Velocity 110
000000t:  Note on ::  Channel 10.  Note 86.  Velocity 110
000094t:  Note on ::  Channel 10.  Note 83.  Velocity 0
000000t:  Note on ::  Channel 10.  Note 86.  Velocity 0
000002t:  Note on ::  Channel 10.  Note 74.  Velocity 110
000094t:  Note on ::  Channel 10.  Note 74.  Velocity 0
000002t:  Note on ::  Channel 10.  Note 79.  Velocity 110
000094t:  Note on ::  Channel 10.  Note 79.  Velocity 0
000002t:  Note on ::  Channel 10.  Note 83.  Velocity 110
000000t:  Note on ::  Channel 10.  Note 86.  Velocity 110
000094t:  Note on ::  Channel 10.  Note 83.  Velocity 0
000000t:  Note on ::  Channel 10.  Note 86.  Velocity 0
000002t:  Note on ::  Channel 10.  Note 74.  Velocity 110
000094t:  Note on ::  Channel 10.  Note 74.  Velocity 0
000002t:  Note on ::  Channel 10.  Note 79.  Velocity 110
000094t:  Note on ::  Channel 10.  Note 79.  Velocity 0
000002t:  Note on ::  Channel 10.  Note 83.  Velocity 110
000000t:  Note on ::  Channel 10.  Note 86.  Velocity 110
000094t:  Note on ::  Channel 10.  Note 83.  Velocity 0
000000t:  Note on ::  Channel 10.  Note 86.  Velocity 0
000002t:  Note on ::  Channel 10.  Note 79.  Velocity 110
000094t:  Note on ::  Channel 10.  Note 79.  Velocity 0
000194t:  Note on ::  Channel 10.  Note 81.  Velocity 110
000000t:  Note on ::  Channel 10.  Note 88.  Velocity 110
000094t:  Note on ::  Channel 10.  Note 81.  Velocity 0
000000t:  Note on ::  Channel 10.  Note 88.  Velocity 0
000098t:  Note on ::  Channel 10.  Note 81.  Velocity 110
000000t:  Note on ::  Channel 10.  Note 88.  Velocity 110
000094t:  Note on ::  Channel 10.  Note 81.  Velocity 0
000000t:  Note on ::  Channel 10.  Note 88.  Velocity 0
000098t:  Note on ::  Channel 10.  Note 81.  Velocity 110
000000t:  Note on ::  Channel 10.  Note 88.  Velocity 110
000094t:  Note on ::  Channel 10.  Note 81.  Velocity 0
000000t:  Note on ::  Channel 10.  Note 88.  Velocity 0
000098t:  Note on ::  Channel 10.  Note 81.  Velocity 110
000000t:  Note on ::  Channel 10.  Note 88.  Velocity 110
000094t:  Note on ::  Channel 10.  Note 81.  Velocity 0
000000t:  Note on ::  Channel 10.  Note 88.  Velocity 0
000098t:  Note on ::  Channel 10.  Note 81.  Velocity 110
000000t:  Note on ::  Channel 10.  Note 88.  Velocity 110
000094t:  Note on ::  Channel 10.  Note 81.  Velocity 0
000000t:  Note on ::  Channel 10.  Note 88.  Velocity 0
000098t:  Note on ::  Channel 10.  Note 81.  Velocity 110
000000t:  Note on ::  Channel 10.  Note 88.  Velocity 110
000094t:  Note on ::  Channel 10.  Note 81.  Velocity 0
000000t:  Note on ::  Channel 10.  Note 88.  Velocity 0
000098t:  Note on ::  Channel 10.  Note 81.  Velocity 110
000000t:  Note on ::  Channel 10.  Note 88.  Velocity 110
000094t:  Note on ::  Channel 10.  Note 81.  Velocity 0
000000t:  Note on ::  Channel 10.  Note 88.  Velocity 0
000098t:  Note on ::  Channel 10.  Note 81.  Velocity 110
000000t:  Note on ::  Channel 10.  Note 88.  Velocity 110
000094t:  Note on ::  Channel 10.  Note 81.  Velocity 0
000000t:  Note on ::  Channel 10.  Note 88.  Velocity 0
000098t:  Note on ::  Channel 10.  Note 81.  Velocity 110
000000t:  Note on ::  Channel 10.  Note 88.  Velocity 110
000094t:  Note on ::  Channel 10.  Note 81.  Velocity 0
000000t:  Note on ::  Channel 10.  Note 88.  Velocity 0
000098t:  Note on ::  Channel 10.  Note 81.  Velocity 110
000000t:  Note on ::  Channel 10.  Note 88.  Velocity 110
000094t:  Note on ::  Channel 10.  Note 81.  Velocity 0
000000t:  Note on ::  Channel 10.  Note 88.  Velocity 0
000098t:  Note on ::  Channel 10.  Note 81.  Velocity 110
000000t:  Note on ::  Channel 10.  Note 88.  Velocity 110
000094t:  Note on ::  Channel 10.  Note 81.  Velocity 0
000000t:  Note on ::  Channel 10.  Note 88.  Velocity 0
000098t:  Note on ::  Channel 10.  Note 81.  Velocity 110
000000t:  Note on ::  Channel 10.  Note 88.  Velocity 110
000094t:  Note on ::  Channel 10.  Note 81.  Velocity 0
000000t:  Note on ::  Channel 10.  Note 88.  Velocity 0
000098t:  Note on ::  Channel 10.  Note 81.  Velocity 110
000000t:  Note on ::  Channel 10.  Note 88.  Velocity 110
000094t:  Note on ::  Channel 10.  Note 81.  Velocity 0
000000t:  Note on ::  Channel 10.  Note 88.  Velocity 0
000098t:  Note on ::  Channel 10.  Note 81.  Velocity 110
000000t:  Note on ::  Channel 10.  Note 88.  Velocity 110
000094t:  Note on ::  Channel 10.  Note 81.  Velocity 0
000000t:  Note on ::  Channel 10.  Note 88.  Velocity 0
000098t:  Note on ::  Channel 10.  Note 81.  Velocity 110
000000t:  Note on ::  Channel 10.  Note 88.  Velocity 110
000094t:  Note on ::  Channel 10.  Note 81.  Velocity 0
000000t:  Note on ::  Channel 10.  Note 88.  Velocity 0
002978t:  Note on ::  Channel 10.  Note 81.  Velocity 110
000000t:  Note on ::  Channel 10.  Note 88.  Velocity 110
000094t:  Note on ::  Channel 10.  Note 81.  Velocity 0
000000t:  Note on ::  Channel 10.  Note 88.  Velocity 0
000098t:  Note on ::  Channel 10.  Note 81.  Velocity 110
000000t:  Note on ::  Channel 10.  Note 88.  Velocity 110
000094t:  Note on ::  Channel 10.  Note 81.  Velocity 0
000000t:  Note on ::  Channel 10.  Note 88.  Velocity 0
000098t:  Note on ::  Channel 10.  Note 81.  Velocity 110
000000t:  Note on ::  Channel 10.  Note 88.  Velocity 110
000094t:  Note on ::  Channel 10.  Note 81.  Velocity 0
000000t:  Note on ::  Channel 10.  Note 88.  Velocity 0
000098t:  Note on ::  Channel 10.  Note 81.  Velocity 110
000000t:  Note on ::  Channel 10.  Note 88.  Velocity 110
000094t:  Note on ::  Channel 10.  Note 81.  Velocity 0
000000t:  Note on ::  Channel 10.  Note 88.  Velocity 0
000098t:  Note on ::  Channel 10.  Note 81.  Velocity 110
000000t:  Note on ::  Channel 10.  Note 88.  Velocity 110
000094t:  Note on ::  Channel 10.  Note 81.  Velocity 0
000000t:  Note on ::  Channel 10.  Note 88.  Velocity 0
000098t:  Note on ::  Channel 10.  Note 81.  Velocity 110
000000t:  Note on ::  Channel 10.  Note 88.  Velocity 110
000094t:  Note on ::  Channel 10.  Note 81.  Velocity 0
000000t:  Note on ::  Channel 10.  Note 88.  Velocity 0
000098t:  Note on ::  Channel 10.  Note 81.  Velocity 110
000000t:  Note on ::  Channel 10.  Note 88.  Velocity 110
000094t:  Note on ::  Channel 10.  Note 81.  Velocity 0
000000t:  Note on ::  Channel 10.  Note 88.  Velocity 0
000098t:  Note on ::  Channel 10.  Note 81.  Velocity 110
000000t:  Note on ::  Channel 10.  Note 88.  Velocity 110
000094t:  Note on ::  Channel 10.  Note 81.  Velocity 0
000000t:  Note on ::  Channel 10.  Note 88.  Velocity 0
000098t:  Note on ::  Channel 10.  Note 81.  Velocity 110
000000t:  Note on ::  Channel 10.  Note 88.  Velocity 110
000094t:  Note on ::  Channel 10.  Note 81.  Velocity 0
000000t:  Note on ::  Channel 10.  Note 88.  Velocity 0
000098t:  Note on ::  Channel 10.  Note 81.  Velocity 110
000000t:  Note on ::  Channel 10.  Note 88.  Velocity 110
000094t:  Note on ::  Channel 10.  Note 81.  Velocity 0
000000t:  Note on ::  Channel 10.  Note 88.  Velocity 0
000098t:  Note on ::  Channel 10.  Note 81.  Velocity 110
000000t:  Note on ::  Channel 10.  Note 88.  Velocity 110
000094t:  Note on ::  Channel 10.  Note 81.  Velocity 0
000000t:  Note on ::  Channel 10.  Note 88.  Velocity 0
000098t:  Note on ::  Channel 10.  Note 81.  Velocity 110
000000t:  Note on ::  Channel 10.  Note 88.  Velocity 110
000094t:  Note on ::  Channel 10.  Note 81.  Velocity 0
000000t:  Note on ::  Channel 10.  Note 88.  Velocity 0
000098t:  Note on ::  Channel 10.  Note 81.  Velocity 110
000000t:  Note on ::  Channel 10.  Note 88.  Velocity 110
000094t:  Note on ::  Channel 10.  Note 81.  Velocity 0
000000t:  Note on ::  Channel 10.  Note 88.  Velocity 0
000098t:  Note on ::  Channel 10.  Note 81.  Velocity 110
000000t:  Note on ::  Channel 10.  Note 88.  Velocity 110
000094t:  Note on ::  Channel 10.  Note 81.  Velocity 0
000000t:  Note on ::  Channel 10.  Note 88.  Velocity 0
000098t:  Note on ::  Channel 10.  Note 81.  Velocity 110
000000t:  Note on ::  Channel 10.  Note 88.  Velocity 110
000094t:  Note on ::  Channel 10.  Note 81.  Velocity 0
000000t:  Note on ::  Channel 10.  Note 88.  Velocity 0
000098t:  Note on ::  Channel 10.  Note 81.  Velocity 110
000000t:  Note on ::  Channel 10.  Note 88.  Velocity 110
000094t:  Note on ::  Channel 10.  Note 81.  Velocity 0
000000t:  Note on ::  Channel 10.  Note 88.  Velocity 0
006338t:  Note on ::  Channel 10.  Note 81.  Velocity 110
000000t:  Note on ::  Channel 10.  Note 88.  Velocity 110
000094t:  Note on ::  Channel 10.  Note 81.  Velocity 0
000000t:  Note on ::  Channel 10.  Note 88.  Velocity 0
000002t:  Note on ::  Channel 10.  Note 76.  Velocity 110
000000t:  Note on ::  Channel 10.  Note 84.  Velocity 110
000094t:  Note on ::  Channel 10.  Note 76.  Velocity 0
000000t:  Note on ::  Channel 10.  Note 84.  Velocity 0
000098t:  Note on ::  Channel 10.  Note 84.  Velocity 110
000000t:  Note on ::  Channel 10.  Note 90.  Velocity 110
000094t:  Note on ::  Channel 10.  Note 84.  Velocity 0
000000t:  Note on ::  Channel 10.  Note 90.  Velocity 0
000002t:  Note on ::  Channel 10.  Note 76.  Velocity 110
000000t:  Note on ::  Channel 10.  Note 84.  Velocity 110
000094t:  Note on ::  Channel 10.  Note 76.  Velocity 0
000000t:  Note on ::  Channel 10.  Note 84.  Velocity 0
000098t:  Note on ::  Channel 10.  Note 84.  Velocity 110
000000t:  Note on ::  Channel 10.  Note 90.  Velocity 110
000094t:  Note on ::  Channel 10.  Note 84.  Velocity 0
000000t:  Note on ::  Channel 10.  Note 90.  Velocity 0
000098t:  Note on ::  Channel 10.  Note 84.  Velocity 110
000000t:  Note on ::  Channel 10.  Note 91.  Velocity 110
000094t:  Note on ::  Channel 10.  Note 84.  Velocity 0
000000t:  Note on ::  Channel 10.  Note 91.  Velocity 0
000002t:  Note on ::  Channel 10.  Note 76.  Velocity 110
000000t:  Note on ::  Channel 10.  Note 84.  Velocity 110
000094t:  Note on ::  Channel 10.  Note 76.  Velocity 0
000000t:  Note on ::  Channel 10.  Note 84.  Velocity 0
000098t:  Note on ::  Channel 10.  Note 84.  Velocity 110
000000t:  Note on ::  Channel 10.  Note 90.  Velocity 110
000094t:  Note on ::  Channel 10.  Note 84.  Velocity 0
000000t:  Note on ::  Channel 10.  Note 90.  Velocity 0
000002t:  Note on ::  Channel 10.  Note 76.  Velocity 110
000000t:  Note on ::  Channel 10.  Note 84.  Velocity 110
000094t:  Note on ::  Channel 10.  Note 76.  Velocity 0
000000t:  Note on ::  Channel 10.  Note 84.  Velocity 0
000098t:  Note on ::  Channel 10.  Note 84.  Velocity 110
000000t:  Note on ::  Channel 10.  Note 90.  Velocity 110
000094t:  Note on ::  Channel 10.  Note 84.  Velocity 0
000000t:  Note on ::  Channel 10.  Note 90.  Velocity 0
000098t:  Note on ::  Channel 10.  Note 81.  Velocity 110
000000t:  Note on ::  Channel 10.  Note 88.  Velocity 110
000094t:  Note on ::  Channel 10.  Note 81.  Velocity 0
000000t:  Note on ::  Channel 10.  Note 88.  Velocity 0
000002t:  Note on ::  Channel 10.  Note 76.  Velocity 110
000000t:  Note on ::  Channel 10.  Note 84.  Velocity 110
000094t:  Note on ::  Channel 10.  Note 76.  Velocity 0
000000t:  Note on ::  Channel 10.  Note 84.  Velocity 0
000098t:  Note on ::  Channel 10.  Note 84.  Velocity 110
000000t:  Note on ::  Channel 10.  Note 90.  Velocity 110
000094t:  Note on ::  Channel 10.  Note 84.  Velocity 0
000000t:  Note on ::  Channel 10.  Note 90.  Velocity 0
000002t:  Note on ::  Channel 10.  Note 76.  Velocity 110
000000t:  Note on ::  Channel 10.  Note 84.  Velocity 110
000094t:  Note on ::  Channel 10.  Note 76.  Velocity 0
000000t:  Note on ::  Channel 10.  Note 84.  Velocity 0
000098t:  Note on ::  Channel 10.  Note 84.  Velocity 110
000000t:  Note on ::  Channel 10.  Note 90.  Velocity 110
000094t:  Note on ::  Channel 10.  Note 84.  Velocity 0
000000t:  Note on ::  Channel 10.  Note 90.  Velocity 0
000098t:  Note on ::  Channel 10.  Note 84.  Velocity 110
000000t:  Note on ::  Channel 10.  Note 91.  Velocity 110
000094t:  Note on ::  Channel 10.  Note 84.  Velocity 0
000000t:  Note on ::  Channel 10.  Note 91.  Velocity 0
000002t:  Note on ::  Channel 10.  Note 76.  Velocity 110
000000t:  Note on ::  Channel 10.  Note 84.  Velocity 110
000094t:  Note on ::  Channel 10.  Note 76.  Velocity 0
000000t:  Note on ::  Channel 10.  Note 84.  Velocity 0
000098t:  Note on ::  Channel 10.  Note 84.  Velocity 110
000000t:  Note on ::  Channel 10.  Note 90.  Velocity 110
000094t:  Note on ::  Channel 10.  Note 84.  Velocity 0
000000t:  Note on ::  Channel 10.  Note 90.  Velocity 0
000002t:  Note on ::  Channel 10.  Note 76.  Velocity 110
000000t:  Note on ::  Channel 10.  Note 84.  Velocity 110
000094t:  Note on ::  Channel 10.  Note 76.  Velocity 0
000000t:  Note on ::  Channel 10.  Note 84.  Velocity 0
000098t:  Note on ::  Channel 10.  Note 84.  Velocity 110
000000t:  Note on ::  Channel 10.  Note 90.  Velocity 110
000094t:  Note on ::  Channel 10.  Note 84.  Velocity 0
000000t:  Note on ::  Channel 10.  Note 90.  Velocity 0
000098t:  Note on ::  Channel 10.  Note 84.  Velocity 110
000000t:  Note on ::  Channel 10.  Note 89.  Velocity 110
000094t:  Note on ::  Channel 10.  Note 84.  Velocity 0
000000t:  Note on ::  Channel 10.  Note 89.  Velocity 0
000002t:  Note on ::  Channel 10.  Note 77.  Velocity 110
000000t:  Note on ::  Channel 10.  Note 84.  Velocity 110
000094t:  Note on ::  Channel 10.  Note 77.  Velocity 0
000000t:  Note on ::  Channel 10.  Note 84.  Velocity 0
000098t:  Note on ::  Channel 10.  Note 86.  Velocity 110
000000t:  Note on ::  Channel 10.  Note 91.  Velocity 110
000094t:  Note on ::  Channel 10.  Note 86.  Velocity 0
000000t:  Note on ::  Channel 10.  Note 91.  Velocity 0
000002t:  Note on ::  Channel 10.  Note 77.  Velocity 110
000000t:  Note on ::  Channel 10.  Note 84.  Velocity 110
000094t:  Note on ::  Channel 10.  Note 77.  Velocity 0
000000t:  Note on ::  Channel 10.  Note 84.  Velocity 0
000098t:  Note on ::  Channel 10.  Note 89.  Velocity 110
000000t:  Note on ::  Channel 10.  Note 93.  Velocity 110
000094t:  Note on ::  Channel 10.  Note 89.  Velocity 0
000000t:  Note on ::  Channel 10.  Note 93.  Velocity 0
000098t:  Note on ::  Channel 10.  Note 91.  Velocity 110
000094t:  Note on ::  Channel 10.  Note 91.  Velocity 0
000002t:  Note on ::  Channel 10.  Note 86.  Velocity 110
000094t:  Note on ::  Channel 10.  Note 86.  Velocity 0
000002t:  Note on ::  Channel 10.  Note 83.  Velocity 110
000094t:  Note on ::  Channel 10.  Note 83.  Velocity 0
000002t:  Note on ::  Channel 10.  Note 89.  Velocity 110
000094t:  Note on ::  Channel 10.  Note 89.  Velocity 0
000002t:  Note on ::  Channel 10.  Note 86.  Velocity 110
000094t:  Note on ::  Channel 10.  Note 86.  Velocity 0
000002t:  Note on ::  Channel 10.  Note 83.  Velocity 110
000094t:  Note on ::  Channel 10.  Note 83.  Velocity 0
000002t:  Note on ::  Channel 10.  Note 89.  Velocity 110
000094t:  Note on ::  Channel 10.  Note 89.  Velocity 0
000098t:  Note on ::  Channel 10.  Note 81.  Velocity 110
000094t:  Note on ::  Channel 10.  Note 81.  Velocity 0
000002t:  Note on ::  Channel 10.  Note 80.  Velocity 110
000094t:  Note on ::  Channel 10.  Note 80.  Velocity 0
000002t:  Note on ::  Channel 10.  Note 81.  Velocity 110
000094t:  Note on ::  Channel 10.  Note 81.  Velocity 0
000002t:  Note on ::  Channel 10.  Note 84.  Velocity 110
000094t:  Note on ::  Channel 10.  Note 84.  Velocity 0
000002t:  Note on ::  Channel 10.  Note 83.  Velocity 110
000094t:  Note on ::  Channel 10.  Note 83.  Velocity 0
000002t:  Note on ::  Channel 10.  Note 84.  Velocity 110
000094t:  Note on ::  Channel 10.  Note 84.  Velocity 0
000002t:  Note on ::  Channel 10.  Note 88.  Velocity 110
000094t:  Note on ::  Channel 10.  Note 88.  Velocity 0
000002t:  Note on ::  Channel 10.  Note 87.  Velocity 110
000094t:  Note on ::  Channel 10.  Note 87.  Velocity 0
000002t:  Note on ::  Channel 10.  Note 88.  Velocity 110
000094t:  Note on ::  Channel 10.  Note 88.  Velocity 0
000002t:  Note on ::  Channel 10.  Note 88.  Velocity 110
000000t:  Note on ::  Channel 10.  Note 93.  Velocity 110
000094t:  Note on ::  Channel 10.  Note 88.  Velocity 0
000000t:  Note on ::  Channel 10.  Note 93.  Velocity 0
000002t:  Note on ::  Channel 10.  Note 87.  Velocity 110
000000t:  Note on ::  Channel 10.  Note 92.  Velocity 110
000094t:  Note on ::  Channel 10.  Note 87.  Velocity 0
000000t:  Note on ::  Channel 10.  Note 92.  Velocity 0
000002t:  Note on ::  Channel 10.  Note 88.  Velocity 110
000000t:  Note on ::  Channel 10.  Note 93.  Velocity 110
000094t:  Note on ::  Channel 10.  Note 88.  Velocity 0
000000t:  Note on ::  Channel 10.  Note 93.  Velocity 0
000002t:  Note on ::  Channel 10.  Note 93.  Velocity 110
000000t:  Note on ::  Channel 10.  Note 96.  Velocity 110
000094t:  Note on ::  Channel 10.  Note 93.  Velocity 0
000000t:  Note on ::  Channel 10.  Note 96.  Velocity 0
006434t:  Note on ::  Channel 10.  Note 72.  Velocity 110
000000t:  Note on ::  Channel 10.  Note 76.  Velocity 110
000094t:  Note on ::  Channel 10.  Note 72.  Velocity 0
000000t:  Note on ::  Channel 10.  Note 76.  Velocity 0
000002t:  Note on ::  Channel 10.  Note 76.  Velocity 110
000000t:  Note on ::  Channel 10.  Note 81.  Velocity 110
000094t:  Note on ::  Channel 10.  Note 76.  Velocity 0
000000t:  Note on ::  Channel 10.  Note 81.  Velocity 0
000002t:  Note on ::  Channel 10.  Note 81.  Velocity 110
000000t:  Note on ::  Channel 10.  Note 84.  Velocity 110
000094t:  Note on ::  Channel 10.  Note 81.  Velocity 0
000000t:  Note on ::  Channel 10.  Note 84.  Velocity 0
000002t:  Note on ::  Channel 10.  Note 72.  Velocity 110
000000t:  Note on ::  Channel 10.  Note 76.  Velocity 110
000094t:  Note on ::  Channel 10.  Note 72.  Velocity 0
000000t:  Note on ::  Channel 10.  Note 76.  Velocity 0
000002t:  Note on ::  Channel 10.  Note 76.  Velocity 110
000000t:  Note on ::  Channel 10.  Note 81.  Velocity 110
000094t:  Note on ::  Channel 10.  Note 76.  Velocity 0
000000t:  Note on ::  Channel 10.  Note 81.  Velocity 0
000002t:  Note on ::  Channel 10.  Note 84.  Velocity 110
000000t:  Note on ::  Channel 10.  Note 88.  Velocity 110
000094t:  Note on ::  Channel 10.  Note 84.  Velocity 0
000000t:  Note on ::  Channel 10.  Note 88.  Velocity 0
000002t:  Note on ::  Channel 10.  Note 81.  Velocity 110
000000t:  Note on ::  Channel 10.  Note 84.  Velocity 110
000094t:  Note on ::  Channel 10.  Note 81.  Velocity 0
000000t:  Note on ::  Channel 10.  Note 84.  Velocity 0
000002t:  Note on ::  Channel 10.  Note 86.  Velocity 110
000000t:  Note on ::  Channel 10.  Note 89.  Velocity 110
000094t:  Note on ::  Channel 10.  Note 86.  Velocity 0
000000t:  Note on ::  Channel 10.  Note 89.  Velocity 0
000002t:  Note on ::  Channel 10.  Note 74.  Velocity 110
000094t:  Note on ::  Channel 10.  Note 74.  Velocity 0
000002t:  Note on ::  Channel 10.  Note 77.  Velocity 110
000000t:  Note on ::  Channel 10.  Note 81.  Velocity 110
000094t:  Note on ::  Channel 10.  Note 77.  Velocity 0
000000t:  Note on ::  Channel 10.  Note 81.  Velocity 0
000002t:  Note on ::  Channel 10.  Note 86.  Velocity 110
000094t:  Note on ::  Channel 10.  Note 86.  Velocity 0
000002t:  Note on ::  Channel 10.  Note 74.  Velocity 110
000094t:  Note on ::  Channel 10.  Note 74.  Velocity 0
000002t:  Note on ::  Channel 10.  Note 77.  Velocity 110
000000t:  Note on ::  Channel 10.  Note 81.  Velocity 110
000094t:  Note on ::  Channel 10.  Note 77.  Velocity 0
000000t:  Note on ::  Channel 10.  Note 81.  Velocity 0
000002t:  Note on ::  Channel 10.  Note 86.  Velocity 110
000000t:  Note on ::  Channel 10.  Note 89.  Velocity 110
000094t:  Note on ::  Channel 10.  Note 86.  Velocity 0
000000t:  Note on ::  Channel 10.  Note 89.  Velocity 0
000002t:  Note on ::  Channel 10.  Note 81.  Velocity 110
000000t:  Note on ::  Channel 10.  Note 86.  Velocity 110
000094t:  Note on ::  Channel 10.  Note 81.  Velocity 0
000000t:  Note on ::  Channel 10.  Note 86.  Velocity 0
000002t:  Note on ::  Channel 10.  Note 83.  Velocity 110
000000t:  Note on ::  Channel 10.  Note 86.  Velocity 110
000094t:  Note on ::  Channel 10.  Note 83.  Velocity 0
000000t:  Note on ::  Channel 10.  Note 86.  Velocity 0
000002t:  Note on ::  Channel 10.  Note 74.  Velocity 110
000094t:  Note on ::  Channel 10.  Note 74.  Velocity 0
000002t:  Note on ::  Channel 10.  Note 79.  Velocity 110
000000t:  Note on ::  Channel 10.  Note 83.  Velocity 110
000094t:  Note on ::  Channel 10.  Note 79.  Velocity 0
000000t:  Note on ::  Channel 10.  Note 83.  Velocity 0
000002t:  Note on ::  Channel 10.  Note 83.  Velocity 110
000000t:  Note on ::  Channel 10.  Note 86.  Velocity 110
000094t:  Note on ::  Channel 10.  Note 83.  Velocity 0
000000t:  Note on ::  Channel 10.  Note 86.  Velocity 0
000002t:  Note on ::  Channel 10.  Note 79.  Velocity 110
000000t:  Note on ::  Channel 10.  Note 83.  Velocity 110
000094t:  Note on ::  Channel 10.  Note 79.  Velocity 0
000000t:  Note on ::  Channel 10.  Note 83.  Velocity 0
000002t:  Note on ::  Channel 10.  Note 83.  Velocity 110
000000t:  Note on ::  Channel 10.  Note 86.  Velocity 110
000094t:  Note on ::  Channel 10.  Note 83.  Velocity 0
000000t:  Note on ::  Channel 10.  Note 86.  Velocity 0
000002t:  Note on ::  Channel 10.  Note 86.  Velocity 110
000000t:  Note on ::  Channel 10.  Note 89.  Velocity 110
000094t:  Note on ::  Channel 10.  Note 86.  Velocity 0
000000t:  Note on ::  Channel 10.  Note 89.  Velocity 0
000002t:  Note on ::  Channel 10.  Note 83.  Velocity 110
000000t:  Note on ::  Channel 10.  Note 86.  Velocity 110
000094t:  Note on ::  Channel 10.  Note 83.  Velocity 0
000000t:  Note on ::  Channel 10.  Note 86.  Velocity 0
000002t:  Note on ::  Channel 10.  Note 84.  Velocity 110
000000t:  Note on ::  Channel 10.  Note 88.  Velocity 110
000094t:  Note on ::  Channel 10.  Note 84.  Velocity 0
000000t:  Note on ::  Channel 10.  Note 88.  Velocity 0
000002t:  Note on ::  Channel 10.  Note 76.  Velocity 110
000094t:  Note on ::  Channel 10.  Note 76.  Velocity 0
000002t:  Note on ::  Channel 10.  Note 76.  Velocity 110
000000t:  Note on ::  Channel 10.  Note 79.  Velocity 110
000094t:  Note on ::  Channel 10.  Note 76.  Velocity 0
000000t:  Note on ::  Channel 10.  Note 79.  Velocity 0
000002t:  Note on ::  Channel 10.  Note 79.  Velocity 110
000000t:  Note on ::  Channel 10.  Note 84.  Velocity 110
000094t:  Note on ::  Channel 10.  Note 79.  Velocity 0
000000t:  Note on ::  Channel 10.  Note 84.  Velocity 0
000002t:  Note on ::  Channel 10.  Note 76.  Velocity 110
000000t:  Note on ::  Channel 10.  Note 79.  Velocity 110
000094t:  Note on ::  Channel 10.  Note 76.  Velocity 0
000000t:  Note on ::  Channel 10.  Note 79.  Velocity 0
000002t:  Note on ::  Channel 10.  Note 79.  Velocity 110
000000t:  Note on ::  Channel 10.  Note 84.  Velocity 110
000094t:  Note on ::  Channel 10.  Note 79.  Velocity 0
000000t:  Note on ::  Channel 10.  Note 84.  Velocity 0
000002t:  Note on ::  Channel 10.  Note 84.  Velocity 110
000000t:  Note on ::  Channel 10.  Note 88.  Velocity 110
000094t:  Note on ::  Channel 10.  Note 84.  Velocity 0
000000t:  Note on ::  Channel 10.  Note 88.  Velocity 0
000002t:  Note on ::  Channel 10.  Note 79.  Velocity 110
000000t:  Note on ::  Channel 10.  Note 84.  Velocity 110
000094t:  Note on ::  Channel 10.  Note 79.  Velocity 0
000000t:  Note on ::  Channel 10.  Note 84.  Velocity 0
000002t:  Note on ::  Channel 10.  Note 84.  Velocity 110
000000t:  Note on ::  Channel 10.  Note 88.  Velocity 110
000094t:  Note on ::  Channel 10.  Note 84.  Velocity 0
000000t:  Note on ::  Channel 10.  Note 88.  Velocity 0
000002t:  Note on ::  Channel 10.  Note 76.  Velocity 110
000000t:  Note on ::  Channel 10.  Note 81.  Velocity 110
000094t:  Note on ::  Channel 10.  Note 76.  Velocity 0
000000t:  Note on ::  Channel 10.  Note 81.  Velocity 0
000002t:  Note on ::  Channel 10.  Note 81.  Velocity 110
000000t:  Note on ::  Channel 10.  Note 84.  Velocity 110
000094t:  Note on ::  Channel 10.  Note 81.  Velocity 0
000000t:  Note on ::  Channel 10.  Note 84.  Velocity 0
000002t:  Note on ::  Channel 10.  Note 84.  Velocity 110
000000t:  Note on ::  Channel 10.  Note 88.  Velocity 110
000094t:  Note on ::  Channel 10.  Note 84.  Velocity 0
000000t:  Note on ::  Channel 10.  Note 88.  Velocity 0
000002t:  Note on ::  Channel 10.  Note 76.  Velocity 110
000000t:  Note on ::  Channel 10.  Note 81.  Velocity 110
000094t:  Note on ::  Channel 10.  Note 76.  Velocity 0
000000t:  Note on ::  Channel 10.  Note 81.  Velocity 0
000002t:  Note on ::  Channel 10.  Note 81.  Velocity 110
000000t:  Note on ::  Channel 10.  Note 84.  Velocity 110
000094t:  Note on ::  Channel 10.  Note 81.  Velocity 0
000000t:  Note on ::  Channel 10.  Note 84.  Velocity 0
000002t:  Note on ::  Channel 10.  Note 84.  Velocity 110
000000t:  Note on ::  Channel 10.  Note 88.  Velocity 110
000094t:  Note on ::  Channel 10.  Note 84.  Velocity 0
000000t:  Note on ::  Channel 10.  Note 88.  Velocity 0
000002t:  Note on ::  Channel 10.  Note 81.  Velocity 110
000000t:  Note on ::  Channel 10.  Note 84.  Velocity 110
000094t:  Note on ::  Channel 10.  Note 81.  Velocity 0
000000t:  Note on ::  Channel 10.  Note 84.  Velocity 0
000002t:  Note on ::  Channel 10.  Note 86.  Velocity 110
000000t:  Note on ::  Channel 10.  Note 90.  Velocity 110
000094t:  Note on ::  Channel 10.  Note 86.  Velocity 0
000000t:  Note on ::  Channel 10.  Note 90.  Velocity 0
000002t:  Note on ::  Channel 10.  Note 78.  Velocity 110
000000t:  Note on ::  Channel 10.  Note 81.  Velocity 110
000094t:  Note on ::  Channel 10.  Note 78.  Velocity 0
000000t:  Note on ::  Channel 10.  Note 81.  Velocity 0
000002t:  Note on ::  Channel 10.  Note 81.  Velocity 110
000000t:  Note on ::  Channel 10.  Note 86.  Velocity 110
000094t:  Note on ::  Channel 10.  Note 81.  Velocity 0
000000t:  Note on ::  Channel 10.  Note 86.  Velocity 0
000002t:  Note on ::  Channel 10.  Note 86.  Velocity 110
000000t:  Note on ::  Channel 10.  Note 90.  Velocity 110
000094t:  Note on ::  Channel 10.  Note 86.  Velocity 0
000000t:  Note on ::  Channel 10.  Note 90.  Velocity 0
000002t:  Note on ::  Channel 10.  Note 78.  Velocity 110
000000t:  Note on ::  Channel 10.  Note 81.  Velocity 110
000094t:  Note on ::  Channel 10.  Note 78.  Velocity 0
000000t:  Note on ::  Channel 10.  Note 81.  Velocity 0
000002t:  Note on ::  Channel 10.  Note 81.  Velocity 110
000000t:  Note on ::  Channel 10.  Note 86.  Velocity 110
000094t:  Note on ::  Channel 10.  Note 81.  Velocity 0
000000t:  Note on ::  Channel 10.  Note 86.  Velocity 0
000002t:  Note on ::  Channel 10.  Note 86.  Velocity 110
000000t:  Note on ::  Channel 10.  Note 90.  Velocity 110
000094t:  Note on ::  Channel 10.  Note 86.  Velocity 0
000000t:  Note on ::  Channel 10.  Note 90.  Velocity 0
000002t:  Note on ::  Channel 10.  Note 81.  Velocity 110
000000t:  Note on ::  Channel 10.  Note 86.  Velocity 110
000094t:  Note on ::  Channel 10.  Note 81.  Velocity 0
000000t:  Note on ::  Channel 10.  Note 86.  Velocity 0
000002t:  Note on ::  Channel 10.  Note 83.  Velocity 110
000000t:  Note on ::  Channel 10.  Note 86.  Velocity 110
000094t:  Note on ::  Channel 10.  Note 83.  Velocity 0
000000t:  Note on ::  Channel 10.  Note 86.  Velocity 0
000002t:  Note on ::  Channel 10.  Note 74.  Velocity 110
000094t:  Note on ::  Channel 10.  Note 74.  Velocity 0
000002t:  Note on ::  Channel 10.  Note 79.  Velocity 110
000094t:  Note on ::  Channel 10.  Note 79.  Velocity 0
000002t:  Note on ::  Channel 10.  Note 83.  Velocity 110
000000t:  Note on ::  Channel 10.  Note 86.  Velocity 110
000094t:  Note on ::  Channel 10.  Note 83.  Velocity 0
000000t:  Note on ::  Channel 10.  Note 86.  Velocity 0
000002t:  Note on ::  Channel 10.  Note 74.  Velocity 110
000094t:  Note on ::  Channel 10.  Note 74.  Velocity 0
000002t:  Note on ::  Channel 10.  Note 79.  Velocity 110
000094t:  Note on ::  Channel 10.  Note 79.  Velocity 0
000002t:  Note on ::  Channel 10.  Note 83.  Velocity 110
000000t:  Note on ::  Channel 10.  Note 86.  Velocity 110
000094t:  Note on ::  Channel 10.  Note 83.  Velocity 0
000000t:  Note on ::  Channel 10.  Note 86.  Velocity 0
000002t:  Note on ::  Channel 10.  Note 79.  Velocity 110
000094t:  Note on ::  Channel 10.  Note 79.  Velocity 0
000002t:  Note on ::  Channel 10.  Note 83.  Velocity 110
000000t:  Note on ::  Channel 10.  Note 86.  Velocity 110
000094t:  Note on ::  Channel 10.  Note 83.  Velocity 0
000000t:  Note on ::  Channel 10.  Note 86.  Velocity 0
000002t:  Note on ::  Channel 10.  Note 74.  Velocity 110
000094t:  Note on ::  Channel 10.  Note 74.  Velocity 0
000002t:  Note on ::  Channel 10.  Note 79.  Velocity 110
000094t:  Note on ::  Channel 10.  Note 79.  Velocity 0
000002t:  Note on ::  Channel 10.  Note 83.  Velocity 110
000000t:  Note on ::  Channel 10.  Note 86.  Velocity 110
000094t:  Note on ::  Channel 10.  Note 83.  Velocity 0
000000t:  Note on ::  Channel 10.  Note 86.  Velocity 0
000002t:  Note on ::  Channel 10.  Note 74.  Velocity 110
000094t:  Note on ::  Channel 10.  Note 74.  Velocity 0
000002t:  Note on ::  Channel 10.  Note 79.  Velocity 110
000094t:  Note on ::  Channel 10.  Note 79.  Velocity 0
000002t:  Note on ::  Channel 10.  Note 83.  Velocity 110
000000t:  Note on ::  Channel 10.  Note 86.  Velocity 110
000094t:  Note on ::  Channel 10.  Note 83.  Velocity 0
000000t:  Note on ::  Channel 10.  Note 86.  Velocity 0
000002t:  Note on ::  Channel 10.  Note 79.  Velocity 110
000094t:  Note on ::  Channel 10.  Note 79.  Velocity 0
000002t:  Note on ::  Channel 10.  Note 83.  Velocity 110
000000t:  Note on ::  Channel 10.  Note 86.  Velocity 110
000094t:  Note on ::  Channel 10.  Note 83.  Velocity 0
000000t:  Note on ::  Channel 10.  Note 86.  Velocity 0
000002t:  Note on ::  Channel 10.  Note 74.  Velocity 110
000094t:  Note on ::  Channel 10.  Note 74.  Velocity 0
000002t:  Note on ::  Channel 10.  Note 79.  Velocity 110
000094t:  Note on ::  Channel 10.  Note 79.  Velocity 0
000002t:  Note on ::  Channel 10.  Note 83.  Velocity 110
000000t:  Note on ::  Channel 10.  Note 86.  Velocity 110
000094t:  Note on ::  Channel 10.  Note 83.  Velocity 0
000000t:  Note on ::  Channel 10.  Note 86.  Velocity 0
000002t:  Note on ::  Channel 10.  Note 74.  Velocity 110
000094t:  Note on ::  Channel 10.  Note 74.  Velocity 0
000002t:  Note on ::  Channel 10.  Note 79.  Velocity 110
000094t:  Note on ::  Channel 10.  Note 79.  Velocity 0
000002t:  Note on ::  Channel 10.  Note 83.  Velocity 110
000000t:  Note on ::  Channel 10.  Note 86.  Velocity 110
000094t:  Note on ::  Channel 10.  Note 83.  Velocity 0
000000t:  Note on ::  Channel 10.  Note 86.  Velocity 0
000002t:  Note on ::  Channel 10.  Note 79.  Velocity 110
000094t:  Note on ::  Channel 10.  Note 79.  Velocity 0
000002t:  Note on ::  Channel 10.  Note 83.  Velocity 110
000000t:  Note on ::  Channel 10.  Note 86.  Velocity 110
000094t:  Note on ::  Channel 10.  Note 83.  Velocity 0
000000t:  Note on ::  Channel 10.  Note 86.  Velocity 0
000002t:  Note on ::  Channel 10.  Note 74.  Velocity 110
000094t:  Note on ::  Channel 10.  Note 74.  Velocity 0
000002t:  Note on ::  Channel 10.  Note 79.  Velocity 110
000094t:  Note on ::  Channel 10.  Note 79.  Velocity 0
000002t:  Note on ::  Channel 10.  Note 83.  Velocity 110
000000t:  Note on ::  Channel 10.  Note 86.  Velocity 110
000094t:  Note on ::  Channel 10.  Note 83.  Velocity 0
000000t:  Note on ::  Channel 10.  Note 86.  Velocity 0
000002t:  Note on ::  Channel 10.  Note 74.  Velocity 110
000094t:  Note on ::  Channel 10.  Note 74.  Velocity 0
000002t:  Note on ::  Channel 10.  Note 79.  Velocity 110
000094t:  Note on ::  Channel 10.  Note 79.  Velocity 0
000002t:  Note on ::  Channel 10.  Note 83.  Velocity 110
000000t:  Note on ::  Channel 10.  Note 86.  Velocity 110
000094t:  Note on ::  Channel 10.  Note 83.  Velocity 0
000000t:  Note on ::  Channel 10.  Note 86.  Velocity 0
000002t:  Note on ::  Channel 10.  Note 79.  Velocity 110
000094t:  Note on ::  Channel 10.  Note 79.  Velocity 0
000194t:  Note on ::  Channel 10.  Note 81.  Velocity 110
000000t:  Note on ::  Channel 10.  Note 88.  Velocity 110
000094t:  Note on ::  Channel 10.  Note 81.  Velocity 0
000000t:  Note on ::  Channel 10.  Note 88.  Velocity 0
000098t:  Note on ::  Channel 10.  Note 81.  Velocity 110
000000t:  Note on ::  Channel 10.  Note 88.  Velocity 110
000094t:  Note on ::  Channel 10.  Note 81.  Velocity 0
000000t:  Note on ::  Channel 10.  Note 88.  Velocity 0
000098t:  Note on ::  Channel 10.  Note 81.  Velocity 110
000000t:  Note on ::  Channel 10.  Note 88.  Velocity 110
000094t:  Note on ::  Channel 10.  Note 81.  Velocity 0
000000t:  Note on ::  Channel 10.  Note 88.  Velocity 0
000098t:  Note on ::  Channel 10.  Note 81.  Velocity 110
000000t:  Note on ::  Channel 10.  Note 88.  Velocity 110
000094t:  Note on ::  Channel 10.  Note 81.  Velocity 0
000000t:  Note on ::  Channel 10.  Note 88.  Velocity 0
000098t:  Note on ::  Channel 10.  Note 81.  Velocity 110
000000t:  Note on ::  Channel 10.  Note 88.  Velocity 110
000094t:  Note on ::  Channel 10.  Note 81.  Velocity 0
000000t:  Note on ::  Channel 10.  Note 88.  Velocity 0
000098t:  Note on ::  Channel 10.  Note 81.  Velocity 110
000000t:  Note on ::  Channel 10.  Note 88.  Velocity 110
000094t:  Note on ::  Channel 10.  Note 81.  Velocity 0
000000t:  Note on ::  Channel 10.  Note 88.  Velocity 0
000098t:  Note on ::  Channel 10.  Note 81.  Velocity 110
000000t:  Note on ::  Channel 10.  Note 88.  Velocity 110
000094t:  Note on ::  Channel 10.  Note 81.  Velocity 0
000000t:  Note on ::  Channel 10.  Note 88.  Velocity 0
000098t:  Note on ::  Channel 10.  Note 81.  Velocity 110
000000t:  Note on ::  Channel 10.  Note 88.  Velocity 110
000094t:  Note on ::  Channel 10.  Note 81.  Velocity 0
000000t:  Note on ::  Channel 10.  Note 88.  Velocity 0
000098t:  Note on ::  Channel 10.  Note 81.  Velocity 110
000000t:  Note on ::  Channel 10.  Note 88.  Velocity 110
000094t:  Note on ::  Channel 10.  Note 81.  Velocity 0
000000t:  Note on ::  Channel 10.  Note 88.  Velocity 0
000098t:  Note on ::  Channel 10.  Note 81.  Velocity 110
000000t:  Note on ::  Channel 10.  Note 88.  Velocity 110
000094t:  Note on ::  Channel 10.  Note 81.  Velocity 0
000000t:  Note on ::  Channel 10.  Note 88.  Velocity 0
000098t:  Note on ::  Channel 10.  Note 81.  Velocity 110
000000t:  Note on ::  Channel 10.  Note 88.  Velocity 110
000094t:  Note on ::  Channel 10.  Note 81.  Velocity 0
000000t:  Note on ::  Channel 10.  Note 88.  Velocity 0
000098t:  Note on ::  Channel 10.  Note 81.  Velocity 110
000000t:  Note on ::  Channel 10.  Note 88.  Velocity 110
000094t:  Note on ::  Channel 10.  Note 81.  Velocity 0
000000t:  Note on ::  Channel 10.  Note 88.  Velocity 0
000098t:  Note on ::  Channel 10.  Note 81.  Velocity 110
000000t:  Note on ::  Channel 10.  Note 88.  Velocity 110
000094t:  Note on ::  Channel 10.  Note 81.  Velocity 0
000000t:  Note on ::  Channel 10.  Note 88.  Velocity 0
000098t:  Note on ::  Channel 10.  Note 81.  Velocity 110
000000t:  Note on ::  Channel 10.  Note 88.  Velocity 110
000094t:  Note on ::  Channel 10.  Note 81.  Velocity 0
000000t:  Note on ::  Channel 10.  Note 88.  Velocity 0
000098t:  Note on ::  Channel 10.  Note 81.  Velocity 110
000000t:  Note on ::  Channel 10.  Note 88.  Velocity 110
000094t:  Note on ::  Channel 10.  Note 81.  Velocity 0
000000t:  Note on ::  Channel 10.  Note 88.  Velocity 0
002978t:  Note on ::  Channel 10.  Note 81.  Velocity 110
000000t:  Note on ::  Channel 10.  Note 88.  Velocity 110
000094t:  Note on ::  Channel 10.  Note 81.  Velocity 0
000000t:  Note on ::  Channel 10.  Note 88.  Velocity 0
000098t:  Note on ::  Channel 10.  Note 81.  Velocity 110
000000t:  Note on ::  Channel 10.  Note 88.  Velocity 110
000094t:  Note on ::  Channel 10.  Note 81.  Velocity 0
000000t:  Note on ::  Channel 10.  Note 88.  Velocity 0
000098t:  Note on ::  Channel 10.  Note 81.  Velocity 110
000000t:  Note on ::  Channel 10.  Note 88.  Velocity 110
000094t:  Note on ::  Channel 10.  Note 81.  Velocity 0
000000t:  Note on ::  Channel 10.  Note 88.  Velocity 0
000098t:  Note on ::  Channel 10.  Note 81.  Velocity 110
000000t:  Note on ::  Channel 10.  Note 88.  Velocity 110
000094t:  Note on ::  Channel 10.  Note 81.  Velocity 0
000000t:  Note on ::  Channel 10.  Note 88.  Velocity 0
000098t:  Note on ::  Channel 10.  Note 81.  Velocity 110
000000t:  Note on ::  Channel 10.  Note 88.  Velocity 110
000094t:  Note on ::  Channel 10.  Note 81.  Velocity 0
000000t:  Note on ::  Channel 10.  Note 88.  Velocity 0
000098t:  Note on ::  Channel 10.  Note 81.  Velocity 110
000000t:  Note on ::  Channel 10.  Note 88.  Velocity 110
000094t:  Note on ::  Channel 10.  Note 81.  Velocity 0
000000t:  Note on ::  Channel 10.  Note 88.  Velocity 0
000098t:  Note on ::  Channel 10.  Note 81.  Velocity 110
000000t:  Note on ::  Channel 10.  Note 88.  Velocity 110
000094t:  Note on ::  Channel 10.  Note 81.  Velocity 0
000000t:  Note on ::  Channel 10.  Note 88.  Velocity 0
000098t:  Note on ::  Channel 10.  Note 81.  Velocity 110
000000t:  Note on ::  Channel 10.  Note 88.  Velocity 110
000094t:  Note on ::  Channel 10.  Note 81.  Velocity 0
000000t:  Note on ::  Channel 10.  Note 88.  Velocity 0
000098t:  Note on ::  Channel 10.  Note 81.  Velocity 110
000000t:  Note on ::  Channel 10.  Note 88.  Velocity 110
000094t:  Note on ::  Channel 10.  Note 81.  Velocity 0
000000t:  Note on ::  Channel 10.  Note 88.  Velocity 0
000098t:  Note on ::  Channel 10.  Note 81.  Velocity 110
000000t:  Note on ::  Channel 10.  Note 88.  Velocity 110
000094t:  Note on ::  Channel 10.  Note 81.  Velocity 0
000000t:  Note on ::  Channel 10.  Note 88.  Velocity 0
000098t:  Note on ::  Channel 10.  Note 81.  Velocity 110
000000t:  Note on ::  Channel 10.  Note 88.  Velocity 110
000094t:  Note on ::  Channel 10.  Note 81.  Velocity 0
000000t:  Note on ::  Channel 10.  Note 88.  Velocity 0
000098t:  Note on ::  Channel 10.  Note 81.  Velocity 110
000000t:  Note on ::  Channel 10.  Note 88.  Velocity 110
000094t:  Note on ::  Channel 10.  Note 81.  Velocity 0
000000t:  Note on ::  Channel 10.  Note 88.  Velocity 0
000098t:  Note on ::  Channel 10.  Note 81.  Velocity 110
000000t:  Note on ::  Channel 10.  Note 88.  Velocity 110
000094t:  Note on ::  Channel 10.  Note 81.  Velocity 0
000000t:  Note on ::  Channel 10.  Note 88.  Velocity 0
000098t:  Note on ::  Channel 10.  Note 81.  Velocity 110
000000t:  Note on ::  Channel 10.  Note 88.  Velocity 110
000094t:  Note on ::  Channel 10.  Note 81.  Velocity 0
000000t:  Note on ::  Channel 10.  Note 88.  Velocity 0
000098t:  Note on ::  Channel 10.  Note 81.  Velocity 110
000000t:  Note on ::  Channel 10.  Note 88.  Velocity 110
000094t:  Note on ::  Channel 10.  Note 81.  Velocity 0
000000t:  Note on ::  Channel 10.  Note 88.  Velocity 0
000098t:  Note on ::  Channel 10.  Note 81.  Velocity 110
000000t:  Note on ::  Channel 10.  Note 88.  Velocity 110
000094t:  Note on ::  Channel 10.  Note 81.  Velocity 0
000000t:  Note on ::  Channel 10.  Note 88.  Velocity 0
003170t:  Control change ::  Channel 10.  Controller 7.  Value: 127
000024t:  Control change ::  Channel 10.  Controller 7.  Value: 126
000024t:  Control change ::  Channel 10.  Controller 7.  Value: 125
000024t:  Control change ::  Channel 10.  Controller 7.  Value: 124
000024t:  Control change ::  Channel 10.  Controller 7.  Value: 123
000024t:  Control change ::  Channel 10.  Controller 7.  Value: 122
000025t:  Control change ::  Channel 10.  Controller 7.  Value: 121
000024t:  Control change ::  Channel 10.  Controller 7.  Value: 120
000024t:  Control change ::  Channel 10.  Controller 7.  Value: 119
000024t:  Control change ::  Channel 10.  Controller 7.  Value: 118
000024t:  Control change ::  Channel 10.  Controller 7.  Value: 117
000025t:  Control change ::  Channel 10.  Controller 7.  Value: 116
000024t:  Control change ::  Channel 10.  Controller 7.  Value: 115
000024t:  Control change ::  Channel 10.  Controller 7.  Value: 114
000024t:  Control change ::  Channel 10.  Controller 7.  Value: 113
000024t:  Control change ::  Channel 10.  Controller 7.  Value: 112
000025t:  Control change ::  Channel 10.  Controller 7.  Value: 111
000024t:  Control change ::  Channel 10.  Controller 7.  Value: 110
000024t:  Control change ::  Channel 10.  Controller 7.  Value: 109
000024t:  Control change ::  Channel 10.  Controller 7.  Value: 108
000024t:  Control change ::  Channel 10.  Controller 7.  Value: 107
000024t:  Control change ::  Channel 10.  Controller 7.  Value: 106
000025t:  Control change ::  Channel 10.  Controller 7.  Value: 105
000024t:  Control change ::  Channel 10.  Controller 7.  Value: 104
000024t:  Control change ::  Channel 10.  Controller 7.  Value: 103
000024t:  Control change ::  Channel 10.  Controller 7.  Value: 102
000024t:  Control change ::  Channel 10.  Controller 7.  Value: 101
000025t:  Control change ::  Channel 10.  Controller 7.  Value: 100
000024t:  Control change ::  Channel 10.  Controller 7.  Value: 99
000024t:  Control change ::  Channel 10.  Controller 7.  Value: 98
000024t:  Control change ::  Channel 10.  Controller 7.  Value: 97
000024t:  Control change ::  Channel 10.  Controller 7.  Value: 96
000025t:  Control change ::  Channel 10.  Controller 7.  Value: 95
000024t:  Control change ::  Channel 10.  Controller 7.  Value: 94
000024t:  Control change ::  Channel 10.  Controller 7.  Value: 93
000024t:  Control change ::  Channel 10.  Controller 7.  Value: 92
000024t:  Control change ::  Channel 10.  Controller 7.  Value: 91
000024t:  Control change ::  Channel 10.  Controller 7.  Value: 90
000025t:  Control change ::  Channel 10.  Controller 7.  Value: 89
000024t:  Control change ::  Channel 10.  Controller 7.  Value: 88
000024t:  Control change ::  Channel 10.  Controller 7.  Value: 87
000024t:  Control change ::  Channel 10.  Controller 7.  Value: 86
000024t:  Control change ::  Channel 10.  Controller 7.  Value: 85
000025t:  Control change ::  Channel 10.  Controller 7.  Value: 84
000024t:  Control change ::  Channel 10.  Controller 7.  Value: 83
000024t:  Control change ::  Channel 10.  Controller 7.  Value: 82
000024t:  Control change ::  Channel 10.  Controller 7.  Value: 81
000024t:  Control change ::  Channel 10.  Controller 7.  Value: 80
000025t:  Control change ::  Channel 10.  Controller 7.  Value: 79
000024t:  Control change ::  Channel 10.  Controller 7.  Value: 78
000024t:  Control change ::  Channel 10.  Controller 7.  Value: 77
000024t:  Control change ::  Channel 10.  Controller 7.  Value: 76
000024t:  Control change ::  Channel 10.  Controller 7.  Value: 75
000025t:  Control change ::  Channel 10.  Controller 7.  Value: 74
000024t:  Control change ::  Channel 10.  Controller 7.  Value: 73
000024t:  Control change ::  Channel 10.  Controller 7.  Value: 72
000024t:  Control change ::  Channel 10.  Controller 7.  Value: 71
000024t:  Control change ::  Channel 10.  Controller 7.  Value: 70
000024t:  Control change ::  Channel 10.  Controller 7.  Value: 69
000025t:  Control change ::  Channel 10.  Controller 7.  Value: 68
000024t:  Control change ::  Channel 10.  Controller 7.  Value: 67
000024t:  Control change ::  Channel 10.  Controller 7.  Value: 66
000024t:  Control change ::  Channel 10.  Controller 7.  Value: 65
000024t:  Control change ::  Channel 10.  Controller 7.  Value: 64
000025t:  Control change ::  Channel 10.  Controller 7.  Value: 63
000024t:  Control change ::  Channel 10.  Controller 7.  Value: 62
000024t:  Control change ::  Channel 10.  Controller 7.  Value: 61
000024t:  Control change ::  Channel 10.  Controller 7.  Value: 60
000024t:  Control change ::  Channel 10.  Controller 7.  Value: 59
000025t:  Control change ::  Channel 10.  Controller 7.  Value: 58
000024t:  Control change ::  Channel 10.  Controller 7.  Value: 57
000024t:  Control change ::  Channel 10.  Controller 7.  Value: 56
000024t:  Control change ::  Channel 10.  Controller 7.  Value: 55
000024t:  Control change ::  Channel 10.  Controller 7.  Value: 54
000024t:  Control change ::  Channel 10.  Controller 7.  Value: 53
000025t:  Control change ::  Channel 10.  Controller 7.  Value: 52
000024t:  Control change ::  Channel 10.  Controller 7.  Value: 51
000024t:  Control change ::  Channel 10.  Controller 7.  Value: 50
000024t:  Control change ::  Channel 10.  Controller 7.  Value: 49
000024t:  Control change ::  Channel 10.  Controller 7.  Value: 48
000025t:  Control change ::  Channel 10.  Controller 7.  Value: 47
000024t:  Control change ::  Channel 10.  Controller 7.  Value: 46
000024t:  Control change ::  Channel 10.  Controller 7.  Value: 45
000024t:  Control change ::  Channel 10.  Controller 7.  Value: 44
000024t:  Control change ::  Channel 10.  Controller 7.  Value: 43
000025t:  Control change ::  Channel 10.  Controller 7.  Value: 42
000024t:  Control change ::  Channel 10.  Controller 7.  Value: 41
000024t:  Control change ::  Channel 10.  Controller 7.  Value: 40
000024t:  Control change ::  Channel 10.  Controller 7.  Value: 39
000024t:  Control change ::  Channel 10.  Controller 7.  Value: 38
000025t:  Control change ::  Channel 10.  Controller 7.  Value: 37
000024t:  Control change ::  Channel 10.  Controller 7.  Value: 36
000024t:  Control change ::  Channel 10.  Controller 7.  Value: 35
000024t:  Control change ::  Channel 10.  Controller 7.  Value: 34
000024t:  Control change ::  Channel 10.  Controller 7.  Value: 33
000024t:  Control change ::  Channel 10.  Controller 7.  Value: 32
000025t:  Control change ::  Channel 10.  Controller 7.  Value: 31
000024t:  Control change ::  Channel 10.  Controller 7.  Value: 30
000024t:  Control change ::  Channel 10.  Controller 7.  Value: 29
000024t:  Control change ::  Channel 10.  Controller 7.  Value: 28
000024t:  Control change ::  Channel 10.  Controller 7.  Value: 27
000025t:  Control change ::  Channel 10.  Controller 7.  Value: 26
000024t:  Control change ::  Channel 10.  Controller 7.  Value: 25
000024t:  Control change ::  Channel 10.  Controller 7.  Value: 24
000024t:  Control change ::  Channel 10.  Controller 7.  Value: 23
000024t:  Control change ::  Channel 10.  Controller 7.  Value: 22
000025t:  Control change ::  Channel 10.  Controller 7.  Value: 21
000024t:  Control change ::  Channel 10.  Controller 7.  Value: 20
000024t:  Control change ::  Channel 10.  Controller 7.  Value: 19
000024t:  Control change ::  Channel 10.  Controller 7.  Value: 18
000024t:  Control change ::  Channel 10.  Controller 7.  Value: 17
000024t:  Control change ::  Channel 10.  Controller 7.  Value: 16
000025t:  Control change ::  Channel 10.  Controller 7.  Value: 15
000024t:  Control change ::  Channel 10.  Controller 7.  Value: 14
000024t:  Control change ::  Channel 10.  Controller 7.  Value: 13
000024t:  Control change ::  Channel 10.  Controller 7.  Value: 12
000024t:  Control change ::  Channel 10.  Controller 7.  Value: 11
000025t:  Control change ::  Channel 10.  Controller 7.  Value: 10
000024t:  Control change ::  Channel 10.  Controller 7.  Value: 9
000024t:  Control change ::  Channel 10.  Controller 7.  Value: 8
000024t:  Control change ::  Channel 10.  Controller 7.  Value: 7
000024t:  Control change ::  Channel 10.  Controller 7.  Value: 6
000025t:  Control change ::  Channel 10.  Controller 7.  Value: 5
000024t:  Control change ::  Channel 10.  Controller 7.  Value: 4
000024t:  Control change ::  Channel 10.  Controller 7.  Value: 3
000024t:  Control change ::  Channel 10.  Controller 7.  Value: 2
000024t:  Control change ::  Channel 10.  Controller 7.  Value: 1
000025t:  Control change ::  Channel 10.  Controller 7.  Value: 0
000000t:  Meta-event type $2f (End-track event) of length 0
Sigma t = 87264

Track chunk of 4179 bytes
000000t:  Meta-event type $21 (?) of length 1
	  _
000000t:  Meta-event type $03 (Track name) of length 22
	  http://midgarswamp.com
000000t:  Program (patch) change ::  Channel 11.  Patch 48 (String Ensemble 1)
000000t:  Control change ::  Channel 11.  Controller 7.  Value: 127
000000t:  Control change ::  Channel 11.  Controller 10.  Value: 64
001824t:  Note on ::  Channel 11.  Note 64.  Velocity 110
000094t:  Note on ::  Channel 11.  Note 64.  Velocity 0
000002t:  Note on ::  Channel 11.  Note 64.  Velocity 110
000000t:  Note on ::  Channel 11.  Note 69.  Velocity 110
000094t:  Note on ::  Channel 11.  Note 64.  Velocity 0
000000t:  Note on ::  Channel 11.  Note 69.  Velocity 0
000002t:  Note on ::  Channel 11.  Note 64.  Velocity 110
000000t:  Note on ::  Channel 11.  Note 67.  Velocity 110
000000t:  Note on ::  Channel 11.  Note 71.  Velocity 110
000094t:  Note on ::  Channel 11.  Note 64.  Velocity 0
000000t:  Note on ::  Channel 11.  Note 67.  Velocity 0
000000t:  Note on ::  Channel 11.  Note 71.  Velocity 0
000002t:  Note on ::  Channel 11.  Note 64.  Velocity 110
000094t:  Note on ::  Channel 11.  Note 64.  Velocity 0
000002t:  Note on ::  Channel 11.  Note 64.  Velocity 110
000000t:  Note on ::  Channel 11.  Note 69.  Velocity 110
000000t:  Note on ::  Channel 11.  Note 72.  Velocity 110
000094t:  Note on ::  Channel 11.  Note 64.  Velocity 0
000000t:  Note on ::  Channel 11.  Note 69.  Velocity 0
000000t:  Note on ::  Channel 11.  Note 72.  Velocity 0
000002t:  Note on ::  Channel 11.  Note 64.  Velocity 110
000000t:  Note on ::  Channel 11.  Note 67.  Velocity 110
000000t:  Note on ::  Channel 11.  Note 71.  Velocity 110
000094t:  Note on ::  Channel 11.  Note 64.  Velocity 0
000000t:  Note on ::  Channel 11.  Note 67.  Velocity 0
000000t:  Note on ::  Channel 11.  Note 71.  Velocity 0
000002t:  Note on ::  Channel 11.  Note 64.  Velocity 110
000094t:  Note on ::  Channel 11.  Note 64.  Velocity 0
000002t:  Note on ::  Channel 11.  Note 64.  Velocity 110
000000t:  Note on ::  Channel 11.  Note 71.  Velocity 110
000000t:  Note on ::  Channel 11.  Note 74.  Velocity 110
000094t:  Note on ::  Channel 11.  Note 64.  Velocity 0
000000t:  Note on ::  Channel 11.  Note 71.  Velocity 0
000000t:  Note on ::  Channel 11.  Note 74.  Velocity 0
000002t:  Note on ::  Channel 11.  Note 64.  Velocity 110
000000t:  Note on ::  Channel 11.  Note 69.  Velocity 110
000000t:  Note on ::  Channel 11.  Note 72.  Velocity 110
000094t:  Note on ::  Channel 11.  Note 64.  Velocity 0
000000t:  Note on ::  Channel 11.  Note 69.  Velocity 0
000000t:  Note on ::  Channel 11.  Note 72.  Velocity 0
000002t:  Note on ::  Channel 11.  Note 64.  Velocity 110
000094t:  Note on ::  Channel 11.  Note 64.  Velocity 0
000002t:  Note on ::  Channel 11.  Note 64.  Velocity 110
000000t:  Note on ::  Channel 11.  Note 72.  Velocity 110
000000t:  Note on ::  Channel 11.  Note 76.  Velocity 110
000094t:  Note on ::  Channel 11.  Note 64.  Velocity 0
000000t:  Note on ::  Channel 11.  Note 72.  Velocity 0
000000t:  Note on ::  Channel 11.  Note 76.  Velocity 0
000002t:  Note on ::  Channel 11.  Note 64.  Velocity 110
000000t:  Note on ::  Channel 11.  Note 71.  Velocity 110
000000t:  Note on ::  Channel 11.  Note 74.  Velocity 110
000094t:  Note on ::  Channel 11.  Note 64.  Velocity 0
000000t:  Note on ::  Channel 11.  Note 71.  Velocity 0
000000t:  Note on ::  Channel 11.  Note 74.  Velocity 0
000002t:  Note on ::  Channel 11.  Note 64.  Velocity 110
000094t:  Note on ::  Channel 11.  Note 64.  Velocity 0
000002t:  Note on ::  Channel 11.  Note 68.  Velocity 110
000000t:  Note on ::  Channel 11.  Note 74.  Velocity 110
000000t:  Note on ::  Channel 11.  Note 77.  Velocity 110
000094t:  Note on ::  Channel 11.  Note 68.  Velocity 0
000000t:  Note on ::  Channel 11.  Note 74.  Velocity 0
000000t:  Note on ::  Channel 11.  Note 77.  Velocity 0
000002t:  Note on ::  Channel 11.  Note 69.  Velocity 110
000000t:  Note on ::  Channel 11.  Note 72.  Velocity 110
000000t:  Note on ::  Channel 11.  Note 76.  Velocity 110
000094t:  Note on ::  Channel 11.  Note 69.  Velocity 0
000000t:  Note on ::  Channel 11.  Note 72.  Velocity 0
000000t:  Note on ::  Channel 11.  Note 76.  Velocity 0
000002t:  Note on ::  Channel 11.  Note 64.  Velocity 110
000094t:  Note on ::  Channel 11.  Note 64.  Velocity 0
000002t:  Note on ::  Channel 11.  Note 64.  Velocity 110
000094t:  Note on ::  Channel 11.  Note 64.  Velocity 0
000002t:  Note on ::  Channel 11.  Note 64.  Velocity 110
000000t:  Note on ::  Channel 11.  Note 69.  Velocity 110
000094t:  Note on ::  Channel 11.  Note 64.  Velocity 0
000000t:  Note on ::  Channel 11.  Note 69.  Velocity 0
000002t:  Note on ::  Channel 11.  Note 64.  Velocity 110
000000t:  Note on ::  Channel 11.  Note 67.  Velocity 110
000000t:  Note on ::  Channel 11.  Note 71.  Velocity 110
000094t:  Note on ::  Channel 11.  Note 64.  Velocity 0
000000t:  Note on ::  Channel 11.  Note 67.  Velocity 0
000000t:  Note on ::  Channel 11.  Note 71.  Velocity 0
000002t:  Note on ::  Channel 11.  Note 64.  Velocity 110
000094t:  Note on ::  Channel 11.  Note 64.  Velocity 0
000002t:  Note on ::  Channel 11.  Note 64.  Velocity 110
000000t:  Note on ::  Channel 11.  Note 69.  Velocity 110
000000t:  Note on ::  Channel 11.  Note 72.  Velocity 110
000094t:  Note on ::  Channel 11.  Note 64.  Velocity 0
000000t:  Note on ::  Channel 11.  Note 69.  Velocity 0
000000t:  Note on ::  Channel 11.  Note 72.  Velocity 0
000002t:  Note on ::  Channel 11.  Note 64.  Velocity 110
000000t:  Note on ::  Channel 11.  Note 67.  Velocity 110
000000t:  Note on ::  Channel 11.  Note 71.  Velocity 110
000094t:  Note on ::  Channel 11.  Note 64.  Velocity 0
000000t:  Note on ::  Channel 11.  Note 67.  Velocity 0
000000t:  Note on ::  Channel 11.  Note 71.  Velocity 0
000002t:  Note on ::  Channel 11.  Note 64.  Velocity 110
000094t:  Note on ::  Channel 11.  Note 64.  Velocity 0
000002t:  Note on ::  Channel 11.  Note 64.  Velocity 110
000000t:  Note on ::  Channel 11.  Note 71.  Velocity 110
000000t:  Note on ::  Channel 11.  Note 74.  Velocity 110
000094t:  Note on ::  Channel 11.  Note 64.  Velocity 0
000000t:  Note on ::  Channel 11.  Note 71.  Velocity 0
000000t:  Note on ::  Channel 11.  Note 74.  Velocity 0
000002t:  Note on ::  Channel 11.  Note 64.  Velocity 110
000000t:  Note on ::  Channel 11.  Note 69.  Velocity 110
000000t:  Note on ::  Channel 11.  Note 72.  Velocity 110
000094t:  Note on ::  Channel 11.  Note 64.  Velocity 0
000000t:  Note on ::  Channel 11.  Note 69.  Velocity 0
000000t:  Note on ::  Channel 11.  Note 72.  Velocity 0
000002t:  Note on ::  Channel 11.  Note 64.  Velocity 110
000094t:  Note on ::  Channel 11.  Note 64.  Velocity 0
000002t:  Note on ::  Channel 11.  Note 64.  Velocity 110
000000t:  Note on ::  Channel 11.  Note 72.  Velocity 110
000000t:  Note on ::  Channel 11.  Note 76.  Velocity 110
000094t:  Note on ::  Channel 11.  Note 64.  Velocity 0
000000t:  Note on ::  Channel 11.  Note 72.  Velocity 0
000000t:  Note on ::  Channel 11.  Note 76.  Velocity 0
000002t:  Note on ::  Channel 11.  Note 64.  Velocity 110
000000t:  Note on ::  Channel 11.  Note 71.  Velocity 110
000000t:  Note on ::  Channel 11.  Note 74.  Velocity 110
000094t:  Note on ::  Channel 11.  Note 64.  Velocity 0
000000t:  Note on ::  Channel 11.  Note 71.  Velocity 0
000000t:  Note on ::  Channel 11.  Note 74.  Velocity 0
000002t:  Note on ::  Channel 11.  Note 64.  Velocity 110
000094t:  Note on ::  Channel 11.  Note 64.  Velocity 0
000002t:  Note on ::  Channel 11.  Note 68.  Velocity 110
000000t:  Note on ::  Channel 11.  Note 74.  Velocity 110
000000t:  Note on ::  Channel 11.  Note 77.  Velocity 110
000094t:  Note on ::  Channel 11.  Note 68.  Velocity 0
000000t:  Note on ::  Channel 11.  Note 74.  Velocity 0
000000t:  Note on ::  Channel 11.  Note 77.  Velocity 0
000002t:  Note on ::  Channel 11.  Note 69.  Velocity 110
000000t:  Note on ::  Channel 11.  Note 72.  Velocity 110
000000t:  Note on ::  Channel 11.  Note 76.  Velocity 110
000094t:  Note on ::  Channel 11.  Note 69.  Velocity 0
000000t:  Note on ::  Channel 11.  Note 72.  Velocity 0
000000t:  Note on ::  Channel 11.  Note 76.  Velocity 0
000002t:  Note on ::  Channel 11.  Note 64.  Velocity 110
000094t:  Note on ::  Channel 11.  Note 64.  Velocity 0
002882t:  Note on ::  Channel 11.  Note 64.  Velocity 110
000094t:  Note on ::  Channel 11.  Note 64.  Velocity 0
000002t:  Note on ::  Channel 11.  Note 64.  Velocity 110
000000t:  Note on ::  Channel 11.  Note 69.  Velocity 110
000094t:  Note on ::  Channel 11.  Note 64.  Velocity 0
000000t:  Note on ::  Channel 11.  Note 69.  Velocity 0
000002t:  Note on ::  Channel 11.  Note 64.  Velocity 110
000000t:  Note on ::  Channel 11.  Note 67.  Velocity 110
000000t:  Note on ::  Channel 11.  Note 71.  Velocity 110
000094t:  Note on ::  Channel 11.  Note 64.  Velocity 0
000000t:  Note on ::  Channel 11.  Note 67.  Velocity 0
000000t:  Note on ::  Channel 11.  Note 71.  Velocity 0
000002t:  Note on ::  Channel 11.  Note 64.  Velocity 110
000094t:  Note on ::  Channel 11.  Note 64.  Velocity 0
000002t:  Note on ::  Channel 11.  Note 64.  Velocity 110
000000t:  Note on ::  Channel 11.  Note 69.  Velocity 110
000000t:  Note on ::  Channel 11.  Note 72.  Velocity 110
000094t:  Note on ::  Channel 11.  Note 64.  Velocity 0
000000t:  Note on ::  Channel 11.  Note 69.  Velocity 0
000000t:  Note on ::  Channel 11.  Note 72.  Velocity 0
000002t:  Note on ::  Channel 11.  Note 64.  Velocity 110
000000t:  Note on ::  Channel 11.  Note 67.  Velocity 110
000000t:  Note on ::  Channel 11.  Note 71.  Velocity 110
000094t:  Note on ::  Channel 11.  Note 64.  Velocity 0
000000t:  Note on ::  Channel 11.  Note 67.  Velocity 0
000000t:  Note on ::  Channel 11.  Note 71.  Velocity 0
000002t:  Note on ::  Channel 11.  Note 64.  Velocity 110
000094t:  Note on ::  Channel 11.  Note 64.  Velocity 0
000002t:  Note on ::  Channel 11.  Note 64.  Velocity 110
000000t:  Note on ::  Channel 11.  Note 71.  Velocity 110
000000t:  Note on ::  Channel 11.  Note 74.  Velocity 110
000094t:  Note on ::  Channel 11.  Note 64.  Velocity 0
000000t:  Note on ::  Channel 11.  Note 71.  Velocity 0
000000t:  Note on ::  Channel 11.  Note 74.  Velocity 0
000002t:  Note on ::  Channel 11.  Note 64.  Velocity 110
000000t:  Note on ::  Channel 11.  Note 69.  Velocity 110
000000t:  Note on ::  Channel 11.  Note 72.  Velocity 110
000094t:  Note on ::  Channel 11.  Note 64.  Velocity 0
000000t:  Note on ::  Channel 11.  Note 69.  Velocity 0
000000t:  Note on ::  Channel 11.  Note 72.  Velocity 0
000002t:  Note on ::  Channel 11.  Note 64.  Velocity 110
000094t:  Note on ::  Channel 11.  Note 64.  Velocity 0
000002t:  Note on ::  Channel 11.  Note 64.  Velocity 110
000000t:  Note on ::  Channel 11.  Note 72.  Velocity 110
000000t:  Note on ::  Channel 11.  Note 76.  Velocity 110
000094t:  Note on ::  Channel 11.  Note 64.  Velocity 0
000000t:  Note on ::  Channel 11.  Note 72.  Velocity 0
000000t:  Note on ::  Channel 11.  Note 76.  Velocity 0
000002t:  Note on ::  Channel 11.  Note 64.  Velocity 110
000000t:  Note on ::  Channel 11.  Note 71.  Velocity 110
000000t:  Note on ::  Channel 11.  Note 74.  Velocity 110
000094t:  Note on ::  Channel 11.  Note 64.  Velocity 0
000000t:  Note on ::  Channel 11.  Note 71.  Velocity 0
000000t:  Note on ::  Channel 11.  Note 74.  Velocity 0
000002t:  Note on ::  Channel 11.  Note 64.  Velocity 110
000094t:  Note on ::  Channel 11.  Note 64.  Velocity 0
000002t:  Note on ::  Channel 11.  Note 68.  Velocity 110
000000t:  Note on ::  Channel 11.  Note 74.  Velocity 110
000000t:  Note on ::  Channel 11.  Note 77.  Velocity 110
000094t:  Note on ::  Channel 11.  Note 68.  Velocity 0
000000t:  Note on ::  Channel 11.  Note 74.  Velocity 0
000000t:  Note on ::  Channel 11.  Note 77.  Velocity 0
000002t:  Note on ::  Channel 11.  Note 69.  Velocity 110
000000t:  Note on ::  Channel 11.  Note 72.  Velocity 110
000000t:  Note on ::  Channel 11.  Note 76.  Velocity 110
000094t:  Note on ::  Channel 11.  Note 69.  Velocity 0
000000t:  Note on ::  Channel 11.  Note 72.  Velocity 0
000000t:  Note on ::  Channel 11.  Note 76.  Velocity 0
000002t:  Note on ::  Channel 11.  Note 64.  Velocity 110
000094t:  Note on ::  Channel 11.  Note 64.  Velocity 0
000002t:  Note on ::  Channel 11.  Note 64.  Velocity 110
000094t:  Note on ::  Channel 11.  Note 64.  Velocity 0
000002t:  Note on ::  Channel 11.  Note 64.  Velocity 110
000000t:  Note on ::  Channel 11.  Note 69.  Velocity 110
000094t:  Note on ::  Channel 11.  Note 64.  Velocity 0
000000t:  Note on ::  Channel 11.  Note 69.  Velocity 0
000002t:  Note on ::  Channel 11.  Note 64.  Velocity 110
000000t:  Note on ::  Channel 11.  Note 67.  Velocity 110
000000t:  Note on ::  Channel 11.  Note 71.  Velocity 110
000094t:  Note on ::  Channel 11.  Note 64.  Velocity 0
000000t:  Note on ::  Channel 11.  Note 67.  Velocity 0
000000t:  Note on ::  Channel 11.  Note 71.  Velocity 0
000002t:  Note on ::  Channel 11.  Note 64.  Velocity 110
000094t:  Note on ::  Channel 11.  Note 64.  Velocity 0
000002t:  Note on ::  Channel 11.  Note 64.  Velocity 110
000000t:  Note on ::  Channel 11.  Note 69.  Velocity 110
000000t:  Note on ::  Channel 11.  Note 72.  Velocity 110
000094t:  Note on ::  Channel 11.  Note 64.  Velocity 0
000000t:  Note on ::  Channel 11.  Note 69.  Velocity 0
000000t:  Note on ::  Channel 11.  Note 72.  Velocity 0
000002t:  Note on ::  Channel 11.  Note 64.  Velocity 110
000000t:  Note on ::  Channel 11.  Note 67.  Velocity 110
000000t:  Note on ::  Channel 11.  Note 71.  Velocity 110
000094t:  Note on ::  Channel 11.  Note 64.  Velocity 0
000000t:  Note on ::  Channel 11.  Note 67.  Velocity 0
000000t:  Note on ::  Channel 11.  Note 71.  Velocity 0
000002t:  Note on ::  Channel 11.  Note 64.  Velocity 110
000094t:  Note on ::  Channel 11.  Note 64.  Velocity 0
000002t:  Note on ::  Channel 11.  Note 64.  Velocity 110
000000t:  Note on ::  Channel 11.  Note 71.  Velocity 110
000000t:  Note on ::  Channel 11.  Note 74.  Velocity 110
000094t:  Note on ::  Channel 11.  Note 64.  Velocity 0
000000t:  Note on ::  Channel 11.  Note 71.  Velocity 0
000000t:  Note on ::  Channel 11.  Note 74.  Velocity 0
000002t:  Note on ::  Channel 11.  Note 64.  Velocity 110
000000t:  Note on ::  Channel 11.  Note 69.  Velocity 110
000000t:  Note on ::  Channel 11.  Note 72.  Velocity 110
000094t:  Note on ::  Channel 11.  Note 64.  Velocity 0
000000t:  Note on ::  Channel 11.  Note 69.  Velocity 0
000000t:  Note on ::  Channel 11.  Note 72.  Velocity 0
000002t:  Note on ::  Channel 11.  Note 64.  Velocity 110
000094t:  Note on ::  Channel 11.  Note 64.  Velocity 0
000002t:  Note on ::  Channel 11.  Note 64.  Velocity 110
000000t:  Note on ::  Channel 11.  Note 72.  Velocity 110
000000t:  Note on ::  Channel 11.  Note 76.  Velocity 110
000094t:  Note on ::  Channel 11.  Note 64.  Velocity 0
000000t:  Note on ::  Channel 11.  Note 72.  Velocity 0
000000t:  Note on ::  Channel 11.  Note 76.  Velocity 0
000002t:  Note on ::  Channel 11.  Note 64.  Velocity 110
000000t:  Note on ::  Channel 11.  Note 71.  Velocity 110
000000t:  Note on ::  Channel 11.  Note 74.  Velocity 110
000094t:  Note on ::  Channel 11.  Note 64.  Velocity 0
000000t:  Note on ::  Channel 11.  Note 71.  Velocity 0
000000t:  Note on ::  Channel 11.  Note 74.  Velocity 0
000002t:  Note on ::  Channel 11.  Note 64.  Velocity 110
000094t:  Note on ::  Channel 11.  Note 64.  Velocity 0
000002t:  Note on ::  Channel 11.  Note 68.  Velocity 110
000000t:  Note on ::  Channel 11.  Note 74.  Velocity 110
000000t:  Note on ::  Channel 11.  Note 77.  Velocity 110
000094t:  Note on ::  Channel 11.  Note 68.  Velocity 0
000000t:  Note on ::  Channel 11.  Note 74.  Velocity 0
000000t:  Note on ::  Channel 11.  Note 77.  Velocity 0
000002t:  Note on ::  Channel 11.  Note 69.  Velocity 110
000000t:  Note on ::  Channel 11.  Note 72.  Velocity 110
000000t:  Note on ::  Channel 11.  Note 76.  Velocity 110
000094t:  Note on ::  Channel 11.  Note 69.  Velocity 0
000000t:  Note on ::  Channel 11.  Note 72.  Velocity 0
000000t:  Note on ::  Channel 11.  Note 76.  Velocity 0
000002t:  Note on ::  Channel 11.  Note 64.  Velocity 110
000094t:  Note on ::  Channel 11.  Note 64.  Velocity 0
010754t:  Note on ::  Channel 11.  Note 60.  Velocity 110
000000t:  Note on ::  Channel 11.  Note 72.  Velocity 110
000160t:  Note on ::  Channel 11.  Note 60.  Velocity 0
000000t:  Note on ::  Channel 11.  Note 72.  Velocity 0
000128t:  Note on ::  Channel 11.  Note 59.  Velocity 110
000000t:  Note on ::  Channel 11.  Note 71.  Velocity 110
000160t:  Note on ::  Channel 11.  Note 59.  Velocity 0
000000t:  Note on ::  Channel 11.  Note 71.  Velocity 0
000128t:  Note on ::  Channel 11.  Note 57.  Velocity 110
000000t:  Note on ::  Channel 11.  Note 69.  Velocity 110
000160t:  Note on ::  Channel 11.  Note 57.  Velocity 0
000000t:  Note on ::  Channel 11.  Note 69.  Velocity 0
000128t:  Note on ::  Channel 11.  Note 52.  Velocity 110
000000t:  Note on ::  Channel 11.  Note 64.  Velocity 110
000160t:  Note on ::  Channel 11.  Note 52.  Velocity 0
000000t:  Note on ::  Channel 11.  Note 64.  Velocity 0
000128t:  Note on ::  Channel 11.  Note 48.  Velocity 110
000000t:  Note on ::  Channel 11.  Note 60.  Velocity 110
000160t:  Note on ::  Channel 11.  Note 48.  Velocity 0
000000t:  Note on ::  Channel 11.  Note 60.  Velocity 0
003296t:  Note on ::  Channel 11.  Note 53.  Velocity 110
000720t:  Note on ::  Channel 11.  Note 53.  Velocity 0
000048t:  Note on ::  Channel 11.  Note 54.  Velocity 110
000720t:  Note on ::  Channel 11.  Note 54.  Velocity 0
000048t:  Note on ::  Channel 11.  Note 55.  Velocity 110
000720t:  Note on ::  Channel 11.  Note 55.  Velocity 0
000048t:  Note on ::  Channel 11.  Note 56.  Velocity 110
000720t:  Note on ::  Channel 11.  Note 56.  Velocity 0
007728t:  Note on ::  Channel 11.  Note 64.  Velocity 110
000094t:  Note on ::  Channel 11.  Note 64.  Velocity 0
000002t:  Note on ::  Channel 11.  Note 64.  Velocity 110
000000t:  Note on ::  Channel 11.  Note 69.  Velocity 110
000094t:  Note on ::  Channel 11.  Note 64.  Velocity 0
000000t:  Note on ::  Channel 11.  Note 69.  Velocity 0
000002t:  Note on ::  Channel 11.  Note 64.  Velocity 110
000000t:  Note on ::  Channel 11.  Note 67.  Velocity 110
000000t:  Note on ::  Channel 11.  Note 71.  Velocity 110
000094t:  Note on ::  Channel 11.  Note 64.  Velocity 0
000000t:  Note on ::  Channel 11.  Note 67.  Velocity 0
000000t:  Note on ::  Channel 11.  Note 71.  Velocity 0
000002t:  Note on ::  Channel 11.  Note 64.  Velocity 110
000094t:  Note on ::  Channel 11.  Note 64.  Velocity 0
000002t:  Note on ::  Channel 11.  Note 64.  Velocity 110
000000t:  Note on ::  Channel 11.  Note 69.  Velocity 110
000000t:  Note on ::  Channel 11.  Note 72.  Velocity 110
000094t:  Note on ::  Channel 11.  Note 64.  Velocity 0
000000t:  Note on ::  Channel 11.  Note 69.  Velocity 0
000000t:  Note on ::  Channel 11.  Note 72.  Velocity 0
000002t:  Note on ::  Channel 11.  Note 64.  Velocity 110
000000t:  Note on ::  Channel 11.  Note 67.  Velocity 110
000000t:  Note on ::  Channel 11.  Note 71.  Velocity 110
000094t:  Note on ::  Channel 11.  Note 64.  Velocity 0
000000t:  Note on ::  Channel 11.  Note 67.  Velocity 0
000000t:  Note on ::  Channel 11.  Note 71.  Velocity 0
000002t:  Note on ::  Channel 11.  Note 64.  Velocity 110
000094t:  Note on ::  Channel 11.  Note 64.  Velocity 0
000002t:  Note on ::  Channel 11.  Note 64.  Velocity 110
000000t:  Note on ::  Channel 11.  Note 71.  Velocity 110
000000t:  Note on ::  Channel 11.  Note 74.  Velocity 110
000094t:  Note on ::  Channel 11.  Note 64.  Velocity 0
000000t:  Note on ::  Channel 11.  Note 71.  Velocity 0
000000t:  Note on ::  Channel 11.  Note 74.  Velocity 0
000002t:  Note on ::  Channel 11.  Note 64.  Velocity 110
000000t:  Note on ::  Channel 11.  Note 69.  Velocity 110
000000t:  Note on ::  Channel 11.  Note 72.  Velocity 110
000094t:  Note on ::  Channel 11.  Note 64.  Velocity 0
000000t:  Note on ::  Channel 11.  Note 69.  Velocity 0
000000t:  Note on ::  Channel 11.  Note 72.  Velocity 0
000002t:  Note on ::  Channel 11.  Note 64.  Velocity 110
000094t:  Note on ::  Channel 11.  Note 64.  Velocity 0
000002t:  Note on ::  Channel 11.  Note 64.  Velocity 110
000000t:  Note on ::  Channel 11.  Note 72.  Velocity 110
000000t:  Note on ::  Channel 11.  Note 76.  Velocity 110
000094t:  Note on ::  Channel 11.  Note 64.  Velocity 0
000000t:  Note on ::  Channel 11.  Note 72.  Velocity 0
000000t:  Note on ::  Channel 11.  Note 76.  Velocity 0
000002t:  Note on ::  Channel 11.  Note 64.  Velocity 110
000000t:  Note on ::  Channel 11.  Note 71.  Velocity 110
000000t:  Note on ::  Channel 11.  Note 74.  Velocity 110
000094t:  Note on ::  Channel 11.  Note 64.  Velocity 0
000000t:  Note on ::  Channel 11.  Note 71.  Velocity 0
000000t:  Note on ::  Channel 11.  Note 74.  Velocity 0
000002t:  Note on ::  Channel 11.  Note 64.  Velocity 110
000094t:  Note on ::  Channel 11.  Note 64.  Velocity 0
000002t:  Note on ::  Channel 11.  Note 68.  Velocity 110
000000t:  Note on ::  Channel 11.  Note 74.  Velocity 110
000000t:  Note on ::  Channel 11.  Note 77.  Velocity 110
000094t:  Note on ::  Channel 11.  Note 68.  Velocity 0
000000t:  Note on ::  Channel 11.  Note 74.  Velocity 0
000000t:  Note on ::  Channel 11.  Note 77.  Velocity 0
000002t:  Note on ::  Channel 11.  Note 69.  Velocity 110
000000t:  Note on ::  Channel 11.  Note 72.  Velocity 110
000000t:  Note on ::  Channel 11.  Note 76.  Velocity 110
000094t:  Note on ::  Channel 11.  Note 69.  Velocity 0
000000t:  Note on ::  Channel 11.  Note 72.  Velocity 0
000000t:  Note on ::  Channel 11.  Note 76.  Velocity 0
000002t:  Note on ::  Channel 11.  Note 64.  Velocity 110
000094t:  Note on ::  Channel 11.  Note 64.  Velocity 0
000002t:  Note on ::  Channel 11.  Note 64.  Velocity 110
000094t:  Note on ::  Channel 11.  Note 64.  Velocity 0
000002t:  Note on ::  Channel 11.  Note 64.  Velocity 110
000000t:  Note on ::  Channel 11.  Note 69.  Velocity 110
000094t:  Note on ::  Channel 11.  Note 64.  Velocity 0
000000t:  Note on ::  Channel 11.  Note 69.  Velocity 0
000002t:  Note on ::  Channel 11.  Note 64.  Velocity 110
000000t:  Note on ::  Channel 11.  Note 67.  Velocity 110
000000t:  Note on ::  Channel 11.  Note 71.  Velocity 110
000094t:  Note on ::  Channel 11.  Note 64.  Velocity 0
000000t:  Note on ::  Channel 11.  Note 67.  Velocity 0
000000t:  Note on ::  Channel 11.  Note 71.  Velocity 0
000002t:  Note on ::  Channel 11.  Note 64.  Velocity 110
000094t:  Note on ::  Channel 11.  Note 64.  Velocity 0
000002t:  Note on ::  Channel 11.  Note 64.  Velocity 110
000000t:  Note on ::  Channel 11.  Note 69.  Velocity 110
000000t:  Note on ::  Channel 11.  Note 72.  Velocity 110
000094t:  Note on ::  Channel 11.  Note 64.  Velocity 0
000000t:  Note on ::  Channel 11.  Note 69.  Velocity 0
000000t:  Note on ::  Channel 11.  Note 72.  Velocity 0
000002t:  Note on ::  Channel 11.  Note 64.  Velocity 110
000000t:  Note on ::  Channel 11.  Note 67.  Velocity 110
000000t:  Note on ::  Channel 11.  Note 71.  Velocity 110
000094t:  Note on ::  Channel 11.  Note 64.  Velocity 0
000000t:  Note on ::  Channel 11.  Note 67.  Velocity 0
000000t:  Note on ::  Channel 11.  Note 71.  Velocity 0
000002t:  Note on ::  Channel 11.  Note 64.  Velocity 110
000094t:  Note on ::  Channel 11.  Note 64.  Velocity 0
000002t:  Note on ::  Channel 11.  Note 64.  Velocity 110
000000t:  Note on ::  Channel 11.  Note 71.  Velocity 110
000000t:  Note on ::  Channel 11.  Note 74.  Velocity 110
000094t:  Note on ::  Channel 11.  Note 64.  Velocity 0
000000t:  Note on ::  Channel 11.  Note 71.  Velocity 0
000000t:  Note on ::  Channel 11.  Note 74.  Velocity 0
000002t:  Note on ::  Channel 11.  Note 64.  Velocity 110
000000t:  Note on ::  Channel 11.  Note 69.  Velocity 110
000000t:  Note on ::  Channel 11.  Note 72.  Velocity 110
000094t:  Note on ::  Channel 11.  Note 64.  Velocity 0
000000t:  Note on ::  Channel 11.  Note 69.  Velocity 0
000000t:  Note on ::  Channel 11.  Note 72.  Velocity 0
000002t:  Note on ::  Channel 11.  Note 64.  Velocity 110
000094t:  Note on ::  Channel 11.  Note 64.  Velocity 0
000002t:  Note on ::  Channel 11.  Note 64.  Velocity 110
000000t:  Note on ::  Channel 11.  Note 72.  Velocity 110
000000t:  Note on ::  Channel 11.  Note 76.  Velocity 110
000094t:  Note on ::  Channel 11.  Note 64.  Velocity 0
000000t:  Note on ::  Channel 11.  Note 72.  Velocity 0
000000t:  Note on ::  Channel 11.  Note 76.  Velocity 0
000002t:  Note on ::  Channel 11.  Note 64.  Velocity 110
000000t:  Note on ::  Channel 11.  Note 71.  Velocity 110
000000t:  Note on ::  Channel 11.  Note 74.  Velocity 110
000094t:  Note on ::  Channel 11.  Note 64.  Velocity 0
000000t:  Note on ::  Channel 11.  Note 71.  Velocity 0
000000t:  Note on ::  Channel 11.  Note 74.  Velocity 0
000002t:  Note on ::  Channel 11.  Note 64.  Velocity 110
000094t:  Note on ::  Channel 11.  Note 64.  Velocity 0
000002t:  Note on ::  Channel 11.  Note 68.  Velocity 110
000000t:  Note on ::  Channel 11.  Note 74.  Velocity 110
000000t:  Note on ::  Channel 11.  Note 77.  Velocity 110
000094t:  Note on ::  Channel 11.  Note 68.  Velocity 0
000000t:  Note on ::  Channel 11.  Note 74.  Velocity 0
000000t:  Note on ::  Channel 11.  Note 77.  Velocity 0
000002t:  Note on ::  Channel 11.  Note 69.  Velocity 110
000000t:  Note on ::  Channel 11.  Note 72.  Velocity 110
000000t:  Note on ::  Channel 11.  Note 76.  Velocity 110
000094t:  Note on ::  Channel 11.  Note 69.  Velocity 0
000000t:  Note on ::  Channel 11.  Note 72.  Velocity 0
000000t:  Note on ::  Channel 11.  Note 76.  Velocity 0
000002t:  Note on ::  Channel 11.  Note 64.  Velocity 110
000094t:  Note on ::  Channel 11.  Note 64.  Velocity 0
002882t:  Note on ::  Channel 11.  Note 64.  Velocity 110
000094t:  Note on ::  Channel 11.  Note 64.  Velocity 0
000002t:  Note on ::  Channel 11.  Note 64.  Velocity 110
000000t:  Note on ::  Channel 11.  Note 69.  Velocity 110
000094t:  Note on ::  Channel 11.  Note 64.  Velocity 0
000000t:  Note on ::  Channel 11.  Note 69.  Velocity 0
000002t:  Note on ::  Channel 11.  Note 64.  Velocity 110
000000t:  Note on ::  Channel 11.  Note 67.  Velocity 110
000000t:  Note on ::  Channel 11.  Note 71.  Velocity 110
000094t:  Note on ::  Channel 11.  Note 64.  Velocity 0
000000t:  Note on ::  Channel 11.  Note 67.  Velocity 0
000000t:  Note on ::  Channel 11.  Note 71.  Velocity 0
000002t:  Note on ::  Channel 11.  Note 64.  Velocity 110
000094t:  Note on ::  Channel 11.  Note 64.  Velocity 0
000002t:  Note on ::  Channel 11.  Note 64.  Velocity 110
000000t:  Note on ::  Channel 11.  Note 69.  Velocity 110
000000t:  Note on ::  Channel 11.  Note 72.  Velocity 110
000094t:  Note on ::  Channel 11.  Note 64.  Velocity 0
000000t:  Note on ::  Channel 11.  Note 69.  Velocity 0
000000t:  Note on ::  Channel 11.  Note 72.  Velocity 0
000002t:  Note on ::  Channel 11.  Note 64.  Velocity 110
000000t:  Note on ::  Channel 11.  Note 67.  Velocity 110
000000t:  Note on ::  Channel 11.  Note 71.  Velocity 110
000094t:  Note on ::  Channel 11.  Note 64.  Velocity 0
000000t:  Note on ::  Channel 11.  Note 67.  Velocity 0
000000t:  Note on ::  Channel 11.  Note 71.  Velocity 0
000002t:  Note on ::  Channel 11.  Note 64.  Velocity 110
000094t:  Note on ::  Channel 11.  Note 64.  Velocity 0
000002t:  Note on ::  Channel 11.  Note 64.  Velocity 110
000000t:  Note on ::  Channel 11.  Note 71.  Velocity 110
000000t:  Note on ::  Channel 11.  Note 74.  Velocity 110
000094t:  Note on ::  Channel 11.  Note 64.  Velocity 0
000000t:  Note on ::  Channel 11.  Note 71.  Velocity 0
000000t:  Note on ::  Channel 11.  Note 74.  Velocity 0
000002t:  Note on ::  Channel 11.  Note 64.  Velocity 110
000000t:  Note on ::  Channel 11.  Note 69.  Velocity 110
000000t:  Note on ::  Channel 11.  Note 72.  Velocity 110
000094t:  Note on ::  Channel 11.  Note 64.  Velocity 0
000000t:  Note on ::  Channel 11.  Note 69.  Velocity 0
000000t:  Note on ::  Channel 11.  Note 72.  Velocity 0
000002t:  Note on ::  Channel 11.  Note 64.  Velocity 110
000094t:  Note on ::  Channel 11.  Note 64.  Velocity 0
000002t:  Note on ::  Channel 11.  Note 64.  Velocity 110
000000t:  Note on ::  Channel 11.  Note 72.  Velocity 110
000000t:  Note on ::  Channel 11.  Note 76.  Velocity 110
000094t:  Note on ::  Channel 11.  Note 64.  Velocity 0
000000t:  Note on ::  Channel 11.  Note 72.  Velocity 0
000000t:  Note on ::  Channel 11.  Note 76.  Velocity 0
000002t:  Note on ::  Channel 11.  Note 64.  Velocity 110
000000t:  Note on ::  Channel 11.  Note 71.  Velocity 110
000000t:  Note on ::  Channel 11.  Note 74.  Velocity 110
000094t:  Note on ::  Channel 11.  Note 64.  Velocity 0
000000t:  Note on ::  Channel 11.  Note 71.  Velocity 0
000000t:  Note on ::  Channel 11.  Note 74.  Velocity 0
000002t:  Note on ::  Channel 11.  Note 64.  Velocity 110
000094t:  Note on ::  Channel 11.  Note 64.  Velocity 0
000002t:  Note on ::  Channel 11.  Note 68.  Velocity 110
000000t:  Note on ::  Channel 11.  Note 74.  Velocity 110
000000t:  Note on ::  Channel 11.  Note 77.  Velocity 110
000094t:  Note on ::  Channel 11.  Note 68.  Velocity 0
000000t:  Note on ::  Channel 11.  Note 74.  Velocity 0
000000t:  Note on ::  Channel 11.  Note 77.  Velocity 0
000002t:  Note on ::  Channel 11.  Note 69.  Velocity 110
000000t:  Note on ::  Channel 11.  Note 72.  Velocity 110
000000t:  Note on ::  Channel 11.  Note 76.  Velocity 110
000094t:  Note on ::  Channel 11.  Note 69.  Velocity 0
000000t:  Note on ::  Channel 11.  Note 72.  Velocity 0
000000t:  Note on ::  Channel 11.  Note 76.  Velocity 0
000002t:  Note on ::  Channel 11.  Note 64.  Velocity 110
000094t:  Note on ::  Channel 11.  Note 64.  Velocity 0
000002t:  Note on ::  Channel 11.  Note 64.  Velocity 110
000094t:  Note on ::  Channel 11.  Note 64.  Velocity 0
000002t:  Note on ::  Channel 11.  Note 64.  Velocity 110
000000t:  Note on ::  Channel 11.  Note 69.  Velocity 110
000094t:  Note on ::  Channel 11.  Note 64.  Velocity 0
000000t:  Note on ::  Channel 11.  Note 69.  Velocity 0
000002t:  Note on ::  Channel 11.  Note 64.  Velocity 110
000000t:  Note on ::  Channel 11.  Note 67.  Velocity 110
000000t:  Note on ::  Channel 11.  Note 71.  Velocity 110
000094t:  Note on ::  Channel 11.  Note 64.  Velocity 0
000000t:  Note on ::  Channel 11.  Note 67.  Velocity 0
000000t:  Note on ::  Channel 11.  Note 71.  Velocity 0
000002t:  Note on ::  Channel 11.  Note 64.  Velocity 110
000094t:  Note on ::  Channel 11.  Note 64.  Velocity 0
000002t:  Note on ::  Channel 11.  Note 64.  Velocity 110
000000t:  Note on ::  Channel 11.  Note 69.  Velocity 110
000000t:  Note on ::  Channel 11.  Note 72.  Velocity 110
000094t:  Note on ::  Channel 11.  Note 64.  Velocity 0
000000t:  Note on ::  Channel 11.  Note 69.  Velocity 0
000000t:  Note on ::  Channel 11.  Note 72.  Velocity 0
000002t:  Note on ::  Channel 11.  Note 64.  Velocity 110
000000t:  Note on ::  Channel 11.  Note 67.  Velocity 110
000000t:  Note on ::  Channel 11.  Note 71.  Velocity 110
000094t:  Note on ::  Channel 11.  Note 64.  Velocity 0
000000t:  Note on ::  Channel 11.  Note 67.  Velocity 0
000000t:  Note on ::  Channel 11.  Note 71.  Velocity 0
000002t:  Note on ::  Channel 11.  Note 64.  Velocity 110
000094t:  Note on ::  Channel 11.  Note 64.  Velocity 0
000002t:  Note on ::  Channel 11.  Note 64.  Velocity 110
000000t:  Note on ::  Channel 11.  Note 71.  Velocity 110
000000t:  Note on ::  Channel 11.  Note 74.  Velocity 110
000094t:  Note on ::  Channel 11.  Note 64.  Velocity 0
000000t:  Note on ::  Channel 11.  Note 71.  Velocity 0
000000t:  Note on ::  Channel 11.  Note 74.  Velocity 0
000002t:  Note on ::  Channel 11.  Note 64.  Velocity 110
000000t:  Note on ::  Channel 11.  Note 69.  Velocity 110
000000t:  Note on ::  Channel 11.  Note 72.  Velocity 110
000094t:  Note on ::  Channel 11.  Note 64.  Velocity 0
000000t:  Note on ::  Channel 11.  Note 69.  Velocity 0
000000t:  Note on ::  Channel 11.  Note 72.  Velocity 0
000002t:  Note on ::  Channel 11.  Note 64.  Velocity 110
000094t:  Note on ::  Channel 11.  Note 64.  Velocity 0
000002t:  Note on ::  Channel 11.  Note 64.  Velocity 110
000000t:  Note on ::  Channel 11.  Note 72.  Velocity 110
000000t:  Note on ::  Channel 11.  Note 76.  Velocity 110
000094t:  Note on ::  Channel 11.  Note 64.  Velocity 0
000000t:  Note on ::  Channel 11.  Note 72.  Velocity 0
000000t:  Note on ::  Channel 11.  Note 76.  Velocity 0
000002t:  Note on ::  Channel 11.  Note 64.  Velocity 110
000000t:  Note on ::  Channel 11.  Note 71.  Velocity 110
000000t:  Note on ::  Channel 11.  Note 74.  Velocity 110
000094t:  Note on ::  Channel 11.  Note 64.  Velocity 0
000000t:  Note on ::  Channel 11.  Note 71.  Velocity 0
000000t:  Note on ::  Channel 11.  Note 74.  Velocity 0
000002t:  Note on ::  Channel 11.  Note 64.  Velocity 110
000094t:  Note on ::  Channel 11.  Note 64.  Velocity 0
000002t:  Note on ::  Channel 11.  Note 68.  Velocity 110
000000t:  Note on ::  Channel 11.  Note 74.  Velocity 110
000000t:  Note on ::  Channel 11.  Note 77.  Velocity 110
000094t:  Note on ::  Channel 11.  Note 68.  Velocity 0
000000t:  Note on ::  Channel 11.  Note 74.  Velocity 0
000000t:  Note on ::  Channel 11.  Note 77.  Velocity 0
000002t:  Note on ::  Channel 11.  Note 69.  Velocity 110
000000t:  Note on ::  Channel 11.  Note 72.  Velocity 110
000000t:  Note on ::  Channel 11.  Note 76.  Velocity 110
000094t:  Note on ::  Channel 11.  Note 69.  Velocity 0
000000t:  Note on ::  Channel 11.  Note 72.  Velocity 0
000000t:  Note on ::  Channel 11.  Note 76.  Velocity 0
000002t:  Note on ::  Channel 11.  Note 64.  Velocity 110
000094t:  Note on ::  Channel 11.  Note 64.  Velocity 0
010754t:  Note on ::  Channel 11.  Note 60.  Velocity 110
000000t:  Note on ::  Channel 11.  Note 72.  Velocity 110
000160t:  Note on ::  Channel 11.  Note 60.  Velocity 0
000000t:  Note on ::  Channel 11.  Note 72.  Velocity 0
000128t:  Note on ::  Channel 11.  Note 59.  Velocity 110
000000t:  Note on ::  Channel 11.  Note 71.  Velocity 110
000160t:  Note on ::  Channel 11.  Note 59.  Velocity 0
000000t:  Note on ::  Channel 11.  Note 71.  Velocity 0
000128t:  Note on ::  Channel 11.  Note 57.  Velocity 110
000000t:  Note on ::  Channel 11.  Note 69.  Velocity 110
000160t:  Note on ::  Channel 11.  Note 57.  Velocity 0
000000t:  Note on ::  Channel 11.  Note 69.  Velocity 0
000128t:  Note on ::  Channel 11.  Note 52.  Velocity 110
000000t:  Note on ::  Channel 11.  Note 64.  Velocity 110
000160t:  Note on ::  Channel 11.  Note 52.  Velocity 0
000000t:  Note on ::  Channel 11.  Note 64.  Velocity 0
000128t:  Note on ::  Channel 11.  Note 48.  Velocity 110
000000t:  Note on ::  Channel 11.  Note 60.  Velocity 110
000160t:  Note on ::  Channel 11.  Note 48.  Velocity 0
000000t:  Note on ::  Channel 11.  Note 60.  Velocity 0
003296t:  Note on ::  Channel 11.  Note 53.  Velocity 110
000720t:  Note on ::  Channel 11.  Note 53.  Velocity 0
000048t:  Note on ::  Channel 11.  Note 54.  Velocity 110
000720t:  Note on ::  Channel 11.  Note 54.  Velocity 0
000048t:  Note on ::  Channel 11.  Note 55.  Velocity 110
000720t:  Note on ::  Channel 11.  Note 55.  Velocity 0
000048t:  Note on ::  Channel 11.  Note 56.  Velocity 110
000720t:  Note on ::  Channel 11.  Note 56.  Velocity 0
007728t:  Note on ::  Channel 11.  Note 64.  Velocity 110
000094t:  Note on ::  Channel 11.  Note 64.  Velocity 0
000002t:  Note on ::  Channel 11.  Note 64.  Velocity 110
000000t:  Note on ::  Channel 11.  Note 69.  Velocity 110
000094t:  Note on ::  Channel 11.  Note 64.  Velocity 0
000000t:  Note on ::  Channel 11.  Note 69.  Velocity 0
000002t:  Note on ::  Channel 11.  Note 64.  Velocity 110
000000t:  Note on ::  Channel 11.  Note 67.  Velocity 110
000000t:  Note on ::  Channel 11.  Note 71.  Velocity 110
000094t:  Note on ::  Channel 11.  Note 64.  Velocity 0
000000t:  Note on ::  Channel 11.  Note 67.  Velocity 0
000000t:  Note on ::  Channel 11.  Note 71.  Velocity 0
000002t:  Note on ::  Channel 11.  Note 64.  Velocity 110
000094t:  Note on ::  Channel 11.  Note 64.  Velocity 0
000002t:  Note on ::  Channel 11.  Note 64.  Velocity 110
000000t:  Note on ::  Channel 11.  Note 69.  Velocity 110
000000t:  Note on ::  Channel 11.  Note 72.  Velocity 110
000094t:  Note on ::  Channel 11.  Note 64.  Velocity 0
000000t:  Note on ::  Channel 11.  Note 69.  Velocity 0
000000t:  Note on ::  Channel 11.  Note 72.  Velocity 0
000002t:  Note on ::  Channel 11.  Note 64.  Velocity 110
000000t:  Note on ::  Channel 11.  Note 67.  Velocity 110
000000t:  Note on ::  Channel 11.  Note 71.  Velocity 110
000094t:  Note on ::  Channel 11.  Note 64.  Velocity 0
000000t:  Note on ::  Channel 11.  Note 67.  Velocity 0
000000t:  Note on ::  Channel 11.  Note 71.  Velocity 0
000002t:  Note on ::  Channel 11.  Note 64.  Velocity 110
000094t:  Note on ::  Channel 11.  Note 64.  Velocity 0
000002t:  Note on ::  Channel 11.  Note 64.  Velocity 110
000000t:  Note on ::  Channel 11.  Note 71.  Velocity 110
000000t:  Note on ::  Channel 11.  Note 74.  Velocity 110
000094t:  Note on ::  Channel 11.  Note 64.  Velocity 0
000000t:  Note on ::  Channel 11.  Note 71.  Velocity 0
000000t:  Note on ::  Channel 11.  Note 74.  Velocity 0
000002t:  Note on ::  Channel 11.  Note 64.  Velocity 110
000000t:  Note on ::  Channel 11.  Note 69.  Velocity 110
000000t:  Note on ::  Channel 11.  Note 72.  Velocity 110
000094t:  Note on ::  Channel 11.  Note 64.  Velocity 0
000000t:  Note on ::  Channel 11.  Note 69.  Velocity 0
000000t:  Note on ::  Channel 11.  Note 72.  Velocity 0
000002t:  Note on ::  Channel 11.  Note 64.  Velocity 110
000094t:  Note on ::  Channel 11.  Note 64.  Velocity 0
000002t:  Note on ::  Channel 11.  Note 64.  Velocity 110
000000t:  Note on ::  Channel 11.  Note 72.  Velocity 110
000000t:  Note on ::  Channel 11.  Note 76.  Velocity 110
000094t:  Note on ::  Channel 11.  Note 64.  Velocity 0
000000t:  Note on ::  Channel 11.  Note 72.  Velocity 0
000000t:  Note on ::  Channel 11.  Note 76.  Velocity 0
000002t:  Note on ::  Channel 11.  Note 64.  Velocity 110
000000t:  Note on ::  Channel 11.  Note 71.  Velocity 110
000000t:  Note on ::  Channel 11.  Note 74.  Velocity 110
000094t:  Note on ::  Channel 11.  Note 64.  Velocity 0
000000t:  Note on ::  Channel 11.  Note 71.  Velocity 0
000000t:  Note on ::  Channel 11.  Note 74.  Velocity 0
000002t:  Note on ::  Channel 11.  Note 64.  Velocity 110
000094t:  Note on ::  Channel 11.  Note 64.  Velocity 0
000002t:  Note on ::  Channel 11.  Note 68.  Velocity 110
000000t:  Note on ::  Channel 11.  Note 74.  Velocity 110
000000t:  Note on ::  Channel 11.  Note 77.  Velocity 110
000094t:  Note on ::  Channel 11.  Note 68.  Velocity 0
000000t:  Note on ::  Channel 11.  Note 74.  Velocity 0
000000t:  Note on ::  Channel 11.  Note 77.  Velocity 0
000002t:  Note on ::  Channel 11.  Note 69.  Velocity 110
000000t:  Note on ::  Channel 11.  Note 72.  Velocity 110
000000t:  Note on ::  Channel 11.  Note 76.  Velocity 110
000094t:  Note on ::  Channel 11.  Note 69.  Velocity 0
000000t:  Note on ::  Channel 11.  Note 72.  Velocity 0
000000t:  Note on ::  Channel 11.  Note 76.  Velocity 0
000002t:  Note on ::  Channel 11.  Note 64.  Velocity 110
000094t:  Note on ::  Channel 11.  Note 64.  Velocity 0
000002t:  Note on ::  Channel 11.  Note 64.  Velocity 110
000094t:  Note on ::  Channel 11.  Note 64.  Velocity 0
000002t:  Note on ::  Channel 11.  Note 64.  Velocity 110
000000t:  Note on ::  Channel 11.  Note 69.  Velocity 110
000094t:  Note on ::  Channel 11.  Note 64.  Velocity 0
000000t:  Note on ::  Channel 11.  Note 69.  Velocity 0
000002t:  Note on ::  Channel 11.  Note 64.  Velocity 110
000000t:  Note on ::  Channel 11.  Note 67.  Velocity 110
000000t:  Note on ::  Channel 11.  Note 71.  Velocity 110
000094t:  Note on ::  Channel 11.  Note 64.  Velocity 0
000000t:  Note on ::  Channel 11.  Note 67.  Velocity 0
000000t:  Note on ::  Channel 11.  Note 71.  Velocity 0
000002t:  Note on ::  Channel 11.  Note 64.  Velocity 110
000094t:  Note on ::  Channel 11.  Note 64.  Velocity 0
000002t:  Note on ::  Channel 11.  Note 64.  Velocity 110
000000t:  Note on ::  Channel 11.  Note 69.  Velocity 110
000000t:  Note on ::  Channel 11.  Note 72.  Velocity 110
000094t:  Note on ::  Channel 11.  Note 64.  Velocity 0
000000t:  Note on ::  Channel 11.  Note 69.  Velocity 0
000000t:  Note on ::  Channel 11.  Note 72.  Velocity 0
000002t:  Note on ::  Channel 11.  Note 64.  Velocity 110
000000t:  Note on ::  Channel 11.  Note 67.  Velocity 110
000000t:  Note on ::  Channel 11.  Note 71.  Velocity 110
000094t:  Note on ::  Channel 11.  Note 64.  Velocity 0
000000t:  Note on ::  Channel 11.  Note 67.  Velocity 0
000000t:  Note on ::  Channel 11.  Note 71.  Velocity 0
000002t:  Note on ::  Channel 11.  Note 64.  Velocity 110
000094t:  Note on ::  Channel 11.  Note 64.  Velocity 0
000002t:  Note on ::  Channel 11.  Note 64.  Velocity 110
000000t:  Note on ::  Channel 11.  Note 71.  Velocity 110
000000t:  Note on ::  Channel 11.  Note 74.  Velocity 110
000094t:  Note on ::  Channel 11.  Note 64.  Velocity 0
000000t:  Note on ::  Channel 11.  Note 71.  Velocity 0
000000t:  Note on ::  Channel 11.  Note 74.  Velocity 0
000002t:  Note on ::  Channel 11.  Note 64.  Velocity 110
000000t:  Note on ::  Channel 11.  Note 69.  Velocity 110
000000t:  Note on ::  Channel 11.  Note 72.  Velocity 110
000094t:  Note on ::  Channel 11.  Note 64.  Velocity 0
000000t:  Note on ::  Channel 11.  Note 69.  Velocity 0
000000t:  Note on ::  Channel 11.  Note 72.  Velocity 0
000002t:  Note on ::  Channel 11.  Note 64.  Velocity 110
000094t:  Note on ::  Channel 11.  Note 64.  Velocity 0
000002t:  Note on ::  Channel 11.  Note 64.  Velocity 110
000000t:  Note on ::  Channel 11.  Note 72.  Velocity 110
000000t:  Note on ::  Channel 11.  Note 76.  Velocity 110
000094t:  Note on ::  Channel 11.  Note 64.  Velocity 0
000000t:  Note on ::  Channel 11.  Note 72.  Velocity 0
000000t:  Note on ::  Channel 11.  Note 76.  Velocity 0
000002t:  Note on ::  Channel 11.  Note 64.  Velocity 110
000000t:  Note on ::  Channel 11.  Note 71.  Velocity 110
000000t:  Note on ::  Channel 11.  Note 74.  Velocity 110
000094t:  Note on ::  Channel 11.  Note 64.  Velocity 0
000000t:  Note on ::  Channel 11.  Note 71.  Velocity 0
000000t:  Note on ::  Channel 11.  Note 74.  Velocity 0
000002t:  Note on ::  Channel 11.  Note 64.  Velocity 110
000094t:  Note on ::  Channel 11.  Note 64.  Velocity 0
000002t:  Note on ::  Channel 11.  Note 68.  Velocity 110
000000t:  Note on ::  Channel 11.  Note 74.  Velocity 110
000000t:  Note on ::  Channel 11.  Note 77.  Velocity 110
000094t:  Note on ::  Channel 11.  Note 68.  Velocity 0
000000t:  Note on ::  Channel 11.  Note 74.  Velocity 0
000000t:  Note on ::  Channel 11.  Note 77.  Velocity 0
000002t:  Note on ::  Channel 11.  Note 69.  Velocity 110
000000t:  Note on ::  Channel 11.  Note 72.  Velocity 110
000000t:  Note on ::  Channel 11.  Note 76.  Velocity 110
000094t:  Note on ::  Channel 11.  Note 69.  Velocity 0
000000t:  Note on ::  Channel 11.  Note 72.  Velocity 0
000000t:  Note on ::  Channel 11.  Note 76.  Velocity 0
000002t:  Note on ::  Channel 11.  Note 64.  Velocity 110
000094t:  Note on ::  Channel 11.  Note 64.  Velocity 0
002882t:  Note on ::  Channel 11.  Note 64.  Velocity 110
000094t:  Note on ::  Channel 11.  Note 64.  Velocity 0
000002t:  Note on ::  Channel 11.  Note 64.  Velocity 110
000000t:  Note on ::  Channel 11.  Note 69.  Velocity 110
000094t:  Note on ::  Channel 11.  Note 64.  Velocity 0
000000t:  Note on ::  Channel 11.  Note 69.  Velocity 0
000002t:  Note on ::  Channel 11.  Note 64.  Velocity 110
000000t:  Note on ::  Channel 11.  Note 67.  Velocity 110
000000t:  Note on ::  Channel 11.  Note 71.  Velocity 110
000094t:  Note on ::  Channel 11.  Note 64.  Velocity 0
000000t:  Note on ::  Channel 11.  Note 67.  Velocity 0
000000t:  Note on ::  Channel 11.  Note 71.  Velocity 0
000002t:  Note on ::  Channel 11.  Note 64.  Velocity 110
000094t:  Note on ::  Channel 11.  Note 64.  Velocity 0
000002t:  Note on ::  Channel 11.  Note 64.  Velocity 110
000000t:  Note on ::  Channel 11.  Note 69.  Velocity 110
000000t:  Note on ::  Channel 11.  Note 72.  Velocity 110
000094t:  Note on ::  Channel 11.  Note 64.  Velocity 0
000000t:  Note on ::  Channel 11.  Note 69.  Velocity 0
000000t:  Note on ::  Channel 11.  Note 72.  Velocity 0
000002t:  Note on ::  Channel 11.  Note 64.  Velocity 110
000000t:  Note on ::  Channel 11.  Note 67.  Velocity 110
000000t:  Note on ::  Channel 11.  Note 71.  Velocity 110
000094t:  Note on ::  Channel 11.  Note 64.  Velocity 0
000000t:  Note on ::  Channel 11.  Note 67.  Velocity 0
000000t:  Note on ::  Channel 11.  Note 71.  Velocity 0
000002t:  Note on ::  Channel 11.  Note 64.  Velocity 110
000094t:  Note on ::  Channel 11.  Note 64.  Velocity 0
000002t:  Note on ::  Channel 11.  Note 64.  Velocity 110
000000t:  Note on ::  Channel 11.  Note 71.  Velocity 110
000000t:  Note on ::  Channel 11.  Note 74.  Velocity 110
000094t:  Note on ::  Channel 11.  Note 64.  Velocity 0
000000t:  Note on ::  Channel 11.  Note 71.  Velocity 0
000000t:  Note on ::  Channel 11.  Note 74.  Velocity 0
000002t:  Note on ::  Channel 11.  Note 64.  Velocity 110
000000t:  Note on ::  Channel 11.  Note 69.  Velocity 110
000000t:  Note on ::  Channel 11.  Note 72.  Velocity 110
000094t:  Note on ::  Channel 11.  Note 64.  Velocity 0
000000t:  Note on ::  Channel 11.  Note 69.  Velocity 0
000000t:  Note on ::  Channel 11.  Note 72.  Velocity 0
000002t:  Note on ::  Channel 11.  Note 64.  Velocity 110
000094t:  Note on ::  Channel 11.  Note 64.  Velocity 0
000002t:  Note on ::  Channel 11.  Note 64.  Velocity 110
000000t:  Note on ::  Channel 11.  Note 72.  Velocity 110
000000t:  Note on ::  Channel 11.  Note 76.  Velocity 110
000094t:  Note on ::  Channel 11.  Note 64.  Velocity 0
000000t:  Note on ::  Channel 11.  Note 72.  Velocity 0
000000t:  Note on ::  Channel 11.  Note 76.  Velocity 0
000002t:  Note on ::  Channel 11.  Note 64.  Velocity 110
000000t:  Note on ::  Channel 11.  Note 71.  Velocity 110
000000t:  Note on ::  Channel 11.  Note 74.  Velocity 110
000094t:  Note on ::  Channel 11.  Note 64.  Velocity 0
000000t:  Note on ::  Channel 11.  Note 71.  Velocity 0
000000t:  Note on ::  Channel 11.  Note 74.  Velocity 0
000002t:  Note on ::  Channel 11.  Note 64.  Velocity 110
000094t:  Note on ::  Channel 11.  Note 64.  Velocity 0
000002t:  Note on ::  Channel 11.  Note 68.  Velocity 110
000000t:  Note on ::  Channel 11.  Note 74.  Velocity 110
000000t:  Note on ::  Channel 11.  Note 77.  Velocity 110
000094t:  Note on ::  Channel 11.  Note 68.  Velocity 0
000000t:  Note on ::  Channel 11.  Note 74.  Velocity 0
000000t:  Note on ::  Channel 11.  Note 77.  Velocity 0
000002t:  Note on ::  Channel 11.  Note 69.  Velocity 110
000000t:  Note on ::  Channel 11.  Note 72.  Velocity 110
000000t:  Note on ::  Channel 11.  Note 76.  Velocity 110
000094t:  Note on ::  Channel 11.  Note 69.  Velocity 0
000000t:  Note on ::  Channel 11.  Note 72.  Velocity 0
000000t:  Note on ::  Channel 11.  Note 76.  Velocity 0
000002t:  Note on ::  Channel 11.  Note 64.  Velocity 110
000094t:  Note on ::  Channel 11.  Note 64.  Velocity 0
000002t:  Note on ::  Channel 11.  Note 64.  Velocity 110
000094t:  Note on ::  Channel 11.  Note 64.  Velocity 0
000002t:  Note on ::  Channel 11.  Note 64.  Velocity 110
000000t:  Note on ::  Channel 11.  Note 69.  Velocity 110
000094t:  Note on ::  Channel 11.  Note 64.  Velocity 0
000000t:  Note on ::  Channel 11.  Note 69.  Velocity 0
000002t:  Note on ::  Channel 11.  Note 64.  Velocity 110
000000t:  Note on ::  Channel 11.  Note 67.  Velocity 110
000000t:  Note on ::  Channel 11.  Note 71.  Velocity 110
000094t:  Note on ::  Channel 11.  Note 64.  Velocity 0
000000t:  Note on ::  Channel 11.  Note 67.  Velocity 0
000000t:  Note on ::  Channel 11.  Note 71.  Velocity 0
000002t:  Note on ::  Channel 11.  Note 64.  Velocity 110
000094t:  Note on ::  Channel 11.  Note 64.  Velocity 0
000002t:  Note on ::  Channel 11.  Note 64.  Velocity 110
000000t:  Note on ::  Channel 11.  Note 69.  Velocity 110
000000t:  Note on ::  Channel 11.  Note 72.  Velocity 110
000094t:  Note on ::  Channel 11.  Note 64.  Velocity 0
000000t:  Note on ::  Channel 11.  Note 69.  Velocity 0
000000t:  Note on ::  Channel 11.  Note 72.  Velocity 0
000002t:  Note on ::  Channel 11.  Note 64.  Velocity 110
000000t:  Note on ::  Channel 11.  Note 67.  Velocity 110
000000t:  Note on ::  Channel 11.  Note 71.  Velocity 110
000094t:  Note on ::  Channel 11.  Note 64.  Velocity 0
000000t:  Note on ::  Channel 11.  Note 67.  Velocity 0
000000t:  Note on ::  Channel 11.  Note 71.  Velocity 0
000002t:  Note on ::  Channel 11.  Note 64.  Velocity 110
000094t:  Note on ::  Channel 11.  Note 64.  Velocity 0
000002t:  Note on ::  Channel 11.  Note 64.  Velocity 110
000000t:  Note on ::  Channel 11.  Note 71.  Velocity 110
000000t:  Note on ::  Channel 11.  Note 74.  Velocity 110
000094t:  Note on ::  Channel 11.  Note 64.  Velocity 0
000000t:  Note on ::  Channel 11.  Note 71.  Velocity 0
000000t:  Note on ::  Channel 11.  Note 74.  Velocity 0
000002t:  Note on ::  Channel 11.  Note 64.  Velocity 110
000000t:  Note on ::  Channel 11.  Note 69.  Velocity 110
000000t:  Note on ::  Channel 11.  Note 72.  Velocity 110
000094t:  Note on ::  Channel 11.  Note 64.  Velocity 0
000000t:  Note on ::  Channel 11.  Note 69.  Velocity 0
000000t:  Note on ::  Channel 11.  Note 72.  Velocity 0
000002t:  Note on ::  Channel 11.  Note 64.  Velocity 110
000094t:  Note on ::  Channel 11.  Note 64.  Velocity 0
000002t:  Note on ::  Channel 11.  Note 64.  Velocity 110
000000t:  Note on ::  Channel 11.  Note 72.  Velocity 110
000000t:  Note on ::  Channel 11.  Note 76.  Velocity 110
000094t:  Note on ::  Channel 11.  Note 64.  Velocity 0
000000t:  Note on ::  Channel 11.  Note 72.  Velocity 0
000000t:  Note on ::  Channel 11.  Note 76.  Velocity 0
000002t:  Note on ::  Channel 11.  Note 64.  Velocity 110
000000t:  Note on ::  Channel 11.  Note 71.  Velocity 110
000000t:  Note on ::  Channel 11.  Note 74.  Velocity 110
000094t:  Note on ::  Channel 11.  Note 64.  Velocity 0
000000t:  Note on ::  Channel 11.  Note 71.  Velocity 0
000000t:  Note on ::  Channel 11.  Note 74.  Velocity 0
000002t:  Note on ::  Channel 11.  Note 64.  Velocity 110
000094t:  Note on ::  Channel 11.  Note 64.  Velocity 0
000002t:  Note on ::  Channel 11.  Note 68.  Velocity 110
000000t:  Note on ::  Channel 11.  Note 74.  Velocity 110
000000t:  Note on ::  Channel 11.  Note 77.  Velocity 110
000094t:  Note on ::  Channel 11.  Note 68.  Velocity 0
000000t:  Note on ::  Channel 11.  Note 74.  Velocity 0
000000t:  Note on ::  Channel 11.  Note 77.  Velocity 0
000002t:  Note on ::  Channel 11.  Note 69.  Velocity 110
000000t:  Note on ::  Channel 11.  Note 72.  Velocity 110
000000t:  Note on ::  Channel 11.  Note 76.  Velocity 110
000094t:  Note on ::  Channel 11.  Note 69.  Velocity 0
000000t:  Note on ::  Channel 11.  Note 72.  Velocity 0
000000t:  Note on ::  Channel 11.  Note 76.  Velocity 0
000002t:  Note on ::  Channel 11.  Note 64.  Velocity 110
000094t:  Note on ::  Channel 11.  Note 64.  Velocity 0
003074t:  Control change ::  Channel 11.  Controller 7.  Value: 127
000024t:  Control change ::  Channel 11.  Controller 7.  Value: 126
000024t:  Control change ::  Channel 11.  Controller 7.  Value: 125
000024t:  Control change ::  Channel 11.  Controller 7.  Value: 124
000024t:  Control change ::  Channel 11.  Controller 7.  Value: 123
000024t:  Control change ::  Channel 11.  Controller 7.  Value: 122
000025t:  Control change ::  Channel 11.  Controller 7.  Value: 121
000024t:  Control change ::  Channel 11.  Controller 7.  Value: 120
000024t:  Control change ::  Channel 11.  Controller 7.  Value: 119
000024t:  Control change ::  Channel 11.  Controller 7.  Value: 118
000024t:  Control change ::  Channel 11.  Controller 7.  Value: 117
000025t:  Control change ::  Channel 11.  Controller 7.  Value: 116
000024t:  Control change ::  Channel 11.  Controller 7.  Value: 115
000024t:  Control change ::  Channel 11.  Controller 7.  Value: 114
000024t:  Control change ::  Channel 11.  Controller 7.  Value: 113
000024t:  Control change ::  Channel 11.  Controller 7.  Value: 112
000025t:  Control change ::  Channel 11.  Controller 7.  Value: 111
000024t:  Control change ::  Channel 11.  Controller 7.  Value: 110
000024t:  Control change ::  Channel 11.  Controller 7.  Value: 109
000024t:  Control change ::  Channel 11.  Controller 7.  Value: 108
000024t:  Control change ::  Channel 11.  Controller 7.  Value: 107
000024t:  Control change ::  Channel 11.  Controller 7.  Value: 106
000025t:  Control change ::  Channel 11.  Controller 7.  Value: 105
000024t:  Control change ::  Channel 11.  Controller 7.  Value: 104
000024t:  Control change ::  Channel 11.  Controller 7.  Value: 103
000024t:  Control change ::  Channel 11.  Controller 7.  Value: 102
000024t:  Control change ::  Channel 11.  Controller 7.  Value: 101
000025t:  Control change ::  Channel 11.  Controller 7.  Value: 100
000024t:  Control change ::  Channel 11.  Controller 7.  Value: 99
000024t:  Control change ::  Channel 11.  Controller 7.  Value: 98
000024t:  Control change ::  Channel 11.  Controller 7.  Value: 97
000024t:  Control change ::  Channel 11.  Controller 7.  Value: 96
000025t:  Control change ::  Channel 11.  Controller 7.  Value: 95
000024t:  Control change ::  Channel 11.  Controller 7.  Value: 94
000024t:  Control change ::  Channel 11.  Controller 7.  Value: 93
000024t:  Control change ::  Channel 11.  Controller 7.  Value: 92
000024t:  Control change ::  Channel 11.  Controller 7.  Value: 91
000024t:  Control change ::  Channel 11.  Controller 7.  Value: 90
000025t:  Control change ::  Channel 11.  Controller 7.  Value: 89
000024t:  Control change ::  Channel 11.  Controller 7.  Value: 88
000024t:  Control change ::  Channel 11.  Controller 7.  Value: 87
000024t:  Control change ::  Channel 11.  Controller 7.  Value: 86
000024t:  Control change ::  Channel 11.  Controller 7.  Value: 85
000025t:  Control change ::  Channel 11.  Controller 7.  Value: 84
000024t:  Control change ::  Channel 11.  Controller 7.  Value: 83
000024t:  Control change ::  Channel 11.  Controller 7.  Value: 82
000024t:  Control change ::  Channel 11.  Controller 7.  Value: 81
000024t:  Control change ::  Channel 11.  Controller 7.  Value: 80
000025t:  Control change ::  Channel 11.  Controller 7.  Value: 79
000024t:  Control change ::  Channel 11.  Controller 7.  Value: 78
000024t:  Control change ::  Channel 11.  Controller 7.  Value: 77
000024t:  Control change ::  Channel 11.  Controller 7.  Value: 76
000024t:  Control change ::  Channel 11.  Controller 7.  Value: 75
000025t:  Control change ::  Channel 11.  Controller 7.  Value: 74
000024t:  Control change ::  Channel 11.  Controller 7.  Value: 73
000024t:  Control change ::  Channel 11.  Controller 7.  Value: 72
000024t:  Control change ::  Channel 11.  Controller 7.  Value: 71
000024t:  Control change ::  Channel 11.  Controller 7.  Value: 70
000024t:  Control change ::  Channel 11.  Controller 7.  Value: 69
000025t:  Control change ::  Channel 11.  Controller 7.  Value: 68
000024t:  Control change ::  Channel 11.  Controller 7.  Value: 67
000024t:  Control change ::  Channel 11.  Controller 7.  Value: 66
000024t:  Control change ::  Channel 11.  Controller 7.  Value: 65
000024t:  Control change ::  Channel 11.  Controller 7.  Value: 64
000025t:  Control change ::  Channel 11.  Controller 7.  Value: 63
000024t:  Control change ::  Channel 11.  Controller 7.  Value: 62
000024t:  Control change ::  Channel 11.  Controller 7.  Value: 61
000024t:  Control change ::  Channel 11.  Controller 7.  Value: 60
000024t:  Control change ::  Channel 11.  Controller 7.  Value: 59
000025t:  Control change ::  Channel 11.  Controller 7.  Value: 58
000024t:  Control change ::  Channel 11.  Controller 7.  Value: 57
000024t:  Control change ::  Channel 11.  Controller 7.  Value: 56
000024t:  Control change ::  Channel 11.  Controller 7.  Value: 55
000024t:  Control change ::  Channel 11.  Controller 7.  Value: 54
000024t:  Control change ::  Channel 11.  Controller 7.  Value: 53
000025t:  Control change ::  Channel 11.  Controller 7.  Value: 52
000024t:  Control change ::  Channel 11.  Controller 7.  Value: 51
000024t:  Control change ::  Channel 11.  Controller 7.  Value: 50
000024t:  Control change ::  Channel 11.  Controller 7.  Value: 49
000024t:  Control change ::  Channel 11.  Controller 7.  Value: 48
000025t:  Control change ::  Channel 11.  Controller 7.  Value: 47
000024t:  Control change ::  Channel 11.  Controller 7.  Value: 46
000024t:  Control change ::  Channel 11.  Controller 7.  Value: 45
000024t:  Control change ::  Channel 11.  Controller 7.  Value: 44
000024t:  Control change ::  Channel 11.  Controller 7.  Value: 43
000025t:  Control change ::  Channel 11.  Controller 7.  Value: 42
000024t:  Control change ::  Channel 11.  Controller 7.  Value: 41
000024t:  Control change ::  Channel 11.  Controller 7.  Value: 40
000024t:  Control change ::  Channel 11.  Controller 7.  Value: 39
000024t:  Control change ::  Channel 11.  Controller 7.  Value: 38
000025t:  Control change ::  Channel 11.  Controller 7.  Value: 37
000024t:  Control change ::  Channel 11.  Controller 7.  Value: 36
000024t:  Control change ::  Channel 11.  Controller 7.  Value: 35
000024t:  Control change ::  Channel 11.  Controller 7.  Value: 34
000024t:  Control change ::  Channel 11.  Controller 7.  Value: 33
000024t:  Control change ::  Channel 11.  Controller 7.  Value: 32
000025t:  Control change ::  Channel 11.  Controller 7.  Value: 31
000024t:  Control change ::  Channel 11.  Controller 7.  Value: 30
000024t:  Control change ::  Channel 11.  Controller 7.  Value: 29
000024t:  Control change ::  Channel 11.  Controller 7.  Value: 28
000024t:  Control change ::  Channel 11.  Controller 7.  Value: 27
000025t:  Control change ::  Channel 11.  Controller 7.  Value: 26
000024t:  Control change ::  Channel 11.  Controller 7.  Value: 25
000024t:  Control change ::  Channel 11.  Controller 7.  Value: 24
000024t:  Control change ::  Channel 11.  Controller 7.  Value: 23
000024t:  Control change ::  Channel 11.  Controller 7.  Value: 22
000025t:  Control change ::  Channel 11.  Controller 7.  Value: 21
000024t:  Control change ::  Channel 11.  Controller 7.  Value: 20
000024t:  Control change ::  Channel 11.  Controller 7.  Value: 19
000024t:  Control change ::  Channel 11.  Controller 7.  Value: 18
000024t:  Control change ::  Channel 11.  Controller 7.  Value: 17
000024t:  Control change ::  Channel 11.  Controller 7.  Value: 16
000025t:  Control change ::  Channel 11.  Controller 7.  Value: 15
000024t:  Control change ::  Channel 11.  Controller 7.  Value: 14
000024t:  Control change ::  Channel 11.  Controller 7.  Value: 13
000024t:  Control change ::  Channel 11.  Controller 7.  Value: 12
000024t:  Control change ::  Channel 11.  Controller 7.  Value: 11
000025t:  Control change ::  Channel 11.  Controller 7.  Value: 10
000024t:  Control change ::  Channel 11.  Controller 7.  Value: 9
000024t:  Control change ::  Channel 11.  Controller 7.  Value: 8
000024t:  Control change ::  Channel 11.  Controller 7.  Value: 7
000024t:  Control change ::  Channel 11.  Controller 7.  Value: 6
000025t:  Control change ::  Channel 11.  Controller 7.  Value: 5
000024t:  Control change ::  Channel 11.  Controller 7.  Value: 4
000024t:  Control change ::  Channel 11.  Controller 7.  Value: 3
000024t:  Control change ::  Channel 11.  Controller 7.  Value: 2
000024t:  Control change ::  Channel 11.  Controller 7.  Value: 1
000025t:  Control change ::  Channel 11.  Controller 7.  Value: 0
000000t:  Meta-event type $2f (End-track event) of length 0
Sigma t = 87264

Track chunk of 1254 bytes
000000t:  Meta-event type $21 (?) of length 1
	  _
000000t:  Meta-event type $03 (Track name) of length 22
	  The first FF9 MIDI out
000000t:  Program (patch) change ::  Channel 13.  Patch 56 (Trumpet)
000000t:  Control change ::  Channel 13.  Controller 7.  Value: 127
000000t:  Control change ::  Channel 13.  Controller 10.  Value: 64
005856t:  Note on ::  Channel 13.  Note 81.  Velocity 110
000094t:  Note on ::  Channel 13.  Note 81.  Velocity 0
000002t:  Note on ::  Channel 13.  Note 79.  Velocity 110
000094t:  Note on ::  Channel 13.  Note 79.  Velocity 0
000002t:  Note on ::  Channel 13.  Note 77.  Velocity 110
000094t:  Note on ::  Channel 13.  Note 77.  Velocity 0
000002t:  Note on ::  Channel 13.  Note 76.  Velocity 110
000094t:  Note on ::  Channel 13.  Note 76.  Velocity 0
000002t:  Note on ::  Channel 13.  Note 74.  Velocity 110
000256t:  Note on ::  Channel 13.  Note 74.  Velocity 0
000032t:  Note on ::  Channel 13.  Note 76.  Velocity 110
000256t:  Note on ::  Channel 13.  Note 76.  Velocity 0
000032t:  Note on ::  Channel 13.  Note 77.  Velocity 110
000256t:  Note on ::  Channel 13.  Note 77.  Velocity 0
000032t:  Note on ::  Channel 13.  Note 79.  Velocity 110
000256t:  Note on ::  Channel 13.  Note 79.  Velocity 0
000032t:  Note on ::  Channel 13.  Note 81.  Velocity 110
000160t:  Note on ::  Channel 13.  Note 81.  Velocity 0
000032t:  Note on ::  Channel 13.  Note 83.  Velocity 110
000160t:  Note on ::  Channel 13.  Note 83.  Velocity 0
015392t:  Note on ::  Channel 13.  Note 77.  Velocity 110
000046t:  Note on ::  Channel 13.  Note 77.  Velocity 0
000050t:  Note on ::  Channel 13.  Note 76.  Velocity 110
000046t:  Note on ::  Channel 13.  Note 76.  Velocity 0
000050t:  Note on ::  Channel 13.  Note 77.  Velocity 110
000046t:  Note on ::  Channel 13.  Note 77.  Velocity 0
000050t:  Note on ::  Channel 13.  Note 72.  Velocity 110
000046t:  Note on ::  Channel 13.  Note 72.  Velocity 0
000050t:  Note on ::  Channel 13.  Note 69.  Velocity 110
000046t:  Note on ::  Channel 13.  Note 69.  Velocity 0
000050t:  Note on ::  Channel 13.  Note 72.  Velocity 110
000046t:  Note on ::  Channel 13.  Note 72.  Velocity 0
000050t:  Note on ::  Channel 13.  Note 77.  Velocity 110
000912t:  Note on ::  Channel 13.  Note 77.  Velocity 0
000048t:  Note on ::  Channel 13.  Note 79.  Velocity 110
000046t:  Note on ::  Channel 13.  Note 79.  Velocity 0
000050t:  Note on ::  Channel 13.  Note 78.  Velocity 110
000046t:  Note on ::  Channel 13.  Note 78.  Velocity 0
000050t:  Note on ::  Channel 13.  Note 79.  Velocity 110
000046t:  Note on ::  Channel 13.  Note 79.  Velocity 0
000050t:  Note on ::  Channel 13.  Note 74.  Velocity 110
000046t:  Note on ::  Channel 13.  Note 74.  Velocity 0
000050t:  Note on ::  Channel 13.  Note 71.  Velocity 110
000046t:  Note on ::  Channel 13.  Note 71.  Velocity 0
000050t:  Note on ::  Channel 13.  Note 74.  Velocity 110
000046t:  Note on ::  Channel 13.  Note 74.  Velocity 0
000050t:  Note on ::  Channel 13.  Note 79.  Velocity 110
000912t:  Note on ::  Channel 13.  Note 79.  Velocity 0
003120t:  Note on ::  Channel 13.  Note 69.  Velocity 110
000288t:  Note on ::  Channel 13.  Note 69.  Velocity 0
000000t:  Note on ::  Channel 13.  Note 71.  Velocity 110
000288t:  Note on ::  Channel 13.  Note 71.  Velocity 0
000000t:  Note on ::  Channel 13.  Note 72.  Velocity 110
000192t:  Note on ::  Channel 13.  Note 72.  Velocity 0
000000t:  Note on ::  Channel 13.  Note 74.  Velocity 110
000768t:  Note on ::  Channel 13.  Note 74.  Velocity 0
000000t:  Note on ::  Channel 13.  Note 74.  Velocity 110
000048t:  Note on ::  Channel 13.  Note 74.  Velocity 0
000048t:  Note on ::  Channel 13.  Note 73.  Velocity 110
000048t:  Note on ::  Channel 13.  Note 73.  Velocity 0
000048t:  Note on ::  Channel 13.  Note 74.  Velocity 110
000048t:  Note on ::  Channel 13.  Note 74.  Velocity 0
000048t:  Note on ::  Channel 13.  Note 71.  Velocity 110
000048t:  Note on ::  Channel 13.  Note 71.  Velocity 0
000048t:  Note on ::  Channel 13.  Note 67.  Velocity 110
000048t:  Note on ::  Channel 13.  Note 67.  Velocity 0
000048t:  Note on ::  Channel 13.  Note 74.  Velocity 110
000048t:  Note on ::  Channel 13.  Note 74.  Velocity 0
000048t:  Note on ::  Channel 13.  Note 77.  Velocity 110
000048t:  Note on ::  Channel 13.  Note 77.  Velocity 0
000048t:  Note on ::  Channel 13.  Note 76.  Velocity 110
000864t:  Note on ::  Channel 13.  Note 76.  Velocity 0
008640t:  Note on ::  Channel 13.  Note 81.  Velocity 110
000094t:  Note on ::  Channel 13.  Note 81.  Velocity 0
000002t:  Note on ::  Channel 13.  Note 79.  Velocity 110
000094t:  Note on ::  Channel 13.  Note 79.  Velocity 0
000002t:  Note on ::  Channel 13.  Note 77.  Velocity 110
000094t:  Note on ::  Channel 13.  Note 77.  Velocity 0
000002t:  Note on ::  Channel 13.  Note 76.  Velocity 110
000094t:  Note on ::  Channel 13.  Note 76.  Velocity 0
000002t:  Note on ::  Channel 13.  Note 74.  Velocity 110
000256t:  Note on ::  Channel 13.  Note 74.  Velocity 0
000032t:  Note on ::  Channel 13.  Note 76.  Velocity 110
000256t:  Note on ::  Channel 13.  Note 76.  Velocity 0
000032t:  Note on ::  Channel 13.  Note 77.  Velocity 110
000256t:  Note on ::  Channel 13.  Note 77.  Velocity 0
000032t:  Note on ::  Channel 13.  Note 79.  Velocity 110
000256t:  Note on ::  Channel 13.  Note 79.  Velocity 0
000032t:  Note on ::  Channel 13.  Note 81.  Velocity 110
000160t:  Note on ::  Channel 13.  Note 81.  Velocity 0
000032t:  Note on ::  Channel 13.  Note 83.  Velocity 110
000160t:  Note on ::  Channel 13.  Note 83.  Velocity 0
015392t:  Note on ::  Channel 13.  Note 77.  Velocity 110
000046t:  Note on ::  Channel 13.  Note 77.  Velocity 0
000050t:  Note on ::  Channel 13.  Note 76.  Velocity 110
000046t:  Note on ::  Channel 13.  Note 76.  Velocity 0
000050t:  Note on ::  Channel 13.  Note 77.  Velocity 110
000046t:  Note on ::  Channel 13.  Note 77.  Velocity 0
000050t:  Note on ::  Channel 13.  Note 72.  Velocity 110
000046t:  Note on ::  Channel 13.  Note 72.  Velocity 0
000050t:  Note on ::  Channel 13.  Note 69.  Velocity 110
000046t:  Note on ::  Channel 13.  Note 69.  Velocity 0
000050t:  Note on ::  Channel 13.  Note 72.  Velocity 110
000046t:  Note on ::  Channel 13.  Note 72.  Velocity 0
000050t:  Note on ::  Channel 13.  Note 77.  Velocity 110
000912t:  Note on ::  Channel 13.  Note 77.  Velocity 0
000048t:  Note on ::  Channel 13.  Note 79.  Velocity 110
000046t:  Note on ::  Channel 13.  Note 79.  Velocity 0
000050t:  Note on ::  Channel 13.  Note 78.  Velocity 110
000046t:  Note on ::  Channel 13.  Note 78.  Velocity 0
000050t:  Note on ::  Channel 13.  Note 79.  Velocity 110
000046t:  Note on ::  Channel 13.  Note 79.  Velocity 0
000050t:  Note on ::  Channel 13.  Note 74.  Velocity 110
000046t:  Note on ::  Channel 13.  Note 74.  Velocity 0
000050t:  Note on ::  Channel 13.  Note 71.  Velocity 110
000046t:  Note on ::  Channel 13.  Note 71.  Velocity 0
000050t:  Note on ::  Channel 13.  Note 74.  Velocity 110
000046t:  Note on ::  Channel 13.  Note 74.  Velocity 0
000050t:  Note on ::  Channel 13.  Note 79.  Velocity 110
000912t:  Note on ::  Channel 13.  Note 79.  Velocity 0
003120t:  Note on ::  Channel 13.  Note 69.  Velocity 110
000288t:  Note on ::  Channel 13.  Note 69.  Velocity 0
000000t:  Note on ::  Channel 13.  Note 71.  Velocity 110
000288t:  Note on ::  Channel 13.  Note 71.  Velocity 0
000000t:  Note on ::  Channel 13.  Note 72.  Velocity 110
000192t:  Note on ::  Channel 13.  Note 72.  Velocity 0
000000t:  Note on ::  Channel 13.  Note 74.  Velocity 110
000768t:  Note on ::  Channel 13.  Note 74.  Velocity 0
000000t:  Note on ::  Channel 13.  Note 74.  Velocity 110
000048t:  Note on ::  Channel 13.  Note 74.  Velocity 0
000048t:  Note on ::  Channel 13.  Note 73.  Velocity 110
000048t:  Note on ::  Channel 13.  Note 73.  Velocity 0
000048t:  Note on ::  Channel 13.  Note 74.  Velocity 110
000048t:  Note on ::  Channel 13.  Note 74.  Velocity 0
000048t:  Note on ::  Channel 13.  Note 71.  Velocity 110
000048t:  Note on ::  Channel 13.  Note 71.  Velocity 0
000048t:  Note on ::  Channel 13.  Note 67.  Velocity 110
000048t:  Note on ::  Channel 13.  Note 67.  Velocity 0
000048t:  Note on ::  Channel 13.  Note 74.  Velocity 110
000048t:  Note on ::  Channel 13.  Note 74.  Velocity 0
000048t:  Note on ::  Channel 13.  Note 77.  Velocity 110
000048t:  Note on ::  Channel 13.  Note 77.  Velocity 0
000048t:  Note on ::  Channel 13.  Note 76.  Velocity 110
000864t:  Note on ::  Channel 13.  Note 76.  Velocity 0
008640t:  Note on ::  Channel 13.  Note 81.  Velocity 110
000094t:  Note on ::  Channel 13.  Note 81.  Velocity 0
000002t:  Note on ::  Channel 13.  Note 79.  Velocity 110
000094t:  Note on ::  Channel 13.  Note 79.  Velocity 0
000002t:  Note on ::  Channel 13.  Note 77.  Velocity 110
000094t:  Note on ::  Channel 13.  Note 77.  Velocity 0
000002t:  Note on ::  Channel 13.  Note 76.  Velocity 110
000094t:  Note on ::  Channel 13.  Note 76.  Velocity 0
000002t:  Note on ::  Channel 13.  Note 74.  Velocity 110
000256t:  Note on ::  Channel 13.  Note 74.  Velocity 0
000032t:  Note on ::  Channel 13.  Note 76.  Velocity 110
000256t:  Note on ::  Channel 13.  Note 76.  Velocity 0
000032t:  Note on ::  Channel 13.  Note 77.  Velocity 110
000256t:  Note on ::  Channel 13.  Note 77.  Velocity 0
000032t:  Note on ::  Channel 13.  Note 79.  Velocity 110
000256t:  Note on ::  Channel 13.  Note 79.  Velocity 0
000032t:  Note on ::  Channel 13.  Note 81.  Velocity 110
000160t:  Note on ::  Channel 13.  Note 81.  Velocity 0
000032t:  Note on ::  Channel 13.  Note 83.  Velocity 110
000160t:  Note on ::  Channel 13.  Note 83.  Velocity 0
006176t:  Control change ::  Channel 13.  Controller 7.  Value: 127
000024t:  Control change ::  Channel 13.  Controller 7.  Value: 126
000024t:  Control change ::  Channel 13.  Controller 7.  Value: 125
000024t:  Control change ::  Channel 13.  Controller 7.  Value: 124
000024t:  Control change ::  Channel 13.  Controller 7.  Value: 123
000024t:  Control change ::  Channel 13.  Controller 7.  Value: 122
000025t:  Control change ::  Channel 13.  Controller 7.  Value: 121
000024t:  Control change ::  Channel 13.  Controller 7.  Value: 120
000024t:  Control change ::  Channel 13.  Controller 7.  Value: 119
000024t:  Control change ::  Channel 13.  Controller 7.  Value: 118
000024t:  Control change ::  Channel 13.  Controller 7.  Value: 117
000025t:  Control change ::  Channel 13.  Controller 7.  Value: 116
000024t:  Control change ::  Channel 13.  Controller 7.  Value: 115
000024t:  Control change ::  Channel 13.  Controller 7.  Value: 114
000024t:  Control change ::  Channel 13.  Controller 7.  Value: 113
000024t:  Control change ::  Channel 13.  Controller 7.  Value: 112
000025t:  Control change ::  Channel 13.  Controller 7.  Value: 111
000024t:  Control change ::  Channel 13.  Controller 7.  Value: 110
000024t:  Control change ::  Channel 13.  Controller 7.  Value: 109
000024t:  Control change ::  Channel 13.  Controller 7.  Value: 108
000024t:  Control change ::  Channel 13.  Controller 7.  Value: 107
000024t:  Control change ::  Channel 13.  Controller 7.  Value: 106
000025t:  Control change ::  Channel 13.  Controller 7.  Value: 105
000024t:  Control change ::  Channel 13.  Controller 7.  Value: 104
000024t:  Control change ::  Channel 13.  Controller 7.  Value: 103
000024t:  Control change ::  Channel 13.  Controller 7.  Value: 102
000024t:  Control change ::  Channel 13.  Controller 7.  Value: 101
000025t:  Control change ::  Channel 13.  Controller 7.  Value: 100
000024t:  Control change ::  Channel 13.  Controller 7.  Value: 99
000024t:  Control change ::  Channel 13.  Controller 7.  Value: 98
000024t:  Control change ::  Channel 13.  Controller 7.  Value: 97
000024t:  Control change ::  Channel 13.  Controller 7.  Value: 96
000025t:  Control change ::  Channel 13.  Controller 7.  Value: 95
000024t:  Control change ::  Channel 13.  Controller 7.  Value: 94
000024t:  Control change ::  Channel 13.  Controller 7.  Value: 93
000024t:  Control change ::  Channel 13.  Controller 7.  Value: 92
000024t:  Control change ::  Channel 13.  Controller 7.  Value: 91
000024t:  Control change ::  Channel 13.  Controller 7.  Value: 90
000025t:  Control change ::  Channel 13.  Controller 7.  Value: 89
000024t:  Control change ::  Channel 13.  Controller 7.  Value: 88
000024t:  Control change ::  Channel 13.  Controller 7.  Value: 87
000024t:  Control change ::  Channel 13.  Controller 7.  Value: 86
000024t:  Control change ::  Channel 13.  Controller 7.  Value: 85
000025t:  Control change ::  Channel 13.  Controller 7.  Value: 84
000024t:  Control change ::  Channel 13.  Controller 7.  Value: 83
000024t:  Control change ::  Channel 13.  Controller 7.  Value: 82
000024t:  Control change ::  Channel 13.  Controller 7.  Value: 81
000024t:  Control change ::  Channel 13.  Controller 7.  Value: 80
000025t:  Control change ::  Channel 13.  Controller 7.  Value: 79
000024t:  Control change ::  Channel 13.  Controller 7.  Value: 78
000024t:  Control change ::  Channel 13.  Controller 7.  Value: 77
000024t:  Control change ::  Channel 13.  Controller 7.  Value: 76
000024t:  Control change ::  Channel 13.  Controller 7.  Value: 75
000025t:  Control change ::  Channel 13.  Controller 7.  Value: 74
000024t:  Control change ::  Channel 13.  Controller 7.  Value: 73
000024t:  Control change ::  Channel 13.  Controller 7.  Value: 72
000024t:  Control change ::  Channel 13.  Controller 7.  Value: 71
000024t:  Control change ::  Channel 13.  Controller 7.  Value: 70
000024t:  Control change ::  Channel 13.  Controller 7.  Value: 69
000025t:  Control change ::  Channel 13.  Controller 7.  Value: 68
000024t:  Control change ::  Channel 13.  Controller 7.  Value: 67
000024t:  Control change ::  Channel 13.  Controller 7.  Value: 66
000024t:  Control change ::  Channel 13.  Controller 7.  Value: 65
000024t:  Control change ::  Channel 13.  Controller 7.  Value: 64
000025t:  Control change ::  Channel 13.  Controller 7.  Value: 63
000024t:  Control change ::  Channel 13.  Controller 7.  Value: 62
000024t:  Control change ::  Channel 13.  Controller 7.  Value: 61
000024t:  Control change ::  Channel 13.  Controller 7.  Value: 60
000024t:  Control change ::  Channel 13.  Controller 7.  Value: 59
000025t:  Control change ::  Channel 13.  Controller 7.  Value: 58
000024t:  Control change ::  Channel 13.  Controller 7.  Value: 57
000024t:  Control change ::  Channel 13.  Controller 7.  Value: 56
000024t:  Control change ::  Channel 13.  Controller 7.  Value: 55
000024t:  Control change ::  Channel 13.  Controller 7.  Value: 54
000024t:  Control change ::  Channel 13.  Controller 7.  Value: 53
000025t:  Control change ::  Channel 13.  Controller 7.  Value: 52
000024t:  Control change ::  Channel 13.  Controller 7.  Value: 51
000024t:  Control change ::  Channel 13.  Controller 7.  Value: 50
000024t:  Control change ::  Channel 13.  Controller 7.  Value: 49
000024t:  Control change ::  Channel 13.  Controller 7.  Value: 48
000025t:  Control change ::  Channel 13.  Controller 7.  Value: 47
000024t:  Control change ::  Channel 13.  Controller 7.  Value: 46
000024t:  Control change ::  Channel 13.  Controller 7.  Value: 45
000024t:  Control change ::  Channel 13.  Controller 7.  Value: 44
000024t:  Control change ::  Channel 13.  Controller 7.  Value: 43
000025t:  Control change ::  Channel 13.  Controller 7.  Value: 42
000024t:  Control change ::  Channel 13.  Controller 7.  Value: 41
000024t:  Control change ::  Channel 13.  Controller 7.  Value: 40
000024t:  Control change ::  Channel 13.  Controller 7.  Value: 39
000024t:  Control change ::  Channel 13.  Controller 7.  Value: 38
000025t:  Control change ::  Channel 13.  Controller 7.  Value: 37
000024t:  Control change ::  Channel 13.  Controller 7.  Value: 36
000024t:  Control change ::  Channel 13.  Controller 7.  Value: 35
000024t:  Control change ::  Channel 13.  Controller 7.  Value: 34
000024t:  Control change ::  Channel 13.  Controller 7.  Value: 33
000024t:  Control change ::  Channel 13.  Controller 7.  Value: 32
000025t:  Control change ::  Channel 13.  Controller 7.  Value: 31
000024t:  Control change ::  Channel 13.  Controller 7.  Value: 30
000024t:  Control change ::  Channel 13.  Controller 7.  Value: 29
000024t:  Control change ::  Channel 13.  Controller 7.  Value: 28
000024t:  Control change ::  Channel 13.  Controller 7.  Value: 27
000025t:  Control change ::  Channel 13.  Controller 7.  Value: 26
000024t:  Control change ::  Channel 13.  Controller 7.  Value: 25
000024t:  Control change ::  Channel 13.  Controller 7.  Value: 24
000024t:  Control change ::  Channel 13.  Controller 7.  Value: 23
000024t:  Control change ::  Channel 13.  Controller 7.  Value: 22
000025t:  Control change ::  Channel 13.  Controller 7.  Value: 21
000024t:  Control change ::  Channel 13.  Controller 7.  Value: 20
000024t:  Control change ::  Channel 13.  Controller 7.  Value: 19
000024t:  Control change ::  Channel 13.  Controller 7.  Value: 18
000024t:  Control change ::  Channel 13.  Controller 7.  Value: 17
000024t:  Control change ::  Channel 13.  Controller 7.  Value: 16
000025t:  Control change ::  Channel 13.  Controller 7.  Value: 15
000024t:  Control change ::  Channel 13.  Controller 7.  Value: 14
000024t:  Control change ::  Channel 13.  Controller 7.  Value: 13
000024t:  Control change ::  Channel 13.  Controller 7.  Value: 12
000024t:  Control change ::  Channel 13.  Controller 7.  Value: 11
000025t:  Control change ::  Channel 13.  Controller 7.  Value: 10
000024t:  Control change ::  Channel 13.  Controller 7.  Value: 9
000024t:  Control change ::  Channel 13.  Controller 7.  Value: 8
000024t:  Control change ::  Channel 13.  Controller 7.  Value: 7
000024t:  Control change ::  Channel 13.  Controller 7.  Value: 6
000025t:  Control change ::  Channel 13.  Controller 7.  Value: 5
000024t:  Control change ::  Channel 13.  Controller 7.  Value: 4
000024t:  Control change ::  Channel 13.  Controller 7.  Value: 3
000024t:  Control change ::  Channel 13.  Controller 7.  Value: 2
000024t:  Control change ::  Channel 13.  Controller 7.  Value: 1
000025t:  Control change ::  Channel 13.  Controller 7.  Value: 0
000000t:  Meta-event type $2f (End-track event) of length 0
Sigma t = 87264

Track chunk of 3707 bytes
000000t:  Meta-event type $21 (?) of length 1
	  _
000000t:  Meta-event type $03 (Track name) of length 24
	  there.. completed 7/6/00
000000t:  Program (patch) change ::  Channel 14.  Patch 71 (Clarinet)
000000t:  Control change ::  Channel 14.  Controller 7.  Value: 127
000000t:  Control change ::  Channel 14.  Controller 10.  Value: 64
000000t:  Control change ::  Channel 14.  Controller 7.  Value: 64
007296t:  Note on ::  Channel 14.  Note 60.  Velocity 110
000096t:  Note on ::  Channel 14.  Note 60.  Velocity 0
000000t:  Note on ::  Channel 14.  Note 59.  Velocity 110
000096t:  Note on ::  Channel 14.  Note 59.  Velocity 0
000000t:  Note on ::  Channel 14.  Note 60.  Velocity 110
000096t:  Note on ::  Channel 14.  Note 60.  Velocity 0
000000t:  Note on ::  Channel 14.  Note 59.  Velocity 110
000096t:  Note on ::  Channel 14.  Note 59.  Velocity 0
000000t:  Note on ::  Channel 14.  Note 60.  Velocity 110
000096t:  Note on ::  Channel 14.  Note 60.  Velocity 0
000000t:  Control change ::  Channel 14.  Controller 7.  Value: 64
000000t:  Note on ::  Channel 14.  Note 57.  Velocity 110
000000t:  Note on ::  Channel 14.  Note 60.  Velocity 110
000000t:  Note on ::  Channel 14.  Note 64.  Velocity 110
000096t:  Control change ::  Channel 14.  Controller 7.  Value: 65
000096t:  Control change ::  Channel 14.  Controller 7.  Value: 66
000096t:  Control change ::  Channel 14.  Controller 7.  Value: 67
000096t:  Note on ::  Channel 14.  Note 57.  Velocity 0
000000t:  Note on ::  Channel 14.  Note 60.  Velocity 0
000000t:  Note on ::  Channel 14.  Note 64.  Velocity 0
000000t:  Control change ::  Channel 14.  Controller 7.  Value: 68
000000t:  Note on ::  Channel 14.  Note 55.  Velocity 110
000000t:  Note on ::  Channel 14.  Note 59.  Velocity 110
000000t:  Note on ::  Channel 14.  Note 62.  Velocity 110
000096t:  Control change ::  Channel 14.  Controller 7.  Value: 69
000096t:  Control change ::  Channel 14.  Controller 7.  Value: 70
000096t:  Control change ::  Channel 14.  Controller 7.  Value: 71
000096t:  Note on ::  Channel 14.  Note 55.  Velocity 0
000000t:  Note on ::  Channel 14.  Note 59.  Velocity 0
000000t:  Note on ::  Channel 14.  Note 62.  Velocity 0
000000t:  Control change ::  Channel 14.  Controller 7.  Value: 72
000000t:  Note on ::  Channel 14.  Note 57.  Velocity 110
000000t:  Note on ::  Channel 14.  Note 60.  Velocity 110
000000t:  Note on ::  Channel 14.  Note 64.  Velocity 110
000096t:  Control change ::  Channel 14.  Controller 7.  Value: 73
000096t:  Control change ::  Channel 14.  Controller 7.  Value: 74
000096t:  Control change ::  Channel 14.  Controller 7.  Value: 75
000096t:  Note on ::  Channel 14.  Note 57.  Velocity 0
000000t:  Note on ::  Channel 14.  Note 60.  Velocity 0
000000t:  Note on ::  Channel 14.  Note 64.  Velocity 0
000000t:  Control change ::  Channel 14.  Controller 7.  Value: 76
000000t:  Note on ::  Channel 14.  Note 55.  Velocity 110
000000t:  Note on ::  Channel 14.  Note 59.  Velocity 110
000000t:  Note on ::  Channel 14.  Note 62.  Velocity 110
000096t:  Control change ::  Channel 14.  Controller 7.  Value: 77
000096t:  Control change ::  Channel 14.  Controller 7.  Value: 78
000096t:  Control change ::  Channel 14.  Controller 7.  Value: 79
000096t:  Note on ::  Channel 14.  Note 55.  Velocity 0
000000t:  Note on ::  Channel 14.  Note 59.  Velocity 0
000000t:  Note on ::  Channel 14.  Note 62.  Velocity 0
000000t:  Control change ::  Channel 14.  Controller 7.  Value: 80
000000t:  Note on ::  Channel 14.  Note 57.  Velocity 110
000000t:  Note on ::  Channel 14.  Note 60.  Velocity 110
000000t:  Note on ::  Channel 14.  Note 64.  Velocity 110
000096t:  Control change ::  Channel 14.  Controller 7.  Value: 81
000096t:  Control change ::  Channel 14.  Controller 7.  Value: 82
000096t:  Control change ::  Channel 14.  Controller 7.  Value: 83
000096t:  Note on ::  Channel 14.  Note 57.  Velocity 0
000000t:  Note on ::  Channel 14.  Note 60.  Velocity 0
000000t:  Note on ::  Channel 14.  Note 64.  Velocity 0
000000t:  Control change ::  Channel 14.  Controller 7.  Value: 84
000000t:  Note on ::  Channel 14.  Note 55.  Velocity 110
000000t:  Note on ::  Channel 14.  Note 59.  Velocity 110
000000t:  Note on ::  Channel 14.  Note 62.  Velocity 110
000096t:  Control change ::  Channel 14.  Controller 7.  Value: 85
000096t:  Control change ::  Channel 14.  Controller 7.  Value: 86
000096t:  Control change ::  Channel 14.  Controller 7.  Value: 87
000096t:  Note on ::  Channel 14.  Note 55.  Velocity 0
000000t:  Note on ::  Channel 14.  Note 59.  Velocity 0
000000t:  Note on ::  Channel 14.  Note 62.  Velocity 0
000000t:  Control change ::  Channel 14.  Controller 7.  Value: 88
000000t:  Note on ::  Channel 14.  Note 57.  Velocity 110
000000t:  Note on ::  Channel 14.  Note 60.  Velocity 110
000000t:  Note on ::  Channel 14.  Note 64.  Velocity 110
000096t:  Control change ::  Channel 14.  Controller 7.  Value: 89
000096t:  Control change ::  Channel 14.  Controller 7.  Value: 90
000096t:  Control change ::  Channel 14.  Controller 7.  Value: 91
000096t:  Note on ::  Channel 14.  Note 57.  Velocity 0
000000t:  Note on ::  Channel 14.  Note 60.  Velocity 0
000000t:  Note on ::  Channel 14.  Note 64.  Velocity 0
000000t:  Control change ::  Channel 14.  Controller 7.  Value: 92
000000t:  Note on ::  Channel 14.  Note 55.  Velocity 110
000000t:  Note on ::  Channel 14.  Note 59.  Velocity 110
000000t:  Note on ::  Channel 14.  Note 62.  Velocity 110
000096t:  Control change ::  Channel 14.  Controller 7.  Value: 93
000096t:  Control change ::  Channel 14.  Controller 7.  Value: 94
000096t:  Control change ::  Channel 14.  Controller 7.  Value: 95
000096t:  Note on ::  Channel 14.  Note 55.  Velocity 0
000000t:  Note on ::  Channel 14.  Note 59.  Velocity 0
000000t:  Note on ::  Channel 14.  Note 62.  Velocity 0
000000t:  Control change ::  Channel 14.  Controller 7.  Value: 96
000000t:  Control change ::  Channel 14.  Controller 7.  Value: 64
000000t:  Note on ::  Channel 14.  Note 57.  Velocity 110
000000t:  Note on ::  Channel 14.  Note 60.  Velocity 110
000000t:  Note on ::  Channel 14.  Note 64.  Velocity 110
000384t:  Note on ::  Channel 14.  Note 57.  Velocity 0
000000t:  Note on ::  Channel 14.  Note 60.  Velocity 0
000000t:  Note on ::  Channel 14.  Note 64.  Velocity 0
000000t:  Note on ::  Channel 14.  Note 58.  Velocity 110
000000t:  Note on ::  Channel 14.  Note 62.  Velocity 110
000000t:  Note on ::  Channel 14.  Note 65.  Velocity 110
000336t:  Note on ::  Channel 14.  Note 58.  Velocity 0
000000t:  Note on ::  Channel 14.  Note 62.  Velocity 0
000000t:  Note on ::  Channel 14.  Note 65.  Velocity 0
000048t:  Note on ::  Channel 14.  Note 57.  Velocity 110
000000t:  Note on ::  Channel 14.  Note 60.  Velocity 110
000000t:  Note on ::  Channel 14.  Note 64.  Velocity 110
000384t:  Note on ::  Channel 14.  Note 57.  Velocity 0
000000t:  Note on ::  Channel 14.  Note 60.  Velocity 0
000000t:  Note on ::  Channel 14.  Note 64.  Velocity 0
000000t:  Note on ::  Channel 14.  Note 58.  Velocity 110
000000t:  Note on ::  Channel 14.  Note 62.  Velocity 110
000000t:  Note on ::  Channel 14.  Note 65.  Velocity 110
000336t:  Note on ::  Channel 14.  Note 58.  Velocity 0
000000t:  Note on ::  Channel 14.  Note 62.  Velocity 0
000000t:  Note on ::  Channel 14.  Note 65.  Velocity 0
000048t:  Note on ::  Channel 14.  Note 57.  Velocity 110
000000t:  Note on ::  Channel 14.  Note 60.  Velocity 110
000000t:  Note on ::  Channel 14.  Note 64.  Velocity 110
000384t:  Note on ::  Channel 14.  Note 57.  Velocity 0
000000t:  Note on ::  Channel 14.  Note 60.  Velocity 0
000000t:  Note on ::  Channel 14.  Note 64.  Velocity 0
000000t:  Note on ::  Channel 14.  Note 55.  Velocity 110
000000t:  Note on ::  Channel 14.  Note 59.  Velocity 110
000000t:  Note on ::  Channel 14.  Note 62.  Velocity 110
000384t:  Note on ::  Channel 14.  Note 55.  Velocity 0
000000t:  Note on ::  Channel 14.  Note 59.  Velocity 0
000000t:  Note on ::  Channel 14.  Note 62.  Velocity 0
000000t:  Note on ::  Channel 14.  Note 57.  Velocity 110
000000t:  Note on ::  Channel 14.  Note 60.  Velocity 110
000000t:  Note on ::  Channel 14.  Note 64.  Velocity 110
000384t:  Note on ::  Channel 14.  Note 57.  Velocity 0
000000t:  Note on ::  Channel 14.  Note 60.  Velocity 0
000000t:  Note on ::  Channel 14.  Note 64.  Velocity 0
000000t:  Note on ::  Channel 14.  Note 55.  Velocity 110
000000t:  Note on ::  Channel 14.  Note 59.  Velocity 110
000000t:  Note on ::  Channel 14.  Note 62.  Velocity 110
000384t:  Note on ::  Channel 14.  Note 55.  Velocity 0
000000t:  Note on ::  Channel 14.  Note 59.  Velocity 0
000000t:  Note on ::  Channel 14.  Note 62.  Velocity 0
000000t:  Note on ::  Channel 14.  Note 53.  Velocity 110
000000t:  Note on ::  Channel 14.  Note 57.  Velocity 110
000000t:  Note on ::  Channel 14.  Note 60.  Velocity 110
000768t:  Note on ::  Channel 14.  Note 53.  Velocity 0
000000t:  Note on ::  Channel 14.  Note 57.  Velocity 0
000000t:  Note on ::  Channel 14.  Note 60.  Velocity 0
000000t:  Note on ::  Channel 14.  Note 55.  Velocity 110
000000t:  Note on ::  Channel 14.  Note 59.  Velocity 110
000000t:  Note on ::  Channel 14.  Note 62.  Velocity 110
000768t:  Note on ::  Channel 14.  Note 55.  Velocity 0
000000t:  Note on ::  Channel 14.  Note 59.  Velocity 0
000000t:  Note on ::  Channel 14.  Note 62.  Velocity 0
000000t:  Note on ::  Channel 14.  Note 57.  Velocity 110
000000t:  Note on ::  Channel 14.  Note 60.  Velocity 110
000000t:  Note on ::  Channel 14.  Note 64.  Velocity 110
000384t:  Note on ::  Channel 14.  Note 57.  Velocity 0
000000t:  Note on ::  Channel 14.  Note 60.  Velocity 0
000000t:  Note on ::  Channel 14.  Note 64.  Velocity 0
000000t:  Note on ::  Channel 14.  Note 55.  Velocity 110
000000t:  Note on ::  Channel 14.  Note 59.  Velocity 110
000000t:  Note on ::  Channel 14.  Note 62.  Velocity 110
000384t:  Note on ::  Channel 14.  Note 55.  Velocity 0
000000t:  Note on ::  Channel 14.  Note 59.  Velocity 0
000000t:  Note on ::  Channel 14.  Note 62.  Velocity 0
000000t:  Note on ::  Channel 14.  Note 57.  Velocity 110
000000t:  Note on ::  Channel 14.  Note 60.  Velocity 110
000000t:  Note on ::  Channel 14.  Note 64.  Velocity 110
000384t:  Note on ::  Channel 14.  Note 57.  Velocity 0
000000t:  Note on ::  Channel 14.  Note 60.  Velocity 0
000000t:  Note on ::  Channel 14.  Note 64.  Velocity 0
000000t:  Note on ::  Channel 14.  Note 55.  Velocity 110
000000t:  Note on ::  Channel 14.  Note 59.  Velocity 110
000000t:  Note on ::  Channel 14.  Note 62.  Velocity 110
000384t:  Note on ::  Channel 14.  Note 55.  Velocity 0
000000t:  Note on ::  Channel 14.  Note 59.  Velocity 0
000000t:  Note on ::  Channel 14.  Note 62.  Velocity 0
000000t:  Note on ::  Channel 14.  Note 57.  Velocity 110
000000t:  Note on ::  Channel 14.  Note 60.  Velocity 110
000000t:  Note on ::  Channel 14.  Note 64.  Velocity 110
000384t:  Note on ::  Channel 14.  Note 57.  Velocity 0
000000t:  Note on ::  Channel 14.  Note 60.  Velocity 0
000000t:  Note on ::  Channel 14.  Note 64.  Velocity 0
000000t:  Note on ::  Channel 14.  Note 58.  Velocity 110
000000t:  Note on ::  Channel 14.  Note 62.  Velocity 110
000000t:  Note on ::  Channel 14.  Note 65.  Velocity 110
000336t:  Note on ::  Channel 14.  Note 58.  Velocity 0
000000t:  Note on ::  Channel 14.  Note 62.  Velocity 0
000000t:  Note on ::  Channel 14.  Note 65.  Velocity 0
000048t:  Note on ::  Channel 14.  Note 57.  Velocity 110
000000t:  Note on ::  Channel 14.  Note 60.  Velocity 110
000000t:  Note on ::  Channel 14.  Note 64.  Velocity 110
000384t:  Note on ::  Channel 14.  Note 57.  Velocity 0
000000t:  Note on ::  Channel 14.  Note 60.  Velocity 0
000000t:  Note on ::  Channel 14.  Note 64.  Velocity 0
000000t:  Note on ::  Channel 14.  Note 58.  Velocity 110
000000t:  Note on ::  Channel 14.  Note 62.  Velocity 110
000000t:  Note on ::  Channel 14.  Note 65.  Velocity 110
000336t:  Note on ::  Channel 14.  Note 58.  Velocity 0
000000t:  Note on ::  Channel 14.  Note 62.  Velocity 0
000000t:  Note on ::  Channel 14.  Note 65.  Velocity 0
000048t:  Note on ::  Channel 14.  Note 57.  Velocity 110
000000t:  Note on ::  Channel 14.  Note 60.  Velocity 110
000000t:  Note on ::  Channel 14.  Note 64.  Velocity 110
000384t:  Note on ::  Channel 14.  Note 57.  Velocity 0
000000t:  Note on ::  Channel 14.  Note 60.  Velocity 0
000000t:  Note on ::  Channel 14.  Note 64.  Velocity 0
000000t:  Note on ::  Channel 14.  Note 55.  Velocity 110
000000t:  Note on ::  Channel 14.  Note 59.  Velocity 110
000000t:  Note on ::  Channel 14.  Note 62.  Velocity 110
000384t:  Note on ::  Channel 14.  Note 55.  Velocity 0
000000t:  Note on ::  Channel 14.  Note 59.  Velocity 0
000000t:  Note on ::  Channel 14.  Note 62.  Velocity 0
000000t:  Note on ::  Channel 14.  Note 57.  Velocity 110
000000t:  Note on ::  Channel 14.  Note 60.  Velocity 110
000000t:  Note on ::  Channel 14.  Note 64.  Velocity 110
000384t:  Note on ::  Channel 14.  Note 57.  Velocity 0
000000t:  Note on ::  Channel 14.  Note 60.  Velocity 0
000000t:  Note on ::  Channel 14.  Note 64.  Velocity 0
000000t:  Note on ::  Channel 14.  Note 55.  Velocity 110
000000t:  Note on ::  Channel 14.  Note 59.  Velocity 110
000000t:  Note on ::  Channel 14.  Note 62.  Velocity 110
000384t:  Note on ::  Channel 14.  Note 55.  Velocity 0
000000t:  Note on ::  Channel 14.  Note 59.  Velocity 0
000000t:  Note on ::  Channel 14.  Note 62.  Velocity 0
000000t:  Note on ::  Channel 14.  Note 53.  Velocity 110
000000t:  Note on ::  Channel 14.  Note 57.  Velocity 110
000000t:  Note on ::  Channel 14.  Note 60.  Velocity 110
000768t:  Note on ::  Channel 14.  Note 53.  Velocity 0
000000t:  Note on ::  Channel 14.  Note 57.  Velocity 0
000000t:  Note on ::  Channel 14.  Note 60.  Velocity 0
000000t:  Note on ::  Channel 14.  Note 55.  Velocity 110
000000t:  Note on ::  Channel 14.  Note 59.  Velocity 110
000000t:  Note on ::  Channel 14.  Note 62.  Velocity 110
000768t:  Note on ::  Channel 14.  Note 55.  Velocity 0
000000t:  Note on ::  Channel 14.  Note 59.  Velocity 0
000000t:  Note on ::  Channel 14.  Note 62.  Velocity 0
000000t:  Note on ::  Channel 14.  Note 57.  Velocity 110
000000t:  Note on ::  Channel 14.  Note 60.  Velocity 110
000000t:  Note on ::  Channel 14.  Note 64.  Velocity 110
000384t:  Note on ::  Channel 14.  Note 57.  Velocity 0
000000t:  Note on ::  Channel 14.  Note 60.  Velocity 0
000000t:  Note on ::  Channel 14.  Note 64.  Velocity 0
000000t:  Note on ::  Channel 14.  Note 55.  Velocity 110
000000t:  Note on ::  Channel 14.  Note 59.  Velocity 110
000000t:  Note on ::  Channel 14.  Note 62.  Velocity 110
000384t:  Note on ::  Channel 14.  Note 55.  Velocity 0
000000t:  Note on ::  Channel 14.  Note 59.  Velocity 0
000000t:  Note on ::  Channel 14.  Note 62.  Velocity 0
000000t:  Note on ::  Channel 14.  Note 57.  Velocity 110
000000t:  Note on ::  Channel 14.  Note 60.  Velocity 110
000000t:  Note on ::  Channel 14.  Note 64.  Velocity 110
000384t:  Note on ::  Channel 14.  Note 57.  Velocity 0
000000t:  Note on ::  Channel 14.  Note 60.  Velocity 0
000000t:  Note on ::  Channel 14.  Note 64.  Velocity 0
000000t:  Note on ::  Channel 14.  Note 55.  Velocity 110
000000t:  Note on ::  Channel 14.  Note 59.  Velocity 110
000000t:  Note on ::  Channel 14.  Note 62.  Velocity 110
000384t:  Note on ::  Channel 14.  Note 55.  Velocity 0
000000t:  Note on ::  Channel 14.  Note 59.  Velocity 0
000000t:  Note on ::  Channel 14.  Note 62.  Velocity 0
000000t:  Note on ::  Channel 14.  Note 53.  Velocity 110
000000t:  Note on ::  Channel 14.  Note 57.  Velocity 110
000000t:  Note on ::  Channel 14.  Note 60.  Velocity 110
000768t:  Note on ::  Channel 14.  Note 53.  Velocity 0
000000t:  Note on ::  Channel 14.  Note 57.  Velocity 0
000000t:  Note on ::  Channel 14.  Note 60.  Velocity 0
000000t:  Note on ::  Channel 14.  Note 53.  Velocity 110
000000t:  Note on ::  Channel 14.  Note 57.  Velocity 110
000000t:  Note on ::  Channel 14.  Note 60.  Velocity 110
000768t:  Note on ::  Channel 14.  Note 53.  Velocity 0
000000t:  Note on ::  Channel 14.  Note 57.  Velocity 0
000000t:  Note on ::  Channel 14.  Note 60.  Velocity 0
000000t:  Note on ::  Channel 14.  Note 55.  Velocity 110
000000t:  Note on ::  Channel 14.  Note 59.  Velocity 110
000000t:  Note on ::  Channel 14.  Note 62.  Velocity 110
000768t:  Note on ::  Channel 14.  Note 55.  Velocity 0
000000t:  Note on ::  Channel 14.  Note 59.  Velocity 0
000000t:  Note on ::  Channel 14.  Note 62.  Velocity 0
000000t:  Note on ::  Channel 14.  Note 55.  Velocity 110
000000t:  Note on ::  Channel 14.  Note 59.  Velocity 110
000000t:  Note on ::  Channel 14.  Note 62.  Velocity 110
000768t:  Note on ::  Channel 14.  Note 55.  Velocity 0
000000t:  Note on ::  Channel 14.  Note 59.  Velocity 0
000000t:  Note on ::  Channel 14.  Note 62.  Velocity 0
000000t:  Note on ::  Channel 14.  Note 53.  Velocity 110
000000t:  Note on ::  Channel 14.  Note 57.  Velocity 110
000000t:  Note on ::  Channel 14.  Note 60.  Velocity 110
000768t:  Note on ::  Channel 14.  Note 53.  Velocity 0
000000t:  Note on ::  Channel 14.  Note 57.  Velocity 0
000000t:  Note on ::  Channel 14.  Note 60.  Velocity 0
000000t:  Note on ::  Channel 14.  Note 53.  Velocity 110
000000t:  Note on ::  Channel 14.  Note 57.  Velocity 110
000000t:  Note on ::  Channel 14.  Note 60.  Velocity 110
000768t:  Note on ::  Channel 14.  Note 53.  Velocity 0
000000t:  Note on ::  Channel 14.  Note 57.  Velocity 0
000000t:  Note on ::  Channel 14.  Note 60.  Velocity 0
000000t:  Note on ::  Channel 14.  Note 55.  Velocity 110
000000t:  Note on ::  Channel 14.  Note 59.  Velocity 110
000000t:  Note on ::  Channel 14.  Note 62.  Velocity 110
000768t:  Note on ::  Channel 14.  Note 55.  Velocity 0
000000t:  Note on ::  Channel 14.  Note 59.  Velocity 0
000000t:  Note on ::  Channel 14.  Note 62.  Velocity 0
000000t:  Note on ::  Channel 14.  Note 55.  Velocity 110
000000t:  Note on ::  Channel 14.  Note 59.  Velocity 110
000000t:  Note on ::  Channel 14.  Note 62.  Velocity 110
000768t:  Note on ::  Channel 14.  Note 55.  Velocity 0
000000t:  Note on ::  Channel 14.  Note 59.  Velocity 0
000000t:  Note on ::  Channel 14.  Note 62.  Velocity 0
000000t:  Control change ::  Channel 14.  Controller 7.  Value: 96
000000t:  Note on ::  Channel 14.  Note 64.  Velocity 110
000000t:  Note on ::  Channel 14.  Note 69.  Velocity 110
000720t:  Note on ::  Channel 14.  Note 64.  Velocity 0
000000t:  Note on ::  Channel 14.  Note 69.  Velocity 0
000048t:  Note on ::  Channel 14.  Note 60.  Velocity 110
000000t:  Note on ::  Channel 14.  Note 65.  Velocity 110
000720t:  Note on ::  Channel 14.  Note 60.  Velocity 0
000000t:  Note on ::  Channel 14.  Note 65.  Velocity 0
000048t:  Note on ::  Channel 14.  Note 62.  Velocity 110
000000t:  Note on ::  Channel 14.  Note 67.  Velocity 110
000720t:  Note on ::  Channel 14.  Note 62.  Velocity 0
000000t:  Note on ::  Channel 14.  Note 67.  Velocity 0
000048t:  Note on ::  Channel 14.  Note 60.  Velocity 110
000000t:  Note on ::  Channel 14.  Note 64.  Velocity 110
000720t:  Note on ::  Channel 14.  Note 60.  Velocity 0
000000t:  Note on ::  Channel 14.  Note 64.  Velocity 0
010128t:  Note on ::  Channel 14.  Note 60.  Velocity 110
000096t:  Note on ::  Channel 14.  Note 60.  Velocity 0
000000t:  Note on ::  Channel 14.  Note 59.  Velocity 110
000096t:  Note on ::  Channel 14.  Note 59.  Velocity 0
000000t:  Note on ::  Channel 14.  Note 60.  Velocity 110
000096t:  Note on ::  Channel 14.  Note 60.  Velocity 0
000000t:  Note on ::  Channel 14.  Note 59.  Velocity 110
000096t:  Note on ::  Channel 14.  Note 59.  Velocity 0
000000t:  Note on ::  Channel 14.  Note 60.  Velocity 110
000096t:  Note on ::  Channel 14.  Note 60.  Velocity 0
000000t:  Control change ::  Channel 14.  Controller 7.  Value: 64
000000t:  Note on ::  Channel 14.  Note 57.  Velocity 110
000000t:  Note on ::  Channel 14.  Note 60.  Velocity 110
000000t:  Note on ::  Channel 14.  Note 64.  Velocity 110
000096t:  Control change ::  Channel 14.  Controller 7.  Value: 65
000096t:  Control change ::  Channel 14.  Controller 7.  Value: 66
000096t:  Control change ::  Channel 14.  Controller 7.  Value: 67
000096t:  Note on ::  Channel 14.  Note 57.  Velocity 0
000000t:  Note on ::  Channel 14.  Note 60.  Velocity 0
000000t:  Note on ::  Channel 14.  Note 64.  Velocity 0
000000t:  Control change ::  Channel 14.  Controller 7.  Value: 68
000000t:  Note on ::  Channel 14.  Note 55.  Velocity 110
000000t:  Note on ::  Channel 14.  Note 59.  Velocity 110
000000t:  Note on ::  Channel 14.  Note 62.  Velocity 110
000096t:  Control change ::  Channel 14.  Controller 7.  Value: 69
000096t:  Control change ::  Channel 14.  Controller 7.  Value: 70
000096t:  Control change ::  Channel 14.  Controller 7.  Value: 71
000096t:  Note on ::  Channel 14.  Note 55.  Velocity 0
000000t:  Note on ::  Channel 14.  Note 59.  Velocity 0
000000t:  Note on ::  Channel 14.  Note 62.  Velocity 0
000000t:  Control change ::  Channel 14.  Controller 7.  Value: 72
000000t:  Note on ::  Channel 14.  Note 57.  Velocity 110
000000t:  Note on ::  Channel 14.  Note 60.  Velocity 110
000000t:  Note on ::  Channel 14.  Note 64.  Velocity 110
000096t:  Control change ::  Channel 14.  Controller 7.  Value: 73
000096t:  Control change ::  Channel 14.  Controller 7.  Value: 74
000096t:  Control change ::  Channel 14.  Controller 7.  Value: 75
000096t:  Note on ::  Channel 14.  Note 57.  Velocity 0
000000t:  Note on ::  Channel 14.  Note 60.  Velocity 0
000000t:  Note on ::  Channel 14.  Note 64.  Velocity 0
000000t:  Control change ::  Channel 14.  Controller 7.  Value: 76
000000t:  Note on ::  Channel 14.  Note 55.  Velocity 110
000000t:  Note on ::  Channel 14.  Note 59.  Velocity 110
000000t:  Note on ::  Channel 14.  Note 62.  Velocity 110
000096t:  Control change ::  Channel 14.  Controller 7.  Value: 77
000096t:  Control change ::  Channel 14.  Controller 7.  Value: 78
000096t:  Control change ::  Channel 14.  Controller 7.  Value: 79
000096t:  Note on ::  Channel 14.  Note 55.  Velocity 0
000000t:  Note on ::  Channel 14.  Note 59.  Velocity 0
000000t:  Note on ::  Channel 14.  Note 62.  Velocity 0
000000t:  Control change ::  Channel 14.  Controller 7.  Value: 80
000000t:  Note on ::  Channel 14.  Note 57.  Velocity 110
000000t:  Note on ::  Channel 14.  Note 60.  Velocity 110
000000t:  Note on ::  Channel 14.  Note 64.  Velocity 110
000096t:  Control change ::  Channel 14.  Controller 7.  Value: 81
000096t:  Control change ::  Channel 14.  Controller 7.  Value: 82
000096t:  Control change ::  Channel 14.  Controller 7.  Value: 83
000096t:  Note on ::  Channel 14.  Note 57.  Velocity 0
000000t:  Note on ::  Channel 14.  Note 60.  Velocity 0
000000t:  Note on ::  Channel 14.  Note 64.  Velocity 0
000000t:  Control change ::  Channel 14.  Controller 7.  Value: 84
000000t:  Note on ::  Channel 14.  Note 55.  Velocity 110
000000t:  Note on ::  Channel 14.  Note 59.  Velocity 110
000000t:  Note on ::  Channel 14.  Note 62.  Velocity 110
000096t:  Control change ::  Channel 14.  Controller 7.  Value: 85
000096t:  Control change ::  Channel 14.  Controller 7.  Value: 86
000096t:  Control change ::  Channel 14.  Controller 7.  Value: 87
000096t:  Note on ::  Channel 14.  Note 55.  Velocity 0
000000t:  Note on ::  Channel 14.  Note 59.  Velocity 0
000000t:  Note on ::  Channel 14.  Note 62.  Velocity 0
000000t:  Control change ::  Channel 14.  Controller 7.  Value: 88
000000t:  Note on ::  Channel 14.  Note 57.  Velocity 110
000000t:  Note on ::  Channel 14.  Note 60.  Velocity 110
000000t:  Note on ::  Channel 14.  Note 64.  Velocity 110
000096t:  Control change ::  Channel 14.  Controller 7.  Value: 89
000096t:  Control change ::  Channel 14.  Controller 7.  Value: 90
000096t:  Control change ::  Channel 14.  Controller 7.  Value: 91
000096t:  Note on ::  Channel 14.  Note 57.  Velocity 0
000000t:  Note on ::  Channel 14.  Note 60.  Velocity 0
000000t:  Note on ::  Channel 14.  Note 64.  Velocity 0
000000t:  Control change ::  Channel 14.  Controller 7.  Value: 92
000000t:  Note on ::  Channel 14.  Note 55.  Velocity 110
000000t:  Note on ::  Channel 14.  Note 59.  Velocity 110
000000t:  Note on ::  Channel 14.  Note 62.  Velocity 110
000096t:  Control change ::  Channel 14.  Controller 7.  Value: 93
000096t:  Control change ::  Channel 14.  Controller 7.  Value: 94
000096t:  Control change ::  Channel 14.  Controller 7.  Value: 95
000096t:  Note on ::  Channel 14.  Note 55.  Velocity 0
000000t:  Note on ::  Channel 14.  Note 59.  Velocity 0
000000t:  Note on ::  Channel 14.  Note 62.  Velocity 0
000000t:  Control change ::  Channel 14.  Controller 7.  Value: 96
000000t:  Control change ::  Channel 14.  Controller 7.  Value: 64
000000t:  Note on ::  Channel 14.  Note 57.  Velocity 110
000000t:  Note on ::  Channel 14.  Note 60.  Velocity 110
000000t:  Note on ::  Channel 14.  Note 64.  Velocity 110
000384t:  Note on ::  Channel 14.  Note 57.  Velocity 0
000000t:  Note on ::  Channel 14.  Note 60.  Velocity 0
000000t:  Note on ::  Channel 14.  Note 64.  Velocity 0
000000t:  Note on ::  Channel 14.  Note 58.  Velocity 110
000000t:  Note on ::  Channel 14.  Note 62.  Velocity 110
000000t:  Note on ::  Channel 14.  Note 65.  Velocity 110
000336t:  Note on ::  Channel 14.  Note 58.  Velocity 0
000000t:  Note on ::  Channel 14.  Note 62.  Velocity 0
000000t:  Note on ::  Channel 14.  Note 65.  Velocity 0
000048t:  Note on ::  Channel 14.  Note 57.  Velocity 110
000000t:  Note on ::  Channel 14.  Note 60.  Velocity 110
000000t:  Note on ::  Channel 14.  Note 64.  Velocity 110
000384t:  Note on ::  Channel 14.  Note 57.  Velocity 0
000000t:  Note on ::  Channel 14.  Note 60.  Velocity 0
000000t:  Note on ::  Channel 14.  Note 64.  Velocity 0
000000t:  Note on ::  Channel 14.  Note 58.  Velocity 110
000000t:  Note on ::  Channel 14.  Note 62.  Velocity 110
000000t:  Note on ::  Channel 14.  Note 65.  Velocity 110
000336t:  Note on ::  Channel 14.  Note 58.  Velocity 0
000000t:  Note on ::  Channel 14.  Note 62.  Velocity 0
000000t:  Note on ::  Channel 14.  Note 65.  Velocity 0
000048t:  Note on ::  Channel 14.  Note 57.  Velocity 110
000000t:  Note on ::  Channel 14.  Note 60.  Velocity 110
000000t:  Note on ::  Channel 14.  Note 64.  Velocity 110
000384t:  Note on ::  Channel 14.  Note 57.  Velocity 0
000000t:  Note on ::  Channel 14.  Note 60.  Velocity 0
000000t:  Note on ::  Channel 14.  Note 64.  Velocity 0
000000t:  Note on ::  Channel 14.  Note 55.  Velocity 110
000000t:  Note on ::  Channel 14.  Note 59.  Velocity 110
000000t:  Note on ::  Channel 14.  Note 62.  Velocity 110
000384t:  Note on ::  Channel 14.  Note 55.  Velocity 0
000000t:  Note on ::  Channel 14.  Note 59.  Velocity 0
000000t:  Note on ::  Channel 14.  Note 62.  Velocity 0
000000t:  Note on ::  Channel 14.  Note 57.  Velocity 110
000000t:  Note on ::  Channel 14.  Note 60.  Velocity 110
000000t:  Note on ::  Channel 14.  Note 64.  Velocity 110
000384t:  Note on ::  Channel 14.  Note 57.  Velocity 0
000000t:  Note on ::  Channel 14.  Note 60.  Velocity 0
000000t:  Note on ::  Channel 14.  Note 64.  Velocity 0
000000t:  Note on ::  Channel 14.  Note 55.  Velocity 110
000000t:  Note on ::  Channel 14.  Note 59.  Velocity 110
000000t:  Note on ::  Channel 14.  Note 62.  Velocity 110
000384t:  Note on ::  Channel 14.  Note 55.  Velocity 0
000000t:  Note on ::  Channel 14.  Note 59.  Velocity 0
000000t:  Note on ::  Channel 14.  Note 62.  Velocity 0
000000t:  Note on ::  Channel 14.  Note 53.  Velocity 110
000000t:  Note on ::  Channel 14.  Note 57.  Velocity 110
000000t:  Note on ::  Channel 14.  Note 60.  Velocity 110
000768t:  Note on ::  Channel 14.  Note 53.  Velocity 0
000000t:  Note on ::  Channel 14.  Note 57.  Velocity 0
000000t:  Note on ::  Channel 14.  Note 60.  Velocity 0
000000t:  Note on ::  Channel 14.  Note 55.  Velocity 110
000000t:  Note on ::  Channel 14.  Note 59.  Velocity 110
000000t:  Note on ::  Channel 14.  Note 62.  Velocity 110
000768t:  Note on ::  Channel 14.  Note 55.  Velocity 0
000000t:  Note on ::  Channel 14.  Note 59.  Velocity 0
000000t:  Note on ::  Channel 14.  Note 62.  Velocity 0
000000t:  Note on ::  Channel 14.  Note 57.  Velocity 110
000000t:  Note on ::  Channel 14.  Note 60.  Velocity 110
000000t:  Note on ::  Channel 14.  Note 64.  Velocity 110
000384t:  Note on ::  Channel 14.  Note 57.  Velocity 0
000000t:  Note on ::  Channel 14.  Note 60.  Velocity 0
000000t:  Note on ::  Channel 14.  Note 64.  Velocity 0
000000t:  Note on ::  Channel 14.  Note 55.  Velocity 110
000000t:  Note on ::  Channel 14.  Note 59.  Velocity 110
000000t:  Note on ::  Channel 14.  Note 62.  Velocity 110
000384t:  Note on ::  Channel 14.  Note 55.  Velocity 0
000000t:  Note on ::  Channel 14.  Note 59.  Velocity 0
000000t:  Note on ::  Channel 14.  Note 62.  Velocity 0
000000t:  Note on ::  Channel 14.  Note 57.  Velocity 110
000000t:  Note on ::  Channel 14.  Note 60.  Velocity 110
000000t:  Note on ::  Channel 14.  Note 64.  Velocity 110
000384t:  Note on ::  Channel 14.  Note 57.  Velocity 0
000000t:  Note on ::  Channel 14.  Note 60.  Velocity 0
000000t:  Note on ::  Channel 14.  Note 64.  Velocity 0
000000t:  Note on ::  Channel 14.  Note 55.  Velocity 110
000000t:  Note on ::  Channel 14.  Note 59.  Velocity 110
000000t:  Note on ::  Channel 14.  Note 62.  Velocity 110
000384t:  Note on ::  Channel 14.  Note 55.  Velocity 0
000000t:  Note on ::  Channel 14.  Note 59.  Velocity 0
000000t:  Note on ::  Channel 14.  Note 62.  Velocity 0
000000t:  Note on ::  Channel 14.  Note 57.  Velocity 110
000000t:  Note on ::  Channel 14.  Note 60.  Velocity 110
000000t:  Note on ::  Channel 14.  Note 64.  Velocity 110
000384t:  Note on ::  Channel 14.  Note 57.  Velocity 0
000000t:  Note on ::  Channel 14.  Note 60.  Velocity 0
000000t:  Note on ::  Channel 14.  Note 64.  Velocity 0
000000t:  Note on ::  Channel 14.  Note 58.  Velocity 110
000000t:  Note on ::  Channel 14.  Note 62.  Velocity 110
000000t:  Note on ::  Channel 14.  Note 65.  Velocity 110
000336t:  Note on ::  Channel 14.  Note 58.  Velocity 0
000000t:  Note on ::  Channel 14.  Note 62.  Velocity 0
000000t:  Note on ::  Channel 14.  Note 65.  Velocity 0
000048t:  Note on ::  Channel 14.  Note 57.  Velocity 110
000000t:  Note on ::  Channel 14.  Note 60.  Velocity 110
000000t:  Note on ::  Channel 14.  Note 64.  Velocity 110
000384t:  Note on ::  Channel 14.  Note 57.  Velocity 0
000000t:  Note on ::  Channel 14.  Note 60.  Velocity 0
000000t:  Note on ::  Channel 14.  Note 64.  Velocity 0
000000t:  Note on ::  Channel 14.  Note 58.  Velocity 110
000000t:  Note on ::  Channel 14.  Note 62.  Velocity 110
000000t:  Note on ::  Channel 14.  Note 65.  Velocity 110
000336t:  Note on ::  Channel 14.  Note 58.  Velocity 0
000000t:  Note on ::  Channel 14.  Note 62.  Velocity 0
000000t:  Note on ::  Channel 14.  Note 65.  Velocity 0
000048t:  Note on ::  Channel 14.  Note 57.  Velocity 110
000000t:  Note on ::  Channel 14.  Note 60.  Velocity 110
000000t:  Note on ::  Channel 14.  Note 64.  Velocity 110
000384t:  Note on ::  Channel 14.  Note 57.  Velocity 0
000000t:  Note on ::  Channel 14.  Note 60.  Velocity 0
000000t:  Note on ::  Channel 14.  Note 64.  Velocity 0
000000t:  Note on ::  Channel 14.  Note 55.  Velocity 110
000000t:  Note on ::  Channel 14.  Note 59.  Velocity 110
000000t:  Note on ::  Channel 14.  Note 62.  Velocity 110
000384t:  Note on ::  Channel 14.  Note 55.  Velocity 0
000000t:  Note on ::  Channel 14.  Note 59.  Velocity 0
000000t:  Note on ::  Channel 14.  Note 62.  Velocity 0
000000t:  Note on ::  Channel 14.  Note 57.  Velocity 110
000000t:  Note on ::  Channel 14.  Note 60.  Velocity 110
000000t:  Note on ::  Channel 14.  Note 64.  Velocity 110
000384t:  Note on ::  Channel 14.  Note 57.  Velocity 0
000000t:  Note on ::  Channel 14.  Note 60.  Velocity 0
000000t:  Note on ::  Channel 14.  Note 64.  Velocity 0
000000t:  Note on ::  Channel 14.  Note 55.  Velocity 110
000000t:  Note on ::  Channel 14.  Note 59.  Velocity 110
000000t:  Note on ::  Channel 14.  Note 62.  Velocity 110
000384t:  Note on ::  Channel 14.  Note 55.  Velocity 0
000000t:  Note on ::  Channel 14.  Note 59.  Velocity 0
000000t:  Note on ::  Channel 14.  Note 62.  Velocity 0
000000t:  Note on ::  Channel 14.  Note 53.  Velocity 110
000000t:  Note on ::  Channel 14.  Note 57.  Velocity 110
000000t:  Note on ::  Channel 14.  Note 60.  Velocity 110
000768t:  Note on ::  Channel 14.  Note 53.  Velocity 0
000000t:  Note on ::  Channel 14.  Note 57.  Velocity 0
000000t:  Note on ::  Channel 14.  Note 60.  Velocity 0
000000t:  Note on ::  Channel 14.  Note 55.  Velocity 110
000000t:  Note on ::  Channel 14.  Note 59.  Velocity 110
000000t:  Note on ::  Channel 14.  Note 62.  Velocity 110
000768t:  Note on ::  Channel 14.  Note 55.  Velocity 0
000000t:  Note on ::  Channel 14.  Note 59.  Velocity 0
000000t:  Note on ::  Channel 14.  Note 62.  Velocity 0
000000t:  Note on ::  Channel 14.  Note 57.  Velocity 110
000000t:  Note on ::  Channel 14.  Note 60.  Velocity 110
000000t:  Note on ::  Channel 14.  Note 64.  Velocity 110
000384t:  Note on ::  Channel 14.  Note 57.  Velocity 0
000000t:  Note on ::  Channel 14.  Note 60.  Velocity 0
000000t:  Note on ::  Channel 14.  Note 64.  Velocity 0
000000t:  Note on ::  Channel 14.  Note 55.  Velocity 110
000000t:  Note on ::  Channel 14.  Note 59.  Velocity 110
000000t:  Note on ::  Channel 14.  Note 62.  Velocity 110
000384t:  Note on ::  Channel 14.  Note 55.  Velocity 0
000000t:  Note on ::  Channel 14.  Note 59.  Velocity 0
000000t:  Note on ::  Channel 14.  Note 62.  Velocity 0
000000t:  Note on ::  Channel 14.  Note 57.  Velocity 110
000000t:  Note on ::  Channel 14.  Note 60.  Velocity 110
000000t:  Note on ::  Channel 14.  Note 64.  Velocity 110
000384t:  Note on ::  Channel 14.  Note 57.  Velocity 0
000000t:  Note on ::  Channel 14.  Note 60.  Velocity 0
000000t:  Note on ::  Channel 14.  Note 64.  Velocity 0
000000t:  Note on ::  Channel 14.  Note 55.  Velocity 110
000000t:  Note on ::  Channel 14.  Note 59.  Velocity 110
000000t:  Note on ::  Channel 14.  Note 62.  Velocity 110
000384t:  Note on ::  Channel 14.  Note 55.  Velocity 0
000000t:  Note on ::  Channel 14.  Note 59.  Velocity 0
000000t:  Note on ::  Channel 14.  Note 62.  Velocity 0
000000t:  Note on ::  Channel 14.  Note 53.  Velocity 110
000000t:  Note on ::  Channel 14.  Note 57.  Velocity 110
000000t:  Note on ::  Channel 14.  Note 60.  Velocity 110
000768t:  Note on ::  Channel 14.  Note 53.  Velocity 0
000000t:  Note on ::  Channel 14.  Note 57.  Velocity 0
000000t:  Note on ::  Channel 14.  Note 60.  Velocity 0
000000t:  Note on ::  Channel 14.  Note 53.  Velocity 110
000000t:  Note on ::  Channel 14.  Note 57.  Velocity 110
000000t:  Note on ::  Channel 14.  Note 60.  Velocity 110
000768t:  Note on ::  Channel 14.  Note 53.  Velocity 0
000000t:  Note on ::  Channel 14.  Note 57.  Velocity 0
000000t:  Note on ::  Channel 14.  Note 60.  Velocity 0
000000t:  Note on ::  Channel 14.  Note 55.  Velocity 110
000000t:  Note on ::  Channel 14.  Note 59.  Velocity 110
000000t:  Note on ::  Channel 14.  Note 62.  Velocity 110
000768t:  Note on ::  Channel 14.  Note 55.  Velocity 0
000000t:  Note on ::  Channel 14.  Note 59.  Velocity 0
000000t:  Note on ::  Channel 14.  Note 62.  Velocity 0
000000t:  Note on ::  Channel 14.  Note 55.  Velocity 110
000000t:  Note on ::  Channel 14.  Note 59.  Velocity 110
000000t:  Note on ::  Channel 14.  Note 62.  Velocity 110
000768t:  Note on ::  Channel 14.  Note 55.  Velocity 0
000000t:  Note on ::  Channel 14.  Note 59.  Velocity 0
000000t:  Note on ::  Channel 14.  Note 62.  Velocity 0
000000t:  Note on ::  Channel 14.  Note 53.  Velocity 110
000000t:  Note on ::  Channel 14.  Note 57.  Velocity 110
000000t:  Note on ::  Channel 14.  Note 60.  Velocity 110
000768t:  Note on ::  Channel 14.  Note 53.  Velocity 0
000000t:  Note on ::  Channel 14.  Note 57.  Velocity 0
000000t:  Note on ::  Channel 14.  Note 60.  Velocity 0
000000t:  Note on ::  Channel 14.  Note 53.  Velocity 110
000000t:  Note on ::  Channel 14.  Note 57.  Velocity 110
000000t:  Note on ::  Channel 14.  Note 60.  Velocity 110
000768t:  Note on ::  Channel 14.  Note 53.  Velocity 0
000000t:  Note on ::  Channel 14.  Note 57.  Velocity 0
000000t:  Note on ::  Channel 14.  Note 60.  Velocity 0
000000t:  Note on ::  Channel 14.  Note 55.  Velocity 110
000000t:  Note on ::  Channel 14.  Note 59.  Velocity 110
000000t:  Note on ::  Channel 14.  Note 62.  Velocity 110
000768t:  Note on ::  Channel 14.  Note 55.  Velocity 0
000000t:  Note on ::  Channel 14.  Note 59.  Velocity 0
000000t:  Note on ::  Channel 14.  Note 62.  Velocity 0
000000t:  Note on ::  Channel 14.  Note 55.  Velocity 110
000000t:  Note on ::  Channel 14.  Note 59.  Velocity 110
000000t:  Note on ::  Channel 14.  Note 62.  Velocity 110
000768t:  Note on ::  Channel 14.  Note 55.  Velocity 0
000000t:  Note on ::  Channel 14.  Note 59.  Velocity 0
000000t:  Note on ::  Channel 14.  Note 62.  Velocity 0
000000t:  Control change ::  Channel 14.  Controller 7.  Value: 96
000000t:  Note on ::  Channel 14.  Note 64.  Velocity 110
000000t:  Note on ::  Channel 14.  Note 69.  Velocity 110
000720t:  Note on ::  Channel 14.  Note 64.  Velocity 0
000000t:  Note on ::  Channel 14.  Note 69.  Velocity 0
000048t:  Note on ::  Channel 14.  Note 60.  Velocity 110
000000t:  Note on ::  Channel 14.  Note 65.  Velocity 110
000720t:  Note on ::  Channel 14.  Note 60.  Velocity 0
000000t:  Note on ::  Channel 14.  Note 65.  Velocity 0
000048t:  Note on ::  Channel 14.  Note 62.  Velocity 110
000000t:  Note on ::  Channel 14.  Note 67.  Velocity 110
000720t:  Note on ::  Channel 14.  Note 62.  Velocity 0
000000t:  Note on ::  Channel 14.  Note 67.  Velocity 0
000048t:  Note on ::  Channel 14.  Note 60.  Velocity 110
000000t:  Note on ::  Channel 14.  Note 64.  Velocity 110
000720t:  Note on ::  Channel 14.  Note 60.  Velocity 0
000000t:  Note on ::  Channel 14.  Note 64.  Velocity 0
010128t:  Note on ::  Channel 14.  Note 60.  Velocity 110
000096t:  Note on ::  Channel 14.  Note 60.  Velocity 0
000000t:  Note on ::  Channel 14.  Note 59.  Velocity 110
000096t:  Note on ::  Channel 14.  Note 59.  Velocity 0
000000t:  Note on ::  Channel 14.  Note 60.  Velocity 110
000096t:  Note on ::  Channel 14.  Note 60.  Velocity 0
000000t:  Note on ::  Channel 14.  Note 59.  Velocity 110
000096t:  Note on ::  Channel 14.  Note 59.  Velocity 0
000000t:  Note on ::  Channel 14.  Note 60.  Velocity 110
000096t:  Note on ::  Channel 14.  Note 60.  Velocity 0
000000t:  Control change ::  Channel 14.  Controller 7.  Value: 64
000000t:  Note on ::  Channel 14.  Note 57.  Velocity 110
000000t:  Note on ::  Channel 14.  Note 60.  Velocity 110
000000t:  Note on ::  Channel 14.  Note 64.  Velocity 110
000096t:  Control change ::  Channel 14.  Controller 7.  Value: 65
000096t:  Control change ::  Channel 14.  Controller 7.  Value: 66
000096t:  Control change ::  Channel 14.  Controller 7.  Value: 67
000096t:  Note on ::  Channel 14.  Note 57.  Velocity 0
000000t:  Note on ::  Channel 14.  Note 60.  Velocity 0
000000t:  Note on ::  Channel 14.  Note 64.  Velocity 0
000000t:  Control change ::  Channel 14.  Controller 7.  Value: 68
000000t:  Note on ::  Channel 14.  Note 55.  Velocity 110
000000t:  Note on ::  Channel 14.  Note 59.  Velocity 110
000000t:  Note on ::  Channel 14.  Note 62.  Velocity 110
000096t:  Control change ::  Channel 14.  Controller 7.  Value: 69
000096t:  Control change ::  Channel 14.  Controller 7.  Value: 70
000096t:  Control change ::  Channel 14.  Controller 7.  Value: 71
000096t:  Note on ::  Channel 14.  Note 55.  Velocity 0
000000t:  Note on ::  Channel 14.  Note 59.  Velocity 0
000000t:  Note on ::  Channel 14.  Note 62.  Velocity 0
000000t:  Control change ::  Channel 14.  Controller 7.  Value: 72
000000t:  Note on ::  Channel 14.  Note 57.  Velocity 110
000000t:  Note on ::  Channel 14.  Note 60.  Velocity 110
000000t:  Note on ::  Channel 14.  Note 64.  Velocity 110
000096t:  Control change ::  Channel 14.  Controller 7.  Value: 73
000096t:  Control change ::  Channel 14.  Controller 7.  Value: 74
000096t:  Control change ::  Channel 14.  Controller 7.  Value: 75
000096t:  Note on ::  Channel 14.  Note 57.  Velocity 0
000000t:  Note on ::  Channel 14.  Note 60.  Velocity 0
000000t:  Note on ::  Channel 14.  Note 64.  Velocity 0
000000t:  Control change ::  Channel 14.  Controller 7.  Value: 76
000000t:  Note on ::  Channel 14.  Note 55.  Velocity 110
000000t:  Note on ::  Channel 14.  Note 59.  Velocity 110
000000t:  Note on ::  Channel 14.  Note 62.  Velocity 110
000096t:  Control change ::  Channel 14.  Controller 7.  Value: 77
000096t:  Control change ::  Channel 14.  Controller 7.  Value: 78
000096t:  Control change ::  Channel 14.  Controller 7.  Value: 79
000096t:  Note on ::  Channel 14.  Note 55.  Velocity 0
000000t:  Note on ::  Channel 14.  Note 59.  Velocity 0
000000t:  Note on ::  Channel 14.  Note 62.  Velocity 0
000000t:  Control change ::  Channel 14.  Controller 7.  Value: 80
000000t:  Note on ::  Channel 14.  Note 57.  Velocity 110
000000t:  Note on ::  Channel 14.  Note 60.  Velocity 110
000000t:  Note on ::  Channel 14.  Note 64.  Velocity 110
000096t:  Control change ::  Channel 14.  Controller 7.  Value: 81
000096t:  Control change ::  Channel 14.  Controller 7.  Value: 82
000096t:  Control change ::  Channel 14.  Controller 7.  Value: 83
000096t:  Note on ::  Channel 14.  Note 57.  Velocity 0
000000t:  Note on ::  Channel 14.  Note 60.  Velocity 0
000000t:  Note on ::  Channel 14.  Note 64.  Velocity 0
000000t:  Control change ::  Channel 14.  Controller 7.  Value: 84
000000t:  Note on ::  Channel 14.  Note 55.  Velocity 110
000000t:  Note on ::  Channel 14.  Note 59.  Velocity 110
000000t:  Note on ::  Channel 14.  Note 62.  Velocity 110
000096t:  Control change ::  Channel 14.  Controller 7.  Value: 85
000096t:  Control change ::  Channel 14.  Controller 7.  Value: 86
000096t:  Control change ::  Channel 14.  Controller 7.  Value: 87
000096t:  Note on ::  Channel 14.  Note 55.  Velocity 0
000000t:  Note on ::  Channel 14.  Note 59.  Velocity 0
000000t:  Note on ::  Channel 14.  Note 62.  Velocity 0
000000t:  Control change ::  Channel 14.  Controller 7.  Value: 88
000000t:  Note on ::  Channel 14.  Note 57.  Velocity 110
000000t:  Note on ::  Channel 14.  Note 60.  Velocity 110
000000t:  Note on ::  Channel 14.  Note 64.  Velocity 110
000096t:  Control change ::  Channel 14.  Controller 7.  Value: 89
000096t:  Control change ::  Channel 14.  Controller 7.  Value: 90
000096t:  Control change ::  Channel 14.  Controller 7.  Value: 91
000096t:  Note on ::  Channel 14.  Note 57.  Velocity 0
000000t:  Note on ::  Channel 14.  Note 60.  Velocity 0
000000t:  Note on ::  Channel 14.  Note 64.  Velocity 0
000000t:  Control change ::  Channel 14.  Controller 7.  Value: 92
000000t:  Note on ::  Channel 14.  Note 55.  Velocity 110
000000t:  Note on ::  Channel 14.  Note 59.  Velocity 110
000000t:  Note on ::  Channel 14.  Note 62.  Velocity 110
000096t:  Control change ::  Channel 14.  Controller 7.  Value: 93
000096t:  Control change ::  Channel 14.  Controller 7.  Value: 94
000096t:  Control change ::  Channel 14.  Controller 7.  Value: 95
000096t:  Note on ::  Channel 14.  Note 55.  Velocity 0
000000t:  Note on ::  Channel 14.  Note 59.  Velocity 0
000000t:  Note on ::  Channel 14.  Note 62.  Velocity 0
000000t:  Control change ::  Channel 14.  Controller 7.  Value: 96
000000t:  Control change ::  Channel 14.  Controller 7.  Value: 64
000000t:  Note on ::  Channel 14.  Note 57.  Velocity 110
000000t:  Note on ::  Channel 14.  Note 60.  Velocity 110
000000t:  Note on ::  Channel 14.  Note 64.  Velocity 110
000384t:  Note on ::  Channel 14.  Note 57.  Velocity 0
000000t:  Note on ::  Channel 14.  Note 60.  Velocity 0
000000t:  Note on ::  Channel 14.  Note 64.  Velocity 0
000000t:  Note on ::  Channel 14.  Note 58.  Velocity 110
000000t:  Note on ::  Channel 14.  Note 62.  Velocity 110
000000t:  Note on ::  Channel 14.  Note 65.  Velocity 110
000336t:  Note on ::  Channel 14.  Note 58.  Velocity 0
000000t:  Note on ::  Channel 14.  Note 62.  Velocity 0
000000t:  Note on ::  Channel 14.  Note 65.  Velocity 0
000048t:  Note on ::  Channel 14.  Note 57.  Velocity 110
000000t:  Note on ::  Channel 14.  Note 60.  Velocity 110
000000t:  Note on ::  Channel 14.  Note 64.  Velocity 110
000384t:  Note on ::  Channel 14.  Note 57.  Velocity 0
000000t:  Note on ::  Channel 14.  Note 60.  Velocity 0
000000t:  Note on ::  Channel 14.  Note 64.  Velocity 0
000000t:  Note on ::  Channel 14.  Note 58.  Velocity 110
000000t:  Note on ::  Channel 14.  Note 62.  Velocity 110
000000t:  Note on ::  Channel 14.  Note 65.  Velocity 110
000336t:  Note on ::  Channel 14.  Note 58.  Velocity 0
000000t:  Note on ::  Channel 14.  Note 62.  Velocity 0
000000t:  Note on ::  Channel 14.  Note 65.  Velocity 0
000048t:  Note on ::  Channel 14.  Note 57.  Velocity 110
000000t:  Note on ::  Channel 14.  Note 60.  Velocity 110
000000t:  Note on ::  Channel 14.  Note 64.  Velocity 110
000384t:  Note on ::  Channel 14.  Note 57.  Velocity 0
000000t:  Note on ::  Channel 14.  Note 60.  Velocity 0
000000t:  Note on ::  Channel 14.  Note 64.  Velocity 0
000000t:  Note on ::  Channel 14.  Note 55.  Velocity 110
000000t:  Note on ::  Channel 14.  Note 59.  Velocity 110
000000t:  Note on ::  Channel 14.  Note 62.  Velocity 110
000384t:  Note on ::  Channel 14.  Note 55.  Velocity 0
000000t:  Note on ::  Channel 14.  Note 59.  Velocity 0
000000t:  Note on ::  Channel 14.  Note 62.  Velocity 0
000000t:  Note on ::  Channel 14.  Note 57.  Velocity 110
000000t:  Note on ::  Channel 14.  Note 60.  Velocity 110
000000t:  Note on ::  Channel 14.  Note 64.  Velocity 110
000384t:  Note on ::  Channel 14.  Note 57.  Velocity 0
000000t:  Note on ::  Channel 14.  Note 60.  Velocity 0
000000t:  Note on ::  Channel 14.  Note 64.  Velocity 0
000000t:  Note on ::  Channel 14.  Note 55.  Velocity 110
000000t:  Note on ::  Channel 14.  Note 59.  Velocity 110
000000t:  Note on ::  Channel 14.  Note 62.  Velocity 110
000384t:  Note on ::  Channel 14.  Note 55.  Velocity 0
000000t:  Note on ::  Channel 14.  Note 59.  Velocity 0
000000t:  Note on ::  Channel 14.  Note 62.  Velocity 0
000000t:  Control change ::  Channel 14.  Controller 7.  Value: 64
000000t:  Note on ::  Channel 14.  Note 53.  Velocity 110
000000t:  Note on ::  Channel 14.  Note 57.  Velocity 110
000000t:  Note on ::  Channel 14.  Note 60.  Velocity 110
000048t:  Control change ::  Channel 14.  Controller 7.  Value: 63
000048t:  Control change ::  Channel 14.  Controller 7.  Value: 62
000048t:  Control change ::  Channel 14.  Controller 7.  Value: 61
000048t:  Control change ::  Channel 14.  Controller 7.  Value: 60
000048t:  Control change ::  Channel 14.  Controller 7.  Value: 59
000048t:  Control change ::  Channel 14.  Controller 7.  Value: 58
000048t:  Control change ::  Channel 14.  Controller 7.  Value: 57
000048t:  Control change ::  Channel 14.  Controller 7.  Value: 56
000048t:  Control change ::  Channel 14.  Controller 7.  Value: 55
000048t:  Control change ::  Channel 14.  Controller 7.  Value: 54
000048t:  Control change ::  Channel 14.  Controller 7.  Value: 53
000048t:  Control change ::  Channel 14.  Controller 7.  Value: 52
000048t:  Control change ::  Channel 14.  Controller 7.  Value: 51
000048t:  Control change ::  Channel 14.  Controller 7.  Value: 50
000048t:  Control change ::  Channel 14.  Controller 7.  Value: 49
000048t:  Note on ::  Channel 14.  Note 53.  Velocity 0
000000t:  Note on ::  Channel 14.  Note 57.  Velocity 0
000000t:  Note on ::  Channel 14.  Note 60.  Velocity 0
000000t:  Control change ::  Channel 14.  Controller 7.  Value: 48
000000t:  Note on ::  Channel 14.  Note 55.  Velocity 110
000000t:  Note on ::  Channel 14.  Note 59.  Velocity 110
000000t:  Note on ::  Channel 14.  Note 62.  Velocity 110
000048t:  Control change ::  Channel 14.  Controller 7.  Value: 47
000048t:  Control change ::  Channel 14.  Controller 7.  Value: 46
000048t:  Control change ::  Channel 14.  Controller 7.  Value: 45
000048t:  Control change ::  Channel 14.  Controller 7.  Value: 44
000048t:  Control change ::  Channel 14.  Controller 7.  Value: 43
000048t:  Control change ::  Channel 14.  Controller 7.  Value: 42
000048t:  Control change ::  Channel 14.  Controller 7.  Value: 41
000048t:  Control change ::  Channel 14.  Controller 7.  Value: 40
000048t:  Control change ::  Channel 14.  Controller 7.  Value: 39
000048t:  Control change ::  Channel 14.  Controller 7.  Value: 38
000048t:  Control change ::  Channel 14.  Controller 7.  Value: 37
000048t:  Control change ::  Channel 14.  Controller 7.  Value: 36
000048t:  Control change ::  Channel 14.  Controller 7.  Value: 35
000048t:  Control change ::  Channel 14.  Controller 7.  Value: 34
000048t:  Control change ::  Channel 14.  Controller 7.  Value: 33
000048t:  Note on ::  Channel 14.  Note 55.  Velocity 0
000000t:  Note on ::  Channel 14.  Note 59.  Velocity 0
000000t:  Note on ::  Channel 14.  Note 62.  Velocity 0
000000t:  Control change ::  Channel 14.  Controller 7.  Value: 32
000000t:  Note on ::  Channel 14.  Note 57.  Velocity 110
000000t:  Note on ::  Channel 14.  Note 60.  Velocity 110
000000t:  Note on ::  Channel 14.  Note 64.  Velocity 110
000048t:  Control change ::  Channel 14.  Controller 7.  Value: 31
000048t:  Control change ::  Channel 14.  Controller 7.  Value: 30
000048t:  Control change ::  Channel 14.  Controller 7.  Value: 29
000048t:  Control change ::  Channel 14.  Controller 7.  Value: 28
000048t:  Control change ::  Channel 14.  Controller 7.  Value: 27
000048t:  Control change ::  Channel 14.  Controller 7.  Value: 26
000048t:  Control change ::  Channel 14.  Controller 7.  Value: 25
000048t:  Note on ::  Channel 14.  Note 57.  Velocity 0
000000t:  Note on ::  Channel 14.  Note 60.  Velocity 0
000000t:  Note on ::  Channel 14.  Note 64.  Velocity 0
000000t:  Control change ::  Channel 14.  Controller 7.  Value: 24
000000t:  Note on ::  Channel 14.  Note 55.  Velocity 110
000000t:  Note on ::  Channel 14.  Note 59.  Velocity 110
000000t:  Note on ::  Channel 14.  Note 62.  Velocity 110
000048t:  Control change ::  Channel 14.  Controller 7.  Value: 23
000048t:  Control change ::  Channel 14.  Controller 7.  Value: 22
000048t:  Control change ::  Channel 14.  Controller 7.  Value: 21
000048t:  Control change ::  Channel 14.  Controller 7.  Value: 20
000048t:  Control change ::  Channel 14.  Controller 7.  Value: 19
000048t:  Control change ::  Channel 14.  Controller 7.  Value: 18
000048t:  Control change ::  Channel 14.  Controller 7.  Value: 17
000048t:  Note on ::  Channel 14.  Note 55.  Velocity 0
000000t:  Note on ::  Channel 14.  Note 59.  Velocity 0
000000t:  Note on ::  Channel 14.  Note 62.  Velocity 0
000000t:  Control change ::  Channel 14.  Controller 7.  Value: 16
000000t:  Note on ::  Channel 14.  Note 57.  Velocity 110
000000t:  Note on ::  Channel 14.  Note 60.  Velocity 110
000000t:  Note on ::  Channel 14.  Note 64.  Velocity 110
000048t:  Control change ::  Channel 14.  Controller 7.  Value: 15
000048t:  Control change ::  Channel 14.  Controller 7.  Value: 14
000048t:  Control change ::  Channel 14.  Controller 7.  Value: 13
000048t:  Control change ::  Channel 14.  Controller 7.  Value: 12
000048t:  Control change ::  Channel 14.  Controller 7.  Value: 11
000048t:  Control change ::  Channel 14.  Controller 7.  Value: 10
000048t:  Control change ::  Channel 14.  Controller 7.  Value: 9
000048t:  Note on ::  Channel 14.  Note 57.  Velocity 0
000000t:  Note on ::  Channel 14.  Note 60.  Velocity 0
000000t:  Note on ::  Channel 14.  Note 64.  Velocity 0
000000t:  Control change ::  Channel 14.  Controller 7.  Value: 8
000000t:  Note on ::  Channel 14.  Note 55.  Velocity 110
000000t:  Note on ::  Channel 14.  Note 59.  Velocity 110
000000t:  Note on ::  Channel 14.  Note 62.  Velocity 110
000048t:  Control change ::  Channel 14.  Controller 7.  Value: 7
000048t:  Control change ::  Channel 14.  Controller 7.  Value: 6
000048t:  Control change ::  Channel 14.  Controller 7.  Value: 5
000048t:  Control change ::  Channel 14.  Controller 7.  Value: 4
000048t:  Control change ::  Channel 14.  Controller 7.  Value: 3
000048t:  Control change ::  Channel 14.  Controller 7.  Value: 2
000048t:  Control change ::  Channel 14.  Controller 7.  Value: 1
000048t:  Note on ::  Channel 14.  Note 55.  Velocity 0
000000t:  Note on ::  Channel 14.  Note 59.  Velocity 0
000000t:  Note on ::  Channel 14.  Note 62.  Velocity 0
000000t:  Control change ::  Channel 14.  Controller 7.  Value: 0
000000t:  Meta-event type $2f (End-track event) of length 0
Sigma t = 87264

Track chunk of 1906 bytes
000000t:  Meta-event type $21 (?) of length 1
	  _
000000t:  Meta-event type $03 (Track name) of length 19
	  A day BEFORE it was
000000t:  Program (patch) change ::  Channel 15.  Patch 84 (Lead 5 (charang))
000000t:  Control change ::  Channel 15.  Controller 7.  Value: 127
000000t:  Control change ::  Channel 15.  Controller 10.  Value: 64
010848t:  Note on ::  Channel 15.  Note 69.  Velocity 110
000000t:  Note on ::  Channel 15.  Note 72.  Velocity 110
000288t:  Note on ::  Channel 15.  Note 69.  Velocity 0
000000t:  Note on ::  Channel 15.  Note 72.  Velocity 0
000000t:  Note on ::  Channel 15.  Note 71.  Velocity 110
000000t:  Note on ::  Channel 15.  Note 74.  Velocity 110
000288t:  Note on ::  Channel 15.  Note 71.  Velocity 0
000000t:  Note on ::  Channel 15.  Note 74.  Velocity 0
000000t:  Note on ::  Channel 15.  Note 72.  Velocity 110
000000t:  Note on ::  Channel 15.  Note 76.  Velocity 110
000192t:  Note on ::  Channel 15.  Note 72.  Velocity 0
000000t:  Note on ::  Channel 15.  Note 76.  Velocity 0
000000t:  Note on ::  Channel 15.  Note 76.  Velocity 110
000000t:  Note on ::  Channel 15.  Note 79.  Velocity 110
000288t:  Note on ::  Channel 15.  Note 76.  Velocity 0
000000t:  Note on ::  Channel 15.  Note 79.  Velocity 0
000000t:  Note on ::  Channel 15.  Note 74.  Velocity 110
000000t:  Note on ::  Channel 15.  Note 78.  Velocity 110
000192t:  Note on ::  Channel 15.  Note 74.  Velocity 0
000000t:  Note on ::  Channel 15.  Note 78.  Velocity 0
000000t:  Note on ::  Channel 15.  Note 71.  Velocity 110
000000t:  Note on ::  Channel 15.  Note 74.  Velocity 110
000096t:  Note on ::  Channel 15.  Note 71.  Velocity 0
000000t:  Note on ::  Channel 15.  Note 74.  Velocity 0
000000t:  Note on ::  Channel 15.  Note 72.  Velocity 110
000000t:  Note on ::  Channel 15.  Note 75.  Velocity 110
000096t:  Note on ::  Channel 15.  Note 72.  Velocity 0
000000t:  Note on ::  Channel 15.  Note 75.  Velocity 0
000000t:  Note on ::  Channel 15.  Note 72.  Velocity 110
000000t:  Note on ::  Channel 15.  Note 76.  Velocity 110
000096t:  Note on ::  Channel 15.  Note 72.  Velocity 0
000000t:  Note on ::  Channel 15.  Note 76.  Velocity 0
000000t:  Note on ::  Channel 15.  Note 76.  Velocity 110
000000t:  Note on ::  Channel 15.  Note 83.  Velocity 110
000288t:  Note on ::  Channel 15.  Note 76.  Velocity 0
000000t:  Note on ::  Channel 15.  Note 83.  Velocity 0
000000t:  Note on ::  Channel 15.  Note 76.  Velocity 110
000000t:  Note on ::  Channel 15.  Note 81.  Velocity 110
001056t:  Note on ::  Channel 15.  Note 76.  Velocity 0
000000t:  Note on ::  Channel 15.  Note 81.  Velocity 0
000192t:  Note on ::  Channel 15.  Note 69.  Velocity 110
000000t:  Note on ::  Channel 15.  Note 72.  Velocity 110
000288t:  Note on ::  Channel 15.  Note 69.  Velocity 0
000000t:  Note on ::  Channel 15.  Note 72.  Velocity 0
000000t:  Note on ::  Channel 15.  Note 71.  Velocity 110
000000t:  Note on ::  Channel 15.  Note 74.  Velocity 110
000288t:  Note on ::  Channel 15.  Note 71.  Velocity 0
000000t:  Note on ::  Channel 15.  Note 74.  Velocity 0
000000t:  Note on ::  Channel 15.  Note 72.  Velocity 110
000000t:  Note on ::  Channel 15.  Note 76.  Velocity 110
000192t:  Note on ::  Channel 15.  Note 72.  Velocity 0
000000t:  Note on ::  Channel 15.  Note 76.  Velocity 0
000000t:  Note on ::  Channel 15.  Note 65.  Velocity 110
000000t:  Note on ::  Channel 15.  Note 69.  Velocity 110
000576t:  Note on ::  Channel 15.  Note 65.  Velocity 0
000000t:  Note on ::  Channel 15.  Note 69.  Velocity 0
000000t:  Note on ::  Channel 15.  Note 65.  Velocity 110
000000t:  Note on ::  Channel 15.  Note 67.  Velocity 110
000192t:  Note on ::  Channel 15.  Note 65.  Velocity 0
000000t:  Note on ::  Channel 15.  Note 67.  Velocity 0
000000t:  Note on ::  Channel 15.  Note 64.  Velocity 110
000000t:  Note on ::  Channel 15.  Note 69.  Velocity 110
001344t:  Note on ::  Channel 15.  Note 64.  Velocity 0
000000t:  Note on ::  Channel 15.  Note 69.  Velocity 0
000192t:  Note on ::  Channel 15.  Note 69.  Velocity 110
000000t:  Note on ::  Channel 15.  Note 72.  Velocity 110
000288t:  Note on ::  Channel 15.  Note 69.  Velocity 0
000000t:  Note on ::  Channel 15.  Note 72.  Velocity 0
000000t:  Note on ::  Channel 15.  Note 71.  Velocity 110
000000t:  Note on ::  Channel 15.  Note 74.  Velocity 110
000288t:  Note on ::  Channel 15.  Note 71.  Velocity 0
000000t:  Note on ::  Channel 15.  Note 74.  Velocity 0
000000t:  Note on ::  Channel 15.  Note 72.  Velocity 110
000000t:  Note on ::  Channel 15.  Note 76.  Velocity 110
000192t:  Note on ::  Channel 15.  Note 72.  Velocity 0
000000t:  Note on ::  Channel 15.  Note 76.  Velocity 0
000000t:  Note on ::  Channel 15.  Note 76.  Velocity 110
000000t:  Note on ::  Channel 15.  Note 79.  Velocity 110
000288t:  Note on ::  Channel 15.  Note 76.  Velocity 0
000000t:  Note on ::  Channel 15.  Note 79.  Velocity 0
000000t:  Note on ::  Channel 15.  Note 74.  Velocity 110
000000t:  Note on ::  Channel 15.  Note 78.  Velocity 110
000192t:  Note on ::  Channel 15.  Note 74.  Velocity 0
000000t:  Note on ::  Channel 15.  Note 78.  Velocity 0
000000t:  Note on ::  Channel 15.  Note 71.  Velocity 110
000000t:  Note on ::  Channel 15.  Note 74.  Velocity 110
000096t:  Note on ::  Channel 15.  Note 71.  Velocity 0
000000t:  Note on ::  Channel 15.  Note 74.  Velocity 0
000000t:  Note on ::  Channel 15.  Note 72.  Velocity 110
000000t:  Note on ::  Channel 15.  Note 75.  Velocity 110
000096t:  Note on ::  Channel 15.  Note 72.  Velocity 0
000000t:  Note on ::  Channel 15.  Note 75.  Velocity 0
000000t:  Note on ::  Channel 15.  Note 72.  Velocity 110
000000t:  Note on ::  Channel 15.  Note 76.  Velocity 110
000096t:  Note on ::  Channel 15.  Note 72.  Velocity 0
000000t:  Note on ::  Channel 15.  Note 76.  Velocity 0
000000t:  Note on ::  Channel 15.  Note 76.  Velocity 110
000000t:  Note on ::  Channel 15.  Note 83.  Velocity 110
000288t:  Note on ::  Channel 15.  Note 76.  Velocity 0
000000t:  Note on ::  Channel 15.  Note 83.  Velocity 0
000000t:  Note on ::  Channel 15.  Note 76.  Velocity 110
000000t:  Note on ::  Channel 15.  Note 81.  Velocity 110
001056t:  Note on ::  Channel 15.  Note 76.  Velocity 0
000000t:  Note on ::  Channel 15.  Note 81.  Velocity 0
000192t:  Note on ::  Channel 15.  Note 69.  Velocity 110
000000t:  Note on ::  Channel 15.  Note 72.  Velocity 110
000288t:  Note on ::  Channel 15.  Note 69.  Velocity 0
000000t:  Note on ::  Channel 15.  Note 72.  Velocity 0
000000t:  Note on ::  Channel 15.  Note 71.  Velocity 110
000000t:  Note on ::  Channel 15.  Note 74.  Velocity 110
000288t:  Note on ::  Channel 15.  Note 71.  Velocity 0
000000t:  Note on ::  Channel 15.  Note 74.  Velocity 0
000000t:  Note on ::  Channel 15.  Note 72.  Velocity 110
000000t:  Note on ::  Channel 15.  Note 76.  Velocity 110
000192t:  Note on ::  Channel 15.  Note 72.  Velocity 0
000000t:  Note on ::  Channel 15.  Note 76.  Velocity 0
000000t:  Note on ::  Channel 15.  Note 65.  Velocity 110
000000t:  Note on ::  Channel 15.  Note 69.  Velocity 110
000576t:  Note on ::  Channel 15.  Note 65.  Velocity 0
000000t:  Note on ::  Channel 15.  Note 69.  Velocity 0
000000t:  Note on ::  Channel 15.  Note 65.  Velocity 110
000000t:  Note on ::  Channel 15.  Note 67.  Velocity 110
000192t:  Note on ::  Channel 15.  Note 65.  Velocity 0
000000t:  Note on ::  Channel 15.  Note 67.  Velocity 0
000000t:  Note on ::  Channel 15.  Note 64.  Velocity 110
000000t:  Note on ::  Channel 15.  Note 69.  Velocity 110
001344t:  Note on ::  Channel 15.  Note 64.  Velocity 0
000000t:  Note on ::  Channel 15.  Note 69.  Velocity 0
023040t:  Note on ::  Channel 15.  Note 69.  Velocity 110
000000t:  Note on ::  Channel 15.  Note 72.  Velocity 110
000288t:  Note on ::  Channel 15.  Note 69.  Velocity 0
000000t:  Note on ::  Channel 15.  Note 72.  Velocity 0
000000t:  Note on ::  Channel 15.  Note 71.  Velocity 110
000000t:  Note on ::  Channel 15.  Note 74.  Velocity 110
000288t:  Note on ::  Channel 15.  Note 71.  Velocity 0
000000t:  Note on ::  Channel 15.  Note 74.  Velocity 0
000000t:  Note on ::  Channel 15.  Note 72.  Velocity 110
000000t:  Note on ::  Channel 15.  Note 76.  Velocity 110
000192t:  Note on ::  Channel 15.  Note 72.  Velocity 0
000000t:  Note on ::  Channel 15.  Note 76.  Velocity 0
000000t:  Note on ::  Channel 15.  Note 76.  Velocity 110
000000t:  Note on ::  Channel 15.  Note 79.  Velocity 110
000288t:  Note on ::  Channel 15.  Note 76.  Velocity 0
000000t:  Note on ::  Channel 15.  Note 79.  Velocity 0
000000t:  Note on ::  Channel 15.  Note 74.  Velocity 110
000000t:  Note on ::  Channel 15.  Note 78.  Velocity 110
000192t:  Note on ::  Channel 15.  Note 74.  Velocity 0
000000t:  Note on ::  Channel 15.  Note 78.  Velocity 0
000000t:  Note on ::  Channel 15.  Note 71.  Velocity 110
000000t:  Note on ::  Channel 15.  Note 74.  Velocity 110
000096t:  Note on ::  Channel 15.  Note 71.  Velocity 0
000000t:  Note on ::  Channel 15.  Note 74.  Velocity 0
000000t:  Note on ::  Channel 15.  Note 72.  Velocity 110
000000t:  Note on ::  Channel 15.  Note 75.  Velocity 110
000096t:  Note on ::  Channel 15.  Note 72.  Velocity 0
000000t:  Note on ::  Channel 15.  Note 75.  Velocity 0
000000t:  Note on ::  Channel 15.  Note 72.  Velocity 110
000000t:  Note on ::  Channel 15.  Note 76.  Velocity 110
000096t:  Note on ::  Channel 15.  Note 72.  Velocity 0
000000t:  Note on ::  Channel 15.  Note 76.  Velocity 0
000000t:  Note on ::  Channel 15.  Note 76.  Velocity 110
000000t:  Note on ::  Channel 15.  Note 83.  Velocity 110
000288t:  Note on ::  Channel 15.  Note 76.  Velocity 0
000000t:  Note on ::  Channel 15.  Note 83.  Velocity 0
000000t:  Note on ::  Channel 15.  Note 76.  Velocity 110
000000t:  Note on ::  Channel 15.  Note 81.  Velocity 110
001056t:  Note on ::  Channel 15.  Note 76.  Velocity 0
000000t:  Note on ::  Channel 15.  Note 81.  Velocity 0
000192t:  Note on ::  Channel 15.  Note 69.  Velocity 110
000000t:  Note on ::  Channel 15.  Note 72.  Velocity 110
000288t:  Note on ::  Channel 15.  Note 69.  Velocity 0
000000t:  Note on ::  Channel 15.  Note 72.  Velocity 0
000000t:  Note on ::  Channel 15.  Note 71.  Velocity 110
000000t:  Note on ::  Channel 15.  Note 74.  Velocity 110
000288t:  Note on ::  Channel 15.  Note 71.  Velocity 0
000000t:  Note on ::  Channel 15.  Note 74.  Velocity 0
000000t:  Note on ::  Channel 15.  Note 72.  Velocity 110
000000t:  Note on ::  Channel 15.  Note 76.  Velocity 110
000192t:  Note on ::  Channel 15.  Note 72.  Velocity 0
000000t:  Note on ::  Channel 15.  Note 76.  Velocity 0
000000t:  Note on ::  Channel 15.  Note 65.  Velocity 110
000000t:  Note on ::  Channel 15.  Note 69.  Velocity 110
000576t:  Note on ::  Channel 15.  Note 65.  Velocity 0
000000t:  Note on ::  Channel 15.  Note 69.  Velocity 0
000000t:  Note on ::  Channel 15.  Note 65.  Velocity 110
000000t:  Note on ::  Channel 15.  Note 67.  Velocity 110
000192t:  Note on ::  Channel 15.  Note 65.  Velocity 0
000000t:  Note on ::  Channel 15.  Note 67.  Velocity 0
000000t:  Note on ::  Channel 15.  Note 64.  Velocity 110
000000t:  Note on ::  Channel 15.  Note 69.  Velocity 110
001344t:  Note on ::  Channel 15.  Note 64.  Velocity 0
000000t:  Note on ::  Channel 15.  Note 69.  Velocity 0
000192t:  Note on ::  Channel 15.  Note 69.  Velocity 110
000000t:  Note on ::  Channel 15.  Note 72.  Velocity 110
000288t:  Note on ::  Channel 15.  Note 69.  Velocity 0
000000t:  Note on ::  Channel 15.  Note 72.  Velocity 0
000000t:  Note on ::  Channel 15.  Note 71.  Velocity 110
000000t:  Note on ::  Channel 15.  Note 74.  Velocity 110
000288t:  Note on ::  Channel 15.  Note 71.  Velocity 0
000000t:  Note on ::  Channel 15.  Note 74.  Velocity 0
000000t:  Note on ::  Channel 15.  Note 72.  Velocity 110
000000t:  Note on ::  Channel 15.  Note 76.  Velocity 110
000192t:  Note on ::  Channel 15.  Note 72.  Velocity 0
000000t:  Note on ::  Channel 15.  Note 76.  Velocity 0
000000t:  Note on ::  Channel 15.  Note 76.  Velocity 110
000000t:  Note on ::  Channel 15.  Note 79.  Velocity 110
000288t:  Note on ::  Channel 15.  Note 76.  Velocity 0
000000t:  Note on ::  Channel 15.  Note 79.  Velocity 0
000000t:  Note on ::  Channel 15.  Note 74.  Velocity 110
000000t:  Note on ::  Channel 15.  Note 78.  Velocity 110
000192t:  Note on ::  Channel 15.  Note 74.  Velocity 0
000000t:  Note on ::  Channel 15.  Note 78.  Velocity 0
000000t:  Note on ::  Channel 15.  Note 71.  Velocity 110
000000t:  Note on ::  Channel 15.  Note 74.  Velocity 110
000096t:  Note on ::  Channel 15.  Note 71.  Velocity 0
000000t:  Note on ::  Channel 15.  Note 74.  Velocity 0
000000t:  Note on ::  Channel 15.  Note 72.  Velocity 110
000000t:  Note on ::  Channel 15.  Note 75.  Velocity 110
000096t:  Note on ::  Channel 15.  Note 72.  Velocity 0
000000t:  Note on ::  Channel 15.  Note 75.  Velocity 0
000000t:  Note on ::  Channel 15.  Note 72.  Velocity 110
000000t:  Note on ::  Channel 15.  Note 76.  Velocity 110
000096t:  Note on ::  Channel 15.  Note 72.  Velocity 0
000000t:  Note on ::  Channel 15.  Note 76.  Velocity 0
000000t:  Note on ::  Channel 15.  Note 76.  Velocity 110
000000t:  Note on ::  Channel 15.  Note 83.  Velocity 110
000288t:  Note on ::  Channel 15.  Note 76.  Velocity 0
000000t:  Note on ::  Channel 15.  Note 83.  Velocity 0
000000t:  Note on ::  Channel 15.  Note 76.  Velocity 110
000000t:  Note on ::  Channel 15.  Note 81.  Velocity 110
001056t:  Note on ::  Channel 15.  Note 76.  Velocity 0
000000t:  Note on ::  Channel 15.  Note 81.  Velocity 0
000192t:  Note on ::  Channel 15.  Note 69.  Velocity 110
000000t:  Note on ::  Channel 15.  Note 72.  Velocity 110
000288t:  Note on ::  Channel 15.  Note 69.  Velocity 0
000000t:  Note on ::  Channel 15.  Note 72.  Velocity 0
000000t:  Note on ::  Channel 15.  Note 71.  Velocity 110
000000t:  Note on ::  Channel 15.  Note 74.  Velocity 110
000288t:  Note on ::  Channel 15.  Note 71.  Velocity 0
000000t:  Note on ::  Channel 15.  Note 74.  Velocity 0
000000t:  Note on ::  Channel 15.  Note 72.  Velocity 110
000000t:  Note on ::  Channel 15.  Note 76.  Velocity 110
000192t:  Note on ::  Channel 15.  Note 72.  Velocity 0
000000t:  Note on ::  Channel 15.  Note 76.  Velocity 0
000000t:  Note on ::  Channel 15.  Note 65.  Velocity 110
000000t:  Note on ::  Channel 15.  Note 69.  Velocity 110
000576t:  Note on ::  Channel 15.  Note 65.  Velocity 0
000000t:  Note on ::  Channel 15.  Note 69.  Velocity 0
000000t:  Note on ::  Channel 15.  Note 65.  Velocity 110
000000t:  Note on ::  Channel 15.  Note 67.  Velocity 110
000192t:  Note on ::  Channel 15.  Note 65.  Velocity 0
000000t:  Note on ::  Channel 15.  Note 67.  Velocity 0
000000t:  Note on ::  Channel 15.  Note 64.  Velocity 110
000000t:  Note on ::  Channel 15.  Note 69.  Velocity 110
001344t:  Note on ::  Channel 15.  Note 64.  Velocity 0
000000t:  Note on ::  Channel 15.  Note 69.  Velocity 0
023040t:  Note on ::  Channel 15.  Note 69.  Velocity 110
000000t:  Note on ::  Channel 15.  Note 72.  Velocity 110
000288t:  Note on ::  Channel 15.  Note 69.  Velocity 0
000000t:  Note on ::  Channel 15.  Note 72.  Velocity 0
000000t:  Note on ::  Channel 15.  Note 71.  Velocity 110
000000t:  Note on ::  Channel 15.  Note 74.  Velocity 110
000288t:  Note on ::  Channel 15.  Note 71.  Velocity 0
000000t:  Note on ::  Channel 15.  Note 74.  Velocity 0
000000t:  Note on ::  Channel 15.  Note 72.  Velocity 110
000000t:  Note on ::  Channel 15.  Note 76.  Velocity 110
000192t:  Note on ::  Channel 15.  Note 72.  Velocity 0
000000t:  Note on ::  Channel 15.  Note 76.  Velocity 0
000000t:  Note on ::  Channel 15.  Note 76.  Velocity 110
000000t:  Note on ::  Channel 15.  Note 79.  Velocity 110
000288t:  Note on ::  Channel 15.  Note 76.  Velocity 0
000000t:  Note on ::  Channel 15.  Note 79.  Velocity 0
000000t:  Note on ::  Channel 15.  Note 74.  Velocity 110
000000t:  Note on ::  Channel 15.  Note 78.  Velocity 110
000192t:  Note on ::  Channel 15.  Note 74.  Velocity 0
000000t:  Note on ::  Channel 15.  Note 78.  Velocity 0
000000t:  Note on ::  Channel 15.  Note 71.  Velocity 110
000000t:  Note on ::  Channel 15.  Note 74.  Velocity 110
000096t:  Note on ::  Channel 15.  Note 71.  Velocity 0
000000t:  Note on ::  Channel 15.  Note 74.  Velocity 0
000000t:  Note on ::  Channel 15.  Note 72.  Velocity 110
000000t:  Note on ::  Channel 15.  Note 75.  Velocity 110
000096t:  Note on ::  Channel 15.  Note 72.  Velocity 0
000000t:  Note on ::  Channel 15.  Note 75.  Velocity 0
000000t:  Note on ::  Channel 15.  Note 72.  Velocity 110
000000t:  Note on ::  Channel 15.  Note 76.  Velocity 110
000096t:  Note on ::  Channel 15.  Note 72.  Velocity 0
000000t:  Note on ::  Channel 15.  Note 76.  Velocity 0
000000t:  Note on ::  Channel 15.  Note 76.  Velocity 110
000000t:  Note on ::  Channel 15.  Note 83.  Velocity 110
000288t:  Note on ::  Channel 15.  Note 76.  Velocity 0
000000t:  Note on ::  Channel 15.  Note 83.  Velocity 0
000000t:  Note on ::  Channel 15.  Note 76.  Velocity 110
000000t:  Note on ::  Channel 15.  Note 81.  Velocity 110
001056t:  Note on ::  Channel 15.  Note 76.  Velocity 0
000000t:  Note on ::  Channel 15.  Note 81.  Velocity 0
000192t:  Control change ::  Channel 15.  Controller 7.  Value: 127
000000t:  Note on ::  Channel 15.  Note 69.  Velocity 110
000000t:  Note on ::  Channel 15.  Note 72.  Velocity 110
000024t:  Control change ::  Channel 15.  Controller 7.  Value: 126
000024t:  Control change ::  Channel 15.  Controller 7.  Value: 125
000024t:  Control change ::  Channel 15.  Controller 7.  Value: 124
000024t:  Control change ::  Channel 15.  Controller 7.  Value: 123
000024t:  Control change ::  Channel 15.  Controller 7.  Value: 122
000025t:  Control change ::  Channel 15.  Controller 7.  Value: 121
000024t:  Control change ::  Channel 15.  Controller 7.  Value: 120
000024t:  Control change ::  Channel 15.  Controller 7.  Value: 119
000024t:  Control change ::  Channel 15.  Controller 7.  Value: 118
000024t:  Control change ::  Channel 15.  Controller 7.  Value: 117
000025t:  Control change ::  Channel 15.  Controller 7.  Value: 116
000022t:  Note on ::  Channel 15.  Note 69.  Velocity 0
000000t:  Note on ::  Channel 15.  Note 72.  Velocity 0
000000t:  Note on ::  Channel 15.  Note 71.  Velocity 110
000000t:  Note on ::  Channel 15.  Note 74.  Velocity 110
000002t:  Control change ::  Channel 15.  Controller 7.  Value: 115
000024t:  Control change ::  Channel 15.  Controller 7.  Value: 114
000024t:  Control change ::  Channel 15.  Controller 7.  Value: 113
000024t:  Control change ::  Channel 15.  Controller 7.  Value: 112
000025t:  Control change ::  Channel 15.  Controller 7.  Value: 111
000024t:  Control change ::  Channel 15.  Controller 7.  Value: 110
000024t:  Control change ::  Channel 15.  Controller 7.  Value: 109
000024t:  Control change ::  Channel 15.  Controller 7.  Value: 108
000024t:  Control change ::  Channel 15.  Controller 7.  Value: 107
000024t:  Control change ::  Channel 15.  Controller 7.  Value: 106
000025t:  Control change ::  Channel 15.  Controller 7.  Value: 105
000024t:  Control change ::  Channel 15.  Controller 7.  Value: 104
000020t:  Note on ::  Channel 15.  Note 71.  Velocity 0
000000t:  Note on ::  Channel 15.  Note 74.  Velocity 0
000000t:  Note on ::  Channel 15.  Note 72.  Velocity 110
000000t:  Note on ::  Channel 15.  Note 76.  Velocity 110
000004t:  Control change ::  Channel 15.  Controller 7.  Value: 103
000024t:  Control change ::  Channel 15.  Controller 7.  Value: 102
000024t:  Control change ::  Channel 15.  Controller 7.  Value: 101
000025t:  Control change ::  Channel 15.  Controller 7.  Value: 100
000024t:  Control change ::  Channel 15.  Controller 7.  Value: 99
000024t:  Control change ::  Channel 15.  Controller 7.  Value: 98
000024t:  Control change ::  Channel 15.  Controller 7.  Value: 97
000024t:  Control change ::  Channel 15.  Controller 7.  Value: 96
000019t:  Note on ::  Channel 15.  Note 72.  Velocity 0
000000t:  Note on ::  Channel 15.  Note 76.  Velocity 0
000000t:  Note on ::  Channel 15.  Note 65.  Velocity 110
000000t:  Note on ::  Channel 15.  Note 69.  Velocity 110
000006t:  Control change ::  Channel 15.  Controller 7.  Value: 95
000024t:  Control change ::  Channel 15.  Controller 7.  Value: 94
000024t:  Control change ::  Channel 15.  Controller 7.  Value: 93
000024t:  Control change ::  Channel 15.  Controller 7.  Value: 92
000024t:  Control change ::  Channel 15.  Controller 7.  Value: 91
000024t:  Control change ::  Channel 15.  Controller 7.  Value: 90
000025t:  Control change ::  Channel 15.  Controller 7.  Value: 89
000024t:  Control change ::  Channel 15.  Controller 7.  Value: 88
000024t:  Control change ::  Channel 15.  Controller 7.  Value: 87
000024t:  Control change ::  Channel 15.  Controller 7.  Value: 86
000024t:  Control change ::  Channel 15.  Controller 7.  Value: 85
000025t:  Control change ::  Channel 15.  Controller 7.  Value: 84
000024t:  Control change ::  Channel 15.  Controller 7.  Value: 83
000024t:  Control change ::  Channel 15.  Controller 7.  Value: 82
000024t:  Control change ::  Channel 15.  Controller 7.  Value: 81
000024t:  Control change ::  Channel 15.  Controller 7.  Value: 80
000025t:  Control change ::  Channel 15.  Controller 7.  Value: 79
000024t:  Control change ::  Channel 15.  Controller 7.  Value: 78
000024t:  Control change ::  Channel 15.  Controller 7.  Value: 77
000024t:  Control change ::  Channel 15.  Controller 7.  Value: 76
000024t:  Control change ::  Channel 15.  Controller 7.  Value: 75
000025t:  Control change ::  Channel 15.  Controller 7.  Value: 74
000024t:  Control change ::  Channel 15.  Controller 7.  Value: 73
000024t:  Control change ::  Channel 15.  Controller 7.  Value: 72
000014t:  Note on ::  Channel 15.  Note 65.  Velocity 0
000000t:  Note on ::  Channel 15.  Note 69.  Velocity 0
000000t:  Note on ::  Channel 15.  Note 65.  Velocity 110
000000t:  Note on ::  Channel 15.  Note 67.  Velocity 110
000010t:  Control change ::  Channel 15.  Controller 7.  Value: 71
000024t:  Control change ::  Channel 15.  Controller 7.  Value: 70
000024t:  Control change ::  Channel 15.  Controller 7.  Value: 69
000025t:  Control change ::  Channel 15.  Controller 7.  Value: 68
000024t:  Control change ::  Channel 15.  Controller 7.  Value: 67
000024t:  Control change ::  Channel 15.  Controller 7.  Value: 66
000024t:  Control change ::  Channel 15.  Controller 7.  Value: 65
000024t:  Control change ::  Channel 15.  Controller 7.  Value: 64
000013t:  Note on ::  Channel 15.  Note 65.  Velocity 0
000000t:  Note on ::  Channel 15.  Note 67.  Velocity 0
000000t:  Note on ::  Channel 15.  Note 64.  Velocity 110
000000t:  Note on ::  Channel 15.  Note 69.  Velocity 110
000012t:  Control change ::  Channel 15.  Controller 7.  Value: 63
000024t:  Control change ::  Channel 15.  Controller 7.  Value: 62
000024t:  Control change ::  Channel 15.  Controller 7.  Value: 61
000024t:  Control change ::  Channel 15.  Controller 7.  Value: 60
000024t:  Control change ::  Channel 15.  Controller 7.  Value: 59
000025t:  Control change ::  Channel 15.  Controller 7.  Value: 58
000024t:  Control change ::  Channel 15.  Controller 7.  Value: 57
000024t:  Control change ::  Channel 15.  Controller 7.  Value: 56
000024t:  Control change ::  Channel 15.  Controller 7.  Value: 55
000024t:  Control change ::  Channel 15.  Controller 7.  Value: 54
000024t:  Control change ::  Channel 15.  Controller 7.  Value: 53
000025t:  Control change ::  Channel 15.  Controller 7.  Value: 52
000024t:  Control change ::  Channel 15.  Controller 7.  Value: 51
000024t:  Control change ::  Channel 15.  Controller 7.  Value: 50
000024t:  Control change ::  Channel 15.  Controller 7.  Value: 49
000024t:  Control change ::  Channel 15.  Controller 7.  Value: 48
000025t:  Control change ::  Channel 15.  Controller 7.  Value: 47
000024t:  Control change ::  Channel 15.  Controller 7.  Value: 46
000024t:  Control change ::  Channel 15.  Controller 7.  Value: 45
000024t:  Control change ::  Channel 15.  Controller 7.  Value: 44
000024t:  Control change ::  Channel 15.  Controller 7.  Value: 43
000025t:  Control change ::  Channel 15.  Controller 7.  Value: 42
000024t:  Control change ::  Channel 15.  Controller 7.  Value: 41
000024t:  Control change ::  Channel 15.  Controller 7.  Value: 40
000024t:  Control change ::  Channel 15.  Controller 7.  Value: 39
000024t:  Control change ::  Channel 15.  Controller 7.  Value: 38
000025t:  Control change ::  Channel 15.  Controller 7.  Value: 37
000024t:  Control change ::  Channel 15.  Controller 7.  Value: 36
000024t:  Control change ::  Channel 15.  Controller 7.  Value: 35
000024t:  Control change ::  Channel 15.  Controller 7.  Value: 34
000024t:  Control change ::  Channel 15.  Controller 7.  Value: 33
000024t:  Control change ::  Channel 15.  Controller 7.  Value: 32
000025t:  Control change ::  Channel 15.  Controller 7.  Value: 31
000024t:  Control change ::  Channel 15.  Controller 7.  Value: 30
000024t:  Control change ::  Channel 15.  Controller 7.  Value: 29
000024t:  Control change ::  Channel 15.  Controller 7.  Value: 28
000024t:  Control change ::  Channel 15.  Controller 7.  Value: 27
000025t:  Control change ::  Channel 15.  Controller 7.  Value: 26
000024t:  Control change ::  Channel 15.  Controller 7.  Value: 25
000024t:  Control change ::  Channel 15.  Controller 7.  Value: 24
000024t:  Control change ::  Channel 15.  Controller 7.  Value: 23
000024t:  Control change ::  Channel 15.  Controller 7.  Value: 22
000025t:  Control change ::  Channel 15.  Controller 7.  Value: 21
000024t:  Control change ::  Channel 15.  Controller 7.  Value: 20
000024t:  Control change ::  Channel 15.  Controller 7.  Value: 19
000024t:  Control change ::  Channel 15.  Controller 7.  Value: 18
000024t:  Control change ::  Channel 15.  Controller 7.  Value: 17
000024t:  Control change ::  Channel 15.  Controller 7.  Value: 16
000025t:  Control change ::  Channel 15.  Controller 7.  Value: 15
000024t:  Control change ::  Channel 15.  Controller 7.  Value: 14
000024t:  Control change ::  Channel 15.  Controller 7.  Value: 13
000024t:  Control change ::  Channel 15.  Controller 7.  Value: 12
000024t:  Control change ::  Channel 15.  Controller 7.  Value: 11
000025t:  Control change ::  Channel 15.  Controller 7.  Value: 10
000024t:  Control change ::  Channel 15.  Controller 7.  Value: 9
000024t:  Control change ::  Channel 15.  Controller 7.  Value: 8
000002t:  Note on ::  Channel 15.  Note 64.  Velocity 0
000000t:  Note on ::  Channel 15.  Note 69.  Velocity 0
000022t:  Control change ::  Channel 15.  Controller 7.  Value: 7
000024t:  Control change ::  Channel 15.  Controller 7.  Value: 6
000025t:  Control change ::  Channel 15.  Controller 7.  Value: 5
000024t:  Control change ::  Channel 15.  Controller 7.  Value: 4
000024t:  Control change ::  Channel 15.  Controller 7.  Value: 3
000024t:  Control change ::  Channel 15.  Controller 7.  Value: 2
000024t:  Control change ::  Channel 15.  Controller 7.  Value: 1
000025t:  Control change ::  Channel 15.  Controller 7.  Value: 0
000000t:  Meta-event type $2f (End-track event) of length 0
Sigma t = 87264

Track chunk of 6313 bytes
000000t:  Meta-event type $21 (?) of length 1
	  _
000000t:  Meta-event type $03 (Track name) of length 18
	  released in Japan!
000000t:  Program (patch) change ::  Channel 2.  Patch 33 (Electric Bass(finger))
000000t:  Control change ::  Channel 2.  Controller 7.  Value: 127
000000t:  Control change ::  Channel 2.  Controller 10.  Value: 64
000288t:  Note on ::  Channel 2.  Note 45.  Velocity 110
000094t:  Note on ::  Channel 2.  Note 45.  Velocity 0
000002t:  Note on ::  Channel 2.  Note 45.  Velocity 110
000094t:  Note on ::  Channel 2.  Note 45.  Velocity 0
000002t:  Note on ::  Channel 2.  Note 45.  Velocity 110
000094t:  Note on ::  Channel 2.  Note 45.  Velocity 0
000002t:  Note on ::  Channel 2.  Note 45.  Velocity 110
000094t:  Note on ::  Channel 2.  Note 45.  Velocity 0
000002t:  Note on ::  Channel 2.  Note 45.  Velocity 110
000094t:  Note on ::  Channel 2.  Note 45.  Velocity 0
000002t:  Note on ::  Channel 2.  Note 45.  Velocity 110
000094t:  Note on ::  Channel 2.  Note 45.  Velocity 0
000002t:  Note on ::  Channel 2.  Note 43.  Velocity 110
000094t:  Note on ::  Channel 2.  Note 43.  Velocity 0
000002t:  Note on ::  Channel 2.  Note 43.  Velocity 110
000094t:  Note on ::  Channel 2.  Note 43.  Velocity 0
000002t:  Note on ::  Channel 2.  Note 45.  Velocity 110
000094t:  Note on ::  Channel 2.  Note 45.  Velocity 0
000002t:  Note on ::  Channel 2.  Note 45.  Velocity 110
000094t:  Note on ::  Channel 2.  Note 45.  Velocity 0
000002t:  Note on ::  Channel 2.  Note 45.  Velocity 110
000094t:  Note on ::  Channel 2.  Note 45.  Velocity 0
000002t:  Note on ::  Channel 2.  Note 45.  Velocity 110
000094t:  Note on ::  Channel 2.  Note 45.  Velocity 0
000002t:  Note on ::  Channel 2.  Note 45.  Velocity 110
000094t:  Note on ::  Channel 2.  Note 45.  Velocity 0
000002t:  Note on ::  Channel 2.  Note 45.  Velocity 110
000094t:  Note on ::  Channel 2.  Note 45.  Velocity 0
000002t:  Note on ::  Channel 2.  Note 43.  Velocity 110
000094t:  Note on ::  Channel 2.  Note 43.  Velocity 0
000002t:  Note on ::  Channel 2.  Note 43.  Velocity 110
000094t:  Note on ::  Channel 2.  Note 43.  Velocity 0
000002t:  Note on ::  Channel 2.  Note 45.  Velocity 110
000094t:  Note on ::  Channel 2.  Note 45.  Velocity 0
000002t:  Note on ::  Channel 2.  Note 45.  Velocity 110
000094t:  Note on ::  Channel 2.  Note 45.  Velocity 0
000002t:  Note on ::  Channel 2.  Note 45.  Velocity 110
000094t:  Note on ::  Channel 2.  Note 45.  Velocity 0
000002t:  Note on ::  Channel 2.  Note 45.  Velocity 110
000094t:  Note on ::  Channel 2.  Note 45.  Velocity 0
000002t:  Note on ::  Channel 2.  Note 45.  Velocity 110
000094t:  Note on ::  Channel 2.  Note 45.  Velocity 0
000002t:  Note on ::  Channel 2.  Note 45.  Velocity 110
000094t:  Note on ::  Channel 2.  Note 45.  Velocity 0
000002t:  Note on ::  Channel 2.  Note 43.  Velocity 110
000094t:  Note on ::  Channel 2.  Note 43.  Velocity 0
000002t:  Note on ::  Channel 2.  Note 43.  Velocity 110
000094t:  Note on ::  Channel 2.  Note 43.  Velocity 0
000002t:  Note on ::  Channel 2.  Note 45.  Velocity 110
000094t:  Note on ::  Channel 2.  Note 45.  Velocity 0
000002t:  Note on ::  Channel 2.  Note 45.  Velocity 110
000094t:  Note on ::  Channel 2.  Note 45.  Velocity 0
000002t:  Note on ::  Channel 2.  Note 45.  Velocity 110
000094t:  Note on ::  Channel 2.  Note 45.  Velocity 0
000002t:  Note on ::  Channel 2.  Note 45.  Velocity 110
000094t:  Note on ::  Channel 2.  Note 45.  Velocity 0
000002t:  Note on ::  Channel 2.  Note 45.  Velocity 110
000094t:  Note on ::  Channel 2.  Note 45.  Velocity 0
000002t:  Note on ::  Channel 2.  Note 45.  Velocity 110
000094t:  Note on ::  Channel 2.  Note 45.  Velocity 0
000002t:  Note on ::  Channel 2.  Note 43.  Velocity 110
000094t:  Note on ::  Channel 2.  Note 43.  Velocity 0
000002t:  Note on ::  Channel 2.  Note 43.  Velocity 110
000094t:  Note on ::  Channel 2.  Note 43.  Velocity 0
000002t:  Note on ::  Channel 2.  Note 45.  Velocity 110
000094t:  Note on ::  Channel 2.  Note 45.  Velocity 0
000002t:  Note on ::  Channel 2.  Note 45.  Velocity 110
000094t:  Note on ::  Channel 2.  Note 45.  Velocity 0
000002t:  Note on ::  Channel 2.  Note 45.  Velocity 110
000094t:  Note on ::  Channel 2.  Note 45.  Velocity 0
000002t:  Note on ::  Channel 2.  Note 45.  Velocity 110
000094t:  Note on ::  Channel 2.  Note 45.  Velocity 0
000002t:  Note on ::  Channel 2.  Note 45.  Velocity 110
000094t:  Note on ::  Channel 2.  Note 45.  Velocity 0
000002t:  Note on ::  Channel 2.  Note 45.  Velocity 110
000094t:  Note on ::  Channel 2.  Note 45.  Velocity 0
000002t:  Note on ::  Channel 2.  Note 43.  Velocity 110
000094t:  Note on ::  Channel 2.  Note 43.  Velocity 0
000002t:  Note on ::  Channel 2.  Note 43.  Velocity 110
000094t:  Note on ::  Channel 2.  Note 43.  Velocity 0
000002t:  Note on ::  Channel 2.  Note 45.  Velocity 110
000094t:  Note on ::  Channel 2.  Note 45.  Velocity 0
000002t:  Note on ::  Channel 2.  Note 45.  Velocity 110
000094t:  Note on ::  Channel 2.  Note 45.  Velocity 0
000002t:  Note on ::  Channel 2.  Note 45.  Velocity 110
000094t:  Note on ::  Channel 2.  Note 45.  Velocity 0
000002t:  Note on ::  Channel 2.  Note 45.  Velocity 110
000094t:  Note on ::  Channel 2.  Note 45.  Velocity 0
000002t:  Note on ::  Channel 2.  Note 45.  Velocity 110
000094t:  Note on ::  Channel 2.  Note 45.  Velocity 0
000002t:  Note on ::  Channel 2.  Note 45.  Velocity 110
000094t:  Note on ::  Channel 2.  Note 45.  Velocity 0
000002t:  Note on ::  Channel 2.  Note 43.  Velocity 110
000094t:  Note on ::  Channel 2.  Note 43.  Velocity 0
000002t:  Note on ::  Channel 2.  Note 43.  Velocity 110
000094t:  Note on ::  Channel 2.  Note 43.  Velocity 0
000002t:  Note on ::  Channel 2.  Note 41.  Velocity 110
001296t:  Note on ::  Channel 2.  Note 41.  Velocity 0
000048t:  Note on ::  Channel 2.  Note 43.  Velocity 110
001488t:  Note on ::  Channel 2.  Note 43.  Velocity 0
000048t:  Note on ::  Channel 2.  Note 45.  Velocity 110
000094t:  Note on ::  Channel 2.  Note 45.  Velocity 0
000002t:  Note on ::  Channel 2.  Note 45.  Velocity 110
000094t:  Note on ::  Channel 2.  Note 45.  Velocity 0
000002t:  Note on ::  Channel 2.  Note 45.  Velocity 110
000094t:  Note on ::  Channel 2.  Note 45.  Velocity 0
000002t:  Note on ::  Channel 2.  Note 45.  Velocity 110
000094t:  Note on ::  Channel 2.  Note 45.  Velocity 0
000002t:  Note on ::  Channel 2.  Note 45.  Velocity 110
000094t:  Note on ::  Channel 2.  Note 45.  Velocity 0
000002t:  Note on ::  Channel 2.  Note 45.  Velocity 110
000094t:  Note on ::  Channel 2.  Note 45.  Velocity 0
000002t:  Note on ::  Channel 2.  Note 43.  Velocity 110
000094t:  Note on ::  Channel 2.  Note 43.  Velocity 0
000002t:  Note on ::  Channel 2.  Note 43.  Velocity 110
000094t:  Note on ::  Channel 2.  Note 43.  Velocity 0
000002t:  Note on ::  Channel 2.  Note 45.  Velocity 110
000094t:  Note on ::  Channel 2.  Note 45.  Velocity 0
000002t:  Note on ::  Channel 2.  Note 45.  Velocity 110
000094t:  Note on ::  Channel 2.  Note 45.  Velocity 0
000002t:  Note on ::  Channel 2.  Note 45.  Velocity 110
000094t:  Note on ::  Channel 2.  Note 45.  Velocity 0
000002t:  Note on ::  Channel 2.  Note 45.  Velocity 110
000094t:  Note on ::  Channel 2.  Note 45.  Velocity 0
000002t:  Note on ::  Channel 2.  Note 45.  Velocity 110
000094t:  Note on ::  Channel 2.  Note 45.  Velocity 0
000002t:  Note on ::  Channel 2.  Note 45.  Velocity 110
000094t:  Note on ::  Channel 2.  Note 45.  Velocity 0
000002t:  Note on ::  Channel 2.  Note 43.  Velocity 110
000094t:  Note on ::  Channel 2.  Note 43.  Velocity 0
000002t:  Note on ::  Channel 2.  Note 43.  Velocity 110
000094t:  Note on ::  Channel 2.  Note 43.  Velocity 0
000002t:  Note on ::  Channel 2.  Note 45.  Velocity 110
000094t:  Note on ::  Channel 2.  Note 45.  Velocity 0
000002t:  Note on ::  Channel 2.  Note 45.  Velocity 110
000094t:  Note on ::  Channel 2.  Note 45.  Velocity 0
000002t:  Note on ::  Channel 2.  Note 45.  Velocity 110
000094t:  Note on ::  Channel 2.  Note 45.  Velocity 0
000002t:  Note on ::  Channel 2.  Note 45.  Velocity 110
000094t:  Note on ::  Channel 2.  Note 45.  Velocity 0
000002t:  Note on ::  Channel 2.  Note 45.  Velocity 110
000094t:  Note on ::  Channel 2.  Note 45.  Velocity 0
000002t:  Note on ::  Channel 2.  Note 45.  Velocity 110
000094t:  Note on ::  Channel 2.  Note 45.  Velocity 0
000002t:  Note on ::  Channel 2.  Note 43.  Velocity 110
000094t:  Note on ::  Channel 2.  Note 43.  Velocity 0
000002t:  Note on ::  Channel 2.  Note 43.  Velocity 110
000094t:  Note on ::  Channel 2.  Note 43.  Velocity 0
000002t:  Note on ::  Channel 2.  Note 45.  Velocity 110
000094t:  Note on ::  Channel 2.  Note 45.  Velocity 0
000002t:  Note on ::  Channel 2.  Note 45.  Velocity 110
000094t:  Note on ::  Channel 2.  Note 45.  Velocity 0
000002t:  Note on ::  Channel 2.  Note 45.  Velocity 110
000094t:  Note on ::  Channel 2.  Note 45.  Velocity 0
000002t:  Note on ::  Channel 2.  Note 45.  Velocity 110
000094t:  Note on ::  Channel 2.  Note 45.  Velocity 0
000002t:  Note on ::  Channel 2.  Note 45.  Velocity 110
000094t:  Note on ::  Channel 2.  Note 45.  Velocity 0
000002t:  Note on ::  Channel 2.  Note 45.  Velocity 110
000094t:  Note on ::  Channel 2.  Note 45.  Velocity 0
000002t:  Note on ::  Channel 2.  Note 43.  Velocity 110
000094t:  Note on ::  Channel 2.  Note 43.  Velocity 0
000002t:  Note on ::  Channel 2.  Note 43.  Velocity 110
000094t:  Note on ::  Channel 2.  Note 43.  Velocity 0
000002t:  Note on ::  Channel 2.  Note 45.  Velocity 110
000094t:  Note on ::  Channel 2.  Note 45.  Velocity 0
000194t:  Note on ::  Channel 2.  Note 45.  Velocity 110
000094t:  Note on ::  Channel 2.  Note 45.  Velocity 0
000098t:  Note on ::  Channel 2.  Note 40.  Velocity 110
000094t:  Note on ::  Channel 2.  Note 40.  Velocity 0
000002t:  Note on ::  Channel 2.  Note 46.  Velocity 110
000094t:  Note on ::  Channel 2.  Note 46.  Velocity 0
000002t:  Note on ::  Channel 2.  Note 44.  Velocity 110
000094t:  Note on ::  Channel 2.  Note 44.  Velocity 0
000002t:  Note on ::  Channel 2.  Note 45.  Velocity 110
000094t:  Note on ::  Channel 2.  Note 45.  Velocity 0
000194t:  Note on ::  Channel 2.  Note 45.  Velocity 110
000094t:  Note on ::  Channel 2.  Note 45.  Velocity 0
000098t:  Note on ::  Channel 2.  Note 40.  Velocity 110
000094t:  Note on ::  Channel 2.  Note 40.  Velocity 0
000002t:  Note on ::  Channel 2.  Note 43.  Velocity 110
000094t:  Note on ::  Channel 2.  Note 43.  Velocity 0
000002t:  Note on ::  Channel 2.  Note 44.  Velocity 110
000094t:  Note on ::  Channel 2.  Note 44.  Velocity 0
000002t:  Note on ::  Channel 2.  Note 45.  Velocity 110
000094t:  Note on ::  Channel 2.  Note 45.  Velocity 0
000002t:  Note on ::  Channel 2.  Note 45.  Velocity 110
000094t:  Note on ::  Channel 2.  Note 45.  Velocity 0
000002t:  Note on ::  Channel 2.  Note 45.  Velocity 110
000094t:  Note on ::  Channel 2.  Note 45.  Velocity 0
000002t:  Note on ::  Channel 2.  Note 45.  Velocity 110
000094t:  Note on ::  Channel 2.  Note 45.  Velocity 0
000002t:  Note on ::  Channel 2.  Note 45.  Velocity 110
000094t:  Note on ::  Channel 2.  Note 45.  Velocity 0
000002t:  Note on ::  Channel 2.  Note 45.  Velocity 110
000094t:  Note on ::  Channel 2.  Note 45.  Velocity 0
000002t:  Note on ::  Channel 2.  Note 43.  Velocity 110
000094t:  Note on ::  Channel 2.  Note 43.  Velocity 0
000002t:  Note on ::  Channel 2.  Note 43.  Velocity 110
000094t:  Note on ::  Channel 2.  Note 43.  Velocity 0
000002t:  Note on ::  Channel 2.  Note 45.  Velocity 110
000094t:  Note on ::  Channel 2.  Note 45.  Velocity 0
000002t:  Note on ::  Channel 2.  Note 45.  Velocity 110
000094t:  Note on ::  Channel 2.  Note 45.  Velocity 0
000002t:  Note on ::  Channel 2.  Note 45.  Velocity 110
000094t:  Note on ::  Channel 2.  Note 45.  Velocity 0
000002t:  Note on ::  Channel 2.  Note 45.  Velocity 110
000094t:  Note on ::  Channel 2.  Note 45.  Velocity 0
000002t:  Note on ::  Channel 2.  Note 45.  Velocity 110
000094t:  Note on ::  Channel 2.  Note 45.  Velocity 0
000002t:  Note on ::  Channel 2.  Note 45.  Velocity 110
000094t:  Note on ::  Channel 2.  Note 45.  Velocity 0
000002t:  Note on ::  Channel 2.  Note 43.  Velocity 110
000094t:  Note on ::  Channel 2.  Note 43.  Velocity 0
000002t:  Note on ::  Channel 2.  Note 43.  Velocity 110
000094t:  Note on ::  Channel 2.  Note 43.  Velocity 0
000002t:  Note on ::  Channel 2.  Note 41.  Velocity 110
000094t:  Note on ::  Channel 2.  Note 41.  Velocity 0
000194t:  Note on ::  Channel 2.  Note 41.  Velocity 110
000094t:  Note on ::  Channel 2.  Note 41.  Velocity 0
000194t:  Note on ::  Channel 2.  Note 48.  Velocity 110
000094t:  Note on ::  Channel 2.  Note 48.  Velocity 0
000098t:  Note on ::  Channel 2.  Note 43.  Velocity 110
000094t:  Note on ::  Channel 2.  Note 43.  Velocity 0
000194t:  Note on ::  Channel 2.  Note 43.  Velocity 110
000094t:  Note on ::  Channel 2.  Note 43.  Velocity 0
000098t:  Note on ::  Channel 2.  Note 38.  Velocity 110
000094t:  Note on ::  Channel 2.  Note 38.  Velocity 0
000002t:  Note on ::  Channel 2.  Note 47.  Velocity 110
000094t:  Note on ::  Channel 2.  Note 47.  Velocity 0
000002t:  Note on ::  Channel 2.  Note 43.  Velocity 110
000094t:  Note on ::  Channel 2.  Note 43.  Velocity 0
000002t:  Note on ::  Channel 2.  Note 45.  Velocity 110
000094t:  Note on ::  Channel 2.  Note 45.  Velocity 0
000002t:  Note on ::  Channel 2.  Note 45.  Velocity 110
000094t:  Note on ::  Channel 2.  Note 45.  Velocity 0
000002t:  Note on ::  Channel 2.  Note 45.  Velocity 110
000094t:  Note on ::  Channel 2.  Note 45.  Velocity 0
000002t:  Note on ::  Channel 2.  Note 45.  Velocity 110
000094t:  Note on ::  Channel 2.  Note 45.  Velocity 0
000002t:  Note on ::  Channel 2.  Note 45.  Velocity 110
000094t:  Note on ::  Channel 2.  Note 45.  Velocity 0
000002t:  Note on ::  Channel 2.  Note 45.  Velocity 110
000094t:  Note on ::  Channel 2.  Note 45.  Velocity 0
000002t:  Note on ::  Channel 2.  Note 43.  Velocity 110
000094t:  Note on ::  Channel 2.  Note 43.  Velocity 0
000002t:  Note on ::  Channel 2.  Note 43.  Velocity 110
000094t:  Note on ::  Channel 2.  Note 43.  Velocity 0
000002t:  Note on ::  Channel 2.  Note 45.  Velocity 110
000094t:  Note on ::  Channel 2.  Note 45.  Velocity 0
000002t:  Note on ::  Channel 2.  Note 45.  Velocity 110
000094t:  Note on ::  Channel 2.  Note 45.  Velocity 0
000002t:  Note on ::  Channel 2.  Note 45.  Velocity 110
000094t:  Note on ::  Channel 2.  Note 45.  Velocity 0
000002t:  Note on ::  Channel 2.  Note 45.  Velocity 110
000094t:  Note on ::  Channel 2.  Note 45.  Velocity 0
000002t:  Note on ::  Channel 2.  Note 45.  Velocity 110
000094t:  Note on ::  Channel 2.  Note 45.  Velocity 0
000002t:  Note on ::  Channel 2.  Note 45.  Velocity 110
000094t:  Note on ::  Channel 2.  Note 45.  Velocity 0
000002t:  Note on ::  Channel 2.  Note 43.  Velocity 110
000094t:  Note on ::  Channel 2.  Note 43.  Velocity 0
000002t:  Note on ::  Channel 2.  Note 43.  Velocity 110
000094t:  Note on ::  Channel 2.  Note 43.  Velocity 0
000002t:  Note on ::  Channel 2.  Note 45.  Velocity 110
000094t:  Note on ::  Channel 2.  Note 45.  Velocity 0
000194t:  Note on ::  Channel 2.  Note 45.  Velocity 110
000094t:  Note on ::  Channel 2.  Note 45.  Velocity 0
000098t:  Note on ::  Channel 2.  Note 40.  Velocity 110
000094t:  Note on ::  Channel 2.  Note 40.  Velocity 0
000002t:  Note on ::  Channel 2.  Note 46.  Velocity 110
000094t:  Note on ::  Channel 2.  Note 46.  Velocity 0
000002t:  Note on ::  Channel 2.  Note 44.  Velocity 110
000094t:  Note on ::  Channel 2.  Note 44.  Velocity 0
000002t:  Note on ::  Channel 2.  Note 45.  Velocity 110
000094t:  Note on ::  Channel 2.  Note 45.  Velocity 0
000194t:  Note on ::  Channel 2.  Note 45.  Velocity 110
000094t:  Note on ::  Channel 2.  Note 45.  Velocity 0
000098t:  Note on ::  Channel 2.  Note 40.  Velocity 110
000094t:  Note on ::  Channel 2.  Note 40.  Velocity 0
000002t:  Note on ::  Channel 2.  Note 43.  Velocity 110
000094t:  Note on ::  Channel 2.  Note 43.  Velocity 0
000002t:  Note on ::  Channel 2.  Note 44.  Velocity 110
000094t:  Note on ::  Channel 2.  Note 44.  Velocity 0
000002t:  Note on ::  Channel 2.  Note 45.  Velocity 110
000094t:  Note on ::  Channel 2.  Note 45.  Velocity 0
000002t:  Note on ::  Channel 2.  Note 45.  Velocity 110
000094t:  Note on ::  Channel 2.  Note 45.  Velocity 0
000002t:  Note on ::  Channel 2.  Note 45.  Velocity 110
000094t:  Note on ::  Channel 2.  Note 45.  Velocity 0
000002t:  Note on ::  Channel 2.  Note 45.  Velocity 110
000094t:  Note on ::  Channel 2.  Note 45.  Velocity 0
000002t:  Note on ::  Channel 2.  Note 45.  Velocity 110
000094t:  Note on ::  Channel 2.  Note 45.  Velocity 0
000002t:  Note on ::  Channel 2.  Note 45.  Velocity 110
000094t:  Note on ::  Channel 2.  Note 45.  Velocity 0
000002t:  Note on ::  Channel 2.  Note 43.  Velocity 110
000094t:  Note on ::  Channel 2.  Note 43.  Velocity 0
000002t:  Note on ::  Channel 2.  Note 43.  Velocity 110
000094t:  Note on ::  Channel 2.  Note 43.  Velocity 0
000002t:  Note on ::  Channel 2.  Note 45.  Velocity 110
000094t:  Note on ::  Channel 2.  Note 45.  Velocity 0
000002t:  Note on ::  Channel 2.  Note 45.  Velocity 110
000094t:  Note on ::  Channel 2.  Note 45.  Velocity 0
000002t:  Note on ::  Channel 2.  Note 45.  Velocity 110
000094t:  Note on ::  Channel 2.  Note 45.  Velocity 0
000002t:  Note on ::  Channel 2.  Note 45.  Velocity 110
000094t:  Note on ::  Channel 2.  Note 45.  Velocity 0
000002t:  Note on ::  Channel 2.  Note 45.  Velocity 110
000094t:  Note on ::  Channel 2.  Note 45.  Velocity 0
000002t:  Note on ::  Channel 2.  Note 45.  Velocity 110
000094t:  Note on ::  Channel 2.  Note 45.  Velocity 0
000002t:  Note on ::  Channel 2.  Note 43.  Velocity 110
000094t:  Note on ::  Channel 2.  Note 43.  Velocity 0
000002t:  Note on ::  Channel 2.  Note 43.  Velocity 110
000094t:  Note on ::  Channel 2.  Note 43.  Velocity 0
000002t:  Note on ::  Channel 2.  Note 41.  Velocity 110
000094t:  Note on ::  Channel 2.  Note 41.  Velocity 0
000194t:  Note on ::  Channel 2.  Note 41.  Velocity 110
000094t:  Note on ::  Channel 2.  Note 41.  Velocity 0
000194t:  Note on ::  Channel 2.  Note 48.  Velocity 110
000094t:  Note on ::  Channel 2.  Note 48.  Velocity 0
000098t:  Note on ::  Channel 2.  Note 43.  Velocity 110
000094t:  Note on ::  Channel 2.  Note 43.  Velocity 0
000194t:  Note on ::  Channel 2.  Note 43.  Velocity 110
000094t:  Note on ::  Channel 2.  Note 43.  Velocity 0
000098t:  Note on ::  Channel 2.  Note 38.  Velocity 110
000094t:  Note on ::  Channel 2.  Note 38.  Velocity 0
000002t:  Note on ::  Channel 2.  Note 47.  Velocity 110
000094t:  Note on ::  Channel 2.  Note 47.  Velocity 0
000002t:  Note on ::  Channel 2.  Note 43.  Velocity 110
000094t:  Note on ::  Channel 2.  Note 43.  Velocity 0
000002t:  Note on ::  Channel 2.  Note 45.  Velocity 110
000094t:  Note on ::  Channel 2.  Note 45.  Velocity 0
000002t:  Note on ::  Channel 2.  Note 45.  Velocity 110
000094t:  Note on ::  Channel 2.  Note 45.  Velocity 0
000002t:  Note on ::  Channel 2.  Note 45.  Velocity 110
000094t:  Note on ::  Channel 2.  Note 45.  Velocity 0
000002t:  Note on ::  Channel 2.  Note 45.  Velocity 110
000094t:  Note on ::  Channel 2.  Note 45.  Velocity 0
000002t:  Note on ::  Channel 2.  Note 45.  Velocity 110
000094t:  Note on ::  Channel 2.  Note 45.  Velocity 0
000002t:  Note on ::  Channel 2.  Note 45.  Velocity 110
000094t:  Note on ::  Channel 2.  Note 45.  Velocity 0
000002t:  Note on ::  Channel 2.  Note 43.  Velocity 110
000094t:  Note on ::  Channel 2.  Note 43.  Velocity 0
000002t:  Note on ::  Channel 2.  Note 43.  Velocity 110
000094t:  Note on ::  Channel 2.  Note 43.  Velocity 0
000002t:  Note on ::  Channel 2.  Note 45.  Velocity 110
000094t:  Note on ::  Channel 2.  Note 45.  Velocity 0
000002t:  Note on ::  Channel 2.  Note 45.  Velocity 110
000094t:  Note on ::  Channel 2.  Note 45.  Velocity 0
000002t:  Note on ::  Channel 2.  Note 45.  Velocity 110
000094t:  Note on ::  Channel 2.  Note 45.  Velocity 0
000002t:  Note on ::  Channel 2.  Note 45.  Velocity 110
000094t:  Note on ::  Channel 2.  Note 45.  Velocity 0
000002t:  Note on ::  Channel 2.  Note 45.  Velocity 110
000094t:  Note on ::  Channel 2.  Note 45.  Velocity 0
000002t:  Note on ::  Channel 2.  Note 45.  Velocity 110
000094t:  Note on ::  Channel 2.  Note 45.  Velocity 0
000002t:  Note on ::  Channel 2.  Note 43.  Velocity 110
000094t:  Note on ::  Channel 2.  Note 43.  Velocity 0
000002t:  Note on ::  Channel 2.  Note 43.  Velocity 110
000094t:  Note on ::  Channel 2.  Note 43.  Velocity 0
000002t:  Note on ::  Channel 2.  Note 29.  Velocity 110
000000t:  Note on ::  Channel 2.  Note 41.  Velocity 110
000256t:  Note on ::  Channel 2.  Note 29.  Velocity 0
000000t:  Note on ::  Channel 2.  Note 41.  Velocity 0
000032t:  Note on ::  Channel 2.  Note 29.  Velocity 110
000000t:  Note on ::  Channel 2.  Note 41.  Velocity 110
000256t:  Note on ::  Channel 2.  Note 29.  Velocity 0
000000t:  Note on ::  Channel 2.  Note 41.  Velocity 0
000032t:  Note on ::  Channel 2.  Note 28.  Velocity 110
000000t:  Note on ::  Channel 2.  Note 40.  Velocity 110
000160t:  Note on ::  Channel 2.  Note 28.  Velocity 0
000000t:  Note on ::  Channel 2.  Note 40.  Velocity 0
000032t:  Note on ::  Channel 2.  Note 26.  Velocity 110
000000t:  Note on ::  Channel 2.  Note 38.  Velocity 110
000256t:  Note on ::  Channel 2.  Note 26.  Velocity 0
000000t:  Note on ::  Channel 2.  Note 38.  Velocity 0
000032t:  Note on ::  Channel 2.  Note 26.  Velocity 110
000000t:  Note on ::  Channel 2.  Note 38.  Velocity 110
000256t:  Note on ::  Channel 2.  Note 26.  Velocity 0
000000t:  Note on ::  Channel 2.  Note 38.  Velocity 0
000032t:  Note on ::  Channel 2.  Note 28.  Velocity 110
000000t:  Note on ::  Channel 2.  Note 40.  Velocity 110
000094t:  Note on ::  Channel 2.  Note 28.  Velocity 0
000000t:  Note on ::  Channel 2.  Note 40.  Velocity 0
000002t:  Note on ::  Channel 2.  Note 29.  Velocity 110
000000t:  Note on ::  Channel 2.  Note 41.  Velocity 110
000094t:  Note on ::  Channel 2.  Note 29.  Velocity 0
000000t:  Note on ::  Channel 2.  Note 41.  Velocity 0
000002t:  Note on ::  Channel 2.  Note 31.  Velocity 110
000000t:  Note on ::  Channel 2.  Note 43.  Velocity 110
000256t:  Note on ::  Channel 2.  Note 31.  Velocity 0
000000t:  Note on ::  Channel 2.  Note 43.  Velocity 0
000032t:  Note on ::  Channel 2.  Note 31.  Velocity 110
000000t:  Note on ::  Channel 2.  Note 43.  Velocity 110
000256t:  Note on ::  Channel 2.  Note 31.  Velocity 0
000000t:  Note on ::  Channel 2.  Note 43.  Velocity 0
000032t:  Note on ::  Channel 2.  Note 29.  Velocity 110
000000t:  Note on ::  Channel 2.  Note 41.  Velocity 110
000160t:  Note on ::  Channel 2.  Note 29.  Velocity 0
000000t:  Note on ::  Channel 2.  Note 41.  Velocity 0
000032t:  Note on ::  Channel 2.  Note 28.  Velocity 110
000000t:  Note on ::  Channel 2.  Note 40.  Velocity 110
000256t:  Note on ::  Channel 2.  Note 28.  Velocity 0
000000t:  Note on ::  Channel 2.  Note 40.  Velocity 0
000032t:  Note on ::  Channel 2.  Note 28.  Velocity 110
000000t:  Note on ::  Channel 2.  Note 40.  Velocity 110
000336t:  Note on ::  Channel 2.  Note 28.  Velocity 0
000000t:  Note on ::  Channel 2.  Note 40.  Velocity 0
000144t:  Note on ::  Channel 2.  Note 29.  Velocity 110
000000t:  Note on ::  Channel 2.  Note 41.  Velocity 110
000256t:  Note on ::  Channel 2.  Note 29.  Velocity 0
000000t:  Note on ::  Channel 2.  Note 41.  Velocity 0
000032t:  Note on ::  Channel 2.  Note 29.  Velocity 110
000000t:  Note on ::  Channel 2.  Note 41.  Velocity 110
000256t:  Note on ::  Channel 2.  Note 29.  Velocity 0
000000t:  Note on ::  Channel 2.  Note 41.  Velocity 0
000032t:  Note on ::  Channel 2.  Note 29.  Velocity 110
000000t:  Note on ::  Channel 2.  Note 41.  Velocity 110
000160t:  Note on ::  Channel 2.  Note 29.  Velocity 0
000000t:  Note on ::  Channel 2.  Note 41.  Velocity 0
000032t:  Note on ::  Channel 2.  Note 30.  Velocity 110
000000t:  Note on ::  Channel 2.  Note 42.  Velocity 110
000256t:  Note on ::  Channel 2.  Note 30.  Velocity 0
000000t:  Note on ::  Channel 2.  Note 42.  Velocity 0
000032t:  Note on ::  Channel 2.  Note 30.  Velocity 110
000000t:  Note on ::  Channel 2.  Note 42.  Velocity 110
000256t:  Note on ::  Channel 2.  Note 30.  Velocity 0
000000t:  Note on ::  Channel 2.  Note 42.  Velocity 0
000032t:  Note on ::  Channel 2.  Note 30.  Velocity 110
000000t:  Note on ::  Channel 2.  Note 42.  Velocity 110
000160t:  Note on ::  Channel 2.  Note 30.  Velocity 0
000000t:  Note on ::  Channel 2.  Note 42.  Velocity 0
000032t:  Note on ::  Channel 2.  Note 31.  Velocity 110
000000t:  Note on ::  Channel 2.  Note 43.  Velocity 110
000256t:  Note on ::  Channel 2.  Note 31.  Velocity 0
000000t:  Note on ::  Channel 2.  Note 43.  Velocity 0
000032t:  Note on ::  Channel 2.  Note 31.  Velocity 110
000000t:  Note on ::  Channel 2.  Note 43.  Velocity 110
000256t:  Note on ::  Channel 2.  Note 31.  Velocity 0
000000t:  Note on ::  Channel 2.  Note 43.  Velocity 0
000032t:  Note on ::  Channel 2.  Note 31.  Velocity 110
000000t:  Note on ::  Channel 2.  Note 43.  Velocity 110
000160t:  Note on ::  Channel 2.  Note 31.  Velocity 0
000000t:  Note on ::  Channel 2.  Note 43.  Velocity 0
000032t:  Note on ::  Channel 2.  Note 32.  Velocity 110
000000t:  Note on ::  Channel 2.  Note 44.  Velocity 110
000256t:  Note on ::  Channel 2.  Note 32.  Velocity 0
000000t:  Note on ::  Channel 2.  Note 44.  Velocity 0
000032t:  Note on ::  Channel 2.  Note 32.  Velocity 110
000000t:  Note on ::  Channel 2.  Note 44.  Velocity 110
000256t:  Note on ::  Channel 2.  Note 32.  Velocity 0
000000t:  Note on ::  Channel 2.  Note 44.  Velocity 0
000032t:  Note on ::  Channel 2.  Note 32.  Velocity 110
000000t:  Note on ::  Channel 2.  Note 44.  Velocity 110
000160t:  Note on ::  Channel 2.  Note 32.  Velocity 0
000000t:  Note on ::  Channel 2.  Note 44.  Velocity 0
000032t:  Note on ::  Channel 2.  Note 33.  Velocity 110
000000t:  Note on ::  Channel 2.  Note 45.  Velocity 110
000256t:  Note on ::  Channel 2.  Note 33.  Velocity 0
000000t:  Note on ::  Channel 2.  Note 45.  Velocity 0
000032t:  Note on ::  Channel 2.  Note 33.  Velocity 110
000000t:  Note on ::  Channel 2.  Note 45.  Velocity 110
000256t:  Note on ::  Channel 2.  Note 33.  Velocity 0
000000t:  Note on ::  Channel 2.  Note 45.  Velocity 0
000032t:  Note on ::  Channel 2.  Note 28.  Velocity 110
000000t:  Note on ::  Channel 2.  Note 40.  Velocity 110
000160t:  Note on ::  Channel 2.  Note 28.  Velocity 0
000000t:  Note on ::  Channel 2.  Note 40.  Velocity 0
000032t:  Note on ::  Channel 2.  Note 26.  Velocity 110
000000t:  Note on ::  Channel 2.  Note 38.  Velocity 110
000256t:  Note on ::  Channel 2.  Note 26.  Velocity 0
000000t:  Note on ::  Channel 2.  Note 38.  Velocity 0
000032t:  Note on ::  Channel 2.  Note 26.  Velocity 110
000000t:  Note on ::  Channel 2.  Note 38.  Velocity 110
000256t:  Note on ::  Channel 2.  Note 26.  Velocity 0
000000t:  Note on ::  Channel 2.  Note 38.  Velocity 0
000032t:  Note on ::  Channel 2.  Note 28.  Velocity 110
000000t:  Note on ::  Channel 2.  Note 40.  Velocity 110
000094t:  Note on ::  Channel 2.  Note 28.  Velocity 0
000000t:  Note on ::  Channel 2.  Note 40.  Velocity 0
000002t:  Note on ::  Channel 2.  Note 29.  Velocity 110
000000t:  Note on ::  Channel 2.  Note 41.  Velocity 110
000094t:  Note on ::  Channel 2.  Note 29.  Velocity 0
000000t:  Note on ::  Channel 2.  Note 41.  Velocity 0
000002t:  Note on ::  Channel 2.  Note 31.  Velocity 110
000000t:  Note on ::  Channel 2.  Note 43.  Velocity 110
000256t:  Note on ::  Channel 2.  Note 31.  Velocity 0
000000t:  Note on ::  Channel 2.  Note 43.  Velocity 0
000032t:  Note on ::  Channel 2.  Note 31.  Velocity 110
000000t:  Note on ::  Channel 2.  Note 43.  Velocity 110
000256t:  Note on ::  Channel 2.  Note 31.  Velocity 0
000000t:  Note on ::  Channel 2.  Note 43.  Velocity 0
000032t:  Note on ::  Channel 2.  Note 26.  Velocity 110
000000t:  Note on ::  Channel 2.  Note 38.  Velocity 110
000160t:  Note on ::  Channel 2.  Note 26.  Velocity 0
000000t:  Note on ::  Channel 2.  Note 38.  Velocity 0
000032t:  Note on ::  Channel 2.  Note 24.  Velocity 110
000000t:  Note on ::  Channel 2.  Note 36.  Velocity 110
000256t:  Note on ::  Channel 2.  Note 24.  Velocity 0
000000t:  Note on ::  Channel 2.  Note 36.  Velocity 0
000032t:  Note on ::  Channel 2.  Note 24.  Velocity 110
000000t:  Note on ::  Channel 2.  Note 36.  Velocity 110
000256t:  Note on ::  Channel 2.  Note 24.  Velocity 0
000000t:  Note on ::  Channel 2.  Note 36.  Velocity 0
000032t:  Note on ::  Channel 2.  Note 24.  Velocity 110
000000t:  Note on ::  Channel 2.  Note 36.  Velocity 110
000094t:  Note on ::  Channel 2.  Note 24.  Velocity 0
000000t:  Note on ::  Channel 2.  Note 36.  Velocity 0
000002t:  Note on ::  Channel 2.  Note 23.  Velocity 110
000000t:  Note on ::  Channel 2.  Note 35.  Velocity 110
000094t:  Note on ::  Channel 2.  Note 23.  Velocity 0
000000t:  Note on ::  Channel 2.  Note 35.  Velocity 0
000002t:  Note on ::  Channel 2.  Note 21.  Velocity 110
000000t:  Note on ::  Channel 2.  Note 33.  Velocity 110
000256t:  Note on ::  Channel 2.  Note 21.  Velocity 0
000000t:  Note on ::  Channel 2.  Note 33.  Velocity 0
000032t:  Note on ::  Channel 2.  Note 33.  Velocity 110
000000t:  Note on ::  Channel 2.  Note 45.  Velocity 110
000256t:  Note on ::  Channel 2.  Note 33.  Velocity 0
000000t:  Note on ::  Channel 2.  Note 45.  Velocity 0
000032t:  Note on ::  Channel 2.  Note 31.  Velocity 110
000000t:  Note on ::  Channel 2.  Note 43.  Velocity 110
000160t:  Note on ::  Channel 2.  Note 31.  Velocity 0
000000t:  Note on ::  Channel 2.  Note 43.  Velocity 0
000032t:  Note on ::  Channel 2.  Note 30.  Velocity 110
000000t:  Note on ::  Channel 2.  Note 42.  Velocity 110
000256t:  Note on ::  Channel 2.  Note 30.  Velocity 0
000000t:  Note on ::  Channel 2.  Note 42.  Velocity 0
000032t:  Note on ::  Channel 2.  Note 30.  Velocity 110
000000t:  Note on ::  Channel 2.  Note 42.  Velocity 110
000256t:  Note on ::  Channel 2.  Note 30.  Velocity 0
000000t:  Note on ::  Channel 2.  Note 42.  Velocity 0
000032t:  Note on ::  Channel 2.  Note 30.  Velocity 110
000000t:  Note on ::  Channel 2.  Note 42.  Velocity 110
000160t:  Note on ::  Channel 2.  Note 30.  Velocity 0
000000t:  Note on ::  Channel 2.  Note 42.  Velocity 0
000032t:  Note on ::  Channel 2.  Note 31.  Velocity 110
000000t:  Note on ::  Channel 2.  Note 43.  Velocity 110
000256t:  Note on ::  Channel 2.  Note 31.  Velocity 0
000000t:  Note on ::  Channel 2.  Note 43.  Velocity 0
000032t:  Note on ::  Channel 2.  Note 26.  Velocity 110
000000t:  Note on ::  Channel 2.  Note 38.  Velocity 110
000160t:  Note on ::  Channel 2.  Note 26.  Velocity 0
000000t:  Note on ::  Channel 2.  Note 38.  Velocity 0
000032t:  Note on ::  Channel 2.  Note 29.  Velocity 110
000000t:  Note on ::  Channel 2.  Note 41.  Velocity 110
000094t:  Note on ::  Channel 2.  Note 29.  Velocity 0
000000t:  Note on ::  Channel 2.  Note 41.  Velocity 0
000002t:  Note on ::  Channel 2.  Note 33.  Velocity 110
000000t:  Note on ::  Channel 2.  Note 45.  Velocity 110
000094t:  Note on ::  Channel 2.  Note 33.  Velocity 0
000000t:  Note on ::  Channel 2.  Note 45.  Velocity 0
000002t:  Note on ::  Channel 2.  Note 29.  Velocity 110
000000t:  Note on ::  Channel 2.  Note 41.  Velocity 110
000094t:  Note on ::  Channel 2.  Note 29.  Velocity 0
000000t:  Note on ::  Channel 2.  Note 41.  Velocity 0
000002t:  Note on ::  Channel 2.  Note 31.  Velocity 110
000000t:  Note on ::  Channel 2.  Note 43.  Velocity 110
000256t:  Note on ::  Channel 2.  Note 31.  Velocity 0
000000t:  Note on ::  Channel 2.  Note 43.  Velocity 0
000032t:  Note on ::  Channel 2.  Note 24.  Velocity 110
000000t:  Note on ::  Channel 2.  Note 36.  Velocity 110
000160t:  Note on ::  Channel 2.  Note 24.  Velocity 0
000000t:  Note on ::  Channel 2.  Note 36.  Velocity 0
000032t:  Note on ::  Channel 2.  Note 26.  Velocity 110
000000t:  Note on ::  Channel 2.  Note 38.  Velocity 110
000094t:  Note on ::  Channel 2.  Note 26.  Velocity 0
000000t:  Note on ::  Channel 2.  Note 38.  Velocity 0
000002t:  Note on ::  Channel 2.  Note 24.  Velocity 110
000000t:  Note on ::  Channel 2.  Note 36.  Velocity 110
000094t:  Note on ::  Channel 2.  Note 24.  Velocity 0
000000t:  Note on ::  Channel 2.  Note 36.  Velocity 0
000002t:  Note on ::  Channel 2.  Note 21.  Velocity 110
000000t:  Note on ::  Channel 2.  Note 33.  Velocity 110
000094t:  Note on ::  Channel 2.  Note 21.  Velocity 0
000000t:  Note on ::  Channel 2.  Note 33.  Velocity 0
000002t:  Note on ::  Channel 2.  Note 31.  Velocity 110
000000t:  Note on ::  Channel 2.  Note 43.  Velocity 110
000256t:  Note on ::  Channel 2.  Note 31.  Velocity 0
000000t:  Note on ::  Channel 2.  Note 43.  Velocity 0
000032t:  Note on ::  Channel 2.  Note 31.  Velocity 110
000000t:  Note on ::  Channel 2.  Note 43.  Velocity 110
000256t:  Note on ::  Channel 2.  Note 31.  Velocity 0
000000t:  Note on ::  Channel 2.  Note 43.  Velocity 0
000032t:  Note on ::  Channel 2.  Note 26.  Velocity 110
000000t:  Note on ::  Channel 2.  Note 38.  Velocity 110
000160t:  Note on ::  Channel 2.  Note 26.  Velocity 0
000000t:  Note on ::  Channel 2.  Note 38.  Velocity 0
000032t:  Note on ::  Channel 2.  Note 31.  Velocity 110
000000t:  Note on ::  Channel 2.  Note 43.  Velocity 110
000256t:  Note on ::  Channel 2.  Note 31.  Velocity 0
000000t:  Note on ::  Channel 2.  Note 43.  Velocity 0
000032t:  Note on ::  Channel 2.  Note 31.  Velocity 110
000000t:  Note on ::  Channel 2.  Note 43.  Velocity 110
000256t:  Note on ::  Channel 2.  Note 31.  Velocity 0
000000t:  Note on ::  Channel 2.  Note 43.  Velocity 0
000032t:  Note on ::  Channel 2.  Note 31.  Velocity 110
000000t:  Note on ::  Channel 2.  Note 43.  Velocity 110
000160t:  Note on ::  Channel 2.  Note 31.  Velocity 0
000000t:  Note on ::  Channel 2.  Note 43.  Velocity 0
000032t:  Note on ::  Channel 2.  Note 45.  Velocity 110
000094t:  Note on ::  Channel 2.  Note 45.  Velocity 0
000002t:  Note on ::  Channel 2.  Note 45.  Velocity 110
000094t:  Note on ::  Channel 2.  Note 45.  Velocity 0
000002t:  Note on ::  Channel 2.  Note 45.  Velocity 110
000094t:  Note on ::  Channel 2.  Note 45.  Velocity 0
000002t:  Note on ::  Channel 2.  Note 45.  Velocity 110
000094t:  Note on ::  Channel 2.  Note 45.  Velocity 0
000002t:  Note on ::  Channel 2.  Note 45.  Velocity 110
000094t:  Note on ::  Channel 2.  Note 45.  Velocity 0
000002t:  Note on ::  Channel 2.  Note 45.  Velocity 110
000094t:  Note on ::  Channel 2.  Note 45.  Velocity 0
000002t:  Note on ::  Channel 2.  Note 43.  Velocity 110
000094t:  Note on ::  Channel 2.  Note 43.  Velocity 0
000002t:  Note on ::  Channel 2.  Note 43.  Velocity 110
000094t:  Note on ::  Channel 2.  Note 43.  Velocity 0
000002t:  Note on ::  Channel 2.  Note 45.  Velocity 110
000094t:  Note on ::  Channel 2.  Note 45.  Velocity 0
000002t:  Note on ::  Channel 2.  Note 45.  Velocity 110
000094t:  Note on ::  Channel 2.  Note 45.  Velocity 0
000002t:  Note on ::  Channel 2.  Note 45.  Velocity 110
000094t:  Note on ::  Channel 2.  Note 45.  Velocity 0
000002t:  Note on ::  Channel 2.  Note 45.  Velocity 110
000094t:  Note on ::  Channel 2.  Note 45.  Velocity 0
000002t:  Note on ::  Channel 2.  Note 45.  Velocity 110
000094t:  Note on ::  Channel 2.  Note 45.  Velocity 0
000002t:  Note on ::  Channel 2.  Note 45.  Velocity 110
000094t:  Note on ::  Channel 2.  Note 45.  Velocity 0
000002t:  Note on ::  Channel 2.  Note 43.  Velocity 110
000094t:  Note on ::  Channel 2.  Note 43.  Velocity 0
000002t:  Note on ::  Channel 2.  Note 43.  Velocity 110
000094t:  Note on ::  Channel 2.  Note 43.  Velocity 0
000002t:  Note on ::  Channel 2.  Note 45.  Velocity 110
000094t:  Note on ::  Channel 2.  Note 45.  Velocity 0
000002t:  Note on ::  Channel 2.  Note 45.  Velocity 110
000094t:  Note on ::  Channel 2.  Note 45.  Velocity 0
000002t:  Note on ::  Channel 2.  Note 45.  Velocity 110
000094t:  Note on ::  Channel 2.  Note 45.  Velocity 0
000002t:  Note on ::  Channel 2.  Note 45.  Velocity 110
000094t:  Note on ::  Channel 2.  Note 45.  Velocity 0
000002t:  Note on ::  Channel 2.  Note 45.  Velocity 110
000094t:  Note on ::  Channel 2.  Note 45.  Velocity 0
000002t:  Note on ::  Channel 2.  Note 45.  Velocity 110
000094t:  Note on ::  Channel 2.  Note 45.  Velocity 0
000002t:  Note on ::  Channel 2.  Note 43.  Velocity 110
000094t:  Note on ::  Channel 2.  Note 43.  Velocity 0
000002t:  Note on ::  Channel 2.  Note 43.  Velocity 110
000094t:  Note on ::  Channel 2.  Note 43.  Velocity 0
000002t:  Note on ::  Channel 2.  Note 45.  Velocity 110
000094t:  Note on ::  Channel 2.  Note 45.  Velocity 0
000002t:  Note on ::  Channel 2.  Note 45.  Velocity 110
000094t:  Note on ::  Channel 2.  Note 45.  Velocity 0
000002t:  Note on ::  Channel 2.  Note 45.  Velocity 110
000094t:  Note on ::  Channel 2.  Note 45.  Velocity 0
000002t:  Note on ::  Channel 2.  Note 45.  Velocity 110
000094t:  Note on ::  Channel 2.  Note 45.  Velocity 0
000002t:  Note on ::  Channel 2.  Note 45.  Velocity 110
000094t:  Note on ::  Channel 2.  Note 45.  Velocity 0
000002t:  Note on ::  Channel 2.  Note 45.  Velocity 110
000094t:  Note on ::  Channel 2.  Note 45.  Velocity 0
000002t:  Note on ::  Channel 2.  Note 43.  Velocity 110
000094t:  Note on ::  Channel 2.  Note 43.  Velocity 0
000002t:  Note on ::  Channel 2.  Note 43.  Velocity 110
000094t:  Note on ::  Channel 2.  Note 43.  Velocity 0
000002t:  Note on ::  Channel 2.  Note 41.  Velocity 110
001296t:  Note on ::  Channel 2.  Note 41.  Velocity 0
000048t:  Note on ::  Channel 2.  Note 43.  Velocity 110
001488t:  Note on ::  Channel 2.  Note 43.  Velocity 0
000048t:  Note on ::  Channel 2.  Note 45.  Velocity 110
000094t:  Note on ::  Channel 2.  Note 45.  Velocity 0
000002t:  Note on ::  Channel 2.  Note 45.  Velocity 110
000094t:  Note on ::  Channel 2.  Note 45.  Velocity 0
000002t:  Note on ::  Channel 2.  Note 45.  Velocity 110
000094t:  Note on ::  Channel 2.  Note 45.  Velocity 0
000002t:  Note on ::  Channel 2.  Note 45.  Velocity 110
000094t:  Note on ::  Channel 2.  Note 45.  Velocity 0
000002t:  Note on ::  Channel 2.  Note 45.  Velocity 110
000094t:  Note on ::  Channel 2.  Note 45.  Velocity 0
000002t:  Note on ::  Channel 2.  Note 45.  Velocity 110
000094t:  Note on ::  Channel 2.  Note 45.  Velocity 0
000002t:  Note on ::  Channel 2.  Note 43.  Velocity 110
000094t:  Note on ::  Channel 2.  Note 43.  Velocity 0
000002t:  Note on ::  Channel 2.  Note 43.  Velocity 110
000094t:  Note on ::  Channel 2.  Note 43.  Velocity 0
000002t:  Note on ::  Channel 2.  Note 45.  Velocity 110
000094t:  Note on ::  Channel 2.  Note 45.  Velocity 0
000002t:  Note on ::  Channel 2.  Note 45.  Velocity 110
000094t:  Note on ::  Channel 2.  Note 45.  Velocity 0
000002t:  Note on ::  Channel 2.  Note 45.  Velocity 110
000094t:  Note on ::  Channel 2.  Note 45.  Velocity 0
000002t:  Note on ::  Channel 2.  Note 45.  Velocity 110
000094t:  Note on ::  Channel 2.  Note 45.  Velocity 0
000002t:  Note on ::  Channel 2.  Note 45.  Velocity 110
000094t:  Note on ::  Channel 2.  Note 45.  Velocity 0
000002t:  Note on ::  Channel 2.  Note 45.  Velocity 110
000094t:  Note on ::  Channel 2.  Note 45.  Velocity 0
000002t:  Note on ::  Channel 2.  Note 43.  Velocity 110
000094t:  Note on ::  Channel 2.  Note 43.  Velocity 0
000002t:  Note on ::  Channel 2.  Note 43.  Velocity 110
000094t:  Note on ::  Channel 2.  Note 43.  Velocity 0
000002t:  Note on ::  Channel 2.  Note 45.  Velocity 110
000094t:  Note on ::  Channel 2.  Note 45.  Velocity 0
000002t:  Note on ::  Channel 2.  Note 45.  Velocity 110
000094t:  Note on ::  Channel 2.  Note 45.  Velocity 0
000002t:  Note on ::  Channel 2.  Note 45.  Velocity 110
000094t:  Note on ::  Channel 2.  Note 45.  Velocity 0
000002t:  Note on ::  Channel 2.  Note 45.  Velocity 110
000094t:  Note on ::  Channel 2.  Note 45.  Velocity 0
000002t:  Note on ::  Channel 2.  Note 45.  Velocity 110
000094t:  Note on ::  Channel 2.  Note 45.  Velocity 0
000002t:  Note on ::  Channel 2.  Note 45.  Velocity 110
000094t:  Note on ::  Channel 2.  Note 45.  Velocity 0
000002t:  Note on ::  Channel 2.  Note 43.  Velocity 110
000094t:  Note on ::  Channel 2.  Note 43.  Velocity 0
000002t:  Note on ::  Channel 2.  Note 43.  Velocity 110
000094t:  Note on ::  Channel 2.  Note 43.  Velocity 0
000002t:  Note on ::  Channel 2.  Note 45.  Velocity 110
000094t:  Note on ::  Channel 2.  Note 45.  Velocity 0
000002t:  Note on ::  Channel 2.  Note 45.  Velocity 110
000094t:  Note on ::  Channel 2.  Note 45.  Velocity 0
000002t:  Note on ::  Channel 2.  Note 45.  Velocity 110
000094t:  Note on ::  Channel 2.  Note 45.  Velocity 0
000002t:  Note on ::  Channel 2.  Note 45.  Velocity 110
000094t:  Note on ::  Channel 2.  Note 45.  Velocity 0
000002t:  Note on ::  Channel 2.  Note 45.  Velocity 110
000094t:  Note on ::  Channel 2.  Note 45.  Velocity 0
000002t:  Note on ::  Channel 2.  Note 45.  Velocity 110
000094t:  Note on ::  Channel 2.  Note 45.  Velocity 0
000002t:  Note on ::  Channel 2.  Note 43.  Velocity 110
000094t:  Note on ::  Channel 2.  Note 43.  Velocity 0
000002t:  Note on ::  Channel 2.  Note 43.  Velocity 110
000094t:  Note on ::  Channel 2.  Note 43.  Velocity 0
000002t:  Note on ::  Channel 2.  Note 45.  Velocity 110
000094t:  Note on ::  Channel 2.  Note 45.  Velocity 0
000194t:  Note on ::  Channel 2.  Note 45.  Velocity 110
000094t:  Note on ::  Channel 2.  Note 45.  Velocity 0
000098t:  Note on ::  Channel 2.  Note 40.  Velocity 110
000094t:  Note on ::  Channel 2.  Note 40.  Velocity 0
000002t:  Note on ::  Channel 2.  Note 46.  Velocity 110
000094t:  Note on ::  Channel 2.  Note 46.  Velocity 0
000002t:  Note on ::  Channel 2.  Note 44.  Velocity 110
000094t:  Note on ::  Channel 2.  Note 44.  Velocity 0
000002t:  Note on ::  Channel 2.  Note 45.  Velocity 110
000094t:  Note on ::  Channel 2.  Note 45.  Velocity 0
000194t:  Note on ::  Channel 2.  Note 45.  Velocity 110
000094t:  Note on ::  Channel 2.  Note 45.  Velocity 0
000098t:  Note on ::  Channel 2.  Note 40.  Velocity 110
000094t:  Note on ::  Channel 2.  Note 40.  Velocity 0
000002t:  Note on ::  Channel 2.  Note 43.  Velocity 110
000094t:  Note on ::  Channel 2.  Note 43.  Velocity 0
000002t:  Note on ::  Channel 2.  Note 44.  Velocity 110
000094t:  Note on ::  Channel 2.  Note 44.  Velocity 0
000002t:  Note on ::  Channel 2.  Note 45.  Velocity 110
000094t:  Note on ::  Channel 2.  Note 45.  Velocity 0
000002t:  Note on ::  Channel 2.  Note 45.  Velocity 110
000094t:  Note on ::  Channel 2.  Note 45.  Velocity 0
000002t:  Note on ::  Channel 2.  Note 45.  Velocity 110
000094t:  Note on ::  Channel 2.  Note 45.  Velocity 0
000002t:  Note on ::  Channel 2.  Note 45.  Velocity 110
000094t:  Note on ::  Channel 2.  Note 45.  Velocity 0
000002t:  Note on ::  Channel 2.  Note 45.  Velocity 110
000094t:  Note on ::  Channel 2.  Note 45.  Velocity 0
000002t:  Note on ::  Channel 2.  Note 45.  Velocity 110
000094t:  Note on ::  Channel 2.  Note 45.  Velocity 0
000002t:  Note on ::  Channel 2.  Note 43.  Velocity 110
000094t:  Note on ::  Channel 2.  Note 43.  Velocity 0
000002t:  Note on ::  Channel 2.  Note 43.  Velocity 110
000094t:  Note on ::  Channel 2.  Note 43.  Velocity 0
000002t:  Note on ::  Channel 2.  Note 45.  Velocity 110
000094t:  Note on ::  Channel 2.  Note 45.  Velocity 0
000002t:  Note on ::  Channel 2.  Note 45.  Velocity 110
000094t:  Note on ::  Channel 2.  Note 45.  Velocity 0
000002t:  Note on ::  Channel 2.  Note 45.  Velocity 110
000094t:  Note on ::  Channel 2.  Note 45.  Velocity 0
000002t:  Note on ::  Channel 2.  Note 45.  Velocity 110
000094t:  Note on ::  Channel 2.  Note 45.  Velocity 0
000002t:  Note on ::  Channel 2.  Note 45.  Velocity 110
000094t:  Note on ::  Channel 2.  Note 45.  Velocity 0
000002t:  Note on ::  Channel 2.  Note 45.  Velocity 110
000094t:  Note on ::  Channel 2.  Note 45.  Velocity 0
000002t:  Note on ::  Channel 2.  Note 43.  Velocity 110
000094t:  Note on ::  Channel 2.  Note 43.  Velocity 0
000002t:  Note on ::  Channel 2.  Note 43.  Velocity 110
000094t:  Note on ::  Channel 2.  Note 43.  Velocity 0
000002t:  Note on ::  Channel 2.  Note 41.  Velocity 110
000094t:  Note on ::  Channel 2.  Note 41.  Velocity 0
000194t:  Note on ::  Channel 2.  Note 41.  Velocity 110
000094t:  Note on ::  Channel 2.  Note 41.  Velocity 0
000194t:  Note on ::  Channel 2.  Note 48.  Velocity 110
000094t:  Note on ::  Channel 2.  Note 48.  Velocity 0
000098t:  Note on ::  Channel 2.  Note 43.  Velocity 110
000094t:  Note on ::  Channel 2.  Note 43.  Velocity 0
000194t:  Note on ::  Channel 2.  Note 43.  Velocity 110
000094t:  Note on ::  Channel 2.  Note 43.  Velocity 0
000098t:  Note on ::  Channel 2.  Note 38.  Velocity 110
000094t:  Note on ::  Channel 2.  Note 38.  Velocity 0
000002t:  Note on ::  Channel 2.  Note 47.  Velocity 110
000094t:  Note on ::  Channel 2.  Note 47.  Velocity 0
000002t:  Note on ::  Channel 2.  Note 43.  Velocity 110
000094t:  Note on ::  Channel 2.  Note 43.  Velocity 0
000002t:  Note on ::  Channel 2.  Note 45.  Velocity 110
000094t:  Note on ::  Channel 2.  Note 45.  Velocity 0
000002t:  Note on ::  Channel 2.  Note 45.  Velocity 110
000094t:  Note on ::  Channel 2.  Note 45.  Velocity 0
000002t:  Note on ::  Channel 2.  Note 45.  Velocity 110
000094t:  Note on ::  Channel 2.  Note 45.  Velocity 0
000002t:  Note on ::  Channel 2.  Note 45.  Velocity 110
000094t:  Note on ::  Channel 2.  Note 45.  Velocity 0
000002t:  Note on ::  Channel 2.  Note 45.  Velocity 110
000094t:  Note on ::  Channel 2.  Note 45.  Velocity 0
000002t:  Note on ::  Channel 2.  Note 45.  Velocity 110
000094t:  Note on ::  Channel 2.  Note 45.  Velocity 0
000002t:  Note on ::  Channel 2.  Note 43.  Velocity 110
000094t:  Note on ::  Channel 2.  Note 43.  Velocity 0
000002t:  Note on ::  Channel 2.  Note 43.  Velocity 110
000094t:  Note on ::  Channel 2.  Note 43.  Velocity 0
000002t:  Note on ::  Channel 2.  Note 45.  Velocity 110
000094t:  Note on ::  Channel 2.  Note 45.  Velocity 0
000002t:  Note on ::  Channel 2.  Note 45.  Velocity 110
000094t:  Note on ::  Channel 2.  Note 45.  Velocity 0
000002t:  Note on ::  Channel 2.  Note 45.  Velocity 110
000094t:  Note on ::  Channel 2.  Note 45.  Velocity 0
000002t:  Note on ::  Channel 2.  Note 45.  Velocity 110
000094t:  Note on ::  Channel 2.  Note 45.  Velocity 0
000002t:  Note on ::  Channel 2.  Note 45.  Velocity 110
000094t:  Note on ::  Channel 2.  Note 45.  Velocity 0
000002t:  Note on ::  Channel 2.  Note 45.  Velocity 110
000094t:  Note on ::  Channel 2.  Note 45.  Velocity 0
000002t:  Note on ::  Channel 2.  Note 43.  Velocity 110
000094t:  Note on ::  Channel 2.  Note 43.  Velocity 0
000002t:  Note on ::  Channel 2.  Note 43.  Velocity 110
000094t:  Note on ::  Channel 2.  Note 43.  Velocity 0
000002t:  Note on ::  Channel 2.  Note 45.  Velocity 110
000094t:  Note on ::  Channel 2.  Note 45.  Velocity 0
000194t:  Note on ::  Channel 2.  Note 45.  Velocity 110
000094t:  Note on ::  Channel 2.  Note 45.  Velocity 0
000098t:  Note on ::  Channel 2.  Note 40.  Velocity 110
000094t:  Note on ::  Channel 2.  Note 40.  Velocity 0
000002t:  Note on ::  Channel 2.  Note 46.  Velocity 110
000094t:  Note on ::  Channel 2.  Note 46.  Velocity 0
000002t:  Note on ::  Channel 2.  Note 44.  Velocity 110
000094t:  Note on ::  Channel 2.  Note 44.  Velocity 0
000002t:  Note on ::  Channel 2.  Note 45.  Velocity 110
000094t:  Note on ::  Channel 2.  Note 45.  Velocity 0
000194t:  Note on ::  Channel 2.  Note 45.  Velocity 110
000094t:  Note on ::  Channel 2.  Note 45.  Velocity 0
000098t:  Note on ::  Channel 2.  Note 40.  Velocity 110
000094t:  Note on ::  Channel 2.  Note 40.  Velocity 0
000002t:  Note on ::  Channel 2.  Note 43.  Velocity 110
000094t:  Note on ::  Channel 2.  Note 43.  Velocity 0
000002t:  Note on ::  Channel 2.  Note 44.  Velocity 110
000094t:  Note on ::  Channel 2.  Note 44.  Velocity 0
000002t:  Note on ::  Channel 2.  Note 45.  Velocity 110
000094t:  Note on ::  Channel 2.  Note 45.  Velocity 0
000002t:  Note on ::  Channel 2.  Note 45.  Velocity 110
000094t:  Note on ::  Channel 2.  Note 45.  Velocity 0
000002t:  Note on ::  Channel 2.  Note 45.  Velocity 110
000094t:  Note on ::  Channel 2.  Note 45.  Velocity 0
000002t:  Note on ::  Channel 2.  Note 45.  Velocity 110
000094t:  Note on ::  Channel 2.  Note 45.  Velocity 0
000002t:  Note on ::  Channel 2.  Note 45.  Velocity 110
000094t:  Note on ::  Channel 2.  Note 45.  Velocity 0
000002t:  Note on ::  Channel 2.  Note 45.  Velocity 110
000094t:  Note on ::  Channel 2.  Note 45.  Velocity 0
000002t:  Note on ::  Channel 2.  Note 43.  Velocity 110
000094t:  Note on ::  Channel 2.  Note 43.  Velocity 0
000002t:  Note on ::  Channel 2.  Note 43.  Velocity 110
000094t:  Note on ::  Channel 2.  Note 43.  Velocity 0
000002t:  Note on ::  Channel 2.  Note 45.  Velocity 110
000094t:  Note on ::  Channel 2.  Note 45.  Velocity 0
000002t:  Note on ::  Channel 2.  Note 45.  Velocity 110
000094t:  Note on ::  Channel 2.  Note 45.  Velocity 0
000002t:  Note on ::  Channel 2.  Note 45.  Velocity 110
000094t:  Note on ::  Channel 2.  Note 45.  Velocity 0
000002t:  Note on ::  Channel 2.  Note 45.  Velocity 110
000094t:  Note on ::  Channel 2.  Note 45.  Velocity 0
000002t:  Note on ::  Channel 2.  Note 45.  Velocity 110
000094t:  Note on ::  Channel 2.  Note 45.  Velocity 0
000002t:  Note on ::  Channel 2.  Note 45.  Velocity 110
000094t:  Note on ::  Channel 2.  Note 45.  Velocity 0
000002t:  Note on ::  Channel 2.  Note 43.  Velocity 110
000094t:  Note on ::  Channel 2.  Note 43.  Velocity 0
000002t:  Note on ::  Channel 2.  Note 43.  Velocity 110
000094t:  Note on ::  Channel 2.  Note 43.  Velocity 0
000002t:  Note on ::  Channel 2.  Note 41.  Velocity 110
000094t:  Note on ::  Channel 2.  Note 41.  Velocity 0
000194t:  Note on ::  Channel 2.  Note 41.  Velocity 110
000094t:  Note on ::  Channel 2.  Note 41.  Velocity 0
000194t:  Note on ::  Channel 2.  Note 48.  Velocity 110
000094t:  Note on ::  Channel 2.  Note 48.  Velocity 0
000098t:  Note on ::  Channel 2.  Note 43.  Velocity 110
000094t:  Note on ::  Channel 2.  Note 43.  Velocity 0
000194t:  Note on ::  Channel 2.  Note 43.  Velocity 110
000094t:  Note on ::  Channel 2.  Note 43.  Velocity 0
000098t:  Note on ::  Channel 2.  Note 38.  Velocity 110
000094t:  Note on ::  Channel 2.  Note 38.  Velocity 0
000002t:  Note on ::  Channel 2.  Note 47.  Velocity 110
000094t:  Note on ::  Channel 2.  Note 47.  Velocity 0
000002t:  Note on ::  Channel 2.  Note 43.  Velocity 110
000094t:  Note on ::  Channel 2.  Note 43.  Velocity 0
000002t:  Note on ::  Channel 2.  Note 45.  Velocity 110
000094t:  Note on ::  Channel 2.  Note 45.  Velocity 0
000002t:  Note on ::  Channel 2.  Note 45.  Velocity 110
000094t:  Note on ::  Channel 2.  Note 45.  Velocity 0
000002t:  Note on ::  Channel 2.  Note 45.  Velocity 110
000094t:  Note on ::  Channel 2.  Note 45.  Velocity 0
000002t:  Note on ::  Channel 2.  Note 45.  Velocity 110
000094t:  Note on ::  Channel 2.  Note 45.  Velocity 0
000002t:  Note on ::  Channel 2.  Note 45.  Velocity 110
000094t:  Note on ::  Channel 2.  Note 45.  Velocity 0
000002t:  Note on ::  Channel 2.  Note 45.  Velocity 110
000094t:  Note on ::  Channel 2.  Note 45.  Velocity 0
000002t:  Note on ::  Channel 2.  Note 43.  Velocity 110
000094t:  Note on ::  Channel 2.  Note 43.  Velocity 0
000002t:  Note on ::  Channel 2.  Note 43.  Velocity 110
000094t:  Note on ::  Channel 2.  Note 43.  Velocity 0
000002t:  Note on ::  Channel 2.  Note 45.  Velocity 110
000094t:  Note on ::  Channel 2.  Note 45.  Velocity 0
000002t:  Note on ::  Channel 2.  Note 45.  Velocity 110
000094t:  Note on ::  Channel 2.  Note 45.  Velocity 0
000002t:  Note on ::  Channel 2.  Note 45.  Velocity 110
000094t:  Note on ::  Channel 2.  Note 45.  Velocity 0
000002t:  Note on ::  Channel 2.  Note 45.  Velocity 110
000094t:  Note on ::  Channel 2.  Note 45.  Velocity 0
000002t:  Note on ::  Channel 2.  Note 45.  Velocity 110
000094t:  Note on ::  Channel 2.  Note 45.  Velocity 0
000002t:  Note on ::  Channel 2.  Note 45.  Velocity 110
000094t:  Note on ::  Channel 2.  Note 45.  Velocity 0
000002t:  Note on ::  Channel 2.  Note 43.  Velocity 110
000094t:  Note on ::  Channel 2.  Note 43.  Velocity 0
000002t:  Note on ::  Channel 2.  Note 43.  Velocity 110
000094t:  Note on ::  Channel 2.  Note 43.  Velocity 0
000002t:  Note on ::  Channel 2.  Note 29.  Velocity 110
000000t:  Note on ::  Channel 2.  Note 41.  Velocity 110
000256t:  Note on ::  Channel 2.  Note 29.  Velocity 0
000000t:  Note on ::  Channel 2.  Note 41.  Velocity 0
000032t:  Note on ::  Channel 2.  Note 29.  Velocity 110
000000t:  Note on ::  Channel 2.  Note 41.  Velocity 110
000256t:  Note on ::  Channel 2.  Note 29.  Velocity 0
000000t:  Note on ::  Channel 2.  Note 41.  Velocity 0
000032t:  Note on ::  Channel 2.  Note 28.  Velocity 110
000000t:  Note on ::  Channel 2.  Note 40.  Velocity 110
000160t:  Note on ::  Channel 2.  Note 28.  Velocity 0
000000t:  Note on ::  Channel 2.  Note 40.  Velocity 0
000032t:  Note on ::  Channel 2.  Note 26.  Velocity 110
000000t:  Note on ::  Channel 2.  Note 38.  Velocity 110
000256t:  Note on ::  Channel 2.  Note 26.  Velocity 0
000000t:  Note on ::  Channel 2.  Note 38.  Velocity 0
000032t:  Note on ::  Channel 2.  Note 26.  Velocity 110
000000t:  Note on ::  Channel 2.  Note 38.  Velocity 110
000256t:  Note on ::  Channel 2.  Note 26.  Velocity 0
000000t:  Note on ::  Channel 2.  Note 38.  Velocity 0
000032t:  Note on ::  Channel 2.  Note 28.  Velocity 110
000000t:  Note on ::  Channel 2.  Note 40.  Velocity 110
000094t:  Note on ::  Channel 2.  Note 28.  Velocity 0
000000t:  Note on ::  Channel 2.  Note 40.  Velocity 0
000002t:  Note on ::  Channel 2.  Note 29.  Velocity 110
000000t:  Note on ::  Channel 2.  Note 41.  Velocity 110
000094t:  Note on ::  Channel 2.  Note 29.  Velocity 0
000000t:  Note on ::  Channel 2.  Note 41.  Velocity 0
000002t:  Note on ::  Channel 2.  Note 31.  Velocity 110
000000t:  Note on ::  Channel 2.  Note 43.  Velocity 110
000256t:  Note on ::  Channel 2.  Note 31.  Velocity 0
000000t:  Note on ::  Channel 2.  Note 43.  Velocity 0
000032t:  Note on ::  Channel 2.  Note 31.  Velocity 110
000000t:  Note on ::  Channel 2.  Note 43.  Velocity 110
000256t:  Note on ::  Channel 2.  Note 31.  Velocity 0
000000t:  Note on ::  Channel 2.  Note 43.  Velocity 0
000032t:  Note on ::  Channel 2.  Note 29.  Velocity 110
000000t:  Note on ::  Channel 2.  Note 41.  Velocity 110
000160t:  Note on ::  Channel 2.  Note 29.  Velocity 0
000000t:  Note on ::  Channel 2.  Note 41.  Velocity 0
000032t:  Note on ::  Channel 2.  Note 28.  Velocity 110
000000t:  Note on ::  Channel 2.  Note 40.  Velocity 110
000256t:  Note on ::  Channel 2.  Note 28.  Velocity 0
000000t:  Note on ::  Channel 2.  Note 40.  Velocity 0
000032t:  Note on ::  Channel 2.  Note 28.  Velocity 110
000000t:  Note on ::  Channel 2.  Note 40.  Velocity 110
000336t:  Note on ::  Channel 2.  Note 28.  Velocity 0
000000t:  Note on ::  Channel 2.  Note 40.  Velocity 0
000144t:  Note on ::  Channel 2.  Note 29.  Velocity 110
000000t:  Note on ::  Channel 2.  Note 41.  Velocity 110
000256t:  Note on ::  Channel 2.  Note 29.  Velocity 0
000000t:  Note on ::  Channel 2.  Note 41.  Velocity 0
000032t:  Note on ::  Channel 2.  Note 29.  Velocity 110
000000t:  Note on ::  Channel 2.  Note 41.  Velocity 110
000256t:  Note on ::  Channel 2.  Note 29.  Velocity 0
000000t:  Note on ::  Channel 2.  Note 41.  Velocity 0
000032t:  Note on ::  Channel 2.  Note 29.  Velocity 110
000000t:  Note on ::  Channel 2.  Note 41.  Velocity 110
000160t:  Note on ::  Channel 2.  Note 29.  Velocity 0
000000t:  Note on ::  Channel 2.  Note 41.  Velocity 0
000032t:  Note on ::  Channel 2.  Note 30.  Velocity 110
000000t:  Note on ::  Channel 2.  Note 42.  Velocity 110
000256t:  Note on ::  Channel 2.  Note 30.  Velocity 0
000000t:  Note on ::  Channel 2.  Note 42.  Velocity 0
000032t:  Note on ::  Channel 2.  Note 30.  Velocity 110
000000t:  Note on ::  Channel 2.  Note 42.  Velocity 110
000256t:  Note on ::  Channel 2.  Note 30.  Velocity 0
000000t:  Note on ::  Channel 2.  Note 42.  Velocity 0
000032t:  Note on ::  Channel 2.  Note 30.  Velocity 110
000000t:  Note on ::  Channel 2.  Note 42.  Velocity 110
000160t:  Note on ::  Channel 2.  Note 30.  Velocity 0
000000t:  Note on ::  Channel 2.  Note 42.  Velocity 0
000032t:  Note on ::  Channel 2.  Note 31.  Velocity 110
000000t:  Note on ::  Channel 2.  Note 43.  Velocity 110
000256t:  Note on ::  Channel 2.  Note 31.  Velocity 0
000000t:  Note on ::  Channel 2.  Note 43.  Velocity 0
000032t:  Note on ::  Channel 2.  Note 31.  Velocity 110
000000t:  Note on ::  Channel 2.  Note 43.  Velocity 110
000256t:  Note on ::  Channel 2.  Note 31.  Velocity 0
000000t:  Note on ::  Channel 2.  Note 43.  Velocity 0
000032t:  Note on ::  Channel 2.  Note 31.  Velocity 110
000000t:  Note on ::  Channel 2.  Note 43.  Velocity 110
000160t:  Note on ::  Channel 2.  Note 31.  Velocity 0
000000t:  Note on ::  Channel 2.  Note 43.  Velocity 0
000032t:  Note on ::  Channel 2.  Note 32.  Velocity 110
000000t:  Note on ::  Channel 2.  Note 44.  Velocity 110
000256t:  Note on ::  Channel 2.  Note 32.  Velocity 0
000000t:  Note on ::  Channel 2.  Note 44.  Velocity 0
000032t:  Note on ::  Channel 2.  Note 32.  Velocity 110
000000t:  Note on ::  Channel 2.  Note 44.  Velocity 110
000256t:  Note on ::  Channel 2.  Note 32.  Velocity 0
000000t:  Note on ::  Channel 2.  Note 44.  Velocity 0
000032t:  Note on ::  Channel 2.  Note 32.  Velocity 110
000000t:  Note on ::  Channel 2.  Note 44.  Velocity 110
000160t:  Note on ::  Channel 2.  Note 32.  Velocity 0
000000t:  Note on ::  Channel 2.  Note 44.  Velocity 0
000032t:  Note on ::  Channel 2.  Note 33.  Velocity 110
000000t:  Note on ::  Channel 2.  Note 45.  Velocity 110
000256t:  Note on ::  Channel 2.  Note 33.  Velocity 0
000000t:  Note on ::  Channel 2.  Note 45.  Velocity 0
000032t:  Note on ::  Channel 2.  Note 33.  Velocity 110
000000t:  Note on ::  Channel 2.  Note 45.  Velocity 110
000256t:  Note on ::  Channel 2.  Note 33.  Velocity 0
000000t:  Note on ::  Channel 2.  Note 45.  Velocity 0
000032t:  Note on ::  Channel 2.  Note 28.  Velocity 110
000000t:  Note on ::  Channel 2.  Note 40.  Velocity 110
000160t:  Note on ::  Channel 2.  Note 28.  Velocity 0
000000t:  Note on ::  Channel 2.  Note 40.  Velocity 0
000032t:  Note on ::  Channel 2.  Note 26.  Velocity 110
000000t:  Note on ::  Channel 2.  Note 38.  Velocity 110
000256t:  Note on ::  Channel 2.  Note 26.  Velocity 0
000000t:  Note on ::  Channel 2.  Note 38.  Velocity 0
000032t:  Note on ::  Channel 2.  Note 26.  Velocity 110
000000t:  Note on ::  Channel 2.  Note 38.  Velocity 110
000256t:  Note on ::  Channel 2.  Note 26.  Velocity 0
000000t:  Note on ::  Channel 2.  Note 38.  Velocity 0
000032t:  Note on ::  Channel 2.  Note 28.  Velocity 110
000000t:  Note on ::  Channel 2.  Note 40.  Velocity 110
000094t:  Note on ::  Channel 2.  Note 28.  Velocity 0
000000t:  Note on ::  Channel 2.  Note 40.  Velocity 0
000002t:  Note on ::  Channel 2.  Note 29.  Velocity 110
000000t:  Note on ::  Channel 2.  Note 41.  Velocity 110
000094t:  Note on ::  Channel 2.  Note 29.  Velocity 0
000000t:  Note on ::  Channel 2.  Note 41.  Velocity 0
000002t:  Note on ::  Channel 2.  Note 31.  Velocity 110
000000t:  Note on ::  Channel 2.  Note 43.  Velocity 110
000256t:  Note on ::  Channel 2.  Note 31.  Velocity 0
000000t:  Note on ::  Channel 2.  Note 43.  Velocity 0
000032t:  Note on ::  Channel 2.  Note 31.  Velocity 110
000000t:  Note on ::  Channel 2.  Note 43.  Velocity 110
000256t:  Note on ::  Channel 2.  Note 31.  Velocity 0
000000t:  Note on ::  Channel 2.  Note 43.  Velocity 0
000032t:  Note on ::  Channel 2.  Note 26.  Velocity 110
000000t:  Note on ::  Channel 2.  Note 38.  Velocity 110
000160t:  Note on ::  Channel 2.  Note 26.  Velocity 0
000000t:  Note on ::  Channel 2.  Note 38.  Velocity 0
000032t:  Note on ::  Channel 2.  Note 24.  Velocity 110
000000t:  Note on ::  Channel 2.  Note 36.  Velocity 110
000256t:  Note on ::  Channel 2.  Note 24.  Velocity 0
000000t:  Note on ::  Channel 2.  Note 36.  Velocity 0
000032t:  Note on ::  Channel 2.  Note 24.  Velocity 110
000000t:  Note on ::  Channel 2.  Note 36.  Velocity 110
000256t:  Note on ::  Channel 2.  Note 24.  Velocity 0
000000t:  Note on ::  Channel 2.  Note 36.  Velocity 0
000032t:  Note on ::  Channel 2.  Note 24.  Velocity 110
000000t:  Note on ::  Channel 2.  Note 36.  Velocity 110
000094t:  Note on ::  Channel 2.  Note 24.  Velocity 0
000000t:  Note on ::  Channel 2.  Note 36.  Velocity 0
000002t:  Note on ::  Channel 2.  Note 23.  Velocity 110
000000t:  Note on ::  Channel 2.  Note 35.  Velocity 110
000094t:  Note on ::  Channel 2.  Note 23.  Velocity 0
000000t:  Note on ::  Channel 2.  Note 35.  Velocity 0
000002t:  Note on ::  Channel 2.  Note 21.  Velocity 110
000000t:  Note on ::  Channel 2.  Note 33.  Velocity 110
000256t:  Note on ::  Channel 2.  Note 21.  Velocity 0
000000t:  Note on ::  Channel 2.  Note 33.  Velocity 0
000032t:  Note on ::  Channel 2.  Note 33.  Velocity 110
000000t:  Note on ::  Channel 2.  Note 45.  Velocity 110
000256t:  Note on ::  Channel 2.  Note 33.  Velocity 0
000000t:  Note on ::  Channel 2.  Note 45.  Velocity 0
000032t:  Note on ::  Channel 2.  Note 31.  Velocity 110
000000t:  Note on ::  Channel 2.  Note 43.  Velocity 110
000160t:  Note on ::  Channel 2.  Note 31.  Velocity 0
000000t:  Note on ::  Channel 2.  Note 43.  Velocity 0
000032t:  Note on ::  Channel 2.  Note 30.  Velocity 110
000000t:  Note on ::  Channel 2.  Note 42.  Velocity 110
000256t:  Note on ::  Channel 2.  Note 30.  Velocity 0
000000t:  Note on ::  Channel 2.  Note 42.  Velocity 0
000032t:  Note on ::  Channel 2.  Note 30.  Velocity 110
000000t:  Note on ::  Channel 2.  Note 42.  Velocity 110
000256t:  Note on ::  Channel 2.  Note 30.  Velocity 0
000000t:  Note on ::  Channel 2.  Note 42.  Velocity 0
000032t:  Note on ::  Channel 2.  Note 30.  Velocity 110
000000t:  Note on ::  Channel 2.  Note 42.  Velocity 110
000160t:  Note on ::  Channel 2.  Note 30.  Velocity 0
000000t:  Note on ::  Channel 2.  Note 42.  Velocity 0
000032t:  Note on ::  Channel 2.  Note 31.  Velocity 110
000000t:  Note on ::  Channel 2.  Note 43.  Velocity 110
000256t:  Note on ::  Channel 2.  Note 31.  Velocity 0
000000t:  Note on ::  Channel 2.  Note 43.  Velocity 0
000032t:  Note on ::  Channel 2.  Note 26.  Velocity 110
000000t:  Note on ::  Channel 2.  Note 38.  Velocity 110
000160t:  Note on ::  Channel 2.  Note 26.  Velocity 0
000000t:  Note on ::  Channel 2.  Note 38.  Velocity 0
000032t:  Note on ::  Channel 2.  Note 29.  Velocity 110
000000t:  Note on ::  Channel 2.  Note 41.  Velocity 110
000094t:  Note on ::  Channel 2.  Note 29.  Velocity 0
000000t:  Note on ::  Channel 2.  Note 41.  Velocity 0
000002t:  Note on ::  Channel 2.  Note 33.  Velocity 110
000000t:  Note on ::  Channel 2.  Note 45.  Velocity 110
000094t:  Note on ::  Channel 2.  Note 33.  Velocity 0
000000t:  Note on ::  Channel 2.  Note 45.  Velocity 0
000002t:  Note on ::  Channel 2.  Note 29.  Velocity 110
000000t:  Note on ::  Channel 2.  Note 41.  Velocity 110
000094t:  Note on ::  Channel 2.  Note 29.  Velocity 0
000000t:  Note on ::  Channel 2.  Note 41.  Velocity 0
000002t:  Note on ::  Channel 2.  Note 31.  Velocity 110
000000t:  Note on ::  Channel 2.  Note 43.  Velocity 110
000256t:  Note on ::  Channel 2.  Note 31.  Velocity 0
000000t:  Note on ::  Channel 2.  Note 43.  Velocity 0
000032t:  Note on ::  Channel 2.  Note 24.  Velocity 110
000000t:  Note on ::  Channel 2.  Note 36.  Velocity 110
000160t:  Note on ::  Channel 2.  Note 24.  Velocity 0
000000t:  Note on ::  Channel 2.  Note 36.  Velocity 0
000032t:  Note on ::  Channel 2.  Note 26.  Velocity 110
000000t:  Note on ::  Channel 2.  Note 38.  Velocity 110
000094t:  Note on ::  Channel 2.  Note 26.  Velocity 0
000000t:  Note on ::  Channel 2.  Note 38.  Velocity 0
000002t:  Note on ::  Channel 2.  Note 24.  Velocity 110
000000t:  Note on ::  Channel 2.  Note 36.  Velocity 110
000094t:  Note on ::  Channel 2.  Note 24.  Velocity 0
000000t:  Note on ::  Channel 2.  Note 36.  Velocity 0
000002t:  Note on ::  Channel 2.  Note 21.  Velocity 110
000000t:  Note on ::  Channel 2.  Note 33.  Velocity 110
000094t:  Note on ::  Channel 2.  Note 21.  Velocity 0
000000t:  Note on ::  Channel 2.  Note 33.  Velocity 0
000002t:  Note on ::  Channel 2.  Note 31.  Velocity 110
000000t:  Note on ::  Channel 2.  Note 43.  Velocity 110
000256t:  Note on ::  Channel 2.  Note 31.  Velocity 0
000000t:  Note on ::  Channel 2.  Note 43.  Velocity 0
000032t:  Note on ::  Channel 2.  Note 31.  Velocity 110
000000t:  Note on ::  Channel 2.  Note 43.  Velocity 110
000256t:  Note on ::  Channel 2.  Note 31.  Velocity 0
000000t:  Note on ::  Channel 2.  Note 43.  Velocity 0
000032t:  Note on ::  Channel 2.  Note 26.  Velocity 110
000000t:  Note on ::  Channel 2.  Note 38.  Velocity 110
000160t:  Note on ::  Channel 2.  Note 26.  Velocity 0
000000t:  Note on ::  Channel 2.  Note 38.  Velocity 0
000032t:  Note on ::  Channel 2.  Note 31.  Velocity 110
000000t:  Note on ::  Channel 2.  Note 43.  Velocity 110
000256t:  Note on ::  Channel 2.  Note 31.  Velocity 0
000000t:  Note on ::  Channel 2.  Note 43.  Velocity 0
000032t:  Note on ::  Channel 2.  Note 31.  Velocity 110
000000t:  Note on ::  Channel 2.  Note 43.  Velocity 110
000256t:  Note on ::  Channel 2.  Note 31.  Velocity 0
000000t:  Note on ::  Channel 2.  Note 43.  Velocity 0
000032t:  Note on ::  Channel 2.  Note 31.  Velocity 110
000000t:  Note on ::  Channel 2.  Note 43.  Velocity 110
000160t:  Note on ::  Channel 2.  Note 31.  Velocity 0
000000t:  Note on ::  Channel 2.  Note 43.  Velocity 0
000032t:  Note on ::  Channel 2.  Note 45.  Velocity 110
000094t:  Note on ::  Channel 2.  Note 45.  Velocity 0
000002t:  Note on ::  Channel 2.  Note 45.  Velocity 110
000094t:  Note on ::  Channel 2.  Note 45.  Velocity 0
000002t:  Note on ::  Channel 2.  Note 45.  Velocity 110
000094t:  Note on ::  Channel 2.  Note 45.  Velocity 0
000002t:  Note on ::  Channel 2.  Note 45.  Velocity 110
000094t:  Note on ::  Channel 2.  Note 45.  Velocity 0
000002t:  Note on ::  Channel 2.  Note 45.  Velocity 110
000094t:  Note on ::  Channel 2.  Note 45.  Velocity 0
000002t:  Note on ::  Channel 2.  Note 45.  Velocity 110
000094t:  Note on ::  Channel 2.  Note 45.  Velocity 0
000002t:  Note on ::  Channel 2.  Note 43.  Velocity 110
000094t:  Note on ::  Channel 2.  Note 43.  Velocity 0
000002t:  Note on ::  Channel 2.  Note 43.  Velocity 110
000094t:  Note on ::  Channel 2.  Note 43.  Velocity 0
000002t:  Note on ::  Channel 2.  Note 45.  Velocity 110
000094t:  Note on ::  Channel 2.  Note 45.  Velocity 0
000002t:  Note on ::  Channel 2.  Note 45.  Velocity 110
000094t:  Note on ::  Channel 2.  Note 45.  Velocity 0
000002t:  Note on ::  Channel 2.  Note 45.  Velocity 110
000094t:  Note on ::  Channel 2.  Note 45.  Velocity 0
000002t:  Note on ::  Channel 2.  Note 45.  Velocity 110
000094t:  Note on ::  Channel 2.  Note 45.  Velocity 0
000002t:  Note on ::  Channel 2.  Note 45.  Velocity 110
000094t:  Note on ::  Channel 2.  Note 45.  Velocity 0
000002t:  Note on ::  Channel 2.  Note 45.  Velocity 110
000094t:  Note on ::  Channel 2.  Note 45.  Velocity 0
000002t:  Note on ::  Channel 2.  Note 43.  Velocity 110
000094t:  Note on ::  Channel 2.  Note 43.  Velocity 0
000002t:  Note on ::  Channel 2.  Note 43.  Velocity 110
000094t:  Note on ::  Channel 2.  Note 43.  Velocity 0
000002t:  Note on ::  Channel 2.  Note 45.  Velocity 110
000094t:  Note on ::  Channel 2.  Note 45.  Velocity 0
000002t:  Note on ::  Channel 2.  Note 45.  Velocity 110
000094t:  Note on ::  Channel 2.  Note 45.  Velocity 0
000002t:  Note on ::  Channel 2.  Note 45.  Velocity 110
000094t:  Note on ::  Channel 2.  Note 45.  Velocity 0
000002t:  Note on ::  Channel 2.  Note 45.  Velocity 110
000094t:  Note on ::  Channel 2.  Note 45.  Velocity 0
000002t:  Note on ::  Channel 2.  Note 45.  Velocity 110
000094t:  Note on ::  Channel 2.  Note 45.  Velocity 0
000002t:  Note on ::  Channel 2.  Note 45.  Velocity 110
000094t:  Note on ::  Channel 2.  Note 45.  Velocity 0
000002t:  Note on ::  Channel 2.  Note 43.  Velocity 110
000094t:  Note on ::  Channel 2.  Note 43.  Velocity 0
000002t:  Note on ::  Channel 2.  Note 43.  Velocity 110
000094t:  Note on ::  Channel 2.  Note 43.  Velocity 0
000002t:  Note on ::  Channel 2.  Note 45.  Velocity 110
000094t:  Note on ::  Channel 2.  Note 45.  Velocity 0
000002t:  Note on ::  Channel 2.  Note 45.  Velocity 110
000094t:  Note on ::  Channel 2.  Note 45.  Velocity 0
000002t:  Note on ::  Channel 2.  Note 45.  Velocity 110
000094t:  Note on ::  Channel 2.  Note 45.  Velocity 0
000002t:  Note on ::  Channel 2.  Note 45.  Velocity 110
000094t:  Note on ::  Channel 2.  Note 45.  Velocity 0
000002t:  Note on ::  Channel 2.  Note 45.  Velocity 110
000094t:  Note on ::  Channel 2.  Note 45.  Velocity 0
000002t:  Note on ::  Channel 2.  Note 45.  Velocity 110
000094t:  Note on ::  Channel 2.  Note 45.  Velocity 0
000002t:  Note on ::  Channel 2.  Note 43.  Velocity 110
000094t:  Note on ::  Channel 2.  Note 43.  Velocity 0
000002t:  Note on ::  Channel 2.  Note 43.  Velocity 110
000094t:  Note on ::  Channel 2.  Note 43.  Velocity 0
000002t:  Note on ::  Channel 2.  Note 41.  Velocity 110
001296t:  Note on ::  Channel 2.  Note 41.  Velocity 0
000048t:  Note on ::  Channel 2.  Note 43.  Velocity 110
001488t:  Note on ::  Channel 2.  Note 43.  Velocity 0
000048t:  Note on ::  Channel 2.  Note 45.  Velocity 110
000094t:  Note on ::  Channel 2.  Note 45.  Velocity 0
000002t:  Note on ::  Channel 2.  Note 45.  Velocity 110
000094t:  Note on ::  Channel 2.  Note 45.  Velocity 0
000002t:  Note on ::  Channel 2.  Note 45.  Velocity 110
000094t:  Note on ::  Channel 2.  Note 45.  Velocity 0
000002t:  Note on ::  Channel 2.  Note 45.  Velocity 110
000094t:  Note on ::  Channel 2.  Note 45.  Velocity 0
000002t:  Note on ::  Channel 2.  Note 45.  Velocity 110
000094t:  Note on ::  Channel 2.  Note 45.  Velocity 0
000002t:  Note on ::  Channel 2.  Note 45.  Velocity 110
000094t:  Note on ::  Channel 2.  Note 45.  Velocity 0
000002t:  Note on ::  Channel 2.  Note 43.  Velocity 110
000094t:  Note on ::  Channel 2.  Note 43.  Velocity 0
000002t:  Note on ::  Channel 2.  Note 43.  Velocity 110
000094t:  Note on ::  Channel 2.  Note 43.  Velocity 0
000002t:  Note on ::  Channel 2.  Note 45.  Velocity 110
000094t:  Note on ::  Channel 2.  Note 45.  Velocity 0
000002t:  Note on ::  Channel 2.  Note 45.  Velocity 110
000094t:  Note on ::  Channel 2.  Note 45.  Velocity 0
000002t:  Note on ::  Channel 2.  Note 45.  Velocity 110
000094t:  Note on ::  Channel 2.  Note 45.  Velocity 0
000002t:  Note on ::  Channel 2.  Note 45.  Velocity 110
000094t:  Note on ::  Channel 2.  Note 45.  Velocity 0
000002t:  Note on ::  Channel 2.  Note 45.  Velocity 110
000094t:  Note on ::  Channel 2.  Note 45.  Velocity 0
000002t:  Note on ::  Channel 2.  Note 45.  Velocity 110
000094t:  Note on ::  Channel 2.  Note 45.  Velocity 0
000002t:  Note on ::  Channel 2.  Note 43.  Velocity 110
000094t:  Note on ::  Channel 2.  Note 43.  Velocity 0
000002t:  Note on ::  Channel 2.  Note 43.  Velocity 110
000094t:  Note on ::  Channel 2.  Note 43.  Velocity 0
000002t:  Note on ::  Channel 2.  Note 45.  Velocity 110
000094t:  Note on ::  Channel 2.  Note 45.  Velocity 0
000002t:  Note on ::  Channel 2.  Note 45.  Velocity 110
000094t:  Note on ::  Channel 2.  Note 45.  Velocity 0
000002t:  Note on ::  Channel 2.  Note 45.  Velocity 110
000094t:  Note on ::  Channel 2.  Note 45.  Velocity 0
000002t:  Note on ::  Channel 2.  Note 45.  Velocity 110
000094t:  Note on ::  Channel 2.  Note 45.  Velocity 0
000002t:  Note on ::  Channel 2.  Note 45.  Velocity 110
000094t:  Note on ::  Channel 2.  Note 45.  Velocity 0
000002t:  Note on ::  Channel 2.  Note 45.  Velocity 110
000094t:  Note on ::  Channel 2.  Note 45.  Velocity 0
000002t:  Note on ::  Channel 2.  Note 43.  Velocity 110
000094t:  Note on ::  Channel 2.  Note 43.  Velocity 0
000002t:  Note on ::  Channel 2.  Note 43.  Velocity 110
000094t:  Note on ::  Channel 2.  Note 43.  Velocity 0
000002t:  Note on ::  Channel 2.  Note 45.  Velocity 110
000094t:  Note on ::  Channel 2.  Note 45.  Velocity 0
000002t:  Note on ::  Channel 2.  Note 45.  Velocity 110
000094t:  Note on ::  Channel 2.  Note 45.  Velocity 0
000002t:  Note on ::  Channel 2.  Note 45.  Velocity 110
000094t:  Note on ::  Channel 2.  Note 45.  Velocity 0
000002t:  Note on ::  Channel 2.  Note 45.  Velocity 110
000094t:  Note on ::  Channel 2.  Note 45.  Velocity 0
000002t:  Note on ::  Channel 2.  Note 45.  Velocity 110
000094t:  Note on ::  Channel 2.  Note 45.  Velocity 0
000002t:  Note on ::  Channel 2.  Note 45.  Velocity 110
000094t:  Note on ::  Channel 2.  Note 45.  Velocity 0
000002t:  Note on ::  Channel 2.  Note 43.  Velocity 110
000094t:  Note on ::  Channel 2.  Note 43.  Velocity 0
000002t:  Note on ::  Channel 2.  Note 43.  Velocity 110
000094t:  Note on ::  Channel 2.  Note 43.  Velocity 0
000002t:  Note on ::  Channel 2.  Note 45.  Velocity 110
000094t:  Note on ::  Channel 2.  Note 45.  Velocity 0
000194t:  Note on ::  Channel 2.  Note 45.  Velocity 110
000094t:  Note on ::  Channel 2.  Note 45.  Velocity 0
000098t:  Note on ::  Channel 2.  Note 40.  Velocity 110
000094t:  Note on ::  Channel 2.  Note 40.  Velocity 0
000002t:  Note on ::  Channel 2.  Note 46.  Velocity 110
000094t:  Note on ::  Channel 2.  Note 46.  Velocity 0
000002t:  Note on ::  Channel 2.  Note 44.  Velocity 110
000094t:  Note on ::  Channel 2.  Note 44.  Velocity 0
000002t:  Note on ::  Channel 2.  Note 45.  Velocity 110
000094t:  Note on ::  Channel 2.  Note 45.  Velocity 0
000194t:  Note on ::  Channel 2.  Note 45.  Velocity 110
000094t:  Note on ::  Channel 2.  Note 45.  Velocity 0
000098t:  Note on ::  Channel 2.  Note 40.  Velocity 110
000094t:  Note on ::  Channel 2.  Note 40.  Velocity 0
000002t:  Note on ::  Channel 2.  Note 43.  Velocity 110
000094t:  Note on ::  Channel 2.  Note 43.  Velocity 0
000002t:  Note on ::  Channel 2.  Note 44.  Velocity 110
000094t:  Note on ::  Channel 2.  Note 44.  Velocity 0
000002t:  Note on ::  Channel 2.  Note 45.  Velocity 110
000094t:  Note on ::  Channel 2.  Note 45.  Velocity 0
000002t:  Note on ::  Channel 2.  Note 45.  Velocity 110
000094t:  Note on ::  Channel 2.  Note 45.  Velocity 0
000002t:  Note on ::  Channel 2.  Note 45.  Velocity 110
000094t:  Note on ::  Channel 2.  Note 45.  Velocity 0
000002t:  Note on ::  Channel 2.  Note 45.  Velocity 110
000094t:  Note on ::  Channel 2.  Note 45.  Velocity 0
000002t:  Note on ::  Channel 2.  Note 45.  Velocity 110
000094t:  Note on ::  Channel 2.  Note 45.  Velocity 0
000002t:  Note on ::  Channel 2.  Note 45.  Velocity 110
000094t:  Note on ::  Channel 2.  Note 45.  Velocity 0
000002t:  Note on ::  Channel 2.  Note 43.  Velocity 110
000094t:  Note on ::  Channel 2.  Note 43.  Velocity 0
000002t:  Note on ::  Channel 2.  Note 43.  Velocity 110
000094t:  Note on ::  Channel 2.  Note 43.  Velocity 0
000002t:  Note on ::  Channel 2.  Note 45.  Velocity 110
000094t:  Note on ::  Channel 2.  Note 45.  Velocity 0
000002t:  Note on ::  Channel 2.  Note 45.  Velocity 110
000094t:  Note on ::  Channel 2.  Note 45.  Velocity 0
000002t:  Note on ::  Channel 2.  Note 45.  Velocity 110
000094t:  Note on ::  Channel 2.  Note 45.  Velocity 0
000002t:  Note on ::  Channel 2.  Note 45.  Velocity 110
000094t:  Note on ::  Channel 2.  Note 45.  Velocity 0
000002t:  Note on ::  Channel 2.  Note 45.  Velocity 110
000094t:  Note on ::  Channel 2.  Note 45.  Velocity 0
000002t:  Note on ::  Channel 2.  Note 45.  Velocity 110
000094t:  Note on ::  Channel 2.  Note 45.  Velocity 0
000002t:  Note on ::  Channel 2.  Note 43.  Velocity 110
000094t:  Note on ::  Channel 2.  Note 43.  Velocity 0
000002t:  Note on ::  Channel 2.  Note 43.  Velocity 110
000094t:  Note on ::  Channel 2.  Note 43.  Velocity 0
000002t:  Control change ::  Channel 2.  Controller 7.  Value: 127
000000t:  Note on ::  Channel 2.  Note 41.  Velocity 110
000024t:  Control change ::  Channel 2.  Controller 7.  Value: 126
000024t:  Control change ::  Channel 2.  Controller 7.  Value: 125
000024t:  Control change ::  Channel 2.  Controller 7.  Value: 124
000022t:  Note on ::  Channel 2.  Note 41.  Velocity 0
000002t:  Control change ::  Channel 2.  Controller 7.  Value: 123
000024t:  Control change ::  Channel 2.  Controller 7.  Value: 122
000025t:  Control change ::  Channel 2.  Controller 7.  Value: 121
000024t:  Control change ::  Channel 2.  Controller 7.  Value: 120
000024t:  Control change ::  Channel 2.  Controller 7.  Value: 119
000024t:  Control change ::  Channel 2.  Controller 7.  Value: 118
000024t:  Control change ::  Channel 2.  Controller 7.  Value: 117
000025t:  Control change ::  Channel 2.  Controller 7.  Value: 116
000022t:  Note on ::  Channel 2.  Note 41.  Velocity 110
000002t:  Control change ::  Channel 2.  Controller 7.  Value: 115
000024t:  Control change ::  Channel 2.  Controller 7.  Value: 114
000024t:  Control change ::  Channel 2.  Controller 7.  Value: 113
000024t:  Control change ::  Channel 2.  Controller 7.  Value: 112
000020t:  Note on ::  Channel 2.  Note 41.  Velocity 0
000005t:  Control change ::  Channel 2.  Controller 7.  Value: 111
000024t:  Control change ::  Channel 2.  Controller 7.  Value: 110
000024t:  Control change ::  Channel 2.  Controller 7.  Value: 109
000024t:  Control change ::  Channel 2.  Controller 7.  Value: 108
000024t:  Control change ::  Channel 2.  Controller 7.  Value: 107
000024t:  Control change ::  Channel 2.  Controller 7.  Value: 106
000025t:  Control change ::  Channel 2.  Controller 7.  Value: 105
000024t:  Control change ::  Channel 2.  Controller 7.  Value: 104
000020t:  Note on ::  Channel 2.  Note 48.  Velocity 110
000004t:  Control change ::  Channel 2.  Controller 7.  Value: 103
000024t:  Control change ::  Channel 2.  Controller 7.  Value: 102
000024t:  Control change ::  Channel 2.  Controller 7.  Value: 101
000025t:  Control change ::  Channel 2.  Controller 7.  Value: 100
000017t:  Note on ::  Channel 2.  Note 48.  Velocity 0
000007t:  Control change ::  Channel 2.  Controller 7.  Value: 99
000024t:  Control change ::  Channel 2.  Controller 7.  Value: 98
000024t:  Control change ::  Channel 2.  Controller 7.  Value: 97
000024t:  Control change ::  Channel 2.  Controller 7.  Value: 96
000019t:  Note on ::  Channel 2.  Note 43.  Velocity 110
000006t:  Control change ::  Channel 2.  Controller 7.  Value: 95
000024t:  Control change ::  Channel 2.  Controller 7.  Value: 94
000024t:  Control change ::  Channel 2.  Controller 7.  Value: 93
000024t:  Control change ::  Channel 2.  Controller 7.  Value: 92
000016t:  Note on ::  Channel 2.  Note 43.  Velocity 0
000008t:  Control change ::  Channel 2.  Controller 7.  Value: 91
000024t:  Control change ::  Channel 2.  Controller 7.  Value: 90
000025t:  Control change ::  Channel 2.  Controller 7.  Value: 89
000024t:  Control change ::  Channel 2.  Controller 7.  Value: 88
000024t:  Control change ::  Channel 2.  Controller 7.  Value: 87
000024t:  Control change ::  Channel 2.  Controller 7.  Value: 86
000024t:  Control change ::  Channel 2.  Controller 7.  Value: 85
000025t:  Control change ::  Channel 2.  Controller 7.  Value: 84
000016t:  Note on ::  Channel 2.  Note 43.  Velocity 110
000008t:  Control change ::  Channel 2.  Controller 7.  Value: 83
000024t:  Control change ::  Channel 2.  Controller 7.  Value: 82
000024t:  Control change ::  Channel 2.  Controller 7.  Value: 81
000024t:  Control change ::  Channel 2.  Controller 7.  Value: 80
000014t:  Note on ::  Channel 2.  Note 43.  Velocity 0
000011t:  Control change ::  Channel 2.  Controller 7.  Value: 79
000024t:  Control change ::  Channel 2.  Controller 7.  Value: 78
000024t:  Control change ::  Channel 2.  Controller 7.  Value: 77
000024t:  Control change ::  Channel 2.  Controller 7.  Value: 76
000015t:  Note on ::  Channel 2.  Note 38.  Velocity 110
000009t:  Control change ::  Channel 2.  Controller 7.  Value: 75
000025t:  Control change ::  Channel 2.  Controller 7.  Value: 74
000024t:  Control change ::  Channel 2.  Controller 7.  Value: 73
000024t:  Control change ::  Channel 2.  Controller 7.  Value: 72
000012t:  Note on ::  Channel 2.  Note 38.  Velocity 0
000002t:  Note on ::  Channel 2.  Note 47.  Velocity 110
000010t:  Control change ::  Channel 2.  Controller 7.  Value: 71
000024t:  Control change ::  Channel 2.  Controller 7.  Value: 70
000024t:  Control change ::  Channel 2.  Controller 7.  Value: 69
000025t:  Control change ::  Channel 2.  Controller 7.  Value: 68
000011t:  Note on ::  Channel 2.  Note 47.  Velocity 0
000002t:  Note on ::  Channel 2.  Note 43.  Velocity 110
000011t:  Control change ::  Channel 2.  Controller 7.  Value: 67
000024t:  Control change ::  Channel 2.  Controller 7.  Value: 66
000024t:  Control change ::  Channel 2.  Controller 7.  Value: 65
000024t:  Control change ::  Channel 2.  Controller 7.  Value: 64
000011t:  Note on ::  Channel 2.  Note 43.  Velocity 0
000002t:  Note on ::  Channel 2.  Note 45.  Velocity 110
000012t:  Control change ::  Channel 2.  Controller 7.  Value: 63
000024t:  Control change ::  Channel 2.  Controller 7.  Value: 62
000024t:  Control change ::  Channel 2.  Controller 7.  Value: 61
000024t:  Control change ::  Channel 2.  Controller 7.  Value: 60
000010t:  Note on ::  Channel 2.  Note 45.  Velocity 0
000002t:  Note on ::  Channel 2.  Note 45.  Velocity 110
000012t:  Control change ::  Channel 2.  Controller 7.  Value: 59
000025t:  Control change ::  Channel 2.  Controller 7.  Value: 58
000024t:  Control change ::  Channel 2.  Controller 7.  Value: 57
000024t:  Control change ::  Channel 2.  Controller 7.  Value: 56
000009t:  Note on ::  Channel 2.  Note 45.  Velocity 0
000002t:  Note on ::  Channel 2.  Note 45.  Velocity 110
000013t:  Control change ::  Channel 2.  Controller 7.  Value: 55
000024t:  Control change ::  Channel 2.  Controller 7.  Value: 54
000024t:  Control change ::  Channel 2.  Controller 7.  Value: 53
000025t:  Control change ::  Channel 2.  Controller 7.  Value: 52
000008t:  Note on ::  Channel 2.  Note 45.  Velocity 0
000002t:  Note on ::  Channel 2.  Note 45.  Velocity 110
000014t:  Control change ::  Channel 2.  Controller 7.  Value: 51
000024t:  Control change ::  Channel 2.  Controller 7.  Value: 50
000024t:  Control change ::  Channel 2.  Controller 7.  Value: 49
000024t:  Control change ::  Channel 2.  Controller 7.  Value: 48
000008t:  Note on ::  Channel 2.  Note 45.  Velocity 0
000002t:  Note on ::  Channel 2.  Note 45.  Velocity 110
000015t:  Control change ::  Channel 2.  Controller 7.  Value: 47
000024t:  Control change ::  Channel 2.  Controller 7.  Value: 46
000024t:  Control change ::  Channel 2.  Controller 7.  Value: 45
000024t:  Control change ::  Channel 2.  Controller 7.  Value: 44
000007t:  Note on ::  Channel 2.  Note 45.  Velocity 0
000002t:  Note on ::  Channel 2.  Note 45.  Velocity 110
000015t:  Control change ::  Channel 2.  Controller 7.  Value: 43
000025t:  Control change ::  Channel 2.  Controller 7.  Value: 42
000024t:  Control change ::  Channel 2.  Controller 7.  Value: 41
000024t:  Control change ::  Channel 2.  Controller 7.  Value: 40
000006t:  Note on ::  Channel 2.  Note 45.  Velocity 0
000002t:  Note on ::  Channel 2.  Note 43.  Velocity 110
000016t:  Control change ::  Channel 2.  Controller 7.  Value: 39
000024t:  Control change ::  Channel 2.  Controller 7.  Value: 38
000025t:  Control change ::  Channel 2.  Controller 7.  Value: 37
000024t:  Control change ::  Channel 2.  Controller 7.  Value: 36
000005t:  Note on ::  Channel 2.  Note 43.  Velocity 0
000002t:  Note on ::  Channel 2.  Note 43.  Velocity 110
000017t:  Control change ::  Channel 2.  Controller 7.  Value: 35
000024t:  Control change ::  Channel 2.  Controller 7.  Value: 34
000024t:  Control change ::  Channel 2.  Controller 7.  Value: 33
000024t:  Control change ::  Channel 2.  Controller 7.  Value: 32
000005t:  Note on ::  Channel 2.  Note 43.  Velocity 0
000002t:  Note on ::  Channel 2.  Note 45.  Velocity 110
000018t:  Control change ::  Channel 2.  Controller 7.  Value: 31
000024t:  Control change ::  Channel 2.  Controller 7.  Value: 30
000024t:  Control change ::  Channel 2.  Controller 7.  Value: 29
000024t:  Control change ::  Channel 2.  Controller 7.  Value: 28
000004t:  Note on ::  Channel 2.  Note 45.  Velocity 0
000002t:  Note on ::  Channel 2.  Note 45.  Velocity 110
000018t:  Control change ::  Channel 2.  Controller 7.  Value: 27
000025t:  Control change ::  Channel 2.  Controller 7.  Value: 26
000024t:  Control change ::  Channel 2.  Controller 7.  Value: 25
000024t:  Control change ::  Channel 2.  Controller 7.  Value: 24
000003t:  Note on ::  Channel 2.  Note 45.  Velocity 0
000002t:  Note on ::  Channel 2.  Note 45.  Velocity 110
000019t:  Control change ::  Channel 2.  Controller 7.  Value: 23
000024t:  Control change ::  Channel 2.  Controller 7.  Value: 22
000025t:  Control change ::  Channel 2.  Controller 7.  Value: 21
000024t:  Control change ::  Channel 2.  Controller 7.  Value: 20
000002t:  Note on ::  Channel 2.  Note 45.  Velocity 0
000002t:  Note on ::  Channel 2.  Note 45.  Velocity 110
000020t:  Control change ::  Channel 2.  Controller 7.  Value: 19
000024t:  Control change ::  Channel 2.  Controller 7.  Value: 18
000024t:  Control change ::  Channel 2.  Controller 7.  Value: 17
000024t:  Control change ::  Channel 2.  Controller 7.  Value: 16
000002t:  Note on ::  Channel 2.  Note 45.  Velocity 0
000002t:  Note on ::  Channel 2.  Note 45.  Velocity 110
000021t:  Control change ::  Channel 2.  Controller 7.  Value: 15
000024t:  Control change ::  Channel 2.  Controller 7.  Value: 14
000024t:  Control change ::  Channel 2.  Controller 7.  Value: 13
000024t:  Control change ::  Channel 2.  Controller 7.  Value: 12
000001t:  Note on ::  Channel 2.  Note 45.  Velocity 0
000002t:  Note on ::  Channel 2.  Note 45.  Velocity 110
000021t:  Control change ::  Channel 2.  Controller 7.  Value: 11
000025t:  Control change ::  Channel 2.  Controller 7.  Value: 10
000024t:  Control change ::  Channel 2.  Controller 7.  Value: 9
000024t:  Note on ::  Channel 2.  Note 45.  Velocity 0
000000t:  Control change ::  Channel 2.  Controller 7.  Value: 8
000002t:  Note on ::  Channel 2.  Note 43.  Velocity 110
000022t:  Control change ::  Channel 2.  Controller 7.  Value: 7
000024t:  Control change ::  Channel 2.  Controller 7.  Value: 6
000025t:  Control change ::  Channel 2.  Controller 7.  Value: 5
000023t:  Note on ::  Channel 2.  Note 43.  Velocity 0
000001t:  Control change ::  Channel 2.  Controller 7.  Value: 4
000001t:  Note on ::  Channel 2.  Note 43.  Velocity 110
000023t:  Control change ::  Channel 2.  Controller 7.  Value: 3
000024t:  Control change ::  Channel 2.  Controller 7.  Value: 2
000024t:  Control change ::  Channel 2.  Controller 7.  Value: 1
000023t:  Note on ::  Channel 2.  Note 43.  Velocity 0
000002t:  Control change ::  Channel 2.  Controller 7.  Value: 0
000000t:  Meta-event type $2f (End-track event) of length 0
Sigma t = 87264

Track chunk of 2033 bytes
000000t:  Meta-event type $21 (?) of length 1
	  _
000000t:  Meta-event type $03 (Track name) of length 6
	  Enjoy.
000000t:  Program (patch) change ::  Channel 3.  Patch 29 (Overdriven Guitar)
000000t:  Control change ::  Channel 3.  Controller 7.  Value: 127
000000t:  Control change ::  Channel 3.  Controller 10.  Value: 64
026208t:  Pitch wheel change ::  Channel 3.   -8192
000000t:  Note on ::  Channel 3.  Note 72.  Velocity 110
000000t:  Note on ::  Channel 3.  Note 77.  Velocity 110
000001t:  Pitch wheel change ::  Channel 3.   -8192
000001t:  Pitch wheel change ::  Channel 3.   -8192
000001t:  Pitch wheel change ::  Channel 3.   -8192
000001t:  Pitch wheel change ::  Channel 3.   -8192
000001t:  Pitch wheel change ::  Channel 3.   -8192
000001t:  Pitch wheel change ::  Channel 3.   -8192
000001t:  Pitch wheel change ::  Channel 3.   -8192
000001t:  Pitch wheel change ::  Channel 3.   -8192
000001t:  Pitch wheel change ::  Channel 3.   -8192
000001t:  Pitch wheel change ::  Channel 3.   -8192
000001t:  Pitch wheel change ::  Channel 3.   -8192
000001t:  Pitch wheel change ::  Channel 3.   -8192
000001t:  Pitch wheel change ::  Channel 3.   -8192
000001t:  Pitch wheel change ::  Channel 3.   -8192
000001t:  Pitch wheel change ::  Channel 3.   -8192
000001t:  Pitch wheel change ::  Channel 3.   -8192
000001t:  Pitch wheel change ::  Channel 3.   -8192
000001t:  Pitch wheel change ::  Channel 3.   -8192
000001t:  Pitch wheel change ::  Channel 3.   -8192
000001t:  Pitch wheel change ::  Channel 3.   -8192
000001t:  Pitch wheel change ::  Channel 3.   -8192
000001t:  Pitch wheel change ::  Channel 3.   -8192
000001t:  Pitch wheel change ::  Channel 3.   -8192
000001t:  Pitch wheel change ::  Channel 3.   -8192
000001t:  Pitch wheel change ::  Channel 3.   -8192
000001t:  Pitch wheel change ::  Channel 3.   -8192
000001t:  Pitch wheel change ::  Channel 3.   -8192
000001t:  Pitch wheel change ::  Channel 3.   -8192
000001t:  Pitch wheel change ::  Channel 3.   -8192
000001t:  Pitch wheel change ::  Channel 3.   -8192
000001t:  Pitch wheel change ::  Channel 3.   -8192
000001t:  Pitch wheel change ::  Channel 3.   -8192
000001t:  Pitch wheel change ::  Channel 3.   -8192
000001t:  Pitch wheel change ::  Channel 3.   -8192
000001t:  Pitch wheel change ::  Channel 3.   -8192
000001t:  Pitch wheel change ::  Channel 3.   -8192
000001t:  Pitch wheel change ::  Channel 3.   -8192
000001t:  Pitch wheel change ::  Channel 3.   -8192
000001t:  Pitch wheel change ::  Channel 3.   -8192
000001t:  Pitch wheel change ::  Channel 3.   -8192
000001t:  Pitch wheel change ::  Channel 3.   -8192
000001t:  Pitch wheel change ::  Channel 3.   -8192
000001t:  Pitch wheel change ::  Channel 3.   -8192
000001t:  Pitch wheel change ::  Channel 3.   -8192
000001t:  Pitch wheel change ::  Channel 3.   -8192
000001t:  Pitch wheel change ::  Channel 3.   -8192
000001t:  Pitch wheel change ::  Channel 3.   -8192
000001t:  Pitch wheel change ::  Channel 3.   -8192
000240t:  Note on ::  Channel 3.  Note 72.  Velocity 0
000000t:  Note on ::  Channel 3.  Note 77.  Velocity 0
000000t:  Pitch wheel change ::  Channel 3.   -8192
000000t:  Note on ::  Channel 3.  Note 72.  Velocity 110
000000t:  Note on ::  Channel 3.  Note 77.  Velocity 110
000001t:  Pitch wheel change ::  Channel 3.   -8192
000001t:  Pitch wheel change ::  Channel 3.   -8192
000001t:  Pitch wheel change ::  Channel 3.   -8192
000001t:  Pitch wheel change ::  Channel 3.   -8192
000001t:  Pitch wheel change ::  Channel 3.   -8192
000001t:  Pitch wheel change ::  Channel 3.   -8192
000001t:  Pitch wheel change ::  Channel 3.   -8192
000001t:  Pitch wheel change ::  Channel 3.   -8192
000001t:  Pitch wheel change ::  Channel 3.   -8192
000001t:  Pitch wheel change ::  Channel 3.   -8192
000001t:  Pitch wheel change ::  Channel 3.   -8192
000001t:  Pitch wheel change ::  Channel 3.   -8192
000001t:  Pitch wheel change ::  Channel 3.   -8192
000001t:  Pitch wheel change ::  Channel 3.   -8192
000001t:  Pitch wheel change ::  Channel 3.   -8192
000001t:  Pitch wheel change ::  Channel 3.   -8192
000001t:  Pitch wheel change ::  Channel 3.   -8192
000001t:  Pitch wheel change ::  Channel 3.   -8192
000001t:  Pitch wheel change ::  Channel 3.   -8192
000001t:  Pitch wheel change ::  Channel 3.   -8192
000001t:  Pitch wheel change ::  Channel 3.   -8192
000001t:  Pitch wheel change ::  Channel 3.   -8192
000001t:  Pitch wheel change ::  Channel 3.   -8192
000001t:  Pitch wheel change ::  Channel 3.   -8192
000001t:  Pitch wheel change ::  Channel 3.   -8192
000001t:  Pitch wheel change ::  Channel 3.   -8192
000001t:  Pitch wheel change ::  Channel 3.   -8192
000001t:  Pitch wheel change ::  Channel 3.   -8192
000001t:  Pitch wheel change ::  Channel 3.   -8192
000001t:  Pitch wheel change ::  Channel 3.   -8192
000001t:  Pitch wheel change ::  Channel 3.   -8192
000001t:  Pitch wheel change ::  Channel 3.   -8192
000001t:  Pitch wheel change ::  Channel 3.   -8192
000001t:  Pitch wheel change ::  Channel 3.   -8192
000001t:  Pitch wheel change ::  Channel 3.   -8192
000001t:  Pitch wheel change ::  Channel 3.   -8192
000001t:  Pitch wheel change ::  Channel 3.   -8192
000001t:  Pitch wheel change ::  Channel 3.   -8192
000001t:  Pitch wheel change ::  Channel 3.   -8192
000001t:  Pitch wheel change ::  Channel 3.   -8192
000001t:  Pitch wheel change ::  Channel 3.   -8192
000001t:  Pitch wheel change ::  Channel 3.   -8192
000001t:  Pitch wheel change ::  Channel 3.   -8192
000001t:  Pitch wheel change ::  Channel 3.   -8192
000001t:  Pitch wheel change ::  Channel 3.   -8192
000001t:  Pitch wheel change ::  Channel 3.   -8192
000001t:  Pitch wheel change ::  Channel 3.   -8192
000001t:  Pitch wheel change ::  Channel 3.   -8192
000240t:  Note on ::  Channel 3.  Note 72.  Velocity 0
000000t:  Note on ::  Channel 3.  Note 77.  Velocity 0
000000t:  Note on ::  Channel 3.  Note 72.  Velocity 110
000000t:  Note on ::  Channel 3.  Note 76.  Velocity 110
000192t:  Note on ::  Channel 3.  Note 72.  Velocity 0
000000t:  Note on ::  Channel 3.  Note 76.  Velocity 0
000000t:  Note on ::  Channel 3.  Note 72.  Velocity 110
000000t:  Note on ::  Channel 3.  Note 74.  Velocity 110
000288t:  Note on ::  Channel 3.  Note 72.  Velocity 0
000000t:  Note on ::  Channel 3.  Note 72.  Velocity 110
000000t:  Note on ::  Channel 3.  Note 74.  Velocity 110
000192t:  Note on ::  Channel 3.  Note 72.  Velocity 0
000000t:  Note on ::  Channel 3.  Note 74.  Velocity 110
000048t:  Note on ::  Channel 3.  Note 74.  Velocity 0
000048t:  Note on ::  Channel 3.  Note 74.  Velocity 0
000000t:  Note on ::  Channel 3.  Note 62.  Velocity 110
000000t:  Note on ::  Channel 3.  Note 72.  Velocity 110
000048t:  Note on ::  Channel 3.  Note 74.  Velocity 0
000112t:  Note on ::  Channel 3.  Note 62.  Velocity 0
000000t:  Note on ::  Channel 3.  Note 72.  Velocity 0
000032t:  Note on ::  Channel 3.  Note 67.  Velocity 110
000000t:  Note on ::  Channel 3.  Note 71.  Velocity 110
000478t:  Note on ::  Channel 3.  Note 67.  Velocity 0
000000t:  Note on ::  Channel 3.  Note 71.  Velocity 0
000002t:  Note on ::  Channel 3.  Note 67.  Velocity 110
000000t:  Note on ::  Channel 3.  Note 69.  Velocity 110
000094t:  Note on ::  Channel 3.  Note 67.  Velocity 0
000000t:  Note on ::  Channel 3.  Note 69.  Velocity 0
000002t:  Note on ::  Channel 3.  Note 67.  Velocity 110
000000t:  Note on ::  Channel 3.  Note 71.  Velocity 110
000094t:  Note on ::  Channel 3.  Note 67.  Velocity 0
000000t:  Note on ::  Channel 3.  Note 71.  Velocity 0
000002t:  Note on ::  Channel 3.  Note 69.  Velocity 110
000000t:  Note on ::  Channel 3.  Note 72.  Velocity 110
000094t:  Note on ::  Channel 3.  Note 69.  Velocity 0
000000t:  Note on ::  Channel 3.  Note 72.  Velocity 0
000002t:  Note on ::  Channel 3.  Note 64.  Velocity 110
000000t:  Note on ::  Channel 3.  Note 68.  Velocity 110
000000t:  Note on ::  Channel 3.  Note 74.  Velocity 110
000720t:  Note on ::  Channel 3.  Note 64.  Velocity 0
000000t:  Note on ::  Channel 3.  Note 68.  Velocity 0
000000t:  Note on ::  Channel 3.  Note 74.  Velocity 0
003120t:  Note on ::  Channel 3.  Note 72.  Velocity 110
000000t:  Note on ::  Channel 3.  Note 76.  Velocity 110
000256t:  Note on ::  Channel 3.  Note 72.  Velocity 0
000000t:  Note on ::  Channel 3.  Note 76.  Velocity 0
000032t:  Note on ::  Channel 3.  Note 72.  Velocity 110
000000t:  Note on ::  Channel 3.  Note 76.  Velocity 110
000160t:  Note on ::  Channel 3.  Note 72.  Velocity 0
000000t:  Note on ::  Channel 3.  Note 76.  Velocity 0
000032t:  Note on ::  Channel 3.  Note 71.  Velocity 110
000000t:  Note on ::  Channel 3.  Note 75.  Velocity 110
000094t:  Note on ::  Channel 3.  Note 71.  Velocity 0
000000t:  Note on ::  Channel 3.  Note 75.  Velocity 0
000002t:  Note on ::  Channel 3.  Note 72.  Velocity 110
000000t:  Note on ::  Channel 3.  Note 76.  Velocity 110
000160t:  Note on ::  Channel 3.  Note 72.  Velocity 0
000000t:  Note on ::  Channel 3.  Note 76.  Velocity 0
000032t:  Note on ::  Channel 3.  Note 74.  Velocity 110
000000t:  Note on ::  Channel 3.  Note 78.  Velocity 110
000256t:  Note on ::  Channel 3.  Note 74.  Velocity 0
000000t:  Note on ::  Channel 3.  Note 78.  Velocity 0
000032t:  Note on ::  Channel 3.  Note 74.  Velocity 110
000000t:  Note on ::  Channel 3.  Note 78.  Velocity 110
000160t:  Note on ::  Channel 3.  Note 74.  Velocity 0
000000t:  Note on ::  Channel 3.  Note 78.  Velocity 0
000032t:  Note on ::  Channel 3.  Note 72.  Velocity 110
000000t:  Note on ::  Channel 3.  Note 76.  Velocity 110
000094t:  Note on ::  Channel 3.  Note 72.  Velocity 0
000000t:  Note on ::  Channel 3.  Note 76.  Velocity 0
000002t:  Note on ::  Channel 3.  Note 74.  Velocity 110
000000t:  Note on ::  Channel 3.  Note 78.  Velocity 110
000160t:  Note on ::  Channel 3.  Note 74.  Velocity 0
000000t:  Note on ::  Channel 3.  Note 78.  Velocity 0
000032t:  Note on ::  Channel 3.  Note 74.  Velocity 110
000000t:  Note on ::  Channel 3.  Note 79.  Velocity 110
003024t:  Note on ::  Channel 3.  Note 74.  Velocity 0
000000t:  Note on ::  Channel 3.  Note 79.  Velocity 0
024432t:  Pitch wheel change ::  Channel 3.   -8192
000000t:  Note on ::  Channel 3.  Note 72.  Velocity 110
000000t:  Note on ::  Channel 3.  Note 77.  Velocity 110
000001t:  Pitch wheel change ::  Channel 3.   -8192
000001t:  Pitch wheel change ::  Channel 3.   -8192
000001t:  Pitch wheel change ::  Channel 3.   -8192
000001t:  Pitch wheel change ::  Channel 3.   -8192
000001t:  Pitch wheel change ::  Channel 3.   -8192
000001t:  Pitch wheel change ::  Channel 3.   -8192
000001t:  Pitch wheel change ::  Channel 3.   -8192
000001t:  Pitch wheel change ::  Channel 3.   -8192
000001t:  Pitch wheel change ::  Channel 3.   -8192
000001t:  Pitch wheel change ::  Channel 3.   -8192
000001t:  Pitch wheel change ::  Channel 3.   -8192
000001t:  Pitch wheel change ::  Channel 3.   -8192
000001t:  Pitch wheel change ::  Channel 3.   -8192
000001t:  Pitch wheel change ::  Channel 3.   -8192
000001t:  Pitch wheel change ::  Channel 3.   -8192
000001t:  Pitch wheel change ::  Channel 3.   -8192
000001t:  Pitch wheel change ::  Channel 3.   -8192
000001t:  Pitch wheel change ::  Channel 3.   -8192
000001t:  Pitch wheel change ::  Channel 3.   -8192
000001t:  Pitch wheel change ::  Channel 3.   -8192
000001t:  Pitch wheel change ::  Channel 3.   -8192
000001t:  Pitch wheel change ::  Channel 3.   -8192
000001t:  Pitch wheel change ::  Channel 3.   -8192
000001t:  Pitch wheel change ::  Channel 3.   -8192
000001t:  Pitch wheel change ::  Channel 3.   -8192
000001t:  Pitch wheel change ::  Channel 3.   -8192
000001t:  Pitch wheel change ::  Channel 3.   -8192
000001t:  Pitch wheel change ::  Channel 3.   -8192
000001t:  Pitch wheel change ::  Channel 3.   -8192
000001t:  Pitch wheel change ::  Channel 3.   -8192
000001t:  Pitch wheel change ::  Channel 3.   -8192
000001t:  Pitch wheel change ::  Channel 3.   -8192
000001t:  Pitch wheel change ::  Channel 3.   -8192
000001t:  Pitch wheel change ::  Channel 3.   -8192
000001t:  Pitch wheel change ::  Channel 3.   -8192
000001t:  Pitch wheel change ::  Channel 3.   -8192
000001t:  Pitch wheel change ::  Channel 3.   -8192
000001t:  Pitch wheel change ::  Channel 3.   -8192
000001t:  Pitch wheel change ::  Channel 3.   -8192
000001t:  Pitch wheel change ::  Channel 3.   -8192
000001t:  Pitch wheel change ::  Channel 3.   -8192
000001t:  Pitch wheel change ::  Channel 3.   -8192
000001t:  Pitch wheel change ::  Channel 3.   -8192
000001t:  Pitch wheel change ::  Channel 3.   -8192
000001t:  Pitch wheel change ::  Channel 3.   -8192
000001t:  Pitch wheel change ::  Channel 3.   -8192
000001t:  Pitch wheel change ::  Channel 3.   -8192
000001t:  Pitch wheel change ::  Channel 3.   -8192
000240t:  Note on ::  Channel 3.  Note 72.  Velocity 0
000000t:  Note on ::  Channel 3.  Note 77.  Velocity 0
000000t:  Pitch wheel change ::  Channel 3.   -8192
000000t:  Note on ::  Channel 3.  Note 72.  Velocity 110
000000t:  Note on ::  Channel 3.  Note 77.  Velocity 110
000001t:  Pitch wheel change ::  Channel 3.   -8192
000001t:  Pitch wheel change ::  Channel 3.   -8192
000001t:  Pitch wheel change ::  Channel 3.   -8192
000001t:  Pitch wheel change ::  Channel 3.   -8192
000001t:  Pitch wheel change ::  Channel 3.   -8192
000001t:  Pitch wheel change ::  Channel 3.   -8192
000001t:  Pitch wheel change ::  Channel 3.   -8192
000001t:  Pitch wheel change ::  Channel 3.   -8192
000001t:  Pitch wheel change ::  Channel 3.   -8192
000001t:  Pitch wheel change ::  Channel 3.   -8192
000001t:  Pitch wheel change ::  Channel 3.   -8192
000001t:  Pitch wheel change ::  Channel 3.   -8192
000001t:  Pitch wheel change ::  Channel 3.   -8192
000001t:  Pitch wheel change ::  Channel 3.   -8192
000001t:  Pitch wheel change ::  Channel 3.   -8192
000001t:  Pitch wheel change ::  Channel 3.   -8192
000001t:  Pitch wheel change ::  Channel 3.   -8192
000001t:  Pitch wheel change ::  Channel 3.   -8192
000001t:  Pitch wheel change ::  Channel 3.   -8192
000001t:  Pitch wheel change ::  Channel 3.   -8192
000001t:  Pitch wheel change ::  Channel 3.   -8192
000001t:  Pitch wheel change ::  Channel 3.   -8192
000001t:  Pitch wheel change ::  Channel 3.   -8192
000001t:  Pitch wheel change ::  Channel 3.   -8192
000001t:  Pitch wheel change ::  Channel 3.   -8192
000001t:  Pitch wheel change ::  Channel 3.   -8192
000001t:  Pitch wheel change ::  Channel 3.   -8192
000001t:  Pitch wheel change ::  Channel 3.   -8192
000001t:  Pitch wheel change ::  Channel 3.   -8192
000001t:  Pitch wheel change ::  Channel 3.   -8192
000001t:  Pitch wheel change ::  Channel 3.   -8192
000001t:  Pitch wheel change ::  Channel 3.   -8192
000001t:  Pitch wheel change ::  Channel 3.   -8192
000001t:  Pitch wheel change ::  Channel 3.   -8192
000001t:  Pitch wheel change ::  Channel 3.   -8192
000001t:  Pitch wheel change ::  Channel 3.   -8192
000001t:  Pitch wheel change ::  Channel 3.   -8192
000001t:  Pitch wheel change ::  Channel 3.   -8192
000001t:  Pitch wheel change ::  Channel 3.   -8192
000001t:  Pitch wheel change ::  Channel 3.   -8192
000001t:  Pitch wheel change ::  Channel 3.   -8192
000001t:  Pitch wheel change ::  Channel 3.   -8192
000001t:  Pitch wheel change ::  Channel 3.   -8192
000001t:  Pitch wheel change ::  Channel 3.   -8192
000001t:  Pitch wheel change ::  Channel 3.   -8192
000001t:  Pitch wheel change ::  Channel 3.   -8192
000001t:  Pitch wheel change ::  Channel 3.   -8192
000001t:  Pitch wheel change ::  Channel 3.   -8192
000240t:  Note on ::  Channel 3.  Note 72.  Velocity 0
000000t:  Note on ::  Channel 3.  Note 77.  Velocity 0
000000t:  Note on ::  Channel 3.  Note 72.  Velocity 110
000000t:  Note on ::  Channel 3.  Note 76.  Velocity 110
000192t:  Note on ::  Channel 3.  Note 72.  Velocity 0
000000t:  Note on ::  Channel 3.  Note 76.  Velocity 0
000000t:  Note on ::  Channel 3.  Note 72.  Velocity 110
000000t:  Note on ::  Channel 3.  Note 74.  Velocity 110
000288t:  Note on ::  Channel 3.  Note 72.  Velocity 0
000000t:  Note on ::  Channel 3.  Note 72.  Velocity 110
000000t:  Note on ::  Channel 3.  Note 74.  Velocity 110
000192t:  Note on ::  Channel 3.  Note 72.  Velocity 0
000000t:  Note on ::  Channel 3.  Note 74.  Velocity 110
000048t:  Note on ::  Channel 3.  Note 74.  Velocity 0
000048t:  Note on ::  Channel 3.  Note 74.  Velocity 0
000000t:  Note on ::  Channel 3.  Note 62.  Velocity 110
000000t:  Note on ::  Channel 3.  Note 72.  Velocity 110
000048t:  Note on ::  Channel 3.  Note 74.  Velocity 0
000112t:  Note on ::  Channel 3.  Note 62.  Velocity 0
000000t:  Note on ::  Channel 3.  Note 72.  Velocity 0
000032t:  Note on ::  Channel 3.  Note 67.  Velocity 110
000000t:  Note on ::  Channel 3.  Note 71.  Velocity 110
000478t:  Note on ::  Channel 3.  Note 67.  Velocity 0
000000t:  Note on ::  Channel 3.  Note 71.  Velocity 0
000002t:  Note on ::  Channel 3.  Note 67.  Velocity 110
000000t:  Note on ::  Channel 3.  Note 69.  Velocity 110
000094t:  Note on ::  Channel 3.  Note 67.  Velocity 0
000000t:  Note on ::  Channel 3.  Note 69.  Velocity 0
000002t:  Note on ::  Channel 3.  Note 67.  Velocity 110
000000t:  Note on ::  Channel 3.  Note 71.  Velocity 110
000094t:  Note on ::  Channel 3.  Note 67.  Velocity 0
000000t:  Note on ::  Channel 3.  Note 71.  Velocity 0
000002t:  Note on ::  Channel 3.  Note 69.  Velocity 110
000000t:  Note on ::  Channel 3.  Note 72.  Velocity 110
000094t:  Note on ::  Channel 3.  Note 69.  Velocity 0
000000t:  Note on ::  Channel 3.  Note 72.  Velocity 0
000002t:  Note on ::  Channel 3.  Note 64.  Velocity 110
000000t:  Note on ::  Channel 3.  Note 68.  Velocity 110
000000t:  Note on ::  Channel 3.  Note 74.  Velocity 110
000720t:  Note on ::  Channel 3.  Note 64.  Velocity 0
000000t:  Note on ::  Channel 3.  Note 68.  Velocity 0
000000t:  Note on ::  Channel 3.  Note 74.  Velocity 0
003120t:  Note on ::  Channel 3.  Note 72.  Velocity 110
000000t:  Note on ::  Channel 3.  Note 76.  Velocity 110
000256t:  Note on ::  Channel 3.  Note 72.  Velocity 0
000000t:  Note on ::  Channel 3.  Note 76.  Velocity 0
000032t:  Note on ::  Channel 3.  Note 72.  Velocity 110
000000t:  Note on ::  Channel 3.  Note 76.  Velocity 110
000160t:  Note on ::  Channel 3.  Note 72.  Velocity 0
000000t:  Note on ::  Channel 3.  Note 76.  Velocity 0
000032t:  Note on ::  Channel 3.  Note 71.  Velocity 110
000000t:  Note on ::  Channel 3.  Note 75.  Velocity 110
000094t:  Note on ::  Channel 3.  Note 71.  Velocity 0
000000t:  Note on ::  Channel 3.  Note 75.  Velocity 0
000002t:  Note on ::  Channel 3.  Note 72.  Velocity 110
000000t:  Note on ::  Channel 3.  Note 76.  Velocity 110
000160t:  Note on ::  Channel 3.  Note 72.  Velocity 0
000000t:  Note on ::  Channel 3.  Note 76.  Velocity 0
000032t:  Note on ::  Channel 3.  Note 74.  Velocity 110
000000t:  Note on ::  Channel 3.  Note 78.  Velocity 110
000256t:  Note on ::  Channel 3.  Note 74.  Velocity 0
000000t:  Note on ::  Channel 3.  Note 78.  Velocity 0
000032t:  Note on ::  Channel 3.  Note 74.  Velocity 110
000000t:  Note on ::  Channel 3.  Note 78.  Velocity 110
000160t:  Note on ::  Channel 3.  Note 74.  Velocity 0
000000t:  Note on ::  Channel 3.  Note 78.  Velocity 0
000032t:  Note on ::  Channel 3.  Note 72.  Velocity 110
000000t:  Note on ::  Channel 3.  Note 76.  Velocity 110
000094t:  Note on ::  Channel 3.  Note 72.  Velocity 0
000000t:  Note on ::  Channel 3.  Note 76.  Velocity 0
000002t:  Note on ::  Channel 3.  Note 74.  Velocity 110
000000t:  Note on ::  Channel 3.  Note 78.  Velocity 110
000160t:  Note on ::  Channel 3.  Note 74.  Velocity 0
000000t:  Note on ::  Channel 3.  Note 78.  Velocity 0
000032t:  Note on ::  Channel 3.  Note 74.  Velocity 110
000000t:  Note on ::  Channel 3.  Note 79.  Velocity 110
003024t:  Note on ::  Channel 3.  Note 74.  Velocity 0
000000t:  Note on ::  Channel 3.  Note 79.  Velocity 0
012144t:  Control change ::  Channel 3.  Controller 7.  Value: 127
000024t:  Control change ::  Channel 3.  Controller 7.  Value: 126
000024t:  Control change ::  Channel 3.  Controller 7.  Value: 125
000024t:  Control change ::  Channel 3.  Controller 7.  Value: 124
000024t:  Control change ::  Channel 3.  Controller 7.  Value: 123
000024t:  Control change ::  Channel 3.  Controller 7.  Value: 122
000025t:  Control change ::  Channel 3.  Controller 7.  Value: 121
000024t:  Control change ::  Channel 3.  Controller 7.  Value: 120
000024t:  Control change ::  Channel 3.  Controller 7.  Value: 119
000024t:  Control change ::  Channel 3.  Controller 7.  Value: 118
000024t:  Control change ::  Channel 3.  Controller 7.  Value: 117
000025t:  Control change ::  Channel 3.  Controller 7.  Value: 116
000024t:  Control change ::  Channel 3.  Controller 7.  Value: 115
000024t:  Control change ::  Channel 3.  Controller 7.  Value: 114
000024t:  Control change ::  Channel 3.  Controller 7.  Value: 113
000024t:  Control change ::  Channel 3.  Controller 7.  Value: 112
000025t:  Control change ::  Channel 3.  Controller 7.  Value: 111
000024t:  Control change ::  Channel 3.  Controller 7.  Value: 110
000024t:  Control change ::  Channel 3.  Controller 7.  Value: 109
000024t:  Control change ::  Channel 3.  Controller 7.  Value: 108
000024t:  Control change ::  Channel 3.  Controller 7.  Value: 107
000024t:  Control change ::  Channel 3.  Controller 7.  Value: 106
000025t:  Control change ::  Channel 3.  Controller 7.  Value: 105
000024t:  Control change ::  Channel 3.  Controller 7.  Value: 104
000024t:  Control change ::  Channel 3.  Controller 7.  Value: 103
000024t:  Control change ::  Channel 3.  Controller 7.  Value: 102
000024t:  Control change ::  Channel 3.  Controller 7.  Value: 101
000025t:  Control change ::  Channel 3.  Controller 7.  Value: 100
000024t:  Control change ::  Channel 3.  Controller 7.  Value: 99
000024t:  Control change ::  Channel 3.  Controller 7.  Value: 98
000024t:  Control change ::  Channel 3.  Controller 7.  Value: 97
000024t:  Control change ::  Channel 3.  Controller 7.  Value: 96
000025t:  Control change ::  Channel 3.  Controller 7.  Value: 95
000024t:  Control change ::  Channel 3.  Controller 7.  Value: 94
000024t:  Control change ::  Channel 3.  Controller 7.  Value: 93
000024t:  Control change ::  Channel 3.  Controller 7.  Value: 92
000024t:  Control change ::  Channel 3.  Controller 7.  Value: 91
000024t:  Control change ::  Channel 3.  Controller 7.  Value: 90
000025t:  Control change ::  Channel 3.  Controller 7.  Value: 89
000024t:  Control change ::  Channel 3.  Controller 7.  Value: 88
000024t:  Control change ::  Channel 3.  Controller 7.  Value: 87
000024t:  Control change ::  Channel 3.  Controller 7.  Value: 86
000024t:  Control change ::  Channel 3.  Controller 7.  Value: 85
000025t:  Control change ::  Channel 3.  Controller 7.  Value: 84
000024t:  Control change ::  Channel 3.  Controller 7.  Value: 83
000024t:  Control change ::  Channel 3.  Controller 7.  Value: 82
000024t:  Control change ::  Channel 3.  Controller 7.  Value: 81
000024t:  Control change ::  Channel 3.  Controller 7.  Value: 80
000025t:  Control change ::  Channel 3.  Controller 7.  Value: 79
000024t:  Control change ::  Channel 3.  Controller 7.  Value: 78
000024t:  Control change ::  Channel 3.  Controller 7.  Value: 77
000024t:  Control change ::  Channel 3.  Controller 7.  Value: 76
000024t:  Control change ::  Channel 3.  Controller 7.  Value: 75
000025t:  Control change ::  Channel 3.  Controller 7.  Value: 74
000024t:  Control change ::  Channel 3.  Controller 7.  Value: 73
000024t:  Control change ::  Channel 3.  Controller 7.  Value: 72
000024t:  Control change ::  Channel 3.  Controller 7.  Value: 71
000024t:  Control change ::  Channel 3.  Controller 7.  Value: 70
000024t:  Control change ::  Channel 3.  Controller 7.  Value: 69
000025t:  Control change ::  Channel 3.  Controller 7.  Value: 68
000024t:  Control change ::  Channel 3.  Controller 7.  Value: 67
000024t:  Control change ::  Channel 3.  Controller 7.  Value: 66
000024t:  Control change ::  Channel 3.  Controller 7.  Value: 65
000024t:  Control change ::  Channel 3.  Controller 7.  Value: 64
000025t:  Control change ::  Channel 3.  Controller 7.  Value: 63
000024t:  Control change ::  Channel 3.  Controller 7.  Value: 62
000024t:  Control change ::  Channel 3.  Controller 7.  Value: 61
000024t:  Control change ::  Channel 3.  Controller 7.  Value: 60
000024t:  Control change ::  Channel 3.  Controller 7.  Value: 59
000025t:  Control change ::  Channel 3.  Controller 7.  Value: 58
000024t:  Control change ::  Channel 3.  Controller 7.  Value: 57
000024t:  Control change ::  Channel 3.  Controller 7.  Value: 56
000024t:  Control change ::  Channel 3.  Controller 7.  Value: 55
000024t:  Control change ::  Channel 3.  Controller 7.  Value: 54
000024t:  Control change ::  Channel 3.  Controller 7.  Value: 53
000025t:  Control change ::  Channel 3.  Controller 7.  Value: 52
000024t:  Control change ::  Channel 3.  Controller 7.  Value: 51
000024t:  Control change ::  Channel 3.  Controller 7.  Value: 50
000024t:  Control change ::  Channel 3.  Controller 7.  Value: 49
000024t:  Control change ::  Channel 3.  Controller 7.  Value: 48
000025t:  Control change ::  Channel 3.  Controller 7.  Value: 47
000024t:  Control change ::  Channel 3.  Controller 7.  Value: 46
000024t:  Control change ::  Channel 3.  Controller 7.  Value: 45
000024t:  Control change ::  Channel 3.  Controller 7.  Value: 44
000024t:  Control change ::  Channel 3.  Controller 7.  Value: 43
000025t:  Control change ::  Channel 3.  Controller 7.  Value: 42
000024t:  Control change ::  Channel 3.  Controller 7.  Value: 41
000024t:  Control change ::  Channel 3.  Controller 7.  Value: 40
000024t:  Control change ::  Channel 3.  Controller 7.  Value: 39
000024t:  Control change ::  Channel 3.  Controller 7.  Value: 38
000025t:  Control change ::  Channel 3.  Controller 7.  Value: 37
000024t:  Control change ::  Channel 3.  Controller 7.  Value: 36
000024t:  Control change ::  Channel 3.  Controller 7.  Value: 35
000024t:  Control change ::  Channel 3.  Controller 7.  Value: 34
000024t:  Control change ::  Channel 3.  Controller 7.  Value: 33
000024t:  Control change ::  Channel 3.  Controller 7.  Value: 32
000025t:  Control change ::  Channel 3.  Controller 7.  Value: 31
000024t:  Control change ::  Channel 3.  Controller 7.  Value: 30
000024t:  Control change ::  Channel 3.  Controller 7.  Value: 29
000024t:  Control change ::  Channel 3.  Controller 7.  Value: 28
000024t:  Control change ::  Channel 3.  Controller 7.  Value: 27
000025t:  Control change ::  Channel 3.  Controller 7.  Value: 26
000024t:  Control change ::  Channel 3.  Controller 7.  Value: 25
000024t:  Control change ::  Channel 3.  Controller 7.  Value: 24
000024t:  Control change ::  Channel 3.  Controller 7.  Value: 23
000024t:  Control change ::  Channel 3.  Controller 7.  Value: 22
000025t:  Control change ::  Channel 3.  Controller 7.  Value: 21
000024t:  Control change ::  Channel 3.  Controller 7.  Value: 20
000024t:  Control change ::  Channel 3.  Controller 7.  Value: 19
000024t:  Control change ::  Channel 3.  Controller 7.  Value: 18
000024t:  Control change ::  Channel 3.  Controller 7.  Value: 17
000024t:  Control change ::  Channel 3.  Controller 7.  Value: 16
000025t:  Control change ::  Channel 3.  Controller 7.  Value: 15
000024t:  Control change ::  Channel 3.  Controller 7.  Value: 14
000024t:  Control change ::  Channel 3.  Controller 7.  Value: 13
000024t:  Control change ::  Channel 3.  Controller 7.  Value: 12
000024t:  Control change ::  Channel 3.  Controller 7.  Value: 11
000025t:  Control change ::  Channel 3.  Controller 7.  Value: 10
000024t:  Control change ::  Channel 3.  Controller 7.  Value: 9
000024t:  Control change ::  Channel 3.  Controller 7.  Value: 8
000024t:  Control change ::  Channel 3.  Controller 7.  Value: 7
000024t:  Control change ::  Channel 3.  Controller 7.  Value: 6
000025t:  Control change ::  Channel 3.  Controller 7.  Value: 5
000024t:  Control change ::  Channel 3.  Controller 7.  Value: 4
000024t:  Control change ::  Channel 3.  Controller 7.  Value: 3
000024t:  Control change ::  Channel 3.  Controller 7.  Value: 2
000024t:  Control change ::  Channel 3.  Controller 7.  Value: 1
000025t:  Control change ::  Channel 3.  Controller 7.  Value: 0
000000t:  Meta-event type $2f (End-track event) of length 0
Sigma t = 87264

Track chunk of 1153 bytes
000000t:  Meta-event type $21 (?) of length 1
	  _
000000t:  Meta-event type $03 (Track name) of length 8
	  Staff-11
000000t:  Program (patch) change ::  Channel 4.  Patch 90 (Pad 3 (polysynth))
000000t:  Control change ::  Channel 4.  Controller 7.  Value: 127
000000t:  Control change ::  Channel 4.  Controller 10.  Value: 64
023136t:  Control change ::  Channel 4.  Controller 7.  Value: 96
000000t:  Note on ::  Channel 4.  Note 36.  Velocity 110
000000t:  Note on ::  Channel 4.  Note 41.  Velocity 110
000000t:  Note on ::  Channel 4.  Note 48.  Velocity 110
000000t:  Note on ::  Channel 4.  Note 53.  Velocity 110
001536t:  Note on ::  Channel 4.  Note 36.  Velocity 0
000000t:  Note on ::  Channel 4.  Note 41.  Velocity 0
000000t:  Note on ::  Channel 4.  Note 48.  Velocity 0
000000t:  Note on ::  Channel 4.  Note 53.  Velocity 0
000000t:  Note on ::  Channel 4.  Note 38.  Velocity 110
000000t:  Note on ::  Channel 4.  Note 43.  Velocity 110
000000t:  Note on ::  Channel 4.  Note 50.  Velocity 110
000000t:  Note on ::  Channel 4.  Note 55.  Velocity 110
001488t:  Note on ::  Channel 4.  Note 38.  Velocity 0
000000t:  Note on ::  Channel 4.  Note 43.  Velocity 0
000000t:  Note on ::  Channel 4.  Note 50.  Velocity 0
000000t:  Note on ::  Channel 4.  Note 55.  Velocity 0
003120t:  Note on ::  Channel 4.  Note 40.  Velocity 110
000000t:  Note on ::  Channel 4.  Note 45.  Velocity 110
000000t:  Note on ::  Channel 4.  Note 52.  Velocity 110
000000t:  Note on ::  Channel 4.  Note 57.  Velocity 110
000720t:  Note on ::  Channel 4.  Note 40.  Velocity 0
000000t:  Note on ::  Channel 4.  Note 45.  Velocity 0
000000t:  Note on ::  Channel 4.  Note 52.  Velocity 0
000000t:  Note on ::  Channel 4.  Note 57.  Velocity 0
000048t:  Note on ::  Channel 4.  Note 35.  Velocity 110
000000t:  Note on ::  Channel 4.  Note 40.  Velocity 110
000000t:  Note on ::  Channel 4.  Note 45.  Velocity 110
000000t:  Note on ::  Channel 4.  Note 50.  Velocity 110
000720t:  Note on ::  Channel 4.  Note 35.  Velocity 0
000000t:  Note on ::  Channel 4.  Note 40.  Velocity 0
000000t:  Note on ::  Channel 4.  Note 45.  Velocity 0
000000t:  Note on ::  Channel 4.  Note 50.  Velocity 0
000048t:  Note on ::  Channel 4.  Note 38.  Velocity 110
000000t:  Note on ::  Channel 4.  Note 43.  Velocity 110
000000t:  Note on ::  Channel 4.  Note 50.  Velocity 110
000000t:  Note on ::  Channel 4.  Note 55.  Velocity 110
000720t:  Note on ::  Channel 4.  Note 38.  Velocity 0
000000t:  Note on ::  Channel 4.  Note 43.  Velocity 0
000000t:  Note on ::  Channel 4.  Note 50.  Velocity 0
000000t:  Note on ::  Channel 4.  Note 55.  Velocity 0
000048t:  Note on ::  Channel 4.  Note 31.  Velocity 110
000000t:  Note on ::  Channel 4.  Note 36.  Velocity 110
000000t:  Note on ::  Channel 4.  Note 43.  Velocity 110
000000t:  Note on ::  Channel 4.  Note 48.  Velocity 110
000720t:  Note on ::  Channel 4.  Note 31.  Velocity 0
000000t:  Note on ::  Channel 4.  Note 36.  Velocity 0
000000t:  Note on ::  Channel 4.  Note 43.  Velocity 0
000000t:  Note on ::  Channel 4.  Note 48.  Velocity 0
000048t:  Note on ::  Channel 4.  Note 40.  Velocity 110
000000t:  Note on ::  Channel 4.  Note 45.  Velocity 110
000000t:  Note on ::  Channel 4.  Note 52.  Velocity 110
000000t:  Note on ::  Channel 4.  Note 57.  Velocity 110
000720t:  Note on ::  Channel 4.  Note 40.  Velocity 0
000000t:  Note on ::  Channel 4.  Note 45.  Velocity 0
000000t:  Note on ::  Channel 4.  Note 52.  Velocity 0
000000t:  Note on ::  Channel 4.  Note 57.  Velocity 0
000048t:  Note on ::  Channel 4.  Note 35.  Velocity 110
000000t:  Note on ::  Channel 4.  Note 40.  Velocity 110
000000t:  Note on ::  Channel 4.  Note 45.  Velocity 110
000000t:  Note on ::  Channel 4.  Note 50.  Velocity 110
000720t:  Note on ::  Channel 4.  Note 35.  Velocity 0
000000t:  Note on ::  Channel 4.  Note 40.  Velocity 0
000000t:  Note on ::  Channel 4.  Note 45.  Velocity 0
000000t:  Note on ::  Channel 4.  Note 50.  Velocity 0
000048t:  Note on ::  Channel 4.  Note 38.  Velocity 110
000000t:  Note on ::  Channel 4.  Note 43.  Velocity 110
000000t:  Note on ::  Channel 4.  Note 50.  Velocity 110
000000t:  Note on ::  Channel 4.  Note 55.  Velocity 110
003024t:  Note on ::  Channel 4.  Note 38.  Velocity 0
000000t:  Note on ::  Channel 4.  Note 43.  Velocity 0
000000t:  Note on ::  Channel 4.  Note 50.  Velocity 0
000000t:  Note on ::  Channel 4.  Note 55.  Velocity 0
021360t:  Control change ::  Channel 4.  Controller 7.  Value: 96
000000t:  Note on ::  Channel 4.  Note 36.  Velocity 110
000000t:  Note on ::  Channel 4.  Note 41.  Velocity 110
000000t:  Note on ::  Channel 4.  Note 48.  Velocity 110
000000t:  Note on ::  Channel 4.  Note 53.  Velocity 110
001536t:  Note on ::  Channel 4.  Note 36.  Velocity 0
000000t:  Note on ::  Channel 4.  Note 41.  Velocity 0
000000t:  Note on ::  Channel 4.  Note 48.  Velocity 0
000000t:  Note on ::  Channel 4.  Note 53.  Velocity 0
000000t:  Note on ::  Channel 4.  Note 38.  Velocity 110
000000t:  Note on ::  Channel 4.  Note 43.  Velocity 110
000000t:  Note on ::  Channel 4.  Note 50.  Velocity 110
000000t:  Note on ::  Channel 4.  Note 55.  Velocity 110
001488t:  Note on ::  Channel 4.  Note 38.  Velocity 0
000000t:  Note on ::  Channel 4.  Note 43.  Velocity 0
000000t:  Note on ::  Channel 4.  Note 50.  Velocity 0
000000t:  Note on ::  Channel 4.  Note 55.  Velocity 0
003120t:  Note on ::  Channel 4.  Note 40.  Velocity 110
000000t:  Note on ::  Channel 4.  Note 45.  Velocity 110
000000t:  Note on ::  Channel 4.  Note 52.  Velocity 110
000000t:  Note on ::  Channel 4.  Note 57.  Velocity 110
000720t:  Note on ::  Channel 4.  Note 40.  Velocity 0
000000t:  Note on ::  Channel 4.  Note 45.  Velocity 0
000000t:  Note on ::  Channel 4.  Note 52.  Velocity 0
000000t:  Note on ::  Channel 4.  Note 57.  Velocity 0
000048t:  Note on ::  Channel 4.  Note 35.  Velocity 110
000000t:  Note on ::  Channel 4.  Note 40.  Velocity 110
000000t:  Note on ::  Channel 4.  Note 45.  Velocity 110
000000t:  Note on ::  Channel 4.  Note 50.  Velocity 110
000720t:  Note on ::  Channel 4.  Note 35.  Velocity 0
000000t:  Note on ::  Channel 4.  Note 40.  Velocity 0
000000t:  Note on ::  Channel 4.  Note 45.  Velocity 0
000000t:  Note on ::  Channel 4.  Note 50.  Velocity 0
000048t:  Note on ::  Channel 4.  Note 38.  Velocity 110
000000t:  Note on ::  Channel 4.  Note 43.  Velocity 110
000000t:  Note on ::  Channel 4.  Note 50.  Velocity 110
000000t:  Note on ::  Channel 4.  Note 55.  Velocity 110
000720t:  Note on ::  Channel 4.  Note 38.  Velocity 0
000000t:  Note on ::  Channel 4.  Note 43.  Velocity 0
000000t:  Note on ::  Channel 4.  Note 50.  Velocity 0
000000t:  Note on ::  Channel 4.  Note 55.  Velocity 0
000048t:  Note on ::  Channel 4.  Note 31.  Velocity 110
000000t:  Note on ::  Channel 4.  Note 36.  Velocity 110
000000t:  Note on ::  Channel 4.  Note 43.  Velocity 110
000000t:  Note on ::  Channel 4.  Note 48.  Velocity 110
000720t:  Note on ::  Channel 4.  Note 31.  Velocity 0
000000t:  Note on ::  Channel 4.  Note 36.  Velocity 0
000000t:  Note on ::  Channel 4.  Note 43.  Velocity 0
000000t:  Note on ::  Channel 4.  Note 48.  Velocity 0
000048t:  Note on ::  Channel 4.  Note 40.  Velocity 110
000000t:  Note on ::  Channel 4.  Note 45.  Velocity 110
000000t:  Note on ::  Channel 4.  Note 52.  Velocity 110
000000t:  Note on ::  Channel 4.  Note 57.  Velocity 110
000720t:  Note on ::  Channel 4.  Note 40.  Velocity 0
000000t:  Note on ::  Channel 4.  Note 45.  Velocity 0
000000t:  Note on ::  Channel 4.  Note 52.  Velocity 0
000000t:  Note on ::  Channel 4.  Note 57.  Velocity 0
000048t:  Note on ::  Channel 4.  Note 35.  Velocity 110
000000t:  Note on ::  Channel 4.  Note 40.  Velocity 110
000000t:  Note on ::  Channel 4.  Note 45.  Velocity 110
000000t:  Note on ::  Channel 4.  Note 50.  Velocity 110
000720t:  Note on ::  Channel 4.  Note 35.  Velocity 0
000000t:  Note on ::  Channel 4.  Note 40.  Velocity 0
000000t:  Note on ::  Channel 4.  Note 45.  Velocity 0
000000t:  Note on ::  Channel 4.  Note 50.  Velocity 0
000048t:  Note on ::  Channel 4.  Note 38.  Velocity 110
000000t:  Note on ::  Channel 4.  Note 43.  Velocity 110
000000t:  Note on ::  Channel 4.  Note 50.  Velocity 110
000000t:  Note on ::  Channel 4.  Note 55.  Velocity 110
003024t:  Note on ::  Channel 4.  Note 38.  Velocity 0
000000t:  Note on ::  Channel 4.  Note 43.  Velocity 0
000000t:  Note on ::  Channel 4.  Note 50.  Velocity 0
000000t:  Note on ::  Channel 4.  Note 55.  Velocity 0
012144t:  Control change ::  Channel 4.  Controller 7.  Value: 127
000024t:  Control change ::  Channel 4.  Controller 7.  Value: 126
000024t:  Control change ::  Channel 4.  Controller 7.  Value: 125
000024t:  Control change ::  Channel 4.  Controller 7.  Value: 124
000024t:  Control change ::  Channel 4.  Controller 7.  Value: 123
000024t:  Control change ::  Channel 4.  Controller 7.  Value: 122
000025t:  Control change ::  Channel 4.  Controller 7.  Value: 121
000024t:  Control change ::  Channel 4.  Controller 7.  Value: 120
000024t:  Control change ::  Channel 4.  Controller 7.  Value: 119
000024t:  Control change ::  Channel 4.  Controller 7.  Value: 118
000024t:  Control change ::  Channel 4.  Controller 7.  Value: 117
000025t:  Control change ::  Channel 4.  Controller 7.  Value: 116
000024t:  Control change ::  Channel 4.  Controller 7.  Value: 115
000024t:  Control change ::  Channel 4.  Controller 7.  Value: 114
000024t:  Control change ::  Channel 4.  Controller 7.  Value: 113
000024t:  Control change ::  Channel 4.  Controller 7.  Value: 112
000025t:  Control change ::  Channel 4.  Controller 7.  Value: 111
000024t:  Control change ::  Channel 4.  Controller 7.  Value: 110
000024t:  Control change ::  Channel 4.  Controller 7.  Value: 109
000024t:  Control change ::  Channel 4.  Controller 7.  Value: 108
000024t:  Control change ::  Channel 4.  Controller 7.  Value: 107
000024t:  Control change ::  Channel 4.  Controller 7.  Value: 106
000025t:  Control change ::  Channel 4.  Controller 7.  Value: 105
000024t:  Control change ::  Channel 4.  Controller 7.  Value: 104
000024t:  Control change ::  Channel 4.  Controller 7.  Value: 103
000024t:  Control change ::  Channel 4.  Controller 7.  Value: 102
000024t:  Control change ::  Channel 4.  Controller 7.  Value: 101
000025t:  Control change ::  Channel 4.  Controller 7.  Value: 100
000024t:  Control change ::  Channel 4.  Controller 7.  Value: 99
000024t:  Control change ::  Channel 4.  Controller 7.  Value: 98
000024t:  Control change ::  Channel 4.  Controller 7.  Value: 97
000024t:  Control change ::  Channel 4.  Controller 7.  Value: 96
000025t:  Control change ::  Channel 4.  Controller 7.  Value: 95
000024t:  Control change ::  Channel 4.  Controller 7.  Value: 94
000024t:  Control change ::  Channel 4.  Controller 7.  Value: 93
000024t:  Control change ::  Channel 4.  Controller 7.  Value: 92
000024t:  Control change ::  Channel 4.  Controller 7.  Value: 91
000024t:  Control change ::  Channel 4.  Controller 7.  Value: 90
000025t:  Control change ::  Channel 4.  Controller 7.  Value: 89
000024t:  Control change ::  Channel 4.  Controller 7.  Value: 88
000024t:  Control change ::  Channel 4.  Controller 7.  Value: 87
000024t:  Control change ::  Channel 4.  Controller 7.  Value: 86
000024t:  Control change ::  Channel 4.  Controller 7.  Value: 85
000025t:  Control change ::  Channel 4.  Controller 7.  Value: 84
000024t:  Control change ::  Channel 4.  Controller 7.  Value: 83
000024t:  Control change ::  Channel 4.  Controller 7.  Value: 82
000024t:  Control change ::  Channel 4.  Controller 7.  Value: 81
000024t:  Control change ::  Channel 4.  Controller 7.  Value: 80
000025t:  Control change ::  Channel 4.  Controller 7.  Value: 79
000024t:  Control change ::  Channel 4.  Controller 7.  Value: 78
000024t:  Control change ::  Channel 4.  Controller 7.  Value: 77
000024t:  Control change ::  Channel 4.  Controller 7.  Value: 76
000024t:  Control change ::  Channel 4.  Controller 7.  Value: 75
000025t:  Control change ::  Channel 4.  Controller 7.  Value: 74
000024t:  Control change ::  Channel 4.  Controller 7.  Value: 73
000024t:  Control change ::  Channel 4.  Controller 7.  Value: 72
000024t:  Control change ::  Channel 4.  Controller 7.  Value: 71
000024t:  Control change ::  Channel 4.  Controller 7.  Value: 70
000024t:  Control change ::  Channel 4.  Controller 7.  Value: 69
000025t:  Control change ::  Channel 4.  Controller 7.  Value: 68
000024t:  Control change ::  Channel 4.  Controller 7.  Value: 67
000024t:  Control change ::  Channel 4.  Controller 7.  Value: 66
000024t:  Control change ::  Channel 4.  Controller 7.  Value: 65
000024t:  Control change ::  Channel 4.  Controller 7.  Value: 64
000025t:  Control change ::  Channel 4.  Controller 7.  Value: 63
000024t:  Control change ::  Channel 4.  Controller 7.  Value: 62
000024t:  Control change ::  Channel 4.  Controller 7.  Value: 61
000024t:  Control change ::  Channel 4.  Controller 7.  Value: 60
000024t:  Control change ::  Channel 4.  Controller 7.  Value: 59
000025t:  Control change ::  Channel 4.  Controller 7.  Value: 58
000024t:  Control change ::  Channel 4.  Controller 7.  Value: 57
000024t:  Control change ::  Channel 4.  Controller 7.  Value: 56
000024t:  Control change ::  Channel 4.  Controller 7.  Value: 55
000024t:  Control change ::  Channel 4.  Controller 7.  Value: 54
000024t:  Control change ::  Channel 4.  Controller 7.  Value: 53
000025t:  Control change ::  Channel 4.  Controller 7.  Value: 52
000024t:  Control change ::  Channel 4.  Controller 7.  Value: 51
000024t:  Control change ::  Channel 4.  Controller 7.  Value: 50
000024t:  Control change ::  Channel 4.  Controller 7.  Value: 49
000024t:  Control change ::  Channel 4.  Controller 7.  Value: 48
000025t:  Control change ::  Channel 4.  Controller 7.  Value: 47
000024t:  Control change ::  Channel 4.  Controller 7.  Value: 46
000024t:  Control change ::  Channel 4.  Controller 7.  Value: 45
000024t:  Control change ::  Channel 4.  Controller 7.  Value: 44
000024t:  Control change ::  Channel 4.  Controller 7.  Value: 43
000025t:  Control change ::  Channel 4.  Controller 7.  Value: 42
000024t:  Control change ::  Channel 4.  Controller 7.  Value: 41
000024t:  Control change ::  Channel 4.  Controller 7.  Value: 40
000024t:  Control change ::  Channel 4.  Controller 7.  Value: 39
000024t:  Control change ::  Channel 4.  Controller 7.  Value: 38
000025t:  Control change ::  Channel 4.  Controller 7.  Value: 37
000024t:  Control change ::  Channel 4.  Controller 7.  Value: 36
000024t:  Control change ::  Channel 4.  Controller 7.  Value: 35
000024t:  Control change ::  Channel 4.  Controller 7.  Value: 34
000024t:  Control change ::  Channel 4.  Controller 7.  Value: 33
000024t:  Control change ::  Channel 4.  Controller 7.  Value: 32
000025t:  Control change ::  Channel 4.  Controller 7.  Value: 31
000024t:  Control change ::  Channel 4.  Controller 7.  Value: 30
000024t:  Control change ::  Channel 4.  Controller 7.  Value: 29
000024t:  Control change ::  Channel 4.  Controller 7.  Value: 28
000024t:  Control change ::  Channel 4.  Controller 7.  Value: 27
000025t:  Control change ::  Channel 4.  Controller 7.  Value: 26
000024t:  Control change ::  Channel 4.  Controller 7.  Value: 25
000024t:  Control change ::  Channel 4.  Controller 7.  Value: 24
000024t:  Control change ::  Channel 4.  Controller 7.  Value: 23
000024t:  Control change ::  Channel 4.  Controller 7.  Value: 22
000025t:  Control change ::  Channel 4.  Controller 7.  Value: 21
000024t:  Control change ::  Channel 4.  Controller 7.  Value: 20
000024t:  Control change ::  Channel 4.  Controller 7.  Value: 19
000024t:  Control change ::  Channel 4.  Controller 7.  Value: 18
000024t:  Control change ::  Channel 4.  Controller 7.  Value: 17
000024t:  Control change ::  Channel 4.  Controller 7.  Value: 16
000025t:  Control change ::  Channel 4.  Controller 7.  Value: 15
000024t:  Control change ::  Channel 4.  Controller 7.  Value: 14
000024t:  Control change ::  Channel 4.  Controller 7.  Value: 13
000024t:  Control change ::  Channel 4.  Controller 7.  Value: 12
000024t:  Control change ::  Channel 4.  Controller 7.  Value: 11
000025t:  Control change ::  Channel 4.  Controller 7.  Value: 10
000024t:  Control change ::  Channel 4.  Controller 7.  Value: 9
000024t:  Control change ::  Channel 4.  Controller 7.  Value: 8
000024t:  Control change ::  Channel 4.  Controller 7.  Value: 7
000024t:  Control change ::  Channel 4.  Controller 7.  Value: 6
000025t:  Control change ::  Channel 4.  Controller 7.  Value: 5
000024t:  Control change ::  Channel 4.  Controller 7.  Value: 4
000024t:  Control change ::  Channel 4.  Controller 7.  Value: 3
000024t:  Control change ::  Channel 4.  Controller 7.  Value: 2
000024t:  Control change ::  Channel 4.  Controller 7.  Value: 1
000025t:  Control change ::  Channel 4.  Controller 7.  Value: 0
000000t:  Meta-event type $2f (End-track event) of length 0
Sigma t = 87264

Track chunk of 673 bytes
000000t:  Meta-event type $21 (?) of length 1
	  _
000000t:  Meta-event type $03 (Track name) of length 8
	  Staff-12
000000t:  Program (patch) change ::  Channel 3.  Patch 29 (Overdriven Guitar)
000000t:  Control change ::  Channel 3.  Controller 7.  Value: 127
000000t:  Control change ::  Channel 3.  Controller 10.  Value: 64
033888t:  Note on ::  Channel 3.  Note 77.  Velocity 110
000288t:  Note on ::  Channel 3.  Note 77.  Velocity 0
000000t:  Note on ::  Channel 3.  Note 72.  Velocity 110
000000t:  Note on ::  Channel 3.  Note 76.  Velocity 110
000480t:  Note on ::  Channel 3.  Note 72.  Velocity 0
000000t:  Note on ::  Channel 3.  Note 76.  Velocity 0
000000t:  Note on ::  Channel 3.  Note 69.  Velocity 110
000288t:  Note on ::  Channel 3.  Note 69.  Velocity 0
000000t:  Note on ::  Channel 3.  Note 67.  Velocity 110
000288t:  Note on ::  Channel 3.  Note 67.  Velocity 0
000000t:  Note on ::  Channel 3.  Note 66.  Velocity 110
000192t:  Note on ::  Channel 3.  Note 66.  Velocity 0
000000t:  Note on ::  Channel 3.  Note 65.  Velocity 110
001536t:  Note on ::  Channel 3.  Note 65.  Velocity 0
032064t:  Note on ::  Channel 3.  Note 77.  Velocity 110
000288t:  Note on ::  Channel 3.  Note 77.  Velocity 0
000000t:  Note on ::  Channel 3.  Note 72.  Velocity 110
000000t:  Note on ::  Channel 3.  Note 76.  Velocity 110
000480t:  Note on ::  Channel 3.  Note 72.  Velocity 0
000000t:  Note on ::  Channel 3.  Note 76.  Velocity 0
000000t:  Note on ::  Channel 3.  Note 69.  Velocity 110
000288t:  Note on ::  Channel 3.  Note 69.  Velocity 0
000000t:  Note on ::  Channel 3.  Note 67.  Velocity 110
000288t:  Note on ::  Channel 3.  Note 67.  Velocity 0
000000t:  Note on ::  Channel 3.  Note 66.  Velocity 110
000192t:  Note on ::  Channel 3.  Note 66.  Velocity 0
000000t:  Note on ::  Channel 3.  Note 65.  Velocity 110
001536t:  Note on ::  Channel 3.  Note 65.  Velocity 0
012096t:  Control change ::  Channel 3.  Controller 7.  Value: 127
000024t:  Control change ::  Channel 3.  Controller 7.  Value: 126
000024t:  Control change ::  Channel 3.  Controller 7.  Value: 125
000024t:  Control change ::  Channel 3.  Controller 7.  Value: 124
000024t:  Control change ::  Channel 3.  Controller 7.  Value: 123
000024t:  Control change ::  Channel 3.  Controller 7.  Value: 122
000025t:  Control change ::  Channel 3.  Controller 7.  Value: 121
000024t:  Control change ::  Channel 3.  Controller 7.  Value: 120
000024t:  Control change ::  Channel 3.  Controller 7.  Value: 119
000024t:  Control change ::  Channel 3.  Controller 7.  Value: 118
000024t:  Control change ::  Channel 3.  Controller 7.  Value: 117
000025t:  Control change ::  Channel 3.  Controller 7.  Value: 116
000024t:  Control change ::  Channel 3.  Controller 7.  Value: 115
000024t:  Control change ::  Channel 3.  Controller 7.  Value: 114
000024t:  Control change ::  Channel 3.  Controller 7.  Value: 113
000024t:  Control change ::  Channel 3.  Controller 7.  Value: 112
000025t:  Control change ::  Channel 3.  Controller 7.  Value: 111
000024t:  Control change ::  Channel 3.  Controller 7.  Value: 110
000024t:  Control change ::  Channel 3.  Controller 7.  Value: 109
000024t:  Control change ::  Channel 3.  Controller 7.  Value: 108
000024t:  Control change ::  Channel 3.  Controller 7.  Value: 107
000024t:  Control change ::  Channel 3.  Controller 7.  Value: 106
000025t:  Control change ::  Channel 3.  Controller 7.  Value: 105
000024t:  Control change ::  Channel 3.  Controller 7.  Value: 104
000024t:  Control change ::  Channel 3.  Controller 7.  Value: 103
000024t:  Control change ::  Channel 3.  Controller 7.  Value: 102
000024t:  Control change ::  Channel 3.  Controller 7.  Value: 101
000025t:  Control change ::  Channel 3.  Controller 7.  Value: 100
000024t:  Control change ::  Channel 3.  Controller 7.  Value: 99
000024t:  Control change ::  Channel 3.  Controller 7.  Value: 98
000024t:  Control change ::  Channel 3.  Controller 7.  Value: 97
000024t:  Control change ::  Channel 3.  Controller 7.  Value: 96
000025t:  Control change ::  Channel 3.  Controller 7.  Value: 95
000024t:  Control change ::  Channel 3.  Controller 7.  Value: 94
000024t:  Control change ::  Channel 3.  Controller 7.  Value: 93
000024t:  Control change ::  Channel 3.  Controller 7.  Value: 92
000024t:  Control change ::  Channel 3.  Controller 7.  Value: 91
000024t:  Control change ::  Channel 3.  Controller 7.  Value: 90
000025t:  Control change ::  Channel 3.  Controller 7.  Value: 89
000024t:  Control change ::  Channel 3.  Controller 7.  Value: 88
000024t:  Control change ::  Channel 3.  Controller 7.  Value: 87
000024t:  Control change ::  Channel 3.  Controller 7.  Value: 86
000024t:  Control change ::  Channel 3.  Controller 7.  Value: 85
000025t:  Control change ::  Channel 3.  Controller 7.  Value: 84
000024t:  Control change ::  Channel 3.  Controller 7.  Value: 83
000024t:  Control change ::  Channel 3.  Controller 7.  Value: 82
000024t:  Control change ::  Channel 3.  Controller 7.  Value: 81
000024t:  Control change ::  Channel 3.  Controller 7.  Value: 80
000025t:  Control change ::  Channel 3.  Controller 7.  Value: 79
000024t:  Control change ::  Channel 3.  Controller 7.  Value: 78
000024t:  Control change ::  Channel 3.  Controller 7.  Value: 77
000024t:  Control change ::  Channel 3.  Controller 7.  Value: 76
000024t:  Control change ::  Channel 3.  Controller 7.  Value: 75
000025t:  Control change ::  Channel 3.  Controller 7.  Value: 74
000024t:  Control change ::  Channel 3.  Controller 7.  Value: 73
000024t:  Control change ::  Channel 3.  Controller 7.  Value: 72
000024t:  Control change ::  Channel 3.  Controller 7.  Value: 71
000024t:  Control change ::  Channel 3.  Controller 7.  Value: 70
000024t:  Control change ::  Channel 3.  Controller 7.  Value: 69
000025t:  Control change ::  Channel 3.  Controller 7.  Value: 68
000024t:  Control change ::  Channel 3.  Controller 7.  Value: 67
000024t:  Control change ::  Channel 3.  Controller 7.  Value: 66
000024t:  Control change ::  Channel 3.  Controller 7.  Value: 65
000024t:  Control change ::  Channel 3.  Controller 7.  Value: 64
000025t:  Control change ::  Channel 3.  Controller 7.  Value: 63
000024t:  Control change ::  Channel 3.  Controller 7.  Value: 62
000024t:  Control change ::  Channel 3.  Controller 7.  Value: 61
000024t:  Control change ::  Channel 3.  Controller 7.  Value: 60
000024t:  Control change ::  Channel 3.  Controller 7.  Value: 59
000025t:  Control change ::  Channel 3.  Controller 7.  Value: 58
000024t:  Control change ::  Channel 3.  Controller 7.  Value: 57
000024t:  Control change ::  Channel 3.  Controller 7.  Value: 56
000024t:  Control change ::  Channel 3.  Controller 7.  Value: 55
000024t:  Control change ::  Channel 3.  Controller 7.  Value: 54
000024t:  Control change ::  Channel 3.  Controller 7.  Value: 53
000025t:  Control change ::  Channel 3.  Controller 7.  Value: 52
000024t:  Control change ::  Channel 3.  Controller 7.  Value: 51
000024t:  Control change ::  Channel 3.  Controller 7.  Value: 50
000024t:  Control change ::  Channel 3.  Controller 7.  Value: 49
000024t:  Control change ::  Channel 3.  Controller 7.  Value: 48
000025t:  Control change ::  Channel 3.  Controller 7.  Value: 47
000024t:  Control change ::  Channel 3.  Controller 7.  Value: 46
000024t:  Control change ::  Channel 3.  Controller 7.  Value: 45
000024t:  Control change ::  Channel 3.  Controller 7.  Value: 44
000024t:  Control change ::  Channel 3.  Controller 7.  Value: 43
000025t:  Control change ::  Channel 3.  Controller 7.  Value: 42
000024t:  Control change ::  Channel 3.  Controller 7.  Value: 41
000024t:  Control change ::  Channel 3.  Controller 7.  Value: 40
000024t:  Control change ::  Channel 3.  Controller 7.  Value: 39
000024t:  Control change ::  Channel 3.  Controller 7.  Value: 38
000025t:  Control change ::  Channel 3.  Controller 7.  Value: 37
000024t:  Control change ::  Channel 3.  Controller 7.  Value: 36
000024t:  Control change ::  Channel 3.  Controller 7.  Value: 35
000024t:  Control change ::  Channel 3.  Controller 7.  Value: 34
000024t:  Control change ::  Channel 3.  Controller 7.  Value: 33
000024t:  Control change ::  Channel 3.  Controller 7.  Value: 32
000025t:  Control change ::  Channel 3.  Controller 7.  Value: 31
000024t:  Control change ::  Channel 3.  Controller 7.  Value: 30
000024t:  Control change ::  Channel 3.  Controller 7.  Value: 29
000024t:  Control change ::  Channel 3.  Controller 7.  Value: 28
000024t:  Control change ::  Channel 3.  Controller 7.  Value: 27
000025t:  Control change ::  Channel 3.  Controller 7.  Value: 26
000024t:  Control change ::  Channel 3.  Controller 7.  Value: 25
000024t:  Control change ::  Channel 3.  Controller 7.  Value: 24
000024t:  Control change ::  Channel 3.  Controller 7.  Value: 23
000024t:  Control change ::  Channel 3.  Controller 7.  Value: 22
000025t:  Control change ::  Channel 3.  Controller 7.  Value: 21
000024t:  Control change ::  Channel 3.  Controller 7.  Value: 20
000024t:  Control change ::  Channel 3.  Controller 7.  Value: 19
000024t:  Control change ::  Channel 3.  Controller 7.  Value: 18
000024t:  Control change ::  Channel 3.  Controller 7.  Value: 17
000024t:  Control change ::  Channel 3.  Controller 7.  Value: 16
000025t:  Control change ::  Channel 3.  Controller 7.  Value: 15
000024t:  Control change ::  Channel 3.  Controller 7.  Value: 14
000024t:  Control change ::  Channel 3.  Controller 7.  Value: 13
000024t:  Control change ::  Channel 3.  Controller 7.  Value: 12
000024t:  Control change ::  Channel 3.  Controller 7.  Value: 11
000025t:  Control change ::  Channel 3.  Controller 7.  Value: 10
000024t:  Control change ::  Channel 3.  Controller 7.  Value: 9
000024t:  Control change ::  Channel 3.  Controller 7.  Value: 8
000024t:  Control change ::  Channel 3.  Controller 7.  Value: 7
000024t:  Control change ::  Channel 3.  Controller 7.  Value: 6
000025t:  Control change ::  Channel 3.  Controller 7.  Value: 5
000024t:  Control change ::  Channel 3.  Controller 7.  Value: 4
000024t:  Control change ::  Channel 3.  Controller 7.  Value: 3
000024t:  Control change ::  Channel 3.  Controller 7.  Value: 2
000024t:  Control change ::  Channel 3.  Controller 7.  Value: 1
000025t:  Control change ::  Channel 3.  Controller 7.  Value: 0
000000t:  Meta-event type $2f (End-track event) of length 0
Sigma t = 87264
End.
