File: intro.mid
Format: 0
Tracks: 1
Ticks per quarter note: 120

Track chunk of 12919 bytes
000000t:  Meta-event type $03 (Track name) of length 8
	  untitled
000000t:  Meta-event type $02 (Copyright text event) of length 33
	  Copyright © 1997 by Paul Lapense
	  e
000000t:  Meta-event type $01 (Text event) of length 13
	  Paul Lapensee
000000t:  Meta-event type $54 (?) of length 5
	  `____
000000t:  Meta-event type $58 (Time signature) of length 4
	  ____
000000t:  Meta-event type $59 (Key signature) of length 2
	  __
000000t:  Meta-event type $51 (Set tempo) of length 3
	  _'À
000267t:  Control change ::  Channel 0.  Controller 121.  Value: 0
000000t:  Control change ::  Channel 1.  Controller 121.  Value: 0
000000t:  Control change ::  Channel 2.  Controller 121.  Value: 0
000000t:  Control change ::  Channel 3.  Controller 121.  Value: 0
000000t:  Control change ::  Channel 4.  Controller 121.  Value: 0
000000t:  Control change ::  Channel 5.  Controller 121.  Value: 0
000000t:  Control change ::  Channel 6.  Controller 121.  Value: 0
000000t:  Control change ::  Channel 7.  Controller 121.  Value: 0
000000t:  Control change ::  Channel 8.  Controller 121.  Value: 0
000000t:  Control change ::  Channel 9.  Controller 121.  Value: 0
000000t:  Control change ::  Channel 10.  Controller 121.  Value: 0
000000t:  Control change ::  Channel 11.  Controller 121.  Value: 0
000000t:  Control change ::  Channel 12.  Controller 121.  Value: 0
000000t:  Control change ::  Channel 13.  Controller 121.  Value: 0
000000t:  Control change ::  Channel 14.  Controller 121.  Value: 0
000000t:  Control change ::  Channel 15.  Controller 121.  Value: 0
000002t:  Program (patch) change ::  Channel 0.  Patch 114 (Steel Drums)
000000t:  Program (patch) change ::  Channel 1.  Patch 37 (Slap Bass 2)
000000t:  Program (patch) change ::  Channel 2.  Patch 39 (Synth Bass 2)
000000t:  Program (patch) change ::  Channel 3.  Patch 76 (Blown Bottle)
000000t:  Program (patch) change ::  Channel 4.  Patch 62 (SynthBrass 1)
000000t:  Program (patch) change ::  Channel 10.  Patch 81 (Lead 2 (sawtooth))
000000t:  Program (patch) change ::  Channel 5.  Patch 63 (SynthBrass 2)
000000t:  Program (patch) change ::  Channel 6.  Patch 80 (Lead 1 (square))
000000t:  Program (patch) change ::  Channel 7.  Patch 88 (Pad 1 (new age))
000000t:  Program (patch) change ::  Channel 8.  Patch 79 (Ocarina)
000000t:  Program (patch) change ::  Channel 9.  Patch 0 (Acoustic Grand)
000003t:  Control change ::  Channel 0.  Controller 10.  Value: 64
000000t:  Control change ::  Channel 1.  Controller 10.  Value: 64
000000t:  Control change ::  Channel 2.  Controller 10.  Value: 64
000000t:  Control change ::  Channel 3.  Controller 10.  Value: 64
000000t:  Control change ::  Channel 4.  Controller 10.  Value: 100
000000t:  Control change ::  Channel 10.  Controller 10.  Value: 64
000000t:  Control change ::  Channel 5.  Controller 10.  Value: 64
000000t:  Control change ::  Channel 6.  Controller 10.  Value: 30
000000t:  Control change ::  Channel 7.  Controller 10.  Value: 30
000000t:  Control change ::  Channel 8.  Controller 10.  Value: 20
000000t:  Control change ::  Channel 9.  Controller 91.  Value: 65
000002t:  Control change ::  Channel 0.  Controller 91.  Value: 65
000000t:  Control change ::  Channel 1.  Controller 91.  Value: 0
000000t:  Control change ::  Channel 2.  Controller 91.  Value: 0
000000t:  Control change ::  Channel 3.  Controller 91.  Value: 60
000000t:  Control change ::  Channel 4.  Controller 91.  Value: 45
000000t:  Control change ::  Channel 10.  Controller 91.  Value: 60
000000t:  Control change ::  Channel 5.  Controller 91.  Value: 0
000000t:  Control change ::  Channel 6.  Controller 91.  Value: 50
000000t:  Control change ::  Channel 7.  Controller 91.  Value: 65
000000t:  Control change ::  Channel 8.  Controller 91.  Value: 50
000000t:  Control change ::  Channel 9.  Controller 93.  Value: 0
000002t:  Control change ::  Channel 0.  Controller 93.  Value: 10
000000t:  Control change ::  Channel 1.  Controller 93.  Value: 0
000000t:  Control change ::  Channel 2.  Controller 93.  Value: 0
000000t:  Control change ::  Channel 3.  Controller 93.  Value: 0
000000t:  Control change ::  Channel 4.  Controller 93.  Value: 20
000000t:  Control change ::  Channel 10.  Controller 93.  Value: 20
000000t:  Control change ::  Channel 5.  Controller 93.  Value: 0
000000t:  Control change ::  Channel 6.  Controller 93.  Value: 0
000000t:  Control change ::  Channel 7.  Controller 93.  Value: 10
000000t:  Control change ::  Channel 8.  Controller 93.  Value: 0
000000t:  Control change ::  Channel 9.  Controller 7.  Value: 105
000002t:  Control change ::  Channel 0.  Controller 7.  Value: 97
000000t:  Control change ::  Channel 1.  Controller 7.  Value: 100
000000t:  Control change ::  Channel 2.  Controller 7.  Value: 100
000000t:  Control change ::  Channel 3.  Controller 7.  Value: 100
000000t:  Control change ::  Channel 4.  Controller 7.  Value: 95
000000t:  Control change ::  Channel 10.  Controller 7.  Value: 100
000000t:  Control change ::  Channel 5.  Controller 7.  Value: 100
000000t:  Control change ::  Channel 6.  Controller 7.  Value: 80
000000t:  Control change ::  Channel 7.  Controller 7.  Value: 100
000000t:  Control change ::  Channel 8.  Controller 7.  Value: 80
000000t:  Control change ::  Channel 9.  Controller 11.  Value: 127
000002t:  Control change ::  Channel 0.  Controller 11.  Value: 127
000000t:  Control change ::  Channel 1.  Controller 11.  Value: 127
000000t:  Control change ::  Channel 2.  Controller 11.  Value: 127
000000t:  Control change ::  Channel 3.  Controller 11.  Value: 127
000000t:  Control change ::  Channel 4.  Controller 11.  Value: 127
000000t:  Control change ::  Channel 10.  Controller 11.  Value: 127
000000t:  Control change ::  Channel 5.  Controller 11.  Value: 127
000000t:  Control change ::  Channel 6.  Controller 11.  Value: 127
000000t:  Control change ::  Channel 7.  Controller 11.  Value: 127
000000t:  Control change ::  Channel 8.  Controller 11.  Value: 127
000002t:  Control change ::  Channel 0.  Controller 101.  Value: 0
000000t:  Control change ::  Channel 1.  Controller 101.  Value: 0
000000t:  Control change ::  Channel 2.  Controller 101.  Value: 0
000000t:  Control change ::  Channel 3.  Controller 101.  Value: 0
000000t:  Control change ::  Channel 4.  Controller 101.  Value: 0
000000t:  Control change ::  Channel 10.  Controller 101.  Value: 0
000000t:  Control change ::  Channel 5.  Controller 101.  Value: 0
000000t:  Control change ::  Channel 6.  Controller 101.  Value: 0
000001t:  Control change ::  Channel 7.  Controller 101.  Value: 0
000000t:  Control change ::  Channel 8.  Controller 101.  Value: 0
000002t:  Control change ::  Channel 0.  Controller 100.  Value: 0
000000t:  Control change ::  Channel 1.  Controller 100.  Value: 0
000000t:  Control change ::  Channel 2.  Controller 100.  Value: 0
000000t:  Control change ::  Channel 3.  Controller 100.  Value: 0
000000t:  Control change ::  Channel 4.  Controller 100.  Value: 0
000000t:  Control change ::  Channel 10.  Controller 100.  Value: 0
000000t:  Control change ::  Channel 5.  Controller 100.  Value: 0
000000t:  Control change ::  Channel 6.  Controller 100.  Value: 0
000000t:  Control change ::  Channel 7.  Controller 100.  Value: 0
000000t:  Control change ::  Channel 8.  Controller 100.  Value: 0
000000t:  Control change ::  Channel 0.  Controller 6.  Value: 2
000000t:  Control change ::  Channel 0.  Controller 101.  Value: 127
000000t:  Control change ::  Channel 1.  Controller 6.  Value: 2
000000t:  Control change ::  Channel 1.  Controller 101.  Value: 127
000000t:  Control change ::  Channel 2.  Controller 6.  Value: 2
000000t:  Control change ::  Channel 2.  Controller 101.  Value: 127
000000t:  Control change ::  Channel 3.  Controller 6.  Value: 2
000000t:  Control change ::  Channel 3.  Controller 101.  Value: 127
000000t:  Control change ::  Channel 4.  Controller 6.  Value: 2
000000t:  Control change ::  Channel 4.  Controller 101.  Value: 127
000000t:  Control change ::  Channel 10.  Controller 6.  Value: 2
000002t:  Control change ::  Channel 0.  Controller 100.  Value: 127
000000t:  Control change ::  Channel 1.  Controller 100.  Value: 127
000000t:  Control change ::  Channel 2.  Controller 100.  Value: 127
000000t:  Control change ::  Channel 3.  Controller 100.  Value: 127
000000t:  Control change ::  Channel 4.  Controller 100.  Value: 127
000000t:  Control change ::  Channel 10.  Controller 100.  Value: 127
000000t:  Control change ::  Channel 5.  Controller 100.  Value: 127
000000t:  Control change ::  Channel 6.  Controller 100.  Value: 127
000000t:  Control change ::  Channel 7.  Controller 100.  Value: 127
000000t:  Control change ::  Channel 8.  Controller 100.  Value: 127
000000t:  Control change ::  Channel 9.  Controller 100.  Value: 127
000028t:  Note on ::  Channel 0.  Note 64.  Velocity 118
000000t:  Note on ::  Channel 1.  Note 36.  Velocity 113
000000t:  Note on ::  Channel 9.  Note 36.  Velocity 116
000000t:  Note on ::  Channel 9.  Note 42.  Velocity 72
000000t:  Note on ::  Channel 9.  Note 57.  Velocity 127
000002t:  Note on ::  Channel 9.  Note 42.  Velocity 0
000000t:  Note on ::  Channel 9.  Note 36.  Velocity 0
000001t:  Note on ::  Channel 9.  Note 57.  Velocity 0
000010t:  Note on ::  Channel 0.  Note 64.  Velocity 0
000000t:  Note on ::  Channel 0.  Note 67.  Velocity 105
000014t:  Note on ::  Channel 0.  Note 64.  Velocity 104
000004t:  Note on ::  Channel 0.  Note 67.  Velocity 0
000010t:  Note on ::  Channel 0.  Note 67.  Velocity 102
000002t:  Note on ::  Channel 0.  Note 64.  Velocity 0
000002t:  Note on ::  Channel 1.  Note 36.  Velocity 0
000000t:  Note on ::  Channel 9.  Note 82.  Velocity 80
000000t:  Note on ::  Channel 1.  Note 48.  Velocity 116
000000t:  Note on ::  Channel 9.  Note 46.  Velocity 86
000002t:  Note on ::  Channel 9.  Note 46.  Velocity 0
000000t:  Note on ::  Channel 9.  Note 82.  Velocity 0
000010t:  Note on ::  Channel 0.  Note 67.  Velocity 0
000000t:  Note on ::  Channel 0.  Note 64.  Velocity 104
000002t:  Note on ::  Channel 1.  Note 48.  Velocity 0
000012t:  Note on ::  Channel 0.  Note 64.  Velocity 0
000002t:  Note on ::  Channel 0.  Note 67.  Velocity 104
000015t:  Note on ::  Channel 0.  Note 67.  Velocity 0
000000t:  Note on ::  Channel 0.  Note 64.  Velocity 98
000004t:  Note on ::  Channel 9.  Note 36.  Velocity 122
000000t:  Note on ::  Channel 9.  Note 42.  Velocity 86
000000t:  Note on ::  Channel 1.  Note 46.  Velocity 110
000002t:  Note on ::  Channel 9.  Note 42.  Velocity 0
000000t:  Note on ::  Channel 9.  Note 36.  Velocity 0
000006t:  Note on ::  Channel 0.  Note 64.  Velocity 0
000000t:  Note on ::  Channel 0.  Note 67.  Velocity 103
000014t:  Note on ::  Channel 0.  Note 67.  Velocity 0
000002t:  Note on ::  Channel 0.  Note 64.  Velocity 99
000015t:  Note on ::  Channel 0.  Note 67.  Velocity 106
000002t:  Note on ::  Channel 0.  Note 64.  Velocity 0
000004t:  Note on ::  Channel 9.  Note 46.  Velocity 81
000000t:  Note on ::  Channel 9.  Note 82.  Velocity 73
000002t:  Note on ::  Channel 9.  Note 82.  Velocity 0
000000t:  Note on ::  Channel 9.  Note 46.  Velocity 0
000000t:  Note on ::  Channel 1.  Note 46.  Velocity 0
000000t:  Note on ::  Channel 1.  Note 36.  Velocity 108
000006t:  Note on ::  Channel 0.  Note 67.  Velocity 0
000000t:  Note on ::  Channel 0.  Note 64.  Velocity 98
000014t:  Note on ::  Channel 0.  Note 67.  Velocity 105
000002t:  Note on ::  Channel 0.  Note 64.  Velocity 0
000000t:  Note on ::  Channel 1.  Note 36.  Velocity 0
000000t:  Note on ::  Channel 9.  Note 82.  Velocity 54
000002t:  Note on ::  Channel 9.  Note 82.  Velocity 0
000000t:  Note on ::  Channel 1.  Note 45.  Velocity 105
000012t:  Note on ::  Channel 1.  Note 45.  Velocity 0
000000t:  Note on ::  Channel 0.  Note 64.  Velocity 98
000002t:  Note on ::  Channel 0.  Note 67.  Velocity 0
000006t:  Note on ::  Channel 9.  Note 36.  Velocity 114
000000t:  Note on ::  Channel 9.  Note 42.  Velocity 86
000002t:  Note on ::  Channel 9.  Note 42.  Velocity 0
000000t:  Note on ::  Channel 9.  Note 36.  Velocity 0
000002t:  Note on ::  Channel 0.  Note 67.  Velocity 98
000002t:  Note on ::  Channel 0.  Note 64.  Velocity 0
000014t:  Note on ::  Channel 0.  Note 64.  Velocity 99
000003t:  Note on ::  Channel 0.  Note 67.  Velocity 0
000000t:  Pitch wheel change ::  Channel 1.   -8192
000002t:  Note on ::  Channel 1.  Note 45.  Velocity 105
000010t:  Note on ::  Channel 0.  Note 67.  Velocity 95
000002t:  Note on ::  Channel 0.  Note 64.  Velocity 0
000008t:  Note on ::  Channel 0.  Note 64.  Velocity 95
000002t:  Note on ::  Channel 9.  Note 46.  Velocity 75
000000t:  Pitch wheel change ::  Channel 1.   -8192
000000t:  Note on ::  Channel 9.  Note 82.  Velocity 80
000002t:  Note on ::  Channel 9.  Note 82.  Velocity 0
000000t:  Note on ::  Channel 0.  Note 67.  Velocity 0
000000t:  Note on ::  Channel 9.  Note 46.  Velocity 0
000010t:  Note on ::  Channel 0.  Note 67.  Velocity 100
000004t:  Note on ::  Channel 0.  Note 64.  Velocity 0
000007t:  Note on ::  Channel 1.  Note 45.  Velocity 0
000002t:  Note on ::  Channel 0.  Note 64.  Velocity 95
000000t:  Note on ::  Channel 1.  Note 45.  Velocity 105
000006t:  Note on ::  Channel 0.  Note 67.  Velocity 0
000006t:  Note on ::  Channel 1.  Note 45.  Velocity 0
000002t:  Note on ::  Channel 0.  Note 65.  Velocity 111
000004t:  Note on ::  Channel 0.  Note 64.  Velocity 0
000002t:  Note on ::  Channel 9.  Note 36.  Velocity 118
000000t:  Note on ::  Channel 9.  Note 42.  Velocity 86
000002t:  Note on ::  Channel 9.  Note 42.  Velocity 0
000000t:  Note on ::  Channel 9.  Note 36.  Velocity 0
000000t:  Note on ::  Channel 1.  Note 46.  Velocity 116
000006t:  Note on ::  Channel 0.  Note 65.  Velocity 0
000002t:  Note on ::  Channel 0.  Note 69.  Velocity 106
000008t:  Note on ::  Channel 1.  Note 46.  Velocity 0
000008t:  Note on ::  Channel 0.  Note 69.  Velocity 0
000000t:  Note on ::  Channel 0.  Note 65.  Velocity 106
000014t:  Note on ::  Channel 0.  Note 65.  Velocity 0
000000t:  Note on ::  Channel 0.  Note 69.  Velocity 100
000006t:  Pitch wheel change ::  Channel 1.   -8192
000000t:  Note on ::  Channel 9.  Note 46.  Velocity 88
000000t:  Note on ::  Channel 1.  Note 48.  Velocity 110
000002t:  Note on ::  Channel 9.  Note 46.  Velocity 0
000000t:  Note on ::  Channel 9.  Note 50.  Velocity 89
000000t:  Note on ::  Channel 9.  Note 82.  Velocity 70
000002t:  Note on ::  Channel 9.  Note 50.  Velocity 0
000001t:  Note on ::  Channel 9.  Note 82.  Velocity 0
000006t:  Note on ::  Channel 0.  Note 69.  Velocity 0
000000t:  Note on ::  Channel 0.  Note 65.  Velocity 102
000008t:  Note on ::  Channel 0.  Note 69.  Velocity 102
000004t:  Note on ::  Channel 0.  Note 65.  Velocity 0
000002t:  Pitch wheel change ::  Channel 1.   -8192
000000t:  Note on ::  Channel 9.  Note 82.  Velocity 62
000002t:  Note on ::  Channel 9.  Note 82.  Velocity 0
000008t:  Note on ::  Channel 0.  Note 65.  Velocity 99
000006t:  Note on ::  Channel 0.  Note 69.  Velocity 0
000006t:  Note on ::  Channel 0.  Note 65.  Velocity 0
000000t:  Note on ::  Channel 1.  Note 36.  Velocity 108
000000t:  Note on ::  Channel 9.  Note 36.  Velocity 114
000000t:  Note on ::  Channel 9.  Note 42.  Velocity 86
000003t:  Note on ::  Channel 9.  Note 42.  Velocity 0
000000t:  Note on ::  Channel 9.  Note 36.  Velocity 0
000002t:  Note on ::  Channel 1.  Note 48.  Velocity 0
000002t:  Note on ::  Channel 0.  Note 67.  Velocity 111
000013t:  Note on ::  Channel 0.  Note 70.  Velocity 105
000002t:  Note on ::  Channel 0.  Note 67.  Velocity 0
000012t:  Note on ::  Channel 0.  Note 70.  Velocity 0
000003t:  Note on ::  Channel 0.  Note 67.  Velocity 106
000010t:  Note on ::  Channel 9.  Note 46.  Velocity 90
000000t:  Note on ::  Channel 1.  Note 48.  Velocity 105
000000t:  Note on ::  Channel 9.  Note 82.  Velocity 80
000002t:  Note on ::  Channel 9.  Note 82.  Velocity 0
000000t:  Note on ::  Channel 9.  Note 46.  Velocity 0
000002t:  Note on ::  Channel 1.  Note 36.  Velocity 0
000000t:  Note on ::  Channel 0.  Note 67.  Velocity 0
000000t:  Note on ::  Channel 0.  Note 70.  Velocity 103
000010t:  Note on ::  Channel 0.  Note 67.  Velocity 102
000002t:  Note on ::  Channel 0.  Note 70.  Velocity 0
000002t:  Note on ::  Channel 1.  Note 48.  Velocity 0
000014t:  Note on ::  Channel 0.  Note 67.  Velocity 0
000000t:  Note on ::  Channel 0.  Note 70.  Velocity 105
000012t:  Note on ::  Channel 0.  Note 70.  Velocity 0
000000t:  Note on ::  Channel 0.  Note 67.  Velocity 104
000002t:  Note on ::  Channel 9.  Note 36.  Velocity 122
000000t:  Note on ::  Channel 9.  Note 42.  Velocity 81
000000t:  Note on ::  Channel 1.  Note 46.  Velocity 110
000002t:  Note on ::  Channel 9.  Note 42.  Velocity 0
000000t:  Note on ::  Channel 9.  Note 36.  Velocity 0
000012t:  Note on ::  Channel 0.  Note 67.  Velocity 0
000000t:  Note on ::  Channel 0.  Note 70.  Velocity 106
000010t:  Note on ::  Channel 4.  Note 46.  Velocity 111
000003t:  Note on ::  Channel 0.  Note 70.  Velocity 0
000000t:  Note on ::  Channel 0.  Note 67.  Velocity 103
000006t:  Note on ::  Channel 4.  Note 46.  Velocity 0
000010t:  Note on ::  Channel 0.  Note 67.  Velocity 0
000000t:  Note on ::  Channel 0.  Note 70.  Velocity 104
000004t:  Note on ::  Channel 9.  Note 46.  Velocity 90
000000t:  Note on ::  Channel 9.  Note 46.  Velocity 0
000000t:  Note on ::  Channel 9.  Note 82.  Velocity 60
000000t:  Note on ::  Channel 1.  Note 36.  Velocity 108
000000t:  Note on ::  Channel 4.  Note 48.  Velocity 100
000001t:  Note on ::  Channel 9.  Note 82.  Velocity 0
000001t:  Note on ::  Channel 1.  Note 46.  Velocity 0
000006t:  Note on ::  Channel 4.  Note 48.  Velocity 0
000000t:  Note on ::  Channel 0.  Note 70.  Velocity 0
000002t:  Note on ::  Channel 0.  Note 67.  Velocity 103
000013t:  Note on ::  Channel 9.  Note 82.  Velocity 56
000000t:  Note on ::  Channel 0.  Note 70.  Velocity 105
000002t:  Note on ::  Channel 9.  Note 82.  Velocity 0
000000t:  Note on ::  Channel 1.  Note 36.  Velocity 0
000000t:  Note on ::  Channel 0.  Note 67.  Velocity 0
000000t:  Note on ::  Channel 1.  Note 46.  Velocity 110
000000t:  Note on ::  Channel 4.  Note 50.  Velocity 111
000008t:  Note on ::  Channel 4.  Note 50.  Velocity 0
000004t:  Note on ::  Channel 0.  Note 70.  Velocity 0
000002t:  Note on ::  Channel 1.  Note 46.  Velocity 0
000000t:  Note on ::  Channel 0.  Note 67.  Velocity 104
000006t:  Note on ::  Channel 9.  Note 36.  Velocity 118
000000t:  Note on ::  Channel 9.  Note 42.  Velocity 81
000002t:  Note on ::  Channel 9.  Note 42.  Velocity 0
000000t:  Note on ::  Channel 9.  Note 36.  Velocity 0
000004t:  Note on ::  Channel 0.  Note 70.  Velocity 104
000002t:  Note on ::  Channel 0.  Note 67.  Velocity 0
000014t:  Note on ::  Channel 0.  Note 70.  Velocity 0
000000t:  Note on ::  Channel 0.  Note 67.  Velocity 104
000002t:  Note on ::  Channel 1.  Note 45.  Velocity 113
000010t:  Note on ::  Channel 0.  Note 70.  Velocity 102
000002t:  Note on ::  Channel 0.  Note 67.  Velocity 0
000006t:  Note on ::  Channel 1.  Note 45.  Velocity 0
000004t:  Note on ::  Channel 9.  Note 46.  Velocity 90
000000t:  Note on ::  Channel 9.  Note 82.  Velocity 80
000002t:  Note on ::  Channel 9.  Note 82.  Velocity 0
000000t:  Note on ::  Channel 9.  Note 46.  Velocity 0
000002t:  Note on ::  Channel 0.  Note 70.  Velocity 0
000000t:  Note on ::  Channel 0.  Note 67.  Velocity 105
000015t:  Note on ::  Channel 0.  Note 67.  Velocity 0
000000t:  Note on ::  Channel 0.  Note 70.  Velocity 105
000006t:  Note on ::  Channel 1.  Note 45.  Velocity 110
000006t:  Note on ::  Channel 0.  Note 67.  Velocity 105
000002t:  Note on ::  Channel 0.  Note 70.  Velocity 0
000008t:  Note on ::  Channel 1.  Note 45.  Velocity 0
000004t:  Note on ::  Channel 9.  Note 36.  Velocity 122
000002t:  Note on ::  Channel 9.  Note 36.  Velocity 0
000000t:  Note on ::  Channel 9.  Note 42.  Velocity 86
000000t:  Note on ::  Channel 1.  Note 43.  Velocity 110
000003t:  Note on ::  Channel 9.  Note 42.  Velocity 0
000000t:  Note on ::  Channel 0.  Note 67.  Velocity 0
000000t:  Note on ::  Channel 0.  Note 65.  Velocity 120
000012t:  Note on ::  Channel 1.  Note 43.  Velocity 0
000002t:  Note on ::  Channel 0.  Note 65.  Velocity 0
000004t:  Note on ::  Channel 0.  Note 69.  Velocity 101
000002t:  Note on ::  Channel 1.  Note 43.  Velocity 108
000012t:  Note on ::  Channel 0.  Note 69.  Velocity 0
000000t:  Note on ::  Channel 0.  Note 65.  Velocity 109
000004t:  Note on ::  Channel 1.  Note 43.  Velocity 0
000006t:  Note on ::  Channel 9.  Note 50.  Velocity 94
000000t:  Note on ::  Channel 9.  Note 82.  Velocity 64
000002t:  Note on ::  Channel 9.  Note 82.  Velocity 0
000000t:  Note on ::  Channel 9.  Note 50.  Velocity 0
000000t:  Note on ::  Channel 9.  Note 46.  Velocity 93
000000t:  Note on ::  Channel 9.  Note 46.  Velocity 0
000000t:  Note on ::  Channel 1.  Note 45.  Velocity 116
000002t:  Note on ::  Channel 0.  Note 65.  Velocity 0
000000t:  Note on ::  Channel 0.  Note 69.  Velocity 102
000015t:  Note on ::  Channel 0.  Note 65.  Velocity 105
000002t:  Note on ::  Channel 0.  Note 69.  Velocity 0
000004t:  Note on ::  Channel 9.  Note 82.  Velocity 62
000002t:  Note on ::  Channel 9.  Note 82.  Velocity 0
000002t:  Note on ::  Channel 0.  Note 69.  Velocity 100
000004t:  Note on ::  Channel 0.  Note 65.  Velocity 0
000008t:  Note on ::  Channel 1.  Note 45.  Velocity 0
000004t:  Note on ::  Channel 0.  Note 65.  Velocity 107
000003t:  Note on ::  Channel 9.  Note 36.  Velocity 122
000000t:  Note on ::  Channel 9.  Note 36.  Velocity 0
000000t:  Note on ::  Channel 1.  Note 36.  Velocity 113
000000t:  Note on ::  Channel 9.  Note 42.  Velocity 88
000002t:  Note on ::  Channel 9.  Note 42.  Velocity 0
000002t:  Note on ::  Channel 0.  Note 69.  Velocity 0
000000t:  Note on ::  Channel 0.  Note 69.  Velocity 111
000010t:  Note on ::  Channel 0.  Note 65.  Velocity 0
000006t:  Note on ::  Channel 0.  Note 69.  Velocity 0
000000t:  Note on ::  Channel 0.  Note 70.  Velocity 106
000014t:  Note on ::  Channel 0.  Note 69.  Velocity 103
000002t:  Note on ::  Channel 0.  Note 70.  Velocity 0
000008t:  Note on ::  Channel 1.  Note 36.  Velocity 0
000000t:  Note on ::  Channel 0.  Note 67.  Velocity 118
000000t:  Note on ::  Channel 1.  Note 48.  Velocity 116
000002t:  Note on ::  Channel 9.  Note 46.  Velocity 93
000000t:  Note on ::  Channel 9.  Note 82.  Velocity 80
000002t:  Note on ::  Channel 9.  Note 82.  Velocity 0
000000t:  Note on ::  Channel 0.  Note 69.  Velocity 0
000000t:  Note on ::  Channel 9.  Note 46.  Velocity 0
000011t:  Note on ::  Channel 1.  Note 48.  Velocity 0
000002t:  Note on ::  Channel 0.  Note 67.  Velocity 0
000000t:  Note on ::  Channel 0.  Note 64.  Velocity 106
000014t:  Note on ::  Channel 0.  Note 67.  Velocity 105
000002t:  Note on ::  Channel 0.  Note 64.  Velocity 0
000012t:  Note on ::  Channel 0.  Note 67.  Velocity 0
000000t:  Note on ::  Channel 0.  Note 64.  Velocity 98
000002t:  Note on ::  Channel 9.  Note 36.  Velocity 120
000000t:  Note on ::  Channel 1.  Note 46.  Velocity 110
000000t:  Note on ::  Channel 9.  Note 42.  Velocity 81
000002t:  Note on ::  Channel 9.  Note 36.  Velocity 0
000001t:  Note on ::  Channel 9.  Note 42.  Velocity 0
000010t:  Note on ::  Channel 0.  Note 67.  Velocity 103
000002t:  Note on ::  Channel 0.  Note 64.  Velocity 0
000012t:  Note on ::  Channel 0.  Note 67.  Velocity 0
000000t:  Note on ::  Channel 0.  Note 64.  Velocity 99
000014t:  Note on ::  Channel 0.  Note 64.  Velocity 0
000002t:  Note on ::  Channel 0.  Note 67.  Velocity 98
000002t:  Note on ::  Channel 1.  Note 46.  Velocity 0
000000t:  Note on ::  Channel 9.  Note 46.  Velocity 100
000002t:  Note on ::  Channel 9.  Note 46.  Velocity 0
000000t:  Note on ::  Channel 9.  Note 82.  Velocity 56
000000t:  Note on ::  Channel 9.  Note 82.  Velocity 0
000000t:  Note on ::  Channel 1.  Note 36.  Velocity 108
000010t:  Note on ::  Channel 0.  Note 67.  Velocity 0
000000t:  Note on ::  Channel 0.  Note 64.  Velocity 98
000012t:  Note on ::  Channel 0.  Note 64.  Velocity 0
000000t:  Note on ::  Channel 1.  Note 36.  Velocity 0
000000t:  Note on ::  Channel 9.  Note 82.  Velocity 56
000000t:  Note on ::  Channel 0.  Note 67.  Velocity 98
000002t:  Note on ::  Channel 9.  Note 82.  Velocity 0
000000t:  Note on ::  Channel 1.  Note 45.  Velocity 105
000011t:  Note on ::  Channel 0.  Note 67.  Velocity 0
000000t:  Note on ::  Channel 0.  Note 64.  Velocity 100
000002t:  Note on ::  Channel 1.  Note 45.  Velocity 0
000008t:  Note on ::  Channel 9.  Note 36.  Velocity 118
000000t:  Note on ::  Channel 9.  Note 42.  Velocity 86
000002t:  Note on ::  Channel 9.  Note 42.  Velocity 0
000000t:  Note on ::  Channel 9.  Note 36.  Velocity 0
000004t:  Note on ::  Channel 0.  Note 64.  Velocity 0
000000t:  Note on ::  Channel 0.  Note 67.  Velocity 105
000014t:  Note on ::  Channel 0.  Note 64.  Velocity 99
000002t:  Note on ::  Channel 0.  Note 67.  Velocity 0
000000t:  Pitch wheel change ::  Channel 1.   -8192
000002t:  Note on ::  Channel 1.  Note 45.  Velocity 105
000010t:  Note on ::  Channel 0.  Note 67.  Velocity 104
000002t:  Note on ::  Channel 0.  Note 64.  Velocity 0
000010t:  Note on ::  Channel 9.  Note 46.  Velocity 93
000000t:  Pitch wheel change ::  Channel 1.   -8192
000000t:  Note on ::  Channel 9.  Note 82.  Velocity 80
000003t:  Note on ::  Channel 9.  Note 82.  Velocity 0
000000t:  Note on ::  Channel 9.  Note 46.  Velocity 0
000000t:  Note on ::  Channel 0.  Note 64.  Velocity 99
000002t:  Note on ::  Channel 0.  Note 67.  Velocity 0
000012t:  Note on ::  Channel 0.  Note 67.  Velocity 98
000002t:  Note on ::  Channel 0.  Note 64.  Velocity 0
000004t:  Note on ::  Channel 1.  Note 45.  Velocity 0
000000t:  Note on ::  Channel 1.  Note 45.  Velocity 105
000010t:  Note on ::  Channel 0.  Note 67.  Velocity 0
000000t:  Note on ::  Channel 0.  Note 64.  Velocity 99
000004t:  Note on ::  Channel 1.  Note 45.  Velocity 0
000008t:  Note on ::  Channel 0.  Note 67.  Velocity 98
000002t:  Note on ::  Channel 0.  Note 64.  Velocity 0
000000t:  Note on ::  Channel 9.  Note 36.  Velocity 120
000000t:  Note on ::  Channel 9.  Note 42.  Velocity 86
000000t:  Note on ::  Channel 1.  Note 46.  Velocity 116
000003t:  Note on ::  Channel 9.  Note 42.  Velocity 0
000000t:  Note on ::  Channel 9.  Note 36.  Velocity 0
000010t:  Note on ::  Channel 0.  Note 67.  Velocity 0
000000t:  Note on ::  Channel 0.  Note 64.  Velocity 96
000004t:  Note on ::  Channel 1.  Note 46.  Velocity 0
000008t:  Note on ::  Channel 0.  Note 67.  Velocity 98
000002t:  Note on ::  Channel 0.  Note 64.  Velocity 0
000016t:  Note on ::  Channel 0.  Note 64.  Velocity 99
000002t:  Note on ::  Channel 0.  Note 67.  Velocity 0
000000t:  Pitch wheel change ::  Channel 1.   -8192
000000t:  Note on ::  Channel 9.  Note 46.  Velocity 100
000000t:  Note on ::  Channel 9.  Note 82.  Velocity 73
000001t:  Note on ::  Channel 1.  Note 48.  Velocity 110
000000t:  Note on ::  Channel 9.  Note 50.  Velocity 96
000002t:  Note on ::  Channel 9.  Note 50.  Velocity 0
000000t:  Note on ::  Channel 9.  Note 82.  Velocity 0
000000t:  Note on ::  Channel 9.  Note 46.  Velocity 0
000010t:  Note on ::  Channel 0.  Note 67.  Velocity 99
000004t:  Note on ::  Channel 0.  Note 64.  Velocity 0
000006t:  Pitch wheel change ::  Channel 1.   -8192
000002t:  Note on ::  Channel 9.  Note 82.  Velocity 64
000000t:  Note on ::  Channel 9.  Note 82.  Velocity 0
000004t:  Note on ::  Channel 0.  Note 64.  Velocity 101
000003t:  Note on ::  Channel 0.  Note 67.  Velocity 0
000010t:  Note on ::  Channel 0.  Note 67.  Velocity 88
000004t:  Note on ::  Channel 0.  Note 64.  Velocity 0
000000t:  Note on ::  Channel 6.  Note 72.  Velocity 110
000000t:  Note on ::  Channel 9.  Note 42.  Velocity 75
000002t:  Note on ::  Channel 9.  Note 42.  Velocity 0
000000t:  Note on ::  Channel 9.  Note 36.  Velocity 122
000000t:  Note on ::  Channel 9.  Note 36.  Velocity 0
000000t:  Note on ::  Channel 1.  Note 36.  Velocity 108
000002t:  Note on ::  Channel 1.  Note 48.  Velocity 0
000002t:  Note on ::  Channel 0.  Note 67.  Velocity 0
000037t:  Note on ::  Channel 6.  Note 72.  Velocity 0
000004t:  Note on ::  Channel 6.  Note 84.  Velocity 110
000000t:  Note on ::  Channel 1.  Note 48.  Velocity 105
000004t:  Note on ::  Channel 1.  Note 36.  Velocity 0
000014t:  Note on ::  Channel 1.  Note 48.  Velocity 0
000004t:  Note on ::  Channel 6.  Note 84.  Velocity 0
000000t:  Note on ::  Channel 6.  Note 72.  Velocity 110
000021t:  Note on ::  Channel 6.  Note 72.  Velocity 0
000004t:  Note on ::  Channel 9.  Note 36.  Velocity 125
000000t:  Note on ::  Channel 6.  Note 82.  Velocity 110
000000t:  Note on ::  Channel 1.  Note 46.  Velocity 110
000002t:  Note on ::  Channel 9.  Note 36.  Velocity 0
000018t:  Note on ::  Channel 6.  Note 82.  Velocity 0
000002t:  Note on ::  Channel 6.  Note 72.  Velocity 110
000024t:  Note on ::  Channel 1.  Note 36.  Velocity 108
000000t:  Note on ::  Channel 6.  Note 82.  Velocity 110
000004t:  Note on ::  Channel 6.  Note 72.  Velocity 0
000000t:  Note on ::  Channel 1.  Note 46.  Velocity 0
000020t:  Note on ::  Channel 6.  Note 82.  Velocity 0
000000t:  Note on ::  Channel 1.  Note 46.  Velocity 110
000000t:  Note on ::  Channel 6.  Note 84.  Velocity 110
000002t:  Note on ::  Channel 1.  Note 36.  Velocity 0
000015t:  Note on ::  Channel 1.  Note 46.  Velocity 0
000004t:  Note on ::  Channel 9.  Note 36.  Velocity 118
000000t:  Note on ::  Channel 4.  Note 53.  Velocity 95
000001t:  Note on ::  Channel 8.  Note 79.  Velocity 103
000001t:  Note on ::  Channel 9.  Note 36.  Velocity 0
000004t:  Note on ::  Channel 6.  Note 84.  Velocity 0
000016t:  Note on ::  Channel 8.  Note 79.  Velocity 0
000000t:  Note on ::  Channel 4.  Note 55.  Velocity 95
000002t:  Note on ::  Channel 4.  Note 53.  Velocity 0
000000t:  Note on ::  Channel 8.  Note 84.  Velocity 103
000000t:  Note on ::  Channel 1.  Note 45.  Velocity 113
000019t:  Note on ::  Channel 1.  Note 45.  Velocity 0
000004t:  Note on ::  Channel 8.  Note 84.  Velocity 0
000000t:  Note on ::  Channel 4.  Note 55.  Velocity 0
000000t:  Note on ::  Channel 8.  Note 89.  Velocity 104
000000t:  Note on ::  Channel 4.  Note 62.  Velocity 95
000023t:  Note on ::  Channel 8.  Note 88.  Velocity 106
000000t:  Note on ::  Channel 4.  Note 60.  Velocity 95
000002t:  Note on ::  Channel 1.  Note 45.  Velocity 110
000002t:  Note on ::  Channel 8.  Note 89.  Velocity 0
000004t:  Note on ::  Channel 4.  Note 62.  Velocity 0
000010t:  Note on ::  Channel 1.  Note 45.  Velocity 0
000004t:  Note on ::  Channel 9.  Note 36.  Velocity 112
000002t:  Note on ::  Channel 9.  Note 36.  Velocity 0
000000t:  Note on ::  Channel 1.  Note 43.  Velocity 110
000014t:  Note on ::  Channel 1.  Note 43.  Velocity 0
000009t:  Note on ::  Channel 1.  Note 43.  Velocity 108
000014t:  Note on ::  Channel 1.  Note 43.  Velocity 0
000010t:  Note on ::  Channel 9.  Note 38.  Velocity 122
000000t:  Note on ::  Channel 9.  Note 38.  Velocity 0
000000t:  Note on ::  Channel 9.  Note 47.  Velocity 89
000000t:  Note on ::  Channel 9.  Note 47.  Velocity 0
000000t:  Note on ::  Channel 1.  Note 45.  Velocity 116
000040t:  Note on ::  Channel 1.  Note 45.  Velocity 0
000004t:  Note on ::  Channel 0.  Note 64.  Velocity 118
000000t:  Note on ::  Channel 1.  Note 36.  Velocity 113
000000t:  Note on ::  Channel 9.  Note 42.  Velocity 90
000000t:  Note on ::  Channel 9.  Note 36.  Velocity 120
000002t:  Note on ::  Channel 9.  Note 36.  Velocity 0
000000t:  Note on ::  Channel 9.  Note 42.  Velocity 0
000007t:  Note on ::  Channel 4.  Note 60.  Velocity 0
000000t:  Note on ::  Channel 8.  Note 88.  Velocity 0
000004t:  Note on ::  Channel 0.  Note 64.  Velocity 0
000002t:  Note on ::  Channel 0.  Note 67.  Velocity 105
000014t:  Note on ::  Channel 0.  Note 64.  Velocity 104
000001t:  Note on ::  Channel 0.  Note 67.  Velocity 0
000013t:  Note on ::  Channel 0.  Note 67.  Velocity 102
000002t:  Note on ::  Channel 0.  Note 64.  Velocity 0
000000t:  Note on ::  Channel 1.  Note 36.  Velocity 0
000002t:  Note on ::  Channel 1.  Note 48.  Velocity 116
000000t:  Note on ::  Channel 9.  Note 46.  Velocity 86
000000t:  Note on ::  Channel 9.  Note 82.  Velocity 73
000002t:  Note on ::  Channel 9.  Note 46.  Velocity 0
000001t:  Note on ::  Channel 9.  Note 82.  Velocity 0
000008t:  Note on ::  Channel 0.  Note 67.  Velocity 0
000000t:  Note on ::  Channel 0.  Note 64.  Velocity 104
000004t:  Note on ::  Channel 1.  Note 48.  Velocity 0
000012t:  Note on ::  Channel 0.  Note 64.  Velocity 0
000000t:  Note on ::  Channel 0.  Note 67.  Velocity 104
000014t:  Note on ::  Channel 0.  Note 67.  Velocity 0
000002t:  Note on ::  Channel 0.  Note 64.  Velocity 98
000002t:  Note on ::  Channel 9.  Note 36.  Velocity 120
000000t:  Note on ::  Channel 1.  Note 46.  Velocity 110
000002t:  Note on ::  Channel 9.  Note 36.  Velocity 0
000000t:  Note on ::  Channel 9.  Note 42.  Velocity 88
000002t:  Note on ::  Channel 9.  Note 42.  Velocity 0
000004t:  Note on ::  Channel 0.  Note 67.  Velocity 103
000002t:  Note on ::  Channel 0.  Note 64.  Velocity 0
000014t:  Note on ::  Channel 0.  Note 67.  Velocity 0
000003t:  Note on ::  Channel 0.  Note 64.  Velocity 99
000012t:  Note on ::  Channel 0.  Note 67.  Velocity 106
000002t:  Note on ::  Channel 0.  Note 64.  Velocity 0
000006t:  Note on ::  Channel 1.  Note 46.  Velocity 0
000000t:  Note on ::  Channel 9.  Note 46.  Velocity 100
000000t:  Note on ::  Channel 9.  Note 82.  Velocity 73
000000t:  Note on ::  Channel 1.  Note 36.  Velocity 108
000002t:  Note on ::  Channel 9.  Note 82.  Velocity 0
000000t:  Note on ::  Channel 9.  Note 46.  Velocity 0
000006t:  Note on ::  Channel 0.  Note 67.  Velocity 0
000000t:  Note on ::  Channel 0.  Note 64.  Velocity 98
000014t:  Note on ::  Channel 0.  Note 67.  Velocity 105
000002t:  Note on ::  Channel 0.  Note 64.  Velocity 0
000000t:  Note on ::  Channel 1.  Note 36.  Velocity 0
000000t:  Note on ::  Channel 9.  Note 82.  Velocity 50
000000t:  Note on ::  Channel 1.  Note 45.  Velocity 105
000002t:  Note on ::  Channel 9.  Note 82.  Velocity 0
000012t:  Note on ::  Channel 1.  Note 45.  Velocity 0
000000t:  Note on ::  Channel 0.  Note 67.  Velocity 0
000000t:  Note on ::  Channel 0.  Note 64.  Velocity 98
000008t:  Note on ::  Channel 9.  Note 36.  Velocity 120
000000t:  Note on ::  Channel 9.  Note 42.  Velocity 86
000002t:  Note on ::  Channel 9.  Note 42.  Velocity 0
000000t:  Note on ::  Channel 9.  Note 36.  Velocity 0
000002t:  Note on ::  Channel 0.  Note 67.  Velocity 98
000002t:  Note on ::  Channel 0.  Note 64.  Velocity 0
000014t:  Note on ::  Channel 0.  Note 64.  Velocity 99
000001t:  Note on ::  Channel 0.  Note 67.  Velocity 0
000002t:  Pitch wheel change ::  Channel 1.   -8192
000000t:  Note on ::  Channel 1.  Note 45.  Velocity 105
000010t:  Note on ::  Channel 0.  Note 67.  Velocity 95
000004t:  Note on ::  Channel 0.  Note 64.  Velocity 0
000008t:  Note on ::  Channel 0.  Note 64.  Velocity 95
000002t:  Note on ::  Channel 0.  Note 67.  Velocity 0
000000t:  Note on ::  Channel 9.  Note 46.  Velocity 100
000000t:  Note on ::  Channel 9.  Note 46.  Velocity 0
000000t:  Pitch wheel change ::  Channel 1.   -8192
000000t:  Note on ::  Channel 9.  Note 82.  Velocity 73
000002t:  Note on ::  Channel 9.  Note 82.  Velocity 0
000010t:  Note on ::  Channel 0.  Note 67.  Velocity 104
000005t:  Note on ::  Channel 0.  Note 64.  Velocity 0
000004t:  Note on ::  Channel 0.  Note 64.  Velocity 99
000002t:  Note on ::  Channel 1.  Note 45.  Velocity 0
000000t:  Note on ::  Channel 1.  Note 45.  Velocity 105
000008t:  Note on ::  Channel 0.  Note 67.  Velocity 0
000004t:  Note on ::  Channel 1.  Note 45.  Velocity 0
000002t:  Note on ::  Channel 0.  Note 64.  Velocity 0
000000t:  Note on ::  Channel 0.  Note 65.  Velocity 111
000008t:  Note on ::  Channel 9.  Note 42.  Velocity 90
000000t:  Note on ::  Channel 1.  Note 46.  Velocity 116
000000t:  Note on ::  Channel 9.  Note 36.  Velocity 125
000002t:  Note on ::  Channel 9.  Note 36.  Velocity 0
000000t:  Note on ::  Channel 9.  Note 42.  Velocity 0
000006t:  Note on ::  Channel 0.  Note 65.  Velocity 0
000000t:  Note on ::  Channel 0.  Note 69.  Velocity 106
000008t:  Note on ::  Channel 1.  Note 46.  Velocity 0
000008t:  Note on ::  Channel 0.  Note 69.  Velocity 0
000002t:  Note on ::  Channel 0.  Note 65.  Velocity 106
000012t:  Note on ::  Channel 0.  Note 69.  Velocity 100
000002t:  Note on ::  Channel 0.  Note 65.  Velocity 0
000004t:  Pitch wheel change ::  Channel 1.   -8192
000002t:  Note on ::  Channel 1.  Note 48.  Velocity 110
000000t:  Note on ::  Channel 9.  Note 46.  Velocity 93
000000t:  Note on ::  Channel 9.  Note 50.  Velocity 99
000000t:  Note on ::  Channel 9.  Note 82.  Velocity 67
000003t:  Note on ::  Channel 9.  Note 82.  Velocity 0
000000t:  Note on ::  Channel 9.  Note 46.  Velocity 0
000000t:  Note on ::  Channel 9.  Note 50.  Velocity 0
000006t:  Note on ::  Channel 0.  Note 69.  Velocity 0
000000t:  Note on ::  Channel 0.  Note 65.  Velocity 102
000010t:  Note on ::  Channel 0.  Note 69.  Velocity 102
000004t:  Note on ::  Channel 0.  Note 65.  Velocity 0
000000t:  Pitch wheel change ::  Channel 1.   -8192
000000t:  Note on ::  Channel 9.  Note 82.  Velocity 56
000002t:  Note on ::  Channel 9.  Note 82.  Velocity 0
000009t:  Note on ::  Channel 0.  Note 65.  Velocity 99
000006t:  Note on ::  Channel 0.  Note 69.  Velocity 0
000008t:  Note on ::  Channel 0.  Note 65.  Velocity 0
000000t:  Note on ::  Channel 1.  Note 36.  Velocity 108
000000t:  Note on ::  Channel 9.  Note 36.  Velocity 120
000000t:  Note on ::  Channel 9.  Note 42.  Velocity 90
000002t:  Note on ::  Channel 9.  Note 42.  Velocity 0
000000t:  Note on ::  Channel 9.  Note 36.  Velocity 0
000000t:  Note on ::  Channel 1.  Note 48.  Velocity 0
000002t:  Note on ::  Channel 0.  Note 67.  Velocity 111
000012t:  Note on ::  Channel 0.  Note 70.  Velocity 105
000004t:  Note on ::  Channel 0.  Note 67.  Velocity 0
000014t:  Note on ::  Channel 0.  Note 70.  Velocity 0
000000t:  Note on ::  Channel 0.  Note 67.  Velocity 106
000010t:  Note on ::  Channel 9.  Note 46.  Velocity 93
000000t:  Note on ::  Channel 1.  Note 48.  Velocity 105
000000t:  Note on ::  Channel 9.  Note 82.  Velocity 70
000002t:  Note on ::  Channel 9.  Note 82.  Velocity 0
000000t:  Note on ::  Channel 9.  Note 46.  Velocity 0
000002t:  Note on ::  Channel 1.  Note 36.  Velocity 0
000000t:  Note on ::  Channel 0.  Note 67.  Velocity 0
000000t:  Note on ::  Channel 0.  Note 70.  Velocity 103
000012t:  Note on ::  Channel 0.  Note 70.  Velocity 0
000000t:  Note on ::  Channel 0.  Note 67.  Velocity 102
000002t:  Note on ::  Channel 1.  Note 48.  Velocity 0
000014t:  Note on ::  Channel 0.  Note 67.  Velocity 0
000000t:  Note on ::  Channel 0.  Note 70.  Velocity 105
000013t:  Note on ::  Channel 0.  Note 70.  Velocity 0
000000t:  Note on ::  Channel 0.  Note 67.  Velocity 104
000002t:  Note on ::  Channel 9.  Note 36.  Velocity 118
000000t:  Note on ::  Channel 9.  Note 42.  Velocity 90
000000t:  Note on ::  Channel 1.  Note 46.  Velocity 110
000002t:  Note on ::  Channel 9.  Note 42.  Velocity 0
000000t:  Note on ::  Channel 9.  Note 36.  Velocity 0
000012t:  Note on ::  Channel 0.  Note 67.  Velocity 0
000000t:  Note on ::  Channel 0.  Note 70.  Velocity 106
000010t:  Note on ::  Channel 4.  Note 46.  Velocity 111
000002t:  Note on ::  Channel 0.  Note 70.  Velocity 0
000002t:  Note on ::  Channel 0.  Note 67.  Velocity 103
000005t:  Note on ::  Channel 4.  Note 46.  Velocity 0
000010t:  Note on ::  Channel 0.  Note 67.  Velocity 0
000000t:  Note on ::  Channel 0.  Note 70.  Velocity 104
000004t:  Note on ::  Channel 9.  Note 82.  Velocity 67
000000t:  Note on ::  Channel 9.  Note 46.  Velocity 93
000000t:  Note on ::  Channel 1.  Note 36.  Velocity 108
000000t:  Note on ::  Channel 4.  Note 48.  Velocity 100
000002t:  Note on ::  Channel 9.  Note 46.  Velocity 0
000000t:  Note on ::  Channel 9.  Note 82.  Velocity 0
000000t:  Note on ::  Channel 1.  Note 46.  Velocity 0
000006t:  Note on ::  Channel 0.  Note 70.  Velocity 0
000000t:  Note on ::  Channel 4.  Note 48.  Velocity 0
000002t:  Note on ::  Channel 0.  Note 67.  Velocity 103
000012t:  Note on ::  Channel 9.  Note 82.  Velocity 56
000000t:  Note on ::  Channel 0.  Note 70.  Velocity 105
000002t:  Note on ::  Channel 9.  Note 82.  Velocity 0
000000t:  Note on ::  Channel 0.  Note 67.  Velocity 0
000000t:  Note on ::  Channel 1.  Note 46.  Velocity 110
000000t:  Note on ::  Channel 4.  Note 50.  Velocity 111
000002t:  Note on ::  Channel 1.  Note 36.  Velocity 0
000006t:  Note on ::  Channel 4.  Note 50.  Velocity 0
000005t:  Note on ::  Channel 0.  Note 70.  Velocity 0
000002t:  Note on ::  Channel 1.  Note 46.  Velocity 0
000000t:  Note on ::  Channel 0.  Note 67.  Velocity 104
000006t:  Note on ::  Channel 9.  Note 36.  Velocity 122
000000t:  Note on ::  Channel 9.  Note 42.  Velocity 86
000002t:  Note on ::  Channel 9.  Note 42.  Velocity 0
000000t:  Note on ::  Channel 9.  Note 36.  Velocity 0
000004t:  Note on ::  Channel 0.  Note 70.  Velocity 104
000002t:  Note on ::  Channel 0.  Note 67.  Velocity 0
000014t:  Note on ::  Channel 0.  Note 70.  Velocity 0
000000t:  Note on ::  Channel 0.  Note 67.  Velocity 104
000002t:  Note on ::  Channel 1.  Note 45.  Velocity 113
000011t:  Note on ::  Channel 0.  Note 70.  Velocity 102
000002t:  Note on ::  Channel 0.  Note 67.  Velocity 0
000004t:  Note on ::  Channel 1.  Note 45.  Velocity 0
000006t:  Note on ::  Channel 9.  Note 46.  Velocity 100
000000t:  Note on ::  Channel 9.  Note 82.  Velocity 80
000002t:  Note on ::  Channel 9.  Note 82.  Velocity 0
000000t:  Note on ::  Channel 9.  Note 46.  Velocity 0
000000t:  Note on ::  Channel 0.  Note 70.  Velocity 0
000002t:  Note on ::  Channel 0.  Note 67.  Velocity 105
000012t:  Note on ::  Channel 0.  Note 70.  Velocity 105
000002t:  Note on ::  Channel 0.  Note 67.  Velocity 0
000005t:  Note on ::  Channel 1.  Note 45.  Velocity 110
000008t:  Note on ::  Channel 0.  Note 67.  Velocity 105
000002t:  Note on ::  Channel 0.  Note 70.  Velocity 0
000008t:  Note on ::  Channel 1.  Note 45.  Velocity 0
000004t:  Note on ::  Channel 9.  Note 36.  Velocity 122
000000t:  Note on ::  Channel 9.  Note 42.  Velocity 93
000000t:  Note on ::  Channel 1.  Note 43.  Velocity 110
000002t:  Note on ::  Channel 9.  Note 42.  Velocity 0
000000t:  Note on ::  Channel 9.  Note 36.  Velocity 0
000002t:  Note on ::  Channel 0.  Note 67.  Velocity 0
000001t:  Note on ::  Channel 0.  Note 65.  Velocity 120
000012t:  Note on ::  Channel 1.  Note 43.  Velocity 0
000002t:  Note on ::  Channel 0.  Note 65.  Velocity 0
000002t:  Note on ::  Channel 0.  Note 69.  Velocity 101
000004t:  Note on ::  Channel 1.  Note 43.  Velocity 108
000010t:  Note on ::  Channel 0.  Note 65.  Velocity 109
000002t:  Note on ::  Channel 0.  Note 69.  Velocity 0
000002t:  Note on ::  Channel 1.  Note 43.  Velocity 0
000008t:  Note on ::  Channel 9.  Note 46.  Velocity 100
000000t:  Note on ::  Channel 9.  Note 50.  Velocity 96
000000t:  Note on ::  Channel 9.  Note 82.  Velocity 73
000000t:  Note on ::  Channel 1.  Note 45.  Velocity 116
000002t:  Note on ::  Channel 9.  Note 82.  Velocity 0
000000t:  Note on ::  Channel 9.  Note 50.  Velocity 0
000000t:  Note on ::  Channel 9.  Note 46.  Velocity 0
000001t:  Note on ::  Channel 0.  Note 65.  Velocity 0
000002t:  Note on ::  Channel 0.  Note 69.  Velocity 102
000012t:  Note on ::  Channel 0.  Note 65.  Velocity 105
000002t:  Note on ::  Channel 0.  Note 69.  Velocity 0
000006t:  Note on ::  Channel 9.  Note 82.  Velocity 64
000002t:  Note on ::  Channel 9.  Note 82.  Velocity 0
000002t:  Note on ::  Channel 0.  Note 69.  Velocity 100
000002t:  Note on ::  Channel 0.  Note 65.  Velocity 0
000010t:  Note on ::  Channel 1.  Note 45.  Velocity 0
000003t:  Note on ::  Channel 0.  Note 65.  Velocity 107
000002t:  Note on ::  Channel 9.  Note 36.  Velocity 125
000000t:  Note on ::  Channel 9.  Note 42.  Velocity 93
000000t:  Note on ::  Channel 1.  Note 36.  Velocity 113
000002t:  Note on ::  Channel 9.  Note 42.  Velocity 0
000000t:  Note on ::  Channel 9.  Note 36.  Velocity 0
000002t:  Note on ::  Channel 0.  Note 69.  Velocity 0
000002t:  Note on ::  Channel 0.  Note 69.  Velocity 111
000008t:  Note on ::  Channel 0.  Note 65.  Velocity 0
000006t:  Note on ::  Channel 0.  Note 69.  Velocity 0
000000t:  Note on ::  Channel 0.  Note 70.  Velocity 106
000016t:  Note on ::  Channel 0.  Note 70.  Velocity 0
000000t:  Note on ::  Channel 0.  Note 69.  Velocity 103
000008t:  Note on ::  Channel 1.  Note 36.  Velocity 0
000002t:  Note on ::  Channel 0.  Note 67.  Velocity 118
000000t:  Note on ::  Channel 1.  Note 48.  Velocity 116
000000t:  Note on ::  Channel 9.  Note 46.  Velocity 100
000000t:  Note on ::  Channel 9.  Note 82.  Velocity 70
000002t:  Note on ::  Channel 9.  Note 82.  Velocity 0
000000t:  Note on ::  Channel 9.  Note 46.  Velocity 0
000003t:  Note on ::  Channel 0.  Note 69.  Velocity 0
000010t:  Note on ::  Channel 1.  Note 48.  Velocity 0
000002t:  Note on ::  Channel 0.  Note 67.  Velocity 0
000000t:  Note on ::  Channel 0.  Note 64.  Velocity 106
000014t:  Note on ::  Channel 0.  Note 67.  Velocity 105
000001t:  Note on ::  Channel 0.  Note 64.  Velocity 0
000012t:  Note on ::  Channel 0.  Note 67.  Velocity 0
000000t:  Note on ::  Channel 0.  Note 64.  Velocity 98
000002t:  Note on ::  Channel 9.  Note 36.  Velocity 125
000000t:  Note on ::  Channel 1.  Note 46.  Velocity 110
000000t:  Note on ::  Channel 9.  Note 42.  Velocity 88
000002t:  Note on ::  Channel 9.  Note 42.  Velocity 0
000000t:  Note on ::  Channel 9.  Note 36.  Velocity 0
000010t:  Note on ::  Channel 0.  Note 67.  Velocity 103
000002t:  Note on ::  Channel 0.  Note 64.  Velocity 0
000012t:  Note on ::  Channel 0.  Note 67.  Velocity 0
000002t:  Note on ::  Channel 0.  Note 64.  Velocity 99
000014t:  Note on ::  Channel 0.  Note 64.  Velocity 0
000000t:  Note on ::  Channel 0.  Note 67.  Velocity 98
000004t:  Note on ::  Channel 1.  Note 46.  Velocity 0
000000t:  Note on ::  Channel 9.  Note 46.  Velocity 100
000000t:  Note on ::  Channel 9.  Note 82.  Velocity 70
000000t:  Note on ::  Channel 1.  Note 36.  Velocity 108
000002t:  Note on ::  Channel 9.  Note 82.  Velocity 0
000000t:  Note on ::  Channel 9.  Note 46.  Velocity 0
000008t:  Note on ::  Channel 0.  Note 64.  Velocity 98
000002t:  Note on ::  Channel 0.  Note 67.  Velocity 0
000010t:  Note on ::  Channel 0.  Note 64.  Velocity 0
000002t:  Note on ::  Channel 1.  Note 36.  Velocity 0
000000t:  Note on ::  Channel 9.  Note 82.  Velocity 56
000000t:  Note on ::  Channel 9.  Note 82.  Velocity 0
000000t:  Note on ::  Channel 0.  Note 67.  Velocity 98
000000t:  Note on ::  Channel 1.  Note 45.  Velocity 105
000013t:  Note on ::  Channel 0.  Note 67.  Velocity 0
000000t:  Note on ::  Channel 0.  Note 64.  Velocity 100
000002t:  Note on ::  Channel 1.  Note 45.  Velocity 0
000008t:  Note on ::  Channel 9.  Note 36.  Velocity 122
000000t:  Note on ::  Channel 9.  Note 42.  Velocity 88
000002t:  Note on ::  Channel 9.  Note 42.  Velocity 0
000000t:  Note on ::  Channel 9.  Note 36.  Velocity 0
000002t:  Note on ::  Channel 0.  Note 64.  Velocity 0
000002t:  Note on ::  Channel 0.  Note 67.  Velocity 105
000014t:  Note on ::  Channel 0.  Note 67.  Velocity 0
000000t:  Note on ::  Channel 0.  Note 64.  Velocity 99
000002t:  Pitch wheel change ::  Channel 1.   -8192
000002t:  Note on ::  Channel 1.  Note 45.  Velocity 105
000008t:  Note on ::  Channel 0.  Note 67.  Velocity 104
000004t:  Note on ::  Channel 0.  Note 64.  Velocity 0
000011t:  Pitch wheel change ::  Channel 1.   -8192
000000t:  Note on ::  Channel 9.  Note 82.  Velocity 80
000000t:  Note on ::  Channel 9.  Note 46.  Velocity 102
000001t:  Note on ::  Channel 9.  Note 46.  Velocity 0
000000t:  Note on ::  Channel 9.  Note 82.  Velocity 0
000000t:  Note on ::  Channel 0.  Note 67.  Velocity 0
000000t:  Note on ::  Channel 0.  Note 64.  Velocity 99
000013t:  Note on ::  Channel 0.  Note 67.  Velocity 98
000002t:  Note on ::  Channel 0.  Note 64.  Velocity 0
000006t:  Note on ::  Channel 1.  Note 45.  Velocity 0
000000t:  Note on ::  Channel 1.  Note 45.  Velocity 105
000008t:  Note on ::  Channel 0.  Note 67.  Velocity 0
000000t:  Note on ::  Channel 0.  Note 64.  Velocity 99
000004t:  Note on ::  Channel 1.  Note 45.  Velocity 0
000008t:  Note on ::  Channel 0.  Note 67.  Velocity 98
000002t:  Note on ::  Channel 9.  Note 36.  Velocity 122
000002t:  Note on ::  Channel 9.  Note 36.  Velocity 0
000000t:  Note on ::  Channel 0.  Note 64.  Velocity 0
000000t:  Note on ::  Channel 1.  Note 46.  Velocity 116
000000t:  Note on ::  Channel 9.  Note 42.  Velocity 90
000000t:  Note on ::  Channel 9.  Note 42.  Velocity 0
000013t:  Note on ::  Channel 0.  Note 67.  Velocity 0
000000t:  Note on ::  Channel 0.  Note 64.  Velocity 96
000002t:  Note on ::  Channel 1.  Note 46.  Velocity 0
000008t:  Note on ::  Channel 0.  Note 67.  Velocity 98
000004t:  Note on ::  Channel 0.  Note 64.  Velocity 0
000016t:  Note on ::  Channel 0.  Note 67.  Velocity 0
000000t:  Note on ::  Channel 0.  Note 64.  Velocity 99
000000t:  Pitch wheel change ::  Channel 1.   -8192
000002t:  Note on ::  Channel 1.  Note 48.  Velocity 110
000000t:  Note on ::  Channel 9.  Note 50.  Velocity 99
000000t:  Note on ::  Channel 9.  Note 82.  Velocity 80
000002t:  Note on ::  Channel 9.  Note 82.  Velocity 0
000000t:  Note on ::  Channel 9.  Note 50.  Velocity 0
000010t:  Note on ::  Channel 0.  Note 67.  Velocity 99
000002t:  Note on ::  Channel 0.  Note 64.  Velocity 0
000008t:  Pitch wheel change ::  Channel 1.   -8192
000002t:  Note on ::  Channel 9.  Note 82.  Velocity 62
000002t:  Note on ::  Channel 9.  Note 82.  Velocity 0
000003t:  Note on ::  Channel 0.  Note 64.  Velocity 101
000002t:  Note on ::  Channel 0.  Note 67.  Velocity 0
000010t:  Note on ::  Channel 0.  Note 67.  Velocity 88
000004t:  Note on ::  Channel 0.  Note 64.  Velocity 0
000002t:  Note on ::  Channel 1.  Note 36.  Velocity 116
000000t:  Note on ::  Channel 4.  Note 69.  Velocity 111
000000t:  Note on ::  Channel 6.  Note 84.  Velocity 110
000000t:  Note on ::  Channel 8.  Note 81.  Velocity 104
000000t:  Note on ::  Channel 9.  Note 38.  Velocity 124
000000t:  Note on ::  Channel 9.  Note 36.  Velocity 125
000002t:  Note on ::  Channel 9.  Note 36.  Velocity 0
000000t:  Note on ::  Channel 9.  Note 38.  Velocity 0
000000t:  Note on ::  Channel 1.  Note 48.  Velocity 0
000000t:  Note on ::  Channel 0.  Note 67.  Velocity 0
000012t:  Note on ::  Channel 8.  Note 81.  Velocity 0
000000t:  Note on ::  Channel 1.  Note 36.  Velocity 0
000002t:  Note on ::  Channel 4.  Note 69.  Velocity 0
000000t:  Note on ::  Channel 6.  Note 84.  Velocity 0
000004t:  Note on ::  Channel 1.  Note 36.  Velocity 122
000003t:  Note on ::  Channel 4.  Note 69.  Velocity 95
000000t:  Note on ::  Channel 6.  Note 84.  Velocity 110
000000t:  Note on ::  Channel 8.  Note 81.  Velocity 103
000000t:  Note on ::  Channel 9.  Note 38.  Velocity 120
000002t:  Note on ::  Channel 9.  Note 38.  Velocity 0
000012t:  Note on ::  Channel 1.  Note 36.  Velocity 0
000000t:  Note on ::  Channel 8.  Note 81.  Velocity 0
000002t:  Note on ::  Channel 6.  Note 84.  Velocity 0
000000t:  Note on ::  Channel 4.  Note 69.  Velocity 0
000004t:  Note on ::  Channel 1.  Note 36.  Velocity 122
000003t:  Note on ::  Channel 4.  Note 69.  Velocity 95
000000t:  Note on ::  Channel 8.  Note 81.  Velocity 103
000000t:  Note on ::  Channel 6.  Note 84.  Velocity 110
000000t:  Note on ::  Channel 9.  Note 38.  Velocity 116
000002t:  Note on ::  Channel 9.  Note 38.  Velocity 0
000012t:  Note on ::  Channel 8.  Note 81.  Velocity 0
000002t:  Note on ::  Channel 6.  Note 84.  Velocity 0
000000t:  Note on ::  Channel 1.  Note 36.  Velocity 0
000002t:  Note on ::  Channel 4.  Note 69.  Velocity 0
000004t:  Note on ::  Channel 1.  Note 36.  Velocity 122
000000t:  Note on ::  Channel 4.  Note 69.  Velocity 98
000000t:  Note on ::  Channel 9.  Note 38.  Velocity 118
000000t:  Note on ::  Channel 6.  Note 84.  Velocity 110
000000t:  Note on ::  Channel 8.  Note 81.  Velocity 103
000002t:  Note on ::  Channel 9.  Note 38.  Velocity 0
000014t:  Note on ::  Channel 8.  Note 81.  Velocity 0
000002t:  Note on ::  Channel 1.  Note 36.  Velocity 0
000000t:  Note on ::  Channel 4.  Note 69.  Velocity 0
000000t:  Note on ::  Channel 6.  Note 84.  Velocity 0
000006t:  Note on ::  Channel 9.  Note 36.  Velocity 125
000000t:  Note on ::  Channel 9.  Note 36.  Velocity 0
000023t:  Note on ::  Channel 9.  Note 50.  Velocity 83
000002t:  Note on ::  Channel 9.  Note 50.  Velocity 0
000022t:  Note on ::  Channel 9.  Note 47.  Velocity 80
000002t:  Note on ::  Channel 9.  Note 47.  Velocity 0
000022t:  Note on ::  Channel 9.  Note 47.  Velocity 90
000002t:  Note on ::  Channel 9.  Note 47.  Velocity 0
000018t:  Note on ::  Channel 9.  Note 36.  Velocity 125
000002t:  Note on ::  Channel 9.  Note 36.  Velocity 0
000023t:  Note on ::  Channel 9.  Note 65.  Velocity 90
000002t:  Note on ::  Channel 9.  Note 65.  Velocity 0
000020t:  Note on ::  Channel 2.  Note 29.  Velocity 120
000000t:  Note on ::  Channel 10.  Note 53.  Velocity 117
000024t:  Note on ::  Channel 9.  Note 65.  Velocity 90
000002t:  Note on ::  Channel 9.  Note 65.  Velocity 0
000012t:  Note on ::  Channel 2.  Note 29.  Velocity 0
000002t:  Note on ::  Channel 10.  Note 53.  Velocity 0
000005t:  Note on ::  Channel 2.  Note 34.  Velocity 120
000002t:  Note on ::  Channel 10.  Note 58.  Velocity 117
000002t:  Note on ::  Channel 9.  Note 65.  Velocity 98
000002t:  Note on ::  Channel 9.  Note 65.  Velocity 0
000020t:  Note on ::  Channel 9.  Note 65.  Velocity 90
000002t:  Note on ::  Channel 9.  Note 65.  Velocity 0
000012t:  Note on ::  Channel 2.  Note 34.  Velocity 0
000002t:  Note on ::  Channel 10.  Note 58.  Velocity 0
000004t:  Note on ::  Channel 2.  Note 35.  Velocity 120
000000t:  Note on ::  Channel 10.  Note 65.  Velocity 117
000005t:  Note on ::  Channel 9.  Note 66.  Velocity 98
000002t:  Note on ::  Channel 9.  Note 66.  Velocity 0
000036t:  Note on ::  Channel 2.  Note 35.  Velocity 0
000003t:  Note on ::  Channel 10.  Note 64.  Velocity 113
000001t:  Note on ::  Channel 9.  Note 49.  Velocity 90
000000t:  Note on ::  Channel 9.  Note 36.  Velocity 118
000000t:  Note on ::  Channel 2.  Note 36.  Velocity 120
000002t:  Note on ::  Channel 9.  Note 36.  Velocity 0
000000t:  Note on ::  Channel 9.  Note 49.  Velocity 0
000002t:  Note on ::  Channel 10.  Note 65.  Velocity 0
000026t:  Note on ::  Channel 10.  Note 64.  Velocity 0
000016t:  Note on ::  Channel 9.  Note 46.  Velocity 88
000000t:  Note on ::  Channel 9.  Note 82.  Velocity 85
000002t:  Note on ::  Channel 9.  Note 82.  Velocity 0
000000t:  Note on ::  Channel 9.  Note 46.  Velocity 0
000020t:  Note on ::  Channel 10.  Note 60.  Velocity 121
000011t:  Note on ::  Channel 2.  Note 36.  Velocity 0
000012t:  Note on ::  Channel 2.  Note 36.  Velocity 120
000023t:  Note on ::  Channel 10.  Note 60.  Velocity 0
000000t:  Note on ::  Channel 9.  Note 36.  Velocity 125
000000t:  Note on ::  Channel 9.  Note 42.  Velocity 86
000002t:  Note on ::  Channel 9.  Note 42.  Velocity 0
000000t:  Note on ::  Channel 9.  Note 36.  Velocity 0
000044t:  Note on ::  Channel 10.  Note 58.  Velocity 120
000000t:  Note on ::  Channel 9.  Note 46.  Velocity 86
000000t:  Note on ::  Channel 9.  Note 50.  Velocity 100
000000t:  Note on ::  Channel 9.  Note 82.  Velocity 73
000002t:  Note on ::  Channel 9.  Note 82.  Velocity 0
000000t:  Note on ::  Channel 9.  Note 46.  Velocity 0
000000t:  Note on ::  Channel 9.  Note 50.  Velocity 0
000013t:  Note on ::  Channel 2.  Note 36.  Velocity 0
000008t:  Note on ::  Channel 2.  Note 36.  Velocity 120
000000t:  Note on ::  Channel 9.  Note 82.  Velocity 56
000002t:  Note on ::  Channel 9.  Note 82.  Velocity 0
000020t:  Note on ::  Channel 9.  Note 36.  Velocity 125
000000t:  Note on ::  Channel 9.  Note 42.  Velocity 86
000002t:  Note on ::  Channel 9.  Note 42.  Velocity 0
000000t:  Note on ::  Channel 9.  Note 36.  Velocity 0
000045t:  Note on ::  Channel 2.  Note 36.  Velocity 0
000000t:  Note on ::  Channel 2.  Note 31.  Velocity 120
000000t:  Note on ::  Channel 9.  Note 46.  Velocity 86
000000t:  Note on ::  Channel 9.  Note 82.  Velocity 73
000002t:  Note on ::  Channel 9.  Note 82.  Velocity 0
000000t:  Note on ::  Channel 9.  Note 46.  Velocity 0
000042t:  Note on ::  Channel 2.  Note 31.  Velocity 0
000002t:  Note on ::  Channel 9.  Note 36.  Velocity 114
000000t:  Note on ::  Channel 2.  Note 36.  Velocity 120
000000t:  Note on ::  Channel 9.  Note 42.  Velocity 86
000002t:  Note on ::  Channel 9.  Note 36.  Velocity 0
000001t:  Note on ::  Channel 9.  Note 42.  Velocity 0
000042t:  Note on ::  Channel 9.  Note 46.  Velocity 81
000000t:  Note on ::  Channel 2.  Note 31.  Velocity 120
000003t:  Note on ::  Channel 9.  Note 46.  Velocity 0
000000t:  Note on ::  Channel 2.  Note 36.  Velocity 0
000000t:  Note on ::  Channel 9.  Note 82.  Velocity 67
000000t:  Note on ::  Channel 9.  Note 50.  Velocity 100
000002t:  Note on ::  Channel 9.  Note 50.  Velocity 0
000000t:  Note on ::  Channel 9.  Note 82.  Velocity 0
000020t:  Note on ::  Channel 9.  Note 82.  Velocity 60
000002t:  Note on ::  Channel 9.  Note 82.  Velocity 0
000016t:  Note on ::  Channel 2.  Note 31.  Velocity 0
000004t:  Note on ::  Channel 9.  Note 36.  Velocity 122
000000t:  Note on ::  Channel 9.  Note 42.  Velocity 86
000000t:  Note on ::  Channel 2.  Note 29.  Velocity 120
000002t:  Note on ::  Channel 9.  Note 42.  Velocity 0
000000t:  Note on ::  Channel 9.  Note 36.  Velocity 0
000010t:  Note on ::  Channel 10.  Note 58.  Velocity 0
000033t:  Note on ::  Channel 9.  Note 46.  Velocity 88
000002t:  Note on ::  Channel 9.  Note 46.  Velocity 0
000000t:  Note on ::  Channel 6.  Note 81.  Velocity 110
000000t:  Note on ::  Channel 6.  Note 77.  Velocity 110
000000t:  Note on ::  Channel 9.  Note 82.  Velocity 73
000002t:  Note on ::  Channel 9.  Note 82.  Velocity 0
000018t:  Note on ::  Channel 6.  Note 77.  Velocity 0
000002t:  Note on ::  Channel 6.  Note 81.  Velocity 0
000000t:  Note on ::  Channel 6.  Note 82.  Velocity 110
000000t:  Note on ::  Channel 6.  Note 79.  Velocity 110
000010t:  Note on ::  Channel 2.  Note 29.  Velocity 0
000009t:  Note on ::  Channel 6.  Note 79.  Velocity 0
000000t:  Note on ::  Channel 6.  Note 82.  Velocity 0
000004t:  Note on ::  Channel 2.  Note 29.  Velocity 120
000002t:  Note on ::  Channel 9.  Note 36.  Velocity 125
000000t:  Note on ::  Channel 9.  Note 36.  Velocity 0
000000t:  Note on ::  Channel 9.  Note 42.  Velocity 86
000000t:  Note on ::  Channel 9.  Note 42.  Velocity 0
000022t:  Note on ::  Channel 6.  Note 79.  Velocity 110
000002t:  Note on ::  Channel 6.  Note 82.  Velocity 110
000006t:  Note on ::  Channel 6.  Note 82.  Velocity 0
000000t:  Note on ::  Channel 6.  Note 79.  Velocity 0
000014t:  Note on ::  Channel 9.  Note 46.  Velocity 86
000000t:  Note on ::  Channel 9.  Note 50.  Velocity 100
000000t:  Note on ::  Channel 9.  Note 82.  Velocity 64
000002t:  Note on ::  Channel 9.  Note 82.  Velocity 0
000000t:  Note on ::  Channel 9.  Note 50.  Velocity 0
000000t:  Note on ::  Channel 9.  Note 46.  Velocity 0
000000t:  Note on ::  Channel 6.  Note 79.  Velocity 110
000000t:  Note on ::  Channel 6.  Note 82.  Velocity 110
000006t:  Note on ::  Channel 6.  Note 82.  Velocity 0
000000t:  Note on ::  Channel 6.  Note 79.  Velocity 0
000006t:  Note on ::  Channel 2.  Note 29.  Velocity 0
000011t:  Note on ::  Channel 9.  Note 82.  Velocity 52
000000t:  Note on ::  Channel 2.  Note 29.  Velocity 120
000000t:  Note on ::  Channel 6.  Note 79.  Velocity 110
000002t:  Note on ::  Channel 9.  Note 82.  Velocity 0
000000t:  Note on ::  Channel 6.  Note 82.  Velocity 110
000006t:  Note on ::  Channel 6.  Note 82.  Velocity 0
000000t:  Note on ::  Channel 6.  Note 79.  Velocity 0
000014t:  Note on ::  Channel 9.  Note 36.  Velocity 122
000000t:  Note on ::  Channel 9.  Note 42.  Velocity 81
000000t:  Note on ::  Channel 6.  Note 79.  Velocity 110
000002t:  Note on ::  Channel 9.  Note 42.  Velocity 0
000000t:  Note on ::  Channel 9.  Note 36.  Velocity 0
000000t:  Note on ::  Channel 6.  Note 82.  Velocity 110
000006t:  Note on ::  Channel 6.  Note 82.  Velocity 0
000000t:  Note on ::  Channel 6.  Note 79.  Velocity 0
000010t:  Note on ::  Channel 2.  Note 29.  Velocity 0
000006t:  Note on ::  Channel 2.  Note 29.  Velocity 120
000011t:  Note on ::  Channel 2.  Note 29.  Velocity 0
000012t:  Note on ::  Channel 9.  Note 82.  Velocity 73
000000t:  Note on ::  Channel 9.  Note 46.  Velocity 88
000000t:  Note on ::  Channel 2.  Note 29.  Velocity 120
000000t:  Note on ::  Channel 10.  Note 53.  Velocity 113
000000t:  Note on ::  Channel 6.  Note 81.  Velocity 110
000000t:  Note on ::  Channel 6.  Note 77.  Velocity 110
000002t:  Note on ::  Channel 9.  Note 46.  Velocity 0
000000t:  Note on ::  Channel 9.  Note 82.  Velocity 0
000040t:  Note on ::  Channel 10.  Note 53.  Velocity 0
000002t:  Note on ::  Channel 2.  Note 29.  Velocity 0
000000t:  Note on ::  Channel 9.  Note 36.  Velocity 122
000000t:  Note on ::  Channel 10.  Note 58.  Velocity 117
000002t:  Note on ::  Channel 9.  Note 36.  Velocity 0
000000t:  Note on ::  Channel 2.  Note 34.  Velocity 120
000000t:  Note on ::  Channel 9.  Note 42.  Velocity 81
000002t:  Note on ::  Channel 9.  Note 42.  Velocity 0
000041t:  Note on ::  Channel 10.  Note 58.  Velocity 0
000000t:  Note on ::  Channel 2.  Note 34.  Velocity 0
000002t:  Note on ::  Channel 10.  Note 65.  Velocity 119
000000t:  Note on ::  Channel 9.  Note 47.  Velocity 90
000000t:  Note on ::  Channel 9.  Note 46.  Velocity 88
000000t:  Note on ::  Channel 2.  Note 35.  Velocity 120
000000t:  Note on ::  Channel 9.  Note 82.  Velocity 60
000002t:  Note on ::  Channel 9.  Note 82.  Velocity 0
000000t:  Note on ::  Channel 9.  Note 47.  Velocity 0
000000t:  Note on ::  Channel 9.  Note 46.  Velocity 0
000022t:  Note on ::  Channel 9.  Note 82.  Velocity 70
000002t:  Note on ::  Channel 9.  Note 82.  Velocity 0
000017t:  Note on ::  Channel 2.  Note 35.  Velocity 0
000002t:  Note on ::  Channel 6.  Note 81.  Velocity 0
000000t:  Note on ::  Channel 6.  Note 77.  Velocity 0
000002t:  Note on ::  Channel 10.  Note 64.  Velocity 119
000000t:  Note on ::  Channel 9.  Note 36.  Velocity 125
000000t:  Note on ::  Channel 9.  Note 42.  Velocity 81
000000t:  Note on ::  Channel 2.  Note 36.  Velocity 120
000002t:  Note on ::  Channel 9.  Note 42.  Velocity 0
000000t:  Note on ::  Channel 9.  Note 36.  Velocity 0
000002t:  Note on ::  Channel 10.  Note 65.  Velocity 0
000022t:  Note on ::  Channel 10.  Note 64.  Velocity 0
000019t:  Note on ::  Channel 9.  Note 46.  Velocity 81
000001t:  Note on ::  Channel 9.  Note 46.  Velocity 0
000000t:  Note on ::  Channel 9.  Note 82.  Velocity 73
000000t:  Note on ::  Channel 9.  Note 82.  Velocity 0
000024t:  Note on ::  Channel 10.  Note 60.  Velocity 117
000010t:  Note on ::  Channel 2.  Note 36.  Velocity 0
000010t:  Note on ::  Channel 2.  Note 36.  Velocity 120
000002t:  Note on ::  Channel 10.  Note 60.  Velocity 0
000000t:  Note on ::  Channel 9.  Note 36.  Velocity 122
000000t:  Note on ::  Channel 9.  Note 42.  Velocity 86
000002t:  Note on ::  Channel 9.  Note 42.  Velocity 0
000000t:  Note on ::  Channel 9.  Note 36.  Velocity 0
000045t:  Note on ::  Channel 10.  Note 58.  Velocity 120
000000t:  Note on ::  Channel 9.  Note 46.  Velocity 90
000000t:  Note on ::  Channel 9.  Note 46.  Velocity 0
000000t:  Note on ::  Channel 9.  Note 82.  Velocity 54
000000t:  Note on ::  Channel 9.  Note 82.  Velocity 0
000000t:  Note on ::  Channel 10.  Note 62.  Velocity 117
000000t:  Note on ::  Channel 9.  Note 50.  Velocity 98
000002t:  Note on ::  Channel 9.  Note 50.  Velocity 0
000008t:  Note on ::  Channel 2.  Note 36.  Velocity 0
000012t:  Note on ::  Channel 9.  Note 82.  Velocity 62
000000t:  Note on ::  Channel 2.  Note 36.  Velocity 120
000002t:  Note on ::  Channel 9.  Note 82.  Velocity 0
000020t:  Note on ::  Channel 9.  Note 42.  Velocity 81
000002t:  Note on ::  Channel 9.  Note 42.  Velocity 0
000000t:  Note on ::  Channel 9.  Note 36.  Velocity 122
000003t:  Note on ::  Channel 9.  Note 36.  Velocity 0
000040t:  Note on ::  Channel 2.  Note 36.  Velocity 0
000002t:  Note on ::  Channel 9.  Note 46.  Velocity 93
000000t:  Note on ::  Channel 9.  Note 82.  Velocity 73
000000t:  Note on ::  Channel 2.  Note 31.  Velocity 120
000003t:  Note on ::  Channel 9.  Note 82.  Velocity 0
000000t:  Note on ::  Channel 9.  Note 46.  Velocity 0
000042t:  Note on ::  Channel 2.  Note 31.  Velocity 0
000002t:  Note on ::  Channel 9.  Note 36.  Velocity 120
000000t:  Note on ::  Channel 9.  Note 42.  Velocity 81
000000t:  Note on ::  Channel 2.  Note 36.  Velocity 120
000002t:  Note on ::  Channel 9.  Note 42.  Velocity 0
000000t:  Note on ::  Channel 9.  Note 36.  Velocity 0
000043t:  Note on ::  Channel 9.  Note 82.  Velocity 73
000000t:  Note on ::  Channel 9.  Note 46.  Velocity 90
000002t:  Note on ::  Channel 9.  Note 46.  Velocity 0
000000t:  Note on ::  Channel 2.  Note 36.  Velocity 0
000000t:  Note on ::  Channel 9.  Note 82.  Velocity 0
000000t:  Note on ::  Channel 9.  Note 50.  Velocity 100
000000t:  Note on ::  Channel 2.  Note 31.  Velocity 120
000002t:  Note on ::  Channel 9.  Note 50.  Velocity 0
000020t:  Note on ::  Channel 9.  Note 82.  Velocity 67
000003t:  Note on ::  Channel 9.  Note 82.  Velocity 0
000020t:  Note on ::  Channel 2.  Note 31.  Velocity 0
000000t:  Note on ::  Channel 9.  Note 42.  Velocity 86
000000t:  Note on ::  Channel 2.  Note 29.  Velocity 120
000000t:  Note on ::  Channel 9.  Note 36.  Velocity 120
000002t:  Note on ::  Channel 9.  Note 36.  Velocity 0
000000t:  Note on ::  Channel 9.  Note 42.  Velocity 0
000002t:  Note on ::  Channel 10.  Note 58.  Velocity 0
000000t:  Note on ::  Channel 10.  Note 62.  Velocity 0
000041t:  Note on ::  Channel 6.  Note 81.  Velocity 110
000000t:  Note on ::  Channel 6.  Note 77.  Velocity 110
000000t:  Note on ::  Channel 9.  Note 46.  Velocity 93
000002t:  Note on ::  Channel 9.  Note 46.  Velocity 0
000000t:  Note on ::  Channel 9.  Note 82.  Velocity 73
000002t:  Note on ::  Channel 9.  Note 82.  Velocity 0
000018t:  Note on ::  Channel 6.  Note 77.  Velocity 0
000000t:  Note on ::  Channel 6.  Note 81.  Velocity 0
000002t:  Note on ::  Channel 6.  Note 82.  Velocity 110
000000t:  Note on ::  Channel 6.  Note 79.  Velocity 110
000006t:  Note on ::  Channel 2.  Note 29.  Velocity 0
000011t:  Note on ::  Channel 6.  Note 82.  Velocity 0
000002t:  Note on ::  Channel 6.  Note 79.  Velocity 0
000004t:  Note on ::  Channel 2.  Note 29.  Velocity 120
000000t:  Note on ::  Channel 9.  Note 42.  Velocity 86
000000t:  Note on ::  Channel 9.  Note 36.  Velocity 120
000002t:  Note on ::  Channel 9.  Note 36.  Velocity 0
000000t:  Note on ::  Channel 9.  Note 42.  Velocity 0
000022t:  Note on ::  Channel 6.  Note 79.  Velocity 110
000000t:  Note on ::  Channel 6.  Note 82.  Velocity 110
000006t:  Note on ::  Channel 6.  Note 82.  Velocity 0
000002t:  Note on ::  Channel 6.  Note 79.  Velocity 0
000015t:  Note on ::  Channel 9.  Note 82.  Velocity 70
000000t:  Note on ::  Channel 9.  Note 50.  Velocity 100
000000t:  Note on ::  Channel 9.  Note 46.  Velocity 93
000002t:  Note on ::  Channel 9.  Note 46.  Velocity 0
000000t:  Note on ::  Channel 9.  Note 50.  Velocity 0
000000t:  Note on ::  Channel 9.  Note 82.  Velocity 0
000000t:  Note on ::  Channel 6.  Note 79.  Velocity 110
000000t:  Note on ::  Channel 6.  Note 82.  Velocity 110
000004t:  Note on ::  Channel 6.  Note 82.  Velocity 0
000000t:  Note on ::  Channel 6.  Note 79.  Velocity 0
000010t:  Note on ::  Channel 2.  Note 29.  Velocity 0
000006t:  Note on ::  Channel 9.  Note 82.  Velocity 50
000000t:  Note on ::  Channel 2.  Note 29.  Velocity 120
000002t:  Note on ::  Channel 9.  Note 82.  Velocity 0
000000t:  Note on ::  Channel 6.  Note 79.  Velocity 110
000000t:  Note on ::  Channel 6.  Note 82.  Velocity 110
000006t:  Note on ::  Channel 6.  Note 79.  Velocity 0
000002t:  Note on ::  Channel 6.  Note 82.  Velocity 0
000015t:  Note on ::  Channel 9.  Note 42.  Velocity 86
000000t:  Note on ::  Channel 9.  Note 36.  Velocity 125
000000t:  Note on ::  Channel 6.  Note 79.  Velocity 110
000000t:  Note on ::  Channel 6.  Note 82.  Velocity 110
000002t:  Note on ::  Channel 9.  Note 36.  Velocity 0
000000t:  Note on ::  Channel 9.  Note 42.  Velocity 0
000004t:  Note on ::  Channel 6.  Note 82.  Velocity 0
000002t:  Note on ::  Channel 6.  Note 79.  Velocity 0
000004t:  Note on ::  Channel 2.  Note 29.  Velocity 0
000010t:  Note on ::  Channel 2.  Note 29.  Velocity 120
000012t:  Note on ::  Channel 2.  Note 29.  Velocity 0
000010t:  Note on ::  Channel 6.  Note 84.  Velocity 110
000000t:  Note on ::  Channel 9.  Note 82.  Velocity 70
000000t:  Note on ::  Channel 9.  Note 46.  Velocity 93
000000t:  Note on ::  Channel 10.  Note 53.  Velocity 113
000000t:  Note on ::  Channel 2.  Note 29.  Velocity 120
000002t:  Note on ::  Channel 9.  Note 46.  Velocity 0
000000t:  Note on ::  Channel 9.  Note 82.  Velocity 0
000020t:  Note on ::  Channel 6.  Note 82.  Velocity 110
000002t:  Note on ::  Channel 6.  Note 84.  Velocity 0
000019t:  Note on ::  Channel 10.  Note 53.  Velocity 0
000004t:  Note on ::  Channel 2.  Note 29.  Velocity 0
000000t:  Note on ::  Channel 9.  Note 36.  Velocity 120
000000t:  Note on ::  Channel 2.  Note 34.  Velocity 120
000000t:  Note on ::  Channel 10.  Note 58.  Velocity 119
000000t:  Note on ::  Channel 9.  Note 42.  Velocity 90
000002t:  Note on ::  Channel 9.  Note 42.  Velocity 0
000000t:  Note on ::  Channel 9.  Note 36.  Velocity 0
000040t:  Note on ::  Channel 10.  Note 58.  Velocity 0
000000t:  Note on ::  Channel 2.  Note 34.  Velocity 0
000004t:  Note on ::  Channel 2.  Note 35.  Velocity 120
000000t:  Note on ::  Channel 9.  Note 46.  Velocity 90
000000t:  Note on ::  Channel 10.  Note 65.  Velocity 119
000000t:  Note on ::  Channel 9.  Note 82.  Velocity 73
000000t:  Note on ::  Channel 9.  Note 47.  Velocity 90
000002t:  Note on ::  Channel 9.  Note 47.  Velocity 0
000000t:  Note on ::  Channel 9.  Note 46.  Velocity 0
000000t:  Note on ::  Channel 9.  Note 82.  Velocity 0
000022t:  Note on ::  Channel 9.  Note 82.  Velocity 62
000002t:  Note on ::  Channel 9.  Note 82.  Velocity 0
000017t:  Note on ::  Channel 2.  Note 35.  Velocity 0
000002t:  Note on ::  Channel 9.  Note 42.  Velocity 88
000000t:  Note on ::  Channel 10.  Note 64.  Velocity 119
000002t:  Note on ::  Channel 9.  Note 42.  Velocity 0
000000t:  Note on ::  Channel 6.  Note 82.  Velocity 0
000000t:  Note on ::  Channel 2.  Note 36.  Velocity 120
000000t:  Note on ::  Channel 9.  Note 36.  Velocity 125
000002t:  Note on ::  Channel 9.  Note 36.  Velocity 0
000000t:  Note on ::  Channel 10.  Note 65.  Velocity 0
000018t:  Note on ::  Channel 10.  Note 64.  Velocity 0
000024t:  Note on ::  Channel 9.  Note 46.  Velocity 88
000000t:  Note on ::  Channel 9.  Note 82.  Velocity 73
000002t:  Note on ::  Channel 9.  Note 82.  Velocity 0
000000t:  Note on ::  Channel 9.  Note 46.  Velocity 0
000023t:  Note on ::  Channel 10.  Note 60.  Velocity 122
000008t:  Note on ::  Channel 2.  Note 36.  Velocity 0
000014t:  Note on ::  Channel 2.  Note 36.  Velocity 120
000000t:  Note on ::  Channel 9.  Note 42.  Velocity 90
000002t:  Note on ::  Channel 9.  Note 42.  Velocity 0
000000t:  Note on ::  Channel 10.  Note 60.  Velocity 0
000000t:  Note on ::  Channel 9.  Note 36.  Velocity 120
000002t:  Note on ::  Channel 9.  Note 36.  Velocity 0
000042t:  Note on ::  Channel 9.  Note 82.  Velocity 73
000000t:  Note on ::  Channel 9.  Note 50.  Velocity 100
000000t:  Note on ::  Channel 9.  Note 46.  Velocity 88
000000t:  Note on ::  Channel 10.  Note 58.  Velocity 121
000002t:  Note on ::  Channel 9.  Note 46.  Velocity 0
000000t:  Note on ::  Channel 9.  Note 50.  Velocity 0
000000t:  Note on ::  Channel 9.  Note 82.  Velocity 0
000014t:  Note on ::  Channel 2.  Note 36.  Velocity 0
000006t:  Note on ::  Channel 9.  Note 82.  Velocity 56
000002t:  Note on ::  Channel 9.  Note 82.  Velocity 0
000000t:  Note on ::  Channel 2.  Note 36.  Velocity 120
000022t:  Note on ::  Channel 9.  Note 42.  Velocity 90
000000t:  Note on ::  Channel 9.  Note 36.  Velocity 122
000002t:  Note on ::  Channel 9.  Note 36.  Velocity 0
000000t:  Note on ::  Channel 9.  Note 42.  Velocity 0
000043t:  Note on ::  Channel 2.  Note 36.  Velocity 0
000002t:  Note on ::  Channel 2.  Note 31.  Velocity 120
000000t:  Note on ::  Channel 9.  Note 82.  Velocity 70
000000t:  Note on ::  Channel 9.  Note 82.  Velocity 0
000000t:  Note on ::  Channel 9.  Note 46.  Velocity 93
000003t:  Note on ::  Channel 9.  Note 46.  Velocity 0
000042t:  Note on ::  Channel 2.  Note 31.  Velocity 0
000000t:  Note on ::  Channel 9.  Note 36.  Velocity 125
000003t:  Note on ::  Channel 9.  Note 36.  Velocity 0
000000t:  Note on ::  Channel 2.  Note 36.  Velocity 120
000000t:  Note on ::  Channel 9.  Note 42.  Velocity 86
000002t:  Note on ::  Channel 9.  Note 42.  Velocity 0
000041t:  Note on ::  Channel 9.  Note 50.  Velocity 95
000002t:  Note on ::  Channel 9.  Note 50.  Velocity 0
000000t:  Note on ::  Channel 2.  Note 36.  Velocity 0
000000t:  Note on ::  Channel 9.  Note 46.  Velocity 100
000000t:  Note on ::  Channel 2.  Note 31.  Velocity 120
000000t:  Note on ::  Channel 9.  Note 82.  Velocity 64
000002t:  Note on ::  Channel 9.  Note 82.  Velocity 0
000000t:  Note on ::  Channel 9.  Note 46.  Velocity 0
000020t:  Note on ::  Channel 9.  Note 82.  Velocity 54
000003t:  Note on ::  Channel 9.  Note 82.  Velocity 0
000016t:  Note on ::  Channel 2.  Note 31.  Velocity 0
000004t:  Note on ::  Channel 9.  Note 36.  Velocity 125
000000t:  Note on ::  Channel 2.  Note 29.  Velocity 120
000000t:  Note on ::  Channel 9.  Note 42.  Velocity 86
000002t:  Note on ::  Channel 9.  Note 42.  Velocity 0
000000t:  Note on ::  Channel 9.  Note 36.  Velocity 0
000002t:  Note on ::  Channel 10.  Note 58.  Velocity 0
000042t:  Note on ::  Channel 9.  Note 46.  Velocity 93
000000t:  Note on ::  Channel 6.  Note 81.  Velocity 110
000001t:  Note on ::  Channel 6.  Note 77.  Velocity 110
000000t:  Note on ::  Channel 9.  Note 82.  Velocity 70
000002t:  Note on ::  Channel 9.  Note 82.  Velocity 0
000000t:  Note on ::  Channel 9.  Note 46.  Velocity 0
000020t:  Note on ::  Channel 6.  Note 77.  Velocity 0
000000t:  Note on ::  Channel 6.  Note 81.  Velocity 0
000000t:  Note on ::  Channel 6.  Note 82.  Velocity 110
000000t:  Note on ::  Channel 6.  Note 79.  Velocity 110
000010t:  Note on ::  Channel 2.  Note 29.  Velocity 0
000008t:  Note on ::  Channel 6.  Note 79.  Velocity 0
000000t:  Note on ::  Channel 6.  Note 82.  Velocity 0
000006t:  Note on ::  Channel 2.  Note 29.  Velocity 120
000000t:  Note on ::  Channel 9.  Note 42.  Velocity 90
000000t:  Note on ::  Channel 9.  Note 36.  Velocity 125
000002t:  Note on ::  Channel 9.  Note 36.  Velocity 0
000000t:  Note on ::  Channel 9.  Note 42.  Velocity 0
000022t:  Note on ::  Channel 6.  Note 79.  Velocity 110
000000t:  Note on ::  Channel 6.  Note 82.  Velocity 110
000006t:  Note on ::  Channel 6.  Note 82.  Velocity 0
000000t:  Note on ::  Channel 6.  Note 79.  Velocity 0
000014t:  Note on ::  Channel 9.  Note 82.  Velocity 70
000000t:  Note on ::  Channel 9.  Note 46.  Velocity 93
000003t:  Note on ::  Channel 9.  Note 46.  Velocity 0
000000t:  Note on ::  Channel 9.  Note 82.  Velocity 0
000000t:  Note on ::  Channel 9.  Note 50.  Velocity 103
000000t:  Note on ::  Channel 6.  Note 79.  Velocity 110
000000t:  Note on ::  Channel 6.  Note 82.  Velocity 110
000002t:  Note on ::  Channel 9.  Note 50.  Velocity 0
000004t:  Note on ::  Channel 6.  Note 82.  Velocity 0
000000t:  Note on ::  Channel 6.  Note 79.  Velocity 0
000006t:  Note on ::  Channel 2.  Note 29.  Velocity 0
000010t:  Note on ::  Channel 9.  Note 82.  Velocity 64
000000t:  Note on ::  Channel 2.  Note 29.  Velocity 120
000002t:  Note on ::  Channel 9.  Note 82.  Velocity 0
000000t:  Note on ::  Channel 6.  Note 79.  Velocity 110
000000t:  Note on ::  Channel 6.  Note 82.  Velocity 110
000006t:  Note on ::  Channel 6.  Note 79.  Velocity 0
000003t:  Note on ::  Channel 6.  Note 82.  Velocity 0
000012t:  Note on ::  Channel 9.  Note 42.  Velocity 90
000000t:  Note on ::  Channel 9.  Note 36.  Velocity 122
000002t:  Note on ::  Channel 9.  Note 36.  Velocity 0
000000t:  Note on ::  Channel 9.  Note 42.  Velocity 0
000000t:  Note on ::  Channel 6.  Note 79.  Velocity 110
000000t:  Note on ::  Channel 6.  Note 82.  Velocity 110
000006t:  Note on ::  Channel 6.  Note 82.  Velocity 0
000002t:  Note on ::  Channel 6.  Note 79.  Velocity 0
000008t:  Note on ::  Channel 2.  Note 29.  Velocity 0
000006t:  Note on ::  Channel 2.  Note 29.  Velocity 120
000011t:  Note on ::  Channel 2.  Note 29.  Velocity 0
000010t:  Note on ::  Channel 9.  Note 46.  Velocity 100
000002t:  Note on ::  Channel 9.  Note 46.  Velocity 0
000000t:  Note on ::  Channel 2.  Note 29.  Velocity 120
000000t:  Note on ::  Channel 10.  Note 53.  Velocity 112
000000t:  Note on ::  Channel 9.  Note 82.  Velocity 70
000000t:  Note on ::  Channel 6.  Note 81.  Velocity 110
000000t:  Note on ::  Channel 6.  Note 77.  Velocity 110
000002t:  Note on ::  Channel 9.  Note 82.  Velocity 0
000038t:  Note on ::  Channel 10.  Note 53.  Velocity 0
000004t:  Note on ::  Channel 2.  Note 29.  Velocity 0
000000t:  Note on ::  Channel 9.  Note 36.  Velocity 122
000000t:  Note on ::  Channel 10.  Note 58.  Velocity 117
000000t:  Note on ::  Channel 9.  Note 42.  Velocity 90
000002t:  Note on ::  Channel 9.  Note 42.  Velocity 0
000000t:  Note on ::  Channel 9.  Note 36.  Velocity 0
000000t:  Note on ::  Channel 2.  Note 34.  Velocity 120
000043t:  Note on ::  Channel 2.  Note 34.  Velocity 0
000002t:  Note on ::  Channel 9.  Note 82.  Velocity 70
000000t:  Note on ::  Channel 9.  Note 46.  Velocity 93
000000t:  Note on ::  Channel 9.  Note 47.  Velocity 95
000000t:  Note on ::  Channel 2.  Note 35.  Velocity 120
000000t:  Note on ::  Channel 10.  Note 65.  Velocity 120
000002t:  Note on ::  Channel 9.  Note 47.  Velocity 0
000000t:  Note on ::  Channel 9.  Note 82.  Velocity 0
000000t:  Note on ::  Channel 10.  Note 58.  Velocity 0
000000t:  Note on ::  Channel 9.  Note 46.  Velocity 0
000021t:  Note on ::  Channel 9.  Note 82.  Velocity 64
000002t:  Note on ::  Channel 9.  Note 82.  Velocity 0
000018t:  Note on ::  Channel 2.  Note 35.  Velocity 0
000002t:  Note on ::  Channel 6.  Note 81.  Velocity 0
000000t:  Note on ::  Channel 6.  Note 77.  Velocity 0
000002t:  Note on ::  Channel 10.  Note 65.  Velocity 0
000000t:  Note on ::  Channel 10.  Note 64.  Velocity 119
000000t:  Note on ::  Channel 9.  Note 36.  Velocity 125
000000t:  Note on ::  Channel 9.  Note 42.  Velocity 86
000000t:  Note on ::  Channel 2.  Note 36.  Velocity 120
000002t:  Note on ::  Channel 9.  Note 42.  Velocity 0
000000t:  Note on ::  Channel 9.  Note 36.  Velocity 0
000025t:  Note on ::  Channel 10.  Note 64.  Velocity 0
000018t:  Note on ::  Channel 9.  Note 46.  Velocity 93
000000t:  Note on ::  Channel 9.  Note 82.  Velocity 73
000002t:  Note on ::  Channel 9.  Note 82.  Velocity 0
000000t:  Note on ::  Channel 9.  Note 46.  Velocity 0
000022t:  Note on ::  Channel 10.  Note 60.  Velocity 120
000010t:  Note on ::  Channel 2.  Note 36.  Velocity 0
000012t:  Note on ::  Channel 2.  Note 36.  Velocity 120
000000t:  Note on ::  Channel 9.  Note 42.  Velocity 86
000000t:  Note on ::  Channel 9.  Note 36.  Velocity 125
000002t:  Note on ::  Channel 9.  Note 36.  Velocity 0
000000t:  Note on ::  Channel 9.  Note 42.  Velocity 0
000003t:  Note on ::  Channel 10.  Note 60.  Velocity 0
000041t:  Note on ::  Channel 9.  Note 82.  Velocity 67
000001t:  Note on ::  Channel 9.  Note 46.  Velocity 100
000000t:  Note on ::  Channel 10.  Note 58.  Velocity 120
000000t:  Note on ::  Channel 10.  Note 62.  Velocity 119
000000t:  Note on ::  Channel 9.  Note 50.  Velocity 98
000002t:  Note on ::  Channel 9.  Note 50.  Velocity 0
000000t:  Note on ::  Channel 9.  Note 82.  Velocity 0
000000t:  Note on ::  Channel 9.  Note 46.  Velocity 0
000008t:  Note on ::  Channel 2.  Note 36.  Velocity 0
000012t:  Note on ::  Channel 9.  Note 82.  Velocity 50
000000t:  Note on ::  Channel 2.  Note 36.  Velocity 120
000003t:  Note on ::  Channel 9.  Note 82.  Velocity 0
000020t:  Note on ::  Channel 9.  Note 42.  Velocity 86
000002t:  Note on ::  Channel 9.  Note 42.  Velocity 0
000000t:  Note on ::  Channel 9.  Note 36.  Velocity 122
000002t:  Note on ::  Channel 9.  Note 36.  Velocity 0
000042t:  Note on ::  Channel 2.  Note 36.  Velocity 0
000000t:  Note on ::  Channel 9.  Note 82.  Velocity 73
000000t:  Note on ::  Channel 9.  Note 46.  Velocity 100
000002t:  Note on ::  Channel 9.  Note 46.  Velocity 0
000000t:  Note on ::  Channel 9.  Note 82.  Velocity 0
000000t:  Note on ::  Channel 2.  Note 31.  Velocity 120
000045t:  Note on ::  Channel 2.  Note 31.  Velocity 0
000000t:  Note on ::  Channel 9.  Note 36.  Velocity 125
000000t:  Note on ::  Channel 9.  Note 42.  Velocity 86
000002t:  Note on ::  Channel 9.  Note 42.  Velocity 0
000000t:  Note on ::  Channel 9.  Note 36.  Velocity 0
000000t:  Note on ::  Channel 2.  Note 36.  Velocity 120
000045t:  Note on ::  Channel 9.  Note 82.  Velocity 70
000000t:  Note on ::  Channel 9.  Note 46.  Velocity 102
000000t:  Note on ::  Channel 9.  Note 50.  Velocity 103
000000t:  Note on ::  Channel 2.  Note 31.  Velocity 120
000002t:  Note on ::  Channel 9.  Note 50.  Velocity 0
000000t:  Note on ::  Channel 9.  Note 82.  Velocity 0
000000t:  Note on ::  Channel 2.  Note 36.  Velocity 0
000000t:  Note on ::  Channel 9.  Note 46.  Velocity 0
000020t:  Note on ::  Channel 9.  Note 82.  Velocity 64
000002t:  Note on ::  Channel 9.  Note 82.  Velocity 0
000020t:  Note on ::  Channel 10.  Note 58.  Velocity 0
000000t:  Note on ::  Channel 2.  Note 31.  Velocity 0
000002t:  Note on ::  Channel 10.  Note 62.  Velocity 0
000000t:  Note on ::  Channel 9.  Note 42.  Velocity 67
000000t:  Note on ::  Channel 9.  Note 42.  Velocity 0
000000t:  Note on ::  Channel 9.  Note 36.  Velocity 125
000000t:  Note on ::  Channel 2.  Note 29.  Velocity 120
000002t:  Note on ::  Channel 9.  Note 36.  Velocity 0
000043t:  Note on ::  Channel 9.  Note 46.  Velocity 88
000000t:  Note on ::  Channel 6.  Note 81.  Velocity 110
000000t:  Note on ::  Channel 9.  Note 82.  Velocity 70
000000t:  Note on ::  Channel 6.  Note 77.  Velocity 110
000002t:  Note on ::  Channel 9.  Note 82.  Velocity 0
000000t:  Note on ::  Channel 9.  Note 46.  Velocity 0
000021t:  Note on ::  Channel 6.  Note 77.  Velocity 0
000000t:  Note on ::  Channel 6.  Note 81.  Velocity 0
000000t:  Note on ::  Channel 6.  Note 82.  Velocity 110
000000t:  Note on ::  Channel 6.  Note 79.  Velocity 110
000008t:  Note on ::  Channel 2.  Note 29.  Velocity 0
000010t:  Note on ::  Channel 6.  Note 82.  Velocity 0
000002t:  Note on ::  Channel 6.  Note 79.  Velocity 0
000004t:  Note on ::  Channel 9.  Note 42.  Velocity 86
000000t:  Note on ::  Channel 2.  Note 29.  Velocity 120
000000t:  Note on ::  Channel 9.  Note 36.  Velocity 122
000002t:  Note on ::  Channel 9.  Note 36.  Velocity 0
000000t:  Note on ::  Channel 9.  Note 42.  Velocity 0
000022t:  Note on ::  Channel 6.  Note 79.  Velocity 110
000000t:  Note on ::  Channel 6.  Note 82.  Velocity 110
000006t:  Note on ::  Channel 6.  Note 82.  Velocity 0
000002t:  Note on ::  Channel 6.  Note 79.  Velocity 0
000014t:  Note on ::  Channel 9.  Note 46.  Velocity 90
000001t:  Note on ::  Channel 9.  Note 82.  Velocity 64
000000t:  Note on ::  Channel 9.  Note 50.  Velocity 100
000000t:  Note on ::  Channel 6.  Note 79.  Velocity 110
000002t:  Note on ::  Channel 9.  Note 50.  Velocity 0
000000t:  Note on ::  Channel 9.  Note 82.  Velocity 0
000000t:  Note on ::  Channel 9.  Note 46.  Velocity 0
000000t:  Note on ::  Channel 6.  Note 82.  Velocity 110
000004t:  Note on ::  Channel 6.  Note 82.  Velocity 0
000000t:  Note on ::  Channel 6.  Note 79.  Velocity 0
000008t:  Note on ::  Channel 2.  Note 29.  Velocity 0
000008t:  Note on ::  Channel 9.  Note 82.  Velocity 62
000000t:  Note on ::  Channel 2.  Note 29.  Velocity 120
000002t:  Note on ::  Channel 9.  Note 82.  Velocity 0
000000t:  Note on ::  Channel 6.  Note 79.  Velocity 110
000000t:  Note on ::  Channel 6.  Note 82.  Velocity 110
000006t:  Note on ::  Channel 6.  Note 79.  Velocity 0
000003t:  Note on ::  Channel 6.  Note 82.  Velocity 0
000012t:  Note on ::  Channel 9.  Note 38.  Velocity 120
000000t:  Note on ::  Channel 9.  Note 42.  Velocity 75
000002t:  Note on ::  Channel 9.  Note 42.  Velocity 0
000000t:  Note on ::  Channel 9.  Note 38.  Velocity 0
000000t:  Note on ::  Channel 9.  Note 36.  Velocity 125
000000t:  Note on ::  Channel 6.  Note 79.  Velocity 110
000000t:  Note on ::  Channel 6.  Note 82.  Velocity 110
000002t:  Note on ::  Channel 9.  Note 36.  Velocity 0
000002t:  Note on ::  Channel 9.  Note 38.  Velocity 101
000002t:  Note on ::  Channel 9.  Note 38.  Velocity 0
000000t:  Note on ::  Channel 6.  Note 82.  Velocity 0
000002t:  Note on ::  Channel 6.  Note 79.  Velocity 0
000004t:  Note on ::  Channel 2.  Note 29.  Velocity 0
000010t:  Note on ::  Channel 2.  Note 29.  Velocity 120
000000t:  Note on ::  Channel 9.  Note 38.  Velocity 104
000002t:  Note on ::  Channel 9.  Note 38.  Velocity 0
000010t:  Note on ::  Channel 2.  Note 29.  Velocity 0
000010t:  Note on ::  Channel 6.  Note 81.  Velocity 110
000000t:  Note on ::  Channel 6.  Note 84.  Velocity 110
000000t:  Note on ::  Channel 9.  Note 82.  Velocity 73
000000t:  Note on ::  Channel 2.  Note 29.  Velocity 120
000002t:  Note on ::  Channel 9.  Note 82.  Velocity 0
000000t:  Note on ::  Channel 6.  Note 81.  Velocity 0
000000t:  Note on ::  Channel 6.  Note 81.  Velocity 110
000021t:  Note on ::  Channel 6.  Note 79.  Velocity 110
000000t:  Note on ::  Channel 6.  Note 82.  Velocity 110
000002t:  Note on ::  Channel 6.  Note 81.  Velocity 0
000000t:  Note on ::  Channel 6.  Note 84.  Velocity 0
000000t:  Note on ::  Channel 9.  Note 38.  Velocity 112
000002t:  Note on ::  Channel 9.  Note 38.  Velocity 0
000020t:  Note on ::  Channel 2.  Note 29.  Velocity 0
000000t:  Note on ::  Channel 2.  Note 34.  Velocity 120
000000t:  Note on ::  Channel 9.  Note 36.  Velocity 125
000002t:  Note on ::  Channel 9.  Note 36.  Velocity 0
000022t:  Note on ::  Channel 9.  Note 38.  Velocity 113
000000t:  Note on ::  Channel 9.  Note 38.  Velocity 0
000018t:  Note on ::  Channel 2.  Note 34.  Velocity 0
000002t:  Note on ::  Channel 9.  Note 82.  Velocity 73
000000t:  Note on ::  Channel 3.  Note 76.  Velocity 109
000000t:  Note on ::  Channel 2.  Note 35.  Velocity 120
000002t:  Note on ::  Channel 9.  Note 82.  Velocity 0
000000t:  Note on ::  Channel 9.  Note 38.  Velocity 109
000003t:  Note on ::  Channel 9.  Note 38.  Velocity 0
000018t:  Note on ::  Channel 3.  Note 77.  Velocity 109
000002t:  Note on ::  Channel 9.  Note 82.  Velocity 64
000002t:  Note on ::  Channel 9.  Note 82.  Velocity 0
000000t:  Note on ::  Channel 3.  Note 76.  Velocity 0
000018t:  Note on ::  Channel 2.  Note 35.  Velocity 0
000002t:  Note on ::  Channel 9.  Note 57.  Velocity 98
000000t:  Note on ::  Channel 3.  Note 79.  Velocity 110
000000t:  Note on ::  Channel 2.  Note 36.  Velocity 120
000000t:  Note on ::  Channel 9.  Note 36.  Velocity 125
000002t:  Note on ::  Channel 9.  Note 36.  Velocity 0
000000t:  Note on ::  Channel 6.  Note 82.  Velocity 0
000000t:  Note on ::  Channel 6.  Note 79.  Velocity 0
000000t:  Note on ::  Channel 9.  Note 57.  Velocity 0
000009t:  Note on ::  Channel 3.  Note 77.  Velocity 0
000006t:  Note on ::  Channel 3.  Note 79.  Velocity 0
000030t:  Note on ::  Channel 0.  Note 64.  Velocity 109
000000t:  Note on ::  Channel 0.  Note 60.  Velocity 107
000000t:  Note on ::  Channel 9.  Note 46.  Velocity 88
000000t:  Note on ::  Channel 9.  Note 82.  Velocity 73
000003t:  Note on ::  Channel 9.  Note 82.  Velocity 0
000000t:  Note on ::  Channel 9.  Note 46.  Velocity 0
000012t:  Note on ::  Channel 0.  Note 60.  Velocity 0
000002t:  Note on ::  Channel 0.  Note 64.  Velocity 0
000004t:  Note on ::  Channel 3.  Note 72.  Velocity 109
000010t:  Note on ::  Channel 2.  Note 36.  Velocity 0
000008t:  Note on ::  Channel 3.  Note 72.  Velocity 0
000006t:  Note on ::  Channel 2.  Note 36.  Velocity 120
000000t:  Note on ::  Channel 0.  Note 64.  Velocity 112
000000t:  Note on ::  Channel 0.  Note 60.  Velocity 111
000000t:  Note on ::  Channel 9.  Note 42.  Velocity 86
000002t:  Note on ::  Channel 9.  Note 42.  Velocity 0
000000t:  Note on ::  Channel 9.  Note 36.  Velocity 116
000000t:  Note on ::  Channel 9.  Note 36.  Velocity 0
000013t:  Note on ::  Channel 0.  Note 60.  Velocity 0
000002t:  Note on ::  Channel 0.  Note 64.  Velocity 0
000028t:  Note on ::  Channel 3.  Note 82.  Velocity 114
000002t:  Note on ::  Channel 9.  Note 46.  Velocity 86
000001t:  Note on ::  Channel 9.  Note 82.  Velocity 67
000000t:  Note on ::  Channel 9.  Note 50.  Velocity 80
000002t:  Note on ::  Channel 9.  Note 50.  Velocity 0
000000t:  Note on ::  Channel 9.  Note 46.  Velocity 0
000000t:  Note on ::  Channel 9.  Note 82.  Velocity 0
000012t:  Note on ::  Channel 2.  Note 36.  Velocity 0
000008t:  Note on ::  Channel 2.  Note 36.  Velocity 120
000002t:  Note on ::  Channel 9.  Note 82.  Velocity 58
000000t:  Note on ::  Channel 9.  Note 82.  Velocity 0
000021t:  Note on ::  Channel 9.  Note 42.  Velocity 86
000000t:  Note on ::  Channel 0.  Note 62.  Velocity 109
000000t:  Note on ::  Channel 0.  Note 58.  Velocity 111
000000t:  Note on ::  Channel 9.  Note 36.  Velocity 114
000002t:  Note on ::  Channel 9.  Note 36.  Velocity 0
000000t:  Note on ::  Channel 9.  Note 42.  Velocity 0
000012t:  Note on ::  Channel 0.  Note 62.  Velocity 0
000000t:  Note on ::  Channel 0.  Note 58.  Velocity 0
000006t:  Note on ::  Channel 3.  Note 82.  Velocity 0
000026t:  Note on ::  Channel 2.  Note 36.  Velocity 0
000000t:  Note on ::  Channel 9.  Note 82.  Velocity 73
000000t:  Note on ::  Channel 2.  Note 31.  Velocity 120
000000t:  Note on ::  Channel 3.  Note 82.  Velocity 109
000000t:  Note on ::  Channel 9.  Note 46.  Velocity 88
000002t:  Note on ::  Channel 9.  Note 46.  Velocity 0
000000t:  Note on ::  Channel 9.  Note 82.  Velocity 0
000014t:  Note on ::  Channel 3.  Note 82.  Velocity 0
000008t:  Note on ::  Channel 0.  Note 64.  Velocity 111
000001t:  Note on ::  Channel 0.  Note 60.  Velocity 111
000010t:  Note on ::  Channel 0.  Note 60.  Velocity 0
000004t:  Note on ::  Channel 0.  Note 64.  Velocity 0
000006t:  Note on ::  Channel 2.  Note 31.  Velocity 0
000002t:  Note on ::  Channel 3.  Note 82.  Velocity 109
000000t:  Note on ::  Channel 9.  Note 36.  Velocity 125
000000t:  Note on ::  Channel 2.  Note 36.  Velocity 120
000000t:  Note on ::  Channel 9.  Note 42.  Velocity 86
000002t:  Note on ::  Channel 9.  Note 42.  Velocity 0
000000t:  Note on ::  Channel 9.  Note 36.  Velocity 0
000016t:  Note on ::  Channel 3.  Note 82.  Velocity 0
000026t:  Note on ::  Channel 3.  Note 79.  Velocity 106
000002t:  Note on ::  Channel 2.  Note 36.  Velocity 0
000000t:  Note on ::  Channel 9.  Note 82.  Velocity 70
000000t:  Note on ::  Channel 9.  Note 82.  Velocity 0
000000t:  Note on ::  Channel 9.  Note 46.  Velocity 86
000000t:  Note on ::  Channel 2.  Note 31.  Velocity 120
000000t:  Note on ::  Channel 9.  Note 50.  Velocity 80
000002t:  Note on ::  Channel 9.  Note 50.  Velocity 0
000000t:  Note on ::  Channel 9.  Note 46.  Velocity 0
000016t:  Note on ::  Channel 3.  Note 79.  Velocity 0
000004t:  Note on ::  Channel 9.  Note 82.  Velocity 58
000002t:  Note on ::  Channel 9.  Note 82.  Velocity 0
000018t:  Note on ::  Channel 2.  Note 31.  Velocity 0
000002t:  Note on ::  Channel 3.  Note 81.  Velocity 111
000003t:  Note on ::  Channel 7.  Note 84.  Velocity 103
000000t:  Control change ::  Channel 7.  Controller 11.  Value: 119
000000t:  Control change ::  Channel 7.  Controller 10.  Value: 30
000000t:  Note on ::  Channel 9.  Note 42.  Velocity 88
000000t:  Note on ::  Channel 2.  Note 29.  Velocity 120
000000t:  Note on ::  Channel 9.  Note 36.  Velocity 125
000001t:  Note on ::  Channel 9.  Note 36.  Velocity 0
000000t:  Note on ::  Channel 9.  Note 42.  Velocity 0
000021t:  Note on ::  Channel 7.  Note 84.  Velocity 0
000000t:  Note on ::  Channel 3.  Note 79.  Velocity 110
000008t:  Note on ::  Channel 3.  Note 81.  Velocity 0
000006t:  Note on ::  Channel 3.  Note 79.  Velocity 0
000008t:  Note on ::  Channel 9.  Note 82.  Velocity 73
000000t:  Note on ::  Channel 7.  Note 81.  Velocity 95
000000t:  Note on ::  Channel 9.  Note 46.  Velocity 93
000002t:  Note on ::  Channel 9.  Note 46.  Velocity 0
000000t:  Note on ::  Channel 9.  Note 82.  Velocity 0
000014t:  Note on ::  Channel 7.  Note 81.  Velocity 0
000009t:  Note on ::  Channel 7.  Note 82.  Velocity 90
000000t:  Note on ::  Channel 3.  Note 77.  Velocity 112
000010t:  Note on ::  Channel 2.  Note 29.  Velocity 0
000006t:  Note on ::  Channel 3.  Note 77.  Velocity 0
000002t:  Note on ::  Channel 7.  Note 82.  Velocity 0
000004t:  Note on ::  Channel 2.  Note 29.  Velocity 120
000000t:  Note on ::  Channel 9.  Note 42.  Velocity 86
000000t:  Note on ::  Channel 9.  Note 36.  Velocity 120
000002t:  Note on ::  Channel 9.  Note 36.  Velocity 0
000000t:  Note on ::  Channel 9.  Note 42.  Velocity 0
000020t:  Note on ::  Channel 7.  Note 79.  Velocity 95
000018t:  Note on ::  Channel 7.  Note 79.  Velocity 0
000005t:  Note on ::  Channel 9.  Note 50.  Velocity 83
000000t:  Note on ::  Channel 9.  Note 82.  Velocity 64
000002t:  Note on ::  Channel 9.  Note 82.  Velocity 0
000000t:  Note on ::  Channel 9.  Note 50.  Velocity 0
000000t:  Note on ::  Channel 3.  Note 72.  Velocity 113
000000t:  Note on ::  Channel 9.  Note 46.  Velocity 93
000002t:  Note on ::  Channel 9.  Note 46.  Velocity 0
000010t:  Note on ::  Channel 2.  Note 29.  Velocity 0
000010t:  Note on ::  Channel 9.  Note 82.  Velocity 54
000000t:  Note on ::  Channel 7.  Note 84.  Velocity 83
000000t:  Note on ::  Channel 2.  Note 29.  Velocity 120
000002t:  Note on ::  Channel 9.  Note 82.  Velocity 0
000016t:  Note on ::  Channel 7.  Note 84.  Velocity 0
000007t:  Note on ::  Channel 9.  Note 36.  Velocity 125
000000t:  Note on ::  Channel 9.  Note 42.  Velocity 86
000002t:  Note on ::  Channel 9.  Note 42.  Velocity 0
000000t:  Note on ::  Channel 9.  Note 36.  Velocity 0
000016t:  Note on ::  Channel 2.  Note 29.  Velocity 0
000004t:  Note on ::  Channel 7.  Note 81.  Velocity 90
000002t:  Note on ::  Channel 2.  Note 29.  Velocity 120
000010t:  Note on ::  Channel 2.  Note 29.  Velocity 0
000004t:  Note on ::  Channel 7.  Note 81.  Velocity 0
000006t:  Note on ::  Channel 9.  Note 82.  Velocity 80
000000t:  Note on ::  Channel 7.  Note 82.  Velocity 90
000002t:  Note on ::  Channel 9.  Note 82.  Velocity 0
000000t:  Note on ::  Channel 2.  Note 29.  Velocity 120
000000t:  Note on ::  Channel 9.  Note 46.  Velocity 100
000002t:  Note on ::  Channel 9.  Note 46.  Velocity 0
000013t:  Note on ::  Channel 7.  Note 82.  Velocity 0
000030t:  Note on ::  Channel 2.  Note 29.  Velocity 0
000000t:  Note on ::  Channel 7.  Note 79.  Velocity 98
000000t:  Note on ::  Channel 9.  Note 36.  Velocity 122
000000t:  Note on ::  Channel 2.  Note 34.  Velocity 120
000000t:  Note on ::  Channel 9.  Note 42.  Velocity 81
000002t:  Note on ::  Channel 9.  Note 42.  Velocity 0
000000t:  Note on ::  Channel 9.  Note 36.  Velocity 0
000000t:  Note on ::  Channel 3.  Note 72.  Velocity 0
000019t:  Note on ::  Channel 7.  Note 79.  Velocity 0
000022t:  Note on ::  Channel 2.  Note 34.  Velocity 0
000002t:  Note on ::  Channel 9.  Note 82.  Velocity 67
000000t:  Note on ::  Channel 9.  Note 38.  Velocity 123
000002t:  Note on ::  Channel 9.  Note 38.  Velocity 0
000000t:  Note on ::  Channel 9.  Note 82.  Velocity 0
000000t:  Note on ::  Channel 2.  Note 35.  Velocity 120
000000t:  Note on ::  Channel 9.  Note 46.  Velocity 93
000000t:  Note on ::  Channel 3.  Note 76.  Velocity 110
000000t:  Note on ::  Channel 9.  Note 47.  Velocity 83
000003t:  Note on ::  Channel 9.  Note 47.  Velocity 0
000000t:  Note on ::  Channel 9.  Note 46.  Velocity 0
000018t:  Note on ::  Channel 9.  Note 82.  Velocity 62
000002t:  Note on ::  Channel 9.  Note 82.  Velocity 0
000000t:  Note on ::  Channel 3.  Note 76.  Velocity 0
000000t:  Note on ::  Channel 3.  Note 77.  Velocity 103
000018t:  Note on ::  Channel 2.  Note 35.  Velocity 0
000004t:  Note on ::  Channel 3.  Note 79.  Velocity 110
000000t:  Note on ::  Channel 9.  Note 36.  Velocity 125
000000t:  Note on ::  Channel 2.  Note 36.  Velocity 120
000000t:  Note on ::  Channel 9.  Note 42.  Velocity 88
000003t:  Note on ::  Channel 9.  Note 42.  Velocity 0
000000t:  Note on ::  Channel 9.  Note 36.  Velocity 0
000002t:  Note on ::  Channel 3.  Note 77.  Velocity 0
000014t:  Note on ::  Channel 3.  Note 79.  Velocity 0
000028t:  Note on ::  Channel 0.  Note 64.  Velocity 109
000000t:  Note on ::  Channel 0.  Note 60.  Velocity 105
000000t:  Note on ::  Channel 9.  Note 46.  Velocity 90
000000t:  Note on ::  Channel 9.  Note 82.  Velocity 70
000002t:  Note on ::  Channel 9.  Note 82.  Velocity 0
000000t:  Note on ::  Channel 9.  Note 46.  Velocity 0
000010t:  Note on ::  Channel 0.  Note 60.  Velocity 0
000004t:  Note on ::  Channel 0.  Note 64.  Velocity 0
000006t:  Note on ::  Channel 3.  Note 72.  Velocity 106
000012t:  Note on ::  Channel 2.  Note 36.  Velocity 0
000008t:  Note on ::  Channel 3.  Note 72.  Velocity 0
000003t:  Note on ::  Channel 0.  Note 64.  Velocity 111
000000t:  Note on ::  Channel 2.  Note 36.  Velocity 120
000000t:  Note on ::  Channel 0.  Note 60.  Velocity 111
000000t:  Note on ::  Channel 9.  Note 42.  Velocity 90
000002t:  Note on ::  Channel 9.  Note 42.  Velocity 0
000000t:  Note on ::  Channel 9.  Note 36.  Velocity 122
000000t:  Note on ::  Channel 9.  Note 36.  Velocity 0
000014t:  Note on ::  Channel 0.  Note 60.  Velocity 0
000000t:  Note on ::  Channel 0.  Note 64.  Velocity 0
000030t:  Note on ::  Channel 9.  Note 82.  Velocity 64
000000t:  Note on ::  Channel 3.  Note 82.  Velocity 110
000000t:  Note on ::  Channel 9.  Note 46.  Velocity 90
000000t:  Note on ::  Channel 9.  Note 50.  Velocity 80
000003t:  Note on ::  Channel 9.  Note 50.  Velocity 0
000000t:  Note on ::  Channel 9.  Note 82.  Velocity 0
000000t:  Note on ::  Channel 9.  Note 46.  Velocity 0
000008t:  Note on ::  Channel 2.  Note 36.  Velocity 0
000012t:  Note on ::  Channel 9.  Note 82.  Velocity 54
000002t:  Note on ::  Channel 9.  Note 82.  Velocity 0
000000t:  Note on ::  Channel 2.  Note 36.  Velocity 120
000022t:  Note on ::  Channel 0.  Note 58.  Velocity 109
000000t:  Note on ::  Channel 0.  Note 62.  Velocity 109
000000t:  Note on ::  Channel 9.  Note 42.  Velocity 86
000000t:  Note on ::  Channel 9.  Note 36.  Velocity 125
000002t:  Note on ::  Channel 9.  Note 36.  Velocity 0
000000t:  Note on ::  Channel 9.  Note 42.  Velocity 0
000010t:  Note on ::  Channel 0.  Note 58.  Velocity 0
000000t:  Note on ::  Channel 0.  Note 62.  Velocity 0
000006t:  Note on ::  Channel 3.  Note 82.  Velocity 0
000026t:  Note on ::  Channel 2.  Note 36.  Velocity 0
000000t:  Note on ::  Channel 9.  Note 46.  Velocity 93
000003t:  Note on ::  Channel 9.  Note 46.  Velocity 0
000000t:  Note on ::  Channel 3.  Note 82.  Velocity 109
000000t:  Note on ::  Channel 9.  Note 82.  Velocity 70
000000t:  Note on ::  Channel 2.  Note 31.  Velocity 120
000002t:  Note on ::  Channel 9.  Note 82.  Velocity 0
000010t:  Note on ::  Channel 3.  Note 82.  Velocity 0
000010t:  Note on ::  Channel 0.  Note 64.  Velocity 112
000000t:  Note on ::  Channel 0.  Note 60.  Velocity 114
000012t:  Note on ::  Channel 0.  Note 60.  Velocity 0
000002t:  Note on ::  Channel 0.  Note 64.  Velocity 0
000008t:  Note on ::  Channel 2.  Note 31.  Velocity 0
000001t:  Note on ::  Channel 3.  Note 82.  Velocity 107
000000t:  Note on ::  Channel 9.  Note 42.  Velocity 90
000000t:  Note on ::  Channel 9.  Note 36.  Velocity 122
000001t:  Note on ::  Channel 9.  Note 36.  Velocity 0
000000t:  Note on ::  Channel 9.  Note 42.  Velocity 0
000000t:  Note on ::  Channel 2.  Note 36.  Velocity 120
000041t:  Note on ::  Channel 3.  Note 82.  Velocity 0
000004t:  Note on ::  Channel 9.  Note 82.  Velocity 70
000000t:  Note on ::  Channel 3.  Note 84.  Velocity 101
000000t:  Note on ::  Channel 9.  Note 46.  Velocity 93
000000t:  Note on ::  Channel 9.  Note 50.  Velocity 80
000002t:  Note on ::  Channel 9.  Note 50.  Velocity 0
000000t:  Note on ::  Channel 9.  Note 82.  Velocity 0
000000t:  Note on ::  Channel 2.  Note 36.  Velocity 0
000000t:  Note on ::  Channel 9.  Note 46.  Velocity 0
000000t:  Note on ::  Channel 2.  Note 31.  Velocity 120
000012t:  Note on ::  Channel 3.  Note 84.  Velocity 0
000008t:  Note on ::  Channel 9.  Note 82.  Velocity 52
000003t:  Note on ::  Channel 9.  Note 82.  Velocity 0
000022t:  Note on ::  Channel 2.  Note 31.  Velocity 0
000000t:  Note on ::  Channel 3.  Note 81.  Velocity 113
000000t:  Note on ::  Channel 9.  Note 42.  Velocity 93
000000t:  Note on ::  Channel 7.  Note 84.  Velocity 103
000000t:  Note on ::  Channel 9.  Note 36.  Velocity 125
000000t:  Note on ::  Channel 2.  Note 29.  Velocity 120
000002t:  Note on ::  Channel 9.  Note 36.  Velocity 0
000000t:  Note on ::  Channel 9.  Note 42.  Velocity 0
000021t:  Note on ::  Channel 7.  Note 84.  Velocity 0
000022t:  Note on ::  Channel 9.  Note 46.  Velocity 88
000000t:  Note on ::  Channel 7.  Note 81.  Velocity 95
000000t:  Note on ::  Channel 9.  Note 82.  Velocity 73
000002t:  Note on ::  Channel 9.  Note 82.  Velocity 0
000000t:  Note on ::  Channel 9.  Note 46.  Velocity 0
000014t:  Note on ::  Channel 7.  Note 81.  Velocity 0
000008t:  Note on ::  Channel 7.  Note 82.  Velocity 90
000006t:  Note on ::  Channel 2.  Note 29.  Velocity 0
000010t:  Note on ::  Channel 7.  Note 82.  Velocity 0
000007t:  Note on ::  Channel 9.  Note 42.  Velocity 93
000000t:  Note on ::  Channel 9.  Note 36.  Velocity 116
000000t:  Note on ::  Channel 2.  Note 29.  Velocity 120
000002t:  Note on ::  Channel 9.  Note 36.  Velocity 0
000000t:  Note on ::  Channel 9.  Note 42.  Velocity 0
000020t:  Note on ::  Channel 7.  Note 79.  Velocity 95
000018t:  Note on ::  Channel 7.  Note 79.  Velocity 0
000005t:  Note on ::  Channel 9.  Note 82.  Velocity 62
000002t:  Note on ::  Channel 9.  Note 82.  Velocity 0
000000t:  Note on ::  Channel 9.  Note 46.  Velocity 86
000000t:  Note on ::  Channel 9.  Note 46.  Velocity 0
000000t:  Note on ::  Channel 9.  Note 50.  Velocity 80
000002t:  Note on ::  Channel 9.  Note 50.  Velocity 0
000014t:  Note on ::  Channel 2.  Note 29.  Velocity 0
000006t:  Note on ::  Channel 9.  Note 82.  Velocity 60
000000t:  Note on ::  Channel 7.  Note 84.  Velocity 83
000000t:  Note on ::  Channel 2.  Note 29.  Velocity 120
000001t:  Note on ::  Channel 9.  Note 82.  Velocity 0
000017t:  Note on ::  Channel 7.  Note 84.  Velocity 0
000004t:  Note on ::  Channel 9.  Note 42.  Velocity 100
000000t:  Note on ::  Channel 9.  Note 36.  Velocity 125
000002t:  Note on ::  Channel 9.  Note 36.  Velocity 0
000000t:  Note on ::  Channel 9.  Note 42.  Velocity 0
000015t:  Note on ::  Channel 2.  Note 29.  Velocity 0
000008t:  Note on ::  Channel 7.  Note 81.  Velocity 90
000000t:  Note on ::  Channel 2.  Note 29.  Velocity 120
000012t:  Note on ::  Channel 2.  Note 29.  Velocity 0
000005t:  Note on ::  Channel 7.  Note 81.  Velocity 0
000004t:  Note on ::  Channel 9.  Note 82.  Velocity 73
000002t:  Note on ::  Channel 9.  Note 82.  Velocity 0
000000t:  Note on ::  Channel 7.  Note 82.  Velocity 90
000000t:  Note on ::  Channel 9.  Note 46.  Velocity 90
000000t:  Note on ::  Channel 2.  Note 29.  Velocity 120
000002t:  Note on ::  Channel 9.  Note 46.  Velocity 0
000014t:  Note on ::  Channel 7.  Note 82.  Velocity 0
000024t:  Note on ::  Channel 3.  Note 81.  Velocity 0
000004t:  Note on ::  Channel 9.  Note 36.  Velocity 125
000002t:  Note on ::  Channel 9.  Note 36.  Velocity 0
000000t:  Note on ::  Channel 2.  Note 29.  Velocity 0
000000t:  Note on ::  Channel 7.  Note 79.  Velocity 98
000000t:  Note on ::  Channel 2.  Note 34.  Velocity 120
000000t:  Note on ::  Channel 9.  Note 42.  Velocity 100
000002t:  Note on ::  Channel 9.  Note 42.  Velocity 0
000019t:  Note on ::  Channel 7.  Note 79.  Velocity 0
000022t:  Note on ::  Channel 2.  Note 34.  Velocity 0
000002t:  Note on ::  Channel 9.  Note 38.  Velocity 122
000000t:  Note on ::  Channel 2.  Note 35.  Velocity 120
000000t:  Note on ::  Channel 3.  Note 76.  Velocity 111
000000t:  Note on ::  Channel 9.  Note 82.  Velocity 70
000000t:  Note on ::  Channel 9.  Note 46.  Velocity 93
000000t:  Note on ::  Channel 9.  Note 47.  Velocity 80
000002t:  Note on ::  Channel 9.  Note 47.  Velocity 0
000000t:  Note on ::  Channel 9.  Note 82.  Velocity 0
000000t:  Note on ::  Channel 9.  Note 38.  Velocity 0
000000t:  Note on ::  Channel 9.  Note 46.  Velocity 0
000020t:  Note on ::  Channel 3.  Note 77.  Velocity 103
000000t:  Note on ::  Channel 9.  Note 38.  Velocity 114
000002t:  Note on ::  Channel 9.  Note 38.  Velocity 0
000000t:  Note on ::  Channel 3.  Note 76.  Velocity 0
000000t:  Note on ::  Channel 9.  Note 82.  Velocity 52
000003t:  Note on ::  Channel 9.  Note 82.  Velocity 0
000018t:  Note on ::  Channel 2.  Note 35.  Velocity 0
000002t:  Note on ::  Channel 3.  Note 79.  Velocity 111
000000t:  Note on ::  Channel 9.  Note 36.  Velocity 125
000000t:  Note on ::  Channel 2.  Note 36.  Velocity 120
000000t:  Note on ::  Channel 9.  Note 42.  Velocity 88
000002t:  Note on ::  Channel 9.  Note 42.  Velocity 0
000000t:  Note on ::  Channel 9.  Note 36.  Velocity 0
000004t:  Note on ::  Channel 3.  Note 77.  Velocity 0
000010t:  Note on ::  Channel 3.  Note 79.  Velocity 0
000030t:  Note on ::  Channel 0.  Note 60.  Velocity 111
000000t:  Note on ::  Channel 0.  Note 64.  Velocity 111
000000t:  Note on ::  Channel 9.  Note 46.  Velocity 93
000000t:  Note on ::  Channel 9.  Note 82.  Velocity 73
000002t:  Note on ::  Channel 9.  Note 82.  Velocity 0
000000t:  Note on ::  Channel 9.  Note 46.  Velocity 0
000010t:  Note on ::  Channel 0.  Note 60.  Velocity 0
000004t:  Note on ::  Channel 0.  Note 64.  Velocity 0
000006t:  Note on ::  Channel 3.  Note 72.  Velocity 111
000010t:  Note on ::  Channel 2.  Note 36.  Velocity 0
000006t:  Note on ::  Channel 3.  Note 72.  Velocity 0
000006t:  Note on ::  Channel 2.  Note 36.  Velocity 120
000000t:  Note on ::  Channel 0.  Note 60.  Velocity 114
000000t:  Note on ::  Channel 0.  Note 64.  Velocity 112
000002t:  Note on ::  Channel 9.  Note 36.  Velocity 125
000000t:  Note on ::  Channel 9.  Note 42.  Velocity 90
000003t:  Note on ::  Channel 9.  Note 42.  Velocity 0
000000t:  Note on ::  Channel 9.  Note 36.  Velocity 0
000012t:  Note on ::  Channel 0.  Note 60.  Velocity 0
000002t:  Note on ::  Channel 0.  Note 64.  Velocity 0
000028t:  Note on ::  Channel 3.  Note 82.  Velocity 110
000000t:  Note on ::  Channel 9.  Note 82.  Velocity 60
000002t:  Note on ::  Channel 9.  Note 82.  Velocity 0
000000t:  Note on ::  Channel 9.  Note 46.  Velocity 90
000000t:  Note on ::  Channel 9.  Note 46.  Velocity 0
000000t:  Note on ::  Channel 9.  Note 50.  Velocity 80
000002t:  Note on ::  Channel 9.  Note 50.  Velocity 0
000012t:  Note on ::  Channel 2.  Note 36.  Velocity 0
000009t:  Note on ::  Channel 9.  Note 82.  Velocity 54
000000t:  Note on ::  Channel 2.  Note 36.  Velocity 120
000001t:  Note on ::  Channel 9.  Note 82.  Velocity 0
000021t:  Note on ::  Channel 0.  Note 62.  Velocity 109
000000t:  Note on ::  Channel 0.  Note 58.  Velocity 111
000000t:  Note on ::  Channel 9.  Note 36.  Velocity 125
000000t:  Note on ::  Channel 9.  Note 42.  Velocity 88
000002t:  Note on ::  Channel 9.  Note 42.  Velocity 0
000000t:  Note on ::  Channel 9.  Note 36.  Velocity 0
000010t:  Note on ::  Channel 3.  Note 82.  Velocity 0
000002t:  Note on ::  Channel 0.  Note 58.  Velocity 0
000001t:  Note on ::  Channel 0.  Note 62.  Velocity 0
000007t:  Note on ::  Channel 3.  Note 82.  Velocity 109
000014t:  Note on ::  Channel 3.  Note 82.  Velocity 0
000010t:  Note on ::  Channel 2.  Note 36.  Velocity 0
000000t:  Note on ::  Channel 9.  Note 82.  Velocity 70
000000t:  Note on ::  Channel 3.  Note 82.  Velocity 104
000000t:  Note on ::  Channel 2.  Note 31.  Velocity 120
000000t:  Note on ::  Channel 9.  Note 46.  Velocity 90
000002t:  Note on ::  Channel 9.  Note 46.  Velocity 0
000000t:  Note on ::  Channel 9.  Note 82.  Velocity 0
000012t:  Note on ::  Channel 3.  Note 82.  Velocity 0
000011t:  Note on ::  Channel 0.  Note 64.  Velocity 109
000000t:  Note on ::  Channel 0.  Note 60.  Velocity 111
000012t:  Note on ::  Channel 0.  Note 60.  Velocity 0
000002t:  Note on ::  Channel 0.  Note 64.  Velocity 0
000006t:  Note on ::  Channel 2.  Note 31.  Velocity 0
000002t:  Note on ::  Channel 3.  Note 82.  Velocity 110
000000t:  Note on ::  Channel 9.  Note 36.  Velocity 125
000000t:  Note on ::  Channel 2.  Note 36.  Velocity 120
000000t:  Note on ::  Channel 9.  Note 42.  Velocity 86
000002t:  Note on ::  Channel 9.  Note 42.  Velocity 0
000000t:  Note on ::  Channel 9.  Note 36.  Velocity 0
000014t:  Note on ::  Channel 3.  Note 82.  Velocity 0
000029t:  Note on ::  Channel 3.  Note 79.  Velocity 109
000002t:  Note on ::  Channel 2.  Note 36.  Velocity 0
000000t:  Note on ::  Channel 2.  Note 31.  Velocity 120
000000t:  Note on ::  Channel 9.  Note 82.  Velocity 62
000000t:  Note on ::  Channel 9.  Note 46.  Velocity 88
000000t:  Note on ::  Channel 9.  Note 50.  Velocity 80
000002t:  Note on ::  Channel 9.  Note 50.  Velocity 0
000000t:  Note on ::  Channel 9.  Note 82.  Velocity 0
000000t:  Note on ::  Channel 9.  Note 46.  Velocity 0
000012t:  Note on ::  Channel 3.  Note 79.  Velocity 0
000009t:  Note on ::  Channel 9.  Note 82.  Velocity 58
000002t:  Note on ::  Channel 9.  Note 82.  Velocity 0
000016t:  Note on ::  Channel 2.  Note 31.  Velocity 0
000002t:  Note on ::  Channel 3.  Note 81.  Velocity 103
000002t:  Note on ::  Channel 7.  Note 84.  Velocity 103
000000t:  Note on ::  Channel 2.  Note 29.  Velocity 120
000000t:  Note on ::  Channel 9.  Note 36.  Velocity 122
000000t:  Note on ::  Channel 9.  Note 42.  Velocity 88
000003t:  Note on ::  Channel 9.  Note 42.  Velocity 0
000000t:  Note on ::  Channel 9.  Note 36.  Velocity 0
000020t:  Note on ::  Channel 7.  Note 84.  Velocity 0
000000t:  Note on ::  Channel 3.  Note 79.  Velocity 107
000008t:  Note on ::  Channel 3.  Note 81.  Velocity 0
000008t:  Note on ::  Channel 3.  Note 79.  Velocity 0
000006t:  Note on ::  Channel 7.  Note 81.  Velocity 95
000000t:  Note on ::  Channel 9.  Note 46.  Velocity 90
000000t:  Note on ::  Channel 9.  Note 82.  Velocity 70
000002t:  Note on ::  Channel 9.  Note 82.  Velocity 0
000000t:  Note on ::  Channel 9.  Note 46.  Velocity 0
000014t:  Note on ::  Channel 7.  Note 81.  Velocity 0
000008t:  Note on ::  Channel 7.  Note 82.  Velocity 90
000000t:  Note on ::  Channel 3.  Note 77.  Velocity 109
000010t:  Note on ::  Channel 2.  Note 29.  Velocity 0
000008t:  Note on ::  Channel 3.  Note 77.  Velocity 0
000000t:  Note on ::  Channel 7.  Note 82.  Velocity 0
000005t:  Note on ::  Channel 2.  Note 29.  Velocity 120
000000t:  Note on ::  Channel 9.  Note 36.  Velocity 114
000002t:  Note on ::  Channel 9.  Note 36.  Velocity 0
000000t:  Note on ::  Channel 9.  Note 42.  Velocity 90
000000t:  Note on ::  Channel 9.  Note 42.  Velocity 0
000022t:  Note on ::  Channel 7.  Note 79.  Velocity 95
000016t:  Note on ::  Channel 7.  Note 79.  Velocity 0
000006t:  Note on ::  Channel 9.  Note 82.  Velocity 62
000000t:  Note on ::  Channel 9.  Note 46.  Velocity 93
000000t:  Note on ::  Channel 9.  Note 50.  Velocity 83
000000t:  Note on ::  Channel 3.  Note 72.  Velocity 110
000002t:  Note on ::  Channel 9.  Note 50.  Velocity 0
000000t:  Note on ::  Channel 9.  Note 46.  Velocity 0
000000t:  Note on ::  Channel 9.  Note 82.  Velocity 0
000013t:  Note on ::  Channel 2.  Note 29.  Velocity 0
000008t:  Note on ::  Channel 9.  Note 82.  Velocity 52
000000t:  Note on ::  Channel 7.  Note 84.  Velocity 83
000000t:  Note on ::  Channel 2.  Note 29.  Velocity 120
000001t:  Note on ::  Channel 9.  Note 82.  Velocity 0
000019t:  Note on ::  Channel 7.  Note 84.  Velocity 0
000002t:  Note on ::  Channel 9.  Note 36.  Velocity 122
000002t:  Note on ::  Channel 9.  Note 36.  Velocity 0
000000t:  Note on ::  Channel 9.  Note 42.  Velocity 88
000002t:  Note on ::  Channel 9.  Note 42.  Velocity 0
000016t:  Note on ::  Channel 2.  Note 29.  Velocity 0
000004t:  Note on ::  Channel 7.  Note 81.  Velocity 90
000002t:  Note on ::  Channel 2.  Note 29.  Velocity 120
000010t:  Note on ::  Channel 2.  Note 29.  Velocity 0
000005t:  Note on ::  Channel 7.  Note 81.  Velocity 0
000006t:  Note on ::  Channel 9.  Note 82.  Velocity 62
000000t:  Note on ::  Channel 7.  Note 82.  Velocity 90
000002t:  Note on ::  Channel 9.  Note 82.  Velocity 0
000000t:  Note on ::  Channel 2.  Note 29.  Velocity 120
000000t:  Note on ::  Channel 9.  Note 46.  Velocity 93
000002t:  Note on ::  Channel 9.  Note 46.  Velocity 0
000014t:  Note on ::  Channel 7.  Note 82.  Velocity 0
000028t:  Note on ::  Channel 2.  Note 29.  Velocity 0
000000t:  Note on ::  Channel 9.  Note 36.  Velocity 116
000000t:  Note on ::  Channel 7.  Note 79.  Velocity 98
000001t:  Note on ::  Channel 2.  Note 34.  Velocity 120
000000t:  Note on ::  Channel 9.  Note 42.  Velocity 86
000002t:  Note on ::  Channel 9.  Note 42.  Velocity 0
000000t:  Note on ::  Channel 9.  Note 36.  Velocity 0
000012t:  Note on ::  Channel 3.  Note 72.  Velocity 0
000006t:  Note on ::  Channel 7.  Note 79.  Velocity 0
000022t:  Note on ::  Channel 2.  Note 34.  Velocity 0
000004t:  Note on ::  Channel 9.  Note 38.  Velocity 122
000000t:  Note on ::  Channel 9.  Note 82.  Velocity 62
000000t:  Note on ::  Channel 2.  Note 35.  Velocity 120
000000t:  Note on ::  Channel 9.  Note 47.  Velocity 83
000000t:  Note on ::  Channel 9.  Note 46.  Velocity 93
000002t:  Note on ::  Channel 9.  Note 46.  Velocity 0
000000t:  Note on ::  Channel 9.  Note 82.  Velocity 0
000000t:  Note on ::  Channel 9.  Note 38.  Velocity 0
000000t:  Note on ::  Channel 9.  Note 47.  Velocity 0
000000t:  Note on ::  Channel 3.  Note 76.  Velocity 118
000021t:  Note on ::  Channel 3.  Note 76.  Velocity 0
000000t:  Note on ::  Channel 9.  Note 82.  Velocity 50
000002t:  Note on ::  Channel 9.  Note 82.  Velocity 0
000000t:  Note on ::  Channel 3.  Note 77.  Velocity 104
000018t:  Note on ::  Channel 2.  Note 35.  Velocity 0
000002t:  Note on ::  Channel 9.  Note 36.  Velocity 125
000002t:  Note on ::  Channel 9.  Note 36.  Velocity 0
000000t:  Note on ::  Channel 2.  Note 36.  Velocity 120
000000t:  Note on ::  Channel 9.  Note 42.  Velocity 86
000000t:  Note on ::  Channel 3.  Note 79.  Velocity 110
000002t:  Note on ::  Channel 9.  Note 42.  Velocity 0
000002t:  Note on ::  Channel 3.  Note 77.  Velocity 0
000014t:  Note on ::  Channel 3.  Note 79.  Velocity 0
000026t:  Note on ::  Channel 9.  Note 82.  Velocity 64
000000t:  Note on ::  Channel 0.  Note 64.  Velocity 112
000000t:  Note on ::  Channel 0.  Note 60.  Velocity 112
000003t:  Note on ::  Channel 9.  Note 82.  Velocity 0
000000t:  Note on ::  Channel 9.  Note 46.  Velocity 88
000000t:  Note on ::  Channel 9.  Note 46.  Velocity 0
000010t:  Note on ::  Channel 0.  Note 60.  Velocity 0
000004t:  Note on ::  Channel 0.  Note 64.  Velocity 0
000008t:  Note on ::  Channel 3.  Note 72.  Velocity 110
000010t:  Note on ::  Channel 2.  Note 36.  Velocity 0
000006t:  Note on ::  Channel 3.  Note 72.  Velocity 0
000006t:  Note on ::  Channel 2.  Note 36.  Velocity 120
000000t:  Note on ::  Channel 0.  Note 64.  Velocity 111
000000t:  Note on ::  Channel 0.  Note 60.  Velocity 111
000000t:  Note on ::  Channel 9.  Note 36.  Velocity 125
000000t:  Note on ::  Channel 9.  Note 42.  Velocity 88
000002t:  Note on ::  Channel 9.  Note 42.  Velocity 0
000000t:  Note on ::  Channel 9.  Note 36.  Velocity 0
000012t:  Note on ::  Channel 0.  Note 60.  Velocity 0
000002t:  Note on ::  Channel 0.  Note 64.  Velocity 0
000028t:  Note on ::  Channel 9.  Note 82.  Velocity 62
000002t:  Note on ::  Channel 9.  Note 82.  Velocity 0
000000t:  Note on ::  Channel 9.  Note 46.  Velocity 86
000000t:  Note on ::  Channel 3.  Note 82.  Velocity 110
000002t:  Note on ::  Channel 9.  Note 46.  Velocity 0
000000t:  Note on ::  Channel 9.  Note 50.  Velocity 83
000002t:  Note on ::  Channel 9.  Note 50.  Velocity 0
000006t:  Note on ::  Channel 2.  Note 36.  Velocity 0
000012t:  Note on ::  Channel 9.  Note 82.  Velocity 56
000003t:  Note on ::  Channel 9.  Note 82.  Velocity 0
000000t:  Note on ::  Channel 2.  Note 36.  Velocity 120
000022t:  Note on ::  Channel 9.  Note 42.  Velocity 86
000000t:  Note on ::  Channel 0.  Note 62.  Velocity 109
000000t:  Note on ::  Channel 0.  Note 58.  Velocity 111
000000t:  Note on ::  Channel 9.  Note 36.  Velocity 125
000002t:  Note on ::  Channel 9.  Note 36.  Velocity 0
000000t:  Note on ::  Channel 9.  Note 42.  Velocity 0
000012t:  Note on ::  Channel 0.  Note 58.  Velocity 0
000002t:  Note on ::  Channel 0.  Note 62.  Velocity 0
000002t:  Note on ::  Channel 3.  Note 82.  Velocity 0
000026t:  Note on ::  Channel 2.  Note 36.  Velocity 0
000002t:  Note on ::  Channel 3.  Note 82.  Velocity 111
000000t:  Note on ::  Channel 9.  Note 46.  Velocity 86
000000t:  Note on ::  Channel 9.  Note 46.  Velocity 0
000000t:  Note on ::  Channel 9.  Note 82.  Velocity 73
000000t:  Note on ::  Channel 2.  Note 31.  Velocity 120
000002t:  Note on ::  Channel 9.  Note 82.  Velocity 0
000012t:  Note on ::  Channel 3.  Note 82.  Velocity 0
000009t:  Note on ::  Channel 0.  Note 64.  Velocity 111
000002t:  Note on ::  Channel 0.  Note 60.  Velocity 111
000012t:  Note on ::  Channel 0.  Note 60.  Velocity 0
000002t:  Note on ::  Channel 0.  Note 64.  Velocity 0
000006t:  Note on ::  Channel 2.  Note 31.  Velocity 0
000000t:  Note on ::  Channel 3.  Note 82.  Velocity 106
000000t:  Note on ::  Channel 9.  Note 36.  Velocity 122
000000t:  Note on ::  Channel 9.  Note 42.  Velocity 86
000002t:  Note on ::  Channel 9.  Note 42.  Velocity 0
000000t:  Note on ::  Channel 9.  Note 36.  Velocity 0
000000t:  Note on ::  Channel 2.  Note 36.  Velocity 120
000040t:  Note on ::  Channel 3.  Note 82.  Velocity 0
000005t:  Note on ::  Channel 9.  Note 46.  Velocity 90
000000t:  Note on ::  Channel 3.  Note 84.  Velocity 107
000000t:  Note on ::  Channel 9.  Note 82.  Velocity 62
000000t:  Note on ::  Channel 9.  Note 50.  Velocity 80
000001t:  Note on ::  Channel 9.  Note 50.  Velocity 0
000000t:  Note on ::  Channel 9.  Note 46.  Velocity 0
000000t:  Note on ::  Channel 2.  Note 36.  Velocity 0
000000t:  Note on ::  Channel 9.  Note 82.  Velocity 0
000000t:  Note on ::  Channel 2.  Note 31.  Velocity 120
000013t:  Note on ::  Channel 3.  Note 84.  Velocity 0
000011t:  Note on ::  Channel 9.  Note 82.  Velocity 60
000002t:  Note on ::  Channel 9.  Note 82.  Velocity 0
000020t:  Note on ::  Channel 2.  Note 31.  Velocity 0
000000t:  Note on ::  Channel 3.  Note 81.  Velocity 111
000000t:  Note on ::  Channel 9.  Note 36.  Velocity 120
000000t:  Note on ::  Channel 9.  Note 42.  Velocity 88
000000t:  Note on ::  Channel 2.  Note 29.  Velocity 120
000000t:  Note on ::  Channel 7.  Note 84.  Velocity 103
000002t:  Note on ::  Channel 9.  Note 42.  Velocity 0
000000t:  Note on ::  Channel 9.  Note 36.  Velocity 0
000020t:  Note on ::  Channel 7.  Note 84.  Velocity 0
000022t:  Note on ::  Channel 9.  Note 46.  Velocity 81
000002t:  Note on ::  Channel 9.  Note 46.  Velocity 0
000000t:  Note on ::  Channel 7.  Note 81.  Velocity 95
000000t:  Note on ::  Channel 9.  Note 82.  Velocity 70
000002t:  Note on ::  Channel 9.  Note 82.  Velocity 0
000012t:  Note on ::  Channel 7.  Note 81.  Velocity 0
000004t:  Note on ::  Channel 3.  Note 81.  Velocity 0
000004t:  Note on ::  Channel 3.  Note 82.  Velocity 114
000000t:  Note on ::  Channel 7.  Note 82.  Velocity 90
000005t:  Note on ::  Channel 2.  Note 29.  Velocity 0
000014t:  Note on ::  Channel 7.  Note 82.  Velocity 0
000002t:  Note on ::  Channel 2.  Note 29.  Velocity 120
000002t:  Note on ::  Channel 9.  Note 42.  Velocity 86
000000t:  Note on ::  Channel 9.  Note 36.  Velocity 118
000002t:  Note on ::  Channel 9.  Note 36.  Velocity 0
000000t:  Note on ::  Channel 9.  Note 42.  Velocity 0
000021t:  Note on ::  Channel 7.  Note 79.  Velocity 95
000016t:  Note on ::  Channel 3.  Note 82.  Velocity 0
000002t:  Note on ::  Channel 7.  Note 79.  Velocity 0
000004t:  Note on ::  Channel 4.  Note 69.  Velocity 83
000000t:  Note on ::  Channel 9.  Note 82.  Velocity 67
000002t:  Note on ::  Channel 9.  Note 82.  Velocity 0
000000t:  Note on ::  Channel 9.  Note 46.  Velocity 90
000000t:  Note on ::  Channel 3.  Note 84.  Velocity 107
000000t:  Note on ::  Channel 9.  Note 50.  Velocity 83
000002t:  Note on ::  Channel 9.  Note 50.  Velocity 0
000000t:  Note on ::  Channel 9.  Note 46.  Velocity 0
000002t:  Note on ::  Channel 2.  Note 29.  Velocity 0
000002t:  Note on ::  Channel 4.  Note 69.  Velocity 0
000014t:  Note on ::  Channel 2.  Note 29.  Velocity 120
000000t:  Note on ::  Channel 4.  Note 69.  Velocity 98
000002t:  Note on ::  Channel 9.  Note 82.  Velocity 54
000000t:  Note on ::  Channel 7.  Note 84.  Velocity 83
000003t:  Note on ::  Channel 9.  Note 82.  Velocity 0
000004t:  Note on ::  Channel 4.  Note 69.  Velocity 0
000012t:  Note on ::  Channel 7.  Note 84.  Velocity 0
000005t:  Note on ::  Channel 4.  Note 69.  Velocity 95
000000t:  Note on ::  Channel 9.  Note 38.  Velocity 122
000000t:  Note on ::  Channel 9.  Note 36.  Velocity 120
000000t:  Note on ::  Channel 9.  Note 42.  Velocity 75
000002t:  Note on ::  Channel 9.  Note 42.  Velocity 0
000000t:  Note on ::  Channel 9.  Note 38.  Velocity 0
000000t:  Note on ::  Channel 9.  Note 36.  Velocity 0
000006t:  Note on ::  Channel 2.  Note 29.  Velocity 0
000000t:  Note on ::  Channel 4.  Note 69.  Velocity 0
000014t:  Note on ::  Channel 4.  Note 69.  Velocity 100
000000t:  Note on ::  Channel 2.  Note 29.  Velocity 120
000000t:  Note on ::  Channel 9.  Note 48.  Velocity 66
000000t:  Note on ::  Channel 9.  Note 38.  Velocity 120
000002t:  Note on ::  Channel 9.  Note 38.  Velocity 0
000000t:  Note on ::  Channel 9.  Note 48.  Velocity 0
000000t:  Note on ::  Channel 7.  Note 81.  Velocity 90
000006t:  Note on ::  Channel 4.  Note 69.  Velocity 0
000002t:  Note on ::  Channel 2.  Note 29.  Velocity 0
000008t:  Note on ::  Channel 7.  Note 81.  Velocity 0
000004t:  Note on ::  Channel 2.  Note 29.  Velocity 120
000002t:  Note on ::  Channel 4.  Note 69.  Velocity 98
000000t:  Note on ::  Channel 9.  Note 38.  Velocity 109
000000t:  Note on ::  Channel 7.  Note 82.  Velocity 90
000000t:  Note on ::  Channel 9.  Note 82.  Velocity 70
000002t:  Note on ::  Channel 9.  Note 82.  Velocity 0
000000t:  Note on ::  Channel 9.  Note 38.  Velocity 0
000004t:  Note on ::  Channel 4.  Note 69.  Velocity 0
000010t:  Note on ::  Channel 7.  Note 82.  Velocity 0
000006t:  Note on ::  Channel 4.  Note 69.  Velocity 100
000009t:  Note on ::  Channel 4.  Note 69.  Velocity 0
000010t:  Note on ::  Channel 2.  Note 29.  Velocity 0
000003t:  Note on ::  Channel 4.  Note 69.  Velocity 95
000001t:  Note on ::  Channel 2.  Note 29.  Velocity 120
000000t:  Note on ::  Channel 9.  Note 38.  Velocity 121
000002t:  Note on ::  Channel 9.  Note 38.  Velocity 0
000000t:  Note on ::  Channel 9.  Note 36.  Velocity 125
000000t:  Note on ::  Channel 9.  Note 36.  Velocity 0
000000t:  Note on ::  Channel 7.  Note 79.  Velocity 98
000007t:  Note on ::  Channel 4.  Note 69.  Velocity 0
000004t:  Note on ::  Channel 2.  Note 29.  Velocity 0
000010t:  Note on ::  Channel 7.  Note 79.  Velocity 0
000000t:  Note on ::  Channel 2.  Note 29.  Velocity 120
000000t:  Note on ::  Channel 4.  Note 69.  Velocity 90
000000t:  Note on ::  Channel 9.  Note 38.  Velocity 116
000002t:  Note on ::  Channel 9.  Note 38.  Velocity 0
000006t:  Note on ::  Channel 4.  Note 69.  Velocity 0
000006t:  Note on ::  Channel 2.  Note 29.  Velocity 0
000010t:  Note on ::  Channel 2.  Note 29.  Velocity 120
000000t:  Note on ::  Channel 4.  Note 69.  Velocity 80
000000t:  Note on ::  Channel 9.  Note 38.  Velocity 116
000000t:  Note on ::  Channel 9.  Note 82.  Velocity 70
000002t:  Note on ::  Channel 9.  Note 82.  Velocity 0
000000t:  Note on ::  Channel 9.  Note 38.  Velocity 0
000004t:  Note on ::  Channel 4.  Note 69.  Velocity 0
000000t:  Note on ::  Channel 3.  Note 84.  Velocity 0
000017t:  Note on ::  Channel 4.  Note 69.  Velocity 98
000002t:  Note on ::  Channel 9.  Note 82.  Velocity 62
000002t:  Note on ::  Channel 9.  Note 82.  Velocity 0
000002t:  Note on ::  Channel 4.  Note 69.  Velocity 0
000016t:  Note on ::  Channel 2.  Note 29.  Velocity 0
000000t:  Note on ::  Channel 9.  Note 49.  Velocity 100
000002t:  Note on ::  Channel 9.  Note 49.  Velocity 0
000000t:  Control change ::  Channel 0.  Controller 11.  Value: 127
000000t:  Control change ::  Channel 0.  Controller 10.  Value: 64
000000t:  Note on ::  Channel 2.  Note 28.  Velocity 120
000000t:  Control change ::  Channel 7.  Controller 11.  Value: 127
000000t:  Control change ::  Channel 7.  Controller 10.  Value: 64
000000t:  Note on ::  Channel 9.  Note 36.  Velocity 120
000000t:  Note on ::  Channel 5.  Note 55.  Velocity 98
000002t:  Note on ::  Channel 9.  Note 36.  Velocity 0
000044t:  Note on ::  Channel 9.  Note 46.  Velocity 81
000001t:  Note on ::  Channel 9.  Note 46.  Velocity 0
000000t:  Note on ::  Channel 0.  Note 79.  Velocity 100
000000t:  Note on ::  Channel 6.  Note 79.  Velocity 110
000000t:  Note on ::  Channel 7.  Note 67.  Velocity 100
000000t:  Note on ::  Channel 7.  Note 79.  Velocity 100
000000t:  Note on ::  Channel 9.  Note 82.  Velocity 62
000002t:  Note on ::  Channel 9.  Note 82.  Velocity 0
000008t:  Note on ::  Channel 6.  Note 79.  Velocity 0
000008t:  Note on ::  Channel 7.  Note 67.  Velocity 0
000000t:  Note on ::  Channel 0.  Note 79.  Velocity 0
000000t:  Note on ::  Channel 7.  Note 79.  Velocity 0
000004t:  Note on ::  Channel 2.  Note 28.  Velocity 0
000000t:  Note on ::  Channel 6.  Note 76.  Velocity 110
000000t:  Note on ::  Channel 9.  Note 50.  Velocity 80
000000t:  Note on ::  Channel 9.  Note 82.  Velocity 62
000002t:  Note on ::  Channel 9.  Note 82.  Velocity 0
000000t:  Note on ::  Channel 9.  Note 50.  Velocity 0
000010t:  Note on ::  Channel 6.  Note 76.  Velocity 0
000010t:  Note on ::  Channel 2.  Note 28.  Velocity 120
000000t:  Note on ::  Channel 9.  Note 36.  Velocity 122
000000t:  Note on ::  Channel 0.  Note 84.  Velocity 90
000000t:  Note on ::  Channel 6.  Note 72.  Velocity 110
000000t:  Note on ::  Channel 7.  Note 72.  Velocity 90
000000t:  Note on ::  Channel 7.  Note 84.  Velocity 90
000000t:  Note on ::  Channel 9.  Note 42.  Velocity 88
000002t:  Note on ::  Channel 9.  Note 42.  Velocity 0
000000t:  Note on ::  Channel 9.  Note 36.  Velocity 0
000010t:  Note on ::  Channel 6.  Note 72.  Velocity 0
000006t:  Note on ::  Channel 7.  Note 72.  Velocity 0
000000t:  Note on ::  Channel 0.  Note 84.  Velocity 0
000000t:  Note on ::  Channel 7.  Note 84.  Velocity 0
000005t:  Note on ::  Channel 6.  Note 69.  Velocity 110
000012t:  Note on ::  Channel 6.  Note 69.  Velocity 0
000012t:  Note on ::  Channel 9.  Note 82.  Velocity 73
000000t:  Note on ::  Channel 0.  Note 91.  Velocity 95
000000t:  Note on ::  Channel 6.  Note 67.  Velocity 110
000000t:  Note on ::  Channel 7.  Note 79.  Velocity 95
000000t:  Note on ::  Channel 7.  Note 91.  Velocity 95
000000t:  Note on ::  Channel 9.  Note 46.  Velocity 93
000002t:  Note on ::  Channel 9.  Note 46.  Velocity 0
000000t:  Note on ::  Channel 9.  Note 82.  Velocity 0
000000t:  Note on ::  Channel 9.  Note 50.  Velocity 80
000002t:  Note on ::  Channel 9.  Note 50.  Velocity 0
000008t:  Note on ::  Channel 2.  Note 28.  Velocity 0
000000t:  Note on ::  Channel 6.  Note 67.  Velocity 0
000008t:  Note on ::  Channel 0.  Note 91.  Velocity 0
000000t:  Note on ::  Channel 7.  Note 91.  Velocity 0
000000t:  Note on ::  Channel 7.  Note 79.  Velocity 0
000003t:  Note on ::  Channel 2.  Note 33.  Velocity 120
000000t:  Note on ::  Channel 6.  Note 64.  Velocity 110
000012t:  Note on ::  Channel 6.  Note 64.  Velocity 0
000010t:  Note on ::  Channel 9.  Note 36.  Velocity 125
000002t:  Note on ::  Channel 9.  Note 36.  Velocity 0
000000t:  Note on ::  Channel 5.  Note 55.  Velocity 0
000000t:  Note on ::  Channel 0.  Note 89.  Velocity 98
000000t:  Note on ::  Channel 7.  Note 77.  Velocity 98
000000t:  Note on ::  Channel 7.  Note 89.  Velocity 98
000000t:  Note on ::  Channel 5.  Note 52.  Velocity 100
000000t:  Note on ::  Channel 9.  Note 42.  Velocity 88
000002t:  Note on ::  Channel 9.  Note 42.  Velocity 0
000020t:  Note on ::  Channel 0.  Note 89.  Velocity 0
000000t:  Note on ::  Channel 7.  Note 77.  Velocity 0
000000t:  Note on ::  Channel 7.  Note 89.  Velocity 0
000008t:  Note on ::  Channel 2.  Note 33.  Velocity 0
000014t:  Note on ::  Channel 9.  Note 82.  Velocity 70
000000t:  Note on ::  Channel 2.  Note 33.  Velocity 120
000000t:  Note on ::  Channel 6.  Note 79.  Velocity 110
000002t:  Note on ::  Channel 9.  Note 82.  Velocity 0
000000t:  Note on ::  Channel 9.  Note 46.  Velocity 93
000000t:  Note on ::  Channel 9.  Note 46.  Velocity 0
000010t:  Note on ::  Channel 6.  Note 79.  Velocity 0
000010t:  Note on ::  Channel 9.  Note 82.  Velocity 62
000003t:  Note on ::  Channel 9.  Note 82.  Velocity 0
000000t:  Note on ::  Channel 0.  Note 88.  Velocity 98
000000t:  Note on ::  Channel 6.  Note 76.  Velocity 110
000000t:  Note on ::  Channel 7.  Note 76.  Velocity 98
000000t:  Note on ::  Channel 7.  Note 88.  Velocity 98
000002t:  Note on ::  Channel 9.  Note 47.  Velocity 90
000000t:  Note on ::  Channel 9.  Note 47.  Velocity 0
000010t:  Note on ::  Channel 2.  Note 33.  Velocity 0
000000t:  Note on ::  Channel 6.  Note 76.  Velocity 0
000008t:  Note on ::  Channel 7.  Note 76.  Velocity 0
000000t:  Note on ::  Channel 7.  Note 88.  Velocity 0
000000t:  Note on ::  Channel 0.  Note 88.  Velocity 0
000002t:  Note on ::  Channel 2.  Note 40.  Velocity 120
000000t:  Note on ::  Channel 6.  Note 72.  Velocity 110
000000t:  Note on ::  Channel 9.  Note 38.  Velocity 123
000002t:  Note on ::  Channel 9.  Note 38.  Velocity 0
000000t:  Note on ::  Channel 9.  Note 42.  Velocity 88
000002t:  Note on ::  Channel 9.  Note 42.  Velocity 0
000008t:  Note on ::  Channel 6.  Note 72.  Velocity 0
000012t:  Note on ::  Channel 6.  Note 69.  Velocity 110
000011t:  Note on ::  Channel 6.  Note 69.  Velocity 0
000000t:  Note on ::  Channel 2.  Note 40.  Velocity 0
000012t:  Note on ::  Channel 2.  Note 33.  Velocity 120
000000t:  Note on ::  Channel 0.  Note 84.  Velocity 90
000000t:  Note on ::  Channel 6.  Note 67.  Velocity 110
000000t:  Note on ::  Channel 7.  Note 72.  Velocity 90
000000t:  Note on ::  Channel 7.  Note 84.  Velocity 90
000000t:  Note on ::  Channel 9.  Note 82.  Velocity 80
000000t:  Note on ::  Channel 9.  Note 46.  Velocity 90
000001t:  Note on ::  Channel 9.  Note 46.  Velocity 0
000000t:  Note on ::  Channel 9.  Note 82.  Velocity 0
000009t:  Note on ::  Channel 6.  Note 67.  Velocity 0
000006t:  Note on ::  Channel 7.  Note 72.  Velocity 0
000000t:  Note on ::  Channel 0.  Note 84.  Velocity 0
000000t:  Note on ::  Channel 7.  Note 84.  Velocity 0
000006t:  Note on ::  Channel 6.  Note 64.  Velocity 110
000012t:  Note on ::  Channel 6.  Note 64.  Velocity 0
000000t:  Note on ::  Channel 2.  Note 33.  Velocity 0
000005t:  Note on ::  Channel 5.  Note 52.  Velocity 0
000006t:  Note on ::  Channel 2.  Note 38.  Velocity 120
000000t:  Note on ::  Channel 5.  Note 57.  Velocity 98
000000t:  Note on ::  Channel 9.  Note 36.  Velocity 125
000000t:  Note on ::  Channel 7.  Note 69.  Velocity 100
000000t:  Note on ::  Channel 7.  Note 81.  Velocity 100
000000t:  Note on ::  Channel 9.  Note 42.  Velocity 100
000002t:  Note on ::  Channel 9.  Note 42.  Velocity 0
000000t:  Note on ::  Channel 9.  Note 36.  Velocity 0
000000t:  Note on ::  Channel 0.  Note 81.  Velocity 103
000011t:  Note on ::  Channel 0.  Note 81.  Velocity 0
000002t:  Note on ::  Channel 0.  Note 81.  Velocity 83
000006t:  Note on ::  Channel 7.  Note 81.  Velocity 0
000000t:  Note on ::  Channel 7.  Note 69.  Velocity 0
000008t:  Note on ::  Channel 0.  Note 81.  Velocity 0
000004t:  Note on ::  Channel 0.  Note 81.  Velocity 90
000012t:  Note on ::  Channel 0.  Note 81.  Velocity 0
000002t:  Note on ::  Channel 0.  Note 81.  Velocity 77
000000t:  Note on ::  Channel 6.  Note 77.  Velocity 110
000000t:  Note on ::  Channel 9.  Note 46.  Velocity 93
000000t:  Note on ::  Channel 9.  Note 82.  Velocity 62
000002t:  Note on ::  Channel 9.  Note 82.  Velocity 0
000000t:  Note on ::  Channel 9.  Note 46.  Velocity 0
000010t:  Note on ::  Channel 0.  Note 81.  Velocity 0
000000t:  Note on ::  Channel 6.  Note 77.  Velocity 0
000004t:  Note on ::  Channel 0.  Note 81.  Velocity 80
000006t:  Note on ::  Channel 5.  Note 55.  Velocity 98
000000t:  Note on ::  Channel 6.  Note 74.  Velocity 110
000002t:  Note on ::  Channel 9.  Note 50.  Velocity 83
000000t:  Note on ::  Channel 9.  Note 82.  Velocity 58
000002t:  Note on ::  Channel 9.  Note 82.  Velocity 0
000000t:  Note on ::  Channel 9.  Note 50.  Velocity 0
000002t:  Note on ::  Channel 5.  Note 57.  Velocity 0
000000t:  Note on ::  Channel 2.  Note 38.  Velocity 0
000000t:  Note on ::  Channel 0.  Note 81.  Velocity 0
000002t:  Note on ::  Channel 0.  Note 81.  Velocity 80
000004t:  Note on ::  Channel 6.  Note 74.  Velocity 0
000008t:  Note on ::  Channel 0.  Note 81.  Velocity 0
000003t:  Note on ::  Channel 2.  Note 38.  Velocity 120
000002t:  Note on ::  Channel 9.  Note 36.  Velocity 125
000000t:  Note on ::  Channel 9.  Note 36.  Velocity 0
000000t:  Note on ::  Channel 0.  Note 81.  Velocity 75
000000t:  Note on ::  Channel 6.  Note 69.  Velocity 110
000000t:  Note on ::  Channel 9.  Note 42.  Velocity 90
000002t:  Note on ::  Channel 9.  Note 42.  Velocity 0
000008t:  Note on ::  Channel 0.  Note 81.  Velocity 0
000000t:  Note on ::  Channel 6.  Note 69.  Velocity 0
000002t:  Note on ::  Channel 0.  Note 81.  Velocity 75
000010t:  Note on ::  Channel 6.  Note 67.  Velocity 110
000002t:  Note on ::  Channel 0.  Note 81.  Velocity 0
000010t:  Note on ::  Channel 6.  Note 67.  Velocity 0
000011t:  Note on ::  Channel 0.  Note 84.  Velocity 98
000000t:  Note on ::  Channel 6.  Note 65.  Velocity 110
000000t:  Note on ::  Channel 7.  Note 72.  Velocity 98
000000t:  Note on ::  Channel 7.  Note 84.  Velocity 98
000000t:  Note on ::  Channel 9.  Note 46.  Velocity 86
000000t:  Note on ::  Channel 5.  Note 53.  Velocity 90
000002t:  Note on ::  Channel 9.  Note 46.  Velocity 0
000000t:  Note on ::  Channel 9.  Note 82.  Velocity 73
000000t:  Note on ::  Channel 9.  Note 50.  Velocity 77
000002t:  Note on ::  Channel 9.  Note 50.  Velocity 0
000000t:  Note on ::  Channel 9.  Note 82.  Velocity 0
000002t:  Note on ::  Channel 5.  Note 55.  Velocity 0
000002t:  Note on ::  Channel 2.  Note 38.  Velocity 0
000004t:  Note on ::  Channel 6.  Note 65.  Velocity 0
000006t:  Note on ::  Channel 7.  Note 72.  Velocity 0
000000t:  Note on ::  Channel 7.  Note 84.  Velocity 0
000000t:  Note on ::  Channel 0.  Note 84.  Velocity 0
000004t:  Note on ::  Channel 2.  Note 31.  Velocity 120
000000t:  Note on ::  Channel 6.  Note 62.  Velocity 110
000012t:  Note on ::  Channel 6.  Note 62.  Velocity 0
000011t:  Note on ::  Channel 9.  Note 36.  Velocity 125
000002t:  Note on ::  Channel 9.  Note 36.  Velocity 0
000000t:  Note on ::  Channel 0.  Note 83.  Velocity 95
000000t:  Note on ::  Channel 7.  Note 71.  Velocity 95
000000t:  Note on ::  Channel 7.  Note 83.  Velocity 95
000000t:  Note on ::  Channel 9.  Note 42.  Velocity 81
000000t:  Note on ::  Channel 5.  Note 52.  Velocity 95
000002t:  Note on ::  Channel 9.  Note 42.  Velocity 0
000000t:  Note on ::  Channel 5.  Note 53.  Velocity 0
000006t:  Note on ::  Channel 2.  Note 31.  Velocity 0
000010t:  Note on ::  Channel 7.  Note 83.  Velocity 0
000000t:  Note on ::  Channel 7.  Note 71.  Velocity 0
000000t:  Note on ::  Channel 0.  Note 83.  Velocity 0
000004t:  Note on ::  Channel 2.  Note 43.  Velocity 120
000012t:  Note on ::  Channel 2.  Note 43.  Velocity 0
000011t:  Note on ::  Channel 2.  Note 43.  Velocity 120
000000t:  Note on ::  Channel 9.  Note 82.  Velocity 70
000000t:  Note on ::  Channel 6.  Note 77.  Velocity 110
000000t:  Note on ::  Channel 9.  Note 46.  Velocity 88
000002t:  Note on ::  Channel 9.  Note 46.  Velocity 0
000000t:  Note on ::  Channel 9.  Note 82.  Velocity 0
000010t:  Note on ::  Channel 6.  Note 77.  Velocity 0
000012t:  Note on ::  Channel 9.  Note 47.  Velocity 80
000000t:  Note on ::  Channel 9.  Note 47.  Velocity 0
000000t:  Note on ::  Channel 9.  Note 82.  Velocity 52
000000t:  Note on ::  Channel 0.  Note 84.  Velocity 83
000000t:  Note on ::  Channel 6.  Note 74.  Velocity 110
000000t:  Note on ::  Channel 7.  Note 72.  Velocity 83
000000t:  Note on ::  Channel 7.  Note 84.  Velocity 83
000000t:  Note on ::  Channel 5.  Note 53.  Velocity 90
000002t:  Note on ::  Channel 9.  Note 82.  Velocity 0
000002t:  Note on ::  Channel 5.  Note 52.  Velocity 0
000004t:  Note on ::  Channel 2.  Note 43.  Velocity 0
000004t:  Note on ::  Channel 6.  Note 74.  Velocity 0
000008t:  Note on ::  Channel 7.  Note 84.  Velocity 0
000000t:  Note on ::  Channel 0.  Note 84.  Velocity 0
000000t:  Note on ::  Channel 7.  Note 72.  Velocity 0
000002t:  Note on ::  Channel 2.  Note 43.  Velocity 120
000000t:  Note on ::  Channel 6.  Note 69.  Velocity 110
000000t:  Note on ::  Channel 9.  Note 38.  Velocity 124
000000t:  Note on ::  Channel 9.  Note 42.  Velocity 90
000002t:  Note on ::  Channel 9.  Note 42.  Velocity 0
000000t:  Note on ::  Channel 9.  Note 38.  Velocity 0
000010t:  Note on ::  Channel 6.  Note 69.  Velocity 0
000012t:  Note on ::  Channel 6.  Note 67.  Velocity 110
000011t:  Note on ::  Channel 6.  Note 67.  Velocity 0
000000t:  Note on ::  Channel 2.  Note 43.  Velocity 0
000012t:  Note on ::  Channel 5.  Note 53.  Velocity 0
000000t:  Note on ::  Channel 2.  Note 41.  Velocity 120
000000t:  Note on ::  Channel 0.  Note 86.  Velocity 83
000000t:  Note on ::  Channel 6.  Note 65.  Velocity 110
000000t:  Note on ::  Channel 7.  Note 74.  Velocity 83
000000t:  Note on ::  Channel 7.  Note 86.  Velocity 83
000000t:  Note on ::  Channel 9.  Note 82.  Velocity 64
000000t:  Note on ::  Channel 5.  Note 57.  Velocity 98
000000t:  Note on ::  Channel 9.  Note 46.  Velocity 90
000002t:  Note on ::  Channel 9.  Note 46.  Velocity 0
000000t:  Note on ::  Channel 9.  Note 82.  Velocity 0
000010t:  Note on ::  Channel 6.  Note 65.  Velocity 0
000006t:  Note on ::  Channel 7.  Note 86.  Velocity 0
000000t:  Note on ::  Channel 7.  Note 74.  Velocity 0
000000t:  Note on ::  Channel 0.  Note 86.  Velocity 0
000004t:  Note on ::  Channel 6.  Note 62.  Velocity 110
000013t:  Note on ::  Channel 6.  Note 62.  Velocity 0
000000t:  Note on ::  Channel 2.  Note 41.  Velocity 0
000010t:  Note on ::  Channel 9.  Note 36.  Velocity 118
000002t:  Note on ::  Channel 9.  Note 36.  Velocity 0
000000t:  Note on ::  Channel 2.  Note 40.  Velocity 120
000000t:  Note on ::  Channel 7.  Note 76.  Velocity 95
000000t:  Note on ::  Channel 7.  Note 88.  Velocity 95
000000t:  Note on ::  Channel 9.  Note 42.  Velocity 93
000000t:  Note on ::  Channel 0.  Note 88.  Velocity 103
000000t:  Note on ::  Channel 5.  Note 55.  Velocity 100
000002t:  Note on ::  Channel 9.  Note 42.  Velocity 0
000004t:  Note on ::  Channel 5.  Note 57.  Velocity 0
000004t:  Note on ::  Channel 0.  Note 88.  Velocity 0
000004t:  Note on ::  Channel 0.  Note 88.  Velocity 83
000006t:  Note on ::  Channel 7.  Note 88.  Velocity 0
000000t:  Note on ::  Channel 7.  Note 76.  Velocity 0
000006t:  Note on ::  Channel 0.  Note 88.  Velocity 0
000004t:  Note on ::  Channel 0.  Note 88.  Velocity 90
000012t:  Note on ::  Channel 0.  Note 88.  Velocity 0
000002t:  Note on ::  Channel 9.  Note 82.  Velocity 73
000000t:  Note on ::  Channel 6.  Note 67.  Velocity 110
000000t:  Note on ::  Channel 8.  Note 67.  Velocity 105
000000t:  Note on ::  Channel 9.  Note 46.  Velocity 93
000003t:  Note on ::  Channel 9.  Note 46.  Velocity 0
000000t:  Note on ::  Channel 9.  Note 82.  Velocity 0
000000t:  Note on ::  Channel 0.  Note 88.  Velocity 77
000012t:  Note on ::  Channel 0.  Note 88.  Velocity 0
000004t:  Note on ::  Channel 0.  Note 88.  Velocity 80
000004t:  Note on ::  Channel 6.  Note 67.  Velocity 0
000000t:  Note on ::  Channel 9.  Note 50.  Velocity 80
000000t:  Note on ::  Channel 9.  Note 82.  Velocity 54
000002t:  Note on ::  Channel 9.  Note 82.  Velocity 0
000000t:  Note on ::  Channel 9.  Note 50.  Velocity 0
000002t:  Note on ::  Channel 2.  Note 40.  Velocity 0
000004t:  Note on ::  Channel 0.  Note 88.  Velocity 0
000002t:  Note on ::  Channel 0.  Note 88.  Velocity 80
000015t:  Note on ::  Channel 0.  Note 88.  Velocity 0
000000t:  Note on ::  Channel 8.  Note 67.  Velocity 0
000000t:  Note on ::  Channel 2.  Note 40.  Velocity 120
000000t:  Note on ::  Channel 9.  Note 36.  Velocity 120
000000t:  Note on ::  Channel 8.  Note 74.  Velocity 100
000000t:  Note on ::  Channel 9.  Note 42.  Velocity 93
000000t:  Note on ::  Channel 6.  Note 74.  Velocity 110
000002t:  Note on ::  Channel 9.  Note 42.  Velocity 0
000000t:  Note on ::  Channel 9.  Note 36.  Velocity 0
000000t:  Note on ::  Channel 0.  Note 88.  Velocity 75
000012t:  Note on ::  Channel 0.  Note 88.  Velocity 0
000000t:  Note on ::  Channel 0.  Note 88.  Velocity 75
000008t:  Note on ::  Channel 6.  Note 74.  Velocity 0
000004t:  Note on ::  Channel 0.  Note 88.  Velocity 0
000004t:  Note on ::  Channel 0.  Note 88.  Velocity 80
000012t:  Note on ::  Channel 0.  Note 88.  Velocity 0
000004t:  Note on ::  Channel 8.  Note 74.  Velocity 0
000000t:  Note on ::  Channel 9.  Note 82.  Velocity 62
000000t:  Note on ::  Channel 9.  Note 82.  Velocity 0
000000t:  Note on ::  Channel 9.  Note 46.  Velocity 100
000000t:  Note on ::  Channel 6.  Note 79.  Velocity 110
000000t:  Note on ::  Channel 8.  Note 79.  Velocity 103
000000t:  Note on ::  Channel 9.  Note 50.  Velocity 83
000002t:  Note on ::  Channel 9.  Note 50.  Velocity 0
000000t:  Note on ::  Channel 9.  Note 46.  Velocity 0
000012t:  Note on ::  Channel 2.  Note 40.  Velocity 0
000006t:  Note on ::  Channel 6.  Note 79.  Velocity 0
000003t:  Note on ::  Channel 2.  Note 33.  Velocity 120
000016t:  Note on ::  Channel 8.  Note 79.  Velocity 0
000006t:  Note on ::  Channel 7.  Note 69.  Velocity 98
000000t:  Note on ::  Channel 7.  Note 81.  Velocity 98
000000t:  Note on ::  Channel 9.  Note 36.  Velocity 122
000002t:  Note on ::  Channel 9.  Note 36.  Velocity 0
000000t:  Note on ::  Channel 0.  Note 81.  Velocity 103
000000t:  Note on ::  Channel 8.  Note 77.  Velocity 100
000000t:  Note on ::  Channel 6.  Note 77.  Velocity 110
000000t:  Note on ::  Channel 9.  Note 42.  Velocity 86
000002t:  Note on ::  Channel 9.  Note 42.  Velocity 0
000002t:  Note on ::  Channel 5.  Note 55.  Velocity 0
000006t:  Note on ::  Channel 0.  Note 81.  Velocity 0
000000t:  Note on ::  Channel 6.  Note 77.  Velocity 0
000002t:  Note on ::  Channel 0.  Note 81.  Velocity 83
000009t:  Note on ::  Channel 7.  Note 81.  Velocity 0
000000t:  Note on ::  Channel 7.  Note 69.  Velocity 0
000002t:  Note on ::  Channel 8.  Note 77.  Velocity 0
000000t:  Note on ::  Channel 6.  Note 77.  Velocity 110
000002t:  Note on ::  Channel 0.  Note 81.  Velocity 0
000004t:  Note on ::  Channel 0.  Note 81.  Velocity 90
000002t:  Note on ::  Channel 2.  Note 33.  Velocity 0
000010t:  Note on ::  Channel 0.  Note 81.  Velocity 0
000000t:  Note on ::  Channel 6.  Note 77.  Velocity 0
000002t:  Note on ::  Channel 9.  Note 82.  Velocity 73
000002t:  Note on ::  Channel 9.  Note 82.  Velocity 0
000000t:  Note on ::  Channel 2.  Note 33.  Velocity 120
000000t:  Note on ::  Channel 9.  Note 46.  Velocity 90
000002t:  Note on ::  Channel 9.  Note 46.  Velocity 0
000000t:  Note on ::  Channel 0.  Note 81.  Velocity 77
000010t:  Note on ::  Channel 0.  Note 81.  Velocity 0
000006t:  Note on ::  Channel 0.  Note 81.  Velocity 80
000004t:  Note on ::  Channel 9.  Note 47.  Velocity 95
000001t:  Note on ::  Channel 9.  Note 82.  Velocity 54
000000t:  Note on ::  Channel 6.  Note 76.  Velocity 110
000002t:  Note on ::  Channel 9.  Note 82.  Velocity 0
000000t:  Note on ::  Channel 9.  Note 47.  Velocity 0
000000t:  Note on ::  Channel 8.  Note 76.  Velocity 104
000004t:  Note on ::  Channel 0.  Note 81.  Velocity 0
000004t:  Note on ::  Channel 0.  Note 81.  Velocity 80
000004t:  Note on ::  Channel 2.  Note 33.  Velocity 0
000006t:  Note on ::  Channel 6.  Note 76.  Velocity 0
000003t:  Note on ::  Channel 0.  Note 81.  Velocity 0
000000t:  Note on ::  Channel 9.  Note 38.  Velocity 123
000002t:  Note on ::  Channel 9.  Note 38.  Velocity 0
000000t:  Note on ::  Channel 8.  Note 76.  Velocity 0
000000t:  Note on ::  Channel 9.  Note 42.  Velocity 90
000000t:  Note on ::  Channel 9.  Note 42.  Velocity 0
000000t:  Note on ::  Channel 2.  Note 40.  Velocity 120
000000t:  Note on ::  Channel 0.  Note 81.  Velocity 75
000012t:  Note on ::  Channel 0.  Note 81.  Velocity 0
000004t:  Note on ::  Channel 0.  Note 81.  Velocity 75
000012t:  Note on ::  Channel 0.  Note 81.  Velocity 0
000008t:  Note on ::  Channel 2.  Note 40.  Velocity 0
000006t:  Note on ::  Channel 6.  Note 72.  Velocity 110
000002t:  Note on ::  Channel 9.  Note 82.  Velocity 73
000000t:  Note on ::  Channel 9.  Note 82.  Velocity 0
000000t:  Note on ::  Channel 8.  Note 72.  Velocity 103
000000t:  Note on ::  Channel 0.  Note 81.  Velocity 83
000000t:  Note on ::  Channel 7.  Note 69.  Velocity 83
000000t:  Note on ::  Channel 7.  Note 81.  Velocity 83
000000t:  Note on ::  Channel 9.  Note 46.  Velocity 93
000000t:  Note on ::  Channel 2.  Note 33.  Velocity 120
000002t:  Note on ::  Channel 9.  Note 46.  Velocity 0
000016t:  Note on ::  Channel 6.  Note 72.  Velocity 0
000002t:  Note on ::  Channel 7.  Note 81.  Velocity 0
000000t:  Note on ::  Channel 7.  Note 69.  Velocity 0
000000t:  Note on ::  Channel 0.  Note 81.  Velocity 0
000005t:  Note on ::  Channel 8.  Note 72.  Velocity 0
000010t:  Note on ::  Channel 2.  Note 33.  Velocity 0
000012t:  Note on ::  Channel 0.  Note 89.  Velocity 98
000000t:  Note on ::  Channel 6.  Note 69.  Velocity 110
000000t:  Note on ::  Channel 7.  Note 77.  Velocity 98
000000t:  Note on ::  Channel 7.  Note 89.  Velocity 98
000000t:  Note on ::  Channel 9.  Note 36.  Velocity 120
000000t:  Note on ::  Channel 9.  Note 42.  Velocity 90
000000t:  Note on ::  Channel 2.  Note 38.  Velocity 120
000000t:  Note on ::  Channel 8.  Note 69.  Velocity 105
000002t:  Note on ::  Channel 9.  Note 42.  Velocity 0
000000t:  Note on ::  Channel 9.  Note 36.  Velocity 0
000022t:  Note on ::  Channel 7.  Note 89.  Velocity 0
000000t:  Note on ::  Channel 7.  Note 77.  Velocity 0
000000t:  Note on ::  Channel 0.  Note 89.  Velocity 0
000020t:  Note on ::  Channel 9.  Note 82.  Velocity 54
000002t:  Note on ::  Channel 9.  Note 82.  Velocity 0
000000t:  Note on ::  Channel 9.  Note 46.  Velocity 93
000002t:  Note on ::  Channel 9.  Note 46.  Velocity 0
000021t:  Note on ::  Channel 9.  Note 82.  Velocity 54
000000t:  Note on ::  Channel 9.  Note 50.  Velocity 80
000000t:  Note on ::  Channel 0.  Note 88.  Velocity 90
000000t:  Note on ::  Channel 7.  Note 76.  Velocity 90
000000t:  Note on ::  Channel 7.  Note 88.  Velocity 90
000002t:  Note on ::  Channel 9.  Note 50.  Velocity 0
000000t:  Note on ::  Channel 9.  Note 82.  Velocity 0
000006t:  Note on ::  Channel 2.  Note 38.  Velocity 0
000014t:  Note on ::  Channel 2.  Note 38.  Velocity 120
000000t:  Note on ::  Channel 9.  Note 36.  Velocity 122
000002t:  Note on ::  Channel 9.  Note 36.  Velocity 0
000000t:  Note on ::  Channel 7.  Note 76.  Velocity 0
000000t:  Note on ::  Channel 7.  Note 88.  Velocity 0
000000t:  Note on ::  Channel 0.  Note 88.  Velocity 0
000000t:  Note on ::  Channel 9.  Note 42.  Velocity 88
000000t:  Note on ::  Channel 9.  Note 42.  Velocity 0
000044t:  Note on ::  Channel 0.  Note 86.  Velocity 90
000000t:  Note on ::  Channel 7.  Note 74.  Velocity 90
000000t:  Note on ::  Channel 7.  Note 86.  Velocity 90
000000t:  Note on ::  Channel 9.  Note 46.  Velocity 100
000002t:  Note on ::  Channel 9.  Note 46.  Velocity 0
000000t:  Note on ::  Channel 9.  Note 82.  Velocity 73
000000t:  Note on ::  Channel 9.  Note 50.  Velocity 80
000002t:  Note on ::  Channel 9.  Note 50.  Velocity 0
000000t:  Note on ::  Channel 9.  Note 82.  Velocity 0
000008t:  Note on ::  Channel 2.  Note 38.  Velocity 0
000006t:  Note on ::  Channel 7.  Note 74.  Velocity 0
000000t:  Note on ::  Channel 0.  Note 86.  Velocity 0
000000t:  Note on ::  Channel 7.  Note 86.  Velocity 0
000006t:  Note on ::  Channel 2.  Note 31.  Velocity 120
000003t:  Note on ::  Channel 6.  Note 69.  Velocity 0
000008t:  Note on ::  Channel 8.  Note 69.  Velocity 0
000012t:  Note on ::  Channel 0.  Note 83.  Velocity 95
000000t:  Note on ::  Channel 7.  Note 71.  Velocity 95
000000t:  Note on ::  Channel 7.  Note 83.  Velocity 95
000000t:  Note on ::  Channel 9.  Note 36.  Velocity 125
000000t:  Note on ::  Channel 6.  Note 74.  Velocity 110
000000t:  Note on ::  Channel 9.  Note 42.  Velocity 86
000000t:  Note on ::  Channel 8.  Note 74.  Velocity 103
000002t:  Note on ::  Channel 9.  Note 42.  Velocity 0
000000t:  Note on ::  Channel 9.  Note 36.  Velocity 0
000012t:  Note on ::  Channel 2.  Note 31.  Velocity 0
000004t:  Note on ::  Channel 0.  Note 83.  Velocity 0
000000t:  Note on ::  Channel 7.  Note 83.  Velocity 0
000000t:  Note on ::  Channel 7.  Note 71.  Velocity 0
000004t:  Note on ::  Channel 9.  Note 38.  Velocity 122
000002t:  Note on ::  Channel 9.  Note 38.  Velocity 0
000000t:  Note on ::  Channel 2.  Note 43.  Velocity 120
000010t:  Note on ::  Channel 2.  Note 43.  Velocity 0
000000t:  Note on ::  Channel 8.  Note 74.  Velocity 0
000013t:  Note on ::  Channel 9.  Note 82.  Velocity 64
000000t:  Note on ::  Channel 2.  Note 43.  Velocity 120
000002t:  Note on ::  Channel 9.  Note 82.  Velocity 0
000004t:  Note on ::  Channel 6.  Note 74.  Velocity 0
000016t:  Note on ::  Channel 9.  Note 38.  Velocity 122
000000t:  Note on ::  Channel 9.  Note 38.  Velocity 0
000000t:  Note on ::  Channel 6.  Note 72.  Velocity 110
000000t:  Note on ::  Channel 0.  Note 81.  Velocity 95
000000t:  Note on ::  Channel 7.  Note 69.  Velocity 95
000000t:  Note on ::  Channel 7.  Note 81.  Velocity 95
000000t:  Note on ::  Channel 8.  Note 72.  Velocity 100
000000t:  Note on ::  Channel 9.  Note 82.  Velocity 64
000002t:  Note on ::  Channel 9.  Note 82.  Velocity 0
000006t:  Note on ::  Channel 2.  Note 43.  Velocity 0
000011t:  Note on ::  Channel 7.  Note 81.  Velocity 0
000000t:  Note on ::  Channel 7.  Note 69.  Velocity 0
000000t:  Note on ::  Channel 0.  Note 81.  Velocity 0
000004t:  Note on ::  Channel 9.  Note 38.  Velocity 113
000000t:  Note on ::  Channel 2.  Note 43.  Velocity 120
000002t:  Note on ::  Channel 9.  Note 38.  Velocity 0
000010t:  Note on ::  Channel 8.  Note 72.  Velocity 0
000018t:  Note on ::  Channel 6.  Note 72.  Velocity 0
000004t:  Note on ::  Channel 2.  Note 43.  Velocity 0
000010t:  Note on ::  Channel 6.  Note 71.  Velocity 110
000000t:  Note on ::  Channel 9.  Note 38.  Velocity 122
000003t:  Note on ::  Channel 9.  Note 38.  Velocity 0
000000t:  Note on ::  Channel 8.  Note 71.  Velocity 97
000000t:  Note on ::  Channel 0.  Note 79.  Velocity 100
000000t:  Note on ::  Channel 7.  Note 67.  Velocity 100
000000t:  Note on ::  Channel 7.  Note 79.  Velocity 100
000000t:  Note on ::  Channel 9.  Note 82.  Velocity 73
000000t:  Note on ::  Channel 2.  Note 41.  Velocity 120
000002t:  Note on ::  Channel 9.  Note 82.  Velocity 0
000016t:  Note on ::  Channel 7.  Note 67.  Velocity 0
000000t:  Note on ::  Channel 0.  Note 79.  Velocity 0
000000t:  Note on ::  Channel 7.  Note 79.  Velocity 0
000022t:  Note on ::  Channel 2.  Note 41.  Velocity 0
000002t:  Note on ::  Channel 8.  Note 71.  Velocity 0
000002t:  Note on ::  Channel 9.  Note 36.  Velocity 116
000000t:  Note on ::  Channel 9.  Note 42.  Velocity 86
000002t:  Note on ::  Channel 9.  Note 42.  Velocity 0
000000t:  Note on ::  Channel 9.  Note 36.  Velocity 0
000000t:  Note on ::  Channel 2.  Note 40.  Velocity 120
000000t:  Note on ::  Channel 5.  Note 55.  Velocity 98
000010t:  Note on ::  Channel 6.  Note 71.  Velocity 0
000035t:  Note on ::  Channel 9.  Note 82.  Velocity 70
000000t:  Note on ::  Channel 9.  Note 46.  Velocity 88
000000t:  Note on ::  Channel 0.  Note 79.  Velocity 98
000000t:  Note on ::  Channel 6.  Note 79.  Velocity 110
000000t:  Note on ::  Channel 7.  Note 67.  Velocity 98
000000t:  Note on ::  Channel 7.  Note 79.  Velocity 98
000002t:  Note on ::  Channel 9.  Note 46.  Velocity 0
000000t:  Note on ::  Channel 9.  Note 82.  Velocity 0
000010t:  Note on ::  Channel 6.  Note 79.  Velocity 0
000010t:  Note on ::  Channel 7.  Note 79.  Velocity 0
000000t:  Note on ::  Channel 0.  Note 79.  Velocity 0
000000t:  Note on ::  Channel 7.  Note 67.  Velocity 0
000001t:  Note on ::  Channel 9.  Note 50.  Velocity 83
000002t:  Note on ::  Channel 9.  Note 50.  Velocity 0
000000t:  Note on ::  Channel 2.  Note 40.  Velocity 0
000000t:  Note on ::  Channel 9.  Note 82.  Velocity 60
000000t:  Note on ::  Channel 9.  Note 82.  Velocity 0
000000t:  Note on ::  Channel 6.  Note 76.  Velocity 110
000010t:  Note on ::  Channel 6.  Note 76.  Velocity 0
000012t:  Note on ::  Channel 0.  Note 84.  Velocity 83
000000t:  Note on ::  Channel 6.  Note 72.  Velocity 110
000000t:  Note on ::  Channel 7.  Note 72.  Velocity 83
000000t:  Note on ::  Channel 7.  Note 84.  Velocity 83
000000t:  Note on ::  Channel 2.  Note 40.  Velocity 120
000000t:  Note on ::  Channel 9.  Note 42.  Velocity 93
000000t:  Note on ::  Channel 9.  Note 36.  Velocity 122
000002t:  Note on ::  Channel 9.  Note 36.  Velocity 0
000000t:  Note on ::  Channel 9.  Note 42.  Velocity 0
000008t:  Note on ::  Channel 6.  Note 72.  Velocity 0
000008t:  Note on ::  Channel 7.  Note 84.  Velocity 0
000000t:  Note on ::  Channel 7.  Note 72.  Velocity 0
000000t:  Note on ::  Channel 0.  Note 84.  Velocity 0
000004t:  Note on ::  Channel 6.  Note 69.  Velocity 110
000012t:  Note on ::  Channel 6.  Note 69.  Velocity 0
000011t:  Note on ::  Channel 9.  Note 82.  Velocity 73
000002t:  Note on ::  Channel 9.  Note 82.  Velocity 0
000000t:  Note on ::  Channel 0.  Note 91.  Velocity 80
000000t:  Note on ::  Channel 6.  Note 67.  Velocity 110
000000t:  Note on ::  Channel 7.  Note 79.  Velocity 80
000000t:  Note on ::  Channel 7.  Note 91.  Velocity 80
000000t:  Note on ::  Channel 9.  Note 46.  Velocity 93
000000t:  Note on ::  Channel 9.  Note 50.  Velocity 83
000002t:  Note on ::  Channel 9.  Note 50.  Velocity 0
000000t:  Note on ::  Channel 9.  Note 46.  Velocity 0
000008t:  Note on ::  Channel 6.  Note 67.  Velocity 0
000004t:  Note on ::  Channel 2.  Note 40.  Velocity 0
000006t:  Note on ::  Channel 7.  Note 79.  Velocity 0
000000t:  Note on ::  Channel 0.  Note 91.  Velocity 0
000000t:  Note on ::  Channel 7.  Note 91.  Velocity 0
000002t:  Note on ::  Channel 2.  Note 33.  Velocity 120
000000t:  Note on ::  Channel 6.  Note 64.  Velocity 110
000012t:  Note on ::  Channel 6.  Note 64.  Velocity 0
000010t:  Note on ::  Channel 9.  Note 36.  Velocity 122
000000t:  Note on ::  Channel 0.  Note 89.  Velocity 90
000000t:  Note on ::  Channel 7.  Note 77.  Velocity 90
000000t:  Note on ::  Channel 7.  Note 89.  Velocity 90
000002t:  Note on ::  Channel 9.  Note 36.  Velocity 0
000000t:  Note on ::  Channel 5.  Note 55.  Velocity 0
000000t:  Note on ::  Channel 5.  Note 52.  Velocity 100
000000t:  Note on ::  Channel 9.  Note 42.  Velocity 93
000002t:  Note on ::  Channel 9.  Note 42.  Velocity 0
000019t:  Note on ::  Channel 7.  Note 89.  Velocity 0
000000t:  Note on ::  Channel 7.  Note 77.  Velocity 0
000000t:  Note on ::  Channel 0.  Note 89.  Velocity 0
000014t:  Note on ::  Channel 2.  Note 33.  Velocity 0
000010t:  Note on ::  Channel 2.  Note 33.  Velocity 120
000000t:  Note on ::  Channel 9.  Note 82.  Velocity 70
000000t:  Note on ::  Channel 9.  Note 82.  Velocity 0
000000t:  Note on ::  Channel 6.  Note 79.  Velocity 110
000000t:  Note on ::  Channel 9.  Note 46.  Velocity 93
000002t:  Note on ::  Channel 9.  Note 46.  Velocity 0
000010t:  Note on ::  Channel 6.  Note 79.  Velocity 0
000011t:  Note on ::  Channel 9.  Note 47.  Velocity 83
000000t:  Note on ::  Channel 9.  Note 82.  Velocity 54
000000t:  Note on ::  Channel 0.  Note 88.  Velocity 98
000000t:  Note on ::  Channel 6.  Note 76.  Velocity 110
000000t:  Note on ::  Channel 7.  Note 76.  Velocity 98
000000t:  Note on ::  Channel 7.  Note 88.  Velocity 98
000002t:  Note on ::  Channel 9.  Note 82.  Velocity 0
000000t:  Note on ::  Channel 9.  Note 47.  Velocity 0
000010t:  Note on ::  Channel 6.  Note 76.  Velocity 0
000004t:  Note on ::  Channel 2.  Note 33.  Velocity 0
000004t:  Note on ::  Channel 0.  Note 88.  Velocity 0
000000t:  Note on ::  Channel 7.  Note 88.  Velocity 0
000000t:  Note on ::  Channel 7.  Note 76.  Velocity 0
000002t:  Note on ::  Channel 2.  Note 40.  Velocity 120
000000t:  Note on ::  Channel 9.  Note 38.  Velocity 123
000002t:  Note on ::  Channel 9.  Note 38.  Velocity 0
000000t:  Note on ::  Channel 6.  Note 72.  Velocity 110
000000t:  Note on ::  Channel 9.  Note 42.  Velocity 93
000003t:  Note on ::  Channel 9.  Note 42.  Velocity 0
000008t:  Note on ::  Channel 6.  Note 72.  Velocity 0
000012t:  Note on ::  Channel 6.  Note 69.  Velocity 110
000010t:  Note on ::  Channel 6.  Note 69.  Velocity 0
000000t:  Note on ::  Channel 2.  Note 40.  Velocity 0
000012t:  Note on ::  Channel 2.  Note 33.  Velocity 120
000000t:  Note on ::  Channel 0.  Note 84.  Velocity 90
000000t:  Note on ::  Channel 6.  Note 67.  Velocity 110
000000t:  Note on ::  Channel 7.  Note 72.  Velocity 90
000000t:  Note on ::  Channel 7.  Note 84.  Velocity 90
000000t:  Note on ::  Channel 9.  Note 82.  Velocity 70
000000t:  Note on ::  Channel 9.  Note 46.  Velocity 90
000002t:  Note on ::  Channel 9.  Note 46.  Velocity 0
000000t:  Note on ::  Channel 9.  Note 82.  Velocity 0
000010t:  Note on ::  Channel 6.  Note 67.  Velocity 0
000007t:  Note on ::  Channel 7.  Note 72.  Velocity 0
000000t:  Note on ::  Channel 0.  Note 84.  Velocity 0
000000t:  Note on ::  Channel 7.  Note 84.  Velocity 0
000004t:  Note on ::  Channel 6.  Note 64.  Velocity 110
000012t:  Note on ::  Channel 6.  Note 64.  Velocity 0
000000t:  Note on ::  Channel 2.  Note 33.  Velocity 0
000004t:  Note on ::  Channel 5.  Note 52.  Velocity 0
000006t:  Note on ::  Channel 2.  Note 38.  Velocity 120
000000t:  Note on ::  Channel 5.  Note 57.  Velocity 98
000000t:  Note on ::  Channel 9.  Note 36.  Velocity 125
000002t:  Note on ::  Channel 9.  Note 36.  Velocity 0
000000t:  Note on ::  Channel 7.  Note 69.  Velocity 98
000000t:  Note on ::  Channel 7.  Note 81.  Velocity 98
000000t:  Note on ::  Channel 0.  Note 81.  Velocity 103
000000t:  Note on ::  Channel 9.  Note 42.  Velocity 90
000003t:  Note on ::  Channel 9.  Note 42.  Velocity 0
000008t:  Note on ::  Channel 0.  Note 81.  Velocity 0
000004t:  Note on ::  Channel 0.  Note 81.  Velocity 83
000004t:  Note on ::  Channel 7.  Note 69.  Velocity 0
000000t:  Note on ::  Channel 7.  Note 81.  Velocity 0
000008t:  Note on ::  Channel 0.  Note 81.  Velocity 0
000004t:  Note on ::  Channel 0.  Note 81.  Velocity 90
000012t:  Note on ::  Channel 0.  Note 81.  Velocity 0
000002t:  Note on ::  Channel 9.  Note 82.  Velocity 64
000000t:  Note on ::  Channel 0.  Note 81.  Velocity 77
000000t:  Note on ::  Channel 6.  Note 77.  Velocity 110
000002t:  Note on ::  Channel 9.  Note 82.  Velocity 0
000000t:  Note on ::  Channel 9.  Note 46.  Velocity 100
000000t:  Note on ::  Channel 9.  Note 46.  Velocity 0
000011t:  Note on ::  Channel 6.  Note 77.  Velocity 0
000000t:  Note on ::  Channel 0.  Note 81.  Velocity 0
000004t:  Note on ::  Channel 0.  Note 81.  Velocity 80
000006t:  Note on ::  Channel 5.  Note 55.  Velocity 98
000000t:  Note on ::  Channel 9.  Note 82.  Velocity 62
000000t:  Note on ::  Channel 6.  Note 74.  Velocity 110
000002t:  Note on ::  Channel 9.  Note 82.  Velocity 0
000000t:  Note on ::  Channel 9.  Note 50.  Velocity 80
000000t:  Note on ::  Channel 9.  Note 50.  Velocity 0
000004t:  Note on ::  Channel 5.  Note 57.  Velocity 0
000000t:  Note on ::  Channel 2.  Note 38.  Velocity 0
000000t:  Note on ::  Channel 0.  Note 81.  Velocity 0
000002t:  Note on ::  Channel 0.  Note 81.  Velocity 80
000005t:  Note on ::  Channel 6.  Note 74.  Velocity 0
000008t:  Note on ::  Channel 0.  Note 81.  Velocity 0
000002t:  Note on ::  Channel 2.  Note 38.  Velocity 120
000000t:  Note on ::  Channel 9.  Note 36.  Velocity 120
000002t:  Note on ::  Channel 9.  Note 36.  Velocity 0
000000t:  Note on ::  Channel 0.  Note 81.  Velocity 75
000000t:  Note on ::  Channel 6.  Note 69.  Velocity 110
000000t:  Note on ::  Channel 9.  Note 42.  Velocity 88
000002t:  Note on ::  Channel 9.  Note 42.  Velocity 0
000008t:  Note on ::  Channel 0.  Note 81.  Velocity 0
000000t:  Note on ::  Channel 6.  Note 69.  Velocity 0
000002t:  Note on ::  Channel 0.  Note 81.  Velocity 75
000010t:  Note on ::  Channel 6.  Note 67.  Velocity 110
000002t:  Note on ::  Channel 0.  Note 81.  Velocity 0
000010t:  Note on ::  Channel 6.  Note 67.  Velocity 0
000010t:  Note on ::  Channel 9.  Note 82.  Velocity 80
000000t:  Note on ::  Channel 0.  Note 84.  Velocity 95
000000t:  Note on ::  Channel 6.  Note 65.  Velocity 110
000000t:  Note on ::  Channel 7.  Note 72.  Velocity 95
000000t:  Note on ::  Channel 7.  Note 84.  Velocity 95
000002t:  Note on ::  Channel 5.  Note 53.  Velocity 90
000000t:  Note on ::  Channel 9.  Note 46.  Velocity 93
000001t:  Note on ::  Channel 9.  Note 82.  Velocity 0
000000t:  Note on ::  Channel 9.  Note 50.  Velocity 83
000002t:  Note on ::  Channel 9.  Note 50.  Velocity 0
000000t:  Note on ::  Channel 9.  Note 46.  Velocity 0
000002t:  Note on ::  Channel 5.  Note 55.  Velocity 0
000002t:  Note on ::  Channel 2.  Note 38.  Velocity 0
000004t:  Note on ::  Channel 6.  Note 65.  Velocity 0
000004t:  Note on ::  Channel 7.  Note 84.  Velocity 0
000000t:  Note on ::  Channel 0.  Note 84.  Velocity 0
000000t:  Note on ::  Channel 7.  Note 72.  Velocity 0
000006t:  Note on ::  Channel 2.  Note 31.  Velocity 120
000000t:  Note on ::  Channel 6.  Note 62.  Velocity 110
000013t:  Note on ::  Channel 6.  Note 62.  Velocity 0
000012t:  Note on ::  Channel 0.  Note 83.  Velocity 90
000000t:  Note on ::  Channel 7.  Note 71.  Velocity 90
000000t:  Note on ::  Channel 7.  Note 83.  Velocity 90
000000t:  Note on ::  Channel 9.  Note 36.  Velocity 122
000000t:  Note on ::  Channel 5.  Note 52.  Velocity 95
000000t:  Note on ::  Channel 9.  Note 42.  Velocity 90
000002t:  Note on ::  Channel 9.  Note 42.  Velocity 0
000000t:  Note on ::  Channel 9.  Note 36.  Velocity 0
000000t:  Note on ::  Channel 5.  Note 53.  Velocity 0
000006t:  Note on ::  Channel 2.  Note 31.  Velocity 0
000010t:  Note on ::  Channel 7.  Note 83.  Velocity 0
000000t:  Note on ::  Channel 7.  Note 71.  Velocity 0
000000t:  Note on ::  Channel 0.  Note 83.  Velocity 0
000004t:  Note on ::  Channel 2.  Note 43.  Velocity 120
000012t:  Note on ::  Channel 2.  Note 43.  Velocity 0
000010t:  Note on ::  Channel 2.  Note 43.  Velocity 120
000000t:  Note on ::  Channel 9.  Note 82.  Velocity 58
000000t:  Note on ::  Channel 6.  Note 77.  Velocity 110
000002t:  Note on ::  Channel 9.  Note 82.  Velocity 0
000000t:  Note on ::  Channel 9.  Note 46.  Velocity 100
000002t:  Note on ::  Channel 9.  Note 46.  Velocity 0
000008t:  Note on ::  Channel 6.  Note 77.  Velocity 0
000012t:  Note on ::  Channel 9.  Note 82.  Velocity 52
000000t:  Note on ::  Channel 0.  Note 84.  Velocity 83
000000t:  Note on ::  Channel 6.  Note 74.  Velocity 110
000000t:  Note on ::  Channel 7.  Note 72.  Velocity 83
000000t:  Note on ::  Channel 7.  Note 84.  Velocity 83
000000t:  Note on ::  Channel 9.  Note 47.  Velocity 83
000000t:  Note on ::  Channel 5.  Note 53.  Velocity 90
000003t:  Note on ::  Channel 9.  Note 47.  Velocity 0
000000t:  Note on ::  Channel 9.  Note 82.  Velocity 0
000002t:  Note on ::  Channel 5.  Note 52.  Velocity 0
000004t:  Note on ::  Channel 2.  Note 43.  Velocity 0
000002t:  Note on ::  Channel 6.  Note 74.  Velocity 0
000008t:  Note on ::  Channel 7.  Note 84.  Velocity 0
000000t:  Note on ::  Channel 0.  Note 84.  Velocity 0
000000t:  Note on ::  Channel 7.  Note 72.  Velocity 0
000004t:  Note on ::  Channel 2.  Note 43.  Velocity 120
000000t:  Note on ::  Channel 9.  Note 38.  Velocity 122
000000t:  Note on ::  Channel 6.  Note 69.  Velocity 110
000000t:  Note on ::  Channel 9.  Note 42.  Velocity 100
000003t:  Note on ::  Channel 9.  Note 42.  Velocity 0
000000t:  Note on ::  Channel 9.  Note 38.  Velocity 0
000008t:  Note on ::  Channel 6.  Note 69.  Velocity 0
000012t:  Note on ::  Channel 6.  Note 67.  Velocity 110
000010t:  Note on ::  Channel 2.  Note 43.  Velocity 0
000002t:  Note on ::  Channel 6.  Note 67.  Velocity 0
000010t:  Note on ::  Channel 2.  Note 41.  Velocity 120
000000t:  Note on ::  Channel 9.  Note 82.  Velocity 67
000003t:  Note on ::  Channel 9.  Note 82.  Velocity 0
000000t:  Note on ::  Channel 5.  Note 53.  Velocity 0
000000t:  Note on ::  Channel 0.  Note 86.  Velocity 90
000000t:  Note on ::  Channel 6.  Note 65.  Velocity 110
000000t:  Note on ::  Channel 7.  Note 74.  Velocity 90
000000t:  Note on ::  Channel 7.  Note 86.  Velocity 90
000000t:  Note on ::  Channel 9.  Note 46.  Velocity 102
000000t:  Note on ::  Channel 5.  Note 57.  Velocity 98
000002t:  Note on ::  Channel 9.  Note 46.  Velocity 0
000008t:  Note on ::  Channel 6.  Note 65.  Velocity 0
000006t:  Note on ::  Channel 7.  Note 86.  Velocity 0
000000t:  Note on ::  Channel 7.  Note 74.  Velocity 0
000000t:  Note on ::  Channel 0.  Note 86.  Velocity 0
000006t:  Note on ::  Channel 6.  Note 62.  Velocity 110
000010t:  Note on ::  Channel 6.  Note 62.  Velocity 0
000000t:  Note on ::  Channel 2.  Note 41.  Velocity 0
000013t:  Note on ::  Channel 9.  Note 36.  Velocity 122
000000t:  Note on ::  Channel 2.  Note 40.  Velocity 120
000000t:  Note on ::  Channel 7.  Note 79.  Velocity 90
000000t:  Note on ::  Channel 7.  Note 91.  Velocity 90
000000t:  Note on ::  Channel 9.  Note 42.  Velocity 81
000000t:  Note on ::  Channel 0.  Note 91.  Velocity 103
000000t:  Note on ::  Channel 6.  Note 79.  Velocity 110
000002t:  Note on ::  Channel 9.  Note 42.  Velocity 0
000000t:  Note on ::  Channel 9.  Note 36.  Velocity 0
000000t:  Note on ::  Channel 5.  Note 55.  Velocity 100
000006t:  Note on ::  Channel 5.  Note 57.  Velocity 0
000004t:  Note on ::  Channel 0.  Note 91.  Velocity 0
000002t:  Note on ::  Channel 0.  Note 91.  Velocity 83
000004t:  Note on ::  Channel 7.  Note 79.  Velocity 0
000000t:  Note on ::  Channel 7.  Note 91.  Velocity 0
000008t:  Note on ::  Channel 0.  Note 91.  Velocity 0
000004t:  Note on ::  Channel 0.  Note 91.  Velocity 90
000012t:  Note on ::  Channel 0.  Note 91.  Velocity 0
000003t:  Note on ::  Channel 9.  Note 46.  Velocity 88
000002t:  Note on ::  Channel 9.  Note 46.  Velocity 0
000000t:  Note on ::  Channel 8.  Note 67.  Velocity 105
000000t:  Note on ::  Channel 9.  Note 82.  Velocity 70
000000t:  Note on ::  Channel 9.  Note 82.  Velocity 0
000000t:  Note on ::  Channel 0.  Note 91.  Velocity 77
000010t:  Note on ::  Channel 0.  Note 91.  Velocity 0
000006t:  Note on ::  Channel 0.  Note 91.  Velocity 80
000004t:  Note on ::  Channel 9.  Note 50.  Velocity 80
000002t:  Note on ::  Channel 9.  Note 50.  Velocity 0
000000t:  Note on ::  Channel 9.  Note 82.  Velocity 62
000002t:  Note on ::  Channel 9.  Note 82.  Velocity 0
000000t:  Note on ::  Channel 2.  Note 40.  Velocity 0
000002t:  Note on ::  Channel 0.  Note 91.  Velocity 0
000004t:  Note on ::  Channel 0.  Note 91.  Velocity 88
000012t:  Note on ::  Channel 0.  Note 91.  Velocity 0
000003t:  Note on ::  Channel 8.  Note 67.  Velocity 0
000000t:  Note on ::  Channel 2.  Note 40.  Velocity 120
000000t:  Note on ::  Channel 9.  Note 42.  Velocity 93
000000t:  Note on ::  Channel 0.  Note 91.  Velocity 75
000000t:  Note on ::  Channel 8.  Note 74.  Velocity 100
000002t:  Note on ::  Channel 9.  Note 42.  Velocity 0
000000t:  Note on ::  Channel 9.  Note 36.  Velocity 125
000002t:  Note on ::  Channel 9.  Note 36.  Velocity 0
000008t:  Note on ::  Channel 0.  Note 91.  Velocity 0
000004t:  Note on ::  Channel 0.  Note 91.  Velocity 83
000012t:  Note on ::  Channel 0.  Note 91.  Velocity 0
000000t:  Note on ::  Channel 0.  Note 91.  Velocity 80
000014t:  Note on ::  Channel 0.  Note 91.  Velocity 0
000004t:  Note on ::  Channel 8.  Note 74.  Velocity 0
000000t:  Note on ::  Channel 9.  Note 46.  Velocity 100
000000t:  Note on ::  Channel 9.  Note 82.  Velocity 70
000000t:  Note on ::  Channel 8.  Note 79.  Velocity 103
000000t:  Note on ::  Channel 9.  Note 50.  Velocity 80
000002t:  Note on ::  Channel 9.  Note 50.  Velocity 0
000000t:  Note on ::  Channel 9.  Note 46.  Velocity 0
000000t:  Note on ::  Channel 9.  Note 82.  Velocity 0
000014t:  Note on ::  Channel 2.  Note 40.  Velocity 0
000007t:  Note on ::  Channel 2.  Note 33.  Velocity 120
000018t:  Note on ::  Channel 8.  Note 79.  Velocity 0
000004t:  Note on ::  Channel 6.  Note 79.  Velocity 0
000002t:  Note on ::  Channel 7.  Note 76.  Velocity 90
000000t:  Note on ::  Channel 7.  Note 88.  Velocity 90
000000t:  Note on ::  Channel 0.  Note 88.  Velocity 103
000000t:  Note on ::  Channel 6.  Note 76.  Velocity 110
000000t:  Note on ::  Channel 8.  Note 77.  Velocity 100
000000t:  Note on ::  Channel 9.  Note 36.  Velocity 120
000000t:  Note on ::  Channel 9.  Note 42.  Velocity 88
000003t:  Note on ::  Channel 9.  Note 42.  Velocity 0
000000t:  Note on ::  Channel 9.  Note 36.  Velocity 0
000002t:  Note on ::  Channel 5.  Note 55.  Velocity 0
000006t:  Note on ::  Channel 0.  Note 88.  Velocity 0
000004t:  Note on ::  Channel 0.  Note 88.  Velocity 83
000004t:  Note on ::  Channel 7.  Note 88.  Velocity 0
000000t:  Note on ::  Channel 7.  Note 76.  Velocity 0
000004t:  Note on ::  Channel 8.  Note 77.  Velocity 0
000004t:  Note on ::  Channel 0.  Note 88.  Velocity 0
000004t:  Note on ::  Channel 2.  Note 33.  Velocity 0
000000t:  Note on ::  Channel 0.  Note 88.  Velocity 90
000012t:  Note on ::  Channel 0.  Note 88.  Velocity 0
000000t:  Note on ::  Channel 9.  Note 82.  Velocity 64
000002t:  Note on ::  Channel 9.  Note 82.  Velocity 0
000000t:  Note on ::  Channel 0.  Note 88.  Velocity 77
000000t:  Note on ::  Channel 2.  Note 33.  Velocity 120
000000t:  Note on ::  Channel 9.  Note 46.  Velocity 102
000002t:  Note on ::  Channel 9.  Note 46.  Velocity 0
000010t:  Note on ::  Channel 0.  Note 88.  Velocity 0
000005t:  Note on ::  Channel 0.  Note 88.  Velocity 80
000006t:  Note on ::  Channel 9.  Note 82.  Velocity 58
000000t:  Note on ::  Channel 9.  Note 47.  Velocity 72
000002t:  Note on ::  Channel 9.  Note 47.  Velocity 0
000000t:  Note on ::  Channel 9.  Note 82.  Velocity 0
000000t:  Note on ::  Channel 8.  Note 76.  Velocity 104
000004t:  Note on ::  Channel 0.  Note 88.  Velocity 0
000002t:  Note on ::  Channel 0.  Note 88.  Velocity 88
000006t:  Note on ::  Channel 2.  Note 33.  Velocity 0
000007t:  Note on ::  Channel 0.  Note 88.  Velocity 0
000002t:  Note on ::  Channel 9.  Note 38.  Velocity 122
000000t:  Note on ::  Channel 0.  Note 88.  Velocity 81
000002t:  Note on ::  Channel 9.  Note 38.  Velocity 0
000000t:  Note on ::  Channel 8.  Note 76.  Velocity 0
000000t:  Note on ::  Channel 2.  Note 40.  Velocity 120
000000t:  Note on ::  Channel 9.  Note 42.  Velocity 88
000002t:  Note on ::  Channel 9.  Note 42.  Velocity 0
000008t:  Note on ::  Channel 0.  Note 88.  Velocity 0
000002t:  Note on ::  Channel 0.  Note 88.  Velocity 83
000014t:  Note on ::  Channel 0.  Note 88.  Velocity 0
000002t:  Note on ::  Channel 0.  Note 88.  Velocity 80
000009t:  Note on ::  Channel 2.  Note 40.  Velocity 0
000004t:  Note on ::  Channel 0.  Note 88.  Velocity 0
000002t:  Note on ::  Channel 6.  Note 76.  Velocity 0
000002t:  Note on ::  Channel 9.  Note 82.  Velocity 80
000000t:  Note on ::  Channel 8.  Note 72.  Velocity 103
000000t:  Note on ::  Channel 7.  Note 69.  Velocity 98
000000t:  Note on ::  Channel 7.  Note 81.  Velocity 98
000000t:  Note on ::  Channel 6.  Note 69.  Velocity 110
000000t:  Note on ::  Channel 9.  Note 46.  Velocity 100
000000t:  Note on ::  Channel 2.  Note 33.  Velocity 120
000002t:  Note on ::  Channel 9.  Note 46.  Velocity 0
000000t:  Note on ::  Channel 9.  Note 82.  Velocity 0
000000t:  Note on ::  Channel 0.  Note 81.  Velocity 98
000014t:  Note on ::  Channel 7.  Note 81.  Velocity 0
000000t:  Note on ::  Channel 7.  Note 69.  Velocity 0
000002t:  Note on ::  Channel 0.  Note 81.  Velocity 0
000007t:  Note on ::  Channel 8.  Note 72.  Velocity 0
000010t:  Note on ::  Channel 2.  Note 33.  Velocity 0
000012t:  Note on ::  Channel 0.  Note 89.  Velocity 90
000000t:  Note on ::  Channel 7.  Note 77.  Velocity 90
000000t:  Note on ::  Channel 7.  Note 89.  Velocity 90
000000t:  Note on ::  Channel 9.  Note 36.  Velocity 122
000000t:  Note on ::  Channel 9.  Note 42.  Velocity 90
000000t:  Note on ::  Channel 2.  Note 38.  Velocity 120
000000t:  Note on ::  Channel 8.  Note 69.  Velocity 105
000002t:  Note on ::  Channel 9.  Note 42.  Velocity 0
000000t:  Note on ::  Channel 9.  Note 36.  Velocity 0
000016t:  Note on ::  Channel 7.  Note 89.  Velocity 0
000000t:  Note on ::  Channel 7.  Note 77.  Velocity 0
000000t:  Note on ::  Channel 0.  Note 89.  Velocity 0
000026t:  Note on ::  Channel 9.  Note 82.  Velocity 70
000002t:  Note on ::  Channel 9.  Note 82.  Velocity 0
000000t:  Note on ::  Channel 9.  Note 46.  Velocity 100
000000t:  Note on ::  Channel 9.  Note 46.  Velocity 0
000021t:  Note on ::  Channel 9.  Note 50.  Velocity 80
000002t:  Note on ::  Channel 9.  Note 50.  Velocity 0
000000t:  Note on ::  Channel 9.  Note 82.  Velocity 56
000000t:  Note on ::  Channel 0.  Note 88.  Velocity 90
000000t:  Note on ::  Channel 7.  Note 76.  Velocity 90
000000t:  Note on ::  Channel 7.  Note 88.  Velocity 90
000002t:  Note on ::  Channel 9.  Note 82.  Velocity 0
000004t:  Note on ::  Channel 2.  Note 38.  Velocity 0
000012t:  Note on ::  Channel 7.  Note 76.  Velocity 0
000000t:  Note on ::  Channel 0.  Note 88.  Velocity 0
000000t:  Note on ::  Channel 7.  Note 88.  Velocity 0
000004t:  Note on ::  Channel 2.  Note 38.  Velocity 120
000000t:  Note on ::  Channel 9.  Note 36.  Velocity 120
000000t:  Note on ::  Channel 9.  Note 42.  Velocity 93
000002t:  Note on ::  Channel 9.  Note 42.  Velocity 0
000000t:  Note on ::  Channel 9.  Note 36.  Velocity 0
000045t:  Note on ::  Channel 0.  Note 86.  Velocity 90
000000t:  Note on ::  Channel 7.  Note 74.  Velocity 90
000000t:  Note on ::  Channel 7.  Note 86.  Velocity 90
000000t:  Note on ::  Channel 9.  Note 46.  Velocity 93
000000t:  Note on ::  Channel 9.  Note 82.  Velocity 73
000002t:  Note on ::  Channel 9.  Note 82.  Velocity 0
000000t:  Note on ::  Channel 9.  Note 46.  Velocity 0
000000t:  Note on ::  Channel 9.  Note 50.  Velocity 83
000000t:  Note on ::  Channel 9.  Note 50.  Velocity 0
000010t:  Note on ::  Channel 2.  Note 38.  Velocity 0
000004t:  Note on ::  Channel 7.  Note 74.  Velocity 0
000000t:  Note on ::  Channel 0.  Note 86.  Velocity 0
000000t:  Note on ::  Channel 7.  Note 86.  Velocity 0
000008t:  Note on ::  Channel 2.  Note 31.  Velocity 120
000006t:  Note on ::  Channel 6.  Note 69.  Velocity 0
000004t:  Note on ::  Channel 8.  Note 69.  Velocity 0
000012t:  Note on ::  Channel 0.  Note 83.  Velocity 90
000000t:  Note on ::  Channel 7.  Note 71.  Velocity 90
000000t:  Note on ::  Channel 7.  Note 83.  Velocity 90
000000t:  Note on ::  Channel 6.  Note 71.  Velocity 110
000000t:  Note on ::  Channel 9.  Note 42.  Velocity 88
000000t:  Note on ::  Channel 8.  Note 74.  Velocity 103
000000t:  Note on ::  Channel 9.  Note 36.  Velocity 114
000002t:  Note on ::  Channel 9.  Note 36.  Velocity 0
000000t:  Note on ::  Channel 9.  Note 42.  Velocity 0
000016t:  Note on ::  Channel 7.  Note 71.  Velocity 0
000000t:  Note on ::  Channel 0.  Note 83.  Velocity 0
000000t:  Note on ::  Channel 7.  Note 83.  Velocity 0
000016t:  Note on ::  Channel 8.  Note 74.  Velocity 0
000006t:  Note on ::  Channel 2.  Note 31.  Velocity 0
000007t:  Note on ::  Channel 9.  Note 46.  Velocity 100
000000t:  Note on ::  Channel 9.  Note 82.  Velocity 67
000000t:  Note on ::  Channel 2.  Note 43.  Velocity 120
000002t:  Note on ::  Channel 9.  Note 82.  Velocity 0
000000t:  Note on ::  Channel 9.  Note 46.  Velocity 0
000018t:  Note on ::  Channel 6.  Note 71.  Velocity 0
000002t:  Note on ::  Channel 9.  Note 47.  Velocity 90
000000t:  Note on ::  Channel 0.  Note 81.  Velocity 95
000000t:  Note on ::  Channel 7.  Note 69.  Velocity 95
000000t:  Note on ::  Channel 7.  Note 81.  Velocity 95
000000t:  Note on ::  Channel 6.  Note 69.  Velocity 110
000000t:  Note on ::  Channel 8.  Note 72.  Velocity 100
000000t:  Note on ::  Channel 9.  Note 82.  Velocity 64
000002t:  Note on ::  Channel 9.  Note 82.  Velocity 0
000000t:  Note on ::  Channel 9.  Note 47.  Velocity 0
000013t:  Note on ::  Channel 2.  Note 43.  Velocity 0
000004t:  Note on ::  Channel 7.  Note 69.  Velocity 0
000000t:  Note on ::  Channel 7.  Note 81.  Velocity 0
000000t:  Note on ::  Channel 0.  Note 81.  Velocity 0
000004t:  Note on ::  Channel 9.  Note 38.  Velocity 123
000000t:  Note on ::  Channel 2.  Note 42.  Velocity 120
000000t:  Note on ::  Channel 9.  Note 42.  Velocity 90
000002t:  Note on ::  Channel 9.  Note 42.  Velocity 0
000000t:  Note on ::  Channel 9.  Note 38.  Velocity 0
000010t:  Note on ::  Channel 8.  Note 72.  Velocity 0
000022t:  Note on ::  Channel 2.  Note 42.  Velocity 0
000008t:  Note on ::  Channel 6.  Note 69.  Velocity 0
000004t:  Note on ::  Channel 8.  Note 71.  Velocity 97
000000t:  Note on ::  Channel 9.  Note 38.  Velocity 121
000001t:  Note on ::  Channel 0.  Note 79.  Velocity 83
000000t:  Note on ::  Channel 7.  Note 67.  Velocity 83
000000t:  Note on ::  Channel 7.  Note 79.  Velocity 83
000000t:  Note on ::  Channel 2.  Note 42.  Velocity 120
000000t:  Note on ::  Channel 6.  Note 67.  Velocity 110
000000t:  Note on ::  Channel 9.  Note 82.  Velocity 80
000002t:  Note on ::  Channel 9.  Note 82.  Velocity 0
000000t:  Note on ::  Channel 9.  Note 38.  Velocity 0
000016t:  Note on ::  Channel 7.  Note 79.  Velocity 0
000000t:  Note on ::  Channel 7.  Note 67.  Velocity 0
000000t:  Note on ::  Channel 0.  Note 79.  Velocity 0
000024t:  Note on ::  Channel 8.  Note 71.  Velocity 0
000002t:  Note on ::  Channel 6.  Note 67.  Velocity 0
000000t:  Note on ::  Channel 2.  Note 42.  Velocity 0
000000t:  Note on ::  Channel 9.  Note 57.  Velocity 98
000000t:  Note on ::  Channel 9.  Note 36.  Velocity 125
000002t:  Note on ::  Channel 9.  Note 36.  Velocity 0
000000t:  Note on ::  Channel 9.  Note 57.  Velocity 0
000000t:  Note on ::  Channel 2.  Note 41.  Velocity 120
000000t:  Note on ::  Channel 6.  Note 72.  Velocity 110
000000t:  Note on ::  Channel 6.  Note 76.  Velocity 110
000045t:  Note on ::  Channel 9.  Note 46.  Velocity 90
000000t:  Note on ::  Channel 9.  Note 82.  Velocity 64
000002t:  Note on ::  Channel 9.  Note 82.  Velocity 0
000000t:  Note on ::  Channel 9.  Note 46.  Velocity 0
000008t:  Note on ::  Channel 6.  Note 72.  Velocity 0
000002t:  Note on ::  Channel 6.  Note 76.  Velocity 0
000010t:  Note on ::  Channel 9.  Note 50.  Velocity 80
000000t:  Note on ::  Channel 6.  Note 76.  Velocity 110
000000t:  Note on ::  Channel 6.  Note 72.  Velocity 110
000002t:  Note on ::  Channel 9.  Note 50.  Velocity 0
000000t:  Note on ::  Channel 2.  Note 41.  Velocity 0
000000t:  Note on ::  Channel 9.  Note 82.  Velocity 64
000002t:  Note on ::  Channel 9.  Note 82.  Velocity 0
000019t:  Note on ::  Channel 2.  Note 41.  Velocity 120
000002t:  Note on ::  Channel 6.  Note 76.  Velocity 0
000000t:  Note on ::  Channel 6.  Note 72.  Velocity 0
000000t:  Note on ::  Channel 9.  Note 42.  Velocity 93
000000t:  Note on ::  Channel 9.  Note 36.  Velocity 122
000002t:  Note on ::  Channel 9.  Note 36.  Velocity 0
000000t:  Note on ::  Channel 9.  Note 42.  Velocity 0
000043t:  Note on ::  Channel 0.  Note 65.  Velocity 106
000000t:  Note on ::  Channel 9.  Note 50.  Velocity 83
000000t:  Note on ::  Channel 9.  Note 82.  Velocity 73
000000t:  Note on ::  Channel 9.  Note 46.  Velocity 100
000002t:  Note on ::  Channel 9.  Note 46.  Velocity 0
000000t:  Note on ::  Channel 9.  Note 50.  Velocity 0
000000t:  Note on ::  Channel 9.  Note 82.  Velocity 0
000000t:  Note on ::  Channel 0.  Note 62.  Velocity 106
000012t:  Note on ::  Channel 0.  Note 65.  Velocity 0
000002t:  Note on ::  Channel 0.  Note 62.  Velocity 0
000000t:  Note on ::  Channel 2.  Note 41.  Velocity 0
000006t:  Note on ::  Channel 2.  Note 36.  Velocity 120
000002t:  Note on ::  Channel 0.  Note 64.  Velocity 109
000000t:  Note on ::  Channel 0.  Note 67.  Velocity 109
000010t:  Note on ::  Channel 0.  Note 67.  Velocity 0
000000t:  Note on ::  Channel 0.  Note 64.  Velocity 0
000012t:  Note on ::  Channel 0.  Note 69.  Velocity 109
000000t:  Note on ::  Channel 6.  Note 72.  Velocity 110
000000t:  Note on ::  Channel 9.  Note 36.  Velocity 120
000000t:  Note on ::  Channel 9.  Note 42.  Velocity 93
000002t:  Note on ::  Channel 9.  Note 42.  Velocity 0
000000t:  Note on ::  Channel 9.  Note 36.  Velocity 0
000000t:  Note on ::  Channel 0.  Note 65.  Velocity 109
000010t:  Note on ::  Channel 0.  Note 69.  Velocity 0
000002t:  Note on ::  Channel 0.  Note 65.  Velocity 0
000021t:  Note on ::  Channel 2.  Note 36.  Velocity 0
000010t:  Note on ::  Channel 9.  Note 82.  Velocity 64
000000t:  Note on ::  Channel 2.  Note 36.  Velocity 120
000002t:  Note on ::  Channel 9.  Note 82.  Velocity 0
000000t:  Note on ::  Channel 9.  Note 46.  Velocity 100
000002t:  Note on ::  Channel 9.  Note 46.  Velocity 0
000020t:  Note on ::  Channel 9.  Note 82.  Velocity 67
000000t:  Note on ::  Channel 0.  Note 71.  Velocity 106
000000t:  Note on ::  Channel 9.  Note 47.  Velocity 72
000002t:  Note on ::  Channel 9.  Note 47.  Velocity 0
000000t:  Note on ::  Channel 9.  Note 82.  Velocity 0
000000t:  Note on ::  Channel 6.  Note 72.  Velocity 0
000000t:  Note on ::  Channel 6.  Note 71.  Velocity 110
000000t:  Note on ::  Channel 0.  Note 67.  Velocity 106
000013t:  Note on ::  Channel 0.  Note 71.  Velocity 0
000002t:  Note on ::  Channel 2.  Note 36.  Velocity 0
000000t:  Note on ::  Channel 0.  Note 67.  Velocity 0
000006t:  Note on ::  Channel 2.  Note 41.  Velocity 120
000002t:  Note on ::  Channel 9.  Note 38.  Velocity 123
000000t:  Note on ::  Channel 9.  Note 42.  Velocity 100
000002t:  Note on ::  Channel 9.  Note 42.  Velocity 0
000000t:  Note on ::  Channel 9.  Note 38.  Velocity 0
000032t:  Note on ::  Channel 2.  Note 41.  Velocity 0
000010t:  Note on ::  Channel 9.  Note 82.  Velocity 80
000000t:  Note on ::  Channel 0.  Note 69.  Velocity 111
000000t:  Note on ::  Channel 0.  Note 72.  Velocity 111
000000t:  Note on ::  Channel 2.  Note 41.  Velocity 120
000002t:  Note on ::  Channel 9.  Note 82.  Velocity 0
000000t:  Note on ::  Channel 6.  Note 71.  Velocity 0
000000t:  Note on ::  Channel 6.  Note 69.  Velocity 110
000000t:  Note on ::  Channel 9.  Note 46.  Velocity 100
000002t:  Note on ::  Channel 9.  Note 46.  Velocity 0
000010t:  Note on ::  Channel 0.  Note 69.  Velocity 0
000003t:  Note on ::  Channel 0.  Note 72.  Velocity 0
000022t:  Note on ::  Channel 2.  Note 41.  Velocity 0
000008t:  Note on ::  Channel 6.  Note 69.  Velocity 0
000000t:  Note on ::  Channel 2.  Note 38.  Velocity 120
000000t:  Note on ::  Channel 6.  Note 76.  Velocity 110
000000t:  Note on ::  Channel 6.  Note 72.  Velocity 110
000000t:  Note on ::  Channel 9.  Note 36.  Velocity 125
000000t:  Note on ::  Channel 8.  Note 65.  Velocity 104
000002t:  Note on ::  Channel 9.  Note 36.  Velocity 0
000000t:  Note on ::  Channel 9.  Note 42.  Velocity 90
000000t:  Note on ::  Channel 9.  Note 42.  Velocity 0
000044t:  Note on ::  Channel 9.  Note 82.  Velocity 67
000000t:  Note on ::  Channel 9.  Note 46.  Velocity 100
000003t:  Note on ::  Channel 9.  Note 46.  Velocity 0
000000t:  Note on ::  Channel 9.  Note 82.  Velocity 0
000006t:  Note on ::  Channel 6.  Note 72.  Velocity 0
000002t:  Note on ::  Channel 6.  Note 76.  Velocity 0
000012t:  Note on ::  Channel 9.  Note 50.  Velocity 80
000000t:  Note on ::  Channel 6.  Note 76.  Velocity 110
000000t:  Note on ::  Channel 9.  Note 82.  Velocity 64
000000t:  Note on ::  Channel 6.  Note 72.  Velocity 110
000002t:  Note on ::  Channel 9.  Note 82.  Velocity 0
000000t:  Note on ::  Channel 9.  Note 50.  Velocity 0
000008t:  Note on ::  Channel 2.  Note 38.  Velocity 0
000008t:  Note on ::  Channel 6.  Note 72.  Velocity 0
000000t:  Note on ::  Channel 6.  Note 76.  Velocity 0
000005t:  Note on ::  Channel 2.  Note 38.  Velocity 120
000002t:  Note on ::  Channel 9.  Note 36.  Velocity 122
000000t:  Note on ::  Channel 9.  Note 42.  Velocity 100
000002t:  Note on ::  Channel 9.  Note 42.  Velocity 0
000000t:  Note on ::  Channel 9.  Note 36.  Velocity 0
000010t:  Note on ::  Channel 8.  Note 65.  Velocity 0
000032t:  Note on ::  Channel 8.  Note 65.  Velocity 104
000000t:  Note on ::  Channel 9.  Note 82.  Velocity 73
000002t:  Note on ::  Channel 9.  Note 82.  Velocity 0
000000t:  Note on ::  Channel 9.  Note 46.  Velocity 100
000000t:  Note on ::  Channel 9.  Note 46.  Velocity 0
000000t:  Note on ::  Channel 0.  Note 62.  Velocity 106
000000t:  Note on ::  Channel 9.  Note 50.  Velocity 80
000000t:  Note on ::  Channel 0.  Note 65.  Velocity 109
000002t:  Note on ::  Channel 9.  Note 50.  Velocity 0
000010t:  Note on ::  Channel 0.  Note 62.  Velocity 0
000000t:  Note on ::  Channel 0.  Note 65.  Velocity 0
000005t:  Note on ::  Channel 2.  Note 38.  Velocity 0
000002t:  Note on ::  Channel 8.  Note 65.  Velocity 0
000002t:  Note on ::  Channel 8.  Note 67.  Velocity 97
000002t:  Note on ::  Channel 2.  Note 33.  Velocity 120
000000t:  Note on ::  Channel 0.  Note 64.  Velocity 109
000000t:  Note on ::  Channel 0.  Note 67.  Velocity 111
000012t:  Note on ::  Channel 0.  Note 67.  Velocity 0
000000t:  Note on ::  Channel 0.  Note 64.  Velocity 0
000010t:  Note on ::  Channel 8.  Note 69.  Velocity 104
000000t:  Note on ::  Channel 6.  Note 76.  Velocity 110
000000t:  Note on ::  Channel 9.  Note 36.  Velocity 120
000000t:  Note on ::  Channel 0.  Note 65.  Velocity 109
000000t:  Note on ::  Channel 9.  Note 42.  Velocity 93
000000t:  Note on ::  Channel 0.  Note 69.  Velocity 111
000002t:  Note on ::  Channel 9.  Note 42.  Velocity 0
000000t:  Note on ::  Channel 8.  Note 67.  Velocity 0
000000t:  Note on ::  Channel 9.  Note 36.  Velocity 0
000012t:  Note on ::  Channel 0.  Note 69.  Velocity 0
000000t:  Note on ::  Channel 0.  Note 65.  Velocity 0
000022t:  Note on ::  Channel 2.  Note 33.  Velocity 0
000008t:  Note on ::  Channel 2.  Note 33.  Velocity 120
000004t:  Note on ::  Channel 9.  Note 82.  Velocity 73
000000t:  Note on ::  Channel 9.  Note 46.  Velocity 100
000002t:  Note on ::  Channel 9.  Note 46.  Velocity 0
000000t:  Note on ::  Channel 9.  Note 82.  Velocity 0
000016t:  Note on ::  Channel 6.  Note 76.  Velocity 0
000002t:  Note on ::  Channel 8.  Note 69.  Velocity 0
000000t:  Note on ::  Channel 8.  Note 67.  Velocity 105
000000t:  Note on ::  Channel 9.  Note 47.  Velocity 83
000000t:  Note on ::  Channel 6.  Note 74.  Velocity 110
000000t:  Note on ::  Channel 9.  Note 82.  Velocity 54
000003t:  Note on ::  Channel 9.  Note 82.  Velocity 0
000000t:  Note on ::  Channel 9.  Note 47.  Velocity 0
000000t:  Note on ::  Channel 0.  Note 71.  Velocity 109
000000t:  Note on ::  Channel 0.  Note 67.  Velocity 116
000012t:  Note on ::  Channel 0.  Note 67.  Velocity 0
000000t:  Note on ::  Channel 0.  Note 71.  Velocity 0
000002t:  Note on ::  Channel 2.  Note 33.  Velocity 0
000006t:  Note on ::  Channel 2.  Note 38.  Velocity 120
000002t:  Note on ::  Channel 9.  Note 38.  Velocity 124
000000t:  Note on ::  Channel 9.  Note 42.  Velocity 100
000002t:  Note on ::  Channel 9.  Note 42.  Velocity 0
000000t:  Note on ::  Channel 9.  Note 38.  Velocity 0
000037t:  Note on ::  Channel 8.  Note 67.  Velocity 0
000001t:  Note on ::  Channel 2.  Note 38.  Velocity 0
000003t:  Note on ::  Channel 6.  Note 74.  Velocity 0
000002t:  Note on ::  Channel 8.  Note 65.  Velocity 104
000000t:  Note on ::  Channel 2.  Note 38.  Velocity 120
000000t:  Note on ::  Channel 6.  Note 72.  Velocity 110
000000t:  Note on ::  Channel 0.  Note 69.  Velocity 114
000000t:  Note on ::  Channel 9.  Note 82.  Velocity 80
000000t:  Note on ::  Channel 0.  Note 72.  Velocity 112
000002t:  Note on ::  Channel 9.  Note 82.  Velocity 0
000000t:  Note on ::  Channel 9.  Note 46.  Velocity 93
000002t:  Note on ::  Channel 9.  Note 46.  Velocity 0
000010t:  Note on ::  Channel 0.  Note 72.  Velocity 0
000000t:  Note on ::  Channel 0.  Note 69.  Velocity 0
000030t:  Note on ::  Channel 2.  Note 38.  Velocity 0
000002t:  Note on ::  Channel 4.  Note 57.  Velocity 111
000001t:  Note on ::  Channel 9.  Note 36.  Velocity 125
000000t:  Note on ::  Channel 0.  Note 57.  Velocity 111
000000t:  Note on ::  Channel 2.  Note 34.  Velocity 120
000000t:  Note on ::  Channel 7.  Note 74.  Velocity 98
000000t:  Note on ::  Channel 7.  Note 86.  Velocity 98
000000t:  Note on ::  Channel 9.  Note 42.  Velocity 93
000002t:  Note on ::  Channel 9.  Note 42.  Velocity 0
000000t:  Note on ::  Channel 9.  Note 36.  Velocity 0
000000t:  Note on ::  Channel 6.  Note 72.  Velocity 0
000000t:  Note on ::  Channel 6.  Note 74.  Velocity 110
000010t:  Note on ::  Channel 0.  Note 57.  Velocity 0
000006t:  Note on ::  Channel 7.  Note 86.  Velocity 0
000000t:  Note on ::  Channel 7.  Note 74.  Velocity 0
000002t:  Note on ::  Channel 8.  Note 65.  Velocity 0
000002t:  Note on ::  Channel 0.  Note 62.  Velocity 107
000012t:  Note on ::  Channel 0.  Note 62.  Velocity 0
000012t:  Note on ::  Channel 0.  Note 65.  Velocity 107
000000t:  Note on ::  Channel 9.  Note 82.  Velocity 73
000000t:  Note on ::  Channel 9.  Note 46.  Velocity 100
000002t:  Note on ::  Channel 9.  Note 46.  Velocity 0
000000t:  Note on ::  Channel 9.  Note 82.  Velocity 0
000009t:  Note on ::  Channel 0.  Note 65.  Velocity 0
000012t:  Note on ::  Channel 9.  Note 50.  Velocity 83
000000t:  Note on ::  Channel 0.  Note 69.  Velocity 114
000000t:  Note on ::  Channel 9.  Note 82.  Velocity 60
000001t:  Note on ::  Channel 9.  Note 82.  Velocity 0
000000t:  Note on ::  Channel 9.  Note 50.  Velocity 0
000007t:  Note on ::  Channel 2.  Note 34.  Velocity 0
000004t:  Note on ::  Channel 0.  Note 69.  Velocity 0
000010t:  Note on ::  Channel 2.  Note 34.  Velocity 120
000000t:  Note on ::  Channel 0.  Note 62.  Velocity 114
000000t:  Note on ::  Channel 9.  Note 36.  Velocity 125
000002t:  Note on ::  Channel 9.  Note 36.  Velocity 0
000000t:  Note on ::  Channel 9.  Note 42.  Velocity 88
000002t:  Note on ::  Channel 9.  Note 42.  Velocity 0
000008t:  Note on ::  Channel 0.  Note 62.  Velocity 0
000012t:  Note on ::  Channel 0.  Note 65.  Velocity 110
000012t:  Note on ::  Channel 0.  Note 65.  Velocity 0
000011t:  Note on ::  Channel 0.  Note 69.  Velocity 112
000000t:  Note on ::  Channel 7.  Note 74.  Velocity 80
000000t:  Note on ::  Channel 7.  Note 86.  Velocity 80
000000t:  Note on ::  Channel 9.  Note 82.  Velocity 85
000000t:  Note on ::  Channel 9.  Note 46.  Velocity 93
000002t:  Note on ::  Channel 9.  Note 46.  Velocity 0
000000t:  Note on ::  Channel 9.  Note 82.  Velocity 0
000000t:  Note on ::  Channel 9.  Note 50.  Velocity 83
000002t:  Note on ::  Channel 9.  Note 50.  Velocity 0
000008t:  Note on ::  Channel 0.  Note 69.  Velocity 0
000002t:  Note on ::  Channel 7.  Note 74.  Velocity 0
000000t:  Note on ::  Channel 7.  Note 86.  Velocity 0
000007t:  Note on ::  Channel 2.  Note 34.  Velocity 0
000002t:  Note on ::  Channel 0.  Note 74.  Velocity 111
000000t:  Note on ::  Channel 7.  Note 76.  Velocity 83
000000t:  Note on ::  Channel 7.  Note 88.  Velocity 83
000002t:  Note on ::  Channel 2.  Note 29.  Velocity 120
000010t:  Note on ::  Channel 0.  Note 74.  Velocity 0
000002t:  Note on ::  Channel 4.  Note 57.  Velocity 0
000008t:  Note on ::  Channel 6.  Note 69.  Velocity 110
000002t:  Note on ::  Channel 6.  Note 74.  Velocity 0
000000t:  Note on ::  Channel 4.  Note 53.  Velocity 111
000000t:  Note on ::  Channel 0.  Note 69.  Velocity 111
000000t:  Note on ::  Channel 7.  Note 77.  Velocity 90
000000t:  Note on ::  Channel 7.  Note 89.  Velocity 90
000000t:  Note on ::  Channel 9.  Note 42.  Velocity 90
000000t:  Note on ::  Channel 9.  Note 36.  Velocity 125
000002t:  Note on ::  Channel 9.  Note 36.  Velocity 0
000000t:  Note on ::  Channel 9.  Note 42.  Velocity 0
000000t:  Note on ::  Channel 7.  Note 76.  Velocity 0
000000t:  Note on ::  Channel 7.  Note 88.  Velocity 0
000008t:  Note on ::  Channel 0.  Note 69.  Velocity 0
000004t:  Note on ::  Channel 7.  Note 89.  Velocity 0
000000t:  Note on ::  Channel 7.  Note 77.  Velocity 0
000008t:  Note on ::  Channel 0.  Note 74.  Velocity 112
000010t:  Note on ::  Channel 2.  Note 29.  Velocity 0
000002t:  Note on ::  Channel 0.  Note 74.  Velocity 0
000010t:  Note on ::  Channel 9.  Note 82.  Velocity 70
000000t:  Note on ::  Channel 0.  Note 77.  Velocity 110
000002t:  Note on ::  Channel 9.  Note 82.  Velocity 0
000000t:  Note on ::  Channel 2.  Note 29.  Velocity 120
000000t:  Note on ::  Channel 9.  Note 46.  Velocity 100
000002t:  Note on ::  Channel 9.  Note 46.  Velocity 0
000008t:  Note on ::  Channel 0.  Note 77.  Velocity 0
000013t:  Note on ::  Channel 9.  Note 82.  Velocity 50
000000t:  Note on ::  Channel 0.  Note 81.  Velocity 111
000000t:  Note on ::  Channel 7.  Note 81.  Velocity 83
000000t:  Note on ::  Channel 7.  Note 93.  Velocity 83
000000t:  Note on ::  Channel 9.  Note 47.  Velocity 95
000002t:  Note on ::  Channel 9.  Note 47.  Velocity 0
000000t:  Note on ::  Channel 9.  Note 82.  Velocity 0
000010t:  Note on ::  Channel 0.  Note 81.  Velocity 0
000004t:  Note on ::  Channel 2.  Note 29.  Velocity 0
000002t:  Note on ::  Channel 7.  Note 81.  Velocity 0
000000t:  Note on ::  Channel 7.  Note 93.  Velocity 0
000004t:  Note on ::  Channel 0.  Note 77.  Velocity 111
000000t:  Note on ::  Channel 2.  Note 34.  Velocity 120
000002t:  Note on ::  Channel 9.  Note 38.  Velocity 122
000000t:  Note on ::  Channel 9.  Note 38.  Velocity 0
000000t:  Note on ::  Channel 9.  Note 42.  Velocity 88
000000t:  Note on ::  Channel 9.  Note 42.  Velocity 0
000010t:  Note on ::  Channel 0.  Note 77.  Velocity 0
000013t:  Note on ::  Channel 0.  Note 81.  Velocity 104
000010t:  Note on ::  Channel 0.  Note 81.  Velocity 0
000002t:  Note on ::  Channel 2.  Note 34.  Velocity 0
000010t:  Note on ::  Channel 0.  Note 86.  Velocity 111
000000t:  Note on ::  Channel 7.  Note 77.  Velocity 83
000000t:  Note on ::  Channel 7.  Note 89.  Velocity 83
000000t:  Note on ::  Channel 9.  Note 82.  Velocity 85
000000t:  Note on ::  Channel 9.  Note 46.  Velocity 100
000000t:  Note on ::  Channel 2.  Note 34.  Velocity 120
000002t:  Note on ::  Channel 9.  Note 46.  Velocity 0
000000t:  Note on ::  Channel 9.  Note 82.  Velocity 0
000010t:  Note on ::  Channel 0.  Note 86.  Velocity 0
000004t:  Note on ::  Channel 7.  Note 89.  Velocity 0
000000t:  Note on ::  Channel 7.  Note 77.  Velocity 0
000006t:  Note on ::  Channel 0.  Note 89.  Velocity 114
000010t:  Note on ::  Channel 4.  Note 53.  Velocity 0
000002t:  Note on ::  Channel 0.  Note 89.  Velocity 0
000004t:  Note on ::  Channel 2.  Note 34.  Velocity 0
000006t:  Note on ::  Channel 6.  Note 69.  Velocity 0
000002t:  Note on ::  Channel 4.  Note 57.  Velocity 111
000000t:  Note on ::  Channel 4.  Note 60.  Velocity 98
000000t:  Note on ::  Channel 7.  Note 79.  Velocity 95
000000t:  Note on ::  Channel 7.  Note 91.  Velocity 95
000000t:  Note on ::  Channel 9.  Note 39.  Velocity 113
000000t:  Note on ::  Channel 9.  Note 49.  Velocity 95
000000t:  Note on ::  Channel 6.  Note 72.  Velocity 110
000000t:  Note on ::  Channel 9.  Note 42.  Velocity 72
000000t:  Note on ::  Channel 2.  Note 31.  Velocity 120
000000t:  Note on ::  Channel 9.  Note 36.  Velocity 118
000003t:  Note on ::  Channel 9.  Note 36.  Velocity 0
000000t:  Note on ::  Channel 9.  Note 42.  Velocity 0
000000t:  Note on ::  Channel 9.  Note 49.  Velocity 0
000000t:  Note on ::  Channel 9.  Note 39.  Velocity 0
000016t:  Note on ::  Channel 7.  Note 91.  Velocity 0
000000t:  Note on ::  Channel 7.  Note 79.  Velocity 0
000002t:  Note on ::  Channel 9.  Note 39.  Velocity 100
000002t:  Note on ::  Channel 9.  Note 39.  Velocity 0
000047t:  Note on ::  Channel 9.  Note 39.  Velocity 121
000000t:  Note on ::  Channel 9.  Note 39.  Velocity 0
000006t:  Note on ::  Channel 2.  Note 31.  Velocity 0
000006t:  Note on ::  Channel 4.  Note 57.  Velocity 0
000002t:  Note on ::  Channel 4.  Note 60.  Velocity 0
000006t:  Note on ::  Channel 6.  Note 72.  Velocity 0
000002t:  Note on ::  Channel 9.  Note 39.  Velocity 108
000000t:  Note on ::  Channel 4.  Note 55.  Velocity 100
000000t:  Note on ::  Channel 4.  Note 59.  Velocity 95
000000t:  Note on ::  Channel 2.  Note 31.  Velocity 120
000000t:  Note on ::  Channel 6.  Note 71.  Velocity 110
000003t:  Note on ::  Channel 9.  Note 39.  Velocity 0
000044t:  Note on ::  Channel 9.  Note 38.  Velocity 122
000002t:  Note on ::  Channel 9.  Note 38.  Velocity 0
000009t:  Note on ::  Channel 2.  Note 31.  Velocity 0
000012t:  Note on ::  Channel 9.  Note 36.  Velocity 118
000000t:  Note on ::  Channel 2.  Note 35.  Velocity 120
000002t:  Note on ::  Channel 9.  Note 36.  Velocity 0
000012t:  Note on ::  Channel 4.  Note 59.  Velocity 0
000002t:  Note on ::  Channel 4.  Note 55.  Velocity 0
000006t:  Note on ::  Channel 6.  Note 71.  Velocity 0
000000t:  Note on ::  Channel 6.  Note 72.  Velocity 110
000000t:  Note on ::  Channel 4.  Note 60.  Velocity 103
000000t:  Note on ::  Channel 4.  Note 57.  Velocity 111
000002t:  Note on ::  Channel 4.  Note 55.  Velocity 49
000004t:  Note on ::  Channel 4.  Note 55.  Velocity 0
000006t:  Note on ::  Channel 2.  Note 35.  Velocity 0
000010t:  Note on ::  Channel 9.  Note 36.  Velocity 116
000002t:  Note on ::  Channel 9.  Note 36.  Velocity 0
000000t:  Note on ::  Channel 2.  Note 35.  Velocity 120
000011t:  Note on ::  Channel 2.  Note 35.  Velocity 0
000012t:  Note on ::  Channel 2.  Note 35.  Velocity 120
000022t:  Note on ::  Channel 9.  Note 36.  Velocity 122
000002t:  Note on ::  Channel 9.  Note 36.  Velocity 0
000010t:  Note on ::  Channel 4.  Note 57.  Velocity 0
000000t:  Note on ::  Channel 9.  Note 36.  Velocity 125
000002t:  Note on ::  Channel 9.  Note 36.  Velocity 0
000000t:  Note on ::  Channel 4.  Note 60.  Velocity 0
000004t:  Note on ::  Channel 2.  Note 35.  Velocity 0
000006t:  Note on ::  Channel 6.  Note 72.  Velocity 0
000000t:  Note on ::  Channel 2.  Note 36.  Velocity 120
000000t:  Note on ::  Channel 6.  Note 74.  Velocity 110
000000t:  Note on ::  Channel 4.  Note 62.  Velocity 103
000000t:  Note on ::  Channel 4.  Note 59.  Velocity 103
000000t:  Note on ::  Channel 9.  Note 38.  Velocity 122
000000t:  Note on ::  Channel 4.  Note 60.  Velocity 66
000002t:  Note on ::  Channel 9.  Note 38.  Velocity 0
000004t:  Note on ::  Channel 4.  Note 60.  Velocity 0
000037t:  Note on ::  Channel 2.  Note 36.  Velocity 0
000002t:  Note on ::  Channel 2.  Note 38.  Velocity 120
000055t:  Note on ::  Channel 2.  Note 38.  Velocity 0
000000t:  Note on ::  Channel 4.  Note 59.  Velocity 0
000000t:  Note on ::  Channel 4.  Note 62.  Velocity 0
000000t:  Note on ::  Channel 6.  Note 74.  Velocity 0
000000t:  Meta-event type $2f (End-track event) of length 0
Sigma t = 13635
End.
