File: still-alive.mid
Format: 1
Tracks: 5
Ticks per quarter note: 960

Track chunk of 624 bytes
000000t:  Meta-event type $03 (Track name) of length 11
	  Still Alive
000000t:  Meta-event type $03 (Track name) of length 11
	  from Portal
000000t:  Meta-event type $02 (Copyright text event) of length 29
	  Composed By: Jonathan Coulton
000000t:  Meta-event type $01 (Text event) of length 23
	  Arranged By: Eric Wastl
000000t:  Meta-event type $58 (Time signature) of length 4
	  ____
000000t:  Meta-event type $59 (Key signature) of length 2
	  __
000000t:  Meta-event type $51 (Set tempo) of length 3
	  _±_
000096t:  Meta-event type $51 (Set tempo) of length 3
	  ___
000384t:  Meta-event type $51 (Set tempo) of length 3
	  _'¡
000288t:  Meta-event type $51 (Set tempo) of length 3
	  _0Ö
000288t:  Meta-event type $51 (Set tempo) of length 3
	  _:"
000288t:  Meta-event type $51 (Set tempo) of length 3
	  _C_
000288t:  Meta-event type $51 (Set tempo) of length 3
	  _M_
000288t:  Meta-event type $51 (Set tempo) of length 3
	  _V_
000288t:  Meta-event type $51 (Set tempo) of length 3
	  _`K
000288t:  Meta-event type $51 (Set tempo) of length 3
	  _j_
000288t:  Meta-event type $51 (Set tempo) of length 3
	  _sø
000288t:  Meta-event type $51 (Set tempo) of length 3
	  _}ö
000288t:  Meta-event type $51 (Set tempo) of length 3
	  ___
000288t:  Meta-event type $51 (Set tempo) of length 3
	  __D
000288t:  Meta-event type $51 (Set tempo) of length 3
	  ___
000192t:  Meta-event type $51 (Set tempo) of length 3
	  _§_
000288t:  Meta-event type $51 (Set tempo) of length 3
	  ___
000288t:  Meta-event type $51 (Set tempo) of length 3
	  __D
000288t:  Meta-event type $51 (Set tempo) of length 3
	  ___
000288t:  Meta-event type $51 (Set tempo) of length 3
	  _}ö
000288t:  Meta-event type $51 (Set tempo) of length 3
	  _sø
000192t:  Meta-event type $51 (Set tempo) of length 3
	  _j_
000288t:  Meta-event type $51 (Set tempo) of length 3
	  _`K
000288t:  Meta-event type $51 (Set tempo) of length 3
	  _V_
000288t:  Meta-event type $51 (Set tempo) of length 3
	  _M_
000288t:  Meta-event type $51 (Set tempo) of length 3
	  _C_
000288t:  Meta-event type $51 (Set tempo) of length 3
	  _:"
000288t:  Meta-event type $51 (Set tempo) of length 3
	  _0Ö
000192t:  Meta-event type $51 (Set tempo) of length 3
	  _'¡
000096t:  Meta-event type $51 (Set tempo) of length 3
	  _'¡
000288t:  Meta-event type $51 (Set tempo) of length 3
	  _0Ö
000288t:  Meta-event type $51 (Set tempo) of length 3
	  _:"
000288t:  Meta-event type $51 (Set tempo) of length 3
	  _C_
000288t:  Meta-event type $51 (Set tempo) of length 3
	  _M_
000288t:  Meta-event type $51 (Set tempo) of length 3
	  _V_
000288t:  Meta-event type $51 (Set tempo) of length 3
	  _`K
000288t:  Meta-event type $51 (Set tempo) of length 3
	  _j_
000288t:  Meta-event type $51 (Set tempo) of length 3
	  _sø
000288t:  Meta-event type $51 (Set tempo) of length 3
	  _}ö
000288t:  Meta-event type $51 (Set tempo) of length 3
	  ___
000288t:  Meta-event type $51 (Set tempo) of length 3
	  __D
000288t:  Meta-event type $51 (Set tempo) of length 3
	  ___
000288t:  Meta-event type $51 (Set tempo) of length 3
	  _§_
046080t:  Meta-event type $59 (Key signature) of length 2
	  ÿ_
007680t:  Meta-event type $51 (Set tempo) of length 3
	  ___
000960t:  Meta-event type $51 (Set tempo) of length 3
	  __D
000960t:  Meta-event type $51 (Set tempo) of length 3
	  ___
000960t:  Meta-event type $51 (Set tempo) of length 3
	  _}ö
000960t:  Meta-event type $51 (Set tempo) of length 3
	  _sø
001248t:  Meta-event type $51 (Set tempo) of length 3
	  _sø
000576t:  Meta-event type $51 (Set tempo) of length 3
	  _}ö
000480t:  Meta-event type $51 (Set tempo) of length 3
	  ___
000576t:  Meta-event type $51 (Set tempo) of length 3
	  __D
000480t:  Meta-event type $51 (Set tempo) of length 3
	  ___
000480t:  Meta-event type $51 (Set tempo) of length 3
	  _§_
015360t:  Meta-event type $59 (Key signature) of length 2
	  __
003670t:  Meta-event type $51 (Set tempo) of length 3
	  _§_
000096t:  Meta-event type $51 (Set tempo) of length 3
	  _¤c
042314t:  Meta-event type $51 (Set tempo) of length 3
	  _¡ 
023040t:  Meta-event type $59 (Key signature) of length 2
	  ÿ_
007680t:  Meta-event type $51 (Set tempo) of length 3
	  __à
023040t:  Meta-event type $59 (Key signature) of length 2
	  __
069120t:  Meta-event type $59 (Key signature) of length 2
	  ÿ_
011520t:  Meta-event type $51 (Set tempo) of length 3
	  _¤c
019200t:  Meta-event type $59 (Key signature) of length 2
	  __
000000t:  Meta-event type $2f (End-track event) of length 0
Sigma t = 288000

Track chunk of 5898 bytes
000000t:  Meta-event type $03 (Track name) of length 6
	  Melody
000000t:  Program (patch) change ::  Channel 0.  Patch 0 (Acoustic Grand)
000000t:  Control change ::  Channel 0.  Controller 7.  Value: 127
001920t:  Note on ::  Channel 0.  Note 67.  Velocity 100
000000t:  Meta-event type $05 (Lyric) of length 5
	  This 
000480t:  Note on ::  Channel 0.  Note 67.  Velocity 0
000000t:  Note on ::  Channel 0.  Note 66.  Velocity 100
000000t:  Meta-event type $05 (Lyric) of length 4
	  was 
000480t:  Note on ::  Channel 0.  Note 66.  Velocity 0
000000t:  Note on ::  Channel 0.  Note 64.  Velocity 100
000000t:  Meta-event type $05 (Lyric) of length 2
	  a 
000480t:  Note on ::  Channel 0.  Note 64.  Velocity 0
000000t:  Note on ::  Channel 0.  Note 64.  Velocity 100
000000t:  Meta-event type $05 (Lyric) of length 3
	  tri
000480t:  Note on ::  Channel 0.  Note 64.  Velocity 0
000000t:  Note on ::  Channel 0.  Note 66.  Velocity 100
000000t:  Meta-event type $05 (Lyric) of length 6
	  umph. 
001920t:  Note on ::  Channel 0.  Note 66.  Velocity 0
003360t:  Note on ::  Channel 0.  Note 57.  Velocity 100
000000t:  Meta-event type $05 (Lyric) of length 4
	  I'm 
000480t:  Note on ::  Channel 0.  Note 57.  Velocity 0
000000t:  Note on ::  Channel 0.  Note 67.  Velocity 100
000000t:  Meta-event type $05 (Lyric) of length 3
	  mak
000480t:  Note on ::  Channel 0.  Note 67.  Velocity 0
000000t:  Note on ::  Channel 0.  Note 66.  Velocity 100
000000t:  Meta-event type $05 (Lyric) of length 4
	  ing 
000480t:  Note on ::  Channel 0.  Note 66.  Velocity 0
000000t:  Note on ::  Channel 0.  Note 64.  Velocity 100
000000t:  Meta-event type $05 (Lyric) of length 2
	  a 
000480t:  Note on ::  Channel 0.  Note 64.  Velocity 0
000000t:  Note on ::  Channel 0.  Note 64.  Velocity 100
000000t:  Meta-event type $05 (Lyric) of length 5
	  note 
000960t:  Note on ::  Channel 0.  Note 64.  Velocity 0
000000t:  Note on ::  Channel 0.  Note 66.  Velocity 100
000000t:  Meta-event type $05 (Lyric) of length 6
	  here: 
001440t:  Note on ::  Channel 0.  Note 66.  Velocity 0
000000t:  Note on ::  Channel 0.  Note 62.  Velocity 100
000000t:  Meta-event type $05 (Lyric) of length 5
	  HUGE 
000960t:  Note on ::  Channel 0.  Note 62.  Velocity 0
000000t:  Note on ::  Channel 0.  Note 64.  Velocity 100
000000t:  Meta-event type $05 (Lyric) of length 3
	  SUC
000480t:  Note on ::  Channel 0.  Note 64.  Velocity 0
000000t:  Note on ::  Channel 0.  Note 57.  Velocity 100
000000t:  Meta-event type $05 (Lyric) of length 6
	  CESS! 
003360t:  Note on ::  Channel 0.  Note 57.  Velocity 0
000480t:  Note on ::  Channel 0.  Note 57.  Velocity 100
000000t:  Meta-event type $05 (Lyric) of length 5
	  It's 
000480t:  Note on ::  Channel 0.  Note 57.  Velocity 0
000000t:  Note on ::  Channel 0.  Note 64.  Velocity 100
000000t:  Meta-event type $05 (Lyric) of length 5
	  hard 
000960t:  Note on ::  Channel 0.  Note 64.  Velocity 0
000000t:  Note on ::  Channel 0.  Note 66.  Velocity 100
000000t:  Meta-event type $05 (Lyric) of length 3
	  to 
000480t:  Note on ::  Channel 0.  Note 66.  Velocity 0
000000t:  Note on ::  Channel 0.  Note 67.  Velocity 100
000000t:  Meta-event type $05 (Lyric) of length 2
	  ov
001440t:  Note on ::  Channel 0.  Note 67.  Velocity 0
000000t:  Note on ::  Channel 0.  Note 64.  Velocity 100
000000t:  Meta-event type $05 (Lyric) of length 3
	  er 
000480t:  Note on ::  Channel 0.  Note 64.  Velocity 0
000000t:  Note on ::  Channel 0.  Note 61.  Velocity 100
000000t:  Meta-event type $05 (Lyric) of length 6
	  state 
000960t:  Note on ::  Channel 0.  Note 61.  Velocity 0
000000t:  Note on ::  Channel 0.  Note 62.  Velocity 100
000000t:  Meta-event type $05 (Lyric) of length 3
	  my 
001440t:  Note on ::  Channel 0.  Note 62.  Velocity 0
000000t:  Note on ::  Channel 0.  Note 64.  Velocity 100
000000t:  Meta-event type $05 (Lyric) of length 3
	  sat
000960t:  Note on ::  Channel 0.  Note 64.  Velocity 0
000000t:  Note on ::  Channel 0.  Note 57.  Velocity 100
000000t:  Meta-event type $05 (Lyric) of length 2
	  is
000480t:  Note on ::  Channel 0.  Note 57.  Velocity 0
000000t:  Note on ::  Channel 0.  Note 57.  Velocity 100
000000t:  Meta-event type $05 (Lyric) of length 4
	  fact
000960t:  Note on ::  Channel 0.  Note 57.  Velocity 0
000000t:  Note on ::  Channel 0.  Note 66.  Velocity 100
000000t:  Meta-event type $05 (Lyric) of length 5
	  ion. 
003360t:  Note on ::  Channel 0.  Note 66.  Velocity 0
001920t:  Note on ::  Channel 0.  Note 67.  Velocity 100
000000t:  Meta-event type $05 (Lyric) of length 2
	  Ap
000480t:  Note on ::  Channel 0.  Note 67.  Velocity 0
000000t:  Note on ::  Channel 0.  Note 66.  Velocity 100
000000t:  Meta-event type $05 (Lyric) of length 2
	  er
000480t:  Note on ::  Channel 0.  Note 66.  Velocity 0
000000t:  Note on ::  Channel 0.  Note 64.  Velocity 100
000000t:  Meta-event type $05 (Lyric) of length 5
	  ture 
000480t:  Note on ::  Channel 0.  Note 64.  Velocity 0
000000t:  Note on ::  Channel 0.  Note 64.  Velocity 100
000000t:  Meta-event type $05 (Lyric) of length 3
	  Sci
000480t:  Note on ::  Channel 0.  Note 64.  Velocity 0
000000t:  Note on ::  Channel 0.  Note 66.  Velocity 100
000000t:  Meta-event type $05 (Lyric) of length 6
	  ence: 
001920t:  Note on ::  Channel 0.  Note 66.  Velocity 0
003360t:  Note on ::  Channel 0.  Note 57.  Velocity 100
000000t:  Meta-event type $05 (Lyric) of length 4
	  "We 
000480t:  Note on ::  Channel 0.  Note 57.  Velocity 0
000000t:  Note on ::  Channel 0.  Note 67.  Velocity 100
000000t:  Meta-event type $05 (Lyric) of length 3
	  do 
000480t:  Note on ::  Channel 0.  Note 67.  Velocity 0
000000t:  Note on ::  Channel 0.  Note 66.  Velocity 100
000000t:  Meta-event type $05 (Lyric) of length 5
	  what 
000480t:  Note on ::  Channel 0.  Note 66.  Velocity 0
000000t:  Note on ::  Channel 0.  Note 64.  Velocity 100
000000t:  Meta-event type $05 (Lyric) of length 3
	  we 
000480t:  Note on ::  Channel 0.  Note 64.  Velocity 0
000000t:  Note on ::  Channel 0.  Note 64.  Velocity 100
000000t:  Meta-event type $05 (Lyric) of length 5
	  must 
001440t:  Note on ::  Channel 0.  Note 64.  Velocity 0
000000t:  Note on ::  Channel 0.  Note 66.  Velocity 100
000000t:  Meta-event type $05 (Lyric) of length 2
	  be
000480t:  Note on ::  Channel 0.  Note 66.  Velocity 0
000000t:  Note on ::  Channel 0.  Note 62.  Velocity 100
000000t:  Meta-event type $05 (Lyric) of length 6
	  cause 
001440t:  Note on ::  Channel 0.  Note 62.  Velocity 0
000000t:  Note on ::  Channel 0.  Note 64.  Velocity 100
000000t:  Meta-event type $05 (Lyric) of length 3
	  we 
000480t:  Note on ::  Channel 0.  Note 64.  Velocity 0
000000t:  Note on ::  Channel 0.  Note 57.  Velocity 100
000000t:  Meta-event type $05 (Lyric) of length 5
	  can, 
001440t:  Note on ::  Channel 0.  Note 57.  Velocity 0
002880t:  Note on ::  Channel 0.  Note 64.  Velocity 100
000000t:  Meta-event type $05 (Lyric) of length 4
	  for 
000960t:  Note on ::  Channel 0.  Note 64.  Velocity 0
000000t:  Note on ::  Channel 0.  Note 66.  Velocity 100
000000t:  Meta-event type $05 (Lyric) of length 4
	  the 
000480t:  Note on ::  Channel 0.  Note 66.  Velocity 0
000000t:  Note on ::  Channel 0.  Note 67.  Velocity 100
000000t:  Meta-event type $05 (Lyric) of length 5
	  good 
001440t:  Note on ::  Channel 0.  Note 67.  Velocity 0
000000t:  Note on ::  Channel 0.  Note 64.  Velocity 100
000000t:  Meta-event type $05 (Lyric) of length 3
	  of 
000480t:  Note on ::  Channel 0.  Note 64.  Velocity 0
000000t:  Note on ::  Channel 0.  Note 61.  Velocity 100
000000t:  Meta-event type $05 (Lyric) of length 4
	  all 
001440t:  Note on ::  Channel 0.  Note 61.  Velocity 0
000000t:  Note on ::  Channel 0.  Note 62.  Velocity 100
000000t:  Meta-event type $05 (Lyric) of length 3
	  of 
000480t:  Note on ::  Channel 0.  Note 62.  Velocity 0
000000t:  Note on ::  Channel 0.  Note 64.  Velocity 100
000000t:  Meta-event type $05 (Lyric) of length 5
	  us." 
000960t:  Note on ::  Channel 0.  Note 64.  Velocity 0
000000t:  Note on ::  Channel 0.  Note 57.  Velocity 100
000000t:  Meta-event type $05 (Lyric) of length 3
	  (Ex
000480t:  Note on ::  Channel 0.  Note 57.  Velocity 0
000000t:  Note on ::  Channel 0.  Note 62.  Velocity 100
000000t:  Meta-event type $05 (Lyric) of length 5
	  cept 
000480t:  Note on ::  Channel 0.  Note 62.  Velocity 0
000000t:  Note on ::  Channel 0.  Note 64.  Velocity 100
000000t:  Meta-event type $05 (Lyric) of length 4
	  the 
000480t:  Note on ::  Channel 0.  Note 64.  Velocity 0
000000t:  Note on ::  Channel 0.  Note 65.  Velocity 100
000000t:  Meta-event type $05 (Lyric) of length 5
	  ones 
000480t:  Note on ::  Channel 0.  Note 65.  Velocity 0
000000t:  Note on ::  Channel 0.  Note 64.  Velocity 100
000000t:  Meta-event type $05 (Lyric) of length 4
	  who 
000480t:  Note on ::  Channel 0.  Note 64.  Velocity 0
000000t:  Note on ::  Channel 0.  Note 62.  Velocity 100
000000t:  Meta-event type $05 (Lyric) of length 4
	  are 
000480t:  Note on ::  Channel 0.  Note 62.  Velocity 0
000000t:  Note on ::  Channel 0.  Note 60.  Velocity 100
000000t:  Meta-event type $05 (Lyric) of length 7
	  dead.) 
000480t:  Note on ::  Channel 0.  Note 60.  Velocity 0
000960t:  Note on ::  Channel 0.  Note 57.  Velocity 100
000000t:  Meta-event type $05 (Lyric) of length 4
	  But 
000480t:  Note on ::  Channel 0.  Note 57.  Velocity 0
000000t:  Note on ::  Channel 0.  Note 58.  Velocity 100
000000t:  Meta-event type $05 (Lyric) of length 8
	  there's 
000480t:  Note on ::  Channel 0.  Note 58.  Velocity 0
000000t:  Note on ::  Channel 0.  Note 60.  Velocity 100
000000t:  Meta-event type $05 (Lyric) of length 3
	  no 
000960t:  Note on ::  Channel 0.  Note 60.  Velocity 0
000000t:  Note on ::  Channel 0.  Note 65.  Velocity 100
000000t:  Meta-event type $05 (Lyric) of length 6
	  sense 
000960t:  Note on ::  Channel 0.  Note 65.  Velocity 0
000000t:  Note on ::  Channel 0.  Note 64.  Velocity 100
000000t:  Meta-event type $05 (Lyric) of length 3
	  cry
000480t:  Note on ::  Channel 0.  Note 64.  Velocity 0
000000t:  Note on ::  Channel 0.  Note 62.  Velocity 100
000000t:  Meta-event type $05 (Lyric) of length 4
	  ing 
000480t:  Note on ::  Channel 0.  Note 62.  Velocity 0
000000t:  Note on ::  Channel 0.  Note 62.  Velocity 100
000000t:  Meta-event type $05 (Lyric) of length 2
	  ov
000480t:  Note on ::  Channel 0.  Note 62.  Velocity 0
000000t:  Note on ::  Channel 0.  Note 60.  Velocity 100
000000t:  Meta-event type $05 (Lyric) of length 3
	  er 
000480t:  Note on ::  Channel 0.  Note 60.  Velocity 0
000000t:  Note on ::  Channel 0.  Note 62.  Velocity 100
000000t:  Meta-event type $05 (Lyric) of length 2
	  ev
000480t:  Note on ::  Channel 0.  Note 62.  Velocity 0
000000t:  Note on ::  Channel 0.  Note 60.  Velocity 100
000000t:  Meta-event type $05 (Lyric) of length 4
	  ery 
000480t:  Note on ::  Channel 0.  Note 60.  Velocity 0
000000t:  Note on ::  Channel 0.  Note 60.  Velocity 100
000000t:  Meta-event type $05 (Lyric) of length 3
	  mis
000960t:  Note on ::  Channel 0.  Note 60.  Velocity 0
000000t:  Note on ::  Channel 0.  Note 60.  Velocity 100
000000t:  Meta-event type $05 (Lyric) of length 6
	  take; 
000960t:  Note on ::  Channel 0.  Note 60.  Velocity 0
000000t:  Note on ::  Channel 0.  Note 57.  Velocity 100
000000t:  Meta-event type $05 (Lyric) of length 4
	  you 
000480t:  Note on ::  Channel 0.  Note 57.  Velocity 0
000000t:  Note on ::  Channel 0.  Note 58.  Velocity 100
000000t:  Meta-event type $05 (Lyric) of length 5
	  just 
000480t:  Note on ::  Channel 0.  Note 58.  Velocity 0
000000t:  Note on ::  Channel 0.  Note 60.  Velocity 100
000000t:  Meta-event type $05 (Lyric) of length 5
	  keep 
000960t:  Note on ::  Channel 0.  Note 60.  Velocity 0
000000t:  Note on ::  Channel 0.  Note 65.  Velocity 100
000000t:  Meta-event type $05 (Lyric) of length 3
	  on 
000960t:  Note on ::  Channel 0.  Note 65.  Velocity 0
000000t:  Note on ::  Channel 0.  Note 67.  Velocity 100
000000t:  Meta-event type $05 (Lyric) of length 3
	  try
000480t:  Note on ::  Channel 0.  Note 67.  Velocity 0
000000t:  Note on ::  Channel 0.  Note 65.  Velocity 100
000000t:  Meta-event type $05 (Lyric) of length 4
	  ing 
000480t:  Note on ::  Channel 0.  Note 65.  Velocity 0
000000t:  Note on ::  Channel 0.  Note 64.  Velocity 100
000000t:  Meta-event type $05 (Lyric) of length 6
	  'till 
000480t:  Note on ::  Channel 0.  Note 64.  Velocity 0
000000t:  Note on ::  Channel 0.  Note 62.  Velocity 100
000000t:  Meta-event type $05 (Lyric) of length 4
	  you 
000480t:  Note on ::  Channel 0.  Note 62.  Velocity 0
000000t:  Note on ::  Channel 0.  Note 62.  Velocity 100
000000t:  Meta-event type $05 (Lyric) of length 4
	  run 
000480t:  Note on ::  Channel 0.  Note 62.  Velocity 0
000000t:  Note on ::  Channel 0.  Note 64.  Velocity 100
000000t:  Meta-event type $05 (Lyric) of length 4
	  out 
000480t:  Note on ::  Channel 0.  Note 64.  Velocity 0
000000t:  Note on ::  Channel 0.  Note 65.  Velocity 100
000000t:  Meta-event type $05 (Lyric) of length 3
	  of 
000960t:  Note on ::  Channel 0.  Note 65.  Velocity 0
000000t:  Note on ::  Channel 0.  Note 65.  Velocity 100
000000t:  Meta-event type $05 (Lyric) of length 6
	  cake, 
000960t:  Note on ::  Channel 0.  Note 65.  Velocity 0
000000t:  Note on ::  Channel 0.  Note 67.  Velocity 100
000000t:  Meta-event type $05 (Lyric) of length 4
	  and 
000480t:  Note on ::  Channel 0.  Note 67.  Velocity 0
000000t:  Note on ::  Channel 0.  Note 69.  Velocity 100
000000t:  Meta-event type $05 (Lyric) of length 4
	  the 
000480t:  Note on ::  Channel 0.  Note 69.  Velocity 0
000000t:  Note on ::  Channel 0.  Note 70.  Velocity 100
000000t:  Meta-event type $05 (Lyric) of length 3
	  Sci
000480t:  Note on ::  Channel 0.  Note 70.  Velocity 0
000000t:  Note on ::  Channel 0.  Note 70.  Velocity 100
000000t:  Meta-event type $05 (Lyric) of length 5
	  ence 
000480t:  Note on ::  Channel 0.  Note 70.  Velocity 0
000000t:  Note on ::  Channel 0.  Note 69.  Velocity 100
000000t:  Meta-event type $05 (Lyric) of length 5
	  gets 
000960t:  Note on ::  Channel 0.  Note 69.  Velocity 0
000000t:  Note on ::  Channel 0.  Note 67.  Velocity 100
000000t:  Meta-event type $05 (Lyric) of length 6
	  done, 
000960t:  Note on ::  Channel 0.  Note 67.  Velocity 0
000000t:  Note on ::  Channel 0.  Note 65.  Velocity 100
000000t:  Meta-event type $05 (Lyric) of length 4
	  and 
000480t:  Note on ::  Channel 0.  Note 65.  Velocity 0
000000t:  Note on ::  Channel 0.  Note 67.  Velocity 100
000000t:  Meta-event type $05 (Lyric) of length 4
	  you 
000480t:  Note on ::  Channel 0.  Note 67.  Velocity 0
000000t:  Note on ::  Channel 0.  Note 69.  Velocity 100
000000t:  Meta-event type $05 (Lyric) of length 5
	  make 
000480t:  Note on ::  Channel 0.  Note 69.  Velocity 0
000000t:  Note on ::  Channel 0.  Note 69.  Velocity 100
000000t:  Meta-event type $05 (Lyric) of length 2
	  a 
000480t:  Note on ::  Channel 0.  Note 69.  Velocity 0
000000t:  Note on ::  Channel 0.  Note 67.  Velocity 100
000000t:  Meta-event type $05 (Lyric) of length 5
	  neat 
000960t:  Note on ::  Channel 0.  Note 67.  Velocity 0
000000t:  Note on ::  Channel 0.  Note 65.  Velocity 100
000000t:  Meta-event type $05 (Lyric) of length 4
	  gun 
000960t:  Note on ::  Channel 0.  Note 65.  Velocity 0
000000t:  Note on ::  Channel 0.  Note 62.  Velocity 100
000000t:  Meta-event type $05 (Lyric) of length 4
	  for 
000480t:  Note on ::  Channel 0.  Note 62.  Velocity 0
000000t:  Note on ::  Channel 0.  Note 60.  Velocity 100
000000t:  Meta-event type $05 (Lyric) of length 4
	  the 
000480t:  Note on ::  Channel 0.  Note 60.  Velocity 0
000000t:  Note on ::  Channel 0.  Note 62.  Velocity 100
000000t:  Meta-event type $05 (Lyric) of length 3
	  peo
000480t:  Note on ::  Channel 0.  Note 62.  Velocity 0
000000t:  Note on ::  Channel 0.  Note 65.  Velocity 100
000000t:  Meta-event type $05 (Lyric) of length 4
	  ple 
000480t:  Note on ::  Channel 0.  Note 65.  Velocity 0
000000t:  Note on ::  Channel 0.  Note 65.  Velocity 100
000000t:  Meta-event type $05 (Lyric) of length 4
	  who 
000480t:  Note on ::  Channel 0.  Note 65.  Velocity 0
000000t:  Note on ::  Channel 0.  Note 64.  Velocity 100
000000t:  Meta-event type $05 (Lyric) of length 4
	  are 
000960t:  Note on ::  Channel 0.  Note 64.  Velocity 0
000000t:  Note on ::  Channel 0.  Note 64.  Velocity 100
000000t:  Meta-event type $05 (Lyric) of length 6
	  still 
000480t:  Note on ::  Channel 0.  Note 64.  Velocity 0
000000t:  Note on ::  Channel 0.  Note 66.  Velocity 100
000000t:  Meta-event type $05 (Lyric) of length 1
	  a
000480t:  Note on ::  Channel 0.  Note 66.  Velocity 0
000000t:  Note on ::  Channel 0.  Note 66.  Velocity 100
000000t:  Meta-event type $05 (Lyric) of length 6
	  live. 
000480t:  Note on ::  Channel 0.  Note 66.  Velocity 0
012960t:  Note on ::  Channel 0.  Note 57.  Velocity 100
000000t:  Meta-event type $05 (Lyric) of length 4
	  I'm 
000480t:  Note on ::  Channel 0.  Note 57.  Velocity 0
000000t:  Note on ::  Channel 0.  Note 67.  Velocity 100
000000t:  Meta-event type $05 (Lyric) of length 4
	  not 
000480t:  Note on ::  Channel 0.  Note 67.  Velocity 0
000000t:  Note on ::  Channel 0.  Note 66.  Velocity 100
000000t:  Meta-event type $05 (Lyric) of length 2
	  ev
000480t:  Note on ::  Channel 0.  Note 66.  Velocity 0
000000t:  Note on ::  Channel 0.  Note 64.  Velocity 100
000000t:  Meta-event type $05 (Lyric) of length 3
	  en 
000480t:  Note on ::  Channel 0.  Note 64.  Velocity 0
000000t:  Note on ::  Channel 0.  Note 64.  Velocity 100
000000t:  Meta-event type $05 (Lyric) of length 2
	  an
000720t:  Note on ::  Channel 0.  Note 64.  Velocity 0
000000t:  Note on ::  Channel 0.  Note 66.  Velocity 100
000000t:  Meta-event type $05 (Lyric) of length 5
	  gry. 
001680t:  Note on ::  Channel 0.  Note 66.  Velocity 0
003840t:  Note on ::  Channel 0.  Note 67.  Velocity 100
000000t:  Meta-event type $05 (Lyric) of length 4
	  I'm 
000480t:  Note on ::  Channel 0.  Note 67.  Velocity 0
000000t:  Note on ::  Channel 0.  Note 66.  Velocity 100
000000t:  Meta-event type $05 (Lyric) of length 2
	  be
000480t:  Note on ::  Channel 0.  Note 66.  Velocity 0
000000t:  Note on ::  Channel 0.  Note 64.  Velocity 100
000000t:  Meta-event type $05 (Lyric) of length 4
	  ing 
000480t:  Note on ::  Channel 0.  Note 64.  Velocity 0
000000t:  Note on ::  Channel 0.  Note 64.  Velocity 100
000000t:  Meta-event type $05 (Lyric) of length 3
	  so 
001440t:  Note on ::  Channel 0.  Note 64.  Velocity 0
000000t:  Note on ::  Channel 0.  Note 66.  Velocity 100
000000t:  Meta-event type $05 (Lyric) of length 3
	  sin
000480t:  Note on ::  Channel 0.  Note 66.  Velocity 0
000000t:  Note on ::  Channel 0.  Note 62.  Velocity 100
000000t:  Meta-event type $05 (Lyric) of length 5
	  cere 
000960t:  Note on ::  Channel 0.  Note 62.  Velocity 0
000000t:  Note on ::  Channel 0.  Note 64.  Velocity 100
000000t:  Meta-event type $05 (Lyric) of length 6
	  right 
000960t:  Note on ::  Channel 0.  Note 64.  Velocity 0
000000t:  Note on ::  Channel 0.  Note 57.  Velocity 100
000000t:  Meta-event type $05 (Lyric) of length 5
	  now, 
001440t:  Note on ::  Channel 0.  Note 57.  Velocity 0
002880t:  Note on ::  Channel 0.  Note 64.  Velocity 100
000000t:  Meta-event type $05 (Lyric) of length 2
	  ev
000960t:  Note on ::  Channel 0.  Note 64.  Velocity 0
000000t:  Note on ::  Channel 0.  Note 66.  Velocity 100
000000t:  Meta-event type $05 (Lyric) of length 3
	  en 
000480t:  Note on ::  Channel 0.  Note 66.  Velocity 0
000000t:  Note on ::  Channel 0.  Note 67.  Velocity 100
000000t:  Meta-event type $05 (Lyric) of length 7
	  though 
001440t:  Note on ::  Channel 0.  Note 67.  Velocity 0
000000t:  Note on ::  Channel 0.  Note 64.  Velocity 100
000000t:  Meta-event type $05 (Lyric) of length 4
	  you 
000960t:  Note on ::  Channel 0.  Note 64.  Velocity 0
000000t:  Note on ::  Channel 0.  Note 61.  Velocity 100
000000t:  Meta-event type $05 (Lyric) of length 6
	  broke 
000960t:  Note on ::  Channel 0.  Note 61.  Velocity 0
000000t:  Note on ::  Channel 0.  Note 62.  Velocity 100
000000t:  Meta-event type $05 (Lyric) of length 3
	  my 
000480t:  Note on ::  Channel 0.  Note 62.  Velocity 0
000000t:  Note on ::  Channel 0.  Note 64.  Velocity 100
000000t:  Meta-event type $05 (Lyric) of length 6
	  heart 
001440t:  Note on ::  Channel 0.  Note 64.  Velocity 0
000000t:  Note on ::  Channel 0.  Note 57.  Velocity 100
000000t:  Meta-event type $05 (Lyric) of length 4
	  and 
000480t:  Note on ::  Channel 0.  Note 57.  Velocity 0
000000t:  Note on ::  Channel 0.  Note 57.  Velocity 100
000000t:  Meta-event type $05 (Lyric) of length 7
	  killed 
000960t:  Note on ::  Channel 0.  Note 57.  Velocity 0
000000t:  Note on ::  Channel 0.  Note 66.  Velocity 100
000000t:  Meta-event type $05 (Lyric) of length 4
	  me, 
002400t:  Note on ::  Channel 0.  Note 66.  Velocity 0
002400t:  Note on ::  Channel 0.  Note 57.  Velocity 100
000000t:  Meta-event type $05 (Lyric) of length 4
	  and 
000480t:  Note on ::  Channel 0.  Note 57.  Velocity 0
000000t:  Note on ::  Channel 0.  Note 67.  Velocity 100
000000t:  Note on ::  Channel 0.  Note 71.  Velocity 100
000000t:  Meta-event type $05 (Lyric) of length 5
	  tore 
000480t:  Note on ::  Channel 0.  Note 71.  Velocity 0
000000t:  Note on ::  Channel 0.  Note 67.  Velocity 0
000000t:  Note on ::  Channel 0.  Note 66.  Velocity 100
000000t:  Note on ::  Channel 0.  Note 69.  Velocity 100
000000t:  Meta-event type $05 (Lyric) of length 3
	  me 
000480t:  Note on ::  Channel 0.  Note 69.  Velocity 0
000000t:  Note on ::  Channel 0.  Note 66.  Velocity 0
000000t:  Note on ::  Channel 0.  Note 64.  Velocity 100
000000t:  Note on ::  Channel 0.  Note 67.  Velocity 100
000000t:  Meta-event type $05 (Lyric) of length 3
	  to 
000480t:  Note on ::  Channel 0.  Note 67.  Velocity 0
000000t:  Note on ::  Channel 0.  Note 64.  Velocity 0
000000t:  Note on ::  Channel 0.  Note 64.  Velocity 100
000000t:  Note on ::  Channel 0.  Note 67.  Velocity 100
000000t:  Meta-event type $05 (Lyric) of length 3
	  pie
000480t:  Note on ::  Channel 0.  Note 67.  Velocity 0
000000t:  Note on ::  Channel 0.  Note 64.  Velocity 0
000000t:  Note on ::  Channel 0.  Note 66.  Velocity 100
000000t:  Note on ::  Channel 0.  Note 69.  Velocity 100
000000t:  Meta-event type $05 (Lyric) of length 5
	  ces, 
000960t:  Note on ::  Channel 0.  Note 69.  Velocity 0
000000t:  Note on ::  Channel 0.  Note 66.  Velocity 0
004320t:  Note on ::  Channel 0.  Note 57.  Velocity 100
000000t:  Meta-event type $05 (Lyric) of length 4
	  and 
000480t:  Note on ::  Channel 0.  Note 57.  Velocity 0
000000t:  Note on ::  Channel 0.  Note 67.  Velocity 100
000000t:  Note on ::  Channel 0.  Note 71.  Velocity 100
000000t:  Meta-event type $05 (Lyric) of length 6
	  threw 
000480t:  Note on ::  Channel 0.  Note 71.  Velocity 0
000000t:  Note on ::  Channel 0.  Note 67.  Velocity 0
000000t:  Note on ::  Channel 0.  Note 66.  Velocity 100
000000t:  Note on ::  Channel 0.  Note 69.  Velocity 100
000000t:  Meta-event type $05 (Lyric) of length 2
	  ev
000480t:  Note on ::  Channel 0.  Note 69.  Velocity 0
000000t:  Note on ::  Channel 0.  Note 66.  Velocity 0
000000t:  Note on ::  Channel 0.  Note 64.  Velocity 100
000000t:  Note on ::  Channel 0.  Note 67.  Velocity 100
000000t:  Meta-event type $05 (Lyric) of length 4
	  ery 
000480t:  Note on ::  Channel 0.  Note 67.  Velocity 0
000000t:  Note on ::  Channel 0.  Note 64.  Velocity 0
000000t:  Note on ::  Channel 0.  Note 64.  Velocity 100
000000t:  Note on ::  Channel 0.  Note 67.  Velocity 100
000000t:  Meta-event type $05 (Lyric) of length 6
	  piece 
001440t:  Note on ::  Channel 0.  Note 67.  Velocity 0
000000t:  Note on ::  Channel 0.  Note 64.  Velocity 0
000000t:  Note on ::  Channel 0.  Note 69.  Velocity 100
000000t:  Note on ::  Channel 0.  Note 66.  Velocity 100
000000t:  Meta-event type $05 (Lyric) of length 2
	  in
000480t:  Note on ::  Channel 0.  Note 66.  Velocity 0
000000t:  Note on ::  Channel 0.  Note 69.  Velocity 0
000000t:  Note on ::  Channel 0.  Note 66.  Velocity 100
000000t:  Note on ::  Channel 0.  Note 62.  Velocity 100
000000t:  Meta-event type $05 (Lyric) of length 3
	  to 
001440t:  Note on ::  Channel 0.  Note 62.  Velocity 0
000000t:  Note on ::  Channel 0.  Note 66.  Velocity 0
000000t:  Note on ::  Channel 0.  Note 64.  Velocity 100
000000t:  Note on ::  Channel 0.  Note 67.  Velocity 100
000000t:  Meta-event type $05 (Lyric) of length 2
	  a 
000480t:  Note on ::  Channel 0.  Note 67.  Velocity 0
000000t:  Note on ::  Channel 0.  Note 64.  Velocity 0
000000t:  Note on ::  Channel 0.  Note 62.  Velocity 100
000000t:  Note on ::  Channel 0.  Note 57.  Velocity 100
000000t:  Meta-event type $05 (Lyric) of length 6
	  fire. 
001440t:  Note on ::  Channel 0.  Note 57.  Velocity 0
000000t:  Note on ::  Channel 0.  Note 62.  Velocity 0
002880t:  Note on ::  Channel 0.  Note 64.  Velocity 100
000000t:  Meta-event type $05 (Lyric) of length 3
	  As 
000960t:  Note on ::  Channel 0.  Note 64.  Velocity 0
000000t:  Note on ::  Channel 0.  Note 66.  Velocity 100
000000t:  Meta-event type $05 (Lyric) of length 5
	  they 
000480t:  Note on ::  Channel 0.  Note 66.  Velocity 0
000000t:  Note on ::  Channel 0.  Note 67.  Velocity 100
000000t:  Meta-event type $05 (Lyric) of length 8
	  burned, 
001440t:  Note on ::  Channel 0.  Note 67.  Velocity 0
000000t:  Note on ::  Channel 0.  Note 64.  Velocity 100
000000t:  Meta-event type $05 (Lyric) of length 3
	  it 
000960t:  Note on ::  Channel 0.  Note 64.  Velocity 0
000000t:  Note on ::  Channel 0.  Note 61.  Velocity 100
000000t:  Meta-event type $05 (Lyric) of length 5
	  hurt 
000960t:  Note on ::  Channel 0.  Note 61.  Velocity 0
000000t:  Note on ::  Channel 0.  Note 62.  Velocity 100
000000t:  Meta-event type $05 (Lyric) of length 2
	  be
000480t:  Note on ::  Channel 0.  Note 62.  Velocity 0
000000t:  Note on ::  Channel 0.  Note 64.  Velocity 100
000000t:  Meta-event type $05 (Lyric) of length 6
	  cause 
000960t:  Note on ::  Channel 0.  Note 64.  Velocity 0
000000t:  Note on ::  Channel 0.  Note 57.  Velocity 100
000000t:  Meta-event type $05 (Lyric) of length 2
	  I 
000480t:  Note on ::  Channel 0.  Note 57.  Velocity 0
000000t:  Note on ::  Channel 0.  Note 62.  Velocity 100
000000t:  Meta-event type $05 (Lyric) of length 4
	  was 
000480t:  Note on ::  Channel 0.  Note 62.  Velocity 0
000000t:  Note on ::  Channel 0.  Note 64.  Velocity 100
000000t:  Meta-event type $05 (Lyric) of length 3
	  so 
000480t:  Note on ::  Channel 0.  Note 64.  Velocity 0
000000t:  Note on ::  Channel 0.  Note 65.  Velocity 100
000000t:  Meta-event type $05 (Lyric) of length 3
	  hap
000480t:  Note on ::  Channel 0.  Note 65.  Velocity 0
000000t:  Note on ::  Channel 0.  Note 64.  Velocity 100
000000t:  Meta-event type $05 (Lyric) of length 3
	  py 
000480t:  Note on ::  Channel 0.  Note 64.  Velocity 0
000000t:  Note on ::  Channel 0.  Note 62.  Velocity 100
000000t:  Meta-event type $05 (Lyric) of length 4
	  for 
000480t:  Note on ::  Channel 0.  Note 62.  Velocity 0
000000t:  Note on ::  Channel 0.  Note 60.  Velocity 100
000000t:  Meta-event type $05 (Lyric) of length 5
	  you! 
001440t:  Note on ::  Channel 0.  Note 60.  Velocity 0
000000t:  Note on ::  Channel 0.  Note 57.  Velocity 100
000000t:  Meta-event type $05 (Lyric) of length 4
	  Now 
000480t:  Note on ::  Channel 0.  Note 57.  Velocity 0
000000t:  Note on ::  Channel 0.  Note 58.  Velocity 100
000000t:  Meta-event type $05 (Lyric) of length 6
	  these 
000480t:  Note on ::  Channel 0.  Note 58.  Velocity 0
000000t:  Note on ::  Channel 0.  Note 60.  Velocity 100
000000t:  Meta-event type $05 (Lyric) of length 7
	  points 
000960t:  Note on ::  Channel 0.  Note 60.  Velocity 0
000000t:  Note on ::  Channel 0.  Note 65.  Velocity 100
000000t:  Meta-event type $05 (Lyric) of length 3
	  of 
000960t:  Note on ::  Channel 0.  Note 65.  Velocity 0
000000t:  Note on ::  Channel 0.  Note 64.  Velocity 100
000000t:  Meta-event type $05 (Lyric) of length 2
	  da
000480t:  Note on ::  Channel 0.  Note 64.  Velocity 0
000000t:  Note on ::  Channel 0.  Note 62.  Velocity 100
000000t:  Meta-event type $05 (Lyric) of length 3
	  ta 
000480t:  Note on ::  Channel 0.  Note 62.  Velocity 0
000000t:  Note on ::  Channel 0.  Note 62.  Velocity 100
000000t:  Meta-event type $05 (Lyric) of length 5
	  make 
000480t:  Note on ::  Channel 0.  Note 62.  Velocity 0
000000t:  Note on ::  Channel 0.  Note 60.  Velocity 100
000000t:  Meta-event type $05 (Lyric) of length 2
	  a 
000480t:  Note on ::  Channel 0.  Note 60.  Velocity 0
000000t:  Note on ::  Channel 0.  Note 62.  Velocity 100
000000t:  Meta-event type $05 (Lyric) of length 4
	  beau
000480t:  Note on ::  Channel 0.  Note 62.  Velocity 0
000000t:  Note on ::  Channel 0.  Note 60.  Velocity 100
000000t:  Meta-event type $05 (Lyric) of length 2
	  ti
000480t:  Note on ::  Channel 0.  Note 60.  Velocity 0
000000t:  Note on ::  Channel 0.  Note 60.  Velocity 100
000000t:  Meta-event type $05 (Lyric) of length 4
	  ful 
000960t:  Note on ::  Channel 0.  Note 60.  Velocity 0
000000t:  Note on ::  Channel 0.  Note 60.  Velocity 100
000000t:  Meta-event type $05 (Lyric) of length 6
	  line, 
000960t:  Note on ::  Channel 0.  Note 60.  Velocity 0
000000t:  Note on ::  Channel 0.  Note 57.  Velocity 100
000000t:  Meta-event type $05 (Lyric) of length 4
	  and 
000480t:  Note on ::  Channel 0.  Note 57.  Velocity 0
000000t:  Note on ::  Channel 0.  Note 58.  Velocity 100
000000t:  Meta-event type $05 (Lyric) of length 6
	  we're 
000480t:  Note on ::  Channel 0.  Note 58.  Velocity 0
000000t:  Note on ::  Channel 0.  Note 60.  Velocity 100
000000t:  Meta-event type $05 (Lyric) of length 4
	  out 
000960t:  Note on ::  Channel 0.  Note 60.  Velocity 0
000000t:  Note on ::  Channel 0.  Note 65.  Velocity 100
000000t:  Meta-event type $05 (Lyric) of length 3
	  of 
000960t:  Note on ::  Channel 0.  Note 65.  Velocity 0
000000t:  Note on ::  Channel 0.  Note 67.  Velocity 100
000000t:  Meta-event type $05 (Lyric) of length 2
	  be
000480t:  Note on ::  Channel 0.  Note 67.  Velocity 0
000000t:  Note on ::  Channel 0.  Note 65.  Velocity 100
000000t:  Meta-event type $05 (Lyric) of length 3
	  ta 
000480t:  Note on ::  Channel 0.  Note 65.  Velocity 0
000000t:  Note on ::  Channel 0.  Note 64.  Velocity 100
000000t:  Meta-event type $05 (Lyric) of length 6
	  we're 
000480t:  Note on ::  Channel 0.  Note 64.  Velocity 0
000000t:  Note on ::  Channel 0.  Note 62.  Velocity 100
000000t:  Meta-event type $05 (Lyric) of length 2
	  re
000480t:  Note on ::  Channel 0.  Note 62.  Velocity 0
000000t:  Note on ::  Channel 0.  Note 62.  Velocity 100
000000t:  Meta-event type $05 (Lyric) of length 4
	  leas
000480t:  Note on ::  Channel 0.  Note 62.  Velocity 0
000000t:  Note on ::  Channel 0.  Note 64.  Velocity 100
000000t:  Meta-event type $05 (Lyric) of length 4
	  ing 
000480t:  Note on ::  Channel 0.  Note 64.  Velocity 0
000000t:  Note on ::  Channel 0.  Note 65.  Velocity 100
000000t:  Meta-event type $05 (Lyric) of length 3
	  on 
000960t:  Note on ::  Channel 0.  Note 65.  Velocity 0
000000t:  Note on ::  Channel 0.  Note 65.  Velocity 100
000000t:  Meta-event type $05 (Lyric) of length 6
	  time. 
000960t:  Note on ::  Channel 0.  Note 65.  Velocity 0
000000t:  Note on ::  Channel 0.  Note 67.  Velocity 100
000000t:  Meta-event type $05 (Lyric) of length 3
	  So 
000480t:  Note on ::  Channel 0.  Note 67.  Velocity 0
000000t:  Note on ::  Channel 0.  Note 69.  Velocity 100
000000t:  Meta-event type $05 (Lyric) of length 4
	  I'm 
000480t:  Note on ::  Channel 0.  Note 69.  Velocity 0
000000t:  Note on ::  Channel 0.  Note 70.  Velocity 100
000000t:  Meta-event type $05 (Lyric) of length 6
	  GLaD. 
000480t:  Note on ::  Channel 0.  Note 70.  Velocity 0
000000t:  Note on ::  Channel 0.  Note 70.  Velocity 100
000000t:  Meta-event type $05 (Lyric) of length 2
	  I 
000480t:  Note on ::  Channel 0.  Note 70.  Velocity 0
000000t:  Note on ::  Channel 0.  Note 69.  Velocity 100
000000t:  Meta-event type $05 (Lyric) of length 4
	  got 
000960t:  Note on ::  Channel 0.  Note 69.  Velocity 0
000000t:  Note on ::  Channel 0.  Note 67.  Velocity 100
000000t:  Meta-event type $05 (Lyric) of length 8
	  burned. 
000960t:  Note on ::  Channel 0.  Note 67.  Velocity 0
000000t:  Note on ::  Channel 0.  Note 65.  Velocity 100
000000t:  Meta-event type $05 (Lyric) of length 6
	  Think 
000480t:  Note on ::  Channel 0.  Note 65.  Velocity 0
000000t:  Note on ::  Channel 0.  Note 67.  Velocity 100
000000t:  Meta-event type $05 (Lyric) of length 3
	  of 
000480t:  Note on ::  Channel 0.  Note 67.  Velocity 0
000000t:  Note on ::  Channel 0.  Note 69.  Velocity 100
000000t:  Meta-event type $05 (Lyric) of length 4
	  all 
000480t:  Note on ::  Channel 0.  Note 69.  Velocity 0
000000t:  Note on ::  Channel 0.  Note 69.  Velocity 100
000000t:  Meta-event type $05 (Lyric) of length 4
	  the 
000480t:  Note on ::  Channel 0.  Note 69.  Velocity 0
000000t:  Note on ::  Channel 0.  Note 67.  Velocity 100
000000t:  Meta-event type $05 (Lyric) of length 7
	  things 
000480t:  Note on ::  Channel 0.  Note 67.  Velocity 0
000000t:  Note on ::  Channel 0.  Note 65.  Velocity 100
000000t:  Meta-event type $05 (Lyric) of length 3
	  we 
000480t:  Note on ::  Channel 0.  Note 65.  Velocity 0
000000t:  Note on ::  Channel 0.  Note 65.  Velocity 100
000000t:  Meta-event type $05 (Lyric) of length 8
	  learned 
000960t:  Note on ::  Channel 0.  Note 65.  Velocity 0
000000t:  Note on ::  Channel 0.  Note 62.  Velocity 100
000000t:  Meta-event type $05 (Lyric) of length 4
	  for 
000480t:  Note on ::  Channel 0.  Note 62.  Velocity 0
000000t:  Note on ::  Channel 0.  Note 60.  Velocity 100
000000t:  Meta-event type $05 (Lyric) of length 4
	  the 
000480t:  Note on ::  Channel 0.  Note 60.  Velocity 0
000000t:  Note on ::  Channel 0.  Note 62.  Velocity 100
000000t:  Meta-event type $05 (Lyric) of length 3
	  peo
000480t:  Note on ::  Channel 0.  Note 62.  Velocity 0
000000t:  Note on ::  Channel 0.  Note 65.  Velocity 100
000000t:  Meta-event type $05 (Lyric) of length 4
	  ple 
000480t:  Note on ::  Channel 0.  Note 65.  Velocity 0
000000t:  Note on ::  Channel 0.  Note 65.  Velocity 100
000000t:  Meta-event type $05 (Lyric) of length 4
	  who 
000480t:  Note on ::  Channel 0.  Note 65.  Velocity 0
000000t:  Note on ::  Channel 0.  Note 64.  Velocity 100
000000t:  Meta-event type $05 (Lyric) of length 4
	  are 
000960t:  Note on ::  Channel 0.  Note 64.  Velocity 0
000000t:  Note on ::  Channel 0.  Note 64.  Velocity 100
000000t:  Meta-event type $05 (Lyric) of length 6
	  still 
000480t:  Note on ::  Channel 0.  Note 64.  Velocity 0
000000t:  Note on ::  Channel 0.  Note 66.  Velocity 100
000000t:  Meta-event type $05 (Lyric) of length 7
	  alive. 
000480t:  Note on ::  Channel 0.  Note 66.  Velocity 0
000000t:  Note on ::  Channel 0.  Note 66.  Velocity 100
002400t:  Note on ::  Channel 0.  Note 66.  Velocity 0
011520t:  Note on ::  Channel 0.  Note 67.  Velocity 100
000000t:  Meta-event type $05 (Lyric) of length 3
	  Go 
000480t:  Note on ::  Channel 0.  Note 67.  Velocity 0
000000t:  Note on ::  Channel 0.  Note 66.  Velocity 100
000000t:  Meta-event type $05 (Lyric) of length 6
	  ahead 
000480t:  Note on ::  Channel 0.  Note 66.  Velocity 0
000000t:  Note on ::  Channel 0.  Note 64.  Velocity 100
000000t:  Meta-event type $05 (Lyric) of length 4
	  and 
000480t:  Note on ::  Channel 0.  Note 64.  Velocity 0
000000t:  Note on ::  Channel 0.  Note 64.  Velocity 100
000000t:  Meta-event type $05 (Lyric) of length 6
	  leave 
000960t:  Note on ::  Channel 0.  Note 64.  Velocity 0
000000t:  Note on ::  Channel 0.  Note 66.  Velocity 100
000000t:  Meta-event type $05 (Lyric) of length 4
	  me. 
001440t:  Note on ::  Channel 0.  Note 66.  Velocity 0
003360t:  Note on ::  Channel 0.  Note 57.  Velocity 100
000000t:  Meta-event type $05 (Lyric) of length 2
	  I 
000480t:  Note on ::  Channel 0.  Note 57.  Velocity 0
000000t:  Note on ::  Channel 0.  Note 67.  Velocity 100
000000t:  Meta-event type $05 (Lyric) of length 6
	  think 
000480t:  Note on ::  Channel 0.  Note 67.  Velocity 0
000000t:  Note on ::  Channel 0.  Note 66.  Velocity 100
000000t:  Meta-event type $05 (Lyric) of length 2
	  I 
000480t:  Note on ::  Channel 0.  Note 66.  Velocity 0
000000t:  Note on ::  Channel 0.  Note 64.  Velocity 100
000000t:  Meta-event type $05 (Lyric) of length 3
	  pre
000480t:  Note on ::  Channel 0.  Note 64.  Velocity 0
000000t:  Note on ::  Channel 0.  Note 64.  Velocity 100
000000t:  Meta-event type $05 (Lyric) of length 4
	  fer 
001440t:  Note on ::  Channel 0.  Note 64.  Velocity 0
000000t:  Note on ::  Channel 0.  Note 66.  Velocity 100
000000t:  Meta-event type $05 (Lyric) of length 3
	  to 
000480t:  Note on ::  Channel 0.  Note 66.  Velocity 0
000000t:  Note on ::  Channel 0.  Note 62.  Velocity 100
000000t:  Meta-event type $05 (Lyric) of length 5
	  stay 
001440t:  Note on ::  Channel 0.  Note 62.  Velocity 0
000000t:  Note on ::  Channel 0.  Note 64.  Velocity 100
000000t:  Meta-event type $05 (Lyric) of length 2
	  in
000480t:  Note on ::  Channel 0.  Note 64.  Velocity 0
000000t:  Note on ::  Channel 0.  Note 57.  Velocity 100
000000t:  Meta-event type $05 (Lyric) of length 6
	  side. 
002400t:  Note on ::  Channel 0.  Note 57.  Velocity 0
001920t:  Note on ::  Channel 0.  Note 64.  Velocity 100
000000t:  Meta-event type $05 (Lyric) of length 3
	  May
000960t:  Note on ::  Channel 0.  Note 64.  Velocity 0
000000t:  Note on ::  Channel 0.  Note 66.  Velocity 100
000000t:  Meta-event type $05 (Lyric) of length 3
	  be 
000480t:  Note on ::  Channel 0.  Note 66.  Velocity 0
000000t:  Note on ::  Channel 0.  Note 67.  Velocity 100
000000t:  Meta-event type $05 (Lyric) of length 7
	  you'll 
001440t:  Note on ::  Channel 0.  Note 67.  Velocity 0
000000t:  Note on ::  Channel 0.  Note 64.  Velocity 100
000000t:  Meta-event type $05 (Lyric) of length 5
	  find 
000960t:  Note on ::  Channel 0.  Note 64.  Velocity 0
000000t:  Note on ::  Channel 0.  Note 61.  Velocity 100
000000t:  Meta-event type $05 (Lyric) of length 4
	  some
000960t:  Note on ::  Channel 0.  Note 61.  Velocity 0
000000t:  Note on ::  Channel 0.  Note 62.  Velocity 100
000000t:  Meta-event type $05 (Lyric) of length 4
	  one 
000480t:  Note on ::  Channel 0.  Note 62.  Velocity 0
000000t:  Note on ::  Channel 0.  Note 64.  Velocity 100
000000t:  Meta-event type $05 (Lyric) of length 5
	  else 
000960t:  Note on ::  Channel 0.  Note 64.  Velocity 0
000480t:  Note on ::  Channel 0.  Note 57.  Velocity 100
000000t:  Meta-event type $05 (Lyric) of length 3
	  to 
000480t:  Note on ::  Channel 0.  Note 57.  Velocity 0
000000t:  Note on ::  Channel 0.  Note 57.  Velocity 100
000000t:  Meta-event type $05 (Lyric) of length 5
	  help 
000960t:  Note on ::  Channel 0.  Note 57.  Velocity 0
000000t:  Note on ::  Channel 0.  Note 66.  Velocity 100
000000t:  Meta-event type $05 (Lyric) of length 5
	  you. 
002400t:  Note on ::  Channel 0.  Note 66.  Velocity 0
002889t:  Note on ::  Channel 0.  Note 67.  Velocity 100
000000t:  Note on ::  Channel 0.  Note 71.  Velocity 100
000000t:  Meta-event type $05 (Lyric) of length 3
	  May
000480t:  Note on ::  Channel 0.  Note 71.  Velocity 0
000000t:  Note on ::  Channel 0.  Note 67.  Velocity 0
000000t:  Note on ::  Channel 0.  Note 66.  Velocity 100
000000t:  Note on ::  Channel 0.  Note 69.  Velocity 100
000000t:  Meta-event type $05 (Lyric) of length 3
	  be 
000480t:  Note on ::  Channel 0.  Note 69.  Velocity 0
000000t:  Note on ::  Channel 0.  Note 66.  Velocity 0
000000t:  Note on ::  Channel 0.  Note 64.  Velocity 100
000000t:  Note on ::  Channel 0.  Note 67.  Velocity 100
000000t:  Meta-event type $05 (Lyric) of length 6
	  Black 
000480t:  Note on ::  Channel 0.  Note 67.  Velocity 0
000000t:  Note on ::  Channel 0.  Note 64.  Velocity 0
000000t:  Note on ::  Channel 0.  Note 64.  Velocity 100
000000t:  Note on ::  Channel 0.  Note 67.  Velocity 100
000000t:  Meta-event type $05 (Lyric) of length 2
	  Me
000951t:  Note on ::  Channel 0.  Note 67.  Velocity 0
000000t:  Note on ::  Channel 0.  Note 64.  Velocity 0
000000t:  Note on ::  Channel 0.  Note 69.  Velocity 100
000000t:  Note on ::  Channel 0.  Note 66.  Velocity 100
000000t:  Meta-event type $05 (Lyric) of length 4
	  sa. 
000960t:  Note on ::  Channel 0.  Note 66.  Velocity 0
000000t:  Note on ::  Channel 0.  Note 69.  Velocity 0
004329t:  Note on ::  Channel 0.  Note 67.  Velocity 100
000000t:  Note on ::  Channel 0.  Note 71.  Velocity 100
000000t:  Meta-event type $05 (Lyric) of length 5
	  THAT 
000480t:  Note on ::  Channel 0.  Note 71.  Velocity 0
000000t:  Note on ::  Channel 0.  Note 67.  Velocity 0
000000t:  Note on ::  Channel 0.  Note 69.  Velocity 100
000000t:  Note on ::  Channel 0.  Note 66.  Velocity 100
000000t:  Meta-event type $05 (Lyric) of length 4
	  WAS 
000480t:  Note on ::  Channel 0.  Note 66.  Velocity 0
000000t:  Note on ::  Channel 0.  Note 69.  Velocity 0
000000t:  Note on ::  Channel 0.  Note 64.  Velocity 100
000000t:  Note on ::  Channel 0.  Note 67.  Velocity 100
000000t:  Meta-event type $05 (Lyric) of length 2
	  A 
000480t:  Note on ::  Channel 0.  Note 67.  Velocity 0
000000t:  Note on ::  Channel 0.  Note 64.  Velocity 0
000000t:  Note on ::  Channel 0.  Note 67.  Velocity 100
000000t:  Note on ::  Channel 0.  Note 64.  Velocity 100
000000t:  Meta-event type $05 (Lyric) of length 6
	  JOKE. 
001440t:  Note on ::  Channel 0.  Note 64.  Velocity 0
000000t:  Note on ::  Channel 0.  Note 67.  Velocity 0
000000t:  Note on ::  Channel 0.  Note 69.  Velocity 100
000000t:  Note on ::  Channel 0.  Note 66.  Velocity 100
000000t:  Meta-event type $05 (Lyric) of length 3
	  HA 
000480t:  Note on ::  Channel 0.  Note 66.  Velocity 0
000000t:  Note on ::  Channel 0.  Note 69.  Velocity 0
000000t:  Note on ::  Channel 0.  Note 66.  Velocity 100
000000t:  Note on ::  Channel 0.  Note 62.  Velocity 100
000000t:  Meta-event type $05 (Lyric) of length 4
	  HA. 
001440t:  Note on ::  Channel 0.  Note 62.  Velocity 0
000000t:  Note on ::  Channel 0.  Note 66.  Velocity 0
000000t:  Note on ::  Channel 0.  Note 67.  Velocity 100
000000t:  Note on ::  Channel 0.  Note 64.  Velocity 100
000000t:  Meta-event type $05 (Lyric) of length 4
	  FAT 
000480t:  Note on ::  Channel 0.  Note 64.  Velocity 0
000000t:  Note on ::  Channel 0.  Note 67.  Velocity 0
000000t:  Note on ::  Channel 0.  Note 62.  Velocity 100
000000t:  Note on ::  Channel 0.  Note 57.  Velocity 100
000000t:  Meta-event type $05 (Lyric) of length 8
	  CHANCE. 
001440t:  Note on ::  Channel 0.  Note 57.  Velocity 0
000000t:  Note on ::  Channel 0.  Note 62.  Velocity 0
002880t:  Note on ::  Channel 0.  Note 64.  Velocity 100
000000t:  Meta-event type $05 (Lyric) of length 1
	  A
000960t:  Note on ::  Channel 0.  Note 64.  Velocity 0
000000t:  Note on ::  Channel 0.  Note 66.  Velocity 100
000000t:  Meta-event type $05 (Lyric) of length 2
	  ny
000480t:  Note on ::  Channel 0.  Note 66.  Velocity 0
000000t:  Note on ::  Channel 0.  Note 67.  Velocity 100
000000t:  Meta-event type $05 (Lyric) of length 5
	  way, 
001440t:  Note on ::  Channel 0.  Note 67.  Velocity 0
000000t:  Note on ::  Channel 0.  Note 64.  Velocity 100
000000t:  Meta-event type $05 (Lyric) of length 5
	  this 
000960t:  Note on ::  Channel 0.  Note 64.  Velocity 0
000000t:  Note on ::  Channel 0.  Note 61.  Velocity 100
000000t:  Meta-event type $05 (Lyric) of length 5
	  cake 
000960t:  Note on ::  Channel 0.  Note 61.  Velocity 0
000000t:  Note on ::  Channel 0.  Note 62.  Velocity 100
000000t:  Meta-event type $05 (Lyric) of length 3
	  is 
000480t:  Note on ::  Channel 0.  Note 62.  Velocity 0
000000t:  Note on ::  Channel 0.  Note 64.  Velocity 100
000000t:  Meta-event type $05 (Lyric) of length 7
	  great! 
000960t:  Note on ::  Channel 0.  Note 64.  Velocity 0
000000t:  Note on ::  Channel 0.  Note 57.  Velocity 100
000000t:  Meta-event type $05 (Lyric) of length 5
	  It's 
000480t:  Note on ::  Channel 0.  Note 57.  Velocity 0
000000t:  Note on ::  Channel 0.  Note 62.  Velocity 100
000000t:  Meta-event type $05 (Lyric) of length 3
	  so 
000480t:  Note on ::  Channel 0.  Note 62.  Velocity 0
000000t:  Note on ::  Channel 0.  Note 64.  Velocity 100
000000t:  Meta-event type $05 (Lyric) of length 2
	  de
000480t:  Note on ::  Channel 0.  Note 64.  Velocity 0
000000t:  Note on ::  Channel 0.  Note 65.  Velocity 100
000000t:  Meta-event type $05 (Lyric) of length 2
	  li
000480t:  Note on ::  Channel 0.  Note 65.  Velocity 0
000000t:  Note on ::  Channel 0.  Note 64.  Velocity 100
000000t:  Meta-event type $05 (Lyric) of length 6
	  cious 
000480t:  Note on ::  Channel 0.  Note 64.  Velocity 0
000000t:  Note on ::  Channel 0.  Note 62.  Velocity 100
000000t:  Meta-event type $05 (Lyric) of length 4
	  and 
000480t:  Note on ::  Channel 0.  Note 62.  Velocity 0
000000t:  Note on ::  Channel 0.  Note 60.  Velocity 100
000000t:  Meta-event type $05 (Lyric) of length 7
	  moist. 
001440t:  Note on ::  Channel 0.  Note 60.  Velocity 0
000000t:  Note on ::  Channel 0.  Note 57.  Velocity 100
000000t:  Meta-event type $05 (Lyric) of length 5
	  Look 
000480t:  Note on ::  Channel 0.  Note 57.  Velocity 0
000000t:  Note on ::  Channel 0.  Note 58.  Velocity 100
000000t:  Meta-event type $05 (Lyric) of length 3
	  at 
000480t:  Note on ::  Channel 0.  Note 58.  Velocity 0
000000t:  Note on ::  Channel 0.  Note 60.  Velocity 100
000000t:  Meta-event type $05 (Lyric) of length 3
	  me 
000960t:  Note on ::  Channel 0.  Note 60.  Velocity 0
000000t:  Note on ::  Channel 0.  Note 65.  Velocity 100
000000t:  Meta-event type $05 (Lyric) of length 6
	  still 
000960t:  Note on ::  Channel 0.  Note 65.  Velocity 0
000000t:  Note on ::  Channel 0.  Note 64.  Velocity 100
000000t:  Meta-event type $05 (Lyric) of length 4
	  talk
000480t:  Note on ::  Channel 0.  Note 64.  Velocity 0
000000t:  Note on ::  Channel 0.  Note 62.  Velocity 100
000000t:  Meta-event type $05 (Lyric) of length 5
	  king 
000480t:  Note on ::  Channel 0.  Note 62.  Velocity 0
000000t:  Note on ::  Channel 0.  Note 62.  Velocity 100
000000t:  Meta-event type $05 (Lyric) of length 5
	  when 
000480t:  Note on ::  Channel 0.  Note 62.  Velocity 0
000000t:  Note on ::  Channel 0.  Note 60.  Velocity 100
000000t:  Meta-event type $05 (Lyric) of length 8
	  there's 
000480t:  Note on ::  Channel 0.  Note 60.  Velocity 0
000000t:  Note on ::  Channel 0.  Note 62.  Velocity 100
000000t:  Meta-event type $05 (Lyric) of length 3
	  Sci
000480t:  Note on ::  Channel 0.  Note 62.  Velocity 0
000000t:  Note on ::  Channel 0.  Note 60.  Velocity 100
000000t:  Meta-event type $05 (Lyric) of length 5
	  ence 
000480t:  Note on ::  Channel 0.  Note 60.  Velocity 0
000000t:  Note on ::  Channel 0.  Note 60.  Velocity 100
000000t:  Meta-event type $05 (Lyric) of length 3
	  to 
000960t:  Note on ::  Channel 0.  Note 60.  Velocity 0
000000t:  Note on ::  Channel 0.  Note 60.  Velocity 100
000000t:  Meta-event type $05 (Lyric) of length 4
	  do. 
000960t:  Note on ::  Channel 0.  Note 60.  Velocity 0
000000t:  Note on ::  Channel 0.  Note 57.  Velocity 100
000000t:  Meta-event type $05 (Lyric) of length 5
	  When 
000480t:  Note on ::  Channel 0.  Note 57.  Velocity 0
000000t:  Note on ::  Channel 0.  Note 58.  Velocity 100
000000t:  Meta-event type $05 (Lyric) of length 2
	  I 
000480t:  Note on ::  Channel 0.  Note 58.  Velocity 0
000000t:  Note on ::  Channel 0.  Note 60.  Velocity 100
000000t:  Meta-event type $05 (Lyric) of length 5
	  look 
000960t:  Note on ::  Channel 0.  Note 60.  Velocity 0
000000t:  Note on ::  Channel 0.  Note 65.  Velocity 100
000000t:  Meta-event type $05 (Lyric) of length 4
	  out 
000960t:  Note on ::  Channel 0.  Note 65.  Velocity 0
000000t:  Note on ::  Channel 0.  Note 67.  Velocity 100
000000t:  Meta-event type $05 (Lyric) of length 6
	  there 
000480t:  Note on ::  Channel 0.  Note 67.  Velocity 0
000000t:  Note on ::  Channel 0.  Note 65.  Velocity 100
000000t:  Meta-event type $05 (Lyric) of length 3
	  it 
000480t:  Note on ::  Channel 0.  Note 65.  Velocity 0
000000t:  Note on ::  Channel 0.  Note 64.  Velocity 100
000000t:  Meta-event type $05 (Lyric) of length 6
	  makes 
000480t:  Note on ::  Channel 0.  Note 64.  Velocity 0
000000t:  Note on ::  Channel 0.  Note 62.  Velocity 100
000000t:  Meta-event type $05 (Lyric) of length 3
	  me 
000480t:  Note on ::  Channel 0.  Note 62.  Velocity 0
000000t:  Note on ::  Channel 0.  Note 62.  Velocity 100
000000t:  Meta-event type $05 (Lyric) of length 6
	  GLaD; 
000480t:  Note on ::  Channel 0.  Note 62.  Velocity 0
000000t:  Note on ::  Channel 0.  Note 64.  Velocity 100
000000t:  Meta-event type $05 (Lyric) of length 4
	  I'm 
000480t:  Note on ::  Channel 0.  Note 64.  Velocity 0
000000t:  Note on ::  Channel 0.  Note 65.  Velocity 100
000000t:  Meta-event type $05 (Lyric) of length 4
	  not 
000960t:  Note on ::  Channel 0.  Note 65.  Velocity 0
000000t:  Note on ::  Channel 0.  Note 65.  Velocity 100
000000t:  Meta-event type $05 (Lyric) of length 5
	  you. 
000960t:  Note on ::  Channel 0.  Note 65.  Velocity 0
000000t:  Note on ::  Channel 0.  Note 67.  Velocity 100
000000t:  Meta-event type $05 (Lyric) of length 5
	  I've 
000480t:  Note on ::  Channel 0.  Note 67.  Velocity 0
000000t:  Note on ::  Channel 0.  Note 69.  Velocity 100
000000t:  Meta-event type $05 (Lyric) of length 2
	  ex
000480t:  Note on ::  Channel 0.  Note 69.  Velocity 0
000000t:  Note on ::  Channel 0.  Note 70.  Velocity 100
000000t:  Meta-event type $05 (Lyric) of length 3
	  per
000480t:  Note on ::  Channel 0.  Note 70.  Velocity 0
000000t:  Note on ::  Channel 0.  Note 70.  Velocity 100
000000t:  Meta-event type $05 (Lyric) of length 1
	  i
000480t:  Note on ::  Channel 0.  Note 70.  Velocity 0
000000t:  Note on ::  Channel 0.  Note 69.  Velocity 100
000000t:  Meta-event type $05 (Lyric) of length 6
	  ments 
000471t:  Note on ::  Channel 0.  Note 69.  Velocity 0
000000t:  Note on ::  Channel 0.  Note 67.  Velocity 100
000000t:  Meta-event type $05 (Lyric) of length 3
	  to 
000471t:  Note on ::  Channel 0.  Note 67.  Velocity 0
000018t:  Note on ::  Channel 0.  Note 67.  Velocity 100
000000t:  Meta-event type $05 (Lyric) of length 5
	  run; 
000960t:  Note on ::  Channel 0.  Note 67.  Velocity 0
000000t:  Note on ::  Channel 0.  Note 65.  Velocity 100
000000t:  Meta-event type $05 (Lyric) of length 6
	  there 
000480t:  Note on ::  Channel 0.  Note 65.  Velocity 0
000000t:  Note on ::  Channel 0.  Note 67.  Velocity 100
000000t:  Meta-event type $05 (Lyric) of length 3
	  is 
000480t:  Note on ::  Channel 0.  Note 67.  Velocity 0
000000t:  Note on ::  Channel 0.  Note 69.  Velocity 100
000000t:  Meta-event type $05 (Lyric) of length 2
	  re
000480t:  Note on ::  Channel 0.  Note 69.  Velocity 0
000000t:  Note on ::  Channel 0.  Note 69.  Velocity 100
000000t:  Meta-event type $05 (Lyric) of length 7
	  search 
000480t:  Note on ::  Channel 0.  Note 69.  Velocity 0
000000t:  Note on ::  Channel 0.  Note 67.  Velocity 100
000000t:  Meta-event type $05 (Lyric) of length 3
	  to 
000480t:  Note on ::  Channel 0.  Note 67.  Velocity 0
000000t:  Note on ::  Channel 0.  Note 65.  Velocity 100
000000t:  Meta-event type $05 (Lyric) of length 3
	  be 
000480t:  Note on ::  Channel 0.  Note 65.  Velocity 0
000000t:  Note on ::  Channel 0.  Note 65.  Velocity 100
000000t:  Meta-event type $05 (Lyric) of length 5
	  done 
000960t:  Note on ::  Channel 0.  Note 65.  Velocity 0
000000t:  Note on ::  Channel 0.  Note 62.  Velocity 100
000000t:  Meta-event type $05 (Lyric) of length 3
	  on 
000480t:  Note on ::  Channel 0.  Note 62.  Velocity 0
000000t:  Note on ::  Channel 0.  Note 60.  Velocity 100
000000t:  Meta-event type $05 (Lyric) of length 4
	  the 
000480t:  Note on ::  Channel 0.  Note 60.  Velocity 0
000000t:  Note on ::  Channel 0.  Note 62.  Velocity 100
000000t:  Meta-event type $05 (Lyric) of length 3
	  peo
000480t:  Note on ::  Channel 0.  Note 62.  Velocity 0
000000t:  Note on ::  Channel 0.  Note 65.  Velocity 100
000000t:  Meta-event type $05 (Lyric) of length 4
	  ple 
000480t:  Note on ::  Channel 0.  Note 65.  Velocity 0
000000t:  Note on ::  Channel 0.  Note 65.  Velocity 100
000000t:  Meta-event type $05 (Lyric) of length 4
	  who 
000480t:  Note on ::  Channel 0.  Note 65.  Velocity 0
000000t:  Note on ::  Channel 0.  Note 64.  Velocity 100
000000t:  Meta-event type $05 (Lyric) of length 4
	  are 
000960t:  Note on ::  Channel 0.  Note 64.  Velocity 0
000000t:  Note on ::  Channel 0.  Note 64.  Velocity 100
000000t:  Meta-event type $05 (Lyric) of length 6
	  still 
000480t:  Note on ::  Channel 0.  Note 64.  Velocity 0
000000t:  Note on ::  Channel 0.  Note 66.  Velocity 100
000000t:  Meta-event type $05 (Lyric) of length 1
	  a
000480t:  Note on ::  Channel 0.  Note 66.  Velocity 0
000000t:  Note on ::  Channel 0.  Note 66.  Velocity 100
000000t:  Meta-event type $05 (Lyric) of length 6
	  live. 
002400t:  Note on ::  Channel 0.  Note 66.  Velocity 0
000951t:  Note on ::  Channel 0.  Note 69.  Velocity 100
000000t:  Meta-event type $05 (Lyric) of length 4
	  And 
000471t:  Note on ::  Channel 0.  Note 69.  Velocity 0
000009t:  Note on ::  Channel 0.  Note 69.  Velocity 100
000000t:  Meta-event type $05 (Lyric) of length 2
	  be
000471t:  Note on ::  Channel 0.  Note 69.  Velocity 0
000009t:  Note on ::  Channel 0.  Note 71.  Velocity 100
000000t:  Meta-event type $05 (Lyric) of length 6
	  lieve 
000471t:  Note on ::  Channel 0.  Note 71.  Velocity 0
000009t:  Note on ::  Channel 0.  Note 69.  Velocity 100
000000t:  Meta-event type $05 (Lyric) of length 4
	  me, 
000471t:  Note on ::  Channel 0.  Note 69.  Velocity 0
000009t:  Note on ::  Channel 0.  Note 66.  Velocity 100
000000t:  Meta-event type $05 (Lyric) of length 2
	  I 
000471t:  Note on ::  Channel 0.  Note 66.  Velocity 0
000009t:  Note on ::  Channel 0.  Note 62.  Velocity 100
000000t:  Meta-event type $05 (Lyric) of length 3
	  am 
000960t:  Note on ::  Channel 0.  Note 62.  Velocity 0
000000t:  Note on ::  Channel 0.  Note 64.  Velocity 100
000000t:  Meta-event type $05 (Lyric) of length 6
	  still 
000480t:  Note on ::  Channel 0.  Note 64.  Velocity 0
000000t:  Note on ::  Channel 0.  Note 66.  Velocity 100
000000t:  Meta-event type $05 (Lyric) of length 1
	  a
000480t:  Note on ::  Channel 0.  Note 66.  Velocity 0
000000t:  Note on ::  Channel 0.  Note 66.  Velocity 100
000000t:  Note on ::  Channel 0.  Note 69.  Velocity 100
000000t:  Meta-event type $05 (Lyric) of length 6
	  live. 
001440t:  Note on ::  Channel 0.  Note 69.  Velocity 0
000000t:  Note on ::  Channel 0.  Note 66.  Velocity 0
001440t:  Note on ::  Channel 0.  Note 69.  Velocity 100
000000t:  Meta-event type $05 (Lyric) of length 4
	  I'm 
000480t:  Note on ::  Channel 0.  Note 69.  Velocity 0
000000t:  Note on ::  Channel 0.  Note 69.  Velocity 100
000000t:  Meta-event type $05 (Lyric) of length 2
	  do
000480t:  Note on ::  Channel 0.  Note 69.  Velocity 0
000000t:  Note on ::  Channel 0.  Note 69.  Velocity 100
000000t:  Meta-event type $05 (Lyric) of length 4
	  ing 
000480t:  Note on ::  Channel 0.  Note 69.  Velocity 0
000000t:  Note on ::  Channel 0.  Note 71.  Velocity 100
000000t:  Meta-event type $05 (Lyric) of length 3
	  Sci
000480t:  Note on ::  Channel 0.  Note 71.  Velocity 0
000000t:  Note on ::  Channel 0.  Note 69.  Velocity 100
000000t:  Meta-event type $05 (Lyric) of length 5
	  ence 
000480t:  Note on ::  Channel 0.  Note 69.  Velocity 0
000000t:  Note on ::  Channel 0.  Note 66.  Velocity 100
000000t:  Meta-event type $05 (Lyric) of length 4
	  and 
000480t:  Note on ::  Channel 0.  Note 66.  Velocity 0
000000t:  Note on ::  Channel 0.  Note 62.  Velocity 100
000000t:  Meta-event type $05 (Lyric) of length 4
	  I'm 
000960t:  Note on ::  Channel 0.  Note 62.  Velocity 0
000000t:  Note on ::  Channel 0.  Note 67.  Velocity 100
000000t:  Note on ::  Channel 0.  Note 64.  Velocity 100
000000t:  Meta-event type $05 (Lyric) of length 6
	  still 
000480t:  Note on ::  Channel 0.  Note 64.  Velocity 0
000000t:  Note on ::  Channel 0.  Note 67.  Velocity 0
000000t:  Note on ::  Channel 0.  Note 69.  Velocity 100
000000t:  Note on ::  Channel 0.  Note 66.  Velocity 100
000000t:  Meta-event type $05 (Lyric) of length 1
	  a
000480t:  Note on ::  Channel 0.  Note 66.  Velocity 0
000000t:  Note on ::  Channel 0.  Note 69.  Velocity 0
000000t:  Note on ::  Channel 0.  Note 69.  Velocity 100
000000t:  Note on ::  Channel 0.  Note 66.  Velocity 100
000000t:  Meta-event type $05 (Lyric) of length 6
	  live. 
001440t:  Note on ::  Channel 0.  Note 66.  Velocity 0
000000t:  Note on ::  Channel 0.  Note 69.  Velocity 0
001440t:  Note on ::  Channel 0.  Note 69.  Velocity 100
000000t:  Meta-event type $05 (Lyric) of length 2
	  I 
000480t:  Note on ::  Channel 0.  Note 69.  Velocity 0
000000t:  Note on ::  Channel 0.  Note 69.  Velocity 100
000000t:  Meta-event type $05 (Lyric) of length 5
	  feel 
000480t:  Note on ::  Channel 0.  Note 69.  Velocity 0
000000t:  Note on ::  Channel 0.  Note 69.  Velocity 100
000000t:  Meta-event type $05 (Lyric) of length 3
	  fan
000480t:  Note on ::  Channel 0.  Note 69.  Velocity 0
000000t:  Note on ::  Channel 0.  Note 71.  Velocity 100
000000t:  Meta-event type $05 (Lyric) of length 3
	  tas
000480t:  Note on ::  Channel 0.  Note 71.  Velocity 0
000000t:  Note on ::  Channel 0.  Note 69.  Velocity 100
000000t:  Meta-event type $05 (Lyric) of length 4
	  tic 
000480t:  Note on ::  Channel 0.  Note 69.  Velocity 0
000000t:  Note on ::  Channel 0.  Note 66.  Velocity 100
000000t:  Meta-event type $05 (Lyric) of length 4
	  and 
000480t:  Note on ::  Channel 0.  Note 66.  Velocity 0
000000t:  Note on ::  Channel 0.  Note 62.  Velocity 100
000000t:  Meta-event type $05 (Lyric) of length 4
	  I'm 
000960t:  Note on ::  Channel 0.  Note 62.  Velocity 0
000000t:  Note on ::  Channel 0.  Note 67.  Velocity 100
000000t:  Note on ::  Channel 0.  Note 64.  Velocity 100
000000t:  Meta-event type $05 (Lyric) of length 6
	  still 
000480t:  Note on ::  Channel 0.  Note 64.  Velocity 0
000000t:  Note on ::  Channel 0.  Note 67.  Velocity 0
000000t:  Note on ::  Channel 0.  Note 69.  Velocity 100
000000t:  Note on ::  Channel 0.  Note 66.  Velocity 100
000000t:  Meta-event type $05 (Lyric) of length 1
	  a
000480t:  Note on ::  Channel 0.  Note 66.  Velocity 0
000000t:  Note on ::  Channel 0.  Note 69.  Velocity 0
000000t:  Note on ::  Channel 0.  Note 69.  Velocity 100
000000t:  Note on ::  Channel 0.  Note 66.  Velocity 100
000000t:  Meta-event type $05 (Lyric) of length 6
	  live. 
001440t:  Note on ::  Channel 0.  Note 66.  Velocity 0
000000t:  Note on ::  Channel 0.  Note 69.  Velocity 0
001920t:  Note on ::  Channel 0.  Note 69.  Velocity 100
000000t:  Meta-event type $05 (Lyric) of length 6
	  While 
000480t:  Note on ::  Channel 0.  Note 69.  Velocity 0
000000t:  Note on ::  Channel 0.  Note 69.  Velocity 100
000000t:  Meta-event type $05 (Lyric) of length 7
	  you're 
000480t:  Note on ::  Channel 0.  Note 69.  Velocity 0
000000t:  Note on ::  Channel 0.  Note 71.  Velocity 100
000000t:  Meta-event type $05 (Lyric) of length 2
	  dy
000480t:  Note on ::  Channel 0.  Note 71.  Velocity 0
000000t:  Note on ::  Channel 0.  Note 69.  Velocity 100
000000t:  Meta-event type $05 (Lyric) of length 4
	  ing 
000480t:  Note on ::  Channel 0.  Note 69.  Velocity 0
000000t:  Note on ::  Channel 0.  Note 66.  Velocity 100
000000t:  Meta-event type $05 (Lyric) of length 5
	  I'll 
000480t:  Note on ::  Channel 0.  Note 66.  Velocity 0
000000t:  Note on ::  Channel 0.  Note 62.  Velocity 100
000000t:  Meta-event type $05 (Lyric) of length 3
	  be 
000960t:  Note on ::  Channel 0.  Note 62.  Velocity 0
000000t:  Note on ::  Channel 0.  Note 67.  Velocity 100
000000t:  Note on ::  Channel 0.  Note 64.  Velocity 100
000000t:  Meta-event type $05 (Lyric) of length 6
	  still 
000480t:  Note on ::  Channel 0.  Note 64.  Velocity 0
000000t:  Note on ::  Channel 0.  Note 67.  Velocity 0
000000t:  Note on ::  Channel 0.  Note 66.  Velocity 100
000000t:  Note on ::  Channel 0.  Note 69.  Velocity 100
000000t:  Meta-event type $05 (Lyric) of length 1
	  a
000480t:  Note on ::  Channel 0.  Note 69.  Velocity 0
000000t:  Note on ::  Channel 0.  Note 66.  Velocity 0
000000t:  Note on ::  Channel 0.  Note 69.  Velocity 100
000000t:  Note on ::  Channel 0.  Note 66.  Velocity 100
000000t:  Meta-event type $05 (Lyric) of length 6
	  live, 
001440t:  Note on ::  Channel 0.  Note 66.  Velocity 0
000000t:  Note on ::  Channel 0.  Note 69.  Velocity 0
001440t:  Note on ::  Channel 0.  Note 69.  Velocity 100
000000t:  Meta-event type $05 (Lyric) of length 4
	  and 
000480t:  Note on ::  Channel 0.  Note 69.  Velocity 0
000000t:  Note on ::  Channel 0.  Note 69.  Velocity 100
000000t:  Meta-event type $05 (Lyric) of length 5
	  when 
000480t:  Note on ::  Channel 0.  Note 69.  Velocity 0
000000t:  Note on ::  Channel 0.  Note 69.  Velocity 100
000000t:  Meta-event type $05 (Lyric) of length 7
	  you're 
000480t:  Note on ::  Channel 0.  Note 69.  Velocity 0
000000t:  Note on ::  Channel 0.  Note 71.  Velocity 100
000000t:  Meta-event type $05 (Lyric) of length 5
	  dead 
000480t:  Note on ::  Channel 0.  Note 71.  Velocity 0
000000t:  Note on ::  Channel 0.  Note 69.  Velocity 100
000000t:  Meta-event type $05 (Lyric) of length 2
	  I 
000480t:  Note on ::  Channel 0.  Note 69.  Velocity 0
000000t:  Note on ::  Channel 0.  Note 66.  Velocity 100
000000t:  Meta-event type $05 (Lyric) of length 5
	  will 
000480t:  Note on ::  Channel 0.  Note 66.  Velocity 0
000000t:  Note on ::  Channel 0.  Note 62.  Velocity 100
000000t:  Meta-event type $05 (Lyric) of length 3
	  be 
000960t:  Note on ::  Channel 0.  Note 62.  Velocity 0
000000t:  Note on ::  Channel 0.  Note 64.  Velocity 100
000000t:  Note on ::  Channel 0.  Note 67.  Velocity 100
000000t:  Meta-event type $05 (Lyric) of length 6
	  still 
000480t:  Note on ::  Channel 0.  Note 67.  Velocity 0
000000t:  Note on ::  Channel 0.  Note 64.  Velocity 0
000000t:  Note on ::  Channel 0.  Note 69.  Velocity 100
000000t:  Note on ::  Channel 0.  Note 66.  Velocity 100
000000t:  Meta-event type $05 (Lyric) of length 1
	  a
000480t:  Note on ::  Channel 0.  Note 66.  Velocity 0
000000t:  Note on ::  Channel 0.  Note 69.  Velocity 0
000000t:  Note on ::  Channel 0.  Note 69.  Velocity 100
000000t:  Note on ::  Channel 0.  Note 66.  Velocity 100
000000t:  Meta-event type $05 (Lyric) of length 6
	  live. 
001440t:  Note on ::  Channel 0.  Note 66.  Velocity 0
000000t:  Note on ::  Channel 0.  Note 69.  Velocity 0
001440t:  Note on ::  Channel 0.  Note 67.  Velocity 100
000000t:  Meta-event type $05 (Lyric) of length 6
	  Still 
000480t:  Note on ::  Channel 0.  Note 67.  Velocity 0
000000t:  Note on ::  Channel 0.  Note 69.  Velocity 100
000000t:  Meta-event type $05 (Lyric) of length 1
	  a
000480t:  Note on ::  Channel 0.  Note 69.  Velocity 0
000000t:  Note on ::  Channel 0.  Note 69.  Velocity 100
000000t:  Meta-event type $05 (Lyric) of length 6
	  live, 
001440t:  Note on ::  Channel 0.  Note 69.  Velocity 0
001440t:  Note on ::  Channel 0.  Note 67.  Velocity 100
000000t:  Meta-event type $05 (Lyric) of length 6
	  still 
000480t:  Note on ::  Channel 0.  Note 67.  Velocity 0
000000t:  Note on ::  Channel 0.  Note 66.  Velocity 100
000000t:  Meta-event type $05 (Lyric) of length 1
	  a
000480t:  Note on ::  Channel 0.  Note 66.  Velocity 0
000000t:  Note on ::  Channel 0.  Note 66.  Velocity 100
000000t:  Meta-event type $05 (Lyric) of length 6
	  live. 
002400t:  Note on ::  Channel 0.  Note 66.  Velocity 0
000000t:  Meta-event type $2f (End-track event) of length 0
Sigma t = 336000

Track chunk of 3450 bytes
000000t:  Meta-event type $03 (Track name) of length 4
	  Bass
000000t:  Program (patch) change ::  Channel 1.  Patch 0 (Acoustic Grand)
003840t:  Note on ::  Channel 1.  Note 45.  Velocity 100
000480t:  Note on ::  Channel 1.  Note 45.  Velocity 0
000000t:  Note on ::  Channel 1.  Note 50.  Velocity 100
000480t:  Note on ::  Channel 1.  Note 50.  Velocity 0
000000t:  Note on ::  Channel 1.  Note 54.  Velocity 100
000480t:  Note on ::  Channel 1.  Note 54.  Velocity 0
000000t:  Note on ::  Channel 1.  Note 50.  Velocity 100
000480t:  Note on ::  Channel 1.  Note 50.  Velocity 0
000000t:  Note on ::  Channel 1.  Note 47.  Velocity 100
000480t:  Note on ::  Channel 1.  Note 47.  Velocity 0
000000t:  Note on ::  Channel 1.  Note 50.  Velocity 100
000480t:  Note on ::  Channel 1.  Note 50.  Velocity 0
000000t:  Note on ::  Channel 1.  Note 54.  Velocity 100
000480t:  Note on ::  Channel 1.  Note 54.  Velocity 0
000000t:  Note on ::  Channel 1.  Note 50.  Velocity 100
000480t:  Note on ::  Channel 1.  Note 50.  Velocity 0
000000t:  Note on ::  Channel 1.  Note 45.  Velocity 100
000480t:  Note on ::  Channel 1.  Note 45.  Velocity 0
000000t:  Note on ::  Channel 1.  Note 50.  Velocity 100
000480t:  Note on ::  Channel 1.  Note 50.  Velocity 0
000000t:  Note on ::  Channel 1.  Note 54.  Velocity 100
000480t:  Note on ::  Channel 1.  Note 54.  Velocity 0
000000t:  Note on ::  Channel 1.  Note 50.  Velocity 100
000480t:  Note on ::  Channel 1.  Note 50.  Velocity 0
000000t:  Note on ::  Channel 1.  Note 47.  Velocity 100
000480t:  Note on ::  Channel 1.  Note 47.  Velocity 0
000000t:  Note on ::  Channel 1.  Note 50.  Velocity 100
000480t:  Note on ::  Channel 1.  Note 50.  Velocity 0
000000t:  Note on ::  Channel 1.  Note 54.  Velocity 100
000480t:  Note on ::  Channel 1.  Note 54.  Velocity 0
000000t:  Note on ::  Channel 1.  Note 50.  Velocity 100
000480t:  Note on ::  Channel 1.  Note 50.  Velocity 0
000000t:  Note on ::  Channel 1.  Note 45.  Velocity 100
000480t:  Note on ::  Channel 1.  Note 45.  Velocity 0
000000t:  Note on ::  Channel 1.  Note 50.  Velocity 100
000480t:  Note on ::  Channel 1.  Note 50.  Velocity 0
000000t:  Note on ::  Channel 1.  Note 54.  Velocity 100
000480t:  Note on ::  Channel 1.  Note 54.  Velocity 0
000000t:  Note on ::  Channel 1.  Note 50.  Velocity 100
000480t:  Note on ::  Channel 1.  Note 50.  Velocity 0
000000t:  Note on ::  Channel 1.  Note 47.  Velocity 100
000480t:  Note on ::  Channel 1.  Note 47.  Velocity 0
000000t:  Note on ::  Channel 1.  Note 50.  Velocity 100
000480t:  Note on ::  Channel 1.  Note 50.  Velocity 0
000000t:  Note on ::  Channel 1.  Note 54.  Velocity 100
000480t:  Note on ::  Channel 1.  Note 54.  Velocity 0
000000t:  Note on ::  Channel 1.  Note 50.  Velocity 100
000480t:  Note on ::  Channel 1.  Note 50.  Velocity 0
000000t:  Note on ::  Channel 1.  Note 45.  Velocity 100
000480t:  Note on ::  Channel 1.  Note 45.  Velocity 0
000000t:  Note on ::  Channel 1.  Note 50.  Velocity 100
000480t:  Note on ::  Channel 1.  Note 50.  Velocity 0
000000t:  Note on ::  Channel 1.  Note 54.  Velocity 100
000480t:  Note on ::  Channel 1.  Note 54.  Velocity 0
000000t:  Note on ::  Channel 1.  Note 50.  Velocity 100
000480t:  Note on ::  Channel 1.  Note 50.  Velocity 0
000000t:  Note on ::  Channel 1.  Note 47.  Velocity 100
000480t:  Note on ::  Channel 1.  Note 47.  Velocity 0
000000t:  Note on ::  Channel 1.  Note 50.  Velocity 100
000480t:  Note on ::  Channel 1.  Note 50.  Velocity 0
000000t:  Note on ::  Channel 1.  Note 54.  Velocity 100
000480t:  Note on ::  Channel 1.  Note 54.  Velocity 0
000000t:  Note on ::  Channel 1.  Note 50.  Velocity 100
000480t:  Note on ::  Channel 1.  Note 50.  Velocity 0
000000t:  Note on ::  Channel 1.  Note 47.  Velocity 100
000480t:  Note on ::  Channel 1.  Note 47.  Velocity 0
000000t:  Note on ::  Channel 1.  Note 52.  Velocity 100
000480t:  Note on ::  Channel 1.  Note 52.  Velocity 0
000000t:  Note on ::  Channel 1.  Note 55.  Velocity 100
000480t:  Note on ::  Channel 1.  Note 55.  Velocity 0
000000t:  Note on ::  Channel 1.  Note 52.  Velocity 100
000480t:  Note on ::  Channel 1.  Note 52.  Velocity 0
000000t:  Note on ::  Channel 1.  Note 47.  Velocity 100
000480t:  Note on ::  Channel 1.  Note 47.  Velocity 0
000000t:  Note on ::  Channel 1.  Note 52.  Velocity 100
000480t:  Note on ::  Channel 1.  Note 52.  Velocity 0
000000t:  Note on ::  Channel 1.  Note 55.  Velocity 100
000480t:  Note on ::  Channel 1.  Note 55.  Velocity 0
000000t:  Note on ::  Channel 1.  Note 52.  Velocity 100
000480t:  Note on ::  Channel 1.  Note 52.  Velocity 0
000000t:  Note on ::  Channel 1.  Note 45.  Velocity 100
000480t:  Note on ::  Channel 1.  Note 45.  Velocity 0
000000t:  Note on ::  Channel 1.  Note 52.  Velocity 100
000480t:  Note on ::  Channel 1.  Note 52.  Velocity 0
000000t:  Note on ::  Channel 1.  Note 55.  Velocity 100
000480t:  Note on ::  Channel 1.  Note 55.  Velocity 0
000000t:  Note on ::  Channel 1.  Note 49.  Velocity 100
000480t:  Note on ::  Channel 1.  Note 49.  Velocity 0
000000t:  Note on ::  Channel 1.  Note 45.  Velocity 100
000480t:  Note on ::  Channel 1.  Note 45.  Velocity 0
000000t:  Note on ::  Channel 1.  Note 52.  Velocity 100
000480t:  Note on ::  Channel 1.  Note 52.  Velocity 0
000000t:  Note on ::  Channel 1.  Note 55.  Velocity 100
000480t:  Note on ::  Channel 1.  Note 55.  Velocity 0
000000t:  Note on ::  Channel 1.  Note 49.  Velocity 100
000480t:  Note on ::  Channel 1.  Note 49.  Velocity 0
000000t:  Note on ::  Channel 1.  Note 45.  Velocity 100
000480t:  Note on ::  Channel 1.  Note 45.  Velocity 0
000000t:  Note on ::  Channel 1.  Note 50.  Velocity 100
000480t:  Note on ::  Channel 1.  Note 50.  Velocity 0
000000t:  Note on ::  Channel 1.  Note 54.  Velocity 100
000480t:  Note on ::  Channel 1.  Note 54.  Velocity 0
000000t:  Note on ::  Channel 1.  Note 50.  Velocity 100
000480t:  Note on ::  Channel 1.  Note 50.  Velocity 0
000000t:  Note on ::  Channel 1.  Note 47.  Velocity 100
000480t:  Note on ::  Channel 1.  Note 47.  Velocity 0
000000t:  Note on ::  Channel 1.  Note 50.  Velocity 100
000480t:  Note on ::  Channel 1.  Note 50.  Velocity 0
000000t:  Note on ::  Channel 1.  Note 54.  Velocity 100
000480t:  Note on ::  Channel 1.  Note 54.  Velocity 0
000000t:  Note on ::  Channel 1.  Note 50.  Velocity 100
000480t:  Note on ::  Channel 1.  Note 50.  Velocity 0
000000t:  Note on ::  Channel 1.  Note 45.  Velocity 100
000480t:  Note on ::  Channel 1.  Note 45.  Velocity 0
000000t:  Note on ::  Channel 1.  Note 50.  Velocity 100
000480t:  Note on ::  Channel 1.  Note 50.  Velocity 0
000000t:  Note on ::  Channel 1.  Note 54.  Velocity 100
000480t:  Note on ::  Channel 1.  Note 54.  Velocity 0
000000t:  Note on ::  Channel 1.  Note 50.  Velocity 100
000480t:  Note on ::  Channel 1.  Note 50.  Velocity 0
000000t:  Note on ::  Channel 1.  Note 47.  Velocity 100
000480t:  Note on ::  Channel 1.  Note 47.  Velocity 0
000000t:  Note on ::  Channel 1.  Note 50.  Velocity 100
000480t:  Note on ::  Channel 1.  Note 50.  Velocity 0
000000t:  Note on ::  Channel 1.  Note 54.  Velocity 100
000480t:  Note on ::  Channel 1.  Note 54.  Velocity 0
000000t:  Note on ::  Channel 1.  Note 50.  Velocity 100
000480t:  Note on ::  Channel 1.  Note 50.  Velocity 0
000000t:  Note on ::  Channel 1.  Note 45.  Velocity 100
000480t:  Note on ::  Channel 1.  Note 45.  Velocity 0
000000t:  Note on ::  Channel 1.  Note 50.  Velocity 100
000480t:  Note on ::  Channel 1.  Note 50.  Velocity 0
000000t:  Note on ::  Channel 1.  Note 54.  Velocity 100
000480t:  Note on ::  Channel 1.  Note 54.  Velocity 0
000000t:  Note on ::  Channel 1.  Note 50.  Velocity 100
000480t:  Note on ::  Channel 1.  Note 50.  Velocity 0
000000t:  Note on ::  Channel 1.  Note 47.  Velocity 100
000480t:  Note on ::  Channel 1.  Note 47.  Velocity 0
000000t:  Note on ::  Channel 1.  Note 50.  Velocity 100
000480t:  Note on ::  Channel 1.  Note 50.  Velocity 0
000000t:  Note on ::  Channel 1.  Note 54.  Velocity 100
000480t:  Note on ::  Channel 1.  Note 54.  Velocity 0
000000t:  Note on ::  Channel 1.  Note 50.  Velocity 100
000480t:  Note on ::  Channel 1.  Note 50.  Velocity 0
000000t:  Note on ::  Channel 1.  Note 45.  Velocity 100
000480t:  Note on ::  Channel 1.  Note 45.  Velocity 0
000000t:  Note on ::  Channel 1.  Note 50.  Velocity 100
000480t:  Note on ::  Channel 1.  Note 50.  Velocity 0
000000t:  Note on ::  Channel 1.  Note 54.  Velocity 100
000480t:  Note on ::  Channel 1.  Note 54.  Velocity 0
000000t:  Note on ::  Channel 1.  Note 50.  Velocity 100
000480t:  Note on ::  Channel 1.  Note 50.  Velocity 0
000000t:  Note on ::  Channel 1.  Note 47.  Velocity 100
000480t:  Note on ::  Channel 1.  Note 47.  Velocity 0
000000t:  Note on ::  Channel 1.  Note 50.  Velocity 100
000480t:  Note on ::  Channel 1.  Note 50.  Velocity 0
000000t:  Note on ::  Channel 1.  Note 54.  Velocity 100
000480t:  Note on ::  Channel 1.  Note 54.  Velocity 0
000000t:  Note on ::  Channel 1.  Note 50.  Velocity 100
000480t:  Note on ::  Channel 1.  Note 50.  Velocity 0
000000t:  Note on ::  Channel 1.  Note 45.  Velocity 100
000480t:  Note on ::  Channel 1.  Note 45.  Velocity 0
000000t:  Note on ::  Channel 1.  Note 50.  Velocity 100
000480t:  Note on ::  Channel 1.  Note 50.  Velocity 0
000000t:  Note on ::  Channel 1.  Note 54.  Velocity 100
000480t:  Note on ::  Channel 1.  Note 54.  Velocity 0
000000t:  Note on ::  Channel 1.  Note 50.  Velocity 100
000480t:  Note on ::  Channel 1.  Note 50.  Velocity 0
000000t:  Note on ::  Channel 1.  Note 47.  Velocity 100
000480t:  Note on ::  Channel 1.  Note 47.  Velocity 0
000000t:  Note on ::  Channel 1.  Note 50.  Velocity 100
000480t:  Note on ::  Channel 1.  Note 50.  Velocity 0
000000t:  Note on ::  Channel 1.  Note 54.  Velocity 100
000480t:  Note on ::  Channel 1.  Note 54.  Velocity 0
000000t:  Note on ::  Channel 1.  Note 50.  Velocity 100
000480t:  Note on ::  Channel 1.  Note 50.  Velocity 0
000000t:  Note on ::  Channel 1.  Note 45.  Velocity 100
000480t:  Note on ::  Channel 1.  Note 45.  Velocity 0
000000t:  Note on ::  Channel 1.  Note 50.  Velocity 100
000480t:  Note on ::  Channel 1.  Note 50.  Velocity 0
000000t:  Note on ::  Channel 1.  Note 54.  Velocity 100
000480t:  Note on ::  Channel 1.  Note 54.  Velocity 0
000000t:  Note on ::  Channel 1.  Note 50.  Velocity 100
000480t:  Note on ::  Channel 1.  Note 50.  Velocity 0
000000t:  Note on ::  Channel 1.  Note 47.  Velocity 100
000480t:  Note on ::  Channel 1.  Note 47.  Velocity 0
000000t:  Note on ::  Channel 1.  Note 50.  Velocity 100
000480t:  Note on ::  Channel 1.  Note 50.  Velocity 0
000000t:  Note on ::  Channel 1.  Note 54.  Velocity 100
000480t:  Note on ::  Channel 1.  Note 54.  Velocity 0
000000t:  Note on ::  Channel 1.  Note 50.  Velocity 100
000480t:  Note on ::  Channel 1.  Note 50.  Velocity 0
000000t:  Note on ::  Channel 1.  Note 47.  Velocity 100
000480t:  Note on ::  Channel 1.  Note 47.  Velocity 0
000000t:  Note on ::  Channel 1.  Note 52.  Velocity 100
000480t:  Note on ::  Channel 1.  Note 52.  Velocity 0
000000t:  Note on ::  Channel 1.  Note 55.  Velocity 100
000480t:  Note on ::  Channel 1.  Note 55.  Velocity 0
000000t:  Note on ::  Channel 1.  Note 52.  Velocity 100
000480t:  Note on ::  Channel 1.  Note 52.  Velocity 0
000000t:  Note on ::  Channel 1.  Note 47.  Velocity 100
000480t:  Note on ::  Channel 1.  Note 47.  Velocity 0
000000t:  Note on ::  Channel 1.  Note 52.  Velocity 100
000480t:  Note on ::  Channel 1.  Note 52.  Velocity 0
000000t:  Note on ::  Channel 1.  Note 55.  Velocity 100
000480t:  Note on ::  Channel 1.  Note 55.  Velocity 0
000000t:  Note on ::  Channel 1.  Note 52.  Velocity 100
000480t:  Note on ::  Channel 1.  Note 52.  Velocity 0
000000t:  Note on ::  Channel 1.  Note 45.  Velocity 100
000480t:  Note on ::  Channel 1.  Note 45.  Velocity 0
000000t:  Note on ::  Channel 1.  Note 52.  Velocity 100
000480t:  Note on ::  Channel 1.  Note 52.  Velocity 0
000000t:  Note on ::  Channel 1.  Note 55.  Velocity 100
000480t:  Note on ::  Channel 1.  Note 55.  Velocity 0
000000t:  Note on ::  Channel 1.  Note 49.  Velocity 100
000480t:  Note on ::  Channel 1.  Note 49.  Velocity 0
000000t:  Note on ::  Channel 1.  Note 45.  Velocity 100
000480t:  Note on ::  Channel 1.  Note 45.  Velocity 0
000000t:  Note on ::  Channel 1.  Note 52.  Velocity 100
000480t:  Note on ::  Channel 1.  Note 52.  Velocity 0
000000t:  Note on ::  Channel 1.  Note 55.  Velocity 100
000480t:  Note on ::  Channel 1.  Note 55.  Velocity 0
000000t:  Note on ::  Channel 1.  Note 49.  Velocity 100
000480t:  Note on ::  Channel 1.  Note 49.  Velocity 0
000000t:  Note on ::  Channel 1.  Note 46.  Velocity 100
000480t:  Note on ::  Channel 1.  Note 46.  Velocity 0
000000t:  Note on ::  Channel 1.  Note 50.  Velocity 100
000480t:  Note on ::  Channel 1.  Note 50.  Velocity 0
000000t:  Note on ::  Channel 1.  Note 53.  Velocity 100
000480t:  Note on ::  Channel 1.  Note 53.  Velocity 0
000000t:  Note on ::  Channel 1.  Note 57.  Velocity 100
000480t:  Note on ::  Channel 1.  Note 57.  Velocity 0
028800t:  Note on ::  Channel 1.  Note 50.  Velocity 100
001440t:  Note on ::  Channel 1.  Note 50.  Velocity 0
000000t:  Note on ::  Channel 1.  Note 50.  Velocity 100
000480t:  Note on ::  Channel 1.  Note 50.  Velocity 0
000000t:  Note on ::  Channel 1.  Note 47.  Velocity 100
001440t:  Note on ::  Channel 1.  Note 47.  Velocity 0
000000t:  Note on ::  Channel 1.  Note 47.  Velocity 100
000480t:  Note on ::  Channel 1.  Note 47.  Velocity 0
000000t:  Note on ::  Channel 1.  Note 50.  Velocity 100
001440t:  Note on ::  Channel 1.  Note 50.  Velocity 0
000000t:  Note on ::  Channel 1.  Note 50.  Velocity 100
000480t:  Note on ::  Channel 1.  Note 50.  Velocity 0
000000t:  Note on ::  Channel 1.  Note 47.  Velocity 100
001440t:  Note on ::  Channel 1.  Note 47.  Velocity 0
000000t:  Note on ::  Channel 1.  Note 47.  Velocity 100
000480t:  Note on ::  Channel 1.  Note 47.  Velocity 0
000000t:  Note on ::  Channel 1.  Note 50.  Velocity 100
001440t:  Note on ::  Channel 1.  Note 50.  Velocity 0
000000t:  Note on ::  Channel 1.  Note 50.  Velocity 100
000480t:  Note on ::  Channel 1.  Note 50.  Velocity 0
000000t:  Note on ::  Channel 1.  Note 47.  Velocity 100
001440t:  Note on ::  Channel 1.  Note 47.  Velocity 0
000000t:  Note on ::  Channel 1.  Note 47.  Velocity 100
000480t:  Note on ::  Channel 1.  Note 47.  Velocity 0
000000t:  Note on ::  Channel 1.  Note 50.  Velocity 100
001440t:  Note on ::  Channel 1.  Note 50.  Velocity 0
000000t:  Note on ::  Channel 1.  Note 50.  Velocity 100
000480t:  Note on ::  Channel 1.  Note 50.  Velocity 0
000000t:  Note on ::  Channel 1.  Note 47.  Velocity 100
001440t:  Note on ::  Channel 1.  Note 47.  Velocity 0
000000t:  Note on ::  Channel 1.  Note 47.  Velocity 100
000480t:  Note on ::  Channel 1.  Note 47.  Velocity 0
000000t:  Note on ::  Channel 1.  Note 50.  Velocity 100
001440t:  Note on ::  Channel 1.  Note 50.  Velocity 0
000000t:  Note on ::  Channel 1.  Note 50.  Velocity 100
000480t:  Note on ::  Channel 1.  Note 50.  Velocity 0
000000t:  Note on ::  Channel 1.  Note 47.  Velocity 100
001440t:  Note on ::  Channel 1.  Note 47.  Velocity 0
000000t:  Note on ::  Channel 1.  Note 47.  Velocity 100
000480t:  Note on ::  Channel 1.  Note 47.  Velocity 0
000000t:  Note on ::  Channel 1.  Note 50.  Velocity 100
001440t:  Note on ::  Channel 1.  Note 50.  Velocity 0
000000t:  Note on ::  Channel 1.  Note 50.  Velocity 100
000480t:  Note on ::  Channel 1.  Note 50.  Velocity 0
000000t:  Note on ::  Channel 1.  Note 47.  Velocity 100
001440t:  Note on ::  Channel 1.  Note 47.  Velocity 0
000000t:  Note on ::  Channel 1.  Note 47.  Velocity 100
000480t:  Note on ::  Channel 1.  Note 47.  Velocity 0
000000t:  Note on ::  Channel 1.  Note 50.  Velocity 100
001440t:  Note on ::  Channel 1.  Note 50.  Velocity 0
000000t:  Note on ::  Channel 1.  Note 50.  Velocity 100
000480t:  Note on ::  Channel 1.  Note 50.  Velocity 0
000000t:  Note on ::  Channel 1.  Note 47.  Velocity 100
001440t:  Note on ::  Channel 1.  Note 47.  Velocity 0
000000t:  Note on ::  Channel 1.  Note 47.  Velocity 100
000480t:  Note on ::  Channel 1.  Note 47.  Velocity 0
000000t:  Note on ::  Channel 1.  Note 50.  Velocity 100
001440t:  Note on ::  Channel 1.  Note 50.  Velocity 0
000000t:  Note on ::  Channel 1.  Note 50.  Velocity 100
000480t:  Note on ::  Channel 1.  Note 50.  Velocity 0
000000t:  Note on ::  Channel 1.  Note 47.  Velocity 100
001440t:  Note on ::  Channel 1.  Note 47.  Velocity 0
000000t:  Note on ::  Channel 1.  Note 47.  Velocity 100
000480t:  Note on ::  Channel 1.  Note 47.  Velocity 0
000000t:  Note on ::  Channel 1.  Note 52.  Velocity 100
001440t:  Note on ::  Channel 1.  Note 52.  Velocity 0
000000t:  Note on ::  Channel 1.  Note 52.  Velocity 100
000480t:  Note on ::  Channel 1.  Note 52.  Velocity 0
000000t:  Note on ::  Channel 1.  Note 52.  Velocity 100
000480t:  Note on ::  Channel 1.  Note 52.  Velocity 0
000000t:  Note on ::  Channel 1.  Note 54.  Velocity 100
000480t:  Note on ::  Channel 1.  Note 54.  Velocity 0
000000t:  Note on ::  Channel 1.  Note 55.  Velocity 100
000960t:  Note on ::  Channel 1.  Note 55.  Velocity 0
000000t:  Note on ::  Channel 1.  Note 45.  Velocity 100
001440t:  Note on ::  Channel 1.  Note 45.  Velocity 0
000000t:  Note on ::  Channel 1.  Note 45.  Velocity 100
000480t:  Note on ::  Channel 1.  Note 45.  Velocity 0
000000t:  Note on ::  Channel 1.  Note 45.  Velocity 100
000480t:  Note on ::  Channel 1.  Note 45.  Velocity 0
000000t:  Note on ::  Channel 1.  Note 47.  Velocity 100
000480t:  Note on ::  Channel 1.  Note 47.  Velocity 0
000000t:  Note on ::  Channel 1.  Note 49.  Velocity 100
000960t:  Note on ::  Channel 1.  Note 49.  Velocity 0
000000t:  Note on ::  Channel 1.  Note 50.  Velocity 100
001440t:  Note on ::  Channel 1.  Note 50.  Velocity 0
000000t:  Note on ::  Channel 1.  Note 50.  Velocity 100
000480t:  Note on ::  Channel 1.  Note 50.  Velocity 0
000000t:  Note on ::  Channel 1.  Note 47.  Velocity 100
001440t:  Note on ::  Channel 1.  Note 47.  Velocity 0
000000t:  Note on ::  Channel 1.  Note 47.  Velocity 100
000480t:  Note on ::  Channel 1.  Note 47.  Velocity 0
000000t:  Note on ::  Channel 1.  Note 50.  Velocity 100
001440t:  Note on ::  Channel 1.  Note 50.  Velocity 0
000000t:  Note on ::  Channel 1.  Note 50.  Velocity 100
000480t:  Note on ::  Channel 1.  Note 50.  Velocity 0
000000t:  Note on ::  Channel 1.  Note 47.  Velocity 100
001440t:  Note on ::  Channel 1.  Note 47.  Velocity 0
000000t:  Note on ::  Channel 1.  Note 47.  Velocity 100
000480t:  Note on ::  Channel 1.  Note 47.  Velocity 0
000000t:  Note on ::  Channel 1.  Note 50.  Velocity 100
001440t:  Note on ::  Channel 1.  Note 50.  Velocity 0
000000t:  Note on ::  Channel 1.  Note 50.  Velocity 100
000480t:  Note on ::  Channel 1.  Note 50.  Velocity 0
000000t:  Note on ::  Channel 1.  Note 47.  Velocity 100
001440t:  Note on ::  Channel 1.  Note 47.  Velocity 0
000000t:  Note on ::  Channel 1.  Note 47.  Velocity 100
000480t:  Note on ::  Channel 1.  Note 47.  Velocity 0
000000t:  Note on ::  Channel 1.  Note 50.  Velocity 100
001440t:  Note on ::  Channel 1.  Note 50.  Velocity 0
000000t:  Note on ::  Channel 1.  Note 50.  Velocity 100
000480t:  Note on ::  Channel 1.  Note 50.  Velocity 0
000000t:  Note on ::  Channel 1.  Note 47.  Velocity 100
001440t:  Note on ::  Channel 1.  Note 47.  Velocity 0
000000t:  Note on ::  Channel 1.  Note 47.  Velocity 100
000480t:  Note on ::  Channel 1.  Note 47.  Velocity 0
000000t:  Note on ::  Channel 1.  Note 50.  Velocity 100
001440t:  Note on ::  Channel 1.  Note 50.  Velocity 0
000000t:  Note on ::  Channel 1.  Note 50.  Velocity 100
000480t:  Note on ::  Channel 1.  Note 50.  Velocity 0
000000t:  Note on ::  Channel 1.  Note 47.  Velocity 100
001440t:  Note on ::  Channel 1.  Note 47.  Velocity 0
000000t:  Note on ::  Channel 1.  Note 47.  Velocity 100
000480t:  Note on ::  Channel 1.  Note 47.  Velocity 0
000000t:  Note on ::  Channel 1.  Note 50.  Velocity 100
001440t:  Note on ::  Channel 1.  Note 50.  Velocity 0
000000t:  Note on ::  Channel 1.  Note 50.  Velocity 100
000480t:  Note on ::  Channel 1.  Note 50.  Velocity 0
000000t:  Note on ::  Channel 1.  Note 47.  Velocity 100
001440t:  Note on ::  Channel 1.  Note 47.  Velocity 0
000000t:  Note on ::  Channel 1.  Note 47.  Velocity 100
000480t:  Note on ::  Channel 1.  Note 47.  Velocity 0
000000t:  Note on ::  Channel 1.  Note 52.  Velocity 100
001440t:  Note on ::  Channel 1.  Note 52.  Velocity 0
000000t:  Note on ::  Channel 1.  Note 52.  Velocity 100
000480t:  Note on ::  Channel 1.  Note 52.  Velocity 0
000000t:  Note on ::  Channel 1.  Note 52.  Velocity 100
000480t:  Note on ::  Channel 1.  Note 52.  Velocity 0
000000t:  Note on ::  Channel 1.  Note 54.  Velocity 100
000480t:  Note on ::  Channel 1.  Note 54.  Velocity 0
000000t:  Note on ::  Channel 1.  Note 55.  Velocity 100
000960t:  Note on ::  Channel 1.  Note 55.  Velocity 0
000000t:  Note on ::  Channel 1.  Note 45.  Velocity 100
001440t:  Note on ::  Channel 1.  Note 45.  Velocity 0
000000t:  Note on ::  Channel 1.  Note 45.  Velocity 100
000480t:  Note on ::  Channel 1.  Note 45.  Velocity 0
000000t:  Note on ::  Channel 1.  Note 45.  Velocity 100
000480t:  Note on ::  Channel 1.  Note 45.  Velocity 0
000000t:  Note on ::  Channel 1.  Note 47.  Velocity 100
000480t:  Note on ::  Channel 1.  Note 47.  Velocity 0
000000t:  Note on ::  Channel 1.  Note 49.  Velocity 100
000480t:  Note on ::  Channel 1.  Note 49.  Velocity 0
000000t:  Note on ::  Channel 1.  Note 45.  Velocity 100
000480t:  Note on ::  Channel 1.  Note 45.  Velocity 0
000000t:  Note on ::  Channel 1.  Note 46.  Velocity 100
000960t:  Note on ::  Channel 1.  Note 46.  Velocity 0
000000t:  Note on ::  Channel 1.  Note 46.  Velocity 100
000480t:  Note on ::  Channel 1.  Note 46.  Velocity 0
000000t:  Note on ::  Channel 1.  Note 46.  Velocity 100
000480t:  Note on ::  Channel 1.  Note 46.  Velocity 0
000000t:  Note on ::  Channel 1.  Note 46.  Velocity 100
000480t:  Note on ::  Channel 1.  Note 46.  Velocity 0
000000t:  Note on ::  Channel 1.  Note 46.  Velocity 100
000480t:  Note on ::  Channel 1.  Note 46.  Velocity 0
000000t:  Note on ::  Channel 1.  Note 46.  Velocity 100
000480t:  Note on ::  Channel 1.  Note 46.  Velocity 0
000000t:  Note on ::  Channel 1.  Note 46.  Velocity 100
000480t:  Note on ::  Channel 1.  Note 46.  Velocity 0
000000t:  Note on ::  Channel 1.  Note 48.  Velocity 100
000000t:  Note on ::  Channel 1.  Note 53.  Velocity 100
000480t:  Note on ::  Channel 1.  Note 53.  Velocity 0
000000t:  Note on ::  Channel 1.  Note 48.  Velocity 0
000000t:  Note on ::  Channel 1.  Note 48.  Velocity 100
000000t:  Note on ::  Channel 1.  Note 53.  Velocity 100
000480t:  Note on ::  Channel 1.  Note 53.  Velocity 0
000000t:  Note on ::  Channel 1.  Note 48.  Velocity 0
000960t:  Note on ::  Channel 1.  Note 48.  Velocity 100
000000t:  Note on ::  Channel 1.  Note 43.  Velocity 100
000480t:  Note on ::  Channel 1.  Note 43.  Velocity 0
000000t:  Note on ::  Channel 1.  Note 48.  Velocity 0
000000t:  Note on ::  Channel 1.  Note 43.  Velocity 100
000000t:  Note on ::  Channel 1.  Note 48.  Velocity 100
000480t:  Note on ::  Channel 1.  Note 48.  Velocity 0
000000t:  Note on ::  Channel 1.  Note 43.  Velocity 0
000960t:  Note on ::  Channel 1.  Note 46.  Velocity 100
000000t:  Note on ::  Channel 1.  Note 41.  Velocity 100
000480t:  Note on ::  Channel 1.  Note 41.  Velocity 0
000000t:  Note on ::  Channel 1.  Note 46.  Velocity 0
000000t:  Note on ::  Channel 1.  Note 41.  Velocity 100
000000t:  Note on ::  Channel 1.  Note 46.  Velocity 100
000480t:  Note on ::  Channel 1.  Note 46.  Velocity 0
000000t:  Note on ::  Channel 1.  Note 41.  Velocity 0
000960t:  Note on ::  Channel 1.  Note 48.  Velocity 100
000000t:  Note on ::  Channel 1.  Note 53.  Velocity 100
000480t:  Note on ::  Channel 1.  Note 53.  Velocity 0
000000t:  Note on ::  Channel 1.  Note 48.  Velocity 0
000000t:  Note on ::  Channel 1.  Note 48.  Velocity 100
000000t:  Note on ::  Channel 1.  Note 53.  Velocity 100
000480t:  Note on ::  Channel 1.  Note 53.  Velocity 0
000000t:  Note on ::  Channel 1.  Note 48.  Velocity 0
000960t:  Note on ::  Channel 1.  Note 48.  Velocity 100
000000t:  Note on ::  Channel 1.  Note 53.  Velocity 100
000480t:  Note on ::  Channel 1.  Note 53.  Velocity 0
000000t:  Note on ::  Channel 1.  Note 48.  Velocity 0
000000t:  Note on ::  Channel 1.  Note 48.  Velocity 100
000000t:  Note on ::  Channel 1.  Note 53.  Velocity 100
000480t:  Note on ::  Channel 1.  Note 53.  Velocity 0
000000t:  Note on ::  Channel 1.  Note 48.  Velocity 0
000960t:  Note on ::  Channel 1.  Note 43.  Velocity 100
000000t:  Note on ::  Channel 1.  Note 48.  Velocity 100
000480t:  Note on ::  Channel 1.  Note 48.  Velocity 0
000000t:  Note on ::  Channel 1.  Note 43.  Velocity 0
000000t:  Note on ::  Channel 1.  Note 43.  Velocity 100
000000t:  Note on ::  Channel 1.  Note 48.  Velocity 100
000480t:  Note on ::  Channel 1.  Note 48.  Velocity 0
000000t:  Note on ::  Channel 1.  Note 43.  Velocity 0
000960t:  Note on ::  Channel 1.  Note 41.  Velocity 100
000000t:  Note on ::  Channel 1.  Note 46.  Velocity 100
000480t:  Note on ::  Channel 1.  Note 46.  Velocity 0
000000t:  Note on ::  Channel 1.  Note 41.  Velocity 0
000000t:  Note on ::  Channel 1.  Note 41.  Velocity 100
000000t:  Note on ::  Channel 1.  Note 46.  Velocity 100
000480t:  Note on ::  Channel 1.  Note 46.  Velocity 0
000000t:  Note on ::  Channel 1.  Note 41.  Velocity 0
000960t:  Note on ::  Channel 1.  Note 48.  Velocity 100
000000t:  Note on ::  Channel 1.  Note 53.  Velocity 100
000480t:  Note on ::  Channel 1.  Note 53.  Velocity 0
000000t:  Note on ::  Channel 1.  Note 48.  Velocity 0
000000t:  Note on ::  Channel 1.  Note 48.  Velocity 100
000000t:  Note on ::  Channel 1.  Note 53.  Velocity 100
000480t:  Note on ::  Channel 1.  Note 53.  Velocity 0
000000t:  Note on ::  Channel 1.  Note 48.  Velocity 0
000960t:  Note on ::  Channel 1.  Note 41.  Velocity 100
000000t:  Note on ::  Channel 1.  Note 46.  Velocity 100
000480t:  Note on ::  Channel 1.  Note 46.  Velocity 0
000000t:  Note on ::  Channel 1.  Note 41.  Velocity 0
000000t:  Note on ::  Channel 1.  Note 46.  Velocity 100
000000t:  Note on ::  Channel 1.  Note 41.  Velocity 100
000480t:  Note on ::  Channel 1.  Note 41.  Velocity 0
000000t:  Note on ::  Channel 1.  Note 46.  Velocity 0
000000t:  Note on ::  Channel 1.  Note 46.  Velocity 100
000000t:  Note on ::  Channel 1.  Note 41.  Velocity 100
000480t:  Note on ::  Channel 1.  Note 41.  Velocity 0
000000t:  Note on ::  Channel 1.  Note 46.  Velocity 0
000000t:  Note on ::  Channel 1.  Note 41.  Velocity 100
000000t:  Note on ::  Channel 1.  Note 46.  Velocity 100
000480t:  Note on ::  Channel 1.  Note 46.  Velocity 0
000000t:  Note on ::  Channel 1.  Note 41.  Velocity 0
000000t:  Note on ::  Channel 1.  Note 43.  Velocity 100
000000t:  Note on ::  Channel 1.  Note 48.  Velocity 100
000480t:  Note on ::  Channel 1.  Note 48.  Velocity 0
000000t:  Note on ::  Channel 1.  Note 43.  Velocity 0
000000t:  Note on ::  Channel 1.  Note 43.  Velocity 100
000000t:  Note on ::  Channel 1.  Note 48.  Velocity 100
000480t:  Note on ::  Channel 1.  Note 48.  Velocity 0
000000t:  Note on ::  Channel 1.  Note 43.  Velocity 0
000000t:  Note on ::  Channel 1.  Note 43.  Velocity 100
000000t:  Note on ::  Channel 1.  Note 48.  Velocity 100
000480t:  Note on ::  Channel 1.  Note 48.  Velocity 0
000000t:  Note on ::  Channel 1.  Note 43.  Velocity 0
000000t:  Note on ::  Channel 1.  Note 43.  Velocity 100
000000t:  Note on ::  Channel 1.  Note 48.  Velocity 100
000480t:  Note on ::  Channel 1.  Note 48.  Velocity 0
000000t:  Note on ::  Channel 1.  Note 43.  Velocity 0
000000t:  Note on ::  Channel 1.  Note 48.  Velocity 100
000000t:  Note on ::  Channel 1.  Note 53.  Velocity 100
000480t:  Note on ::  Channel 1.  Note 53.  Velocity 0
000000t:  Note on ::  Channel 1.  Note 48.  Velocity 0
000000t:  Note on ::  Channel 1.  Note 48.  Velocity 100
000000t:  Note on ::  Channel 1.  Note 53.  Velocity 100
000480t:  Note on ::  Channel 1.  Note 53.  Velocity 0
000000t:  Note on ::  Channel 1.  Note 48.  Velocity 0
000000t:  Note on ::  Channel 1.  Note 47.  Velocity 100
000000t:  Note on ::  Channel 1.  Note 52.  Velocity 100
000480t:  Note on ::  Channel 1.  Note 52.  Velocity 0
000000t:  Note on ::  Channel 1.  Note 47.  Velocity 0
000000t:  Note on ::  Channel 1.  Note 47.  Velocity 100
000000t:  Note on ::  Channel 1.  Note 52.  Velocity 100
000480t:  Note on ::  Channel 1.  Note 52.  Velocity 0
000000t:  Note on ::  Channel 1.  Note 47.  Velocity 0
000000t:  Note on ::  Channel 1.  Note 45.  Velocity 100
000000t:  Note on ::  Channel 1.  Note 50.  Velocity 100
000480t:  Note on ::  Channel 1.  Note 50.  Velocity 0
000000t:  Note on ::  Channel 1.  Note 45.  Velocity 0
000000t:  Note on ::  Channel 1.  Note 45.  Velocity 100
000000t:  Note on ::  Channel 1.  Note 50.  Velocity 100
000480t:  Note on ::  Channel 1.  Note 50.  Velocity 0
000000t:  Note on ::  Channel 1.  Note 45.  Velocity 0
000000t:  Note on ::  Channel 1.  Note 43.  Velocity 100
000000t:  Note on ::  Channel 1.  Note 48.  Velocity 100
000480t:  Note on ::  Channel 1.  Note 48.  Velocity 0
000000t:  Note on ::  Channel 1.  Note 43.  Velocity 0
000000t:  Note on ::  Channel 1.  Note 43.  Velocity 100
000000t:  Note on ::  Channel 1.  Note 48.  Velocity 100
000480t:  Note on ::  Channel 1.  Note 48.  Velocity 0
000000t:  Note on ::  Channel 1.  Note 43.  Velocity 0
000000t:  Note on ::  Channel 1.  Note 46.  Velocity 100
000960t:  Note on ::  Channel 1.  Note 46.  Velocity 0
000000t:  Note on ::  Channel 1.  Note 53.  Velocity 100
000960t:  Note on ::  Channel 1.  Note 53.  Velocity 0
000000t:  Note on ::  Channel 1.  Note 45.  Velocity 100
000960t:  Note on ::  Channel 1.  Note 45.  Velocity 0
000000t:  Note on ::  Channel 1.  Note 52.  Velocity 100
000960t:  Note on ::  Channel 1.  Note 52.  Velocity 0
000000t:  Note on ::  Channel 1.  Note 50.  Velocity 100
001440t:  Note on ::  Channel 1.  Note 50.  Velocity 0
000000t:  Note on ::  Channel 1.  Note 50.  Velocity 100
000480t:  Note on ::  Channel 1.  Note 50.  Velocity 0
000000t:  Note on ::  Channel 1.  Note 47.  Velocity 100
001440t:  Note on ::  Channel 1.  Note 47.  Velocity 0
000000t:  Note on ::  Channel 1.  Note 47.  Velocity 100
000480t:  Note on ::  Channel 1.  Note 47.  Velocity 0
000000t:  Note on ::  Channel 1.  Note 50.  Velocity 100
001440t:  Note on ::  Channel 1.  Note 50.  Velocity 0
000000t:  Note on ::  Channel 1.  Note 50.  Velocity 100
000480t:  Note on ::  Channel 1.  Note 50.  Velocity 0
000000t:  Note on ::  Channel 1.  Note 47.  Velocity 100
001440t:  Note on ::  Channel 1.  Note 47.  Velocity 0
000000t:  Note on ::  Channel 1.  Note 47.  Velocity 100
000480t:  Note on ::  Channel 1.  Note 47.  Velocity 0
000000t:  Note on ::  Channel 1.  Note 50.  Velocity 100
001440t:  Note on ::  Channel 1.  Note 50.  Velocity 0
000000t:  Note on ::  Channel 1.  Note 50.  Velocity 100
000480t:  Note on ::  Channel 1.  Note 50.  Velocity 0
000000t:  Note on ::  Channel 1.  Note 47.  Velocity 100
001440t:  Note on ::  Channel 1.  Note 47.  Velocity 0
000000t:  Note on ::  Channel 1.  Note 47.  Velocity 100
000480t:  Note on ::  Channel 1.  Note 47.  Velocity 0
000000t:  Note on ::  Channel 1.  Note 50.  Velocity 100
001440t:  Note on ::  Channel 1.  Note 50.  Velocity 0
000000t:  Note on ::  Channel 1.  Note 50.  Velocity 100
000480t:  Note on ::  Channel 1.  Note 50.  Velocity 0
000000t:  Note on ::  Channel 1.  Note 47.  Velocity 100
001440t:  Note on ::  Channel 1.  Note 47.  Velocity 0
000000t:  Note on ::  Channel 1.  Note 47.  Velocity 100
000480t:  Note on ::  Channel 1.  Note 47.  Velocity 0
000000t:  Note on ::  Channel 1.  Note 45.  Velocity 100
000480t:  Note on ::  Channel 1.  Note 45.  Velocity 0
000000t:  Note on ::  Channel 1.  Note 50.  Velocity 100
000480t:  Note on ::  Channel 1.  Note 50.  Velocity 0
000000t:  Note on ::  Channel 1.  Note 54.  Velocity 100
000480t:  Note on ::  Channel 1.  Note 54.  Velocity 0
000000t:  Note on ::  Channel 1.  Note 50.  Velocity 100
000480t:  Note on ::  Channel 1.  Note 50.  Velocity 0
000000t:  Note on ::  Channel 1.  Note 47.  Velocity 100
000480t:  Note on ::  Channel 1.  Note 47.  Velocity 0
000000t:  Note on ::  Channel 1.  Note 50.  Velocity 100
000480t:  Note on ::  Channel 1.  Note 50.  Velocity 0
000000t:  Note on ::  Channel 1.  Note 54.  Velocity 100
000480t:  Note on ::  Channel 1.  Note 54.  Velocity 0
000000t:  Note on ::  Channel 1.  Note 50.  Velocity 100
000480t:  Note on ::  Channel 1.  Note 50.  Velocity 0
000000t:  Note on ::  Channel 1.  Note 45.  Velocity 100
000480t:  Note on ::  Channel 1.  Note 45.  Velocity 0
000000t:  Note on ::  Channel 1.  Note 50.  Velocity 100
000480t:  Note on ::  Channel 1.  Note 50.  Velocity 0
000000t:  Note on ::  Channel 1.  Note 54.  Velocity 100
000480t:  Note on ::  Channel 1.  Note 54.  Velocity 0
000000t:  Note on ::  Channel 1.  Note 50.  Velocity 100
000480t:  Note on ::  Channel 1.  Note 50.  Velocity 0
000000t:  Note on ::  Channel 1.  Note 47.  Velocity 100
000480t:  Note on ::  Channel 1.  Note 47.  Velocity 0
000000t:  Note on ::  Channel 1.  Note 50.  Velocity 100
000480t:  Note on ::  Channel 1.  Note 50.  Velocity 0
000000t:  Note on ::  Channel 1.  Note 54.  Velocity 100
000480t:  Note on ::  Channel 1.  Note 54.  Velocity 0
000000t:  Note on ::  Channel 1.  Note 50.  Velocity 100
000480t:  Note on ::  Channel 1.  Note 50.  Velocity 0
000000t:  Note on ::  Channel 1.  Note 45.  Velocity 100
000480t:  Note on ::  Channel 1.  Note 45.  Velocity 0
000000t:  Note on ::  Channel 1.  Note 50.  Velocity 100
000480t:  Note on ::  Channel 1.  Note 50.  Velocity 0
000000t:  Note on ::  Channel 1.  Note 54.  Velocity 100
000480t:  Note on ::  Channel 1.  Note 54.  Velocity 0
000000t:  Note on ::  Channel 1.  Note 50.  Velocity 100
000480t:  Note on ::  Channel 1.  Note 50.  Velocity 0
000000t:  Note on ::  Channel 1.  Note 47.  Velocity 100
000480t:  Note on ::  Channel 1.  Note 47.  Velocity 0
000000t:  Note on ::  Channel 1.  Note 50.  Velocity 100
000480t:  Note on ::  Channel 1.  Note 50.  Velocity 0
000000t:  Note on ::  Channel 1.  Note 54.  Velocity 100
000480t:  Note on ::  Channel 1.  Note 54.  Velocity 0
000000t:  Note on ::  Channel 1.  Note 50.  Velocity 100
000480t:  Note on ::  Channel 1.  Note 50.  Velocity 0
000000t:  Note on ::  Channel 1.  Note 45.  Velocity 100
000480t:  Note on ::  Channel 1.  Note 45.  Velocity 0
000000t:  Note on ::  Channel 1.  Note 50.  Velocity 100
000480t:  Note on ::  Channel 1.  Note 50.  Velocity 0
000000t:  Note on ::  Channel 1.  Note 54.  Velocity 100
000480t:  Note on ::  Channel 1.  Note 54.  Velocity 0
000000t:  Note on ::  Channel 1.  Note 50.  Velocity 100
000480t:  Note on ::  Channel 1.  Note 50.  Velocity 0
000000t:  Note on ::  Channel 1.  Note 47.  Velocity 100
000480t:  Note on ::  Channel 1.  Note 47.  Velocity 0
000000t:  Note on ::  Channel 1.  Note 50.  Velocity 100
000480t:  Note on ::  Channel 1.  Note 50.  Velocity 0
000000t:  Note on ::  Channel 1.  Note 54.  Velocity 100
000480t:  Note on ::  Channel 1.  Note 54.  Velocity 0
000000t:  Note on ::  Channel 1.  Note 50.  Velocity 100
000480t:  Note on ::  Channel 1.  Note 50.  Velocity 0
000000t:  Note on ::  Channel 1.  Note 47.  Velocity 100
000480t:  Note on ::  Channel 1.  Note 47.  Velocity 0
000000t:  Note on ::  Channel 1.  Note 52.  Velocity 100
000480t:  Note on ::  Channel 1.  Note 52.  Velocity 0
000000t:  Note on ::  Channel 1.  Note 55.  Velocity 100
000480t:  Note on ::  Channel 1.  Note 55.  Velocity 0
000000t:  Note on ::  Channel 1.  Note 52.  Velocity 100
000480t:  Note on ::  Channel 1.  Note 52.  Velocity 0
000000t:  Note on ::  Channel 1.  Note 47.  Velocity 100
000480t:  Note on ::  Channel 1.  Note 47.  Velocity 0
000000t:  Note on ::  Channel 1.  Note 52.  Velocity 100
000480t:  Note on ::  Channel 1.  Note 52.  Velocity 0
000000t:  Note on ::  Channel 1.  Note 55.  Velocity 100
000480t:  Note on ::  Channel 1.  Note 55.  Velocity 0
000000t:  Note on ::  Channel 1.  Note 52.  Velocity 100
000480t:  Note on ::  Channel 1.  Note 52.  Velocity 0
000000t:  Note on ::  Channel 1.  Note 45.  Velocity 100
000480t:  Note on ::  Channel 1.  Note 45.  Velocity 0
000000t:  Note on ::  Channel 1.  Note 52.  Velocity 100
000480t:  Note on ::  Channel 1.  Note 52.  Velocity 0
000000t:  Note on ::  Channel 1.  Note 55.  Velocity 100
000480t:  Note on ::  Channel 1.  Note 55.  Velocity 0
000000t:  Note on ::  Channel 1.  Note 49.  Velocity 100
000480t:  Note on ::  Channel 1.  Note 49.  Velocity 0
000000t:  Note on ::  Channel 1.  Note 45.  Velocity 100
000480t:  Note on ::  Channel 1.  Note 45.  Velocity 0
000000t:  Note on ::  Channel 1.  Note 52.  Velocity 100
000480t:  Note on ::  Channel 1.  Note 52.  Velocity 0
000000t:  Note on ::  Channel 1.  Note 55.  Velocity 100
000480t:  Note on ::  Channel 1.  Note 55.  Velocity 0
000000t:  Note on ::  Channel 1.  Note 49.  Velocity 100
000480t:  Note on ::  Channel 1.  Note 49.  Velocity 0
000000t:  Note on ::  Channel 1.  Note 45.  Velocity 100
000480t:  Note on ::  Channel 1.  Note 45.  Velocity 0
000000t:  Note on ::  Channel 1.  Note 50.  Velocity 100
000480t:  Note on ::  Channel 1.  Note 50.  Velocity 0
000000t:  Note on ::  Channel 1.  Note 54.  Velocity 100
000480t:  Note on ::  Channel 1.  Note 54.  Velocity 0
000000t:  Note on ::  Channel 1.  Note 50.  Velocity 100
000480t:  Note on ::  Channel 1.  Note 50.  Velocity 0
000000t:  Note on ::  Channel 1.  Note 47.  Velocity 100
000480t:  Note on ::  Channel 1.  Note 47.  Velocity 0
000000t:  Note on ::  Channel 1.  Note 50.  Velocity 100
000480t:  Note on ::  Channel 1.  Note 50.  Velocity 0
000000t:  Note on ::  Channel 1.  Note 54.  Velocity 100
000480t:  Note on ::  Channel 1.  Note 54.  Velocity 0
000000t:  Note on ::  Channel 1.  Note 50.  Velocity 100
000480t:  Note on ::  Channel 1.  Note 50.  Velocity 0
000000t:  Note on ::  Channel 1.  Note 45.  Velocity 100
000480t:  Note on ::  Channel 1.  Note 45.  Velocity 0
000000t:  Note on ::  Channel 1.  Note 50.  Velocity 100
000480t:  Note on ::  Channel 1.  Note 50.  Velocity 0
000000t:  Note on ::  Channel 1.  Note 54.  Velocity 100
000480t:  Note on ::  Channel 1.  Note 54.  Velocity 0
000000t:  Note on ::  Channel 1.  Note 50.  Velocity 100
000480t:  Note on ::  Channel 1.  Note 50.  Velocity 0
000000t:  Note on ::  Channel 1.  Note 47.  Velocity 100
000480t:  Note on ::  Channel 1.  Note 47.  Velocity 0
000000t:  Note on ::  Channel 1.  Note 50.  Velocity 100
000480t:  Note on ::  Channel 1.  Note 50.  Velocity 0
000000t:  Note on ::  Channel 1.  Note 54.  Velocity 100
000480t:  Note on ::  Channel 1.  Note 54.  Velocity 0
000000t:  Note on ::  Channel 1.  Note 50.  Velocity 100
000480t:  Note on ::  Channel 1.  Note 50.  Velocity 0
000000t:  Note on ::  Channel 1.  Note 50.  Velocity 100
001440t:  Note on ::  Channel 1.  Note 50.  Velocity 0
000000t:  Note on ::  Channel 1.  Note 50.  Velocity 100
000480t:  Note on ::  Channel 1.  Note 50.  Velocity 0
000000t:  Note on ::  Channel 1.  Note 47.  Velocity 100
001440t:  Note on ::  Channel 1.  Note 47.  Velocity 0
000000t:  Note on ::  Channel 1.  Note 47.  Velocity 100
000480t:  Note on ::  Channel 1.  Note 47.  Velocity 0
000000t:  Note on ::  Channel 1.  Note 50.  Velocity 100
001440t:  Note on ::  Channel 1.  Note 50.  Velocity 0
000000t:  Note on ::  Channel 1.  Note 50.  Velocity 100
000480t:  Note on ::  Channel 1.  Note 50.  Velocity 0
000000t:  Note on ::  Channel 1.  Note 47.  Velocity 100
001440t:  Note on ::  Channel 1.  Note 47.  Velocity 0
000000t:  Note on ::  Channel 1.  Note 47.  Velocity 100
000480t:  Note on ::  Channel 1.  Note 47.  Velocity 0
000000t:  Note on ::  Channel 1.  Note 50.  Velocity 100
001440t:  Note on ::  Channel 1.  Note 50.  Velocity 0
000000t:  Note on ::  Channel 1.  Note 50.  Velocity 100
000480t:  Note on ::  Channel 1.  Note 50.  Velocity 0
000000t:  Note on ::  Channel 1.  Note 47.  Velocity 100
001440t:  Note on ::  Channel 1.  Note 47.  Velocity 0
000000t:  Note on ::  Channel 1.  Note 47.  Velocity 100
000480t:  Note on ::  Channel 1.  Note 47.  Velocity 0
000000t:  Note on ::  Channel 1.  Note 50.  Velocity 100
001440t:  Note on ::  Channel 1.  Note 50.  Velocity 0
000000t:  Note on ::  Channel 1.  Note 50.  Velocity 100
000480t:  Note on ::  Channel 1.  Note 50.  Velocity 0
000000t:  Note on ::  Channel 1.  Note 47.  Velocity 100
001440t:  Note on ::  Channel 1.  Note 47.  Velocity 0
000000t:  Note on ::  Channel 1.  Note 47.  Velocity 100
000480t:  Note on ::  Channel 1.  Note 47.  Velocity 0
000000t:  Note on ::  Channel 1.  Note 52.  Velocity 100
001440t:  Note on ::  Channel 1.  Note 52.  Velocity 0
000000t:  Note on ::  Channel 1.  Note 52.  Velocity 100
000480t:  Note on ::  Channel 1.  Note 52.  Velocity 0
000000t:  Note on ::  Channel 1.  Note 52.  Velocity 100
000480t:  Note on ::  Channel 1.  Note 52.  Velocity 0
000000t:  Note on ::  Channel 1.  Note 54.  Velocity 100
000480t:  Note on ::  Channel 1.  Note 54.  Velocity 0
000000t:  Note on ::  Channel 1.  Note 55.  Velocity 100
000960t:  Note on ::  Channel 1.  Note 55.  Velocity 0
000000t:  Note on ::  Channel 1.  Note 45.  Velocity 100
001440t:  Note on ::  Channel 1.  Note 45.  Velocity 0
000000t:  Note on ::  Channel 1.  Note 45.  Velocity 100
000480t:  Note on ::  Channel 1.  Note 45.  Velocity 0
000000t:  Note on ::  Channel 1.  Note 45.  Velocity 100
000480t:  Note on ::  Channel 1.  Note 45.  Velocity 0
000000t:  Note on ::  Channel 1.  Note 47.  Velocity 100
000480t:  Note on ::  Channel 1.  Note 47.  Velocity 0
000000t:  Note on ::  Channel 1.  Note 49.  Velocity 100
000480t:  Note on ::  Channel 1.  Note 49.  Velocity 0
000000t:  Note on ::  Channel 1.  Note 45.  Velocity 100
000480t:  Note on ::  Channel 1.  Note 45.  Velocity 0
000000t:  Note on ::  Channel 1.  Note 46.  Velocity 100
000960t:  Note on ::  Channel 1.  Note 46.  Velocity 0
000000t:  Note on ::  Channel 1.  Note 46.  Velocity 100
000480t:  Note on ::  Channel 1.  Note 46.  Velocity 0
000000t:  Note on ::  Channel 1.  Note 46.  Velocity 100
000480t:  Note on ::  Channel 1.  Note 46.  Velocity 0
000000t:  Note on ::  Channel 1.  Note 46.  Velocity 100
000480t:  Note on ::  Channel 1.  Note 46.  Velocity 0
000000t:  Note on ::  Channel 1.  Note 46.  Velocity 100
000480t:  Note on ::  Channel 1.  Note 46.  Velocity 0
000000t:  Note on ::  Channel 1.  Note 46.  Velocity 100
000480t:  Note on ::  Channel 1.  Note 46.  Velocity 0
000000t:  Note on ::  Channel 1.  Note 46.  Velocity 100
000480t:  Note on ::  Channel 1.  Note 46.  Velocity 0
000000t:  Note on ::  Channel 1.  Note 48.  Velocity 100
000000t:  Note on ::  Channel 1.  Note 53.  Velocity 100
000480t:  Note on ::  Channel 1.  Note 53.  Velocity 0
000000t:  Note on ::  Channel 1.  Note 48.  Velocity 0
000000t:  Note on ::  Channel 1.  Note 48.  Velocity 100
000000t:  Note on ::  Channel 1.  Note 53.  Velocity 100
000480t:  Note on ::  Channel 1.  Note 53.  Velocity 0
000000t:  Note on ::  Channel 1.  Note 48.  Velocity 0
000960t:  Note on ::  Channel 1.  Note 48.  Velocity 100
000000t:  Note on ::  Channel 1.  Note 43.  Velocity 100
000480t:  Note on ::  Channel 1.  Note 43.  Velocity 0
000000t:  Note on ::  Channel 1.  Note 48.  Velocity 0
000000t:  Note on ::  Channel 1.  Note 43.  Velocity 100
000000t:  Note on ::  Channel 1.  Note 48.  Velocity 100
000480t:  Note on ::  Channel 1.  Note 48.  Velocity 0
000000t:  Note on ::  Channel 1.  Note 43.  Velocity 0
000960t:  Note on ::  Channel 1.  Note 46.  Velocity 100
000000t:  Note on ::  Channel 1.  Note 41.  Velocity 100
000480t:  Note on ::  Channel 1.  Note 41.  Velocity 0
000000t:  Note on ::  Channel 1.  Note 46.  Velocity 0
000000t:  Note on ::  Channel 1.  Note 41.  Velocity 100
000000t:  Note on ::  Channel 1.  Note 46.  Velocity 100
000480t:  Note on ::  Channel 1.  Note 46.  Velocity 0
000000t:  Note on ::  Channel 1.  Note 41.  Velocity 0
000960t:  Note on ::  Channel 1.  Note 48.  Velocity 100
000000t:  Note on ::  Channel 1.  Note 53.  Velocity 100
000480t:  Note on ::  Channel 1.  Note 53.  Velocity 0
000000t:  Note on ::  Channel 1.  Note 48.  Velocity 0
000000t:  Note on ::  Channel 1.  Note 48.  Velocity 100
000000t:  Note on ::  Channel 1.  Note 53.  Velocity 100
000480t:  Note on ::  Channel 1.  Note 53.  Velocity 0
000000t:  Note on ::  Channel 1.  Note 48.  Velocity 0
000960t:  Note on ::  Channel 1.  Note 48.  Velocity 100
000000t:  Note on ::  Channel 1.  Note 53.  Velocity 100
000480t:  Note on ::  Channel 1.  Note 53.  Velocity 0
000000t:  Note on ::  Channel 1.  Note 48.  Velocity 0
000000t:  Note on ::  Channel 1.  Note 48.  Velocity 100
000000t:  Note on ::  Channel 1.  Note 53.  Velocity 100
000480t:  Note on ::  Channel 1.  Note 53.  Velocity 0
000000t:  Note on ::  Channel 1.  Note 48.  Velocity 0
000960t:  Note on ::  Channel 1.  Note 43.  Velocity 100
000000t:  Note on ::  Channel 1.  Note 48.  Velocity 100
000480t:  Note on ::  Channel 1.  Note 48.  Velocity 0
000000t:  Note on ::  Channel 1.  Note 43.  Velocity 0
000000t:  Note on ::  Channel 1.  Note 43.  Velocity 100
000000t:  Note on ::  Channel 1.  Note 48.  Velocity 100
000480t:  Note on ::  Channel 1.  Note 48.  Velocity 0
000000t:  Note on ::  Channel 1.  Note 43.  Velocity 0
000960t:  Note on ::  Channel 1.  Note 41.  Velocity 100
000000t:  Note on ::  Channel 1.  Note 46.  Velocity 100
000480t:  Note on ::  Channel 1.  Note 46.  Velocity 0
000000t:  Note on ::  Channel 1.  Note 41.  Velocity 0
000000t:  Note on ::  Channel 1.  Note 41.  Velocity 100
000000t:  Note on ::  Channel 1.  Note 46.  Velocity 100
000480t:  Note on ::  Channel 1.  Note 46.  Velocity 0
000000t:  Note on ::  Channel 1.  Note 41.  Velocity 0
000960t:  Note on ::  Channel 1.  Note 48.  Velocity 100
000000t:  Note on ::  Channel 1.  Note 53.  Velocity 100
000480t:  Note on ::  Channel 1.  Note 53.  Velocity 0
000000t:  Note on ::  Channel 1.  Note 48.  Velocity 0
000000t:  Note on ::  Channel 1.  Note 48.  Velocity 100
000000t:  Note on ::  Channel 1.  Note 53.  Velocity 100
000480t:  Note on ::  Channel 1.  Note 53.  Velocity 0
000000t:  Note on ::  Channel 1.  Note 48.  Velocity 0
000960t:  Note on ::  Channel 1.  Note 41.  Velocity 100
000000t:  Note on ::  Channel 1.  Note 46.  Velocity 100
000480t:  Note on ::  Channel 1.  Note 46.  Velocity 0
000000t:  Note on ::  Channel 1.  Note 41.  Velocity 0
000000t:  Note on ::  Channel 1.  Note 46.  Velocity 100
000000t:  Note on ::  Channel 1.  Note 41.  Velocity 100
000480t:  Note on ::  Channel 1.  Note 41.  Velocity 0
000000t:  Note on ::  Channel 1.  Note 46.  Velocity 0
000000t:  Note on ::  Channel 1.  Note 46.  Velocity 100
000000t:  Note on ::  Channel 1.  Note 41.  Velocity 100
000480t:  Note on ::  Channel 1.  Note 41.  Velocity 0
000000t:  Note on ::  Channel 1.  Note 46.  Velocity 0
000000t:  Note on ::  Channel 1.  Note 41.  Velocity 100
000000t:  Note on ::  Channel 1.  Note 46.  Velocity 100
000480t:  Note on ::  Channel 1.  Note 46.  Velocity 0
000000t:  Note on ::  Channel 1.  Note 41.  Velocity 0
000000t:  Note on ::  Channel 1.  Note 43.  Velocity 100
000000t:  Note on ::  Channel 1.  Note 48.  Velocity 100
000480t:  Note on ::  Channel 1.  Note 48.  Velocity 0
000000t:  Note on ::  Channel 1.  Note 43.  Velocity 0
000000t:  Note on ::  Channel 1.  Note 43.  Velocity 100
000000t:  Note on ::  Channel 1.  Note 48.  Velocity 100
000480t:  Note on ::  Channel 1.  Note 48.  Velocity 0
000000t:  Note on ::  Channel 1.  Note 43.  Velocity 0
000000t:  Note on ::  Channel 1.  Note 43.  Velocity 100
000000t:  Note on ::  Channel 1.  Note 48.  Velocity 100
000480t:  Note on ::  Channel 1.  Note 48.  Velocity 0
000000t:  Note on ::  Channel 1.  Note 43.  Velocity 0
000000t:  Note on ::  Channel 1.  Note 43.  Velocity 100
000000t:  Note on ::  Channel 1.  Note 48.  Velocity 100
000480t:  Note on ::  Channel 1.  Note 48.  Velocity 0
000000t:  Note on ::  Channel 1.  Note 43.  Velocity 0
000000t:  Note on ::  Channel 1.  Note 48.  Velocity 100
000000t:  Note on ::  Channel 1.  Note 53.  Velocity 100
000480t:  Note on ::  Channel 1.  Note 53.  Velocity 0
000000t:  Note on ::  Channel 1.  Note 48.  Velocity 0
000000t:  Note on ::  Channel 1.  Note 48.  Velocity 100
000000t:  Note on ::  Channel 1.  Note 53.  Velocity 100
000480t:  Note on ::  Channel 1.  Note 53.  Velocity 0
000000t:  Note on ::  Channel 1.  Note 48.  Velocity 0
000000t:  Note on ::  Channel 1.  Note 47.  Velocity 100
000000t:  Note on ::  Channel 1.  Note 52.  Velocity 100
000480t:  Note on ::  Channel 1.  Note 52.  Velocity 0
000000t:  Note on ::  Channel 1.  Note 47.  Velocity 0
000000t:  Note on ::  Channel 1.  Note 47.  Velocity 100
000000t:  Note on ::  Channel 1.  Note 52.  Velocity 100
000480t:  Note on ::  Channel 1.  Note 52.  Velocity 0
000000t:  Note on ::  Channel 1.  Note 47.  Velocity 0
000000t:  Note on ::  Channel 1.  Note 45.  Velocity 100
000000t:  Note on ::  Channel 1.  Note 50.  Velocity 100
000480t:  Note on ::  Channel 1.  Note 50.  Velocity 0
000000t:  Note on ::  Channel 1.  Note 45.  Velocity 0
000000t:  Note on ::  Channel 1.  Note 45.  Velocity 100
000000t:  Note on ::  Channel 1.  Note 50.  Velocity 100
000480t:  Note on ::  Channel 1.  Note 50.  Velocity 0
000000t:  Note on ::  Channel 1.  Note 45.  Velocity 0
000000t:  Note on ::  Channel 1.  Note 43.  Velocity 100
000000t:  Note on ::  Channel 1.  Note 48.  Velocity 100
000480t:  Note on ::  Channel 1.  Note 48.  Velocity 0
000000t:  Note on ::  Channel 1.  Note 43.  Velocity 0
000000t:  Note on ::  Channel 1.  Note 43.  Velocity 100
000000t:  Note on ::  Channel 1.  Note 48.  Velocity 100
000480t:  Note on ::  Channel 1.  Note 48.  Velocity 0
000000t:  Note on ::  Channel 1.  Note 43.  Velocity 0
000000t:  Note on ::  Channel 1.  Note 46.  Velocity 100
000960t:  Note on ::  Channel 1.  Note 46.  Velocity 0
000000t:  Note on ::  Channel 1.  Note 53.  Velocity 100
000960t:  Note on ::  Channel 1.  Note 53.  Velocity 0
000000t:  Note on ::  Channel 1.  Note 45.  Velocity 100
000960t:  Note on ::  Channel 1.  Note 45.  Velocity 0
000000t:  Note on ::  Channel 1.  Note 52.  Velocity 100
000960t:  Note on ::  Channel 1.  Note 52.  Velocity 0
000000t:  Note on ::  Channel 1.  Note 50.  Velocity 100
001440t:  Note on ::  Channel 1.  Note 50.  Velocity 0
000000t:  Note on ::  Channel 1.  Note 50.  Velocity 100
000480t:  Note on ::  Channel 1.  Note 50.  Velocity 0
000000t:  Note on ::  Channel 1.  Note 47.  Velocity 100
001440t:  Note on ::  Channel 1.  Note 47.  Velocity 0
000000t:  Note on ::  Channel 1.  Note 47.  Velocity 100
000480t:  Note on ::  Channel 1.  Note 47.  Velocity 0
000000t:  Note on ::  Channel 1.  Note 50.  Velocity 100
001440t:  Note on ::  Channel 1.  Note 50.  Velocity 0
000000t:  Note on ::  Channel 1.  Note 50.  Velocity 100
000480t:  Note on ::  Channel 1.  Note 50.  Velocity 0
000000t:  Note on ::  Channel 1.  Note 47.  Velocity 100
001440t:  Note on ::  Channel 1.  Note 47.  Velocity 0
000000t:  Note on ::  Channel 1.  Note 47.  Velocity 100
000480t:  Note on ::  Channel 1.  Note 47.  Velocity 0
000000t:  Note on ::  Channel 1.  Note 50.  Velocity 100
001440t:  Note on ::  Channel 1.  Note 50.  Velocity 0
000000t:  Note on ::  Channel 1.  Note 50.  Velocity 100
000480t:  Note on ::  Channel 1.  Note 50.  Velocity 0
000000t:  Note on ::  Channel 1.  Note 47.  Velocity 100
001440t:  Note on ::  Channel 1.  Note 47.  Velocity 0
000000t:  Note on ::  Channel 1.  Note 47.  Velocity 100
000480t:  Note on ::  Channel 1.  Note 47.  Velocity 0
000000t:  Note on ::  Channel 1.  Note 50.  Velocity 100
001440t:  Note on ::  Channel 1.  Note 50.  Velocity 0
000000t:  Note on ::  Channel 1.  Note 50.  Velocity 100
000480t:  Note on ::  Channel 1.  Note 50.  Velocity 0
000000t:  Note on ::  Channel 1.  Note 47.  Velocity 100
001440t:  Note on ::  Channel 1.  Note 47.  Velocity 0
000000t:  Note on ::  Channel 1.  Note 47.  Velocity 100
000480t:  Note on ::  Channel 1.  Note 47.  Velocity 0
000000t:  Note on ::  Channel 1.  Note 50.  Velocity 100
001440t:  Note on ::  Channel 1.  Note 50.  Velocity 0
000000t:  Note on ::  Channel 1.  Note 50.  Velocity 100
000480t:  Note on ::  Channel 1.  Note 50.  Velocity 0
000000t:  Note on ::  Channel 1.  Note 47.  Velocity 100
001440t:  Note on ::  Channel 1.  Note 47.  Velocity 0
000000t:  Note on ::  Channel 1.  Note 47.  Velocity 100
000480t:  Note on ::  Channel 1.  Note 47.  Velocity 0
000000t:  Note on ::  Channel 1.  Note 50.  Velocity 100
001440t:  Note on ::  Channel 1.  Note 50.  Velocity 0
000000t:  Note on ::  Channel 1.  Note 50.  Velocity 100
000480t:  Note on ::  Channel 1.  Note 50.  Velocity 0
000000t:  Note on ::  Channel 1.  Note 47.  Velocity 100
001440t:  Note on ::  Channel 1.  Note 47.  Velocity 0
000000t:  Note on ::  Channel 1.  Note 47.  Velocity 100
000480t:  Note on ::  Channel 1.  Note 47.  Velocity 0
000000t:  Note on ::  Channel 1.  Note 50.  Velocity 100
001440t:  Note on ::  Channel 1.  Note 50.  Velocity 0
000000t:  Note on ::  Channel 1.  Note 50.  Velocity 100
000480t:  Note on ::  Channel 1.  Note 50.  Velocity 0
000000t:  Note on ::  Channel 1.  Note 47.  Velocity 100
001440t:  Note on ::  Channel 1.  Note 47.  Velocity 0
000000t:  Note on ::  Channel 1.  Note 47.  Velocity 100
000480t:  Note on ::  Channel 1.  Note 47.  Velocity 0
000000t:  Note on ::  Channel 1.  Note 50.  Velocity 100
001440t:  Note on ::  Channel 1.  Note 50.  Velocity 0
000000t:  Note on ::  Channel 1.  Note 50.  Velocity 100
000480t:  Note on ::  Channel 1.  Note 50.  Velocity 0
000000t:  Note on ::  Channel 1.  Note 47.  Velocity 100
001440t:  Note on ::  Channel 1.  Note 47.  Velocity 0
000000t:  Note on ::  Channel 1.  Note 47.  Velocity 100
000480t:  Note on ::  Channel 1.  Note 47.  Velocity 0
000000t:  Note on ::  Channel 1.  Note 50.  Velocity 100
001440t:  Note on ::  Channel 1.  Note 50.  Velocity 0
000000t:  Note on ::  Channel 1.  Note 50.  Velocity 100
000480t:  Note on ::  Channel 1.  Note 50.  Velocity 0
000000t:  Note on ::  Channel 1.  Note 47.  Velocity 100
001440t:  Note on ::  Channel 1.  Note 47.  Velocity 0
000000t:  Note on ::  Channel 1.  Note 47.  Velocity 100
000480t:  Note on ::  Channel 1.  Note 47.  Velocity 0
000000t:  Note on ::  Channel 1.  Note 50.  Velocity 100
001440t:  Note on ::  Channel 1.  Note 50.  Velocity 0
000000t:  Note on ::  Channel 1.  Note 50.  Velocity 100
000480t:  Note on ::  Channel 1.  Note 50.  Velocity 0
000000t:  Note on ::  Channel 1.  Note 47.  Velocity 100
001440t:  Note on ::  Channel 1.  Note 47.  Velocity 0
000000t:  Note on ::  Channel 1.  Note 47.  Velocity 100
000480t:  Note on ::  Channel 1.  Note 47.  Velocity 0
000000t:  Note on ::  Channel 1.  Note 50.  Velocity 100
001440t:  Note on ::  Channel 1.  Note 50.  Velocity 0
000000t:  Note on ::  Channel 1.  Note 50.  Velocity 100
000480t:  Note on ::  Channel 1.  Note 50.  Velocity 0
000000t:  Note on ::  Channel 1.  Note 47.  Velocity 100
001440t:  Note on ::  Channel 1.  Note 47.  Velocity 0
000000t:  Note on ::  Channel 1.  Note 47.  Velocity 100
000480t:  Note on ::  Channel 1.  Note 47.  Velocity 0
000000t:  Note on ::  Channel 1.  Note 50.  Velocity 100
001440t:  Note on ::  Channel 1.  Note 50.  Velocity 0
000000t:  Note on ::  Channel 1.  Note 50.  Velocity 100
000480t:  Note on ::  Channel 1.  Note 50.  Velocity 0
000000t:  Note on ::  Channel 1.  Note 47.  Velocity 100
000960t:  Note on ::  Channel 1.  Note 47.  Velocity 0
000000t:  Meta-event type $2f (End-track event) of length 0
Sigma t = 333120

Track chunk of 12 bytes
000000t:  Meta-event type $03 (Track name) of length 4
	  Bass
000000t:  Meta-event type $2f (End-track event) of length 0
Sigma t = 0

Track chunk of 4 bytes
000000t:  Meta-event type $2f (End-track event) of length 0
Sigma t = 0
End.
